<svg version="1.1" xmlns="http://www.w3.org/2000/svg" width="1024" height="1024">
<path d="M0 0 C337.92 0 675.84 0 1024 0 C1024 337.92 1024 675.84 1024 1024 C686.08 1024 348.16 1024 0 1024 C0 686.08 0 348.16 0 0 Z " fill="#FEFEFE" transform="translate(0,0)"/>
<path d="M0 0 C0.831 0.001 1.663 0.002 2.519 0.003 C8.611 0.12 14.532 0.697 19.625 4.375 C19.955 5.365 20.285 6.355 20.625 7.375 C19.491 7.21 18.356 7.045 17.188 6.875 C-3.714 4.673 -20.958 8.433 -38 21.438 C-48.808 30.751 -57.475 42.943 -62.375 56.375 C-62.922 57.851 -62.922 57.851 -63.48 59.356 C-67.697 72.996 -66.763 87.168 -66.533 101.285 C-66.456 106.142 -66.4 111.001 -66.358 115.859 C-66.333 118.432 -66.298 121.006 -66.251 123.579 C-66.085 138.408 -71.169 150.048 -78.848 162.508 C-81.722 167.202 -84.375 171.971 -86.875 176.875 C-87.382 177.844 -87.382 177.844 -87.9 178.833 C-93.441 189.901 -93.115 207.635 -89.375 219.375 C-86.143 227.084 -81.124 235.5 -73.375 239.375 C-73.811 238.778 -74.246 238.181 -74.695 237.566 C-83.996 224.019 -89.053 207.86 -87.375 191.375 C-85.152 180.534 -79.109 171.48 -73.312 162.234 C-65.871 150.154 -63.048 140.644 -63.285 126.469 C-63.306 123.924 -63.326 121.38 -63.346 118.836 C-63.389 114.865 -63.437 110.894 -63.491 106.923 C-63.842 79.258 -61.853 53.908 -41.746 32.75 C-40.964 31.966 -40.181 31.183 -39.375 30.375 C-38.603 29.591 -37.831 28.808 -37.035 28 C-30.817 22.034 -24.148 18.038 -16.375 14.375 C-15.085 13.721 -15.085 13.721 -13.77 13.055 C-3.007 8.282 11.494 8.874 22.625 12.375 C25.078 13.742 25.078 13.742 26.875 15.25 C27.52 15.776 28.164 16.302 28.828 16.844 C29.421 17.349 30.014 17.854 30.625 18.375 C32.11 19.551 32.11 19.551 33.625 20.75 C34.285 21.286 34.945 21.822 35.625 22.375 C38.316 21.155 38.316 21.155 40.625 19.375 C46.537 18.305 51.079 19.161 56.25 22.188 C64.156 27.742 69.893 35.381 72.23 44.82 C73.945 55.925 73.945 55.925 71.543 60.383 C69.693 64.399 72.111 68.893 73.473 72.855 C76.686 83.155 77.914 93.862 79.477 104.51 C82.625 125.771 88.551 145.127 98.75 164.125 C105.629 177.028 110.297 188.559 106.941 203.398 C106.125 205.875 106.125 205.875 104.625 209.375 C110.286 204.608 111.267 200.257 111.914 193.238 C112.552 178.251 106.012 167.066 99.154 154.272 C92.729 142.092 87.59 129.247 85.914 115.492 C85.734 113.324 85.734 113.324 84.625 111.375 C84.277 108.875 83.969 106.383 83.688 103.875 C82.28 92.114 79.554 80.836 76.625 69.375 C79.625 70.375 79.625 70.375 80.871 72.352 C85.349 82.306 88.286 92.394 89.438 103.25 C91.808 123.027 98.653 142.393 108.75 159.5 C116.325 172.474 120.002 185.349 117.625 200.375 C116.328 204.756 114.197 208.609 111.625 212.375 C112.517 212.652 113.409 212.929 114.328 213.215 C123.581 216.471 130.671 222.637 137.625 229.375 C138.166 229.889 138.708 230.404 139.265 230.934 C155.604 246.767 165.967 268.168 176.277 288.137 C176.592 288.745 176.906 289.353 177.23 289.98 C185.521 306.037 193.667 322.167 201.772 338.319 C203.48 341.721 205.193 345.12 206.912 348.517 C209.032 352.708 211.143 356.905 213.247 361.105 C214.035 362.676 214.827 364.245 215.623 365.812 C221.697 377.784 227.443 389.642 227.188 403.375 C227.177 404.229 227.167 405.083 227.156 405.962 C226.732 418.707 221.59 428.688 212.469 437.445 C207.385 441.995 207.385 441.995 204.625 443.375 C234.325 443.705 264.025 444.035 294.625 444.375 C294.955 446.025 295.285 447.675 295.625 449.375 C294.625 450.375 294.625 450.375 292.487 450.498 C291.537 450.497 290.587 450.496 289.607 450.495 C288.521 450.497 287.434 450.498 286.314 450.499 C285.111 450.496 283.909 450.492 282.67 450.489 C281.411 450.489 280.153 450.489 278.856 450.489 C275.396 450.489 271.935 450.483 268.475 450.476 C264.862 450.47 261.249 450.47 257.636 450.468 C250.79 450.465 243.944 450.457 237.099 450.447 C229.307 450.436 221.515 450.43 213.723 450.425 C197.69 450.415 181.658 450.397 165.625 450.375 C165.55 451.277 165.475 452.18 165.397 453.11 C165.11 456.486 164.813 459.861 164.508 463.235 C164.379 464.69 164.254 466.146 164.133 467.602 C163.958 469.706 163.767 471.808 163.574 473.91 C163.464 475.172 163.354 476.434 163.241 477.735 C162.111 484.415 159.464 489.536 154.625 494.375 C149.749 497.371 144.979 499.497 139.202 499.506 C138.292 499.51 137.382 499.514 136.444 499.518 C135.443 499.517 134.441 499.516 133.41 499.515 C131.815 499.52 131.815 499.52 130.189 499.524 C126.61 499.533 123.031 499.535 119.452 499.536 C116.894 499.541 114.335 499.546 111.776 499.551 C104.811 499.564 97.846 499.571 90.881 499.575 C86.531 499.578 82.182 499.582 77.832 499.587 C65.789 499.599 53.746 499.609 41.703 499.613 C40.932 499.613 40.161 499.613 39.366 499.613 C38.207 499.614 38.207 499.614 37.025 499.614 C35.459 499.614 33.893 499.615 32.327 499.615 C31.55 499.615 30.773 499.616 29.973 499.616 C17.392 499.62 4.81 499.637 -7.771 499.661 C-20.69 499.684 -33.608 499.697 -46.527 499.698 C-53.779 499.699 -61.032 499.705 -68.285 499.723 C-75.108 499.74 -81.931 499.741 -88.754 499.733 C-91.258 499.732 -93.763 499.736 -96.267 499.746 C-99.686 499.759 -103.105 499.753 -106.525 499.742 C-107.515 499.751 -108.505 499.759 -109.525 499.767 C-116.62 499.716 -121.858 498.42 -128.062 494.812 C-134.725 487.79 -136.528 479.029 -137.438 469.75 C-137.528 468.885 -137.619 468.02 -137.713 467.129 C-137.841 465.839 -137.841 465.839 -137.973 464.523 C-138.05 463.752 -138.128 462.98 -138.207 462.185 C-138.442 458.255 -138.375 454.312 -138.375 450.375 C-194.805 450.375 -251.235 450.375 -309.375 450.375 C-309.375 448.395 -309.375 446.415 -309.375 444.375 C-266.805 444.045 -224.235 443.715 -180.375 443.375 C-184.83 439.91 -184.83 439.91 -189.375 436.375 C-194.409 431.244 -197.468 425.927 -200.375 419.375 C-200.719 418.602 -201.063 417.829 -201.417 417.033 C-205.91 404.566 -202.76 388.973 -197.328 377.371 C-195.84 374.253 -194.297 371.163 -192.742 368.078 C-192.034 366.667 -191.326 365.257 -190.618 363.846 C-190.251 363.115 -189.884 362.384 -189.505 361.63 C-187.592 357.813 -185.691 353.99 -183.789 350.168 C-168.752 319.987 -168.752 319.987 -162.73 308.736 C-160.216 304.027 -157.835 299.266 -155.49 294.471 C-142.082 267.129 -126.197 235.225 -100.375 217.375 C-98.031 216.613 -98.031 216.613 -96.375 216.375 C-96.705 215.22 -97.035 214.065 -97.375 212.875 C-102.014 191.684 -94.105 174.654 -82.926 157.109 C-79.93 152.373 -77.283 147.664 -75.375 142.375 C-75.034 141.467 -74.693 140.56 -74.342 139.624 C-73.364 136.338 -73.144 133.806 -73.18 130.392 C-73.186 129.234 -73.193 128.075 -73.2 126.881 C-73.225 125.02 -73.225 125.02 -73.25 123.121 C-73.262 121.145 -73.273 119.17 -73.284 117.194 C-73.31 113.04 -73.354 108.886 -73.396 104.732 C-73.429 101.32 -73.458 97.908 -73.477 94.495 C-73.492 91.944 -73.516 89.393 -73.55 86.842 C-73.697 60.669 -64.219 39.166 -46 20.562 C-33.502 8.181 -17.792 -0.034 0 0 Z " fill="#09090A" transform="translate(517.375,308.625)"/>
<path d="M0 0 C1.062 -0.008 2.125 -0.016 3.219 -0.024 C4.961 -0.014 4.961 -0.014 6.737 -0.003 C7.975 -0.008 9.213 -0.013 10.489 -0.018 C13.923 -0.028 17.356 -0.024 20.79 -0.015 C24.494 -0.008 28.199 -0.018 31.903 -0.027 C39.158 -0.04 46.414 -0.037 53.669 -0.028 C59.565 -0.022 65.461 -0.021 71.358 -0.024 C72.196 -0.024 73.035 -0.025 73.899 -0.025 C75.603 -0.026 77.307 -0.027 79.011 -0.028 C94.994 -0.037 110.976 -0.027 126.958 -0.011 C140.675 0.003 154.392 0 168.109 -0.014 C184.033 -0.03 199.958 -0.036 215.883 -0.027 C217.58 -0.026 219.278 -0.025 220.976 -0.024 C222.229 -0.023 222.229 -0.023 223.507 -0.023 C229.397 -0.02 235.287 -0.024 241.176 -0.031 C248.353 -0.04 255.53 -0.038 262.706 -0.022 C266.369 -0.014 270.031 -0.011 273.693 -0.02 C277.661 -0.031 281.628 -0.018 285.596 -0.003 C287.337 -0.013 287.337 -0.013 289.114 -0.024 C290.176 -0.016 291.239 -0.008 292.333 0 C293.707 0.001 293.707 0.001 295.109 0.001 C299.34 0.623 301.973 2.687 304.953 5.653 C311.771 16.492 305.2 39.85 303.854 51.815 C303.59 54.228 303.326 56.642 303.063 59.055 C300.931 78.517 298.589 97.952 296.184 117.381 C294.901 127.773 293.669 138.165 292.592 148.581 C292.46 149.863 292.46 149.863 292.324 151.17 C291.895 155.334 291.474 159.498 291.061 163.663 C288.665 187.554 288.665 187.554 281.667 193.378 C278.824 194.325 277.073 194.505 274.126 194.512 C273.19 194.516 272.253 194.521 271.288 194.525 C270.258 194.525 269.227 194.525 268.165 194.525 C267.072 194.528 265.978 194.532 264.852 194.536 C261.169 194.547 257.487 194.551 253.804 194.555 C251.171 194.561 248.538 194.567 245.906 194.574 C237.993 194.594 230.08 194.604 222.167 194.613 C218.442 194.618 214.717 194.623 210.992 194.628 C198.612 194.645 186.231 194.66 173.851 194.667 C170.638 194.669 167.426 194.671 164.213 194.673 C163.415 194.673 162.616 194.674 161.793 194.674 C148.851 194.682 135.909 194.708 122.966 194.74 C109.683 194.773 96.399 194.791 83.116 194.795 C75.656 194.797 68.196 194.805 60.736 194.831 C54.385 194.853 48.034 194.861 41.682 194.851 C38.441 194.846 35.2 194.851 31.959 194.868 C28.446 194.885 24.935 194.878 21.422 194.865 C19.883 194.882 19.883 194.882 18.312 194.899 C13.938 194.859 11.395 194.822 7.602 192.505 C2.284 186.659 1.91 180.323 1.167 172.768 C0.984 171.055 0.984 171.055 0.798 169.307 C0.541 166.887 0.289 164.466 0.042 162.044 C-0.322 158.493 -0.7 154.944 -1.083 151.395 C-1.848 144.307 -2.592 137.218 -3.333 130.128 C-3.599 127.593 -3.866 125.058 -4.132 122.523 C-5.555 108.947 -6.954 95.37 -8.286 81.785 C-8.942 75.14 -9.639 68.5 -10.365 61.862 C-10.455 61.034 -10.545 60.207 -10.638 59.354 C-11.08 55.313 -11.526 51.272 -11.976 47.232 C-15.823 12.467 -15.823 12.467 -12.646 5.878 C-8.831 1.753 -5.633 0.003 0 0 Z " fill="#F4F4F5" transform="translate(385.33333587646484,606.6224765777588)"/>
<path d="M0 0 C4.426 0.889 8.746 1.851 13 3.375 C17.246 4.847 21.562 5.875 25.938 6.875 C28.187 7.401 30.437 7.929 32.686 8.458 C34.225 8.819 35.765 9.173 37.307 9.522 C61.306 15.033 78.228 30.18 91.688 50.562 C92.278 51.451 92.868 52.339 93.476 53.254 C101.549 65.632 108.475 78.748 115 92 C114.132 91.677 113.264 91.353 112.37 91.02 C109.079 90.024 106.506 89.727 103.086 89.681 C101.946 89.661 100.805 89.641 99.63 89.621 C98.414 89.609 97.198 89.598 95.945 89.586 C94.689 89.567 93.432 89.547 92.137 89.527 C88.813 89.478 85.489 89.436 82.165 89.399 C78.766 89.359 75.367 89.308 71.969 89.258 C65.313 89.162 58.656 89.078 52 89 C48.535 82.07 48.535 82.07 45 75 C44.34 75 43.68 75 43 75 C43.133 75.592 43.266 76.183 43.402 76.793 C43.579 77.583 43.756 78.373 43.938 79.188 C44.199 80.353 44.199 80.353 44.465 81.543 C45.005 84.023 45.502 86.511 46 89 C-14.72 89 -75.44 89 -138 89 C-137 84 -137 84 -135.938 81.438 C-134.761 78.813 -134.761 78.813 -135 75 C-135.66 75 -136.32 75 -137 75 C-138.98 79.62 -140.96 84.24 -143 89 C-144.558 88.999 -146.117 88.998 -147.722 88.997 C-153.532 89 -159.34 89.043 -165.15 89.098 C-167.659 89.116 -170.168 89.123 -172.677 89.12 C-176.295 89.117 -179.91 89.153 -183.527 89.195 C-184.64 89.186 -185.753 89.177 -186.9 89.168 C-194.477 89.308 -199.276 90.969 -205 96 C-210.359 102.013 -209.555 109.317 -209.146 116.951 C-208.847 121.15 -208.265 125.295 -207.645 129.457 C-206.738 135.619 -206.07 141.811 -205.375 148 C-205.24 149.17 -205.105 150.34 -204.966 151.546 C-204.348 157.063 -203.822 162.447 -204 168 C-204.697 167.841 -205.395 167.683 -206.113 167.52 C-215.469 165.836 -223.528 166.716 -232 171 C-231.34 171.33 -230.68 171.66 -230 172 C-229.113 171.691 -228.226 171.381 -227.312 171.062 C-223.701 169.904 -220.768 169.849 -217 170 C-219.13 172.13 -220.754 172.89 -223.5 174.062 C-226.779 175.469 -226.779 175.469 -230 177 C-230.33 177.99 -230.66 178.98 -231 180 C-230.236 179.651 -229.471 179.301 -228.684 178.941 C-227.612 178.486 -226.541 178.031 -225.438 177.562 C-224.405 177.11 -223.372 176.658 -222.309 176.191 C-216.212 174.084 -209.396 174.273 -203 174 C-199.008 209.358 -199.008 209.358 -197.75 222.125 C-197.67 222.902 -197.59 223.679 -197.508 224.479 C-196.982 229.995 -196.922 235.462 -197 241 C-201.07 241.2 -205.139 241.344 -209.213 241.439 C-210.594 241.479 -211.974 241.534 -213.353 241.604 C-224.154 242.137 -229.989 240.222 -238 233 C-239.609 231.855 -239.609 231.855 -241.25 230.688 C-250.493 221.654 -254.241 211.009 -254.562 198.375 C-254.426 176.9 -239.955 156.369 -230.191 137.879 C-226.78 131.418 -223.416 124.935 -220.105 118.422 C-219.705 117.633 -219.304 116.844 -218.891 116.032 C-218.488 115.239 -218.084 114.446 -217.669 113.629 C-209.484 97.526 -201.141 81.586 -192 66 C-191.187 64.593 -190.375 63.185 -189.562 61.777 C-168.17 25.049 -168.17 25.049 -151 19 C-150.743 19.606 -150.487 20.212 -150.223 20.836 C-145.032 32.196 -137.432 39.681 -126.438 45.312 C-124.002 46.999 -122.612 48.595 -120.75 50.875 C-116.596 55.748 -112.045 59.245 -105.637 60.441 C-101.744 60.644 -99.319 60.147 -95.75 58.5 C-88.786 52.169 -86.653 44.397 -84.113 35.609 C-83.26 32.844 -82.412 30.502 -81 28 C-78.389 29.031 -75.8 30.088 -73.23 31.219 C-63.947 35.128 -57.692 35.664 -47 37 C-47 51.19 -47 65.38 -47 80 C-46.01 80 -45.02 80 -44 80 C-44.012 79.074 -44.023 78.149 -44.035 77.195 C-44.144 63.781 -43.581 50.4 -43 37 C-41.947 36.876 -40.894 36.753 -39.809 36.625 C-26.864 34.867 -14.119 30.84 -5.227 20.625 C-0.375 14.197 -0.337 7.839 0 0 Z " fill="#FEFEFE" transform="translate(575,512)"/>
<path d="M0 0 C4.881 4.637 5.914 9.587 6.625 16.125 C7.007 20.894 7.007 20.894 8.5 25.375 C8.837 27.297 9.13 29.227 9.402 31.16 C9.571 32.331 9.739 33.502 9.912 34.709 C10.259 37.167 10.605 39.626 10.951 42.084 C11.789 47.92 12.708 53.667 14.06 59.406 C14.741 62.455 15.15 65.53 15.562 68.625 C16.181 73.279 16.181 73.279 17.043 77.891 C17.599 80.912 17.707 83.804 17.75 86.875 C17.776 87.978 17.802 89.082 17.828 90.219 C17.464 93.719 16.634 95.599 14.5 98.375 C13.84 98.375 13.18 98.375 12.5 98.375 C13.15 99.4 13.799 100.425 14.469 101.48 C15.313 102.841 16.157 104.201 17 105.562 C17.644 106.573 17.644 106.573 18.301 107.604 C22.227 113.991 22.227 113.991 21.5 118.375 C20.5 119.375 20.5 119.375 17.125 119.688 C8.172 119.544 0.157 114.86 -7.383 110.449 C-14.952 107.841 -23.576 111.237 -31.062 113.125 C-39.871 115.287 -48.691 117.36 -57.562 119.25 C-58.542 119.465 -59.522 119.68 -60.531 119.901 C-73.821 122.689 -73.821 122.689 -79.812 119.75 C-86.771 113.601 -87.905 103.854 -89.359 95.117 C-89.53 94.113 -89.701 93.109 -89.876 92.075 C-90.423 88.842 -90.963 85.609 -91.5 82.375 C-91.766 80.784 -91.766 80.784 -92.037 79.161 C-93.116 72.701 -94.176 66.238 -95.22 59.772 C-95.577 57.565 -95.938 55.359 -96.302 53.153 C-96.838 49.897 -97.365 46.64 -97.891 43.383 C-98.134 41.92 -98.134 41.92 -98.383 40.428 C-100.726 25.695 -100.726 25.695 -97.75 20.062 C-91.02 13.204 -77.55 12.084 -68.562 10.125 C-67.235 9.832 -65.907 9.539 -64.579 9.246 C-61.738 8.619 -58.896 7.997 -56.053 7.376 C-52.078 6.506 -48.109 5.611 -44.141 4.711 C-40.823 3.96 -37.503 3.22 -34.182 2.481 C-32.578 2.123 -30.976 1.76 -29.374 1.394 C-7.664 -3.558 -7.664 -3.558 0 0 Z " fill="#FEFEFE" transform="translate(387.5,254.625)"/>
<path d="M0 0 C8.264 2.201 14.279 9.144 20.34 14.836 C23.147 17.45 26.08 19.868 29.078 22.262 C33.435 25.767 37.37 29.508 41.27 33.512 C43.885 36.132 46.659 38.525 49.465 40.938 C59.479 49.774 59.479 49.774 59.953 56.074 C59.822 66.203 50.478 73.884 43.98 80.836 C41.958 83.023 39.988 85.233 38.035 87.48 C28.625 98.275 18.594 108.532 8.516 118.699 C7.756 119.472 6.996 120.244 6.214 121.04 C-8.389 135.667 -8.389 135.667 -14.859 136.887 C-21.797 136.424 -26.693 131.007 -31.734 126.574 C-32.387 126.005 -33.039 125.436 -33.711 124.849 C-38.877 120.323 -43.949 115.701 -48.992 111.039 C-51.108 109.097 -53.245 107.197 -55.422 105.324 C-59.461 101.806 -63.417 98.2 -67.359 94.574 C-68.01 93.984 -68.661 93.394 -69.331 92.786 C-78.188 84.589 -78.188 84.589 -79.109 78.137 C-77.423 66.334 -62.221 54.016 -54.177 45.545 C-50.825 42.016 -47.535 38.447 -44.297 34.812 C-39.431 29.388 -34.371 24.179 -29.234 19.012 C-27.931 17.678 -27.931 17.678 -26.602 16.316 C-9.477 -0.909 -9.477 -0.909 0 0 Z " fill="#FEFEFE" transform="translate(799.609375,408.36328125)"/>
<path d="M0 0 C2.72 1.306 4.762 2.736 7.09 4.648 C7.956 5.359 8.822 6.069 9.715 6.801 C13.635 10.101 17.527 13.432 21.408 16.779 C24.949 19.829 28.523 22.828 32.152 25.773 C37.556 30.163 42.833 34.69 48.109 39.23 C50.931 41.657 53.763 44.072 56.605 46.475 C57.672 47.377 58.737 48.28 59.801 49.186 C62.612 51.572 65.446 53.921 68.32 56.23 C68.92 56.719 69.519 57.207 70.136 57.711 C71.284 58.645 72.439 59.57 73.604 60.483 C75.917 62.38 77.521 63.997 78.809 66.715 C78.574 70.552 76.399 72.63 73.902 75.336 C73.403 75.901 72.904 76.466 72.389 77.048 C70.827 78.806 69.244 80.542 67.652 82.273 C66.93 83.063 66.93 83.063 66.192 83.868 C64.349 85.878 62.503 87.886 60.646 89.884 C57.614 93.162 54.76 96.542 51.965 100.023 C48.701 104.079 45.268 107.768 41.539 111.395 C39.108 113.816 36.888 116.387 34.648 118.984 C32.102 121.905 29.509 124.782 26.902 127.648 C26.43 128.173 25.958 128.697 25.471 129.237 C22.111 132.92 19.61 135.554 14.488 135.801 C8.607 135.657 5.468 132.665 1.277 128.836 C-0.216 127.538 -1.71 126.239 -3.203 124.941 C-3.916 124.308 -4.63 123.674 -5.365 123.021 C-7.862 120.82 -10.438 118.73 -13.035 116.648 C-17.811 112.749 -22.486 108.739 -27.157 104.714 C-30.681 101.683 -34.238 98.703 -37.848 95.773 C-43.347 91.306 -48.731 86.713 -54.086 82.074 C-56.038 80.386 -58.003 78.747 -60.016 77.129 C-60.744 76.537 -61.472 75.946 -62.223 75.336 C-62.839 74.853 -63.455 74.369 -64.09 73.871 C-65.348 72.273 -65.348 72.273 -65.797 69.852 C-65.197 66.41 -63.846 65.299 -61.285 62.961 C-58.38 60.214 -55.574 57.499 -52.973 54.461 C-50.001 50.999 -46.94 47.627 -43.848 44.273 C-40.848 41.017 -37.865 37.751 -34.973 34.398 C-31.687 30.605 -28.27 26.942 -24.848 23.273 C-19.283 17.306 -13.798 11.303 -8.66 4.961 C-3.468 -1.073 -3.468 -1.073 0 0 Z " fill="#FEFEFE" transform="translate(247.34765625,367.7265625)"/>
<path d="M0 0 C2.145 0.692 4.285 1.397 6.422 2.113 C7.478 2.453 8.533 2.793 9.621 3.143 C14.835 4.85 19.93 6.698 24.977 8.852 C29.563 10.807 34.198 12.532 38.914 14.145 C39.911 14.487 39.911 14.487 40.927 14.837 C43.66 15.774 46.394 16.707 49.134 17.624 C51.169 18.306 53.198 19.005 55.227 19.707 C57.013 20.311 57.013 20.311 58.835 20.928 C62.753 22.687 65.117 24.413 68.172 27.426 C69.744 35.873 65.84 43.041 62.484 50.613 C61.892 51.981 61.301 53.35 60.711 54.719 C59.488 57.553 58.255 60.382 57.015 63.208 C55.251 67.235 53.522 71.275 51.801 75.32 C46.75 87.166 41.577 98.954 36.109 110.613 C35.668 111.57 35.227 112.526 34.773 113.512 C34.357 114.384 33.941 115.257 33.512 116.156 C33.155 116.913 32.797 117.67 32.429 118.45 C30.949 120.776 29.517 121.989 27.172 123.426 C19.172 124.582 11.814 121.322 4.359 118.738 C2.918 118.247 1.476 117.756 0.034 117.265 C-10.27 113.738 -20.53 110.08 -30.758 106.337 C-32.296 105.774 -33.835 105.214 -35.375 104.657 C-37.535 103.873 -39.69 103.075 -41.844 102.273 C-43.074 101.82 -44.304 101.366 -45.571 100.899 C-49.477 99.133 -52.607 97.111 -55.141 93.613 C-57.531 86.008 -54.32 79.631 -51.453 72.613 C-50.979 71.431 -50.505 70.25 -50.017 69.032 C-45.315 57.372 -40.382 45.804 -35.453 34.238 C-35.063 33.321 -34.674 32.404 -34.272 31.459 C-33.143 28.806 -32.006 26.157 -30.867 23.508 C-30.534 22.724 -30.201 21.941 -29.858 21.134 C-23.365 6.127 -23.365 6.127 -18.016 1.363 C-17.109 0.511 -17.109 0.511 -16.184 -0.359 C-10.792 -3.14 -5.526 -1.627 0 0 Z " fill="#FEFEFE" transform="translate(694.828125,291.57421875)"/>
<path d="M0 0 C20.776 -0.612 20.776 -0.612 28 3 C30.873 3.405 33.745 3.772 36.625 4.125 C47.278 5.507 57.861 7.259 68.446 9.089 C70.273 9.405 72.102 9.718 73.93 10.028 C76.532 10.471 79.131 10.923 81.73 11.379 C82.52 11.512 83.31 11.645 84.124 11.783 C87.668 12.416 89.964 12.976 93 15 C95.314 26.791 91.144 40.652 89.125 52.25 C88.756 54.427 88.387 56.604 88.02 58.781 C85.2 75.348 85.2 75.348 83.439 83.063 C82.911 85.393 82.446 87.731 82 90.078 C81.835 90.929 81.67 91.78 81.5 92.656 C81.164 94.4 80.83 96.145 80.5 97.891 C80.335 98.736 80.17 99.582 80 100.453 C79.856 101.208 79.711 101.962 79.562 102.739 C78.932 105.274 78.017 107.597 77 110 C67.365 110.371 58.169 109.23 48.688 107.75 C47.188 107.522 45.688 107.294 44.188 107.067 C35.279 105.709 26.382 104.276 17.5 102.75 C16.552 102.587 15.604 102.425 14.628 102.257 C8.256 101.128 8.256 101.128 6 100 C2.532 99.511 -0.943 99.102 -4.422 98.695 C-10.719 97.472 -14.407 95.325 -18 90 C-19.895 80.03 -16.673 69.431 -14.375 59.75 C-14.007 58.155 -13.64 56.559 -13.274 54.964 C-12.368 51.027 -11.445 47.095 -10.513 43.164 C-10.038 41.162 -9.567 39.159 -9.097 37.156 C-6.177 24.743 -3.132 12.361 0 0 Z " fill="#FEFEFE" transform="translate(201,530)"/>
<path d="M0 0 C0.66 0 1.32 0 2 0 C2.227 1.114 2.454 2.228 2.688 3.375 C4.722 11.412 8.653 19.514 15 25 C17.119 26.24 19.244 27.468 21.375 28.688 C26.709 32.157 26.709 32.157 27.879 35.543 C27.947 38.823 27.562 41.765 27 45 C26.783 46.415 26.569 47.83 26.355 49.246 C25.873 52.333 25.343 55.407 24.785 58.48 C24.062 62.515 23.54 66.553 23.062 70.625 C20.285 91.736 13.549 108.107 -3.664 121.527 C-11.62 126.543 -19.854 127.352 -29 126 C-41.651 122.112 -51.995 111.938 -58.367 100.559 C-64.172 89.311 -66.942 78.66 -67.812 66.062 C-68.458 57.974 -69.895 50.514 -72.323 42.774 C-73.484 39.067 -74.289 35.897 -74 32 C-70.437 30.419 -67.365 29.712 -63.5 29.312 C-42.964 26.312 -24.544 16.644 -7.109 5.883 C-4.768 4.465 -2.473 3.163 0 2 C0 1.34 0 0.68 0 0 Z " fill="#FEFEFE" transform="translate(550,367)"/>
<path d="M0 0 C6.111 2.731 10.606 8.661 15.003 13.544 C19.911 18.983 25.076 24.138 30.305 29.267 C46.809 45.559 46.809 45.559 47.188 52.375 C45.536 57.416 42.694 60.28 39 64 C38.206 64.82 37.412 65.64 36.594 66.484 C32.338 70.819 27.991 74.965 23.371 78.906 C21.427 80.623 19.539 82.37 17.66 84.156 C-7.042 107.635 -7.042 107.635 -16.582 107.453 C-21.231 106.582 -23.824 103.304 -27 100 C-27.971 99.045 -28.945 98.094 -29.922 97.145 C-34.976 92.203 -39.849 87.173 -44.43 81.785 C-46.024 79.972 -47.702 78.303 -49.438 76.625 C-62.443 63.826 -62.443 63.826 -63.344 56.023 C-62.926 52.347 -62.052 51.262 -59.5 48.625 C-58.687 47.776 -57.873 46.926 -57.035 46.051 C-56.024 45.033 -55.012 44.016 -54 43 C-52.707 41.681 -51.414 40.362 -50.121 39.043 C-44.204 33.047 -38.276 27.16 -31.895 21.655 C-29.618 19.667 -27.425 17.602 -25.233 15.522 C-7.836 -0.915 -7.836 -0.915 0 0 Z " fill="#FEFEFE" transform="translate(804,555)"/>
<path d="M0 0 C3.66 3.219 5.672 6.833 7.758 11.16 C8.275 12.207 8.275 12.207 8.803 13.275 C9.917 15.534 11.021 17.798 12.125 20.062 C13.651 23.165 15.183 26.264 16.715 29.363 C17.088 30.121 17.462 30.878 17.847 31.659 C20.69 37.413 23.647 43.098 26.688 48.75 C30.564 56.012 34.024 63.318 37 71 C37.339 71.843 37.678 72.686 38.027 73.555 C41.612 83.631 41.476 95.259 37 105 C36.565 106.027 36.565 106.027 36.121 107.074 C31.626 116.949 23.494 124.428 13.705 129.094 C10.655 130.116 8.254 130.228 5.043 130.195 C3.931 130.189 2.819 130.182 1.674 130.176 C-0.052 130.151 -0.052 130.151 -1.812 130.125 C-2.982 130.116 -4.152 130.107 -5.357 130.098 C-8.238 130.074 -11.119 130.041 -14 130 C-14.132 123.405 -13.805 117.048 -12.941 110.512 C-12.778 109.214 -12.778 109.214 -12.612 107.89 C-12.268 105.155 -11.916 102.421 -11.562 99.688 C-11.101 96.088 -10.644 92.488 -10.191 88.887 C-10.083 88.028 -9.975 87.169 -9.864 86.284 C-9.03 79.533 -8.413 72.791 -8 66 C0.629 65.435 7.851 67.37 16 70 C13.825 66.737 12.871 66.261 9.375 64.812 C8.149 64.296 8.149 64.296 6.898 63.77 C5.959 63.389 5.959 63.389 5 63 C5 62.67 5 62.34 5 62 C6.417 61.973 7.833 61.953 9.25 61.938 C10.039 61.926 10.828 61.914 11.641 61.902 C13.907 61.996 15.829 62.368 18 63 C17.111 60.645 17.111 60.645 13.965 59.914 C9.852 58.84 5.795 58.561 1.562 58.375 C0.213 58.309 -1.136 58.242 -2.485 58.174 C-3.645 58.117 -4.805 58.059 -6 58 C-5.499 44.652 -4.229 31.546 -2.438 18.312 C-2.2 16.52 -1.964 14.728 -1.729 12.936 C-1.16 8.623 -0.583 4.311 0 0 Z " fill="#FEFEFE" transform="translate(698,623)"/>
<path d="M0 0 C2.145 0.692 4.285 1.397 6.422 2.113 C7.478 2.453 8.533 2.793 9.621 3.143 C14.835 4.85 19.93 6.698 24.977 8.852 C29.563 10.807 34.198 12.532 38.914 14.145 C39.911 14.487 39.911 14.487 40.927 14.837 C43.66 15.774 46.394 16.707 49.134 17.624 C51.169 18.306 53.198 19.005 55.227 19.707 C57.013 20.311 57.013 20.311 58.835 20.928 C62.753 22.687 65.117 24.413 68.172 27.426 C69.744 35.873 65.84 43.041 62.484 50.613 C61.892 51.981 61.301 53.35 60.711 54.719 C59.488 57.553 58.255 60.382 57.015 63.208 C55.251 67.235 53.522 71.275 51.801 75.32 C46.75 87.166 41.577 98.954 36.109 110.613 C35.668 111.57 35.227 112.526 34.773 113.512 C34.357 114.384 33.941 115.257 33.512 116.156 C33.155 116.913 32.797 117.67 32.429 118.45 C30.949 120.776 29.517 121.989 27.172 123.426 C19.172 124.582 11.814 121.322 4.359 118.738 C2.918 118.247 1.476 117.756 0.034 117.265 C-10.27 113.738 -20.53 110.08 -30.758 106.337 C-32.296 105.774 -33.835 105.214 -35.375 104.657 C-37.535 103.873 -39.69 103.075 -41.844 102.273 C-43.074 101.82 -44.304 101.366 -45.571 100.899 C-49.477 99.133 -52.607 97.111 -55.141 93.613 C-57.531 86.008 -54.32 79.631 -51.453 72.613 C-50.979 71.431 -50.505 70.25 -50.017 69.032 C-45.315 57.372 -40.382 45.804 -35.453 34.238 C-35.063 33.321 -34.674 32.404 -34.272 31.459 C-33.143 28.806 -32.006 26.157 -30.867 23.508 C-30.534 22.724 -30.201 21.941 -29.858 21.134 C-23.365 6.127 -23.365 6.127 -18.016 1.363 C-17.109 0.511 -17.109 0.511 -16.184 -0.359 C-10.792 -3.14 -5.526 -1.627 0 0 Z M-20.828 13.426 C-27.04 27.994 -33.166 42.597 -39.203 57.238 C-39.497 57.95 -39.791 58.662 -40.094 59.395 C-41.762 63.434 -43.417 67.479 -45.056 71.53 C-45.821 73.409 -46.604 75.279 -47.388 77.15 C-47.855 78.297 -48.323 79.443 -48.805 80.625 C-49.221 81.627 -49.636 82.63 -50.065 83.663 C-50.942 86.836 -51.033 88.362 -49.828 91.426 C-46.06 95.305 -41.715 96.839 -36.723 98.562 C-35.539 98.984 -35.539 98.984 -34.332 99.414 C-31.771 100.324 -29.206 101.219 -26.641 102.113 C-24.876 102.735 -23.112 103.358 -21.348 103.981 C-17.827 105.223 -14.305 106.459 -10.78 107.69 C-7.038 108.999 -3.302 110.324 0.429 111.665 C3.362 112.718 6.298 113.758 9.234 114.801 C10.272 115.175 11.309 115.55 12.378 115.936 C17.111 117.594 21.076 118.924 26.172 118.426 C35.866 99.807 44.068 80.475 52.297 61.176 C52.758 60.1 53.219 59.023 53.695 57.915 C55.857 52.803 57.818 47.812 59.172 42.426 C51.247 38.412 43.277 35.38 34.827 32.679 C22.682 28.723 10.784 24.059 -1.142 19.492 C-2.838 18.848 -4.534 18.203 -6.23 17.559 C-7.397 17.107 -7.397 17.107 -8.586 16.647 C-12.663 15.102 -16.471 13.964 -20.828 13.426 Z " fill="#121213" transform="translate(694.828125,291.57421875)"/>
<path d="M0 0 C8.264 2.201 14.279 9.144 20.34 14.836 C23.147 17.45 26.08 19.868 29.078 22.262 C33.435 25.767 37.37 29.508 41.27 33.512 C43.885 36.132 46.659 38.525 49.465 40.938 C59.479 49.774 59.479 49.774 59.953 56.074 C59.822 66.203 50.478 73.884 43.98 80.836 C41.958 83.023 39.988 85.233 38.035 87.48 C28.625 98.275 18.594 108.532 8.516 118.699 C7.756 119.472 6.996 120.244 6.214 121.04 C-8.389 135.667 -8.389 135.667 -14.859 136.887 C-21.797 136.424 -26.693 131.007 -31.734 126.574 C-32.387 126.005 -33.039 125.436 -33.711 124.849 C-38.877 120.323 -43.949 115.701 -48.992 111.039 C-51.108 109.097 -53.245 107.197 -55.422 105.324 C-59.461 101.806 -63.417 98.2 -67.359 94.574 C-68.01 93.984 -68.661 93.394 -69.331 92.786 C-78.188 84.589 -78.188 84.589 -79.109 78.137 C-77.423 66.334 -62.221 54.016 -54.177 45.545 C-50.825 42.016 -47.535 38.447 -44.297 34.812 C-39.431 29.388 -34.371 24.179 -29.234 19.012 C-27.931 17.678 -27.931 17.678 -26.602 16.316 C-9.477 -0.909 -9.477 -0.909 0 0 Z M-13.328 10.988 C-14.272 11.937 -14.272 11.937 -15.235 12.906 C-15.953 13.621 -16.671 14.336 -17.411 15.073 C-18.183 15.857 -18.955 16.641 -19.75 17.449 C-20.55 18.251 -21.351 19.054 -22.175 19.88 C-23.874 21.585 -25.568 23.294 -27.259 25.005 C-29.828 27.605 -32.407 30.194 -34.988 32.781 C-36.639 34.441 -38.288 36.101 -39.938 37.762 C-40.701 38.53 -41.465 39.298 -42.252 40.089 C-46.358 44.25 -50.318 48.489 -54.13 52.922 C-56.213 55.337 -58.382 57.67 -60.547 60.012 C-62.239 61.883 -63.926 63.758 -65.609 65.637 C-66.419 66.533 -67.228 67.429 -68.062 68.352 C-68.8 69.209 -69.537 70.066 -70.297 70.949 C-70.961 71.708 -71.625 72.468 -72.309 73.25 C-73.804 75.595 -73.804 75.595 -73.789 78.434 C-72.016 83.247 -68.722 86.09 -65.047 89.574 C-64.01 90.59 -64.01 90.59 -62.951 91.627 C-58.315 96.134 -53.498 100.407 -48.609 104.637 C-46.98 106.091 -45.355 107.548 -43.734 109.012 C-42.89 109.772 -42.046 110.533 -41.176 111.316 C-39.492 112.838 -37.813 114.364 -36.137 115.895 C-33.644 118.162 -31.132 120.404 -28.609 122.637 C-27.653 123.495 -26.696 124.354 -25.711 125.238 C-24.749 126.071 -23.788 126.904 -22.797 127.762 C-21.488 128.91 -21.488 128.91 -20.152 130.082 C-17.775 131.863 -17.775 131.863 -15.287 131.524 C-11.764 130.356 -9.912 128.549 -7.223 125.992 C-6.709 125.508 -6.196 125.023 -5.668 124.523 C-3.968 122.908 -2.287 121.275 -0.609 119.637 C0.268 118.782 0.268 118.782 1.162 117.909 C4.901 114.251 8.609 110.561 12.302 106.856 C14.215 104.937 16.134 103.024 18.053 101.111 C23.502 95.665 28.915 90.24 33.907 84.365 C35.494 82.517 37.14 80.74 38.812 78.969 C39.363 78.385 39.913 77.802 40.48 77.201 C41.6 76.019 42.723 74.84 43.848 73.662 C46.824 70.5 49.325 67.498 51.391 63.637 C41.537 54.407 41.537 54.407 31.445 45.441 C28.721 43.049 26.057 40.592 23.391 38.137 C18.215 33.376 12.963 28.721 7.641 24.126 C6.305 22.973 4.971 21.819 3.636 20.666 C2.285 19.498 0.934 18.332 -0.419 17.167 C-1.358 16.355 -1.358 16.355 -2.316 15.527 C-2.878 15.043 -3.44 14.559 -4.019 14.06 C-5.609 12.637 -5.609 12.637 -7.128 10.956 C-9.417 8.917 -10.982 9.144 -13.328 10.988 Z " fill="#09090A" transform="translate(799.609375,408.36328125)"/>
<path d="M0 0 C4.881 4.637 5.914 9.587 6.625 16.125 C7.007 20.894 7.007 20.894 8.5 25.375 C8.837 27.297 9.13 29.227 9.402 31.16 C9.571 32.331 9.739 33.502 9.912 34.709 C10.259 37.167 10.605 39.626 10.951 42.084 C11.789 47.92 12.708 53.667 14.06 59.406 C14.741 62.455 15.15 65.53 15.562 68.625 C16.181 73.279 16.181 73.279 17.043 77.891 C17.599 80.912 17.707 83.804 17.75 86.875 C17.776 87.978 17.802 89.082 17.828 90.219 C17.464 93.719 16.634 95.599 14.5 98.375 C13.84 98.375 13.18 98.375 12.5 98.375 C13.15 99.4 13.799 100.425 14.469 101.48 C15.313 102.841 16.157 104.201 17 105.562 C17.644 106.573 17.644 106.573 18.301 107.604 C22.227 113.991 22.227 113.991 21.5 118.375 C20.5 119.375 20.5 119.375 17.125 119.688 C8.172 119.544 0.157 114.86 -7.383 110.449 C-14.952 107.841 -23.576 111.237 -31.062 113.125 C-39.871 115.287 -48.691 117.36 -57.562 119.25 C-58.542 119.465 -59.522 119.68 -60.531 119.901 C-73.821 122.689 -73.821 122.689 -79.812 119.75 C-86.771 113.601 -87.905 103.854 -89.359 95.117 C-89.53 94.113 -89.701 93.109 -89.876 92.075 C-90.423 88.842 -90.963 85.609 -91.5 82.375 C-91.766 80.784 -91.766 80.784 -92.037 79.161 C-93.116 72.701 -94.176 66.238 -95.22 59.772 C-95.577 57.565 -95.938 55.359 -96.302 53.153 C-96.838 49.897 -97.365 46.64 -97.891 43.383 C-98.134 41.92 -98.134 41.92 -98.383 40.428 C-100.726 25.695 -100.726 25.695 -97.75 20.062 C-91.02 13.204 -77.55 12.084 -68.562 10.125 C-67.235 9.832 -65.907 9.539 -64.579 9.246 C-61.738 8.619 -58.896 7.997 -56.053 7.376 C-52.078 6.506 -48.109 5.611 -44.141 4.711 C-40.823 3.96 -37.503 3.22 -34.182 2.481 C-32.578 2.123 -30.976 1.76 -29.374 1.394 C-7.664 -3.558 -7.664 -3.558 0 0 Z M-32.625 7.438 C-34.007 7.755 -35.39 8.071 -36.772 8.386 C-40.318 9.198 -43.858 10.032 -47.397 10.875 C-49.47 11.368 -51.544 11.857 -53.619 12.345 C-61.925 14.302 -70.224 16.291 -78.5 18.375 C-79.53 18.627 -80.561 18.879 -81.623 19.139 C-82.597 19.387 -83.571 19.635 -84.574 19.891 C-85.43 20.105 -86.285 20.319 -87.167 20.54 C-89.743 21.462 -91.472 22.545 -93.5 24.375 C-95.336 32.665 -92.807 41.896 -91.141 50.048 C-89.601 57.597 -88.458 65.162 -87.452 72.799 C-87.34 73.632 -87.228 74.466 -87.113 75.324 C-87.018 76.06 -86.923 76.796 -86.825 77.553 C-86.572 79.466 -86.572 79.466 -85.5 81.375 C-85.26 82.825 -85.062 84.283 -84.887 85.742 C-83.247 100.45 -83.247 100.45 -78.5 114.375 C-71.749 117.75 -61.917 114.734 -54.938 113.25 C-53.868 113.031 -52.798 112.811 -51.696 112.585 C-42.656 110.699 -33.679 108.555 -24.736 106.255 C-16.208 104.115 -10.314 103.353 -2.375 107.75 C5.608 112.245 5.608 112.245 14.5 113.375 C13.07 109.214 10.937 105.911 8.426 102.34 C7.5 100.375 7.5 100.375 7.727 98.227 C8.5 96.375 8.5 96.375 10.562 94.812 C13.734 90.823 12.818 86.303 12.5 81.375 C11.969 77.521 11.187 73.741 10.375 69.938 C8.118 58.825 6.153 47.688 4.312 36.5 C4.186 35.735 4.06 34.971 3.93 34.183 C3.683 32.684 3.437 31.185 3.19 29.686 C2.954 28.25 2.717 26.815 2.48 25.379 C1.951 22.17 1.437 18.961 0.951 15.745 C0.785 14.672 0.62 13.598 0.449 12.492 C0.312 11.568 0.175 10.643 0.034 9.691 C-0.415 7.119 -0.415 7.119 -2.5 4.375 C-12.692 2.988 -22.741 5.079 -32.625 7.438 Z " fill="#121213" transform="translate(387.5,254.625)"/>
<path d="M0 0 C2.72 1.306 4.762 2.736 7.09 4.648 C7.956 5.359 8.822 6.069 9.715 6.801 C13.635 10.101 17.527 13.432 21.408 16.779 C24.949 19.829 28.523 22.828 32.152 25.773 C37.556 30.163 42.833 34.69 48.109 39.23 C50.931 41.657 53.763 44.072 56.605 46.475 C57.672 47.377 58.737 48.28 59.801 49.186 C62.612 51.572 65.446 53.921 68.32 56.23 C68.92 56.719 69.519 57.207 70.136 57.711 C71.284 58.645 72.439 59.57 73.604 60.483 C75.917 62.38 77.521 63.997 78.809 66.715 C78.574 70.552 76.399 72.63 73.902 75.336 C73.403 75.901 72.904 76.466 72.389 77.048 C70.827 78.806 69.244 80.542 67.652 82.273 C66.93 83.063 66.93 83.063 66.192 83.868 C64.349 85.878 62.503 87.886 60.646 89.884 C57.614 93.162 54.76 96.542 51.965 100.023 C48.701 104.079 45.268 107.768 41.539 111.395 C39.108 113.816 36.888 116.387 34.648 118.984 C32.102 121.905 29.509 124.782 26.902 127.648 C26.43 128.173 25.958 128.697 25.471 129.237 C22.111 132.92 19.61 135.554 14.488 135.801 C8.607 135.657 5.468 132.665 1.277 128.836 C-0.216 127.538 -1.71 126.239 -3.203 124.941 C-3.916 124.308 -4.63 123.674 -5.365 123.021 C-7.862 120.82 -10.438 118.73 -13.035 116.648 C-17.811 112.749 -22.486 108.739 -27.157 104.714 C-30.681 101.683 -34.238 98.703 -37.848 95.773 C-43.347 91.306 -48.731 86.713 -54.086 82.074 C-56.038 80.386 -58.003 78.747 -60.016 77.129 C-60.744 76.537 -61.472 75.946 -62.223 75.336 C-62.839 74.853 -63.455 74.369 -64.09 73.871 C-65.348 72.273 -65.348 72.273 -65.797 69.852 C-65.197 66.41 -63.846 65.299 -61.285 62.961 C-58.38 60.214 -55.574 57.499 -52.973 54.461 C-50.001 50.999 -46.94 47.627 -43.848 44.273 C-40.848 41.017 -37.865 37.751 -34.973 34.398 C-31.687 30.605 -28.27 26.942 -24.848 23.273 C-19.283 17.306 -13.798 11.303 -8.66 4.961 C-3.468 -1.073 -3.468 -1.073 0 0 Z M-3.922 7.583 C-4.478 8.19 -5.033 8.797 -5.605 9.422 C-6.226 10.093 -6.847 10.763 -7.487 11.454 C-8.142 12.178 -8.798 12.902 -9.473 13.648 C-10.148 14.383 -10.824 15.117 -11.521 15.874 C-13.472 17.999 -15.412 20.134 -17.348 22.273 C-18.206 23.22 -19.065 24.166 -19.949 25.141 C-21.359 26.705 -22.766 28.272 -24.168 29.844 C-26.746 32.717 -29.358 35.558 -31.973 38.398 C-35.505 42.239 -38.98 46.121 -42.391 50.07 C-44.015 51.899 -45.664 53.692 -47.336 55.477 C-48.14 56.337 -48.14 56.337 -48.961 57.215 C-50.028 58.353 -51.099 59.488 -52.174 60.619 C-55.019 63.656 -57.349 66.585 -59.348 70.273 C-54.703 75.204 -49.71 79.508 -44.438 83.754 C-41.024 86.538 -37.682 89.396 -34.348 92.273 C-29.419 96.518 -24.444 100.692 -19.395 104.793 C-16.262 107.343 -13.144 109.912 -10.03 112.484 C-7.819 114.308 -5.603 116.127 -3.387 117.945 C-0.988 119.915 1.395 121.898 3.754 123.914 C5.034 124.989 5.034 124.989 6.34 126.086 C7.045 126.691 7.75 127.295 8.477 127.918 C11.382 129.728 13.208 130.317 16.652 130.273 C18.982 128.509 20.667 126.972 22.59 124.836 C23.117 124.279 23.644 123.722 24.188 123.148 C25.698 121.542 27.18 119.914 28.652 118.273 C29.283 117.572 29.913 116.871 30.562 116.148 C31.633 114.928 32.694 113.7 33.746 112.465 C36.318 109.508 38.986 106.645 41.652 103.773 C46.068 99.007 50.409 94.194 54.652 89.273 C55.709 88.058 56.767 86.843 57.824 85.629 C58.996 84.281 60.168 82.934 61.34 81.586 C61.899 80.944 62.459 80.301 63.035 79.639 C64.099 78.413 65.158 77.183 66.212 75.948 C67.487 74.466 68.796 73.014 70.109 71.566 C71.838 69.45 71.838 69.45 71.676 67.223 C70.287 64.577 68.537 63.042 66.277 61.086 C65.366 60.293 64.455 59.5 63.516 58.684 C59.944 55.677 56.332 52.725 52.703 49.789 C49.132 46.844 45.64 43.816 42.152 40.773 C36.999 36.281 31.784 31.891 26.469 27.59 C23.11 24.827 19.819 21.991 16.527 19.148 C6.957 9.058 6.957 9.058 -3.922 7.583 Z " fill="#09090A" transform="translate(247.34765625,367.7265625)"/>
<path d="M0 0 C20.776 -0.612 20.776 -0.612 28 3 C30.873 3.405 33.745 3.772 36.625 4.125 C47.278 5.507 57.861 7.259 68.446 9.089 C70.273 9.405 72.102 9.718 73.93 10.028 C76.532 10.471 79.131 10.923 81.73 11.379 C82.52 11.512 83.31 11.645 84.124 11.783 C87.668 12.416 89.964 12.976 93 15 C95.314 26.791 91.144 40.652 89.125 52.25 C88.756 54.427 88.387 56.604 88.02 58.781 C85.2 75.348 85.2 75.348 83.439 83.063 C82.911 85.393 82.446 87.731 82 90.078 C81.835 90.929 81.67 91.78 81.5 92.656 C81.164 94.4 80.83 96.145 80.5 97.891 C80.335 98.736 80.17 99.582 80 100.453 C79.856 101.208 79.711 101.962 79.562 102.739 C78.932 105.274 78.017 107.597 77 110 C67.365 110.371 58.169 109.23 48.688 107.75 C47.188 107.522 45.688 107.294 44.188 107.067 C35.279 105.709 26.382 104.276 17.5 102.75 C16.552 102.587 15.604 102.425 14.628 102.257 C8.256 101.128 8.256 101.128 6 100 C2.532 99.511 -0.943 99.102 -4.422 98.695 C-10.719 97.472 -14.407 95.325 -18 90 C-19.895 80.03 -16.673 69.431 -14.375 59.75 C-14.007 58.155 -13.64 56.559 -13.274 54.964 C-12.368 51.027 -11.445 47.095 -10.513 43.164 C-10.038 41.162 -9.567 39.159 -9.097 37.156 C-6.177 24.743 -3.132 12.361 0 0 Z M4 5 C2.146 12.932 0.294 20.865 -1.554 28.798 C-2.585 33.226 -3.622 37.652 -4.66 42.078 C-7.002 52.092 -9.302 62.114 -11.375 72.188 C-11.543 72.983 -11.711 73.779 -11.884 74.598 C-12.787 79.108 -13.507 83.389 -13 88 C-10.092 91.7 -7.573 92.7 -3.027 93.633 C-1.871 93.872 -0.714 94.11 0.477 94.356 C5.782 95.326 11.095 96.139 16.438 96.875 C26.814 98.358 37.161 99.967 47.5 101.688 C48.8 101.902 50.1 102.116 51.439 102.337 C52.645 102.539 53.851 102.741 55.094 102.949 C56.163 103.128 57.232 103.307 58.334 103.491 C61 104 61 104 64 105 C65.561 105.067 67.125 105.085 68.688 105.062 C69.496 105.053 70.304 105.044 71.137 105.035 C71.752 105.024 72.366 105.012 73 105 C73.141 104.315 73.282 103.63 73.427 102.924 C74.075 99.782 74.725 96.641 75.375 93.5 C75.597 92.422 75.818 91.345 76.047 90.234 C76.266 89.177 76.485 88.12 76.711 87.031 C76.91 86.068 77.109 85.104 77.314 84.111 C77.827 81.786 78.395 79.473 78.991 77.167 C80.066 72.909 80.779 68.632 81.438 64.293 C81.563 63.487 81.689 62.681 81.818 61.85 C82.216 59.297 82.608 56.742 83 54.188 C83.519 50.827 84.04 47.466 84.562 44.105 C84.687 43.303 84.811 42.5 84.938 41.673 C85.744 36.5 86.637 31.353 87.668 26.22 C88.032 23.786 88.056 21.458 88 19 C83.71 16.986 79.474 16.423 74.812 15.938 C67.244 15.122 67.244 15.122 65 14 C63.111 13.65 61.213 13.345 59.312 13.062 C58.15 12.888 56.987 12.714 55.789 12.535 C50.735 11.821 45.672 11.181 40.605 10.562 C37.368 10.057 34.264 9.338 31.095 8.513 C27.41 7.611 23.679 6.997 19.938 6.375 C19.174 6.241 18.41 6.107 17.623 5.969 C13.013 5.196 8.674 4.863 4 5 Z " fill="#121213" transform="translate(201,530)"/>
<path d="M0 0 C6.111 2.731 10.606 8.661 15.003 13.544 C19.911 18.983 25.076 24.138 30.305 29.267 C46.809 45.559 46.809 45.559 47.188 52.375 C45.536 57.416 42.694 60.28 39 64 C38.206 64.82 37.412 65.64 36.594 66.484 C32.338 70.819 27.991 74.965 23.371 78.906 C21.427 80.623 19.539 82.37 17.66 84.156 C-7.042 107.635 -7.042 107.635 -16.582 107.453 C-21.231 106.582 -23.824 103.304 -27 100 C-27.971 99.045 -28.945 98.094 -29.922 97.145 C-34.976 92.203 -39.849 87.173 -44.43 81.785 C-46.024 79.972 -47.702 78.303 -49.438 76.625 C-62.443 63.826 -62.443 63.826 -63.344 56.023 C-62.926 52.347 -62.052 51.262 -59.5 48.625 C-58.687 47.776 -57.873 46.926 -57.035 46.051 C-56.024 45.033 -55.012 44.016 -54 43 C-52.707 41.681 -51.414 40.362 -50.121 39.043 C-44.204 33.047 -38.276 27.16 -31.895 21.655 C-29.618 19.667 -27.425 17.602 -25.233 15.522 C-7.836 -0.915 -7.836 -0.915 0 0 Z M-9.75 9.062 C-12.733 11.877 -15.73 14.653 -18.828 17.34 C-22.985 20.958 -27 24.711 -31 28.5 C-35.638 32.894 -40.331 37.196 -45.152 41.388 C-47.649 43.566 -50.097 45.782 -52.5 48.062 C-53.356 48.858 -54.212 49.653 -55.094 50.473 C-57.151 52.867 -57.151 52.867 -57.719 55.746 C-55.892 64.014 -47.694 70.67 -42 76.625 C-41.327 77.337 -40.654 78.048 -39.961 78.781 C-36.763 82.152 -33.533 85.481 -30.234 88.754 C-27.17 91.799 -24.357 94.996 -21.578 98.301 C-19.913 100.226 -19.913 100.226 -17 102 C-11.793 101.777 -8.91 100.702 -5 97.312 C-4.063 96.504 -3.126 95.696 -2.16 94.863 C2.775 90.427 7.62 85.894 12.445 81.34 C15.24 78.705 18.069 76.117 20.938 73.562 C22.074 72.536 22.074 72.536 23.234 71.488 C24.815 70.066 26.399 68.649 27.994 67.244 C30.239 65.261 32.464 63.257 34.688 61.25 C35.42 60.611 36.153 59.973 36.908 59.315 C37.918 58.393 37.918 58.393 38.949 57.453 C39.561 56.908 40.173 56.363 40.803 55.802 C42.268 54 42.268 54 41.789 51.418 C40.813 48.428 39.477 46.906 37.312 44.625 C36.081 43.312 36.081 43.312 34.824 41.973 C34.142 41.257 34.142 41.257 33.447 40.528 C31.932 38.929 30.443 37.309 28.957 35.684 C22.07 28.176 15.01 20.834 7.875 13.562 C7.057 12.715 6.24 11.868 5.397 10.994 C4.624 10.214 3.851 9.433 3.055 8.629 C2.026 7.578 2.026 7.578 0.976 6.506 C-3.572 3.04 -6.284 5.757 -9.75 9.062 Z " fill="#09090A" transform="translate(804,555)"/>
<path d="M0 0 C2.31 0.33 4.62 0.66 7 1 C7.578 14.229 7.578 14.229 4 19 C-7.167 30.792 -21.268 33.918 -37.062 34.438 C-47.912 34.165 -58.202 31.464 -67 25 C-63.925 14.442 -63.925 14.442 -62 10 C-58.244 10.65 -54.888 11.759 -51.312 13.062 C-37.454 17.347 -23.362 15.903 -10.309 9.727 C-3.67 6.244 -3.67 6.244 0 0 Z " fill="#FEFEFE" transform="translate(563,510)"/>
<path d="M0 0 C4.425 2.212 7.195 4.948 10 9 C11.005 12.015 11.103 14.042 11.062 17.188 C11.053 18.089 11.044 18.99 11.035 19.918 C11.024 20.605 11.012 21.292 11 22 C9.68 22.33 8.36 22.66 7 23 C5.59 20.18 5.624 17.406 5.379 14.289 C4.962 11.771 4.409 10.13 3 8 C-1.063 5.317 -5.295 5.236 -10 6 C-13.053 7.281 -13.816 8.256 -16 11 C-17.689 17.897 -14.878 25.393 -13 32 C-10.291 31.547 -7.583 31.088 -4.875 30.625 C-4.114 30.499 -3.354 30.372 -2.57 30.242 C1.791 29.49 5.798 28.417 10 27 C12.332 26.925 14.669 26.907 17 27 C19.145 35.043 20.879 43.616 17.5 51.5 C12.559 56.441 6.166 59.109 -0.812 59.312 C-5.671 59.249 -8.313 58.336 -12 55 C-20.563 44.297 -21.728 25.43 -21.414 12.094 C-20.79 7.433 -19.691 5.889 -16 3 C-10.994 -0.492 -5.921 -0.868 0 0 Z " fill="#121213" transform="translate(238,559)"/>
<path d="M0 0 C2.436 7.497 3.411 14.123 3 22 C-10.061 26.611 -25.031 30.777 -39 30 C-41.636 27.364 -41.59 25.538 -42.125 21.875 C-42.293 20.779 -42.46 19.684 -42.633 18.555 C-43.035 14.657 -43.06 10.915 -43 7 C-12.491 -0.435 -12.491 -0.435 0 0 Z " fill="#121213" transform="translate(364,282)"/>
<path d="M0 0 C3 0 3 0 5 1 C5.289 1.949 5.577 2.897 5.875 3.875 C7.176 7.488 7.797 8.03 11 10 C13.662 11.09 16.297 12.091 19.008 13.039 C20.193 13.463 20.193 13.463 21.403 13.895 C23.975 14.812 26.55 15.719 29.125 16.625 C30.894 17.252 32.663 17.88 34.431 18.509 C38.811 20.062 43.194 21.606 47.578 23.148 C49.814 23.935 52.05 24.725 54.285 25.517 C57.875 26.789 61.468 28.053 65.062 29.312 C66.618 29.862 66.618 29.862 68.206 30.422 C72.792 32.014 77.15 33.436 82 34 C82.272 33.307 82.544 32.614 82.824 31.9 C84.093 28.771 85.446 25.69 86.82 22.605 C87.623 20.802 87.623 20.802 88.441 18.963 C89.003 17.704 89.564 16.446 90.125 15.188 C90.694 13.91 91.263 12.632 91.832 11.354 C93.221 8.235 94.61 5.117 96 2 C98 2 100 2 102 2 C99.669 9.631 96.51 16.687 93.062 23.875 C92.537 25.002 92.012 26.128 91.471 27.289 C90.956 28.367 90.441 29.444 89.91 30.555 C89.447 31.529 88.985 32.503 88.508 33.507 C86.915 36.141 85.64 37.45 83 39 C75 40.156 67.642 36.897 60.188 34.312 C58.746 33.821 57.304 33.33 55.862 32.84 C45.558 29.313 35.298 25.654 25.07 21.911 C23.532 21.349 21.993 20.789 20.453 20.231 C18.293 19.447 16.138 18.649 13.984 17.848 C12.754 17.394 11.524 16.94 10.257 16.473 C6.352 14.707 3.221 12.686 0.688 9.188 C-0.284 6.097 -0.124 3.214 0 0 Z " fill="#121213" transform="translate(639,376)"/>
<path d="M0 0 C3.664 0.91 7.155 2.177 10.688 3.5 C11.682 3.859 12.677 4.219 13.701 4.589 C15.775 5.341 17.847 6.098 19.916 6.862 C22.882 7.956 25.853 9.032 28.828 10.102 C34.227 12.046 39.615 14.019 45 16 C45.797 16.292 46.594 16.584 47.415 16.884 C49.611 17.69 51.806 18.5 54 19.312 C55.217 19.762 56.434 20.212 57.688 20.676 C60.893 21.957 63.938 23.408 67 25 C66.125 30.75 66.125 30.75 65 33 C56.299 30.59 47.842 27.513 39.359 24.439 C36.941 23.564 34.52 22.695 32.1 21.826 C25.253 19.358 18.458 16.898 11.85 13.834 C8.776 12.448 5.621 11.363 2.438 10.25 C1.219 9.822 0.001 9.394 -1.254 8.953 C-2.16 8.639 -3.066 8.324 -4 8 C-4 5 -4 5 -3 3 C-3.99 3 -4.98 3 -6 3 C-6 3.99 -6 4.98 -6 6 C-8.97 5.505 -8.97 5.505 -12 5 C-12 4.01 -12 3.02 -12 2 C-7.889 -0.741 -4.828 -0.538 0 0 Z " fill="#F4F4F5" transform="translate(691,296)"/>
<path d="M0 0 C4.334 2.216 7.84 4.266 9.469 9.043 C9.974 13.809 10.18 16.976 7.469 21.043 C4.844 21.23 4.844 21.23 2.469 21.043 C2.469 19.723 2.469 18.403 2.469 17.043 C3.129 16.713 3.789 16.383 4.469 16.043 C4.604 12.712 4.604 12.712 3.469 9.043 C0.244 5.933 -3.234 4.308 -7.594 3.418 C-12.838 4.534 -16.283 7.167 -19.206 11.561 C-20.861 14.56 -22.402 17.591 -23.906 20.668 C-24.705 22.242 -24.705 22.242 -25.52 23.848 C-28.7 30.159 -31.03 34.811 -30.531 42.043 C-29.132 45.464 -27.913 46.786 -24.844 48.855 C-19.628 50.725 -15.595 50.731 -10.344 48.98 C-5.339 45.533 -2.445 40.785 -0.531 35.043 C-1.097 34.789 -1.663 34.535 -2.246 34.273 C-2.98 33.929 -3.713 33.585 -4.469 33.23 C-5.2 32.894 -5.931 32.558 -6.684 32.211 C-8.531 31.043 -8.531 31.043 -9.531 28.043 C-3.709 27.446 0.39 29.515 5.469 32.043 C4.413 40.487 -0.504 47.294 -6.531 53.043 C-11.314 56.37 -15.866 56.898 -21.531 56.043 C-27.448 54.166 -31.005 51.066 -34.531 46.043 C-37.597 36.844 -34.996 29.635 -30.869 21.331 C-29.781 19.22 -28.665 17.129 -27.531 15.043 C-26.934 13.934 -26.338 12.826 -25.723 11.684 C-19.883 1.704 -11.828 -4.472 0 0 Z " fill="#121213" transform="translate(707.53125,334.95703125)"/>
<path d="M0 0 C0.66 0 1.32 0 2 0 C2 5.61 2 11.22 2 17 C-0.372 17.969 -2.744 18.939 -5.188 19.938 C-5.925 20.242 -6.663 20.546 -7.423 20.859 C-21.577 26.58 -34.171 24.029 -48 19 C-47.836 18.49 -47.673 17.979 -47.504 17.453 C-46.833 14.187 -46.907 11.081 -46.938 7.75 C-46.947 6.487 -46.956 5.223 -46.965 3.922 C-46.976 2.958 -46.988 1.993 -47 1 C-43.137 2.826 -39.737 5.153 -36.219 7.562 C-29.452 11.947 -22.861 11.902 -15 11 C-8.657 8.747 -3.81 5.632 0 0 Z " fill="#F4F4F5" transform="translate(553,497)"/>
<path d="M0 0 C2.802 1.133 4.343 2.738 6.456 4.896 C7.255 5.704 8.054 6.513 8.877 7.347 C9.702 8.197 10.527 9.047 11.377 9.923 C12.638 11.204 12.638 11.204 13.924 12.511 C15.999 14.621 18.066 16.737 20.127 18.86 C18.432 22.493 16.389 24.806 13.502 27.61 C12.685 28.41 11.868 29.209 11.026 30.032 C10.399 30.636 9.773 31.239 9.127 31.86 C4.887 30.171 1.953 27.132 -1.31 24.048 C-1.87 23.526 -2.43 23.005 -3.007 22.468 C-6.364 19.33 -9.642 16.127 -12.873 12.86 C-11.34 9.276 -9.205 6.832 -6.498 4.048 C-5.727 3.237 -4.956 2.426 -4.162 1.591 C-1.873 -0.14 -1.873 -0.14 0 0 Z " fill="#FEFEFE" transform="translate(794.87255859375,447.1396484375)"/>
<path d="M0 0 C1.05 3.149 1.101 5.388 1.062 8.688 C1.053 9.681 1.044 10.675 1.035 11.699 C1.024 12.458 1.012 13.218 1 14 C-3.019 14.862 -7.039 15.716 -11.061 16.563 C-12.427 16.852 -13.792 17.143 -15.157 17.437 C-17.127 17.859 -19.099 18.273 -21.07 18.688 C-22.254 18.939 -23.437 19.19 -24.657 19.449 C-27.843 19.974 -30.778 20.103 -34 20 C-34.848 14.914 -35.043 10.159 -35 5 C-32.022 4.349 -29.043 3.704 -26.062 3.062 C-24.816 2.789 -24.816 2.789 -23.545 2.51 C-15.689 0.829 -8.037 -0.171 0 0 Z " fill="#FEFEFE" transform="translate(361,287)"/>
<path d="M0 0 C5.059 1.315 7.75 4.975 11.125 8.812 C11.772 9.541 12.419 10.269 13.086 11.02 C14.261 12.355 15.427 13.698 16.582 15.051 C18.089 16.832 18.089 16.832 19.793 18.363 C21.125 19.812 21.125 19.812 21.625 22.688 C20.95 26.906 19.491 28.252 16.125 30.812 C13.224 31.683 13.224 31.683 10.125 31.812 C7.823 30.321 7.823 30.321 5.672 28.078 C4.888 27.276 4.104 26.475 3.297 25.648 C2.498 24.795 1.698 23.942 0.875 23.062 C0.06 22.225 -0.754 21.387 -1.594 20.523 C-9.875 11.941 -9.875 11.941 -9.875 8.438 C-8.093 3.759 -4.746 1.341 0 0 Z " fill="#121213" transform="translate(801.875,579.1875)"/>
<path d="M0 0 C3.006 1.226 4.493 2.357 6.652 4.758 C9.3 7.587 11.957 10.239 14.902 12.758 C15.553 13.326 16.204 13.895 16.875 14.48 C18.122 15.563 19.379 16.634 20.648 17.691 C23.271 20.023 24.691 21.471 25.152 25.008 C23.066 29.749 19.539 32.664 15.777 36.133 C14.89 37.102 14.004 38.072 13.09 39.07 C10.777 41.133 10.777 41.133 8.402 42.383 C4.58 42.019 3.189 39.925 0.664 37.164 C-1.198 35.16 -3.141 33.405 -5.223 31.633 C-6.557 30.467 -7.89 29.301 -9.223 28.133 C-9.892 27.555 -10.561 26.978 -11.25 26.383 C-12.196 25.517 -12.196 25.517 -13.16 24.633 C-13.726 24.127 -14.292 23.622 -14.875 23.102 C-17.015 19.976 -17.325 17.923 -17.223 14.133 C-15.446 11.196 -13.144 8.981 -10.66 6.633 C-10.038 5.988 -9.416 5.344 -8.775 4.68 C-4.166 0.172 -4.166 0.172 0 0 Z M-4.922 7.539 C-5.926 8.563 -6.922 9.594 -7.91 10.633 C-8.421 11.157 -8.932 11.682 -9.459 12.223 C-10.72 13.519 -11.972 14.825 -13.223 16.133 C-11.623 20.072 -9.039 22.55 -6.035 25.508 C-5.546 25.991 -5.056 26.474 -4.552 26.972 C-0.91 30.537 2.843 33.898 6.777 37.133 C10.458 35.596 12.765 33.351 15.527 30.508 C16.327 29.691 17.126 28.873 17.949 28.031 C18.553 27.405 19.156 26.778 19.777 26.133 C17.483 20.885 13.342 17.369 9.34 13.383 C8.563 12.59 7.787 11.797 6.986 10.98 C6.238 10.232 5.49 9.483 4.719 8.711 C4.035 8.024 3.351 7.337 2.647 6.63 C-0.64 3.998 -1.916 4.859 -4.922 7.539 Z " fill="#121213" transform="translate(795.22265625,441.8671875)"/>
<path d="M0 0 C6.901 0.974 12.214 8.002 16.625 12.938 C18.636 17.417 18.948 21.18 18 26 C14.528 33.667 7.955 40.307 1.062 45 C-3.174 46.383 -6.605 46.99 -11 46 C-16.649 43.077 -21.177 39.808 -24 34 C-24.518 30.578 -24.572 27.144 -23 24 C-22.01 24.33 -21.02 24.66 -20 25 C-19.516 26.855 -19.516 26.855 -19.25 29.188 C-18.359 34.003 -16.48 35.99 -12.656 38.906 C-9.264 41.147 -7.082 41.462 -3 41 C3.693 37.281 10.384 31.1 12.75 23.633 C13.055 19.959 12.542 17.81 10.48 14.73 C8.741 12.698 6.945 10.835 5 9 C4.34 8.34 3.68 7.68 3 7 C-0.032 6.66 -0.032 6.66 -1.75 8.625 C-3.408 11.775 -2.845 13.62 -2 17 C-4.36 16.593 -5.859 16.102 -7.812 14.688 C-9 13 -9 13 -8.828 11.191 C-7.73 8.287 -6.042 6.521 -3.938 4.25 C-3.204 3.451 -2.471 2.652 -1.715 1.828 C-1.149 1.225 -0.583 0.622 0 0 Z " fill="#121213" transform="translate(269,422)"/>
<path d="M0 0 C1.399 2.797 1.245 5.193 1.312 8.312 C1.35 9.443 1.387 10.574 1.426 11.738 C0.91 15.69 -0.192 17.221 -3 20 C-7.686 23.215 -13.567 22.602 -19 22 C-22.292 20.222 -23.459 18.927 -25.312 15.75 C-26.228 12.089 -26.042 8.775 -26 5 C-25.405 4.884 -24.809 4.768 -24.196 4.649 C-21.505 4.123 -18.815 3.593 -16.125 3.062 C-15.188 2.88 -14.251 2.698 -13.285 2.51 C-12.389 2.333 -11.493 2.155 -10.57 1.973 C-9.743 1.81 -8.915 1.648 -8.063 1.481 C-1.708 0 -1.708 0 0 0 Z " fill="#FEFEFE" transform="translate(251,591)"/>
<path d="M0 0 C0 0.66 0 1.32 0 2 C-1.609 3.113 -1.609 3.113 -3.75 4.312 C-8.385 7.113 -11.064 9.847 -13.25 14.875 C-14.727 21.029 -14.407 25.646 -11.301 31.133 C-8.971 34.477 -6.883 36.591 -3 38 C4.384 38.894 10.502 38.882 17 35 C22.056 29.664 23.499 24.797 23.402 17.57 C22.837 13.958 21.264 11.579 19.094 8.691 C18 7 18 7 18 4 C21.084 4.33 21.978 4.977 24.125 7.312 C28.627 13.766 28.719 19.21 28 27 C26.249 34.168 21.027 38.183 15 42 C9.353 44.706 3.35 45.132 -2.59 43.125 C-9.738 39.857 -13.597 35.604 -17.875 29.188 C-20.143 22.762 -19.805 17.048 -17.062 10.812 C-13.461 4.327 -7.89 -2.403 0 0 Z " fill="#4C4A4C" transform="translate(527,691)"/>
<path d="M0 0 C2.686 1.232 4.169 2.528 6.164 4.703 C8.737 7.415 11.31 9.975 14.164 12.391 C19.515 16.991 24.399 22.059 29.352 27.078 C31.016 28.747 32.683 30.413 34.352 32.078 C33.108 36.638 30.604 39.023 27.285 42.176 C25.296 44.133 23.519 46.19 21.727 48.328 C19.202 51.269 16.889 53.363 13.352 55.078 C12.692 53.758 12.032 52.438 11.352 51.078 C11.841 50.62 12.331 50.161 12.836 49.689 C15.044 47.605 17.229 45.499 19.414 43.391 C20.186 42.669 20.957 41.948 21.752 41.205 C22.477 40.499 23.202 39.794 23.949 39.066 C24.625 38.422 25.3 37.778 25.996 37.115 C27.597 35.133 27.597 35.133 27.286 32.536 C26.206 29.694 25.168 28.634 22.801 26.758 C19.833 24.316 16.997 21.834 14.246 19.148 C13.573 18.499 12.899 17.849 12.205 17.18 C10.827 15.845 9.454 14.503 8.088 13.156 C7.418 12.514 6.749 11.872 6.059 11.211 C5.465 10.632 4.872 10.054 4.261 9.458 C1.919 7.765 0.229 7.267 -2.648 7.078 C-4.714 8.86 -6.261 10.433 -7.961 12.516 C-8.415 13.045 -8.87 13.574 -9.338 14.119 C-10.456 15.426 -11.554 16.751 -12.648 18.078 C-13.968 17.748 -15.288 17.418 -16.648 17.078 C-15.161 12.169 -12.368 9.248 -8.836 5.703 C-8.315 5.145 -7.793 4.587 -7.256 4.012 C-3.388 0.1 -3.388 0.1 0 0 Z " fill="#121213" transform="translate(769.6484375,465.921875)"/>
<path d="M0 0 C3.469 1.665 6.604 3.656 9.805 5.781 C12.442 7.246 15.122 8.115 18 9 C17.277 10.087 17.277 10.087 16.539 11.195 C15.907 12.162 15.276 13.129 14.625 14.125 C13.685 15.552 13.685 15.552 12.727 17.008 C11.023 19.96 9.958 22.739 9 26 C5.104 24.511 1.409 22.756 -2.312 20.875 C-3.381 20.336 -4.45 19.797 -5.551 19.242 C-6.359 18.832 -7.167 18.422 -8 18 C-6.815 15.525 -5.628 13.488 -4 11.25 C-1.654 7.437 -0.902 4.359 0 0 Z " fill="#97999A" transform="translate(366,439)"/>
<path d="M0 0 C4.258 0.299 6.154 1.791 8.946 4.949 C9.397 5.482 9.848 6.014 10.312 6.562 C11.27 7.659 12.23 8.754 13.191 9.848 C13.662 10.385 14.133 10.923 14.618 11.477 C17.145 14.261 19.938 16.771 22.734 19.281 C24 21 24 21 23.836 23.043 C22.47 26.241 20.754 27.904 18 30 C13.539 29.984 11.549 29.478 8.156 26.523 C7.254 25.489 6.369 24.438 5.5 23.375 C4.556 22.277 3.611 21.181 2.664 20.086 C2.212 19.555 1.76 19.023 1.294 18.476 C-0.894 15.981 -3.317 13.742 -5.758 11.5 C-7.232 9.719 -7.601 8.255 -8 6 C-6.68 5.67 -5.36 5.34 -4 5 C-3.526 5.505 -3.052 6.009 -2.563 6.529 C-0.417 8.811 1.729 11.093 3.875 13.375 C4.621 14.169 5.368 14.963 6.137 15.781 C6.852 16.542 7.568 17.302 8.305 18.086 C9.294 19.139 9.294 19.139 10.304 20.212 C11.518 21.492 12.753 22.753 14 24 C14.99 24 15.98 24 17 24 C16.425 20.478 15.242 18.917 12.656 16.504 C11.987 15.863 11.318 15.221 10.629 14.561 C9.212 13.23 7.792 11.902 6.371 10.576 C5.702 9.934 5.033 9.291 4.344 8.629 C3.727 8.052 3.11 7.475 2.475 6.881 C0.702 4.619 0.361 2.82 0 0 Z " fill="#121213" transform="translate(776,609)"/>
<path d="M0 0 C5.282 1.505 8.478 4.964 12.312 8.688 C13.653 9.966 14.994 11.243 16.336 12.52 C16.972 13.127 17.609 13.735 18.265 14.362 C20.274 16.258 22.337 18.08 24.438 19.875 C28.503 23.375 32.245 27.173 36 31 C36.978 31.98 37.957 32.96 38.938 33.938 C42 37 42 37 42.062 39.562 C42.042 40.367 42.021 41.171 42 42 C38.492 40.479 36.047 38.4 33.25 35.812 C30.236 33.049 27.22 30.299 24.125 27.625 C20.163 24.177 16.302 20.621 12.44 17.063 C8.885 13.794 5.274 10.6 1.625 7.438 C-0.334 5.705 -2.189 3.887 -4 2 C-2.68 2 -1.36 2 0 2 C0 1.34 0 0.68 0 0 Z " fill="#F4F4F5" transform="translate(812,425)"/>
<path d="M0 0 C3.371 1.558 6.404 3.325 9 6 C9 7.32 9 8.64 9 10 C8.01 10.33 7.02 10.66 6 11 C5.113 10.196 4.226 9.391 3.312 8.562 C0.432 6.038 -1.946 5.138 -5.902 5.367 C-10.103 6.635 -13.107 9.811 -16 13 C-17.6 16.2 -17.357 19.519 -17 23 C-15.226 27.383 -12.092 29.762 -8.426 32.57 C-7 34 -7 34 -7 37 C-10.373 37.406 -11.641 37.275 -14.387 35.172 C-15.146 34.373 -15.905 33.573 -16.688 32.75 C-17.454 31.961 -18.221 31.172 -19.012 30.359 C-22.789 25.877 -23.565 22.392 -23.445 16.598 C-22.265 9.71 -16.333 4.999 -11 1 C-7.453 -0.774 -3.863 -0.638 0 0 Z " fill="#1A1A1D" transform="translate(251,409)"/>
<path d="M0 0 C6.36 0.36 6.36 0.36 8.938 2.938 C10.876 8.526 11.005 13.338 8.898 18.918 C5.857 24.944 2.871 28.661 -3 32 C-3.33 32 -3.66 32 -4 32 C-4.242 27.002 -4.168 23.003 -2.562 18.25 C-0.562 12.266 -0.285 6.268 0 0 Z " fill="#F4F4F5" transform="translate(582,405)"/>
<path d="M0 0 C3 1 3 1 4.246 2.977 C9.371 14.368 12.044 25.884 13.496 38.258 C14.303 44.251 15.639 50.109 17 56 C16.34 56 15.68 56 15 56 C15 56.66 15 57.32 15 58 C14.34 58 13.68 58 13 58 C12.67 58.66 12.34 59.32 12 60 C11.693 58.302 11.693 58.302 11.379 56.57 C11.107 55.089 10.835 53.607 10.562 52.125 C10.428 51.379 10.293 50.632 10.154 49.863 C9.455 45.815 9.455 45.815 8 42 C7.652 39.5 7.344 37.008 7.062 34.5 C5.655 22.739 2.929 11.461 0 0 Z " fill="#121213" transform="translate(594,378)"/>
<path d="M0 0 C3.235 0.558 4.979 1.372 7 4 C7 4.99 7 5.98 7 7 C7.99 6.34 8.98 5.68 10 5 C19.265 3.43 27.406 8.025 35 13 C40.987 17.965 45.462 24.631 48 32 C48.125 34.797 48.125 34.797 48 37 C45 36 45 36 43.641 33.523 C42.952 31.965 42.952 31.965 42.25 30.375 C37.174 19.926 30.649 15.476 20 11 C15.295 9.558 10.685 9.438 6 11 C5.184 9.732 4.372 8.46 3.562 7.188 C3.11 6.48 2.658 5.772 2.191 5.043 C1 3 1 3 0 0 Z " fill="#1A1A1D" transform="translate(546,313)"/>
<path d="M0 0 C0.34 1.825 0.34 1.825 0.688 3.688 C1.841 9.01 3.862 13.88 5.977 18.887 C7.039 22.119 7.192 24.622 7 28 C1.457 26.944 -0.599 24.459 -3.703 20.07 C-7.081 14.677 -7.878 10.367 -7 4 C-4.725 0.704 -4.026 0 0 0 Z " fill="#F4F4F5" transform="translate(472,410)"/>
<path d="M0 0 C0.99 0 1.98 0 3 0 C4.354 1.986 5.685 3.988 7 6 C12.642 11.078 16.723 12.485 24.246 12.305 C28.282 11.858 31.04 10.799 34 8 C35.912 5.45 37.516 2.818 39 0 C39.99 0.33 40.98 0.66 42 1 C41.677 6.332 38.771 9.517 35 13 C29.815 16.949 24.46 17.751 18.031 17.508 C9.995 16.162 4.544 11.229 -0.137 4.832 C-1 3 -1 3 0 0 Z " fill="#121213" transform="translate(507,454)"/>
<path d="M0 0 C0 0.66 0 1.32 0 2 C-1.609 3.113 -1.609 3.113 -3.75 4.312 C-8.385 7.113 -11.064 9.847 -13.25 14.875 C-14.732 21.051 -14.344 25.588 -11.355 31.133 C-9.077 34.272 -6.285 35.979 -3 38 C-3.33 38.99 -3.66 39.98 -4 41 C-9.356 40.365 -11.136 38.145 -14.418 34.105 C-18.239 29.02 -19.64 24.979 -19.402 18.652 C-18.148 10.383 -13.712 5.098 -7.281 0.082 C-4.428 -1.271 -2.966 -0.903 0 0 Z " fill="#403E41" transform="translate(527,691)"/>
<path d="M0 0 C-0.33 1.32 -0.66 2.64 -1 4 C-15.623 7.253 -30.268 10.279 -45 13 C-45.33 11.68 -45.66 10.36 -46 9 C-40.096 7.234 -34.137 5.846 -28.125 4.5 C-27.183 4.287 -26.24 4.075 -25.27 3.855 C-23.405 3.435 -21.54 3.017 -19.675 2.601 C-17.935 2.21 -16.196 1.811 -14.46 1.403 C-13.678 1.221 -12.896 1.039 -12.09 0.852 C-11.408 0.69 -10.726 0.528 -10.023 0.362 C-6.658 -0.24 -3.409 -0.124 0 0 Z " fill="#121213" transform="translate(371,313)"/>
<path d="M0 0 C0 1.32 0 2.64 0 4 C-9.687 6.584 -19.422 8.771 -29.25 10.75 C-30.892 11.084 -30.892 11.084 -32.568 11.425 C-34.12 11.733 -34.12 11.733 -35.703 12.047 C-36.628 12.231 -37.552 12.415 -38.505 12.604 C-41 13 -41 13 -45 13 C-45 11.68 -45 10.36 -45 9 C-36.989 6.523 -28.852 4.946 -20.615 3.446 C-16.555 2.702 -12.54 1.918 -8.543 0.887 C-5.496 0.124 -3.11 -0.194 0 0 Z " fill="#121213" transform="translate(373,324)"/>
<path d="M0 0 C5.823 -0.597 9.921 1.472 15 4 C13.945 12.444 9.027 19.251 3 25 C-1.903 28.411 -6.242 28.345 -12 28 C-10.68 27.67 -9.36 27.34 -8 27 C-8 26.34 -8 25.68 -8 25 C-8.66 24.34 -9.32 23.68 -10 23 C-9.408 22.902 -8.817 22.804 -8.207 22.703 C-3.167 21.749 0.457 20.937 4 17 C5.848 13.744 7.468 10.415 9 7 C8.434 6.746 7.868 6.492 7.285 6.23 C6.552 5.886 5.818 5.542 5.062 5.188 C4.332 4.851 3.601 4.515 2.848 4.168 C1 3 1 3 0 0 Z " fill="#121213" transform="translate(698,363)"/>
<path d="M0 0 C-0.33 1.32 -0.66 2.64 -1 4 C-5.458 4.959 -9.917 5.917 -14.375 6.875 C-15.627 7.144 -16.878 7.414 -18.168 7.691 C-23.671 8.873 -29.175 10.051 -34.688 11.188 C-35.442 11.343 -36.196 11.499 -36.973 11.66 C-39.666 12.112 -42.278 12.143 -45 12 C-45 10.68 -45 9.36 -45 8 C-39.557 6.853 -34.113 5.714 -28.667 4.582 C-26.816 4.196 -24.965 3.808 -23.115 3.418 C-20.45 2.856 -17.784 2.302 -15.117 1.75 C-14.295 1.575 -13.473 1.4 -12.626 1.22 C-8.341 0.34 -4.403 -0.198 0 0 Z " fill="#121213" transform="translate(375,336)"/>
<path d="M0 0 C4.127 2.252 7.425 5.028 10.75 8.312 C11.491 9.004 11.491 9.004 12.246 9.709 C15.532 12.945 16.921 15.358 17 20 C16.34 20.66 15.68 21.32 15 22 C9.785 21.525 6.68 17.193 3.188 13.688 C2.482 13.01 1.776 12.333 1.049 11.635 C0.387 10.975 -0.275 10.316 -0.957 9.637 C-1.565 9.036 -2.173 8.435 -2.8 7.815 C-4 6 -4 6 -3.878 3.898 C-3 2 -3 2 0 0 Z " fill="#F4F4F5" transform="translate(801,584)"/>
<path d="M0 0 C4.034 0.552 6.124 2.604 9.062 5.312 C10.348 6.482 10.348 6.482 11.66 7.676 C13.685 9.687 15.371 11.666 17 14 C16.691 14.536 16.381 15.072 16.062 15.625 C14.822 18.398 14.409 21 14 24 C13.67 24 13.34 24 13 24 C12.948 23.443 12.897 22.886 12.844 22.312 C11.907 16.009 9.53 12.803 4.973 8.434 C3.002 6.706 3.002 6.706 0 7 C-1.892 8.577 -1.892 8.577 -3 11 C-2.774 14.192 -2.774 14.192 -2 17 C-4.36 16.593 -5.859 16.102 -7.812 14.688 C-9 13 -9 13 -8.828 11.191 C-7.73 8.287 -6.042 6.521 -3.938 4.25 C-3.204 3.451 -2.471 2.652 -1.715 1.828 C-1.149 1.225 -0.583 0.622 0 0 Z " fill="#121213" transform="translate(269,422)"/>
<path d="M0 0 C1.32 0 2.64 0 4 0 C4.049 5.375 4.086 10.75 4.11 16.125 C4.12 17.955 4.134 19.784 4.151 21.614 C4.175 24.24 4.186 26.866 4.195 29.492 C4.206 30.313 4.216 31.134 4.227 31.98 C4.227 33.988 4.122 35.996 4 38 C2 40 2 40 -0.938 40.312 C-4 40 -4 40 -5.875 38.625 C-7 37 -7 37 -7 35 C-4.69 35.66 -2.38 36.32 0 37 C0 24.79 0 12.58 0 0 Z " fill="#1A1A1D" transform="translate(527,411)"/>
<path d="M0 0 C3.436 -0.427 4.665 -0.259 7.457 1.898 C8.234 2.716 9.012 3.533 9.812 4.375 C10.603 5.187 11.393 5.999 12.207 6.836 C14 9 14 9 14 11 C14.66 11 15.32 11 16 11 C17.551 12.574 17.551 12.574 19.312 14.688 C21.43 17.194 23.537 19.576 25.938 21.812 C28 24 28 24 28 27 C23.307 26.533 21.274 24.778 17.988 21.484 C17.066 20.563 16.144 19.641 15.193 18.691 C14.484 17.967 14.484 17.967 13.76 17.227 C12.319 15.756 10.859 14.305 9.396 12.855 C1.637 5.025 1.637 5.025 0 0 Z " fill="#1A1A1D" transform="translate(785,594)"/>
<path d="M0 0 C3.367 0.593 5.122 1.7 7.625 4 C8.317 4.628 9.009 5.256 9.723 5.902 C10.474 6.595 11.226 7.287 12 8 C13.686 9.522 15.374 11.043 17.062 12.562 C17.898 13.319 18.733 14.076 19.594 14.855 C21.714 16.745 23.873 18.567 26.062 20.375 C29 23 29 23 30 26 C28.215 26.668 28.215 26.668 26 27 C24.316 25.988 24.316 25.988 22.562 24.312 C21.877 23.672 21.191 23.031 20.484 22.371 C19.665 21.589 18.845 20.806 18 20 C16.924 19.009 15.846 18.021 14.766 17.035 C11.493 14.042 8.231 11.039 5 8 C4.045 7.116 3.09 6.231 2.105 5.32 C0 3 0 3 0 0 Z " fill="#121213" transform="translate(748,486)"/>
<path d="M0 0 C4.053 1.351 6.419 3.062 9.375 6.125 C10.148 6.924 10.922 7.723 11.719 8.547 C14.375 11.403 16.963 14.305 19.492 17.273 C20.978 19.03 20.978 19.03 22.695 20.602 C24 22 24 22 24 24 C22.28 24.743 22.28 24.743 20 25 C17.833 23.449 17.833 23.449 15.523 21.117 C14.688 20.279 13.853 19.441 12.992 18.578 C12.129 17.686 11.265 16.794 10.375 15.875 C9.504 15.006 8.632 14.137 7.734 13.242 C0.703 6.102 0.703 6.102 -1 1 C-0.67 0.67 -0.34 0.34 0 0 Z " fill="#1A1A1D" transform="translate(783,603)"/>
<path d="M0 0 C3.449 0.589 5.169 1.765 7.68 4.168 C8.362 4.814 9.044 5.461 9.746 6.127 C10.8 7.147 10.8 7.147 11.875 8.188 C12.917 9.178 12.917 9.178 13.98 10.189 C15.35 11.495 16.713 12.808 18.069 14.126 C19.316 15.337 20.574 16.536 21.845 17.721 C23.286 19.09 24.651 20.539 26 22 C26 22.99 26 23.98 26 25 C22.808 24.409 21.076 23.492 18.688 21.312 C18.011 20.699 17.334 20.085 16.637 19.453 C15.767 18.644 14.896 17.834 14 17 C13.395 16.439 12.79 15.877 12.167 15.299 C7.765 11.213 3.378 7.112 -1 3 C-0.67 2.01 -0.34 1.02 0 0 Z " fill="#1A1A1D" transform="translate(760,484)"/>
<path d="M0 0 C0.875 0.005 1.749 0.01 2.65 0.016 C3.594 0.019 4.539 0.022 5.511 0.026 C6.505 0.034 7.498 0.042 8.521 0.051 C9.518 0.056 10.515 0.06 11.543 0.065 C14.015 0.077 16.487 0.093 18.959 0.114 C19.341 1.77 19.673 3.438 19.959 5.114 C18.959 6.114 18.959 6.114 16.917 6.227 C16.043 6.222 15.168 6.217 14.267 6.211 C13.323 6.208 12.379 6.205 11.406 6.201 C10.413 6.193 9.42 6.185 8.396 6.176 C7.399 6.172 6.402 6.167 5.375 6.162 C2.903 6.151 0.431 6.134 -2.041 6.114 C-2.423 4.457 -2.755 2.789 -3.041 1.114 C-2.041 0.114 -2.041 0.114 0 0 Z " fill="#282828" transform="translate(822.041259765625,752.886474609375)"/>
<path d="M0 0 C1 3 1 3 -0.062 5.875 C-2.412 9.664 -4.313 11.493 -8 14 C-10.875 14.312 -10.875 14.312 -13 14 C-13.827 7.146 -13.827 7.146 -11.652 4.133 C-7.905 0.69 -5.245 -0.768 0 0 Z " fill="#606165" transform="translate(548,681)"/>
<path d="M0 0 C0.619 0.866 0.619 0.866 1.25 1.75 C2.971 4.07 2.971 4.07 5.188 6.125 C7 8 7 8 7 10 C5.504 11.438 5.504 11.438 3.562 13 C0.848 15.145 0.848 15.145 -1 18 C-1.66 18 -2.32 18 -3 18 C-3.371 16.886 -3.371 16.886 -3.75 15.75 C-5.094 12.794 -6.69 11.233 -9 9 C-9 8.34 -9 7.68 -9 7 C-7.021 5.636 -5.018 4.306 -3 3 C-1.206 1.376 -1.206 1.376 0 0 Z " fill="#97999A" transform="translate(728,555)"/>
<path d="M0 0 C0.482 0.422 0.964 0.843 1.461 1.277 C2.093 1.825 2.724 2.373 3.375 2.938 C4.001 3.483 4.628 4.028 5.273 4.59 C6.956 6.07 6.956 6.07 9 7 C7.326 10.957 4.869 13.845 2 17 C0 17 0 17 -2.438 14.688 C-3.283 13.801 -4.129 12.914 -5 12 C-5.598 11.402 -6.196 10.804 -6.812 10.188 C-7.204 9.796 -7.596 9.404 -8 9 C-6.855 7.886 -6.855 7.886 -5.688 6.75 C-3.561 4.574 -1.744 2.478 0 0 Z " fill="#97999A" transform="translate(446,294)"/>
<path d="M0 0 C3.599 0.556 4.999 1.749 7.25 4.562 C7.771 5.203 8.292 5.844 8.828 6.504 C9.215 6.998 9.602 7.491 10 8 C12.416 7.969 12.416 7.969 15 7 C16.859 4.033 16.859 4.033 18 1 C18.99 1.33 19.98 1.66 21 2 C20.551 6.832 19.561 9.631 16 13 C13.125 14.125 13.125 14.125 10 14 C6.78 11.874 4.514 10.358 3.125 6.688 C3.084 6.131 3.043 5.574 3 5 C1.68 4.67 0.36 4.34 -1 4 C-0.67 2.68 -0.34 1.36 0 0 Z " fill="#121213" transform="translate(497,415)"/>
<path d="M0 0 C0.99 0.33 1.98 0.66 3 1 C2.487 4.797 1.843 6.473 -1 9 C-1.866 10.299 -1.866 10.299 -2.75 11.625 C-5 14 -5 14 -8.438 15.125 C-12 15 -12 15 -14.812 12.75 C-19 7.486 -19 7.486 -19 3 C-17.188 3.188 -17.188 3.188 -15 4 C-14.526 4.846 -14.051 5.691 -13.562 6.562 C-13.047 7.367 -12.531 8.171 -12 9 C-9.597 9.579 -9.597 9.579 -7 9 C-4.882 7.054 -4.882 7.054 -3.188 4.5 C-2.583 3.665 -1.978 2.829 -1.355 1.969 C-0.908 1.319 -0.461 0.669 0 0 Z " fill="#121213" transform="translate(557,414)"/>
<path d="M0 0 C1.423 -0.062 2.846 -0.124 4.312 -0.188 C5.513 -0.24 5.513 -0.24 6.738 -0.293 C9 0 9 0 10.773 1.258 C12.994 4.412 12.298 7.239 12 11 C10 13 10 13 7.375 13.125 C6.591 13.084 5.808 13.043 5 13 C4.67 11.35 4.34 9.7 4 8 C3.67 9.65 3.34 11.3 3 13 C2.34 13 1.68 13 1 13 C0.67 8.71 0.34 4.42 0 0 Z " fill="#F0979E" transform="translate(552,434)"/>
<path d="M0 0 C2.809 0.802 5.312 1.827 8 3 C8 4.65 8 6.3 8 8 C5.394 9.704 4.1 10.006 0.938 9.812 C-2.022 8.994 -3.143 8.373 -5 6 C-4.34 5.01 -3.68 4.02 -3 3 C-3.99 3 -4.98 3 -6 3 C-6 3.99 -6 4.98 -6 6 C-8.97 5.505 -8.97 5.505 -12 5 C-12 4.01 -12 3.02 -12 2 C-7.932 -0.712 -4.776 -0.53 0 0 Z " fill="#DADBDC" transform="translate(691,296)"/>
<path d="M0 0 C5.044 0.445 7.444 2.61 11 6 C11 6.66 11 7.32 11 8 C11.859 8.373 11.859 8.373 12.734 8.754 C15.335 10.184 17.147 11.847 19.25 13.938 C20.31 14.972 20.31 14.972 21.391 16.027 C23 18 23 18 23 21 C19.667 20.407 17.918 19.339 15.438 17.062 C14.415 16.129 14.415 16.129 13.371 15.176 C12.589 14.458 11.806 13.74 11 13 C10.022 12.148 9.043 11.296 8.035 10.418 C7.023 9.529 6.011 8.64 5 7.75 C4.051 6.92 3.102 6.09 2.125 5.234 C0 3 0 3 0 0 Z " fill="#121213" transform="translate(767,480)"/>
<path d="M0 0 C1.645 1.105 1.645 1.105 4.082 3.105 C3.752 4.095 3.422 5.085 3.082 6.105 C1.845 5.61 1.845 5.61 0.582 5.105 C-5.391 3.399 -9.704 3.241 -15.168 6.105 C-16.104 6.662 -16.104 6.662 -17.059 7.23 C-18.918 8.105 -18.918 8.105 -22.918 8.105 C-22.855 6.355 -22.855 6.355 -21.918 4.105 C-15.642 -0.039 -7.412 -3.457 0 0 Z " fill="#09090A" transform="translate(515.91796875,394.89453125)"/>
<path d="M0 0 C3.228 1.475 5.84 3.155 8 6 C8 7.32 8 8.64 8 10 C5.332 9.009 3.148 8.113 0.875 6.375 C-4.935 3.596 -11.859 4.621 -18 6 C-14.633 -1.771 -7.454 -1.017 0 0 Z " fill="#121213" transform="translate(554,394)"/>
<path d="M0 0 C1.32 0 2.64 0 4 0 C4.33 0.99 4.66 1.98 5 3 C5.99 2.34 6.98 1.68 8 1 C8.99 1 9.98 1 11 1 C10.602 3.886 10.21 4.822 7.938 6.75 C7.298 7.163 6.659 7.575 6 8 C8.475 8.99 8.475 8.99 11 10 C11 10.66 11 11.32 11 12 C3.5 13.25 3.5 13.25 -1 11 C-0.67 7.37 -0.34 3.74 0 0 Z " fill="#121213" transform="translate(254,561)"/>
<path d="M0 0 C0.04 0.557 0.08 1.114 0.121 1.688 C1.043 8.428 3.779 11.194 9.102 15.273 C10.041 16.128 10.041 16.128 11 17 C11 17.99 11 18.98 11 20 C8.797 20.273 8.797 20.273 6 20 C3.578 18.102 3.578 18.102 1.25 15.625 C0.471 14.813 -0.307 14.001 -1.109 13.164 C-3.63 10.279 -3.971 9.407 -4.25 5.5 C-4.167 4.345 -4.085 3.19 -4 2 C-1 0 -1 0 0 0 Z " fill="#121213" transform="translate(233,426)"/>
<path d="M0 0 C3.084 0.33 3.978 0.977 6.125 3.312 C9.445 8.072 10.243 10.85 10.125 16.75 C10.107 17.92 10.089 19.091 10.07 20.297 C10.036 21.635 10.036 21.635 10 23 C8.68 23 7.36 23 6 23 C5.986 22.227 5.972 21.453 5.957 20.656 C5.662 14.206 5.002 9.816 1.059 4.621 C0 3 0 3 0 0 Z " fill="#403E41" transform="translate(545,695)"/>
<path d="M0 0 C6.702 0.779 10.995 3.567 16 8 C16 8.66 16 9.32 16 10 C14.68 10 13.36 10 12 10 C11.67 10.66 11.34 11.32 11 12 C7.125 8.846 3.389 5.688 0 2 C0 1.34 0 0.68 0 0 Z " fill="#ADAEB1" transform="translate(795,414)"/>
<path d="M0 0 C5.61 0 11.22 0 17 0 C16.67 1.32 16.34 2.64 16 4 C11.003 5.666 5.942 5.634 0.938 4 C0.298 3.67 -0.341 3.34 -1 3 C-0.67 2.01 -0.34 1.02 0 0 Z " fill="#4C4A4C" transform="translate(523,730)"/>
<path d="M0 0 C0 0.66 0 1.32 0 2 C-1.609 3.113 -1.609 3.113 -3.75 4.312 C-7.3 6.428 -9.634 8.55 -12 12 C-12.99 11.67 -13.98 11.34 -15 11 C-14.672 7.845 -14.287 6.311 -12.109 3.945 C-11.331 3.345 -10.552 2.744 -9.75 2.125 C-8.598 1.201 -8.598 1.201 -7.422 0.258 C-4.462 -1.28 -3.12 -0.985 0 0 Z " fill="#403E41" transform="translate(527,691)"/>
<path d="M0 0 C1.98 0.99 1.98 0.99 4 2 C4.99 2 5.98 2 7 2 C7 4.31 7 6.62 7 9 C4.69 9.66 2.38 10.32 0 11 C0 7.37 0 3.74 0 0 Z " fill="#F4B2B1" transform="translate(503,435)"/>
<path d="M0 0 C3.995 1.37 6.8 3.257 10 6 C9.67 6.99 9.34 7.98 9 9 C8.01 9.33 7.02 9.66 6 10 C3.943 8.405 1.941 6.735 0 5 C-0.66 4.67 -1.32 4.34 -2 4 C-1.34 2.68 -0.68 1.36 0 0 Z " fill="#121213" transform="translate(251,410)"/>
<path d="M0 0 C0.99 0.66 1.98 1.32 3 2 C2.67 3.98 2.34 5.96 2 8 C1.34 7.01 0.68 6.02 0 5 C0 8.96 0 12.92 0 17 C-0.66 17.33 -1.32 17.66 -2 18 C-3.841 14.317 -3.37 10.028 -3 6 C-1.5 2.375 -1.5 2.375 0 0 Z " fill="#606165" transform="translate(511,701)"/>
<path d="M0 0 C0.66 0.33 1.32 0.66 2 1 C1.01 3.97 0.02 6.94 -1 10 C-2.176 10.217 -2.176 10.217 -3.375 10.438 C-5.964 10.878 -5.964 10.878 -8 12 C-6.787 8.276 -5.491 4.622 -4 1 C-3.01 1 -2.02 1 -1 1 C-0.67 0.67 -0.34 0.34 0 0 Z " fill="#121213" transform="translate(739,377)"/>
<path d="M0 0 C0 1.65 0 3.3 0 5 C-3.3 4.67 -6.6 4.34 -10 4 C-9.67 2.68 -9.34 1.36 -9 0 C-5.522 -1.159 -3.541 -0.708 0 0 Z " fill="#7A7A7B" transform="translate(699,299)"/>
<path d="M0 0 C1.875 0.25 1.875 0.25 4 1 C5.25 3.062 5.25 3.062 6 5 C4.75 6.562 4.75 6.562 3 8 C0.812 7.688 0.812 7.688 -1 7 C-1.625 5.188 -1.625 5.188 -2 3 C-1.34 2.01 -0.68 1.02 0 0 Z " fill="#858B89" transform="translate(321,516)"/>
<path d="M0 0 C3.235 0.558 4.979 1.372 7 4 C7 4.99 7 5.98 7 7 C9.31 7.33 11.62 7.66 14 8 C14 8.33 14 8.66 14 9 C11.36 9.66 8.72 10.32 6 11 C5.184 9.732 4.372 8.46 3.562 7.188 C3.11 6.48 2.658 5.772 2.191 5.043 C1 3 1 3 0 0 Z " fill="#282828" transform="translate(546,313)"/>
<path d="M0 0 C2.475 0.495 2.475 0.495 5 1 C4.34 4.96 3.68 8.92 3 13 C2.34 13 1.68 13 1 13 C0.67 8.71 0.34 4.42 0 0 Z " fill="#F4B2B1" transform="translate(552,434)"/>
<path d="M0 0 C0.66 0.99 1.32 1.98 2 3 C1.361 3.928 0.721 4.856 0.062 5.812 C-2.721 10.592 -2.804 15.577 -3 21 C-3.33 21 -3.66 21 -4 21 C-4.33 19.02 -4.66 17.04 -5 15 C-5.99 15.495 -5.99 15.495 -7 16 C-5.354 10.315 -2.71 5.233 0 0 Z " fill="#E5E5E5" transform="translate(368,605)"/>
<path d="M0 0 C0 3.96 0 7.92 0 12 C-1.32 11.34 -2.64 10.68 -4 10 C-4.368 3.496 -4.368 3.496 -2.562 1.062 C-1 0 -1 0 0 0 Z " fill="#F0979E" transform="translate(496,435)"/>
<path d="M0 0 C2.475 0.99 2.475 0.99 5 2 C4.75 3.875 4.75 3.875 4 6 C1.938 7.25 1.938 7.25 0 8 C-0.66 7.34 -1.32 6.68 -2 6 C-1.444 1.444 -1.444 1.444 0 0 Z " fill="#7A7A7B" transform="translate(682,455)"/>
<path d="M0 0 C0 0.66 0 1.32 0 2 C-0.99 2.495 -0.99 2.495 -2 3 C-2.33 3.99 -2.66 4.98 -3 6 C-5.97 5.505 -5.97 5.505 -9 5 C-9 4.01 -9 3.02 -9 2 C-5.565 -0.29 -4.015 -0.178 0 0 Z " fill="#F4F4F5" transform="translate(688,296)"/>
<path d="M0 0 C0.33 0 0.66 0 1 0 C1.027 2.292 1.046 4.583 1.062 6.875 C1.074 8.151 1.086 9.427 1.098 10.742 C1 14 1 14 0 16 C-0.66 16 -1.32 16 -2 16 C-1.86 13.52 -1.713 11.041 -1.562 8.562 C-1.523 7.855 -1.484 7.148 -1.443 6.42 C-1.113 1.113 -1.113 1.113 0 0 Z " fill="#E5E5E5" transform="translate(691,617)"/>
<path d="M0 0 C4.688 3.613 4.688 3.613 6 5 C6 5.99 6 6.98 6 8 C3.625 7.75 3.625 7.75 1 7 C-0.375 5.125 -0.375 5.125 -1 3 C-0.67 2.01 -0.34 1.02 0 0 Z " fill="#121213" transform="translate(807,613)"/>
<path d="M0 0 C0.99 0 1.98 0 3 0 C3 4.29 3 8.58 3 13 C2.34 13 1.68 13 1 13 C0.67 8.71 0.34 4.42 0 0 Z " fill="#F98491" transform="translate(498,434)"/>
<path d="M0 0 C4.29 0 8.58 0 13 0 C13 0.33 13 0.66 13 1 C10.03 1 7.06 1 4 1 C4 1.99 4 2.98 4 4 C2.35 3.67 0.7 3.34 -1 3 C-0.67 2.01 -0.34 1.02 0 0 Z " fill="#606165" transform="translate(523,730)"/>
<path d="M0 0 C0.536 0.227 1.072 0.454 1.625 0.688 C0.635 1.018 -0.355 1.347 -1.375 1.688 C-2.365 3.173 -2.365 3.173 -3.375 4.688 C-6 5.375 -6 5.375 -8.375 5.688 C-8.375 4.697 -8.375 3.707 -8.375 2.688 C-2.96 -0.389 -2.96 -0.389 0 0 Z " fill="#1A1A1D" transform="translate(351.375,679.3125)"/>
<path d="M0 0 C0.99 0.33 1.98 0.66 3 1 C4.188 4.062 4.188 4.062 5 7 C4.01 7.99 3.02 8.98 2 10 C1.34 6.7 0.68 3.4 0 0 Z " fill="#282828" transform="translate(594,378)"/>
<path d="M0 0 C2.97 0 5.94 0 9 0 C9 0.99 9 1.98 9 3 C6.03 2.67 3.06 2.34 0 2 C0 1.34 0 0.68 0 0 Z " fill="#09090A" transform="translate(555,319)"/>
<path d="M0 0 C1.65 0.33 3.3 0.66 5 1 C5 1.66 5 2.32 5 3 C4.01 3 3.02 3 2 3 C1.67 3.99 1.34 4.98 1 6 C0.34 5.67 -0.32 5.34 -1 5 C-0.67 4.34 -0.34 3.68 0 3 C-0.66 2.67 -1.32 2.34 -2 2 C-1.34 2 -0.68 2 0 2 C0 1.34 0 0.68 0 0 Z " fill="#C4C4C4" transform="translate(688,296)"/>
<path d="M0 0 C0.66 0.99 1.32 1.98 2 3 C0.68 5.31 -0.64 7.62 -2 10 C-2.66 10 -3.32 10 -4 10 C-2.891 6.513 -1.737 3.225 0 0 Z " fill="#C4C4C4" transform="translate(368,605)"/>
<path d="M0 0 C3.775 1.091 6.47 1.908 9 5 C3.5 5.367 3.5 5.367 1.125 3.625 C0 2 0 2 0 0 Z " fill="#121213" transform="translate(520,446)"/>
<path d="M0 0 C2.64 1.65 5.28 3.3 8 5 C7.67 5.66 7.34 6.32 7 7 C4.085 5.926 2.222 5.222 0 3 C0 2.01 0 1.02 0 0 Z " fill="#DADBDC" transform="translate(391,794)"/>
<path d="M0 0 C0.33 0.66 0.66 1.32 1 2 C1.99 2.33 2.98 2.66 4 3 C1.353 4.461 0.106 5 -3 5 C-2.625 3.062 -2.625 3.062 -2 1 C-1.34 0.67 -0.68 0.34 0 0 Z " fill="#282828" transform="translate(347,687)"/>
<path d="M0 0 C1.644 3.287 2.413 5.479 3 9 C2.01 9 1.02 9 0 9 C0 6.03 0 3.06 0 0 Z " fill="#F1CCCB" transform="translate(559,438)"/>
<path d="M0 0 C1.32 0.66 2.64 1.32 4 2 C4 2.66 4 3.32 4 4 C2.68 4 1.36 4 0 4 C-0.33 4.66 -0.66 5.32 -1 6 C-1.66 5.01 -2.32 4.02 -3 3 C-2.01 3 -1.02 3 0 3 C0 2.01 0 1.02 0 0 Z " fill="#DADBDC" transform="translate(807,420)"/>
<path d="M0 0 C0.99 0.66 1.98 1.32 3 2 C2.67 3.98 2.34 5.96 2 8 C1.34 6.68 0.68 5.36 0 4 C-0.99 4.495 -0.99 4.495 -2 5 C-1.34 3.35 -0.68 1.7 0 0 Z " fill="#4C4A4C" transform="translate(511,701)"/>
<path d="M0 0 C-2.392 2.392 -3.678 2.676 -7 3 C-7.99 2.34 -8.98 1.68 -10 1 C-6.527 -0.158 -3.639 -0.069 0 0 Z " fill="#ADAEB1" transform="translate(358,682)"/>
<path d="M0 0 C0.66 0.66 1.32 1.32 2 2 C1.67 2.66 1.34 3.32 1 4 C-0.65 4 -2.3 4 -4 4 C-4 3.01 -4 2.02 -4 1 C-2.125 0.375 -2.125 0.375 0 0 Z " fill="#7A7A7B" transform="translate(811,423)"/>
</svg>