<svg version="1.1" xmlns="http://www.w3.org/2000/svg" width="1024" height="1024">
<path d="M0 0 C337.92 0 675.84 0 1024 0 C1024 337.92 1024 675.84 1024 1024 C686.08 1024 348.16 1024 0 1024 C0 686.08 0 348.16 0 0 Z " fill="#FEFEFE" transform="translate(0,0)"/>
<path d="M0 0 C4.775 0.439 8.614 2.075 12.875 4.125 C23.504 9.015 34.756 11.88 46 15 C71.426 22.15 100.05 32.643 114.871 55.941 C122.391 69.639 124.828 85.031 126.75 100.375 C126.924 101.751 126.924 101.751 127.101 103.156 C129.418 123.845 129.174 144.783 129.2 165.573 C129.203 167.796 129.207 170.02 129.212 172.243 C129.225 179.25 129.235 186.257 129.239 193.264 C129.243 201.264 129.261 209.265 129.29 217.265 C129.312 223.517 129.322 229.769 129.323 236.021 C129.324 239.727 129.33 243.432 129.348 247.137 C129.463 272.01 129.19 293.715 115 315 C159.055 315.495 159.055 315.495 204 316 C204.33 317.65 204.66 319.3 205 321 C203.068 322.932 200.159 322.124 197.588 322.131 C196.653 322.128 195.719 322.126 194.756 322.123 C193.769 322.124 192.782 322.125 191.765 322.127 C188.413 322.129 185.061 322.125 181.709 322.12 C179.299 322.121 176.889 322.122 174.48 322.123 C169.218 322.125 163.956 322.123 158.694 322.119 C150.869 322.113 143.045 322.113 135.22 322.114 C122.06 322.115 108.9 322.112 95.74 322.106 C82.704 322.1 69.667 322.096 56.631 322.095 C55.416 322.095 55.416 322.095 54.178 322.095 C50.067 322.094 45.955 322.094 41.844 322.094 C12.701 322.092 -16.443 322.085 -45.587 322.075 C-73.906 322.066 -102.225 322.059 -130.543 322.055 C-131.852 322.055 -131.852 322.055 -133.187 322.055 C-141.948 322.053 -150.708 322.052 -159.469 322.051 C-177.317 322.048 -195.164 322.045 -213.012 322.042 C-214.243 322.042 -214.243 322.042 -215.499 322.042 C-270.333 322.033 -325.166 322.017 -380 322 C-380.382 320.344 -380.714 318.675 -381 317 C-379.147 315.147 -376.093 315.855 -373.616 315.842 C-372.941 315.837 -372.266 315.832 -371.571 315.827 C-369.294 315.811 -367.017 315.803 -364.74 315.795 C-363.114 315.785 -361.489 315.775 -359.863 315.765 C-355.435 315.738 -351.008 315.717 -346.58 315.697 C-341.958 315.675 -337.337 315.647 -332.715 315.621 C-323.957 315.571 -315.198 315.526 -306.44 315.483 C-296.471 315.433 -286.503 315.378 -276.535 315.323 C-256.023 315.209 -235.512 315.102 -215 315 C-215.33 313.35 -215.66 311.7 -216 310 C-216.897 309.937 -217.794 309.874 -218.719 309.809 C-242.009 307.523 -261.306 293.732 -276 276 C-277.102 274.677 -277.102 274.677 -278.227 273.328 C-280.506 270.569 -282.76 267.792 -285 265 C-285.629 264.216 -286.258 263.433 -286.906 262.625 C-287.453 261.924 -287.999 261.223 -288.562 260.5 C-289.038 259.892 -289.514 259.283 -290.004 258.656 C-291 257 -291 257 -291 254 C-291.739 254.081 -292.477 254.162 -293.238 254.246 C-303.325 254.874 -308.727 251.437 -316.266 245.094 C-329.16 233.034 -345.782 212.945 -346.438 194.688 C-346.284 190.483 -344.951 187.724 -343 184 C-343.75 181.993 -343.75 181.993 -345 180 C-345.345 179.404 -345.691 178.809 -346.046 178.195 C-346.42 177.583 -346.794 176.971 -347.18 176.34 C-347.607 175.639 -348.035 174.938 -348.476 174.216 C-348.938 173.464 -349.399 172.712 -349.875 171.938 C-350.361 171.144 -350.847 170.35 -351.348 169.532 C-355.306 163.09 -359.334 156.694 -363.383 150.309 C-367.063 144.5 -370.699 138.664 -374.312 132.812 C-384.586 116.181 -394.958 99.611 -405.414 83.094 C-406.054 82.077 -406.054 82.077 -406.706 81.041 C-407.602 79.628 -408.509 78.222 -409.425 76.823 C-409.879 76.121 -410.333 75.419 -410.801 74.695 C-411.21 74.072 -411.619 73.448 -412.04 72.805 C-413.682 69.718 -413.565 67.387 -413 64 C-410.217 57.676 -405.124 55.463 -399 53 C-382.771 47.59 -360.607 54.013 -345.927 61.203 C-340.67 63.378 -336.08 61.799 -331 60 C-315.141 57.222 -297.781 57.918 -284 67 C-278.057 72.649 -273.695 79.224 -269.562 86.25 C-268.977 87.228 -268.391 88.206 -267.788 89.214 C-265.845 92.468 -263.92 95.732 -262 99 C-261.654 99.589 -261.308 100.177 -260.951 100.784 C-257.669 106.371 -254.392 111.962 -251.125 117.558 C-246.327 125.771 -241.442 133.924 -236.441 142.016 C-234.725 144.797 -233.052 147.6 -231.402 150.422 C-230.987 151.13 -230.571 151.838 -230.143 152.567 C-229.36 153.903 -228.584 155.242 -227.814 156.585 C-226.931 158.09 -225.972 159.551 -225 161 C-224.34 161 -223.68 161 -223 161 C-222.614 160.272 -222.227 159.544 -221.829 158.795 C-213.618 143.345 -205.268 127.997 -196.588 112.803 C-194.969 109.946 -193.378 107.075 -191.793 104.199 C-181.751 86.04 -171.088 68.334 -157 53 C-156.363 52.282 -155.726 51.564 -155.07 50.824 C-142.734 37.614 -120.793 22.003 -102.312 20.75 C-101.549 20.832 -100.786 20.915 -100 21 C-99.934 23.238 -99.934 23.238 -101 26 C-103.83 27.823 -106.94 28.954 -110.062 30.188 C-145.6 45.235 -165.4 72.046 -183.437 105.142 C-185.507 108.927 -187.624 112.684 -189.75 116.438 C-197.3 129.841 -204.74 143.302 -212.066 156.829 C-212.549 157.719 -213.033 158.61 -213.531 159.527 C-214.174 160.714 -214.174 160.714 -214.83 161.926 C-215.81 163.663 -216.894 165.341 -218 167 C-218.604 171.438 -217.203 173.936 -214.922 177.691 C-214.261 178.791 -213.601 179.891 -212.92 181.024 C-212.197 182.204 -211.474 183.383 -210.75 184.562 C-210.014 185.78 -209.279 186.998 -208.544 188.216 C-207.067 190.665 -205.583 193.111 -204.095 195.554 C-202.252 198.58 -200.43 201.619 -198.617 204.664 C-193.512 213.238 -188.344 221.762 -182.944 230.155 C-180 234.784 -180 234.784 -180 237 C-178.948 237.056 -178.948 237.056 -177.875 237.113 C-176.926 237.179 -175.977 237.245 -175 237.312 C-174.072 237.371 -173.144 237.429 -172.188 237.488 C-169.453 237.927 -167.357 238.545 -164.801 239.532 C-163.73 239.943 -163.73 239.943 -162.638 240.362 C-161.827 240.678 -161.827 240.678 -161 241 C-161.004 240.145 -161.009 239.289 -161.013 238.408 C-161.054 230.247 -161.084 222.086 -161.104 213.925 C-161.114 209.732 -161.128 205.539 -161.151 201.346 C-161.347 164.643 -161.347 164.643 -159 148 C-158.773 146.382 -158.773 146.382 -158.541 144.731 C-158.151 142.281 -157.702 139.864 -157.188 137.438 C-156.934 136.216 -156.934 136.216 -156.676 134.969 C-155.261 128.508 -153.701 121.563 -150 116 C-147.906 115.137 -147.906 115.137 -146 115 C-145.67 115.33 -145.34 115.66 -145 116 C-145.484 120.595 -146.407 125.05 -147.409 129.557 C-151.961 150.056 -153.068 170.602 -153.316 191.535 C-153.337 193.035 -153.358 194.536 -153.379 196.036 C-153.434 199.92 -153.483 203.805 -153.532 207.69 C-153.583 211.679 -153.638 215.669 -153.693 219.658 C-153.8 227.439 -153.901 235.219 -154 243 C-152.821 243.111 -151.642 243.222 -150.428 243.336 C-146.361 243.849 -142.941 245.004 -139.156 246.617 C-138.543 246.875 -137.929 247.133 -137.297 247.398 C-135.361 248.215 -133.43 249.044 -131.5 249.875 C-130.207 250.424 -128.914 250.972 -127.621 251.52 C-126.678 251.919 -126.678 251.919 -125.716 252.326 C-114.484 257.386 -114.484 257.386 -102.5 259.688 C-100.938 259.786 -100.938 259.786 -99.344 259.887 C-98.57 259.924 -97.797 259.961 -97 260 C-97.032 259.064 -97.064 258.128 -97.098 257.164 C-96.97 253.04 -95.931 251.856 -93 249 C-87.461 245.307 -82.458 243.974 -75.938 242.875 C-75.085 242.719 -74.232 242.563 -73.354 242.402 C-67.162 241.293 -60.943 240.411 -54.715 239.536 C-48.9 238.697 -43.102 237.763 -37.303 236.823 C-35.304 236.499 -33.303 236.177 -31.303 235.855 C-24.626 234.776 -17.961 233.659 -11.313 232.411 C-4.085 231.128 3.018 230.948 10.34 230.977 C11.174 230.978 12.008 230.98 12.867 230.982 C14.911 230.986 16.956 230.993 19 231 C18.996 230.146 18.991 229.292 18.987 228.412 C18.946 220.294 18.916 212.176 18.896 204.057 C18.886 199.885 18.872 195.713 18.849 191.542 C18.827 187.502 18.815 183.463 18.81 179.423 C18.807 177.895 18.799 176.368 18.789 174.841 C18.574 143.613 18.574 143.613 25 132 C27.07 131.121 27.07 131.121 29 131 C29.33 131.33 29.66 131.66 30 132 C29.916 133.751 29.916 133.751 29.628 136.001 C29.528 136.82 29.428 137.638 29.324 138.482 C29.217 139.313 29.11 140.144 29 141 C26.824 158.37 26.754 175.638 26.863 193.11 C26.884 196.832 26.892 200.554 26.902 204.275 C26.923 211.517 26.957 218.758 27 226 C27.613 225.678 28.226 225.355 28.858 225.023 C35.949 221.636 44.413 224.299 51.435 226.733 C63.903 231.401 77.143 240.65 83 253 C82.684 255.805 82.684 255.805 82 258 C80.68 258 79.36 258 78 258 C76.176 256.094 76.176 256.094 74.312 253.5 C65.742 242.351 54.885 233.92 40.67 231.81 C37.785 231.461 34.899 231.199 32 231 C32.33 232.65 32.66 234.3 33 236 C30.076 237.462 27.061 237.312 23.848 237.473 C-4.426 239.116 -32.095 243.254 -60 248 C-59.605 248.7 -59.209 249.4 -58.802 250.121 C-55.707 255.679 -52.904 261.139 -50.75 267.125 C-50.508 267.763 -50.265 268.401 -50.016 269.059 C-46.391 278.888 -45.709 287.841 -45.812 298.312 C-45.813 299.574 -45.814 300.835 -45.814 302.135 C-45.861 311.776 -45.861 311.776 -47 316 C-27.398 315.986 -7.797 315.944 11.805 315.868 C20.906 315.833 30.007 315.808 39.109 315.804 C47.041 315.801 54.973 315.781 62.906 315.739 C67.106 315.718 71.306 315.706 75.507 315.714 C79.461 315.721 83.414 315.706 87.368 315.672 C88.819 315.664 90.27 315.664 91.72 315.673 C93.702 315.685 95.684 315.663 97.666 315.639 C98.775 315.636 99.884 315.634 101.027 315.631 C106.337 314.504 109.199 310.067 112.125 305.75 C114.975 301.351 116.612 297.026 118 292 C118.371 290.824 118.742 289.649 119.125 288.438 C121.33 279.774 121.143 271.135 121.129 262.25 C121.131 260.762 121.133 259.275 121.135 257.788 C121.139 253.767 121.138 249.747 121.134 245.726 C121.132 241.509 121.134 237.293 121.136 233.076 C121.138 225.997 121.135 218.918 121.13 211.84 C121.125 203.666 121.127 195.491 121.132 187.317 C121.137 180.287 121.137 173.257 121.135 166.226 C121.133 162.033 121.133 157.839 121.136 153.645 C121.139 149.703 121.137 145.761 121.131 141.818 C121.13 140.375 121.13 138.931 121.133 137.488 C121.135 135.511 121.131 133.535 121.127 131.558 C121.127 130.454 121.126 129.35 121.126 128.213 C120.99 124.752 120.521 121.422 120 118 C119.854 115.439 119.73 112.876 119.625 110.312 C118.468 87.603 115.614 63.126 98 47 C85.071 36.463 69.709 30.194 54 25 C53.352 24.778 52.703 24.556 52.035 24.327 C47.717 22.858 43.377 21.51 38.996 20.238 C18.649 14.301 18.649 14.301 9.625 9.812 C8.997 9.504 8.368 9.196 7.72 8.878 C3.875 6.847 1.487 4.547 -1 1 C-0.67 0.67 -0.34 0.34 0 0 Z " fill="#060606" transform="translate(571,501)"/>
<path d="M0 0 C20.166 13.164 27.213 33.753 32.473 56.051 C36.575 73.127 42.69 85.895 55.332 98.234 C57.659 100.558 59.985 102.881 62.289 105.227 C65.442 108.426 68.621 111.545 72.02 114.484 C73.458 115.734 74.895 116.984 76.332 118.234 C77.821 119.528 77.821 119.528 79.34 120.848 C89.829 130.13 103.723 142.798 105.621 157.469 C105.645 159.422 105.645 159.422 105.332 162.234 C105.992 162.234 106.652 162.234 107.332 162.234 C108.238 150.908 107.426 143.619 100.332 134.234 C99.633 133.3 98.935 132.365 98.215 131.402 C91.751 123.179 84.559 115.7 76.332 109.234 C53.894 91.143 40.807 71.459 33.434 43.73 C31.76 38.417 29.368 33.504 26.918 28.512 C25.597 25.782 24.413 23.065 23.332 20.234 C31.995 24.074 36.181 32.733 39.551 41.141 C41.116 45.334 42.458 49.601 43.832 53.859 C50.61 74.74 62.556 88.877 79.582 102.422 C91.237 111.89 101.512 122.381 109.332 135.234 C110.15 136.474 110.15 136.474 110.984 137.738 C115.112 144.678 115.999 152.342 114.332 160.234 C108.844 176.768 96.888 190.423 81.542 198.475 C67.967 205.248 53.413 211.236 38.672 214.895 C32.748 216.429 30.254 219.284 26.414 223.957 C18.008 233.152 2.288 238.846 -9.965 239.605 C-22.832 239.956 -32.432 237.377 -42.668 229.234 C-42.095 226.367 -41.807 225.373 -39.668 223.234 C-40.231 223.431 -40.794 223.627 -41.374 223.829 C-44.01 224.744 -46.652 225.645 -49.293 226.547 C-50.177 226.856 -51.062 227.164 -51.973 227.482 C-64.718 231.807 -76.706 233.73 -90.168 233.609 C-91.466 233.621 -92.764 233.633 -94.102 233.645 C-107.204 233.605 -118.882 232.025 -129.668 224.234 C-130.74 223.492 -131.813 222.749 -132.918 221.984 C-143.685 211.218 -146.021 197.534 -146.043 182.922 C-145.917 170.872 -145.199 159.036 -142.172 147.331 C-138.319 131.296 -138.021 114.634 -137.668 98.234 C-138.713 98.555 -139.759 98.876 -140.836 99.207 C-149.154 101.437 -155.96 100.985 -163.508 96.715 C-168.987 92.96 -172.41 87.803 -173.668 81.234 C-175.338 61.046 -167.886 45.098 -155.292 29.565 C-141.377 13.156 -123.364 0.842 -101.668 -1.766 C-98.926 -1.881 -96.221 -1.956 -93.48 -1.953 C-92.365 -1.952 -92.365 -1.952 -91.226 -1.951 C-84.887 -1.881 -78.876 -1.045 -72.668 0.234 C-70.585 0.613 -68.502 0.988 -66.418 1.359 C-64.834 1.65 -63.251 1.941 -61.668 2.234 C-65.475 -0.304 -68.803 -0.547 -73.27 -1.203 C-74.061 -1.389 -74.853 -1.574 -75.668 -1.766 C-76.163 -2.756 -76.163 -2.756 -76.668 -3.766 C-65.083 -3.939 -65.083 -3.939 -60.418 -3.016 C-56.167 -2.732 -54.367 -3.51 -50.82 -5.66 C-35.133 -13.717 -14.13 -8.768 0 0 Z " fill="#060606" transform="translate(528.66796875,285.765625)"/>
<path d="M0 0 C3.48 1.531 6.757 3.376 10.062 5.25 C10.896 5.709 11.729 6.168 12.588 6.641 C13.478 7.136 14.368 7.631 15.285 8.141 C16.812 8.973 16.812 8.973 18.37 9.823 C21.222 11.452 23.806 13.317 26.437 15.283 C42.492 26.728 57.385 26.697 76.278 26.181 C82.346 26.032 88.416 26.011 94.486 25.969 C96.586 25.946 98.684 25.896 100.783 25.841 C102.053 25.819 103.323 25.797 104.631 25.774 C105.744 25.746 106.857 25.718 108.003 25.689 C112.382 26.143 114.936 27.936 118 31 C118.26 33.325 118.26 33.325 118.274 36.294 C118.284 37.417 118.294 38.54 118.304 39.697 C118.305 40.935 118.306 42.173 118.306 43.448 C118.315 44.748 118.323 46.047 118.332 47.386 C118.354 50.956 118.362 54.526 118.367 58.097 C118.371 60.327 118.377 62.557 118.384 64.787 C118.409 72.567 118.422 80.347 118.426 88.127 C118.429 95.38 118.459 102.632 118.501 109.885 C118.536 116.11 118.551 122.335 118.552 128.56 C118.553 132.279 118.561 135.998 118.59 139.716 C118.621 143.866 118.612 148.014 118.599 152.163 C118.622 154.011 118.622 154.011 118.644 155.896 C118.564 165.159 118.564 165.159 115.525 168.24 C114.692 168.821 113.859 169.402 113 170 C112.67 170.33 112.34 170.66 112 171 C109.228 171.083 106.48 171.101 103.708 171.078 C101.903 171.072 100.099 171.066 98.294 171.061 C96.851 171.054 96.851 171.054 95.378 171.046 C90.286 171.027 85.194 171.042 80.102 171.053 C73.619 171.065 67.137 171.067 60.654 171.024 C55.42 170.991 50.187 170.996 44.953 171.028 C42.964 171.033 40.974 171.023 38.985 171 C24.335 170.761 24.335 170.761 12.014 177.968 C11.349 178.639 10.685 179.309 10 180 C9.358 180.588 8.716 181.175 8.054 181.781 C6.512 183.198 5.065 184.668 3.625 186.188 C3.144 186.682 2.663 187.176 2.168 187.686 C0.774 189.119 -0.613 190.559 -2 192 C-3.663 193.67 -5.329 195.338 -7 197 C-7.33 197.33 -7.66 197.66 -8 198 C-11.096 198.39 -12.509 198.366 -15.045 196.475 C-15.703 195.771 -16.361 195.068 -17.039 194.344 C-17.785 193.568 -18.532 192.792 -19.301 191.992 C-20.068 191.17 -20.835 190.347 -21.625 189.5 C-33.144 176.566 -33.144 176.566 -48.845 171.079 C-51.372 171.073 -53.9 171.107 -56.426 171.176 C-57.786 171.181 -59.146 171.182 -60.506 171.179 C-64.053 171.179 -67.599 171.222 -71.146 171.279 C-76.839 171.368 -82.531 171.412 -88.224 171.415 C-90.199 171.426 -92.174 171.469 -94.149 171.514 C-104.119 171.565 -104.119 171.565 -107.798 168.598 C-110.822 165.03 -111.128 163.416 -111.161 158.833 C-111.171 157.738 -111.181 156.644 -111.191 155.515 C-111.197 154.309 -111.203 153.102 -111.209 151.859 C-111.219 150.592 -111.228 149.325 -111.238 148.02 C-111.27 143.812 -111.29 139.603 -111.309 135.395 C-111.312 134.678 -111.315 133.962 -111.319 133.224 C-111.349 126.469 -111.376 119.713 -111.393 112.958 C-111.415 104.32 -111.457 95.683 -111.526 87.045 C-111.574 80.97 -111.598 74.896 -111.605 68.821 C-111.61 65.193 -111.625 61.567 -111.665 57.94 C-111.709 53.889 -111.705 49.839 -111.697 45.788 C-111.717 44.592 -111.737 43.395 -111.758 42.162 C-111.712 36.889 -111.614 32.994 -108.277 28.744 C-106.26 26.802 -105.151 26.047 -102.446 25.201 C-101.599 25.235 -100.751 25.269 -99.879 25.304 C-98.419 25.333 -98.419 25.333 -96.931 25.362 C-95.89 25.414 -94.849 25.466 -93.777 25.52 C-91.523 25.553 -89.268 25.585 -87.014 25.615 C-83.498 25.704 -79.985 25.811 -76.471 25.948 C-59.377 26.547 -48.339 24.235 -34.183 14.48 C-31.209 12.464 -28.137 10.749 -24.988 9.02 C-23.547 8.205 -23.547 8.205 -22.076 7.373 C-21.164 6.858 -20.252 6.343 -19.312 5.812 C-18.327 5.255 -17.342 4.697 -16.326 4.123 C-6.074 -1.67 -6.074 -1.67 0 0 Z " fill="#FEFEFE" transform="translate(733,195)"/>
<path d="M0 0 C1.055 -0.012 2.11 -0.023 3.197 -0.035 C13.456 0.003 22.453 2.33 31.562 7 C32.243 7.348 32.924 7.695 33.625 8.054 C48.713 16.034 59.999 28.648 66.562 44.375 C66.902 45.125 67.241 45.875 67.59 46.648 C72.279 58.965 70.693 74.079 66.039 86.117 C59.198 101.212 48.934 112.065 35.047 120.992 C30.629 125.229 28.364 130.939 25.668 136.373 C25.21 137.254 24.753 138.135 24.281 139.043 C23.878 139.85 23.476 140.657 23.061 141.489 C21.562 143.375 21.562 143.375 19.061 144.261 C15.199 144.437 13.707 142.393 10.875 139.875 C1.437 132.023 -9.827 128.529 -21.562 125.438 C-40.119 120.326 -54.824 109.492 -64.898 92.98 C-71.656 80.578 -72.698 64.179 -68.875 50.625 C-61.868 31.13 -48.87 16.513 -30.5 7.125 C-29.534 6.63 -29.534 6.63 -28.548 6.126 C-19.078 1.494 -10.528 -0.115 0 0 Z " fill="#FEFEFE" transform="translate(312.4375,210.625)"/>
<path d="M0 0 C0.99 0.33 1.98 0.66 3 1 C4.324 3.773 4.324 3.773 5.688 7.375 C9.928 17.876 16.076 25.677 24.703 33.027 C26.914 34.926 28.966 36.915 31 39 C27.535 40.98 27.535 40.98 24 43 C24 44.32 24 45.64 24 47 C24.784 46.505 25.567 46.01 26.375 45.5 C31.056 43.563 34.996 43.239 40 44 C42.494 45.136 44.662 46.551 47 48 C49.333 48.047 49.333 48.047 51 47 C51.495 46.01 51.495 46.01 52 45 C53.111 44.963 54.222 44.925 55.367 44.887 C62.927 44.573 69.935 44.236 77.117 41.621 C79 41 79 41 82 41 C82.99 49.91 82.99 49.91 84 59 C84.66 58.67 85.32 58.34 86 58 C86.268 56.783 86.536 55.566 86.812 54.312 C88.11 48.576 91.092 45.272 96 42 C100.748 41.133 105.187 40.936 109.43 43.426 C113.812 47.174 116.641 50.262 117.406 56.102 C117.668 65.954 115.801 71.654 109.242 78.957 C104.589 83.425 99.276 86.073 93.441 88.738 C90.874 89.761 90.874 89.761 90 92 C89.753 94.165 89.528 96.332 89.312 98.5 C87.276 115.707 80.803 132.063 68 144 C55.419 153.341 43.339 155.248 28 154 C15.824 151.521 5.252 141.634 -2 132 C-10.997 118.138 -15.813 104.09 -19 88 C-19.32 86.404 -19.641 84.807 -19.961 83.211 C-20.704 79.49 -21.444 75.768 -22.184 72.047 C-24.379 61.014 -26.583 49.987 -29 39 C-28.31 38.55 -27.621 38.1 -26.91 37.637 C-13.199 28.252 -4.933 15.754 0 0 Z " fill="#FEFEFE" transform="translate(436,335)"/>
<path d="M0 0 C3.48 1.531 6.757 3.376 10.062 5.25 C10.896 5.709 11.729 6.168 12.588 6.641 C13.478 7.136 14.368 7.631 15.285 8.141 C16.812 8.973 16.812 8.973 18.37 9.823 C21.222 11.452 23.806 13.317 26.437 15.283 C42.492 26.728 57.385 26.697 76.278 26.181 C82.346 26.032 88.416 26.011 94.486 25.969 C96.586 25.946 98.684 25.896 100.783 25.841 C102.053 25.819 103.323 25.797 104.631 25.774 C105.744 25.746 106.857 25.718 108.003 25.689 C112.382 26.143 114.936 27.936 118 31 C118.26 33.325 118.26 33.325 118.274 36.294 C118.284 37.417 118.294 38.54 118.304 39.697 C118.305 40.935 118.306 42.173 118.306 43.448 C118.315 44.748 118.323 46.047 118.332 47.386 C118.354 50.956 118.362 54.526 118.367 58.097 C118.371 60.327 118.377 62.557 118.384 64.787 C118.409 72.567 118.422 80.347 118.426 88.127 C118.429 95.38 118.459 102.632 118.501 109.885 C118.536 116.11 118.551 122.335 118.552 128.56 C118.553 132.279 118.561 135.998 118.59 139.716 C118.621 143.866 118.612 148.014 118.599 152.163 C118.622 154.011 118.622 154.011 118.644 155.896 C118.564 165.159 118.564 165.159 115.525 168.24 C114.692 168.821 113.859 169.402 113 170 C112.67 170.33 112.34 170.66 112 171 C109.228 171.083 106.48 171.101 103.708 171.078 C101.903 171.072 100.099 171.066 98.294 171.061 C96.851 171.054 96.851 171.054 95.378 171.046 C90.286 171.027 85.194 171.042 80.102 171.053 C73.619 171.065 67.137 171.067 60.654 171.024 C55.42 170.991 50.187 170.996 44.953 171.028 C42.964 171.033 40.974 171.023 38.985 171 C24.335 170.761 24.335 170.761 12.014 177.968 C11.349 178.639 10.685 179.309 10 180 C9.358 180.588 8.716 181.175 8.054 181.781 C6.512 183.198 5.065 184.668 3.625 186.188 C3.144 186.682 2.663 187.176 2.168 187.686 C0.774 189.119 -0.613 190.559 -2 192 C-3.663 193.67 -5.329 195.338 -7 197 C-7.33 197.33 -7.66 197.66 -8 198 C-11.096 198.39 -12.509 198.366 -15.045 196.475 C-15.703 195.771 -16.361 195.068 -17.039 194.344 C-17.785 193.568 -18.532 192.792 -19.301 191.992 C-20.068 191.17 -20.835 190.347 -21.625 189.5 C-33.144 176.566 -33.144 176.566 -48.845 171.079 C-51.372 171.073 -53.9 171.107 -56.426 171.176 C-57.786 171.181 -59.146 171.182 -60.506 171.179 C-64.053 171.179 -67.599 171.222 -71.146 171.279 C-76.839 171.368 -82.531 171.412 -88.224 171.415 C-90.199 171.426 -92.174 171.469 -94.149 171.514 C-104.119 171.565 -104.119 171.565 -107.798 168.598 C-110.822 165.03 -111.128 163.416 -111.161 158.833 C-111.171 157.738 -111.181 156.644 -111.191 155.515 C-111.197 154.309 -111.203 153.102 -111.209 151.859 C-111.219 150.592 -111.228 149.325 -111.238 148.02 C-111.27 143.812 -111.29 139.603 -111.309 135.395 C-111.312 134.678 -111.315 133.962 -111.319 133.224 C-111.349 126.469 -111.376 119.713 -111.393 112.958 C-111.415 104.32 -111.457 95.683 -111.526 87.045 C-111.574 80.97 -111.598 74.896 -111.605 68.821 C-111.61 65.193 -111.625 61.567 -111.665 57.94 C-111.709 53.889 -111.705 49.839 -111.697 45.788 C-111.717 44.592 -111.737 43.395 -111.758 42.162 C-111.712 36.889 -111.614 32.994 -108.277 28.744 C-106.26 26.802 -105.151 26.047 -102.446 25.201 C-101.599 25.235 -100.751 25.269 -99.879 25.304 C-98.419 25.333 -98.419 25.333 -96.931 25.362 C-95.89 25.414 -94.849 25.466 -93.777 25.52 C-91.523 25.553 -89.268 25.585 -87.014 25.615 C-83.498 25.704 -79.985 25.811 -76.471 25.948 C-59.377 26.547 -48.339 24.235 -34.183 14.48 C-31.209 12.464 -28.137 10.749 -24.988 9.02 C-23.547 8.205 -23.547 8.205 -22.076 7.373 C-21.164 6.858 -20.252 6.343 -19.312 5.812 C-18.327 5.255 -17.342 4.697 -16.326 4.123 C-6.074 -1.67 -6.074 -1.67 0 0 Z M-10.535 8.238 C-11.86 8.966 -11.86 8.966 -13.211 9.709 C-14.623 10.503 -14.623 10.503 -16.062 11.312 C-17.032 11.85 -18.002 12.387 -19.002 12.941 C-34.524 20.985 -34.524 20.985 -49.016 30.613 C-53.739 32.809 -58.463 32.461 -63.609 32.477 C-64.732 32.492 -65.854 32.508 -67.011 32.524 C-70.591 32.571 -74.17 32.599 -77.75 32.625 C-81.344 32.661 -84.938 32.702 -88.532 32.748 C-90.768 32.775 -93.003 32.796 -95.239 32.811 C-96.244 32.821 -97.249 32.832 -98.284 32.842 C-99.173 32.849 -100.062 32.855 -100.977 32.862 C-102.996 32.777 -102.996 32.777 -104 34 C-104.098 35.668 -104.126 37.34 -104.127 39.011 C-104.13 40.096 -104.133 41.182 -104.136 42.3 C-104.134 43.501 -104.131 44.702 -104.129 45.939 C-104.131 47.196 -104.133 48.453 -104.135 49.748 C-104.139 53.204 -104.137 56.661 -104.134 60.117 C-104.132 63.727 -104.134 67.337 -104.136 70.946 C-104.138 77.009 -104.135 83.072 -104.13 89.135 C-104.125 96.155 -104.127 103.174 -104.132 110.193 C-104.137 116.209 -104.137 122.225 -104.135 128.241 C-104.133 131.839 -104.133 135.437 -104.136 139.035 C-104.14 143.043 -104.135 147.052 -104.129 151.061 C-104.131 152.262 -104.133 153.463 -104.136 154.7 C-104.133 155.786 -104.13 156.871 -104.127 157.989 C-104.127 158.938 -104.126 159.887 -104.126 160.865 C-104.238 162.983 -104.238 162.983 -103 164 C-101.526 164.093 -100.048 164.117 -98.572 164.114 C-97.631 164.113 -96.69 164.113 -95.721 164.113 C-94.698 164.108 -93.675 164.103 -92.621 164.098 C-91.579 164.096 -90.537 164.095 -89.464 164.093 C-86.122 164.088 -82.78 164.075 -79.438 164.062 C-77.178 164.057 -74.918 164.053 -72.658 164.049 C-67.105 164.038 -61.553 164.021 -56 164 C-58.758 161.741 -61.439 159.604 -64.551 157.859 C-65.166 157.511 -65.782 157.163 -66.416 156.805 C-67.042 156.457 -67.668 156.109 -68.312 155.75 C-68.958 155.386 -69.603 155.023 -70.268 154.648 C-71.843 153.762 -73.421 152.88 -75 152 C-75 150.68 -75 149.36 -75 148 C-70.362 148.551 -66.991 150.612 -63.125 153.062 C-58.578 155.883 -54.022 158.56 -49.251 160.983 C-34.559 168.456 -22.534 179.33 -11 191 C-6.979 189.438 -4.939 186.813 -2.188 183.562 C7.83 172.302 19.994 165.282 33.203 158.281 C39.801 154.752 45.52 151.14 51 146 C51.612 145.488 52.225 144.976 52.855 144.449 C64.136 134.414 71.003 116.956 72.239 102.13 C73.151 80.945 70.696 60.218 56.754 43.27 C55 41 55 41 55 38 C57.25 38.133 57.25 38.133 60 39 C62.062 41.555 62.062 41.555 64 44.875 C64.513 45.748 64.513 45.748 65.036 46.639 C76.879 67.183 81.097 90.818 75 114.062 C69.381 133.595 59.499 148.449 41.781 158.898 C39.208 160.311 36.624 161.683 34 163 C34 163.33 34 163.66 34 164 C44.022 164.023 54.045 164.041 64.067 164.052 C68.72 164.057 73.373 164.064 78.027 164.075 C82.513 164.086 87 164.092 91.487 164.095 C93.203 164.097 94.918 164.1 96.634 164.106 C99.029 164.113 101.423 164.114 103.818 164.114 C104.535 164.117 105.251 164.121 105.989 164.124 C109.276 164.402 109.276 164.402 112 163 C112.098 161.332 112.126 159.66 112.127 157.989 C112.13 156.904 112.133 155.818 112.136 154.7 C112.134 153.499 112.131 152.298 112.129 151.061 C112.131 149.804 112.133 148.547 112.135 147.252 C112.139 143.796 112.137 140.339 112.134 136.883 C112.132 133.273 112.134 129.663 112.136 126.054 C112.138 119.991 112.135 113.928 112.13 107.865 C112.125 100.845 112.127 93.826 112.132 86.807 C112.137 80.791 112.137 74.775 112.135 68.759 C112.133 65.161 112.133 61.563 112.136 57.965 C112.14 53.957 112.135 49.948 112.129 45.939 C112.132 44.138 112.132 44.138 112.136 42.3 C112.133 41.214 112.13 40.129 112.127 39.011 C112.127 38.062 112.126 37.113 112.126 36.135 C112.238 34.017 112.238 34.017 111 33 C109.009 32.95 107.016 32.97 105.025 33.017 C103.741 33.042 102.457 33.067 101.135 33.093 C100.442 33.108 99.749 33.122 99.035 33.137 C94.545 33.218 90.054 33.229 85.563 33.252 C81.643 33.276 77.727 33.323 73.808 33.428 C53.223 33.957 38.861 32.42 21.629 19.847 C17.031 16.616 12.129 13.904 7.25 11.125 C5.546 10.13 3.842 9.133 2.141 8.133 C-2.61 5.35 -5.773 5.596 -10.535 8.238 Z " fill="#111112" transform="translate(733,195)"/>
<path d="M0 0 C0.969 0.309 1.939 0.619 2.938 0.938 C5.73 1.746 7.977 2.078 10.938 2.312 C24.636 3.746 37.831 10.17 50.503 15.253 C51.673 15.722 52.842 16.19 54.047 16.672 C55.097 17.096 56.147 17.519 57.229 17.956 C62.212 19.833 66.152 20.026 71.5 20.062 C78.232 20.351 78.232 20.351 80.766 22.492 C81.855 24.644 82.441 26.655 83 29 C83.277 29.712 83.554 30.423 83.84 31.156 C85.887 36.665 86.303 42.037 86.582 47.848 C86.624 48.633 86.666 49.419 86.709 50.229 C86.81 52.152 86.906 54.076 87 56 C85.765 56.015 84.531 56.029 83.259 56.044 C78.62 56.103 73.981 56.18 69.343 56.262 C67.346 56.295 65.349 56.324 63.352 56.346 C38.208 56.493 38.208 56.493 17 68.875 C12.535 72.038 8.304 71.425 3 71 C5.527 63.512 11.573 57.42 18.062 53.062 C19.032 52.382 20.001 51.701 21 51 C21 50.01 21 49.02 21 48 C16.431 48.49 14.26 50.148 10.938 53.25 C10.101 54.018 9.264 54.787 8.402 55.578 C4.793 59.217 2.081 62.7 -0.125 67.312 C-1.363 69.395 -1.363 69.395 -3 71 C-6.428 71.69 -9.553 71.482 -13 71 C-9.694 61.868 -3.631 54.077 3.434 47.523 C5.104 46.066 5.104 46.066 6 44 C-1.747 44.989 -5.369 50.086 -10 56 C-12.106 58.939 -14.104 61.921 -16 65 C-17.32 64.67 -18.64 64.34 -20 64 C-20.326 59.202 -19.554 56.501 -17.125 52.375 C-16.591 51.455 -16.058 50.534 -15.508 49.586 C-15.01 48.733 -14.513 47.879 -14 47 C-13.714 46.238 -13.428 45.476 -13.133 44.691 C-12.759 44.133 -12.385 43.575 -12 43 C-9.672 42.566 -9.672 42.566 -6.75 42.562 C-0.14 42.258 5.069 40.433 11.164 38.059 C14 37 14 37 16 37 C15.67 36.01 15.34 35.02 15 34 C11.095 34.411 8.07 35.405 4.562 37.062 C-4.985 40.988 -15.279 39.924 -24.73 36.266 C-27.337 34.812 -29.094 33.295 -31 31 C-31 30.01 -31 29.02 -31 28 C-30.307 27.996 -29.613 27.992 -28.899 27.988 C-14.081 27.834 -1.068 26.632 13 22 C14.66 21.635 16.324 21.285 18 21 C17.505 19.515 17.505 19.515 17 18 C11.822 18.439 7.082 19.212 2.062 20.562 C-6.253 22.597 -14.504 22.257 -23 22 C-22.67 21.01 -22.34 20.02 -22 19 C-19.664 17.938 -19.664 17.938 -16.625 17 C-14.995 16.491 -14.995 16.491 -13.332 15.973 C-9.441 14.837 -5.537 13.765 -1.621 12.719 C0.979 12.006 3.555 11.25 6.125 10.438 C6.849 10.209 7.574 9.981 8.32 9.746 C10.204 9.123 10.204 9.123 11 7 C10.374 6.83 9.747 6.66 9.102 6.484 C8.284 6.242 7.467 6 6.625 5.75 C5.407 5.402 5.407 5.402 4.164 5.047 C1.542 3.779 1.006 2.676 0 0 Z " fill="#FEFEFE" transform="translate(398,746)"/>
<path d="M0 0 C0.712 0.006 1.423 0.011 2.156 0.017 C11.564 0.234 18.383 2.85 25.25 9.312 C32.244 17.119 34.872 23.027 34.684 33.605 C33.609 42.794 28.8 49.998 21.641 55.688 C12.7 61.765 2.842 62.959 -7.75 61.312 C-17.681 58.19 -24.892 52.366 -29.688 43.188 C-32.619 36.087 -33.25 28.871 -30.828 21.512 C-26.3 11.824 -19.974 5.881 -10.488 1.195 C-6.977 0.063 -3.651 -0.03 0 0 Z " fill="#FEFEFE" transform="translate(311.75,243.6875)"/>
<path d="M0 0 C1.055 -0.012 2.11 -0.023 3.197 -0.035 C13.456 0.003 22.453 2.33 31.562 7 C32.243 7.348 32.924 7.695 33.625 8.054 C48.713 16.034 59.999 28.648 66.562 44.375 C66.902 45.125 67.241 45.875 67.59 46.648 C72.279 58.965 70.693 74.079 66.039 86.117 C59.198 101.212 48.934 112.065 35.047 120.992 C30.629 125.229 28.364 130.939 25.668 136.373 C25.21 137.254 24.753 138.135 24.281 139.043 C23.878 139.85 23.476 140.657 23.061 141.489 C21.562 143.375 21.562 143.375 19.061 144.261 C15.199 144.437 13.707 142.393 10.875 139.875 C1.437 132.023 -9.827 128.529 -21.562 125.438 C-40.119 120.326 -54.824 109.492 -64.898 92.98 C-71.656 80.578 -72.698 64.179 -68.875 50.625 C-61.868 31.13 -48.87 16.513 -30.5 7.125 C-29.534 6.63 -29.534 6.63 -28.548 6.126 C-19.078 1.494 -10.528 -0.115 0 0 Z M-52.688 32.125 C-60.36 42.08 -64.845 53.699 -64.688 66.25 C-64.679 67.049 -64.67 67.849 -64.66 68.672 C-64.379 82.948 -58.973 93.539 -49.074 103.992 C-38.702 113.365 -26.528 118.417 -13.182 122.14 C-3.471 124.855 6.43 128.051 14.266 134.652 C15.024 135.221 15.782 135.789 16.562 136.375 C19.872 135.645 19.872 135.645 21.324 132.242 C21.97 130.913 22.611 129.582 23.25 128.25 C26.476 121.882 29.676 117.551 35.562 113.375 C48.93 103.199 60.302 91.651 63.562 74.375 C64.771 63.653 64.578 53.111 59.562 43.375 C58.909 41.996 58.909 41.996 58.242 40.59 C50.769 25.745 38.083 15.177 22.562 9.375 C21.939 9.118 21.315 8.86 20.672 8.595 C14.112 6.092 7.911 5.835 0.938 5.875 C-0.212 5.881 -1.362 5.886 -2.547 5.892 C-23.362 6.328 -39.348 16.507 -52.688 32.125 Z " fill="#111112" transform="translate(312.4375,210.625)"/>
<path d="M0 0 C2.754 0.573 3.997 0.998 6.25 2.812 C8.959 7.747 8.624 12.491 8 18 C7.316 20.312 7.316 20.312 6.5 22.312 C4.906 26.23 4.59 28.816 5 33 C5.66 33.99 6.32 34.98 7 36 C12.232 35.519 15.86 33.539 20.188 30.75 C28.725 25.457 36.763 20.579 47 20 C47.612 24.08 47.017 26.465 44.688 29.75 C38.715 37.109 31.551 43.82 23 48 C23 49.32 23 50.64 23 52 C29.239 51.539 33.696 50.057 39.188 47.125 C39.873 46.773 40.558 46.421 41.264 46.059 C44.184 44.546 47.016 42.99 49.812 41.254 C52.395 39.773 54.07 39.749 57 40 C57.875 42 57.875 42 58 45 C53.775 53.594 44.583 59.352 36 63 C35.34 63 34.68 63 34 63 C34 64.32 34 65.64 34 67 C38.229 65.675 42.26 64.392 46.188 62.312 C49.357 60.834 51.544 60.753 55 61 C54.18 66.903 51.279 70.033 47 74 C42.478 77.365 37.795 79.98 32.023 79.535 C16.611 75.459 4.502 55.691 -3.259 42.93 C-6.815 36.737 -9.806 31.365 -9 24 C-7.539 21.113 -7.539 21.113 -5.625 18.312 C-1.878 12.325 -0.607 6.981 0 0 Z " fill="#FEFEFE" transform="translate(240,670)"/>
<path d="M0 0 C2.955 3.543 5.404 7.155 7.75 11.125 C8.126 11.758 8.502 12.39 8.889 13.042 C10.263 15.359 11.632 17.679 13 20 C15.498 24.23 17.999 28.459 20.5 32.688 C20.838 33.259 21.176 33.831 21.524 34.42 C27.242 44.09 33.054 53.699 38.903 63.289 C43.273 70.456 47.58 77.652 51.75 84.938 C55.375 91.27 59.134 97.5 63 103.688 C70.761 116.113 78.187 128.735 85.646 141.342 C88.991 146.992 92.364 152.625 95.75 158.25 C99.892 165.134 103.984 172.042 108 179 C104.888 180.844 102.605 181.699 99 181 C97.251 179.07 96.03 177.385 94.688 175.188 C94.272 174.537 93.857 173.887 93.429 173.217 C88.474 165.362 83.801 157.326 79.096 149.319 C74.985 142.324 70.802 135.381 66.5 128.5 C61.218 120.042 56.11 111.487 51.044 102.898 C45.144 92.898 39.139 82.967 33.086 73.059 C30.259 68.43 27.462 63.785 24.682 59.128 C22.14 54.878 19.569 50.648 16.988 46.422 C13.294 40.372 9.619 34.312 5.958 28.242 C4.75 26.242 3.538 24.244 2.319 22.25 C0.965 20.031 -0.365 17.8 -1.688 15.562 C-2.068 14.95 -2.448 14.337 -2.84 13.705 C-4.495 10.844 -5.126 9.504 -4.309 6.234 C-3.009 4.015 -1.624 1.993 0 0 Z " fill="#FEFEFE" transform="translate(285,575)"/>
<path d="M0 0 C6.573 6.796 10.46 15.994 13 25 C13.296 25.946 13.593 26.892 13.898 27.867 C17.348 40.306 16.585 53.32 15 66 C6.09 66 -2.82 66 -12 66 C-12.004 63.1 -12.004 63.1 -12.008 60.141 C-12.199 43.076 -13.7 27.94 -20.695 12.137 C-22 9 -22 9 -22 6.25 C-20.629 3.164 -19.022 2.406 -16 1 C-10.596 -0.549 -5.49 -1.626 0 0 Z " fill="#FEFEFE" transform="translate(503,751)"/>
<path d="M0 0 C0.99 0.33 1.98 0.66 3 1 C2.76 6.432 2.032 11.313 0.195 16.445 C-2.196 23.418 -4.06 30.484 -5.875 37.625 C-6.131 38.628 -6.131 38.628 -6.392 39.651 C-11.117 58.157 -15.791 76.63 -18.457 95.562 C-19 99 -19 99 -20 101 C-20.485 103.962 -20.928 106.918 -21.34 109.891 C-21.467 110.787 -21.594 111.683 -21.725 112.606 C-22.132 115.487 -22.535 118.369 -22.938 121.25 C-23.205 123.146 -23.472 125.042 -23.74 126.938 C-24.261 130.625 -24.779 134.314 -25.295 138.002 C-25.873 142.123 -26.481 146.239 -27.094 150.355 C-28.076 157.222 -28.755 164.108 -29.378 171.014 C-29.563 173.065 -29.753 175.116 -29.943 177.166 C-30.63 184.613 -31.23 192.053 -31.636 199.521 C-32 202 -32 202 -34 204 C-35.32 204 -36.64 204 -38 204 C-38.231 192.228 -37.735 180.727 -36.456 169.023 C-36.188 166.568 -35.936 164.111 -35.686 161.654 C-34.66 151.815 -33.289 142.067 -31.694 132.305 C-30.651 125.912 -29.83 119.492 -29.008 113.068 C-28.889 112.168 -28.771 111.268 -28.648 110.34 C-28.547 109.55 -28.446 108.759 -28.341 107.945 C-28 106 -28 106 -27 104 C-26.563 101.291 -26.159 98.583 -25.77 95.867 C-24.157 85.196 -21.845 74.721 -19.404 64.212 C-18.69 61.137 -17.99 58.059 -17.291 54.98 C-6.091 6.091 -6.091 6.091 0 0 Z " fill="#111112" transform="translate(501,550)"/>
<path d="M0 0 C5.174 1.925 7.733 6.16 10 11 C10.614 14.062 10.59 16.981 10.488 20.094 C10.481 20.926 10.474 21.758 10.467 22.615 C10.439 25.245 10.376 27.871 10.312 30.5 C10.287 32.294 10.265 34.089 10.244 35.883 C10.189 40.256 10.103 44.628 10 49 C8.02 49.495 8.02 49.495 6 50 C5.732 49.481 5.464 48.961 5.188 48.426 C0.102 39.376 -6.636 36.989 -16.227 33.957 C-22.33 31.851 -26.067 28.754 -29 23 C-29.609 18.734 -29.305 16.611 -27.375 12.75 C-24.399 9.304 -21.453 7.446 -16.938 6.625 C-13.872 5.636 -12.18 3.295 -10 1 C-6.797 -0.602 -3.483 -0.35 0 0 Z " fill="#111112" transform="translate(727,455)"/>
<path d="M0 0 C5.61 0 11.22 0 17 0 C17.495 2.97 17.495 2.97 18 6 C29.22 6 40.44 6 52 6 C52.495 7.98 52.495 7.98 53 10 C52 11 52 11 48.398 11.114 C46.795 11.113 45.193 11.108 43.59 11.098 C42.748 11.096 41.906 11.095 41.038 11.093 C38.338 11.088 35.638 11.075 32.938 11.062 C31.111 11.057 29.285 11.053 27.459 11.049 C22.973 11.038 18.486 11.021 14 11 C13.505 8.03 13.505 8.03 13 5 C10.36 5 7.72 5 5 5 C4.867 6.204 4.734 7.408 4.598 8.648 C4.419 10.224 4.241 11.8 4.062 13.375 C3.975 14.169 3.888 14.963 3.799 15.781 C3.113 21.773 3.113 21.773 2 24 C-8.56 24 -19.12 24 -30 24 C-24.326 32.511 -17.839 36.794 -8.875 41.375 C-8.206 41.721 -7.538 42.067 -6.849 42.423 C-2.582 44.523 1.164 46.005 6 46 C9.308 44.87 12.27 43.271 15.312 41.562 C16.15 41.108 16.988 40.654 17.852 40.186 C23.419 37.095 28.354 33.768 33.09 29.496 C35.094 27.927 36.512 27.406 39 27 C39.707 28.758 39.707 28.758 40 31 C35.669 37.425 28.682 41.424 22 45 C20.867 45.636 19.734 46.271 18.566 46.926 C17.358 47.578 16.148 48.228 14.938 48.875 C13.833 49.471 12.728 50.066 11.59 50.68 C5.718 52.839 0.619 52.874 -5.211 50.531 C-6.609 49.876 -7.997 49.198 -9.375 48.5 C-10.108 48.141 -10.841 47.781 -11.597 47.411 C-20.023 43.161 -28.787 38.089 -34 30 C-34 28.35 -34 26.7 -34 25 C-37.3 25 -40.6 25 -44 25 C-44.382 23.344 -44.714 21.675 -45 20 C-44 19 -44 19 -40.031 18.886 C-38.259 18.887 -36.487 18.892 -34.715 18.902 C-33.784 18.904 -32.853 18.905 -31.894 18.907 C-28.909 18.912 -25.923 18.925 -22.938 18.938 C-20.919 18.943 -18.9 18.947 -16.881 18.951 C-11.921 18.961 -6.96 18.981 -2 19 C-1.34 12.73 -0.68 6.46 0 0 Z " fill="#111112" transform="translate(718,275)"/>
<path d="M0 0 C0.712 0.006 1.423 0.011 2.156 0.017 C11.564 0.234 18.383 2.85 25.25 9.312 C32.244 17.119 34.872 23.027 34.684 33.605 C33.609 42.794 28.8 49.998 21.641 55.688 C12.7 61.765 2.842 62.959 -7.75 61.312 C-17.681 58.19 -24.892 52.366 -29.688 43.188 C-32.619 36.087 -33.25 28.871 -30.828 21.512 C-26.3 11.824 -19.974 5.881 -10.488 1.195 C-6.977 0.063 -3.651 -0.03 0 0 Z M-14.75 10.312 C-15.802 11.034 -16.854 11.756 -17.938 12.5 C-23.676 18.238 -26.059 23.174 -26.375 31.375 C-26.02 40.062 -23.055 44.33 -16.875 50.125 C-10.502 55.313 -4.969 56.901 3.191 56.656 C11.761 55.693 18.549 51.71 24.25 45.312 C28.895 39.237 29.071 32.729 28.25 25.312 C26.322 18.507 22.027 13.093 16.355 8.918 C7.393 4.068 -6.499 4.179 -14.75 10.312 Z " fill="#111112" transform="translate(311.75,243.6875)"/>
<path d="M0 0 C0.22 1.251 0.22 1.251 0.445 2.527 C2.608 13.379 6.066 20.443 15.168 26.906 C19.156 29.287 22.649 29.104 27.188 29.062 C28.46 29.053 29.732 29.044 31.043 29.035 C32.019 29.024 32.995 29.012 34 29 C31.114 32.192 28.506 33.93 24.562 35.625 C23.636 36.03 22.709 36.435 21.754 36.852 C20.845 37.231 19.936 37.61 19 38 C18.184 38.358 17.368 38.717 16.527 39.086 C11.193 41.015 5.75 41.232 0.125 41.312 C-0.544 41.342 -1.213 41.371 -1.902 41.4 C-7.425 41.47 -11.281 39.784 -16 37 C-16.035 32.582 -15.994 28.168 -15.938 23.75 C-15.954 21.869 -15.954 21.869 -15.971 19.949 C-15.801 10.884 -15.801 10.884 -13.516 8.362 C-11.684 7.344 -11.684 7.344 -8 6 C-5.859 4.372 -5.859 4.372 -4.125 2.75 C-1.089 0 -1.089 0 0 0 Z " fill="#FEFEFE" transform="translate(514,478)"/>
<path d="M0 0 C1.355 1.311 2.687 2.647 4 4 C6.137 4.539 6.137 4.539 8.5 4.875 C12.158 5.568 12.85 5.843 15.562 8.688 C17.243 12.559 17.597 14.821 17 19 C14.748 23.337 12.577 26.169 8 28 C3.97 28.751 0.588 28.832 -3.102 26.898 C-6.473 24.304 -7.844 22.453 -9.25 18.375 C-9 15 -9 15 -6.75 12.625 C-4 11 -4 11 -1 10 C-1.33 9.01 -1.66 8.02 -2 7 C-4.331 6.581 -4.331 6.581 -7 7 C-10.484 10.331 -11.473 12.968 -11.707 17.771 C-11.721 18.445 -11.735 19.119 -11.75 19.812 C-11.78 20.505 -11.809 21.198 -11.84 21.912 C-11.91 23.607 -11.957 25.304 -12 27 C-13.65 27 -15.3 27 -17 27 C-17.109 24.291 -17.188 21.586 -17.25 18.875 C-17.284 18.114 -17.317 17.354 -17.352 16.57 C-17.466 9.935 -15.33 6.459 -10.75 1.625 C-6.783 -0.719 -4.58 -0.582 0 0 Z " fill="#111112" transform="translate(783,453)"/>
<path d="M0 0 C11.55 0 23.1 0 35 0 C34.67 1.65 34.34 3.3 34 5 C31.69 5.33 29.38 5.66 27 6 C27 10.29 27 14.58 27 19 C28.65 18.01 30.3 17.02 32 16 C32.99 15.67 33.98 15.34 35 15 C34.75 18.375 34.75 18.375 34 22 C31.203 24.298 28.525 24.271 25 24 C24.01 23.67 23.02 23.34 22 23 C21.01 23.33 20.02 23.66 19 24 C14.385 24.527 11.04 24.628 7 22.188 C3.844 18.735 3.732 15.587 3.766 11.008 C4.097 8.165 5.305 6.26 7 4 C4.69 4 2.38 4 0 4 C0 2.68 0 1.36 0 0 Z " fill="#060606" transform="translate(295,265)"/>
<path d="M0 0 C-3.643 1.214 -4.434 0.347 -7.75 -1.171 C-16.919 -4.55 -27.421 -4.364 -37.062 -4.375 C-38.827 -4.412 -38.827 -4.412 -40.627 -4.449 C-57.808 -4.506 -71.401 2.824 -84 14 C-84.626 14.543 -85.253 15.085 -85.898 15.645 C-95.855 24.877 -107.439 40.794 -108.203 54.695 C-108.341 62.723 -108.267 69.514 -105 77 C-109.464 74.225 -111.098 71.511 -112.492 66.613 C-115.305 52.141 -109.956 39.868 -102 28 C-89.952 10.879 -74.194 -3.776 -53.214 -8.625 C-35.436 -11.636 -15.525 -9.243 0 0 Z " fill="#E5E6E7" transform="translate(474,300)"/>
<path d="M0 0 C0.66 0 1.32 0 2 0 C4.12 4.239 3.186 9.866 3.185 14.572 C3.187 16.635 3.205 18.697 3.225 20.76 C3.258 28.849 2.709 36.58 1.486 44.59 C0.837 49.146 0.529 53.702 0.246 58.293 C0 61 0 61 -0.503 62.802 C-1.619 67.737 -1.228 72.964 -1.25 78 C-1.271 79.169 -1.291 80.338 -1.312 81.543 C-1.366 93.679 0.515 107.308 9.324 116.398 C11.498 118.344 13.7 120.206 16 122 C13 123 13 123 10.73 121.883 C1.309 115.371 -4.431 107.351 -6.559 96.027 C-8.814 78.936 -7.116 61.454 -3.249 44.759 C-1.096 34.974 -0.466 25.562 -0.312 15.562 C-0.279 14.041 -0.245 12.52 -0.209 10.998 C-0.125 7.332 -0.058 3.666 0 0 Z " fill="#E5E6E7" transform="translate(396,386)"/>
<path d="M0 0 C-1.293 2.884 -2.511 5.02 -5 7 C-7.014 7.129 -7.014 7.129 -9.324 6.777 C-10.18 6.653 -11.036 6.528 -11.918 6.4 C-12.832 6.247 -13.746 6.095 -14.688 5.938 C-15.629 5.793 -16.571 5.648 -17.541 5.499 C-23.262 4.578 -28.846 3.384 -34.438 1.875 C-41.682 -0.072 -48.506 -0.766 -56 -1 C-43.438 -17.996 -16.005 -6.423 0 0 Z " fill="#F3F3F4" transform="translate(221,568)"/>
<path d="M0 0 C-0.662 3.551 -1.575 6.675 -3 10 C-3.664 9.795 -4.328 9.59 -5.012 9.379 C-5.895 9.109 -6.778 8.84 -7.688 8.562 C-8.558 8.296 -9.428 8.029 -10.324 7.754 C-16.723 5.951 -22.698 5.808 -29.312 5.812 C-30.376 5.812 -31.439 5.811 -32.535 5.811 C-41.161 5.868 -49.49 6.598 -58 8 C-55.812 3.609 -53.699 1.884 -49.312 -0.25 C-48.319 -0.75 -47.325 -1.25 -46.301 -1.766 C-32.546 -6.909 -13.34 -5.638 0 0 Z " fill="#FEFEFE" transform="translate(280,571)"/>
<path d="M0 0 C1.934 -0.039 1.934 -0.039 3.906 -0.078 C7.698 0.268 9.394 1.172 12.5 3.25 C13.49 3.25 14.48 3.25 15.5 3.25 C15.83 2.26 16.16 1.27 16.5 0.25 C22.569 -0.003 27.662 0.552 33.5 2.25 C33.5 4.56 33.5 6.87 33.5 9.25 C13.04 9.25 -7.42 9.25 -28.5 9.25 C-24.697 5.447 -23.404 4.558 -18.562 3.062 C-17.033 2.577 -17.033 2.577 -15.473 2.082 C-10.216 0.611 -5.478 0.066 0 0 Z " fill="#F3F3F4" transform="translate(450.5,807.75)"/>
<path d="M0 0 C6.283 3.382 12.901 8.08 17 14 C16.711 16.242 16.711 16.242 16 18 C13.812 17.875 13.812 17.875 11 17 C9.787 15.557 8.578 14.109 7.426 12.617 C1.759 6.19 -7.866 2.69 -16.137 1.578 C-25.584 1.168 -34.395 3.254 -41.828 9.301 C-43.489 10.86 -45.113 12.46 -46.684 14.109 C-49.459 16.375 -51.476 16.696 -55 17 C-55 12.34 -54.502 11.888 -51.375 8.688 C-37.571 -4.611 -17.378 -8.278 0 0 Z " fill="#060606" transform="translate(742,256)"/>
<path d="M0 0 C1.812 0.125 1.812 0.125 4 1 C7.4 6.16 7.386 10.573 7.258 16.52 C7.251 17.419 7.245 18.318 7.238 19.244 C7.214 22.101 7.171 24.956 7.125 27.812 C7.09 30.686 7.059 33.56 7.034 36.434 C7.017 38.219 6.993 40.005 6.964 41.79 C6.938 43.86 6.964 45.93 7 48 C7.33 48.33 7.66 48.66 8 49 C9.65 49 11.3 49 13 49 C13.33 42.73 13.66 36.46 14 30 C15.65 30.33 17.3 30.66 19 31 C19.081 33.896 19.141 36.791 19.188 39.688 C19.213 40.504 19.238 41.321 19.264 42.162 C19.322 46.943 19.161 50.146 16 54 C12.459 56.361 11.172 56.573 7 56 C4.074 54.178 1.565 52.13 0 49 C-0.147 44.364 -0.02 39.917 0.5 35.312 C1.083 29.459 1.113 23.627 1.125 17.75 C1.13 16.803 1.134 15.856 1.139 14.88 C1.128 9.812 0.869 4.995 0 0 Z " fill="#111112" transform="translate(444,388)"/>
<path d="M0 0 C4.112 0.74 5.524 2.367 8.125 5.562 C9.145 8.622 9.24 10.687 9.223 13.887 C9.219 14.915 9.216 15.943 9.213 17.002 C9.205 18.074 9.196 19.146 9.188 20.25 C9.183 21.333 9.178 22.417 9.174 23.533 C9.162 26.21 9.146 28.886 9.125 31.562 C8 30.965 8 30.965 6.852 30.355 C1.888 27.786 -2.829 25.421 -8.25 24 C-12.946 22.69 -15.656 21.29 -18.875 17.562 C-19.438 13.875 -19.438 13.875 -18.875 10.562 C-15.875 8.562 -15.875 8.562 -12.875 8.562 C-12.401 9.532 -11.926 10.501 -11.438 11.5 C-10.173 14.367 -10.173 14.367 -8.875 15.562 C-5.417 15.813 -5.417 15.813 -1.875 15.562 C0.314 13.738 0.314 13.738 0.625 11.188 C0.36 8.214 0.36 8.214 -2.875 6.25 C-3.865 5.693 -4.855 5.136 -5.875 4.562 C-4.187 1.562 -3.448 0.675 0 0 Z " fill="#F3F3F4" transform="translate(722.875,460.4375)"/>
<path d="M0 0 C-0.125 2.188 -0.125 2.188 -1 5 C-2.401 6.168 -3.809 7.329 -5.254 8.441 C-14.213 16.439 -18.527 28.849 -22 40 C-23.656 40.382 -25.325 40.714 -27 41 C-27.33 40.67 -27.66 40.34 -28 40 C-27.439 25.124 -18.288 11.711 -7.918 1.68 C-4.896 -0.967 -3.764 -1.129 0 0 Z " fill="#111112" transform="translate(283,459)"/>
<path d="M0 0 C1.32 0 2.64 0 4 0 C3.731 6.448 1.535 10.415 -3 15 C-8.325 19.321 -14.176 19.651 -20.855 19.473 C-25.399 18.79 -28.529 16.936 -32 14 C-31.67 12.35 -31.34 10.7 -31 9 C-28.449 9.472 -26.952 10.035 -24.812 11.562 C-20.83 13.598 -17.391 13.566 -13 13 C-7.165 10.908 -4.37 7.568 -1.5 2.188 C-1.005 1.466 -0.51 0.744 0 0 Z " fill="#111112" transform="translate(483,443)"/>
<path d="M0 0 C0.99 0 1.98 0 3 0 C3.29 5.597 3.185 9.168 0 14 C-4.835 18.363 -7.967 19.47 -14.387 19.414 C-18.757 18.722 -21.269 16.36 -24 13 C-25.922 9.574 -26.223 6.897 -26 3 C-25.01 3 -24.02 3 -23 3 C-21.719 4.68 -21.719 4.68 -20.5 6.875 C-18.787 9.938 -18.03 10.98 -15 13 C-11.373 13.473 -9.525 13.293 -6.312 11.5 C-3.705 8.681 -2.73 6.315 -1.578 2.707 C-1 1 -1 1 0 0 Z " fill="#111112" transform="translate(488,395)"/>
<path d="M0 0 C-1 2 -1 2 -4.062 3.062 C-12.327 6.432 -17.462 15.728 -22 23 C-23.32 22.67 -24.64 22.34 -26 22 C-26.326 17.202 -25.554 14.501 -23.125 10.375 C-22.591 9.455 -22.058 8.534 -21.508 7.586 C-20.761 6.306 -20.761 6.306 -20 5 C-19.729 4.243 -19.459 3.487 -19.18 2.707 C-18 1 -18 1 -15.25 0.426 C-14.178 0.388 -13.105 0.351 -12 0.312 C-0.562 -0.169 -0.562 -0.169 0 0 Z " fill="#E5E6E7" transform="translate(404,788)"/>
<path d="M0 0 C3.875 0.875 3.875 0.875 5 2 C5.454 6.224 5.443 9.928 3.812 13.875 C1.652 16.408 0.097 17.733 -3 19 C-6.565 19.13 -8.855 18.866 -11.746 16.68 C-16.065 12.226 -16.972 8.094 -17 2 C-15.117 2.25 -15.117 2.25 -13 3 C-11.945 4.812 -11.945 4.812 -11.125 7 C-10.216 9.177 -10.216 9.177 -9 11 C-5.879 12.135 -5.879 12.135 -3 12 C-0.609 8.175 -0.44 4.403 0 0 Z " fill="#111112" transform="translate(438,401)"/>
<path d="M0 0 C1.32 0.33 2.64 0.66 4 1 C3.34 10.24 2.68 19.48 2 29 C0.35 29.33 -1.3 29.66 -3 30 C-5.334 27.666 -4.233 22.005 -4.25 18.875 C-4.271 17.937 -4.291 16.998 -4.312 16.031 C-4.345 10.219 -3.759 6.142 -1 1 C-0.67 0.67 -0.34 0.34 0 0 Z " fill="#060606" transform="translate(236,468)"/>
<path d="M0 0 C1.391 0 2.782 0.006 4.174 0.016 C4.905 0.017 5.636 0.019 6.389 0.02 C8.733 0.026 11.076 0.038 13.42 0.051 C15.005 0.056 16.59 0.061 18.176 0.065 C22.069 0.076 25.963 0.093 29.857 0.114 C29.857 1.764 29.857 3.414 29.857 5.114 C18.967 5.114 8.077 5.114 -3.143 5.114 C-3.473 3.794 -3.803 2.474 -4.143 1.114 C-3.143 0.114 -3.143 0.114 0 0 Z " fill="#111112" transform="translate(741.142822265625,293.886474609375)"/>
<path d="M0 0 C1.349 0 2.698 0.006 4.047 0.016 C5.11 0.018 5.11 0.018 6.195 0.02 C8.467 0.026 10.739 0.038 13.011 0.051 C14.549 0.056 16.086 0.061 17.623 0.065 C21.398 0.076 25.174 0.093 28.949 0.114 C29.511 2.051 29.511 2.051 29.949 4.114 C28.949 5.114 28.949 5.114 25.898 5.227 C24.549 5.227 23.2 5.221 21.851 5.211 C20.788 5.209 20.788 5.209 19.703 5.207 C17.431 5.201 15.159 5.189 12.886 5.176 C11.349 5.171 9.812 5.166 8.275 5.162 C4.5 5.151 0.724 5.134 -3.051 5.114 C-3.614 3.176 -3.614 3.176 -4.051 1.114 C-3.051 0.114 -3.051 0.114 0 0 Z " fill="#060606" transform="translate(672.051025390625,280.886474609375)"/>
<path d="M0 0 C2.919 1.211 3.657 2.886 5.195 5.609 C5.693 6.47 6.19 7.332 6.703 8.219 C9.118 12.883 10.555 15.665 9.07 20.859 C7.75 21.189 6.43 21.519 5.07 21.859 C3.747 19.49 2.437 17.115 1.133 14.734 C0.76 14.069 0.386 13.404 0.002 12.719 C-2.155 8.755 -3.481 5.427 -3.93 0.859 C-1.93 -0.141 -1.93 -0.141 0 0 Z " fill="#111112" transform="translate(207.9296875,480.140625)"/>
<path d="M0 0 C3.25 2 3.25 2 5 4 C4.67 5.32 4.34 6.64 4 8 C-0.75 7.125 -0.75 7.125 -3 6 C-8.157 5.611 -10.714 6.22 -15 9 C-16.32 9 -17.64 9 -19 9 C-18.805 5.491 -18.204 4.204 -15.688 1.688 C-10.956 -1.126 -5.283 -0.768 0 0 Z " fill="#111112" transform="translate(437,378)"/>
<path d="M0 0 C0.081 1.603 0.139 3.208 0.188 4.812 C0.222 5.706 0.257 6.599 0.293 7.52 C0 10 0 10 -1.32 11.801 C-3.908 13.648 -5.922 13.393 -9 13 C-11.463 9.305 -11.39 7.367 -11 3 C-8.765 -1.331 -4.261 -0.21 0 0 Z " fill="#FEFEFE" transform="translate(316,271)"/>
<path d="M0 0 C0.66 0 1.32 0 2 0 C3.448 2.896 3.13 5.427 3.133 8.66 C3.134 9.324 3.135 9.988 3.136 10.672 C3.136 12.082 3.135 13.491 3.13 14.901 C3.125 17.03 3.13 19.158 3.137 21.287 C3.14 28.262 2.971 35.086 2 42 C1.67 42 1.34 42 1 42 C0.67 40.35 0.34 38.7 0 37 C-0.66 37.99 -1.32 38.98 -2 40 C-1.842 39.008 -1.683 38.016 -1.52 36.994 C-0.956 33.036 -0.781 29.091 -0.684 25.098 C-0.663 24.375 -0.642 23.653 -0.621 22.908 C-0.556 20.626 -0.497 18.344 -0.438 16.062 C-0.394 14.505 -0.351 12.947 -0.307 11.389 C-0.2 7.593 -0.099 3.796 0 0 Z " fill="#C5C5C6" transform="translate(396,386)"/>
<path d="M0 0 C2.324 0.312 2.324 0.312 3.324 1.312 C3.746 5.027 3.556 6.902 1.699 10.188 C-0.676 12.312 -0.676 12.312 -3.738 12.875 C-6.676 12.312 -6.676 12.312 -8.359 10.277 C-8.794 9.629 -9.228 8.981 -9.676 8.312 C-8.632 6.965 -7.565 5.635 -6.488 4.312 C-5.897 3.57 -5.305 2.827 -4.695 2.062 C-2.676 0.312 -2.676 0.312 0 0 Z " fill="#F3F3F4" transform="translate(790.67578125,463.6875)"/>
<path d="M0 0 C0.722 0.124 1.444 0.248 2.188 0.375 C2.847 1.695 3.508 3.015 4.188 4.375 C3.633 4.69 3.079 5.004 2.508 5.328 C1.783 5.756 1.059 6.184 0.312 6.625 C-0.407 7.043 -1.126 7.46 -1.867 7.891 C-5.26 10.48 -5.747 12.981 -6.438 17.125 C-6.561 18.197 -6.685 19.27 -6.812 20.375 C-7.143 20.375 -7.472 20.375 -7.812 20.375 C-8.673 6.424 -8.673 6.424 -5.625 2.5 C-2.812 0.375 -2.812 0.375 0 0 Z " fill="#E5E6E7" transform="translate(778.8125,458.625)"/>
<path d="M0 0 C-3.674 4.153 -8.224 7.234 -13 10 C-13.66 10 -14.32 10 -15 10 C-14.816 5.959 -14.456 4.423 -11.438 1.625 C-7.175 -0.39 -4.655 -0.321 0 0 Z " fill="#111112" transform="translate(543,387)"/>
<path d="M0 0 C6.519 1.423 12.048 3.785 17.871 7.031 C14.247 8.239 13.472 7.414 10.188 5.867 C5.295 4.101 0.01 3.688 -5.129 3.031 C-2.756 0.04 -2.756 0.04 0 0 Z " fill="#DCDCDC" transform="translate(456.12890625,292.96875)"/>
<path d="M0 0 C0.66 0 1.32 0 2 0 C6.424 5.807 6.441 10.802 6.434 17.988 C6.219 19.479 6.219 19.479 6 21 C5.01 21.66 4.02 22.32 3 23 C3.035 22.178 3.07 21.355 3.105 20.508 C3.285 13.085 2.637 6.953 0 0 Z " fill="#E5E6E7" transform="translate(579,454)"/>
<path d="M0 0 C1.936 -0.108 3.874 -0.186 5.812 -0.25 C7.431 -0.32 7.431 -0.32 9.082 -0.391 C10.045 -0.262 11.008 -0.133 12 0 C12.99 1.32 13.98 2.64 15 4 C10.71 4 6.42 4 2 4 C1.34 2.68 0.68 1.36 0 0 Z " fill="#F3F3F4" transform="translate(362,813)"/>
<path d="M0 0 C2.709 0.155 4.466 0.482 6.445 2.402 C7.677 3.898 8.843 5.446 10 7 C6.209 5.55 2.613 3.848 -1 2 C-0.67 1.34 -0.34 0.68 0 0 Z " fill="#DCDCDC" transform="translate(474,289)"/>
<path d="M0 0 C0.66 0 1.32 0 2 0 C6 6.75 6 6.75 6 9 C5.01 9.33 4.02 9.66 3 10 C2.01 6.7 1.02 3.4 0 0 Z " fill="#C5C5C6" transform="translate(579,454)"/>
<path d="M0 0 C3.125 0.375 3.125 0.375 7.125 4.375 C1.185 3.385 1.185 3.385 -4.875 2.375 C-2.875 0.375 -2.875 0.375 0 0 Z " fill="#C5C5C6" transform="translate(460.875,284.625)"/>
<path d="M0 0 C3.96 0 7.92 0 12 0 C9 3 9 3 6.992 3.145 C4.983 2.829 2.99 2.417 1 2 C0.67 1.34 0.34 0.68 0 0 Z " fill="#3E3C3C" transform="translate(452,282)"/>
<path d="M0 0 C1.991 2.986 2.941 5.597 4 9 C2.35 7.68 0.7 6.36 -1 5 C-0.67 3.35 -0.34 1.7 0 0 Z " fill="#CECFCF" transform="translate(365,368)"/>
<path d="M0 0 C4.468 0.496 5.69 0.69 9 4 C4.545 3.01 4.545 3.01 0 2 C0 1.34 0 0.68 0 0 Z " fill="#C5C5C6" transform="translate(465,297)"/>
</svg>