<svg version="1.1" xmlns="http://www.w3.org/2000/svg" width="1024" height="1024">
<path d="M0 0 C337.92 0 675.84 0 1024 0 C1024 337.92 1024 675.84 1024 1024 C686.08 1024 348.16 1024 0 1024 C0 686.08 0 348.16 0 0 Z " fill="#FEFEFE" transform="translate(0,0)"/>
<path d="M0 0 C0.958 -0.002 1.916 -0.005 2.902 -0.007 C6.149 -0.014 9.395 -0.013 12.641 -0.013 C14.977 -0.016 17.314 -0.02 19.65 -0.024 C25.421 -0.033 31.192 -0.037 36.963 -0.04 C43.872 -0.043 50.781 -0.051 57.69 -0.06 C74.391 -0.081 91.092 -0.091 107.793 -0.1 C115.691 -0.104 123.588 -0.11 131.486 -0.115 C158.508 -0.133 185.53 -0.148 212.552 -0.155 C214.249 -0.156 215.946 -0.156 217.643 -0.157 C218.485 -0.157 219.326 -0.157 220.193 -0.157 C224.457 -0.159 228.721 -0.16 232.985 -0.161 C234.255 -0.161 234.255 -0.161 235.55 -0.162 C262.995 -0.17 290.44 -0.193 317.885 -0.226 C346.887 -0.26 375.889 -0.28 404.891 -0.283 C408.073 -0.283 411.255 -0.284 414.437 -0.284 C415.221 -0.284 416.004 -0.284 416.811 -0.285 C429.435 -0.287 442.059 -0.303 454.683 -0.323 C467.366 -0.343 480.049 -0.349 492.732 -0.339 C499.606 -0.335 506.481 -0.336 513.355 -0.356 C519.644 -0.374 525.931 -0.373 532.219 -0.357 C534.499 -0.355 536.779 -0.359 539.059 -0.371 C542.149 -0.386 545.238 -0.377 548.328 -0.361 C549.668 -0.376 549.668 -0.376 551.035 -0.392 C557.315 -0.321 561.001 1.241 565.56 5.767 C569.151 10.355 570.041 12.36 570.047 18.158 C570.051 19.45 570.055 20.743 570.059 22.075 C570.058 23.523 570.057 24.971 570.056 26.419 C570.059 27.947 570.062 29.474 570.065 31.002 C570.073 35.216 570.075 39.43 570.076 43.644 C570.078 48.182 570.085 52.721 570.092 57.26 C570.105 67.192 570.111 77.123 570.116 87.055 C570.119 93.253 570.123 99.452 570.127 105.65 C570.14 122.802 570.15 139.953 570.153 157.105 C570.153 158.203 570.154 159.302 570.154 160.433 C570.154 161.534 570.154 162.635 570.155 163.77 C570.155 166.001 570.155 168.233 570.156 170.464 C570.156 171.571 570.156 172.677 570.157 173.818 C570.16 191.755 570.178 209.692 570.201 227.629 C570.225 246.033 570.237 264.436 570.239 282.84 C570.239 293.178 570.245 303.515 570.263 313.853 C570.279 322.656 570.284 331.459 570.276 340.261 C570.272 344.754 570.273 349.247 570.287 353.74 C570.299 357.852 570.298 361.963 570.286 366.075 C570.284 367.564 570.287 369.052 570.296 370.541 C570.307 372.563 570.298 374.585 570.288 376.607 C570.288 378.293 570.288 378.293 570.289 380.012 C569.785 384.226 568.319 387.592 565.451 390.744 C561.029 394.169 557.954 396.388 552.297 396.375 C551.374 396.377 550.451 396.38 549.501 396.383 C548.496 396.376 547.491 396.369 546.456 396.361 C544.86 396.362 544.86 396.362 543.232 396.362 C539.715 396.361 536.198 396.345 532.681 396.33 C530.243 396.326 527.805 396.323 525.367 396.321 C518.949 396.313 512.531 396.294 506.113 396.272 C499.564 396.251 493.015 396.242 486.466 396.232 C473.616 396.21 460.766 396.175 447.916 396.134 C447.916 388.874 447.916 381.614 447.916 374.134 C447.256 374.134 446.596 374.134 445.916 374.134 C445.483 407.195 445.674 439.203 453.315 471.574 C453.862 473.906 454.378 476.242 454.88 478.583 C457.119 488.825 460.128 498.807 463.275 508.802 C464.236 511.863 465.099 514.879 465.869 517.998 C468.249 527.552 473.584 533.852 479.916 541.134 C481.711 543.215 483.503 545.298 485.291 547.384 C485.74 547.907 486.19 548.43 486.653 548.969 C492.277 555.605 497.236 562.726 502.263 569.817 C503.872 572.073 505.5 574.313 507.138 576.548 C596.221 698.247 596.221 698.247 591.916 748.134 C590.69 753.709 588.211 757.907 584.767 762.408 C584.232 763.111 583.696 763.814 583.145 764.538 C582.739 765.065 582.333 765.592 581.916 766.134 C582.746 766.14 583.577 766.146 584.432 766.152 C592.26 766.21 600.088 766.282 607.916 766.37 C611.94 766.415 615.964 766.454 619.988 766.481 C623.872 766.507 627.756 766.547 631.64 766.597 C633.121 766.614 634.603 766.626 636.085 766.632 C638.161 766.641 640.235 766.67 642.311 766.702 C643.492 766.713 644.674 766.724 645.891 766.735 C649.189 767.17 650.606 767.77 652.916 770.134 C653.512 773.639 653.458 775.36 651.402 778.295 C647.931 780.862 644.787 780.677 640.637 780.617 C639.804 780.621 638.971 780.624 638.112 780.628 C636.303 780.634 634.494 780.631 632.684 780.62 C629.806 780.603 626.929 780.61 624.051 780.624 C616.892 780.654 609.733 780.641 602.575 780.629 C596.54 780.621 590.505 780.629 584.47 780.658 C581.661 780.665 578.852 780.649 576.043 780.631 C564.999 780.634 555.511 781.993 544.916 785.134 C540.194 786.377 535.495 787.46 530.666 788.197 C529.67 788.353 528.675 788.509 527.65 788.669 C517.636 789.916 507.724 790.283 497.638 790.267 C496.297 790.268 494.955 790.269 493.613 790.27 C490.82 790.271 488.028 790.269 485.235 790.265 C481.694 790.259 478.154 790.262 474.613 790.268 C471.848 790.272 469.082 790.271 466.317 790.268 C464.389 790.267 462.461 790.27 460.534 790.273 C453.588 790.255 446.736 789.959 439.815 789.37 C436.103 789.068 432.417 788.942 428.693 788.853 C427.636 788.826 427.636 788.826 426.557 788.798 C425.077 788.761 423.597 788.724 422.117 788.689 C418.259 788.596 414.402 788.488 410.545 788.38 C409.416 788.349 409.416 788.349 408.265 788.317 C402.272 788.149 396.28 787.961 390.291 787.697 C389.548 787.67 388.805 787.643 388.04 787.615 C375.138 786.991 375.138 786.991 370.501 783.117 C365.869 780.006 360.672 780.569 355.282 780.601 C354.117 780.592 352.953 780.584 351.752 780.575 C347.908 780.552 344.065 780.559 340.22 780.568 C338.223 780.564 336.227 780.56 334.23 780.555 C327.958 780.538 321.685 780.541 315.413 780.558 C308.945 780.575 302.478 780.559 296.01 780.527 C290.451 780.5 284.891 780.493 279.332 780.501 C276.014 780.506 272.697 780.502 269.379 780.483 C265.682 780.466 261.987 780.48 258.29 780.503 C257.192 780.491 256.094 780.48 254.962 780.468 C249.062 780.388 249.062 780.388 244.361 783.564 C243.884 784.412 243.407 785.26 242.916 786.134 C237.846 789.683 233.835 790.258 227.725 790.275 C226.453 790.28 225.182 790.286 223.872 790.292 C222.465 790.293 221.058 790.294 219.651 790.295 C218.168 790.3 216.684 790.305 215.201 790.31 C211.172 790.324 207.142 790.33 203.113 790.334 C200.594 790.337 198.074 790.341 195.555 790.346 C187.666 790.36 179.777 790.369 171.888 790.373 C162.793 790.378 153.699 790.395 144.604 790.424 C137.567 790.446 130.53 790.456 123.493 790.457 C119.293 790.458 115.094 790.464 110.895 790.482 C106.941 790.499 102.987 790.501 99.033 790.492 C97.588 790.491 96.142 790.495 94.696 790.505 C85.995 790.561 78.751 790.052 70.916 786.134 C69.215 786.028 67.51 785.979 65.806 785.958 C64.739 785.935 63.672 785.911 62.572 785.886 C60.379 785.845 58.187 785.813 55.994 785.792 C49.708 785.633 43.899 784.99 37.761 783.685 C25.118 781.051 12.852 780.585 -0.03 780.648 C-3.688 780.666 -7.345 780.658 -11.002 780.644 C-18.738 780.619 -26.474 780.624 -34.209 780.634 C-43.245 780.646 -52.281 780.645 -61.317 780.61 C-64.918 780.603 -68.518 780.62 -72.119 780.637 C-74.312 780.632 -76.505 780.625 -78.698 780.617 C-79.696 780.628 -80.695 780.639 -81.723 780.651 C-88.446 780.591 -88.446 780.591 -91.702 778.26 C-93.451 775.57 -93.714 774.283 -93.084 771.134 C-91.563 769.012 -91.563 769.012 -89.084 767.134 C-86.236 766.731 -83.768 766.57 -80.919 766.588 C-80.099 766.578 -79.28 766.568 -78.435 766.557 C-75.729 766.528 -73.024 766.526 -70.319 766.525 C-68.441 766.51 -66.564 766.493 -64.686 766.475 C-59.748 766.431 -54.809 766.411 -49.871 766.396 C-44.83 766.376 -39.789 766.334 -34.748 766.294 C-24.86 766.219 -14.973 766.169 -5.084 766.134 C-5.569 765.588 -6.055 765.042 -6.554 764.48 C-7.188 763.762 -7.822 763.044 -8.475 762.304 C-9.42 761.238 -9.42 761.238 -10.383 760.15 C-12.27 757.914 -13.685 755.705 -14.959 753.072 C-15.349 752.297 -15.738 751.522 -16.139 750.724 C-21.956 734.786 -17.712 714.982 -11.084 700.134 C-5.295 687.761 1.904 673.11 12.334 664.029 C14.188 662.214 14.188 662.214 13.943 659.544 C12.488 654.716 10.52 650.177 8.478 645.572 C7.667 643.716 6.855 641.861 6.045 640.005 C5.684 639.19 5.324 638.374 4.953 637.534 C2.335 631.478 0.81 626.78 1.916 620.134 C4.781 613.467 9.298 608.97 15.916 606.134 C26.429 603.039 36.498 602.707 47.351 602.762 C49.054 602.759 50.757 602.756 52.461 602.751 C57.043 602.742 61.625 602.751 66.207 602.764 C71.022 602.776 75.836 602.771 80.65 602.769 C88.724 602.769 96.799 602.78 104.873 602.798 C114.195 602.819 123.516 602.823 132.838 602.816 C141.833 602.811 150.827 602.816 159.822 602.828 C163.639 602.832 167.456 602.833 171.274 602.831 C175.767 602.829 180.26 602.837 184.753 602.853 C186.398 602.857 188.042 602.858 189.687 602.855 C191.939 602.852 194.19 602.861 196.442 602.874 C198.328 602.877 198.328 602.877 200.253 602.88 C207.838 603.407 215.845 605.316 221.527 610.646 C226.562 616.732 227.306 622.819 228.166 630.509 C228.46 632.851 228.757 635.192 229.056 637.533 C229.195 638.657 229.333 639.782 229.476 640.94 C229.982 644.619 230.703 648.22 231.469 651.851 C232.172 655.444 232.543 659.058 232.916 662.697 C233.484 667.869 234.179 672.879 235.42 677.939 C236.27 681.703 236.78 685.518 237.345 689.333 C237.771 692.173 238.214 695.007 238.673 697.841 C240.989 712.151 240.989 712.151 241.541 718.197 C241.656 721.916 241.656 721.916 242.916 724.134 C243.181 725.765 243.402 727.404 243.599 729.044 C243.722 730.035 243.845 731.026 243.972 732.046 C244.223 734.119 244.473 736.192 244.722 738.265 C245.299 742.904 245.928 747.45 247.005 752.001 C248.213 757.119 248.048 761.886 247.916 767.134 C251.876 767.134 255.836 767.134 259.916 767.134 C259.916 764.824 259.916 762.514 259.916 760.134 C259.173 760.031 258.431 759.928 257.666 759.822 C254.578 759.05 253.185 758.357 250.916 756.134 C250.228 753.208 250.228 753.208 249.916 749.822 C249.299 744.586 249.299 744.586 246.791 740.009 C243.862 735.519 243.972 731.333 244.916 726.134 C246.585 722.236 248.607 718.686 250.916 715.134 C250.297 714.866 249.678 714.598 249.041 714.322 C246.916 713.134 246.916 713.134 244.916 710.134 C244.302 706.114 244.108 703.655 246.025 700.044 C253.058 690.975 265.49 686.776 276.564 685.345 C281.756 684.879 286.955 684.805 292.166 684.759 C293.267 684.745 294.368 684.731 295.502 684.717 C302.487 684.758 308.37 685.715 314.916 688.134 C315.571 688.369 316.226 688.604 316.901 688.846 C318.747 689.524 320.582 690.235 322.416 690.947 C340.309 697.791 340.309 697.791 358.916 702.134 C359.065 701.024 359.065 701.024 359.216 699.892 C360.618 694.362 365.092 690.35 369.728 687.259 C379.502 683.81 389.968 683.294 400.228 682.509 C401.075 682.444 401.921 682.379 402.794 682.312 C436.025 679.848 470.105 679.232 503.181 683.763 C505.623 684.094 508.063 684.38 510.513 684.638 C524.696 686.24 539.506 689.351 550.791 698.685 C551.916 700.134 551.916 700.134 551.666 702.759 C550.916 705.134 550.916 705.134 549.916 706.134 C543.538 705.611 538.633 703.384 532.904 700.705 C523.216 696.616 512.919 695.475 502.541 694.509 C501.329 694.388 500.117 694.267 498.869 694.142 C495.219 693.784 491.568 693.455 487.916 693.134 C486.865 693.034 485.814 692.934 484.732 692.831 C474.168 691.93 463.605 691.983 453.011 692.004 C449.79 692.009 446.57 692.004 443.349 691.998 C428.605 691.976 428.605 691.976 413.916 693.134 C414.326 694.136 414.735 695.137 415.158 696.169 C415.702 697.512 416.247 698.854 416.791 700.197 C417.06 700.853 417.329 701.51 417.607 702.187 C422.94 715.388 424.263 728.291 424.228 742.447 C424.252 744.395 424.252 744.395 424.277 746.382 C424.282 756.645 423.778 767.87 418.916 777.134 C430.713 777.181 442.511 777.216 454.308 777.238 C459.788 777.248 465.268 777.262 470.748 777.285 C476.052 777.307 481.356 777.319 486.66 777.324 C488.668 777.328 490.676 777.335 492.684 777.346 C509.628 777.434 526.253 776.37 542.916 773.134 C543.958 772.954 545.001 772.773 546.076 772.587 C559.901 769.885 569.887 763.976 577.791 752.384 C582.37 743.226 580.781 731.112 577.666 721.697 C564.824 685.344 542.021 652.084 520.916 620.134 C520.411 619.367 519.906 618.599 519.386 617.809 C505.033 596 489.637 574.971 473.916 554.134 C474.037 554.67 474.158 555.205 474.283 555.757 C479.426 579.16 480.693 603.416 471.916 626.134 C471.521 627.31 471.521 627.31 471.119 628.509 C465.61 643.972 453.525 656.092 438.916 663.134 C424.037 670.032 406.788 670.734 391.271 665.327 C370.155 657.275 355.93 642.261 346.746 621.995 C346.472 621.381 346.198 620.767 345.916 620.134 C345.381 618.943 344.846 617.752 344.295 616.525 C343.032 613.419 342.085 610.449 341.291 607.197 C341.051 606.239 340.811 605.281 340.564 604.294 C338.929 596.325 338.762 588.623 338.791 580.509 C338.787 579.403 338.783 578.297 338.779 577.158 C338.781 575.549 338.781 575.549 338.783 573.908 C338.784 572.943 338.785 571.978 338.786 570.983 C338.923 567.968 339.363 565.1 339.916 562.134 C338.678 562.444 337.441 562.753 336.166 563.072 C325.494 565.414 314.447 565.4 303.563 565.484 C302.015 565.501 300.467 565.528 298.92 565.566 C280.576 566.014 262.388 561.911 248.576 548.978 C243.978 543.872 242.457 539.023 242.58 532.212 C242.957 529.881 243.762 528.183 244.916 526.134 C244.008 526.444 243.101 526.753 242.166 527.072 C237.701 528.371 233.211 528.601 228.587 528.888 C225.815 529.041 225.815 529.041 222.916 530.134 C220.894 530.329 218.868 530.477 216.841 530.599 C215.015 530.714 215.015 530.714 213.152 530.831 C211.21 530.95 211.21 530.95 209.228 531.072 C173.497 533.458 155.273 544.068 131.319 570.924 C129.459 573.111 127.681 575.355 125.92 577.623 C123.073 581.191 119.99 584.525 116.854 587.84 C114.785 590.037 112.865 592.205 111.119 594.669 C109.484 596.963 108.262 598.567 105.916 600.134 C101.501 600.779 97.341 600.613 92.916 600.134 C94.208 597.344 95.613 595.124 97.638 592.814 C98.172 592.201 98.707 591.588 99.257 590.957 C99.825 590.314 100.393 589.671 100.978 589.009 C101.562 588.343 102.145 587.676 102.746 586.989 C106.772 582.4 110.84 577.85 114.939 573.326 C116.785 571.279 118.606 569.213 120.416 567.134 C139.234 545.591 139.234 545.591 149.916 537.134 C150.576 537.134 151.236 537.134 151.916 537.134 C151.586 536.144 151.256 535.154 150.916 534.134 C150.161 516.546 150.161 516.546 152.217 509.579 C152.739 507.753 153.21 505.913 153.656 504.067 C156.023 494.464 159.39 485.548 163.229 476.445 C172.605 454.165 180.004 432.365 183.603 408.384 C183.735 407.52 183.867 406.657 184.003 405.767 C184.841 399.855 185.066 394.101 184.916 388.134 C184.586 390.774 184.256 393.414 183.916 396.134 C158.89 396.274 133.864 396.38 108.838 396.445 C97.218 396.476 85.598 396.518 73.978 396.587 C63.849 396.647 53.721 396.685 43.592 396.699 C38.229 396.707 32.867 396.725 27.504 396.769 C22.455 396.809 17.406 396.822 12.356 396.813 C10.505 396.815 8.654 396.826 6.803 396.849 C-10.04 397.049 -10.04 397.049 -15.599 392.106 C-16.334 391.13 -16.334 391.13 -17.084 390.134 C-17.798 389.215 -18.511 388.296 -19.246 387.35 C-22.43 381.536 -21.635 374.731 -21.592 368.293 C-21.597 366.766 -21.603 365.238 -21.611 363.711 C-21.628 359.522 -21.62 355.333 -21.607 351.143 C-21.598 346.623 -21.612 342.102 -21.623 337.581 C-21.641 328.727 -21.637 319.874 -21.626 311.021 C-21.617 303.826 -21.615 296.63 -21.62 289.435 C-21.62 288.411 -21.621 287.387 -21.622 286.333 C-21.623 284.252 -21.624 282.172 -21.625 280.092 C-21.637 260.586 -21.624 241.08 -21.602 221.574 C-21.584 204.836 -21.587 188.097 -21.606 171.359 C-21.627 151.923 -21.636 132.487 -21.623 113.05 C-21.622 110.978 -21.621 108.906 -21.62 106.833 C-21.619 105.813 -21.618 104.794 -21.618 103.743 C-21.614 96.556 -21.62 89.37 -21.63 82.183 C-21.641 73.425 -21.638 64.667 -21.616 55.909 C-21.606 51.441 -21.602 46.972 -21.615 42.503 C-21.627 38.412 -21.62 34.322 -21.599 30.231 C-21.595 28.751 -21.597 27.272 -21.607 25.792 C-21.66 17.028 -21.633 10.988 -15.452 4.392 C-10.007 0.259 -6.724 -0.011 0 0 Z " fill="#FEFEFE" transform="translate(233.0843849182129,152.86577892303467)"/>
<path d="M0 0 C0.7 0.749 1.4 1.498 2.121 2.27 C3.855 4.261 3.855 4.261 6.289 3.988 C7.06 3.765 7.831 3.542 8.625 3.312 C9.789 2.997 9.789 2.997 10.977 2.676 C13.035 2.041 13.035 2.041 15 1 C37.618 -1.185 55.39 4.06 73.312 18 C74.888 19.318 76.452 20.65 78 22 C78.886 22.76 78.886 22.76 79.789 23.535 C101.758 43.89 113.403 75.106 117.685 104.064 C118.181 107.111 118.9 110.11 119.562 113.125 C123.667 134.383 123.111 156.596 123.388 178.15 C123.764 207.143 124.709 235.093 131.399 263.44 C131.946 265.772 132.462 268.107 132.965 270.449 C135.203 280.691 138.212 290.673 141.359 300.668 C142.32 303.729 143.184 306.745 143.953 309.863 C146.333 319.418 151.669 325.718 158 333 C159.795 335.08 161.587 337.164 163.375 339.25 C163.824 339.773 164.274 340.296 164.737 340.835 C170.361 347.471 175.32 354.592 180.347 361.683 C181.956 363.939 183.585 366.179 185.223 368.414 C274.306 490.113 274.306 490.113 270 540 C268.774 545.575 266.295 549.773 262.852 554.273 C262.316 554.976 261.781 555.679 261.229 556.404 C260.823 556.931 260.418 557.457 260 558 C260.83 558.006 261.661 558.012 262.517 558.018 C270.345 558.076 278.172 558.148 286 558.236 C290.024 558.28 294.048 558.32 298.073 558.346 C301.957 558.372 305.84 558.413 309.724 558.463 C311.206 558.48 312.687 558.491 314.169 558.498 C316.245 558.507 318.32 558.535 320.396 558.568 C321.577 558.579 322.758 558.59 323.975 558.601 C327.273 559.036 328.69 559.636 331 562 C331.597 565.504 331.542 567.226 329.486 570.161 C326.016 572.728 322.871 572.542 318.722 572.482 C317.888 572.486 317.055 572.49 316.197 572.494 C314.388 572.5 312.578 572.497 310.769 572.486 C307.891 572.469 305.013 572.476 302.135 572.49 C294.976 572.52 287.818 572.507 280.659 572.495 C274.624 572.487 268.589 572.495 262.554 572.524 C259.745 572.531 256.936 572.515 254.127 572.497 C243.084 572.499 233.596 573.859 223 577 C218.279 578.242 213.579 579.326 208.75 580.062 C207.755 580.218 206.76 580.374 205.734 580.535 C195.721 581.782 185.808 582.149 175.723 582.133 C174.381 582.133 173.039 582.134 171.697 582.136 C168.905 582.137 166.112 582.135 163.32 582.13 C159.779 582.125 156.238 582.128 152.697 582.134 C149.932 582.138 147.167 582.136 144.401 582.134 C142.474 582.133 140.546 582.136 138.618 582.139 C131.672 582.121 124.82 581.825 117.899 581.236 C114.187 580.934 110.501 580.808 106.777 580.719 C105.72 580.692 105.72 580.692 104.641 580.664 C103.161 580.626 101.681 580.59 100.201 580.555 C96.343 580.461 92.486 580.354 88.629 580.246 C87.501 580.215 87.501 580.215 86.349 580.183 C80.356 580.015 74.365 579.827 68.375 579.562 C67.632 579.535 66.89 579.508 66.125 579.48 C53.222 578.857 53.222 578.857 48.586 574.983 C43.954 571.871 38.757 572.434 33.367 572.467 C32.202 572.458 31.037 572.449 29.837 572.44 C25.993 572.418 22.149 572.425 18.305 572.434 C16.308 572.43 14.311 572.426 12.314 572.42 C6.042 572.403 -0.23 572.407 -6.502 572.424 C-12.97 572.441 -19.438 572.425 -25.906 572.392 C-31.465 572.366 -37.024 572.358 -42.584 572.367 C-45.902 572.372 -49.219 572.367 -52.537 572.349 C-56.234 572.332 -59.929 572.346 -63.625 572.369 C-64.724 572.357 -65.822 572.346 -66.954 572.333 C-72.854 572.254 -72.854 572.254 -77.555 575.43 C-78.032 576.278 -78.509 577.126 -79 578 C-84.07 581.549 -88.081 582.124 -94.191 582.14 C-95.462 582.146 -96.734 582.152 -98.044 582.158 C-99.451 582.159 -100.858 582.16 -102.264 582.161 C-103.748 582.166 -105.231 582.171 -106.715 582.176 C-110.744 582.189 -114.773 582.196 -118.802 582.2 C-121.322 582.203 -123.841 582.207 -126.361 582.212 C-134.25 582.225 -142.139 582.235 -150.027 582.239 C-159.122 582.243 -168.217 582.261 -177.312 582.29 C-184.349 582.312 -191.386 582.322 -198.423 582.323 C-202.622 582.324 -206.822 582.33 -211.021 582.348 C-214.975 582.364 -218.928 582.366 -222.882 582.358 C-224.328 582.357 -225.774 582.361 -227.22 582.371 C-235.921 582.427 -243.165 581.917 -251 578 C-252.701 577.893 -254.405 577.845 -256.109 577.824 C-257.177 577.8 -258.244 577.777 -259.344 577.752 C-261.536 577.71 -263.729 577.678 -265.922 577.658 C-272.208 577.499 -278.016 576.856 -284.155 575.55 C-296.798 572.916 -309.064 572.45 -321.946 572.514 C-325.603 572.532 -329.26 572.524 -332.918 572.51 C-340.654 572.485 -348.389 572.49 -356.125 572.5 C-365.161 572.512 -374.197 572.51 -383.233 572.476 C-386.834 572.469 -390.434 572.485 -394.035 572.503 C-396.228 572.497 -398.421 572.491 -400.614 572.482 C-401.612 572.494 -402.61 572.505 -403.639 572.517 C-410.362 572.457 -410.362 572.457 -413.618 570.126 C-415.367 567.436 -415.63 566.149 -415 563 C-413.479 560.878 -413.479 560.878 -411 559 C-408.151 558.597 -405.684 558.436 -402.835 558.454 C-402.015 558.444 -401.195 558.433 -400.35 558.423 C-397.645 558.393 -394.94 558.392 -392.234 558.391 C-390.357 558.376 -388.479 558.359 -386.602 558.341 C-381.663 558.297 -376.725 558.277 -371.786 558.262 C-366.745 558.242 -361.705 558.2 -356.664 558.16 C-346.776 558.085 -336.888 558.035 -327 558 C-327.485 557.454 -327.97 556.908 -328.47 556.346 C-329.104 555.628 -329.738 554.91 -330.391 554.17 C-331.335 553.104 -331.335 553.104 -332.299 552.016 C-334.186 549.78 -335.6 547.571 -336.875 544.938 C-337.264 544.163 -337.654 543.388 -338.055 542.59 C-343.872 526.652 -339.628 506.848 -333 492 C-327.211 479.627 -320.012 464.976 -309.582 455.895 C-307.728 454.08 -307.728 454.08 -307.973 451.41 C-309.427 446.582 -311.395 442.043 -313.438 437.438 C-314.249 435.582 -315.06 433.727 -315.871 431.871 C-316.231 431.056 -316.592 430.24 -316.963 429.4 C-319.58 423.343 -321.106 418.646 -320 412 C-317.135 405.333 -312.617 400.835 -306 398 C-295.487 394.904 -285.417 394.573 -274.565 394.628 C-272.862 394.625 -271.158 394.622 -269.455 394.617 C-264.873 394.607 -260.291 394.617 -255.708 394.63 C-250.894 394.641 -246.08 394.637 -241.266 394.635 C-233.191 394.634 -225.117 394.645 -217.042 394.664 C-207.721 394.685 -198.399 394.688 -189.078 394.682 C-180.083 394.677 -171.088 394.682 -162.094 394.693 C-158.276 394.698 -154.459 394.699 -150.642 394.697 C-146.149 394.695 -141.656 394.703 -137.163 394.719 C-135.518 394.723 -133.873 394.724 -132.229 394.721 C-129.977 394.718 -127.725 394.727 -125.474 394.739 C-124.216 394.741 -122.958 394.743 -121.663 394.746 C-114.078 395.273 -106.071 397.182 -100.388 402.512 C-95.354 408.598 -94.61 414.685 -93.75 422.375 C-93.455 424.716 -93.159 427.058 -92.859 429.398 C-92.721 430.523 -92.582 431.647 -92.439 432.806 C-91.933 436.484 -91.213 440.086 -90.446 443.717 C-89.744 447.309 -89.373 450.923 -89 454.562 C-88.432 459.735 -87.737 464.745 -86.496 469.805 C-85.646 473.568 -85.135 477.384 -84.57 481.199 C-84.144 484.039 -83.702 486.873 -83.242 489.707 C-80.927 504.017 -80.927 504.017 -80.375 510.062 C-80.259 513.781 -80.259 513.781 -79 516 C-78.735 517.631 -78.514 519.269 -78.316 520.91 C-78.193 521.901 -78.07 522.891 -77.943 523.912 C-77.693 525.985 -77.443 528.058 -77.193 530.131 C-76.616 534.77 -75.987 539.316 -74.91 543.867 C-73.702 548.985 -73.867 553.751 -74 559 C-70.04 559 -66.08 559 -62 559 C-62 556.69 -62 554.38 -62 552 C-62.743 551.897 -63.485 551.794 -64.25 551.688 C-67.338 550.915 -68.73 550.223 -71 548 C-71.688 545.074 -71.688 545.074 -72 541.688 C-72.617 536.452 -72.617 536.452 -75.125 531.875 C-78.054 527.384 -77.944 523.198 -77 518 C-75.331 514.102 -73.309 510.552 -71 507 C-71.619 506.732 -72.238 506.464 -72.875 506.188 C-75 505 -75 505 -77 502 C-77.613 497.98 -77.807 495.521 -75.891 491.91 C-68.858 482.841 -56.425 478.642 -45.352 477.211 C-40.159 476.745 -34.961 476.671 -29.75 476.625 C-28.649 476.611 -27.548 476.597 -26.413 476.583 C-19.428 476.624 -13.546 477.581 -7 480 C-6.017 480.352 -6.017 480.352 -5.015 480.712 C-3.168 481.39 -1.334 482.101 0.5 482.812 C18.393 489.657 18.393 489.657 37 494 C37.149 492.89 37.149 492.89 37.301 491.758 C38.703 486.228 43.177 482.216 47.812 479.125 C57.586 475.675 68.052 475.16 78.312 474.375 C79.159 474.31 80.006 474.245 80.878 474.178 C114.11 471.714 148.19 471.097 181.265 475.628 C183.707 475.96 186.147 476.245 188.598 476.504 C202.78 478.105 217.59 481.217 228.875 490.551 C230 492 230 492 229.75 494.625 C229 497 229 497 228 498 C221.622 497.477 216.718 495.25 210.988 492.57 C201.301 488.482 191.003 487.34 180.625 486.375 C179.413 486.254 178.202 486.133 176.953 486.008 C173.304 485.65 169.653 485.321 166 485 C164.949 484.9 163.899 484.8 162.816 484.697 C152.253 483.796 141.69 483.849 131.095 483.87 C127.875 483.875 124.654 483.87 121.434 483.863 C106.689 483.842 106.689 483.842 92 485 C92.41 486.002 92.82 487.003 93.242 488.035 C93.787 489.378 94.331 490.72 94.875 492.062 C95.144 492.719 95.414 493.376 95.691 494.053 C101.024 507.254 102.347 520.157 102.312 534.312 C102.337 536.261 102.337 536.261 102.361 538.248 C102.366 548.51 101.863 559.736 97 569 C108.798 569.047 120.595 569.082 132.393 569.104 C137.873 569.114 143.353 569.128 148.833 569.151 C154.137 569.173 159.44 569.185 164.744 569.19 C166.752 569.193 168.76 569.201 170.768 569.211 C187.713 569.3 204.338 568.235 221 565 C222.043 564.82 223.086 564.639 224.16 564.453 C237.985 561.751 247.972 555.841 255.875 544.25 C260.454 535.092 258.866 522.978 255.75 513.562 C242.908 477.21 220.105 443.95 199 412 C198.495 411.233 197.99 410.465 197.47 409.674 C183.117 387.866 167.721 366.837 152 346 C152.121 346.536 152.242 347.071 152.367 347.623 C157.51 371.026 158.778 395.282 150 418 C149.606 419.176 149.606 419.176 149.203 420.375 C143.694 435.838 131.609 447.958 117 455 C102.121 461.898 84.872 462.6 69.355 457.193 C48.24 449.141 34.014 434.127 24.83 413.861 C24.556 413.247 24.282 412.633 24 412 C23.198 410.213 23.198 410.213 22.379 408.391 C21.116 405.285 20.169 402.315 19.375 399.062 C19.135 398.105 18.895 397.147 18.648 396.16 C17.013 388.19 16.846 380.489 16.875 372.375 C16.871 371.269 16.867 370.163 16.863 369.023 C16.865 367.415 16.865 367.415 16.867 365.773 C16.868 364.808 16.869 363.843 16.871 362.849 C17.008 359.833 17.448 356.965 18 354 C16.144 354.464 16.144 354.464 14.25 354.938 C3.579 357.279 -7.469 357.266 -18.352 357.35 C-19.9 357.367 -21.448 357.394 -22.996 357.432 C-41.34 357.88 -59.528 353.777 -73.34 340.844 C-77.937 335.738 -79.458 330.888 -79.336 324.078 C-78.959 321.746 -78.154 320.049 -77 318 C-77.908 318.309 -78.815 318.619 -79.75 318.938 C-84.215 320.237 -88.705 320.466 -93.328 320.754 C-96.101 320.907 -96.101 320.907 -99 322 C-101.021 322.195 -103.047 322.343 -105.074 322.465 C-106.292 322.541 -107.509 322.618 -108.764 322.697 C-110.706 322.816 -110.706 322.816 -112.688 322.938 C-148.419 325.324 -166.642 335.934 -190.596 362.79 C-192.456 364.977 -194.234 367.221 -195.996 369.488 C-198.843 373.057 -201.925 376.39 -205.061 379.706 C-207.13 381.902 -209.05 384.071 -210.797 386.535 C-212.431 388.829 -213.653 390.433 -216 392 C-220.415 392.645 -224.575 392.479 -229 392 C-227.708 389.209 -226.303 386.989 -224.277 384.68 C-223.743 384.067 -223.209 383.454 -222.659 382.823 C-222.091 382.18 -221.523 381.537 -220.938 380.875 C-220.354 380.208 -219.771 379.542 -219.169 378.855 C-215.144 374.266 -211.076 369.715 -206.977 365.191 C-205.13 363.145 -203.31 361.079 -201.5 359 C-182.682 337.456 -182.682 337.456 -172 329 C-171.34 329 -170.68 329 -170 329 C-170.33 328.01 -170.66 327.02 -171 326 C-171.755 308.411 -171.755 308.411 -169.699 301.445 C-169.177 299.619 -168.705 297.779 -168.26 295.933 C-165.892 286.33 -162.526 277.414 -158.686 268.311 C-150.86 249.713 -143.386 230.991 -140 211 C-139.882 210.324 -139.764 209.649 -139.643 208.953 C-137.237 194.869 -136.127 180.676 -135.09 166.439 C-135.032 165.678 -134.974 164.918 -134.914 164.134 C-134.806 162.709 -134.703 161.284 -134.607 159.859 C-134.236 155.037 -133.264 150.648 -132 146 C-132.592 145.727 -133.183 145.453 -133.793 145.172 C-142.384 140.611 -146.415 131.613 -150 123 C-150.281 122.33 -150.562 121.66 -150.852 120.969 C-153.23 114.681 -153.541 108.744 -153.5 102.062 C-153.494 100.964 -153.487 99.865 -153.48 98.733 C-153.121 82.517 -147.916 68.977 -140 55 C-139.444 54.015 -138.889 53.03 -138.316 52.016 C-122.57 25.885 -97.036 6.045 -68 -3 C-66.73 -3.425 -66.73 -3.425 -65.434 -3.859 C-43.241 -11.025 -20.47 -12.36 0 0 Z " fill="#080809" transform="translate(555,361)"/>
<path d="M0 0 C0.958 -0.002 1.916 -0.005 2.902 -0.007 C6.149 -0.014 9.395 -0.013 12.641 -0.013 C14.977 -0.016 17.314 -0.02 19.65 -0.024 C25.421 -0.033 31.192 -0.037 36.963 -0.04 C43.872 -0.043 50.781 -0.051 57.69 -0.06 C74.391 -0.081 91.092 -0.091 107.793 -0.1 C115.691 -0.104 123.588 -0.11 131.486 -0.115 C158.508 -0.133 185.53 -0.148 212.552 -0.155 C214.249 -0.156 215.946 -0.156 217.643 -0.157 C218.485 -0.157 219.326 -0.157 220.193 -0.157 C224.457 -0.159 228.721 -0.16 232.985 -0.161 C234.255 -0.161 234.255 -0.161 235.55 -0.162 C262.995 -0.17 290.44 -0.193 317.885 -0.226 C346.887 -0.26 375.889 -0.28 404.891 -0.283 C408.073 -0.283 411.255 -0.284 414.437 -0.284 C415.221 -0.284 416.004 -0.284 416.811 -0.285 C429.435 -0.287 442.059 -0.303 454.683 -0.323 C467.366 -0.343 480.049 -0.349 492.732 -0.339 C499.606 -0.335 506.481 -0.336 513.355 -0.356 C519.644 -0.374 525.931 -0.373 532.219 -0.357 C534.499 -0.355 536.779 -0.359 539.059 -0.371 C542.149 -0.386 545.238 -0.377 548.328 -0.361 C549.668 -0.376 549.668 -0.376 551.035 -0.392 C557.315 -0.321 561.001 1.241 565.56 5.767 C569.151 10.355 570.041 12.36 570.047 18.158 C570.051 19.45 570.055 20.743 570.059 22.075 C570.058 23.523 570.057 24.971 570.056 26.419 C570.059 27.947 570.062 29.474 570.065 31.002 C570.073 35.216 570.075 39.43 570.076 43.644 C570.078 48.182 570.085 52.721 570.092 57.26 C570.105 67.192 570.111 77.123 570.116 87.055 C570.119 93.253 570.123 99.452 570.127 105.65 C570.14 122.802 570.15 139.953 570.153 157.105 C570.153 158.203 570.154 159.302 570.154 160.433 C570.154 161.534 570.154 162.635 570.155 163.77 C570.155 166.001 570.155 168.233 570.156 170.464 C570.156 171.571 570.156 172.677 570.157 173.818 C570.16 191.755 570.178 209.692 570.201 227.629 C570.225 246.033 570.237 264.436 570.239 282.84 C570.239 293.178 570.245 303.515 570.263 313.853 C570.279 322.656 570.284 331.459 570.276 340.261 C570.272 344.754 570.273 349.247 570.287 353.74 C570.299 357.852 570.298 361.963 570.286 366.075 C570.284 367.564 570.287 369.052 570.296 370.541 C570.307 372.563 570.298 374.585 570.288 376.607 C570.288 378.293 570.288 378.293 570.289 380.012 C569.785 384.226 568.319 387.592 565.451 390.744 C561.029 394.169 557.954 396.388 552.297 396.375 C551.374 396.377 550.451 396.38 549.501 396.383 C548.496 396.376 547.491 396.369 546.456 396.361 C544.86 396.362 544.86 396.362 543.232 396.362 C539.715 396.361 536.198 396.345 532.681 396.33 C530.243 396.326 527.805 396.323 525.367 396.321 C518.949 396.313 512.531 396.294 506.113 396.272 C499.564 396.251 493.015 396.242 486.466 396.232 C473.616 396.21 460.766 396.175 447.916 396.134 C447.916 388.874 447.916 381.614 447.916 374.134 C480.916 374.134 513.916 374.134 547.916 374.134 C547.916 257.974 547.916 141.814 547.916 22.134 C367.406 22.134 186.896 22.134 0.916 22.134 C0.916 138.294 0.916 254.454 0.916 374.134 C61.636 374.134 122.356 374.134 184.916 374.134 C184.586 381.394 184.256 388.654 183.916 396.134 C158.89 396.273 133.864 396.38 108.838 396.445 C97.218 396.476 85.598 396.518 73.978 396.587 C63.849 396.647 53.721 396.685 43.592 396.699 C38.229 396.707 32.867 396.725 27.504 396.769 C22.455 396.809 17.406 396.822 12.356 396.813 C10.505 396.815 8.654 396.826 6.803 396.849 C-10.04 397.049 -10.04 397.049 -15.599 392.106 C-16.334 391.13 -16.334 391.13 -17.084 390.134 C-17.798 389.215 -18.511 388.296 -19.246 387.35 C-22.43 381.536 -21.635 374.731 -21.592 368.293 C-21.597 366.766 -21.603 365.238 -21.611 363.711 C-21.628 359.522 -21.62 355.333 -21.607 351.143 C-21.598 346.623 -21.612 342.102 -21.623 337.581 C-21.641 328.727 -21.637 319.874 -21.626 311.021 C-21.617 303.826 -21.615 296.63 -21.62 289.435 C-21.62 288.411 -21.621 287.387 -21.622 286.333 C-21.623 284.252 -21.624 282.172 -21.625 280.092 C-21.637 260.586 -21.624 241.08 -21.602 221.574 C-21.584 204.836 -21.587 188.097 -21.606 171.359 C-21.627 151.923 -21.636 132.487 -21.623 113.05 C-21.622 110.978 -21.621 108.906 -21.62 106.833 C-21.619 105.304 -21.619 105.304 -21.618 103.743 C-21.614 96.556 -21.62 89.37 -21.63 82.183 C-21.641 73.425 -21.638 64.667 -21.616 55.909 C-21.606 51.441 -21.602 46.972 -21.615 42.503 C-21.627 38.412 -21.62 34.322 -21.599 30.231 C-21.595 28.751 -21.597 27.272 -21.607 25.792 C-21.66 17.028 -21.633 10.988 -15.452 4.392 C-10.007 0.259 -6.724 -0.011 0 0 Z " fill="#080809" transform="translate(233.0843849182129,152.86577892303467)"/>
<path d="M0 0 C1.54 2.997 2.927 6.053 4.308 9.126 C9.652 20.892 16.026 30.619 25 40 C24.01 40.495 24.01 40.495 23 41 C21.156 40.243 21.156 40.243 18.93 39.016 C18.115 38.575 17.3 38.134 16.461 37.68 C15.608 37.208 14.754 36.736 13.875 36.25 C2.614 29.596 2.614 29.596 -10 28 C-12.284 29.82 -12.284 29.82 -12.039 32.469 C-11.215 35.279 -11.215 35.279 -8.211 36.344 C-6.936 36.743 -5.657 37.127 -4.375 37.5 C4.488 40.382 12.189 44.902 20.104 49.77 C21.51 50.609 21.51 50.609 22.945 51.465 C24.191 52.232 24.191 52.232 25.461 53.015 C28.67 54.26 30.706 53.808 34 53 C34.33 52.01 34.66 51.02 35 50 C44.011 52.534 49.1 60.242 53.844 67.734 C56.553 71.838 59.557 75.66 62.675 79.459 C65.358 82.821 66.874 85.854 68 90 C68.66 90 69.32 90 70 90 C71.102 88.16 72.131 86.276 73.125 84.375 C76.69 78.045 80.536 74.232 87 71 C90.125 70.491 92.166 70.468 94.879 72.199 C99.1 75.698 101.612 78.397 102.441 83.961 C102.849 95.449 99.163 103.882 92.25 112.938 C86.708 118.807 78.075 124.661 69.842 125.12 C67.894 125.124 65.947 125.067 64 125 C63.204 126.388 62.408 127.776 61.613 129.165 C60.902 130.407 60.19 131.649 59.477 132.89 C57.529 136.287 55.612 139.697 53.746 143.141 C49.452 151.033 45.073 158.308 39 165 C38.179 165.914 37.358 166.828 36.512 167.77 C22.104 183.011 2.418 192.646 -18.586 193.454 C-39.184 193.802 -54.924 186.249 -69.802 172.29 C-83.135 159.225 -93.777 140.197 -94.496 121.199 C-94.501 118.695 -94.48 116.191 -94.438 113.688 C-94.427 112.306 -94.416 110.925 -94.406 109.543 C-94.151 88.672 -92.476 67.813 -91 47 C-90.441 46.895 -89.883 46.789 -89.307 46.68 C-86.724 46.189 -84.143 45.688 -81.562 45.188 C-80.684 45.022 -79.806 44.856 -78.9 44.686 C-73.771 43.682 -68.9 42.422 -63.982 40.646 C-60.465 39.499 -57.543 38.999 -54 40 C-45.321 44.928 -39.639 52.687 -35.836 61.785 C-31.987 76.586 -36.207 92.035 -40.602 106.191 C-40.874 107.074 -41.147 107.958 -41.427 108.867 C-41.96 110.571 -42.506 112.269 -43.069 113.963 C-45.101 120.336 -46.503 126.722 -43.625 133 C-42.149 135.097 -42.149 135.097 -40 136 C-37.959 136.071 -35.917 136.084 -33.875 136.062 C-32.231 136.049 -32.231 136.049 -30.555 136.035 C-29.712 136.024 -28.869 136.012 -28 136 C-28.495 133.525 -28.495 133.525 -29 131 C-30.134 130.691 -31.269 130.381 -32.438 130.062 C-36 129 -36 129 -37 128 C-37.201 121.808 -35.502 115.979 -33.688 110.125 C-27.949 91.415 -22.362 71.298 -32 53 C-36.196 46.241 -41.138 40.367 -47 35 C-43.956 32.479 -40.718 30.764 -37.213 28.994 C-23.117 21.866 -9.723 12.639 0 0 Z " fill="#FEFEFE" transform="translate(546,449)"/>
<path d="M0 0 C2.046 -0.012 4.089 -0.061 6.134 -0.112 C14.866 -0.219 21.005 1.348 28.681 5.426 C31.198 6.418 33.725 7.224 36.306 8.051 C36.946 8.258 37.587 8.465 38.246 8.679 C40.056 9.265 41.868 9.846 43.681 10.426 C45.244 10.943 46.807 11.464 48.368 11.988 C49.407 12.33 49.407 12.33 50.466 12.679 C52.105 13.232 53.737 13.805 55.364 14.39 C62.424 16.875 69.378 18.48 76.724 19.812 C79.681 20.426 79.681 20.426 80.681 21.426 C82.846 29.677 82.956 37.887 82.868 46.363 C82.867 48.17 82.867 48.17 82.866 50.013 C82.818 59.637 82.818 59.637 81.681 63.426 C65.098 68.196 52.421 67.291 36.647 61.09 C21.472 55.962 3.722 58.49 -10.319 65.426 C-11.204 65.851 -12.088 66.276 -12.999 66.715 C-14.783 67.597 -16.553 68.507 -18.319 69.426 C-18.979 69.426 -19.639 69.426 -20.319 69.426 C-20.661 66.224 -20.526 64.75 -18.772 61.996 C-10.533 52.85 -1.334 47.217 10.681 44.426 C10.681 43.106 10.681 41.786 10.681 40.426 C-1.491 39.189 -11.524 44.618 -21.65 50.746 C-24.5 52.463 -27.013 53.876 -30.319 54.426 C-30.319 48.657 -27.452 45.585 -23.679 41.597 C-17.084 35.527 -5.485 28.426 3.681 28.426 C3.186 26.941 3.186 26.941 2.681 25.426 C-10.162 24.606 -19.691 28.3 -30.921 34.254 C-33.319 35.426 -33.319 35.426 -35.319 35.426 C-34.467 29.503 -31.754 26.31 -27.319 22.426 C-19.609 17.506 -11.084 14.829 -2.319 12.426 C-2.319 11.436 -2.319 10.446 -2.319 9.426 C-15.974 8.963 -15.974 8.963 -29.409 10.988 C-31.319 11.426 -31.319 11.426 -35.319 11.426 C-34.319 8.426 -34.319 8.426 -31.913 6.89 C-30.892 6.386 -29.871 5.882 -28.819 5.363 C-27.819 4.856 -26.819 4.35 -25.788 3.828 C-17.337 0.411 -9.045 0.025 0 0 Z " fill="#FEFEFE" transform="translate(523.3193359375,847.574462890625)"/>
<path d="M0 0 C0.99 0.33 1.98 0.66 3 1 C3.948 5.106 4.294 7.335 2.566 11.246 C1.905 12.299 1.244 13.352 0.562 14.438 C-3.401 21.34 -3.401 21.34 -3 29 C1.139 33.363 4.936 34.124 10.758 34.309 C32.05 34.823 51.435 31.898 71.083 23.273 C76.034 21.134 80.623 20.34 86 20 C85.701 23.352 85.47 25.439 83.277 28.055 C71.23 37.427 57.324 43.055 43 48 C42.098 48.318 41.195 48.637 40.266 48.965 C33.336 51.241 26.221 52.116 19 53 C18.618 54.656 18.286 56.325 18 58 C19.229 59.453 19.229 59.453 22.938 59.191 C28.148 59.127 32.955 58.179 38 56.938 C38.914 56.715 39.827 56.492 40.768 56.263 C55.992 52.378 71.894 45.737 85 37 C85.99 37 86.98 37 88 37 C88.682 40.749 87.967 42.049 85.812 45.25 C78.052 53.632 67.314 59.399 57 64 C55.826 64.526 54.651 65.052 53.441 65.594 C44.779 69.329 36.314 71.494 27 73 C27.33 74.98 27.66 76.96 28 79 C45.863 79.652 64.266 69.565 79.207 60.504 C82 59 82 59 85 59 C84.161 66.357 78.214 70.281 72.848 74.82 C58.692 85.518 38.017 94.565 20.188 95.5 C18.724 95.608 18.724 95.608 17.23 95.719 C10.818 94.292 6.601 89.151 2.98 83.898 C2.034 82.4 1.103 80.892 0.188 79.375 C-0.315 78.56 -0.818 77.744 -1.336 76.904 C-23.453 40.493 -23.453 40.493 -22.594 30.035 C-19.326 18.836 -8.16 8.047 0 0 Z " fill="#FEFEFE" transform="translate(359,816)"/>
<path d="M0 0 C4.127 1.824 6.176 3.873 8 8 C8.582 13.417 6.951 16.932 4.562 21.625 C1.809 27.133 1.809 27.133 0 33 C13.386 33.324 25.984 33.487 39 30 C39.92 29.772 40.841 29.544 41.789 29.309 C48.01 27.703 54.133 25.744 60.256 23.801 C78.417 18.041 78.417 18.041 84.938 20.828 C87.211 22.293 88.781 23.562 90 26 C90.125 29.062 90.125 29.062 90 32 C89.67 32.33 89.34 32.66 89 33 C88.674 36.015 88.569 37.461 90.5 39.875 C92.706 43 92.394 45.262 92 49 C90.844 51.313 89.826 53.174 88 55 C88.199 57.19 88.435 59.378 88.688 61.562 C89.394 70.604 87.106 74.721 81.388 81.483 C66.841 97.382 38.962 109.22 17.887 111.309 C9.669 111.64 5.133 110.437 -1 105 C-7.177 98.825 -11.703 92.07 -16 84.5 C-16.603 83.452 -17.206 82.404 -17.827 81.324 C-22.701 72.755 -27.063 64.034 -31 55 C-31.553 53.832 -32.106 52.664 -32.676 51.461 C-35.134 45.037 -35.14 37.939 -33.227 31.328 C-28.221 20.466 -13.657 -2.034 0 0 Z M-5 8 C-10.134 12.872 -14.56 18.036 -18.812 23.688 C-19.384 24.433 -19.956 25.179 -20.545 25.947 C-26.006 33.051 -26.006 33.051 -27.303 41.787 C-26.735 45.932 -24.978 49.503 -23.188 53.25 C-22.787 54.11 -22.387 54.971 -21.975 55.857 C-10.494 82.772 -10.494 82.772 9 103 C23.44 106.05 39.237 98.096 52 92 C53.703 91.215 53.703 91.215 55.441 90.414 C64.865 85.765 74.103 78.846 80 70 C80 69.01 80 68.02 80 67 C74.887 67.542 71.143 70.066 66.812 72.625 C60.496 76.247 54.173 79.386 47.375 82 C46.294 82.417 46.294 82.417 45.191 82.842 C37.773 85.601 30.951 87.284 23 87 C22.67 85.02 22.34 83.04 22 81 C22.828 80.888 23.655 80.776 24.508 80.66 C45.489 77.194 67.214 67.61 81.938 51.938 C83.274 49.5 83.228 47.737 83 45 C78.858 45.576 76.139 46.958 72.625 49.188 C66.775 52.703 60.867 55.25 54.512 57.66 C51.688 58.738 48.949 59.903 46.188 61.125 C41.55 62.977 36.794 64.132 31.938 65.25 C31.193 65.425 30.449 65.601 29.682 65.782 C24.362 66.943 19.443 67.151 14 67 C13.67 65.35 13.34 63.7 13 62 C16.203 60.398 18.949 59.872 22.469 59.656 C28.492 59.093 33.922 57.393 39.625 55.438 C40.674 55.081 41.723 54.725 42.803 54.357 C64.419 46.823 64.419 46.823 81 32 C81 30.68 81 29.36 81 28 C74.071 28.473 68.683 30.077 62.312 32.75 C46.077 39.143 31.014 42.413 13.5 42.5 C12.253 42.506 11.006 42.513 9.721 42.52 C2.734 42.42 -2.784 42.216 -8 37 C-9.238 29.709 -6.269 25.354 -2.434 19.246 C-0.706 15.335 -1.052 13.106 -2 9 C-2.99 8.67 -3.98 8.34 -5 8 Z " fill="#080809" transform="translate(364,808)"/>
<path d="M0 0 C3.272 2.182 3.699 3.023 5.166 6.518 C5.569 7.464 5.972 8.411 6.387 9.387 C6.817 10.424 7.248 11.462 7.691 12.531 C8.149 13.615 8.608 14.698 9.08 15.814 C10.582 19.372 12.072 22.936 13.562 26.5 C14.592 28.945 15.623 31.39 16.655 33.835 C18.228 37.563 19.8 41.291 21.368 45.02 C24.717 52.982 28.102 60.928 31.523 68.859 C31.946 69.84 32.369 70.821 32.804 71.831 C34.407 75.548 36.011 79.264 37.619 82.979 C38.706 85.49 39.789 88.002 40.871 90.516 C41.192 91.253 41.513 91.99 41.843 92.749 C44 97.773 44 97.773 44 100 C22.025 101.101 -0.871 97.287 -17.797 82.422 C-24.424 75.663 -26.387 66.397 -26.562 57.188 C-26.466 48.912 -24.265 41.584 -21 34 C-20.727 33.361 -20.453 32.722 -20.171 32.063 C-15.268 20.914 -8.676 8.676 0 0 Z " fill="#FEFEFE" transform="translate(252,827)"/>
<path d="M0 0 C3.433 1.137 6.858 2.294 10.277 3.473 C11.831 4.003 13.384 4.533 14.938 5.062 C16.097 5.466 16.097 5.466 17.279 5.877 C18.042 6.135 18.804 6.394 19.59 6.66 C20.609 7.01 20.609 7.01 21.648 7.367 C27.44 8.925 33.283 9.178 39.25 9.238 C40.414 9.25 40.414 9.25 41.601 9.263 C43.238 9.277 44.875 9.287 46.512 9.295 C48.157 9.307 49.801 9.327 51.445 9.357 C62.708 9.56 72.255 8.483 83 5 C84.978 4.414 86.958 3.831 88.938 3.25 C90.292 2.836 91.647 2.42 93 2 C92.825 2.581 92.65 3.162 92.469 3.761 C90.43 10.541 88.425 17.33 86.438 24.125 C85.982 25.674 85.982 25.674 85.518 27.254 C83.893 32.812 82.357 38.37 81 44 C78.044 44.822 75.086 45.633 72.125 46.438 C71.303 46.668 70.48 46.898 69.633 47.135 C52.678 51.705 31.768 52.557 15 47 C14.042 46.71 13.084 46.42 12.098 46.121 C4.774 43.72 -4.153 40.116 -8 33 C-8.815 25.899 -6.729 19.841 -4.562 13.125 C-4.237 12.081 -3.912 11.037 -3.576 9.961 C-1.203 2.406 -1.203 2.406 0 0 Z " fill="#FEFEFE" transform="translate(494,658)"/>
<path d="M0 0 C1.587 -0.005 3.174 -0.012 4.762 -0.022 C9.063 -0.04 13.365 -0.027 17.666 -0.008 C22.172 0.009 26.677 -0 31.183 -0.005 C38.749 -0.01 46.314 0.006 53.88 0.034 C62.622 0.066 71.364 0.066 80.106 0.049 C88.522 0.033 96.938 0.04 105.354 0.057 C108.933 0.064 112.511 0.063 116.09 0.055 C120.306 0.048 124.521 0.06 128.737 0.087 C130.283 0.094 131.828 0.094 133.374 0.087 C135.487 0.078 137.599 0.094 139.712 0.116 C140.893 0.119 142.074 0.122 143.291 0.125 C147.262 0.743 149.445 2.11 152.543 4.631 C153.668 7.569 153.668 7.569 153.543 10.631 C151.773 13.378 150.48 15.163 147.543 16.631 C145.413 16.734 143.28 16.771 141.148 16.778 C140.484 16.782 139.82 16.786 139.136 16.789 C136.902 16.8 134.667 16.804 132.432 16.808 C130.834 16.814 129.236 16.821 127.638 16.828 C123.289 16.845 118.94 16.856 114.59 16.864 C111.874 16.869 109.158 16.875 106.442 16.882 C97.948 16.901 89.453 16.915 80.959 16.923 C71.147 16.933 61.335 16.959 51.523 17 C43.944 17.03 36.364 17.045 28.784 17.048 C24.255 17.05 19.726 17.059 15.197 17.085 C10.937 17.108 6.676 17.112 2.415 17.102 C0.852 17.101 -0.712 17.108 -2.276 17.121 C-4.411 17.139 -6.545 17.132 -8.681 17.119 C-9.876 17.121 -11.071 17.124 -12.302 17.126 C-16.123 16.527 -17.764 15.367 -20.457 12.631 C-21.645 9.194 -21.645 9.194 -21.457 5.631 C-16.109 -1.384 -8.04 -0.066 0 0 Z " fill="#080809" transform="translate(295.45703125,237.368896484375)"/>
<path d="M0 0 C12.091 18.892 13.527 47.54 8.871 69.133 C7.85 73.242 6.453 76.967 5 81 C-4.9 81 -14.8 81 -25 81 C-23 70 -23 70 -21.895 66.281 C-20.235 59.869 -20.654 53.08 -20.688 46.5 C-20.689 45.784 -20.69 45.069 -20.692 44.332 C-20.744 30.446 -21.979 18.06 -27.23 5.039 C-28 3 -28 3 -28 1 C-22.418 -0.469 -16.941 -1.309 -11.188 -1.75 C-9.923 -1.848 -8.658 -1.946 -7.355 -2.047 C-2.524 -1.979 -2.524 -1.979 0 0 Z " fill="#FEFEFE" transform="translate(636,848)"/>
<path d="M0 0 C0.678 -0.005 1.355 -0.009 2.053 -0.014 C4.329 -0.026 6.604 -0.017 8.88 -0.007 C10.509 -0.011 12.138 -0.017 13.768 -0.023 C18.198 -0.037 22.627 -0.032 27.057 -0.022 C31.689 -0.014 36.321 -0.021 40.953 -0.026 C48.733 -0.032 56.513 -0.024 64.294 -0.01 C73.292 0.006 82.29 0.001 91.288 -0.016 C99.009 -0.029 106.73 -0.031 114.45 -0.023 C119.064 -0.019 123.677 -0.018 128.29 -0.028 C132.628 -0.037 136.966 -0.031 141.304 -0.013 C142.897 -0.009 144.49 -0.01 146.083 -0.017 C148.256 -0.025 150.428 -0.015 152.601 0 C154.426 0.002 154.426 0.002 156.288 0.003 C159.636 0.414 161.052 0.95 163.364 3.381 C163.923 7.222 164.093 9.39 161.752 12.571 C158.576 14.978 156.619 14.889 152.653 14.902 C151.979 14.91 151.305 14.918 150.611 14.926 C148.355 14.946 146.099 14.938 143.843 14.93 C142.225 14.939 140.607 14.949 138.989 14.961 C134.594 14.988 130.2 14.989 125.805 14.984 C122.137 14.982 118.469 14.992 114.801 15.001 C106.148 15.024 97.495 15.024 88.841 15.012 C79.913 15 70.985 15.025 62.056 15.067 C54.392 15.103 46.727 15.115 39.062 15.108 C34.484 15.105 29.906 15.11 25.328 15.138 C21.022 15.163 16.718 15.159 12.413 15.133 C10.833 15.128 9.253 15.134 7.673 15.15 C5.515 15.171 3.36 15.155 1.203 15.129 C-0.608 15.13 -0.608 15.13 -2.455 15.13 C-6.989 14.062 -8.086 12.222 -10.636 8.381 C-10.636 5.469 -10.154 4.113 -8.488 1.76 C-5.707 -0.311 -3.437 0.003 0 0 Z " fill="#080809" transform="translate(284.63584899902344,317.6190490722656)"/>
<path d="M0 0 C0.76 -0.005 1.519 -0.009 2.302 -0.014 C4.843 -0.026 7.383 -0.025 9.924 -0.023 C11.748 -0.029 13.571 -0.036 15.395 -0.043 C20.345 -0.061 25.296 -0.066 30.246 -0.067 C34.379 -0.069 38.512 -0.076 42.644 -0.083 C52.394 -0.1 62.144 -0.105 71.893 -0.103 C81.952 -0.102 92.01 -0.123 102.068 -0.155 C110.704 -0.181 119.34 -0.192 127.977 -0.19 C133.134 -0.19 138.292 -0.195 143.45 -0.217 C148.3 -0.236 153.15 -0.236 158 -0.222 C159.779 -0.219 161.559 -0.224 163.338 -0.236 C165.769 -0.252 168.198 -0.242 170.629 -0.227 C171.331 -0.237 172.034 -0.248 172.758 -0.258 C178.059 -0.184 181.626 1.515 185.378 5.267 C185.378 7.577 185.378 9.887 185.378 12.267 C118.388 12.267 51.398 12.267 -17.622 12.267 C-17.622 6.267 -17.622 6.267 -15.435 4.017 C-10.25 0.791 -6.056 -0.027 0 0 Z " fill="#FEFEFE" transform="translate(263.62217712402344,767.7325744628906)"/>
<path d="M0 0 C1.092 -0.008 2.184 -0.017 3.309 -0.026 C5.099 -0.017 5.099 -0.017 6.926 -0.007 C8.186 -0.012 9.447 -0.018 10.745 -0.023 C14.2 -0.037 17.654 -0.032 21.109 -0.022 C24.726 -0.014 28.343 -0.021 31.96 -0.026 C38.036 -0.032 44.111 -0.024 50.186 -0.01 C57.206 0.006 64.226 0.001 71.246 -0.016 C77.276 -0.029 83.305 -0.031 89.335 -0.023 C92.935 -0.019 96.535 -0.018 100.135 -0.028 C104.15 -0.038 108.165 -0.024 112.18 -0.007 C113.371 -0.013 114.562 -0.019 115.79 -0.026 C116.885 -0.017 117.98 -0.009 119.108 0 C120.057 0.001 121.005 0.002 121.983 0.003 C125.169 0.46 127.061 1.444 129.617 3.381 C130.18 6.318 130.18 6.318 129.617 9.381 C127.564 12 126.375 13.232 123.072 13.882 C121.623 13.882 121.623 13.882 120.145 13.882 C118.478 13.897 118.478 13.897 116.776 13.912 C115.561 13.902 114.346 13.893 113.094 13.883 C111.81 13.888 110.527 13.893 109.205 13.899 C105.688 13.913 102.172 13.902 98.656 13.885 C94.976 13.871 91.297 13.878 87.617 13.881 C81.44 13.884 75.262 13.871 69.084 13.848 C61.939 13.821 54.794 13.819 47.649 13.831 C40.778 13.842 33.906 13.835 27.034 13.821 C24.109 13.816 21.184 13.816 18.258 13.82 C14.176 13.826 10.094 13.807 6.012 13.785 C4.186 13.792 4.186 13.792 2.323 13.799 C1.214 13.789 0.105 13.779 -1.038 13.769 C-2.486 13.765 -2.486 13.765 -3.963 13.761 C-6.383 13.381 -6.383 13.381 -8.189 12.075 C-10.21 9.206 -9.804 6.754 -9.383 3.381 C-6.403 0.394 -4.134 0.005 0 0 Z " fill="#080809" transform="translate(284.38267517089844,385.6190490722656)"/>
<path d="M0 0 C1.533 3.95 0.42 6.638 -0.875 10.562 C-1.094 11.237 -1.313 11.911 -1.539 12.605 C-2.346 15.074 -3.172 17.537 -4 20 C-4.733 22.189 -5.466 24.378 -6.199 26.566 C-6.586 27.721 -6.972 28.875 -7.371 30.064 C-11.937 43.71 -16.3 57.137 -19.188 71.25 C-19.355 72.067 -19.522 72.883 -19.695 73.724 C-25.735 104.556 -22.261 134.031 -6 161 C-3.545 164.552 -0.887 167.793 2 171 C2.767 171.862 3.534 172.725 4.324 173.613 C5.858 175.324 7.398 177.029 8.945 178.727 C11.381 181.422 13.704 184.186 16 187 C2.011 184.648 -9.654 173.932 -18 163 C-20.976 158.501 -23.518 153.784 -26 149 C-26.423 148.196 -26.846 147.391 -27.281 146.562 C-32.87 135.046 -33.515 122.806 -33.375 110.25 C-33.37 109.497 -33.365 108.743 -33.36 107.967 C-33.275 97.038 -32.818 86.626 -30 76 C-29.78 75.107 -29.559 74.214 -29.332 73.293 C-14.835 14.835 -14.835 14.835 0 0 Z " fill="#F4F4F4" transform="translate(618,619)"/>
<path d="M0 0 C0 0.33 0 0.66 0 1 C-6.499 0.108 -6.499 0.108 -9.424 -0.522 C-34.556 -5.181 -59.848 3.599 -80.765 17.143 C-84.322 19.588 -87.679 22.246 -91 25 C-91.86 25.708 -92.72 26.415 -93.605 27.145 C-107.525 39.122 -117.315 53.968 -124 71 C-124.393 71.985 -124.786 72.97 -125.191 73.984 C-130.741 90.149 -129.213 107.965 -124 124 C-129.432 118.81 -129.432 118.81 -131.125 115.188 C-131.416 114.583 -131.708 113.978 -132.008 113.355 C-132.335 112.578 -132.663 111.801 -133 111 C-133.522 109.805 -134.044 108.61 -134.582 107.379 C-140.239 92.003 -135.487 73.165 -129.01 58.805 C-115.368 30.637 -90.486 9.214 -61.625 -2.312 C-41.988 -8.779 -17.717 -13.182 0 0 Z " fill="#F4F4F4" transform="translate(549,371)"/>
<path d="M0 0 C0.84 -0.008 1.68 -0.017 2.545 -0.026 C3.463 -0.02 4.381 -0.013 5.327 -0.007 C6.781 -0.015 6.781 -0.015 8.264 -0.023 C11.475 -0.036 14.686 -0.028 17.897 -0.017 C20.125 -0.02 22.353 -0.022 24.582 -0.026 C29.255 -0.031 33.928 -0.024 38.601 -0.01 C44.595 0.007 50.588 -0.003 56.582 -0.021 C61.184 -0.032 65.786 -0.028 70.389 -0.02 C72.599 -0.018 74.809 -0.021 77.019 -0.028 C80.107 -0.036 83.195 -0.024 86.284 -0.007 C87.2 -0.013 88.116 -0.019 89.059 -0.026 C95.283 0.037 95.283 0.037 98.469 1.905 C98.931 2.392 99.393 2.879 99.87 3.381 C99.258 9.866 99.258 9.866 97.583 12.087 C95.478 13.677 94.395 13.76 91.777 13.769 C90.946 13.779 90.115 13.788 89.258 13.799 C88.35 13.794 87.441 13.79 86.505 13.785 C85.065 13.795 85.065 13.795 83.597 13.806 C80.418 13.824 77.24 13.82 74.061 13.815 C71.855 13.819 69.65 13.824 67.444 13.83 C62.818 13.839 58.192 13.837 53.566 13.827 C47.633 13.816 41.7 13.836 35.767 13.865 C31.211 13.883 26.655 13.883 22.098 13.877 C19.911 13.877 17.723 13.883 15.535 13.896 C12.478 13.91 9.422 13.9 6.364 13.883 C5.004 13.897 5.004 13.897 3.617 13.912 C-2.49 13.84 -2.49 13.84 -5.696 11.541 C-7.637 8.618 -7.642 6.82 -7.13 3.381 C-4.97 0.556 -3.505 0.005 0 0 Z " fill="#080809" transform="translate(282.13023376464844,449.6190490722656)"/>
<path d="M0 0 C1.32 0 2.64 0 4 0 C3.627 12.857 3.231 25.676 1.792 38.464 C1.294 42.923 0.896 47.364 0.637 51.844 C-0.885 77.33 -7.138 100.001 -16.647 123.634 C-18.665 128.655 -20.619 133.7 -22.562 138.75 C-22.885 139.565 -23.207 140.379 -23.539 141.218 C-26.144 147.937 -28.061 154.636 -28.312 161.875 C-28.675 165.725 -28.675 165.725 -31.438 168.062 C-34 169 -34 169 -36 169 C-37.749 147.912 -28.571 128.719 -20.84 109.577 C-19.552 106.388 -18.276 103.194 -17 100 C-16.617 99.053 -16.234 98.106 -15.839 97.13 C-12.792 89.251 -11.072 81.124 -9.375 72.875 C-9.222 72.143 -9.069 71.41 -8.912 70.655 C-5.953 56.441 -4.104 42.557 -3.466 28.048 C-2.986 18.621 -1.472 9.314 0 0 Z " fill="#F4F4F4" transform="translate(432,512)"/>
<path d="M0 0 C0.66 0 1.32 0 2 0 C2.28 1.165 2.559 2.331 2.848 3.531 C5.162 13.038 7.686 22.441 10.5 31.812 C13.95 43.427 16.75 55.095 19 67 C19.165 67.867 19.33 68.733 19.5 69.626 C24.354 96.034 24.908 124.24 10.305 147.727 C5.927 153.652 -0.39 161.763 -8 163 C-7.175 162.113 -6.35 161.226 -5.5 160.312 C11.054 140.862 14.973 117.755 14 93 C13.969 91.907 13.938 90.814 13.906 89.688 C13.445 80.651 11.525 71.914 9.652 63.087 C8.913 59.588 8.192 56.085 7.473 52.582 C4.746 39.208 4.746 39.208 1.859 25.867 C-0.072 17.176 -0.112 8.881 0 0 Z " fill="#F4F4F4" transform="translate(677,642)"/>
<path d="M0 0 C4.045 3.437 5.687 7.249 7.75 12 C18.964 36.72 38.31 56.91 62 70 C58.891 71.554 56.256 70.101 53.125 69.062 C41.144 65.045 32.05 57.65 23 49 C22.313 48.388 21.626 47.775 20.918 47.145 C14.614 41.314 10.362 34.321 6 27 C5.542 26.243 5.085 25.487 4.613 24.707 C0.41 17.128 -0.322 8.525 0 0 Z " fill="#F4F4F4" transform="translate(555,433)"/>
<path d="M0 0 C2.434 0.039 2.434 0.039 5 1 C6.66 3.398 6.66 3.398 8.062 6.375 C9.905 10.244 11.245 12.806 15 15 C20.492 15.845 23.768 14.506 28.215 11.508 C30.728 9.385 32.245 6.757 34 4 C36.062 2.938 36.062 2.938 38 3 C39.812 4.125 39.812 4.125 41 6 C41 11.435 37.193 16.707 33.547 20.52 C28.267 25.119 23.325 27.666 16.309 27.418 C11.143 26.483 7.43 23.391 3.75 19.812 C0.403 14.434 -2.656 8.472 -2 2 C-1.34 1.34 -0.68 0.68 0 0 Z " fill="#080809" transform="translate(537,531)"/>
<path d="M0 0 C1.454 0.031 1.454 0.031 2.938 0.062 C3.525 1.857 3.525 1.857 4.125 3.688 C5.793 8.047 7.46 10.901 10.938 14.062 C15.08 14.802 17.064 14.579 20.688 12.438 C23.109 10.13 23.109 10.13 24.438 6.875 C25.938 4.062 25.938 4.062 28.5 3.062 C29.304 3.062 30.109 3.062 30.938 3.062 C31.597 3.722 32.257 4.383 32.938 5.062 C32.792 12.354 29.29 17.994 24.25 23.062 C19.696 25.812 16.128 26.064 10.938 25.062 C4.278 22.269 -0.066 17.782 -2.812 11.125 C-4.011 7.685 -4.42 4.727 -4.062 1.062 C-3.062 0.062 -3.062 0.062 0 0 Z " fill="#080809" transform="translate(471.0625,525.9375)"/>
<path d="M0 0 C-0.33 5.61 -0.66 11.22 -1 17 C-19.822 23.815 -38.914 25.89 -58 19 C-58.33 18.34 -58.66 17.68 -59 17 C-58.402 17.016 -57.803 17.031 -57.187 17.048 C-36.252 17.524 -19.155 15.23 -2.574 1.285 C-1 0 -1 0 0 0 Z " fill="#E7E8E8" transform="translate(579,636)"/>
<path d="M0 0 C-1.5 3.199 -3.331 6.016 -5.312 8.938 C-13.825 22.454 -16.084 35.232 -13.312 50.883 C-12.636 53.633 -11.9 56.316 -11 59 C-12.98 59.495 -12.98 59.495 -15 60 C-15.656 58.797 -16.299 57.587 -16.938 56.375 C-17.297 55.702 -17.657 55.029 -18.027 54.336 C-21.802 45.27 -21.546 31.196 -18.375 22 C-8.797 0 -8.797 0 0 0 Z " fill="#E7E8E8" transform="translate(499,415)"/>
<path d="M0 0 C0.99 0.33 1.98 0.66 3 1 C2.257 2.072 1.515 3.145 0.75 4.25 C-8.189 18.971 -7.08 35.443 -5 52 C-6.32 52 -7.64 52 -9 52 C-14.289 42.832 -13.267 27.558 -11.316 17.461 C-9.007 10.658 -5.056 5.056 0 0 Z " fill="#E7E8E8" transform="translate(466,431)"/>
<path d="M0 0 C1.32 0.66 2.64 1.32 4 2 C3.809 4.297 3.809 4.297 3 7 C0.785 8.766 0.785 8.766 -1.938 10.25 C-2.833 10.75 -3.729 11.25 -4.652 11.766 C-9.205 14.16 -12.873 14.779 -18 14 C-22.283 12.455 -26.345 10.735 -30 8 C-30.844 5.293 -30.844 5.293 -31 3 C-28.875 2.25 -28.875 2.25 -26 2 C-24.701 2.959 -24.701 2.959 -23.375 3.938 C-18.599 6.856 -14.469 6.808 -9 6 C-5.428 4.64 -2.713 2.713 0 0 Z " fill="#121213" transform="translate(532,599)"/>
<path d="M0 0 C2.143 3.214 3.481 6.455 5 10 C5.99 11.485 5.99 11.485 7 13 C7.538 16.315 7.889 19.629 8.242 22.969 C8.734 26.072 8.734 26.072 10.93 27.863 C12.97 28.983 14.716 29.592 17 30 C17 32.31 17 34.62 17 37 C13.04 37 9.08 37 5 37 C4.897 35.494 4.794 33.989 4.688 32.438 C4.267 27.703 3.476 23.151 2.5 18.5 C1.206 12.334 0.379 6.286 0 0 Z " fill="#F4F4F4" transform="translate(476,883)"/>
<path d="M0 0 C0.798 0.006 1.596 0.012 2.418 0.018 C9.99 0.146 15.925 0.553 22.188 5.25 C8.987 5.25 -4.212 5.25 -17.812 5.25 C-12.551 -0.011 -7.055 -0.085 0 0 Z " fill="#F4F4F4" transform="translate(541.8125,914.75)"/>
<path d="M0 0 C0.99 1.32 1.98 2.64 3 4 C3.33 3.01 3.66 2.02 4 1 C4.66 1 5.32 1 6 1 C5.859 3.438 5.712 5.875 5.562 8.312 C5.504 9.348 5.504 9.348 5.443 10.404 C5.251 13.472 4.977 16.07 4 19 C1.69 19 -0.62 19 -3 19 C-1.514 1.514 -1.514 1.514 0 0 Z " fill="#8B898B" transform="translate(565,564)"/>
<path d="M0 0 C2.97 0.495 2.97 0.495 6 1 C6.233 7.283 5.405 12.88 4 19 C3.34 19 2.68 19 2 19 C1.67 17.68 1.34 16.36 1 15 C0.01 16.32 -0.98 17.64 -2 19 C-2.248 12.429 -1.324 6.43 0 0 Z " fill="#8B898B" transform="translate(470,556)"/>
<path d="M0 0 C0.66 0 1.32 0 2 0 C1.036 13.633 1.036 13.633 0 20 C-0.66 20 -1.32 20 -2 20 C-2.227 13.067 -1.42 6.783 0 0 Z " fill="#5B595A" transform="translate(559,563)"/>
<path d="M0 0 C0.33 0 0.66 0 1 0 C1.202 6.36 0.628 11.852 -1 18 C-1.66 18 -2.32 18 -3 18 C-2.57 11.749 -1.986 5.958 0 0 Z " fill="#4F4D4F" transform="translate(486,558)"/>
<path d="M0 0 C0.66 0 1.32 0 2 0 C1.59 6.578 1.134 12.741 -1 19 C-1.33 19 -1.66 19 -2 19 C-2.214 12.356 -1.512 6.468 0 0 Z " fill="#5B595A" transform="translate(480,557)"/>
<path d="M0 0 C0.66 0 1.32 0 2 0 C1.885 2.042 1.757 4.084 1.625 6.125 C1.521 7.83 1.521 7.83 1.414 9.57 C1.006 12.954 0.19 15.816 -1 19 C-1.33 19 -1.66 19 -2 19 C-1.858 16.771 -1.711 14.541 -1.562 12.312 C-1.481 11.071 -1.4 9.83 -1.316 8.551 C-1.055 5.618 -0.652 2.866 0 0 Z " fill="#4F4D4F" transform="translate(465,555)"/>
<path d="M0 0 C0.66 0 1.32 0 2 0 C1.59 6.578 1.134 12.741 -1 19 C-1.33 19 -1.66 19 -2 19 C-2.248 12.429 -1.324 6.43 0 0 Z " fill="#4F4D4F" transform="translate(460,555)"/>
<path d="M0 0 C1.456 4.521 0.27 7.516 -1 12 C-1.66 11.34 -2.32 10.68 -3 10 C-3.99 10.495 -3.99 10.495 -5 11 C-3.775 6.947 -2.301 3.556 0 0 Z " fill="#CACAC9" transform="translate(618,619)"/>
<path d="M0 0 C3.06 4.591 4.15 8.421 3.625 13.938 C3.419 14.948 3.212 15.959 3 17 C2.67 17 2.34 17 2 17 C1.34 11.39 0.68 5.78 0 0 Z " fill="#AEAFAF" transform="translate(476,883)"/>
<path d="M0 0 C0.99 0.33 1.98 0.66 3 1 C1.68 2.65 0.36 4.3 -1 6 C-2.32 5.67 -3.64 5.34 -5 5 C-3.35 3.35 -1.7 1.7 0 0 Z " fill="#E7E8E8" transform="translate(466,431)"/>
</svg>