<?xml version="1.0"?>
<svg xmlns="http://www.w3.org/2000/svg" xmlns:xlink="http://www.w3.org/1999/xlink" version="1.1" id="Layer_1" x="0px" y="0px" width="100%" viewBox="0 0 228 168" enable-background="new 0 0 228 168" xml:space="preserve" style="background-color:transparent;">
<!-- <path fill="#FDFDFD" opacity="1.000000" stroke="none" d=" M141.000000,169.000000   C94.000000,169.000000 47.500004,169.000000 1.000006,169.000000   C1.000004,113.000008 1.000004,57.000011 1.000002,1.000014   C76.999992,1.000009 152.999985,1.000009 228.999969,1.000005   C228.999985,56.999985 228.999985,112.999969 229.000000,168.999969   C199.833328,169.000000 170.666672,169.000000 141.000000,169.000000  M68.924377,161.844711   C71.221199,162.230774 73.511749,162.907806 75.815826,162.957520   C96.944290,163.413406 118.075073,163.762131 139.205673,164.112381   C139.396072,164.115524 139.593170,163.713974 139.904236,163.373016   C129.221039,149.022842 118.572311,134.606094 107.718605,120.345345   C106.810532,119.152214 104.528824,118.494553 102.874413,118.474228   C97.736122,118.411102 92.559631,119.245277 87.457100,118.887611   C70.411263,117.692787 58.686432,105.899895 56.208801,87.950928   C54.226105,73.587471 63.671516,57.949528 77.765015,52.744041   C85.573875,49.859810 93.720596,49.459614 101.881531,51.022842   C104.857597,51.592911 106.679985,50.868809 108.516823,48.346394   C118.215271,35.028183 128.129272,21.867022 137.943497,8.632848   C138.656189,7.671822 139.170410,6.563613 139.574478,5.870898   C123.504631,5.870898 107.686539,5.815397 91.869194,5.899926   C86.052124,5.931013 80.119919,5.621278 74.439186,6.610081   C28.334606,14.635164 8.975158,57.796352 12.000687,89.949768   C15.320831,125.234161 32.704624,150.827805 68.924377,161.844711  M149.950455,17.460489   C133.826111,39.648460 117.701759,61.836433 101.466591,84.176903   C117.929047,106.792694 134.742554,128.910065 150.357666,151.843384   C156.289062,160.554611 162.481567,164.081696 172.975021,163.269958   C186.128159,162.252502 199.419754,163.025131 213.562866,163.025131   C193.686157,136.045303 174.381134,109.841446 154.923462,83.430412   C174.358475,57.525169 193.739227,31.692249 213.636810,5.170447   C199.509079,5.170447 186.478348,5.992184 173.605774,4.918252   C162.719193,4.010007 155.009933,6.832542 149.950455,17.460489  z"/> -->
<path fill="#131313" opacity="1.000000" stroke="none" d=" M68.526520,161.735367   C32.704624,150.827805 15.320831,125.234161 12.000687,89.949768   C8.975158,57.796352 28.334606,14.635164 74.439186,6.610081   C80.119919,5.621278 86.052124,5.931013 91.869194,5.899926   C107.686539,5.815397 123.504631,5.870898 139.574478,5.870898   C139.170410,6.563613 138.656189,7.671822 137.943497,8.632848   C128.129272,21.867022 118.215271,35.028183 108.516823,48.346394   C106.679985,50.868809 104.857597,51.592911 101.881531,51.022842   C93.720596,49.459614 85.573875,49.859810 77.765015,52.744041   C63.671516,57.949528 54.226105,73.587471 56.208801,87.950928   C58.686432,105.899895 70.411263,117.692787 87.457100,118.887611   C92.559631,119.245277 97.736122,118.411102 102.874413,118.474228   C104.528824,118.494553 106.810532,119.152214 107.718605,120.345345   C118.572311,134.606094 129.221039,149.022842 139.904236,163.373016   C139.593170,163.713974 139.396072,164.115524 139.205673,164.112381   C118.075073,163.762131 96.944290,163.413406 75.815826,162.957520   C73.511749,162.907806 71.221199,162.230774 68.526520,161.735367  z"/>
<path fill="#131313" opacity="1.000000" stroke="none" d=" M150.167740,17.176170   C155.009933,6.832542 162.719193,4.010007 173.605774,4.918252   C186.478348,5.992184 199.509079,5.170447 213.636810,5.170447   C193.739227,31.692249 174.358475,57.525169 154.923462,83.430412   C174.381134,109.841446 193.686157,136.045303 213.562866,163.025131   C199.419754,163.025131 186.128159,162.252502 172.975021,163.269958   C162.481567,164.081696 156.289062,160.554611 150.357666,151.843384   C134.742554,128.910065 117.929047,106.792694 101.466591,84.176903   C117.701759,61.836433 133.826111,39.648460 150.167740,17.176170  z"/>
</svg>
