<svg version="1.1" xmlns="http://www.w3.org/2000/svg" width="1024" height="1024">
<path d="M0 0 C337.92 0 675.84 0 1024 0 C1024 337.92 1024 675.84 1024 1024 C686.08 1024 348.16 1024 0 1024 C0 686.08 0 348.16 0 0 Z " fill="#FEFEFE" transform="translate(0,0)"/>
<path d="M0 0 C2.786 -0.002 5.572 -0.021 8.357 -0.039 C10.139 -0.042 11.92 -0.044 13.701 -0.045 C14.943 -0.056 14.943 -0.056 16.21 -0.067 C20.115 -0.051 22.041 -0.031 25.365 2.185 C25.365 2.845 25.365 3.505 25.365 4.185 C26.819 3.907 26.819 3.907 28.303 3.623 C29.819 3.406 29.819 3.406 31.365 3.185 C32.976 4.796 32.536 6.526 32.553 8.748 C32.567 9.574 32.581 10.4 32.596 11.252 C32.297 15.055 31.319 18.49 30.365 22.185 C31.002 22.183 31.64 22.182 32.296 22.18 C47.786 22.136 63.275 22.102 78.764 22.082 C86.255 22.071 93.745 22.057 101.236 22.034 C107.763 22.015 114.29 22.002 120.817 21.997 C124.275 21.995 127.732 21.988 131.189 21.974 C135.045 21.958 138.9 21.957 142.755 21.958 C143.908 21.951 145.06 21.944 146.247 21.936 C147.293 21.939 148.339 21.942 149.417 21.945 C150.786 21.942 150.786 21.942 152.183 21.939 C154.365 22.185 154.365 22.185 156.365 24.185 C156.611 26.868 156.611 26.868 156.606 30.348 C156.61 32.321 156.61 32.321 156.614 34.334 C156.607 35.8 156.6 37.266 156.592 38.733 C156.592 40.27 156.592 41.807 156.593 43.344 C156.594 47.526 156.582 51.707 156.568 55.889 C156.556 60.256 156.554 64.623 156.552 68.99 C156.546 77.263 156.529 85.536 156.509 93.809 C156.487 103.226 156.476 112.643 156.466 122.06 C156.445 141.435 156.41 160.81 156.365 180.185 C157.066 179.836 157.768 179.487 158.49 179.127 C164.235 176.371 168.993 174.546 175.365 174.185 C175.362 173.415 175.36 172.645 175.357 171.851 C175.291 153.123 175.241 134.396 175.21 115.668 C175.194 106.611 175.173 97.555 175.139 88.499 C175.109 80.607 175.09 72.715 175.083 64.823 C175.079 60.642 175.07 56.462 175.048 52.282 C175.028 48.349 175.021 44.417 175.026 40.485 C175.025 39.04 175.019 37.594 175.008 36.149 C174.993 34.18 174.998 32.21 175.004 30.241 C175.002 29.137 174.999 28.034 174.996 26.897 C175.365 24.185 175.365 24.185 176.724 22.295 C178.365 21.185 178.365 21.185 180.99 21.373 C183.365 22.185 183.365 22.185 184.365 24.185 C184.459 26.149 184.487 28.116 184.485 30.082 C184.488 31.967 184.488 31.967 184.49 33.89 C184.486 35.29 184.482 36.69 184.479 38.09 C184.478 39.558 184.479 41.027 184.479 42.495 C184.479 46.488 184.474 50.482 184.467 54.476 C184.46 58.646 184.46 62.817 184.459 66.988 C184.455 74.889 184.447 82.79 184.437 90.691 C184.426 99.685 184.421 108.679 184.416 117.673 C184.405 136.177 184.388 154.681 184.365 173.185 C185.329 173.181 186.293 173.177 187.287 173.172 C189.181 173.167 189.181 173.167 191.114 173.162 C192.367 173.158 193.62 173.153 194.911 173.149 C215.825 173.37 237.072 185.054 251.908 199.099 C254.43 201.241 256.864 202.68 259.803 204.185 C288.521 219.009 301.19 252.242 313.99 279.845 C328.818 311.68 348.221 340.766 372.021 366.623 C374.051 368.842 376.03 371.092 377.99 373.373 C380.98 376.818 384.171 380.009 387.42 383.209 C389.2 385.018 390.851 386.874 392.49 388.81 C395.87 392.756 399.54 396.358 403.24 399.998 C409.057 405.749 414.367 411.699 419.365 418.185 C420.469 419.564 420.469 419.564 421.596 420.97 C440.253 444.83 449.328 471.781 446.365 502.185 C442.971 522.318 433.191 541.054 416.365 553.185 C409.721 557.27 402.845 560.91 395.365 563.185 C395.656 566.144 395.947 569.102 396.24 572.06 C396.33 572.977 396.421 573.894 396.514 574.839 C396.929 579.018 397.352 583.193 397.873 587.361 C399.026 596.684 399.671 605.997 400.183 615.374 C400.861 627.764 401.825 639.963 404.013 652.195 C404.55 655.226 405.011 658.269 405.49 661.31 C406.053 664.872 406.053 664.872 407.365 668.185 C407.634 671.742 407.597 675.307 407.615 678.873 C407.636 679.854 407.656 680.836 407.678 681.847 C407.719 689.447 407.05 694.382 401.604 700.068 C399.149 703.455 399.149 703.455 399.533 707.24 C399.854 708.851 400.195 710.457 400.553 712.06 C402.151 720.887 402.751 729.577 402.792 738.529 C402.799 739.903 402.814 741.276 402.837 742.65 C403.184 765.007 394.238 785.444 379.061 801.666 C373.807 806.577 367.772 810.008 361.365 813.185 C361.991 813.189 362.616 813.192 363.261 813.195 C378.511 813.277 393.761 813.369 409.011 813.473 C416.385 813.523 423.76 813.569 431.135 813.607 C437.566 813.64 443.997 813.68 450.427 813.728 C453.83 813.753 457.232 813.775 460.635 813.789 C464.441 813.806 468.246 813.835 472.052 813.866 C473.17 813.869 474.288 813.871 475.44 813.873 C481.716 813.94 487.29 814.589 493.365 816.185 C493.695 817.505 494.025 818.825 494.365 820.185 C487.22 824.949 476.25 823.343 467.932 823.359 C466.491 823.365 465.049 823.372 463.607 823.379 C460.519 823.394 457.43 823.405 454.341 823.415 C449.448 823.431 444.554 823.455 439.661 823.48 C425.752 823.551 411.842 823.611 397.933 823.662 C390.239 823.69 382.545 823.726 374.851 823.769 C369.996 823.795 365.141 823.813 360.286 823.825 C357.255 823.834 354.224 823.851 351.192 823.871 C349.797 823.878 348.402 823.883 347.007 823.883 C338.878 823.888 331.313 824.492 323.365 826.185 C313.605 827.481 303.754 827.342 293.928 827.31 C293.103 827.309 292.279 827.308 291.429 827.307 C276.988 827.282 262.553 827.055 248.115 826.748 C247.154 826.728 246.193 826.709 245.202 826.689 C218.247 826.126 218.247 826.126 214.365 824.185 C212.128 824.084 209.888 824.05 207.649 824.045 C206.95 824.042 206.252 824.039 205.532 824.036 C203.18 824.027 200.828 824.026 198.476 824.024 C196.794 824.02 195.112 824.015 193.43 824.009 C188.852 823.996 184.273 823.99 179.694 823.985 C176.833 823.982 173.972 823.978 171.112 823.974 C162.161 823.96 153.21 823.95 144.259 823.946 C133.927 823.942 123.596 823.924 113.265 823.895 C105.28 823.874 97.295 823.864 89.31 823.862 C84.541 823.861 79.773 823.855 75.004 823.838 C70.514 823.821 66.024 823.819 61.535 823.828 C59.89 823.828 58.245 823.824 56.601 823.814 C45.167 823.721 45.167 823.721 34.365 827.185 C30.593 828.279 27.304 828.525 23.365 828.185 C22.472 827.528 21.579 826.871 20.659 826.195 C16.682 823.769 13.55 823.638 9.037 823.724 C8.248 823.725 7.459 823.726 6.646 823.727 C4.982 823.733 3.318 823.749 1.654 823.774 C-0.863 823.81 -3.379 823.815 -5.896 823.814 C-13.078 823.845 -19.94 823.962 -26.956 825.622 C-40.761 828.526 -54.969 828.548 -69.01 828.498 C-69.962 828.497 -70.915 828.497 -71.897 828.496 C-109.882 828.436 -109.882 828.436 -122.635 824.185 C-124.521 824.087 -126.41 824.048 -128.299 824.041 C-130.069 824.03 -130.069 824.03 -131.875 824.02 C-133.172 824.017 -134.468 824.014 -135.804 824.012 C-137.183 824.005 -138.561 823.999 -139.939 823.991 C-142.91 823.977 -145.881 823.965 -148.852 823.956 C-153.561 823.94 -158.269 823.916 -162.978 823.891 C-176.369 823.819 -189.759 823.76 -203.15 823.708 C-210.544 823.68 -217.937 823.645 -225.331 823.602 C-230 823.575 -234.668 823.557 -239.337 823.546 C-242.262 823.537 -245.186 823.519 -248.11 823.5 C-250.087 823.489 -252.063 823.487 -254.039 823.486 C-262.069 823.422 -269.736 822.629 -277.635 821.185 C-277.965 819.865 -278.295 818.545 -278.635 817.185 C-272.303 813.386 -264.432 814.023 -257.293 813.98 C-255.77 813.965 -255.77 813.965 -254.216 813.95 C-250.878 813.919 -247.54 813.894 -244.201 813.869 C-241.879 813.848 -239.558 813.827 -237.236 813.806 C-231.139 813.751 -225.041 813.701 -218.944 813.653 C-212.716 813.603 -206.489 813.547 -200.262 813.492 C-188.053 813.385 -175.844 813.283 -163.635 813.185 C-164.582 812.659 -165.528 812.132 -166.504 811.589 C-167.766 810.879 -169.029 810.169 -170.291 809.459 C-170.913 809.114 -171.534 808.769 -172.175 808.414 C-181.947 802.893 -190.595 795.248 -194.264 784.31 C-195.668 776.269 -195.861 768.042 -191.236 761.08 C-185.095 753.815 -176.613 749.724 -167.17 748.873 C-155.393 748.668 -142.995 750.708 -132.49 756.334 C-129.932 757.508 -127.901 756.899 -125.189 756.485 C-114.188 755.196 -103.202 756.527 -92.285 757.895 C-75.643 759.96 -59.415 760.722 -42.635 760.185 C-44.361 758.432 -46.09 756.683 -47.822 754.935 C-48.305 754.444 -48.788 753.953 -49.285 753.447 C-52.243 750.47 -55.198 747.615 -58.635 745.185 C-63.687 745.185 -66.577 747.39 -70.635 750.185 C-71.625 750.185 -72.615 750.185 -73.635 750.185 C-72.067 735.122 -53.124 720.494 -42.01 711.435 C-41.145 710.756 -40.28 710.077 -39.389 709.377 C-36.76 707.285 -34.23 705.115 -31.701 702.904 C-26.146 698.054 -20.472 693.423 -14.572 688.998 C-13.973 688.548 -13.373 688.097 -12.755 687.633 C-8.522 684.496 -4.203 681.487 0.133 678.493 C1.034 677.87 1.034 677.87 1.953 677.234 C3.423 676.217 4.894 675.201 6.365 674.185 C5.757 674.182 5.148 674.179 4.521 674.175 C-10.294 674.094 -25.108 674.002 -39.923 673.898 C-47.087 673.848 -54.251 673.801 -61.415 673.763 C-67.66 673.73 -73.905 673.691 -80.149 673.643 C-83.456 673.617 -86.762 673.597 -90.068 673.582 C-93.76 673.565 -97.451 673.536 -101.143 673.504 C-102.785 673.501 -102.785 673.501 -104.461 673.498 C-105.469 673.486 -106.477 673.475 -107.516 673.464 C-108.389 673.458 -109.262 673.453 -110.161 673.447 C-112.936 673.153 -115.101 672.327 -117.635 671.185 C-117.26 669.248 -117.26 669.248 -116.635 667.185 C-110.005 663.87 -100.439 665.063 -93.209 665.107 C-90.693 665.113 -88.178 665.119 -85.662 665.125 C-84.326 665.129 -82.989 665.134 -81.652 665.139 C-77.484 665.152 -73.317 665.15 -69.149 665.145 C-68.442 665.144 -67.735 665.143 -67.006 665.142 C-64.831 665.139 -62.656 665.136 -60.48 665.133 C-51.523 665.12 -42.565 665.118 -33.608 665.161 C-27.052 665.193 -20.497 665.196 -13.941 665.166 C-10.484 665.152 -7.028 665.151 -3.571 665.186 C16.289 665.491 16.289 665.491 34.3 658.097 C44.645 651.646 60.81 652.568 72.475 654.838 C79.14 656.731 84.94 659.954 90.807 663.599 C92.954 664.931 95.086 666.102 97.365 667.185 C91.15 655.038 82.699 643.589 70.365 637.185 C70.138 638.093 69.911 639 69.678 639.935 C67.616 645.04 64.03 646.986 59.303 649.435 C53.157 652.021 46.488 652.44 40.08 650.49 C38.178 649.56 38.178 649.56 35.365 647.185 C34.428 643.935 34.428 643.935 34.365 641.185 C32.787 641.309 32.787 641.309 31.178 641.435 C27.365 641.185 27.365 641.185 25.359 639.201 C20.701 636.065 16.138 636.639 10.646 636.687 C9.46 636.681 8.274 636.676 7.053 636.67 C3.809 636.659 0.565 636.664 -2.678 636.677 C-6.075 636.685 -9.471 636.668 -12.868 636.653 C-20.764 636.622 -28.661 636.621 -36.558 636.622 C-46.616 636.624 -56.675 636.614 -66.734 636.574 C-70.115 636.561 -73.496 636.556 -76.876 636.565 C-80.643 636.575 -84.408 636.566 -88.174 636.554 C-89.296 636.562 -90.419 636.57 -91.575 636.578 C-92.598 636.571 -93.622 636.564 -94.676 636.557 C-96.012 636.558 -96.012 636.558 -97.374 636.559 C-100.232 636.087 -100.923 635.509 -102.635 633.185 C-103.007 630.338 -103.007 630.338 -103.004 626.788 C-103.007 626.133 -103.011 625.478 -103.014 624.802 C-103.022 622.592 -103.009 620.381 -102.996 618.17 C-102.997 616.576 -102.999 614.981 -103.003 613.386 C-103.01 608.992 -102.998 604.598 -102.983 600.204 C-102.97 595.469 -102.974 590.735 -102.977 586.001 C-102.978 577.795 -102.969 569.589 -102.952 561.382 C-102.928 549.518 -102.92 537.653 -102.916 525.788 C-102.909 506.539 -102.889 487.291 -102.861 468.042 C-102.834 449.34 -102.812 430.639 -102.8 411.938 C-102.798 410.209 -102.798 410.209 -102.797 408.446 C-102.793 402.666 -102.789 396.886 -102.786 391.106 C-102.755 343.132 -102.702 295.159 -102.635 247.185 C-103.591 247.874 -104.548 248.563 -105.534 249.273 C-106.804 250.185 -108.074 251.096 -109.344 252.008 C-110.287 252.688 -110.287 252.688 -111.249 253.381 C-115.73 256.593 -120.273 259.515 -125.135 262.123 C-126.109 262.661 -126.109 262.661 -127.104 263.211 C-128.939 264.219 -130.784 265.206 -132.635 266.185 C-133.73 266.771 -134.826 267.356 -135.955 267.959 C-138.635 269.185 -138.635 269.185 -141.01 268.873 C-141.814 268.532 -141.814 268.532 -142.635 268.185 C-141.975 268.185 -141.315 268.185 -140.635 268.185 C-140.511 267.34 -140.387 266.494 -140.26 265.623 C-138.443 255.629 -138.443 255.629 -134.635 252.185 C-135.359 252.197 -136.084 252.209 -136.83 252.22 C-141.883 252.268 -146.669 252.259 -151.635 251.185 C-151.635 250.525 -151.635 249.865 -151.635 249.185 C-152.955 248.855 -154.275 248.525 -155.635 248.185 C-155.635 247.525 -155.635 246.865 -155.635 246.185 C-156.295 246.185 -156.955 246.185 -157.635 246.185 C-158.271 234.73 -154.362 227.171 -147.853 217.941 C-131.261 194.028 -117.578 168.254 -103.76 142.685 C-102.858 141.021 -102.858 141.021 -101.939 139.323 C-101.112 137.785 -101.112 137.785 -100.268 136.217 C-99.539 134.864 -99.539 134.864 -98.795 133.484 C-97.533 131.122 -97.533 131.122 -96.635 128.185 C-97.073 129.048 -97.511 129.91 -97.963 130.799 C-104.853 144.137 -112.894 156.74 -121.333 169.147 C-122.585 171.108 -123.636 173.086 -124.635 175.185 C-125.295 175.185 -125.955 175.185 -126.635 175.185 C-126.885 176.059 -127.135 176.933 -127.393 177.834 C-128.693 181.344 -130.277 183.819 -132.51 186.81 C-133.188 187.731 -133.866 188.651 -134.564 189.599 C-136.463 191.971 -138.44 194.089 -140.635 196.185 C-139.371 191.106 -137.57 186.936 -134.885 182.435 C-128.46 171.299 -122.616 159.865 -116.774 148.415 C-115.545 146.011 -114.312 143.608 -113.078 141.206 C-98.18 112.173 -84.324 83.042 -73.951 52.052 C-72.901 48.916 -71.729 45.861 -70.447 42.81 C-68.31 37.68 -66.914 32.349 -65.467 26.994 C-64.635 24.185 -64.635 24.185 -63.635 23.185 C-63.594 20.852 -63.592 18.518 -63.635 16.185 C-65.615 15.69 -65.615 15.69 -67.635 15.185 C-68.447 12.998 -68.447 12.998 -68.635 10.185 C-65.781 6.777 -62.797 3.546 -58.269 2.791 C-57.346 2.724 -56.422 2.657 -55.471 2.588 C-54.429 2.508 -53.388 2.429 -52.314 2.347 C-51.224 2.273 -50.133 2.199 -49.01 2.123 C-47.973 2.045 -46.937 1.967 -45.869 1.886 C-42.459 1.635 -39.047 1.409 -35.635 1.185 C-34.356 1.095 -33.076 1.004 -31.758 0.911 C-21.171 0.193 -10.61 -0.001 0 0 Z " fill="#130D0F" transform="translate(404.634765625,106.814697265625)"/>
<path d="M0 0 C2.029 0.413 4.056 0.852 6.051 1.406 C9.831 2.167 13.535 2.245 17.375 2.25 C18.058 2.259 18.741 2.267 19.444 2.276 C23.522 2.255 27.304 1.802 31.305 1.004 C37.151 -0.13 42.807 -0.332 48.75 -0.312 C49.739 -0.329 50.727 -0.345 51.746 -0.361 C61.361 -0.368 67.84 2.577 75 9 C84.111 18.346 88.602 30.846 92.25 43.125 C92.484 43.892 92.718 44.658 92.959 45.448 C97.665 62.26 98.495 79.525 98.312 96.875 C98.304 98.322 98.304 98.322 98.295 99.798 C98.206 113.955 97.843 127.949 96 142 C95.816 143.429 95.631 144.857 95.447 146.286 C94.312 155.024 93.129 163.754 91.906 172.48 C91.047 178.622 90.233 184.769 89.435 190.918 C88.856 195.02 88.013 198.987 87 203 C86.7 204.214 86.399 205.429 86.09 206.68 C85.402 209.457 84.704 212.231 84 215.004 C83.388 217.424 82.807 219.843 82.25 222.277 C78.715 237.56 71.498 256.259 58.441 265.887 C51.05 270.423 44.757 273.273 36 272 C32.494 270.996 29.095 269.708 25.683 268.427 C-2.951 257.721 -33.529 258.163 -62 269 C-63.013 269.578 -63.013 269.578 -64.047 270.168 C-66.821 271.35 -69.019 271.033 -72 270.75 C-73.547 270.619 -73.547 270.619 -75.125 270.484 C-77.877 270.021 -79.724 269.606 -82 268 C-82.75 264.375 -82.75 264.375 -83 261 C-82.505 261.165 -82.01 261.33 -81.5 261.5 C-76.145 262.571 -72.557 262.885 -67.812 260.188 C-60.735 253.399 -58.077 242 -57.629 232.531 C-57.22 212.486 -60.941 196.86 -74 181 C-69.327 177.38 -65.153 177.548 -59.5 177.625 C-58.678 177.613 -57.855 177.602 -57.008 177.59 C-52.075 177.613 -47.654 178.235 -42.867 179.434 C-34.509 181.504 -26.076 181.997 -17.517 182.581 C-4.233 183.511 8.267 185.785 20.438 191.5 C21.103 191.8 21.768 192.101 22.454 192.41 C25.951 194.001 29.397 195.679 32.812 197.438 C35.857 199.22 35.857 199.22 39 199 C38.757 195.715 37.863 194.875 35.375 192.605 C32.168 190.025 28.756 187.927 25.125 186 C24.165 185.488 24.165 185.488 23.186 184.967 C14.672 180.6 5.407 177.712 -4 176 C-4 175.34 -4 174.68 -4 174 C13.17 173.313 26.97 175.8 40.66 187.219 C42.908 189.303 42.908 189.303 46 189 C46 185.915 45.586 183.739 43.645 181.289 C33.374 171.609 18.588 165.548 4.543 165.797 C1.964 166.003 -0.476 166.438 -3 167 C-3.277 158.82 -2.413 150.918 -1.375 142.812 C-1.198 141.398 -1.022 139.983 -0.846 138.569 C-0.35 134.598 0.154 130.629 0.661 126.66 C1.019 123.853 1.375 121.046 1.73 118.239 C4.443 96.82 7.199 75.407 10 54 C6.227 55.112 6.227 55.112 3.762 58.023 C0.381 68.677 -1.02 79.646 -2.562 90.688 C-2.79 92.275 -2.79 92.275 -3.022 93.896 C-5.308 109.868 -7.143 125.821 -8.395 141.906 C-8.909 148.417 -9.69 154.875 -10.53 161.35 C-11.072 165.562 -11.548 169.777 -12 174 C-31.835 174.559 -31.835 174.559 -40.438 172.5 C-46.807 171.027 -52.903 170.632 -59.438 170.562 C-60.824 170.53 -60.824 170.53 -62.238 170.496 C-69.696 170.518 -74.927 172.235 -80.5 177.25 C-80.995 177.827 -81.49 178.405 -82 179 C-82.288 178.538 -82.576 178.076 -82.873 177.599 C-92.582 162.069 -102.724 146.839 -112.935 131.635 C-123.487 115.9 -123.487 115.9 -128 108 C-127.215 107.322 -126.43 106.644 -125.621 105.945 C-106.441 89.091 -99.901 68.443 -95.215 43.91 C-95.085 43.236 -94.954 42.562 -94.82 41.868 C-94.456 39.973 -94.101 38.076 -93.746 36.18 C-93.108 33.46 -92.39 31.399 -91 29 C-90.443 29.193 -89.886 29.387 -89.312 29.586 C-86.883 30.415 -84.443 31.21 -82 32 C-80.804 32.392 -79.607 32.784 -78.375 33.188 C-59.501 37.615 -40.054 30.394 -24.125 20.562 C-16.22 15.265 -7.851 9.363 -2.25 1.562 C-1.507 1.047 -0.765 0.531 0 0 Z " fill="#FEFEFE" transform="translate(685,519)"/>
<path d="M0 0 C41.91 0 83.82 0 127 0 C124.36 8.25 121.72 16.5 119 25 C117.994 30.401 117.994 30.401 117.254 35.84 C117 38 117 38 116 40 C115.864 42.634 115.787 45.24 115.762 47.875 C115.75 49.072 115.75 49.072 115.737 50.293 C115.723 51.994 115.713 53.696 115.705 55.397 C115.693 57.104 115.673 58.81 115.643 60.517 C115.325 78.69 118.943 94.318 125.352 111.293 C131.282 127.946 126.008 142.065 118.812 157.312 C115.689 163.8 112.338 170.155 108.938 176.5 C98.631 195.822 90.837 215.418 90.75 237.625 C90.746 238.503 90.742 239.381 90.738 240.285 C90.795 246.673 91.603 252.235 93.441 258.371 C94.101 261.478 94.132 263.021 93 266 C91.104 268.073 89.293 269.861 87.188 271.688 C86.653 272.173 86.119 272.658 85.568 273.158 C82.877 275.558 80.346 277.615 77 279 C76.356 278.433 76.356 278.433 75.699 277.855 C64.785 268.806 51.245 261.061 38 256 C37.356 255.744 36.712 255.488 36.048 255.224 C30.267 253.081 25.137 252.54 19 252.625 C17.743 252.608 17.743 252.608 16.461 252.59 C15.212 252.596 15.212 252.596 13.938 252.602 C13.204 252.605 12.471 252.608 11.715 252.612 C7.691 253.187 3.856 254.715 0 256 C0 171.52 0 87.04 0 0 Z " fill="#FEFEFE" transform="translate(347,361)"/>
<path d="M0 0 C39.27 0 78.54 0 119 0 C119 50.49 119 100.98 119 153 C111 156 111 156 108.051 157.105 C92.583 163.218 69.872 176.256 62 192 C13.49 192 -35.02 192 -85 192 C-85 172 -85 172 -81.875 167.438 C-80.781 166.473 -80.781 166.473 -79.664 165.488 C-76.001 162.067 -73.195 158.168 -70.25 154.125 C-69.342 152.883 -69.342 152.883 -68.415 151.615 C-45.005 119.258 -27.842 83.442 -14.14 46.066 C-13.204 43.548 -12.237 41.052 -11.227 38.562 C-6.133 25.842 -3.541 13.659 0 0 Z " fill="#FEFEFE" transform="translate(432,139)"/>
<path d="M0 0 C3.253 1.393 5.034 2.95 7.25 5.688 C18.654 19.032 34.181 27.831 50 35 C51.599 35.725 51.599 35.725 53.23 36.465 C62.502 40.331 72.173 42.142 82 44 C81.769 44.562 81.539 45.124 81.301 45.703 C76.766 57.29 77.458 72.629 81.676 84.172 C86.528 94.534 93.682 102.097 104 107 C103.974 107.77 103.948 108.539 103.921 109.332 C102.785 131.946 102.785 131.946 110.73 152.629 C112 155 112 155 111.949 157.043 C106.834 167.588 92.12 173.273 81.812 177 C78 178 78 178 75 177 C75.887 176.443 76.774 175.886 77.688 175.312 C85.903 169.771 91.774 161.321 95 152 C95.254 149.207 95.254 149.207 95 147 C91.32 148.498 89.451 150.591 86.938 153.625 C79.074 162.529 70.202 168.136 59 172 C57.416 172.547 57.416 172.547 55.801 173.105 C39.121 177.031 23.806 173.703 9.25 165.25 C-9.259 153.226 -20.214 135.415 -25 114 C-25.309 111.919 -25.603 109.835 -25.887 107.75 C-26.856 101.137 -28.719 95.18 -31.062 88.938 C-31.454 87.871 -31.845 86.805 -32.248 85.707 C-35.797 76.198 -39.855 66.947 -44.203 57.78 C-45 56 -45 56 -46 53 C-45.358 52.403 -45.358 52.403 -44.702 51.794 C-42.738 49.968 -40.775 48.14 -38.812 46.312 C-38.139 45.687 -37.465 45.061 -36.771 44.416 C-33.112 41.007 -29.525 37.549 -26 34 C-25.161 33.207 -24.322 32.414 -23.457 31.598 C-13.829 22.368 -6.011 11.958 0 0 Z " fill="#FEFEFE" transform="translate(549,341)"/>
<path d="M0 0 C0 133.65 0 267.3 0 405 C-7.92 405 -15.84 405 -24 405 C-24.342 356.447 -24.608 307.893 -24.766 259.339 C-24.785 253.604 -24.804 247.869 -24.824 242.134 C-24.828 240.992 -24.832 239.85 -24.836 238.674 C-24.901 220.199 -25.019 201.724 -25.157 183.249 C-25.298 164.285 -25.381 145.321 -25.411 126.357 C-25.432 114.659 -25.497 102.963 -25.619 91.265 C-25.698 83.239 -25.722 75.213 -25.703 67.186 C-25.693 62.557 -25.707 57.932 -25.788 53.304 C-26.297 22.624 -26.297 22.624 -18.753 14.753 C-16.225 12.606 -13.631 10.796 -10.774 9.115 C-8.175 7.481 -6.197 5.37 -4.125 3.125 C-1.105 0 -1.105 0 0 0 Z " fill="#FEFEFE" transform="translate(337,323)"/>
<path d="M0 0 C2.652 1.886 3.98 3.975 5.735 6.716 C6.782 8.336 6.782 8.336 7.85 9.989 C8.592 11.157 9.333 12.325 10.075 13.494 C10.839 14.683 11.605 15.872 12.371 17.061 C13.893 19.424 15.41 21.79 16.922 24.159 C19.183 27.698 21.459 31.226 23.742 34.749 C24.584 36.048 25.423 37.348 26.26 38.65 C30.107 44.624 34.063 50.525 38.012 56.431 C38.772 57.568 39.532 58.705 40.292 59.842 C40.676 60.416 41.06 60.99 41.455 61.582 C43.018 63.92 44.58 66.259 46.141 68.597 C46.939 69.791 47.737 70.984 48.535 72.177 C49.712 73.937 50.888 75.698 52.063 77.458 C52.75 78.487 53.438 79.516 54.146 80.575 C55.835 83.159 57.445 85.772 59.012 88.431 C58.434 88.14 57.855 87.849 57.26 87.549 C43.423 80.667 29.233 75.122 14.566 70.282 C12.886 69.722 11.212 69.146 9.544 68.553 C5.325 67.066 1.667 66.017 -2.863 66.056 C-3.768 66.048 -4.673 66.041 -5.605 66.033 C-8.023 66.257 -8.023 66.257 -9.781 67.716 C-11.884 70.704 -11.56 73.981 -10.988 77.431 C-7.24 85.239 0.654 89.445 8.012 93.431 C1.056 100.387 -11.825 99.91 -20.988 99.994 C-31.901 99.971 -41.738 98.28 -52.257 95.544 C-57.887 94.117 -63.217 93.979 -68.988 94.431 C-72.988 94.431 -72.988 94.431 -74.89 92.552 C-75.562 91.667 -76.233 90.781 -76.925 89.869 C-77.705 88.87 -78.485 87.871 -79.289 86.841 C-79.716 86.294 -80.144 85.746 -80.584 85.182 C-83.159 81.97 -85.897 78.899 -88.613 75.806 C-93.261 70.486 -97.764 65.099 -101.988 59.431 C-99.136 56.356 -96.329 54.277 -92.683 52.216 C-91.637 51.62 -90.59 51.023 -89.512 50.408 C-88.39 49.776 -87.269 49.145 -86.113 48.494 C-84.335 47.482 -82.559 46.468 -80.783 45.454 C-79.581 44.768 -78.378 44.082 -77.175 43.397 C-71.808 40.339 -66.486 37.21 -61.175 34.056 C-51.325 28.216 -41.462 22.399 -31.571 16.63 C-30.353 15.919 -29.135 15.208 -27.917 14.498 C-27.325 14.152 -26.733 13.806 -26.122 13.45 C-22.412 11.279 -18.729 9.07 -15.058 6.833 C-14.18 6.305 -13.302 5.777 -12.397 5.232 C-10.797 4.268 -9.204 3.292 -7.62 2.302 C-2.547 -0.729 -2.547 -0.729 0 0 Z " fill="#FEFEFE" transform="translate(533.98779296875,606.56884765625)"/>
<path d="M0 0 C1.093 2.075 1.093 2.075 1.93 4.828 C2.247 5.846 2.565 6.864 2.892 7.913 C3.217 9.014 3.541 10.115 3.875 11.25 C4.218 12.37 4.561 13.49 4.914 14.644 C5.963 18.09 6.985 21.544 8 25 C8.308 26.038 8.616 27.075 8.934 28.144 C14.094 45.554 14.094 45.554 15 52 C13 50.875 13 50.875 11 49 C10.875 45.883 10.875 45.883 11 43 C10.282 43.252 9.563 43.503 8.823 43.763 C-20.012 53.798 -20.012 53.798 -35 56 C-35.774 56.114 -36.548 56.228 -37.346 56.346 C-51.466 58.269 -65.714 58.203 -79.938 58.25 C-80.859 58.255 -81.78 58.261 -82.729 58.266 C-94.344 58.317 -105.507 57.705 -117 56 C-118.543 55.816 -120.087 55.639 -121.633 55.473 C-122.785 55.337 -123.938 55.202 -125.125 55.062 C-126.303 54.93 -127.481 54.797 -128.695 54.66 C-133.138 53.773 -136.688 52.574 -139.645 49.027 C-140.03 48.338 -140.415 47.648 -140.812 46.938 C-141.211 46.245 -141.609 45.553 -142.02 44.84 C-144.643 39.917 -144.261 35.403 -144.312 29.875 C-144.342 28.854 -144.371 27.833 -144.4 26.781 C-144.464 19.163 -143.315 13.686 -138.148 7.941 C-137.563 7.486 -136.978 7.031 -136.375 6.562 C-135.489 5.853 -135.489 5.853 -134.586 5.129 C-127.756 0.267 -114.964 2.699 -107.082 3.974 C-105.928 4.173 -105.928 4.173 -104.75 4.375 C-72.409 9.904 -38.267 11.182 -7.012 -0.145 C-3.922 -1.022 -2.872 -1.271 0 0 Z " fill="#FEFEFE" transform="translate(412,868)"/>
<path d="M0 0 C4.87 -0.18 8.681 0.269 13.289 1.836 C14.468 2.236 15.647 2.636 16.862 3.048 C18.725 3.705 18.725 3.705 20.625 4.375 C21.264 4.598 21.903 4.821 22.561 5.051 C61.508 18.689 61.508 18.689 74.023 34.012 C76.194 36.195 77.873 36.974 80.75 38 C83.546 39.041 84.728 39.6 86.422 42.094 C87.446 44.379 88.29 46.599 89 49 C89.262 49.881 89.262 49.881 89.528 50.781 C90.558 55.626 90.228 60.691 90.25 65.625 C90.281 67.332 90.281 67.332 90.312 69.074 C90.345 76.237 89.532 82.285 87 89 C86.412 88.8 85.824 88.601 85.218 88.395 C81.118 87.009 77.007 85.661 72.875 84.375 C72.109 84.135 71.344 83.895 70.555 83.648 C58.595 80.613 46.272 81.208 34.375 84 C14.756 88.57 -10.949 86.72 -28.559 75.953 C-29.272 75.481 -29.272 75.481 -30 75 C-26.426 73.777 -23.798 74.237 -20.125 74.938 C-8.363 77.122 -8.363 77.122 3 75 C3 74.01 3 73.02 3 72 C2.138 71.974 1.275 71.948 0.387 71.922 C-18.92 71.025 -37.773 67.339 -53.207 55.027 C-55.304 52.656 -55.498 51.069 -56 48 C-55.29 48.232 -54.58 48.464 -53.848 48.703 C-50.587 49.764 -47.325 50.82 -44.062 51.875 C-42.946 52.24 -41.829 52.605 -40.678 52.98 C-31.47 55.951 -23.151 58.362 -13.438 58.125 C-12.354 58.111 -12.354 58.111 -11.248 58.098 C-9.499 58.074 -7.749 58.039 -6 58 C-5.67 56.35 -5.34 54.7 -5 53 C-5.935 52.986 -6.869 52.972 -7.832 52.957 C-25.478 52.316 -47.716 48.009 -61.672 36.449 C-63 35 -63 35 -64.125 32.25 C-64 30 -64 30 -62 28 C-55.221 27.202 -49.229 29.138 -42.781 31.027 C-34.433 33.175 -26.264 33.183 -17.688 33.188 C-16.528 33.2 -15.368 33.212 -14.174 33.225 C-4.484 33.241 4.442 32.124 13.625 28.938 C14.628 28.596 15.631 28.254 16.664 27.902 C18.925 27.21 18.925 27.21 20 26 C20.501 22.626 20.501 22.626 20 19 C17.816 16.598 15.4 15.235 12.617 13.602 C3.215 8.073 3.215 8.073 0 4 C0 2.68 0 1.36 0 0 Z " fill="#FEFEFE" transform="translate(529,679)"/>
<path d="M0 0 C2.547 1.977 4.969 4.036 7.371 6.188 C8.194 6.916 9.016 7.644 9.863 8.395 C24.275 21.931 38.466 44.871 40.672 64.922 C41.19 67.413 41.19 67.413 43.699 68.848 C44.663 69.31 45.628 69.773 46.621 70.25 C47.621 70.762 48.622 71.274 49.652 71.801 C50.55 72.258 51.447 72.716 52.371 73.188 C60.305 78.236 66.189 88.137 68.371 97.188 C69.868 109.064 67.11 119.453 60.059 129.125 C53.137 137.252 45.062 141.883 34.492 143.676 C24.664 144.343 16.439 139.872 8.652 134.211 C1.074 127.489 -4.025 116.409 -4.867 106.34 C-5.132 94.871 -2.472 85.723 5.371 77.188 C9.333 73.253 14.477 68.188 20.371 68.188 C15.779 50.348 8.596 35.778 -2.629 21.188 C-3.377 20.161 -3.377 20.161 -4.141 19.113 C-15.125 4.962 -34.234 -4.334 -51.629 -6.812 C-53.719 -6.89 -55.811 -6.921 -57.902 -6.91 C-59.056 -6.907 -60.21 -6.904 -61.398 -6.9 C-63.183 -6.888 -63.183 -6.888 -65.004 -6.875 C-66.823 -6.868 -66.823 -6.868 -68.68 -6.861 C-71.663 -6.85 -74.646 -6.833 -77.629 -6.812 C-59.664 -25.734 -17.904 -12.344 0 0 Z " fill="#FEFEFE" transform="translate(638.62890625,302.8125)"/>
<path d="M0 0 C1.65 1.65 3.3 3.3 5 5 C5.874 5.862 6.748 6.725 7.648 7.613 C8.998 8.949 8.998 8.949 10.375 10.312 C11.27 11.196 12.164 12.079 13.086 12.988 C15.918 15.854 18.542 18.883 21.179 21.927 C24.161 25.322 27.271 28.593 30.375 31.875 C48.467 51.111 48.467 51.111 52 57 C51.68 59.008 51.68 59.008 51 61 C49.182 66.453 48.997 72.707 51.312 78 C52.148 78.99 52.148 78.99 53 80 C53.681 80.866 53.681 80.866 54.375 81.75 C56.493 83.379 58.384 83.646 61 84 C61.495 87.96 61.495 87.96 62 92 C41.54 92 21.08 92 0 92 C0 61.64 0 31.28 0 0 Z " fill="#FEFEFE" transform="translate(347,636)"/>
<path d="M0 0 C2.786 -0.002 5.572 -0.021 8.357 -0.039 C10.139 -0.042 11.92 -0.044 13.701 -0.045 C14.943 -0.056 14.943 -0.056 16.21 -0.067 C20.115 -0.051 22.041 -0.031 25.365 2.185 C25.365 2.845 25.365 3.505 25.365 4.185 C27.345 3.855 29.325 3.525 31.365 3.185 C30.341 5.958 29.624 7.031 27.045 8.564 C24.156 9.783 21.267 10.997 18.365 12.185 C17.3 12.69 17.3 12.69 16.213 13.205 C11.47 15.329 8.046 15.114 2.955 14.385 C-1.414 14.048 -5.417 15.15 -9.635 16.185 C-14.537 17.33 -19.452 17.536 -24.459 17.791 C-27.837 17.702 -27.837 17.702 -30.635 19.185 C-33.165 19.258 -35.668 19.278 -38.197 19.248 C-39.264 19.241 -39.264 19.241 -40.352 19.234 C-42.113 19.222 -43.874 19.204 -45.635 19.185 C-45.916 19.89 -46.197 20.596 -46.487 21.322 C-58.815 52.079 -72.381 82.191 -87.026 111.91 C-87.988 113.869 -88.942 115.83 -89.88 117.8 C-91.491 121.152 -93.03 123.582 -95.635 126.185 C-97.001 128.669 -98.301 131.154 -99.572 133.685 C-105.94 146.043 -113.52 157.655 -121.331 169.142 C-122.583 171.105 -123.635 173.085 -124.635 175.185 C-125.295 175.185 -125.955 175.185 -126.635 175.185 C-126.885 176.059 -127.135 176.933 -127.393 177.834 C-128.693 181.344 -130.277 183.819 -132.51 186.81 C-133.188 187.731 -133.866 188.651 -134.564 189.599 C-136.463 191.971 -138.44 194.089 -140.635 196.185 C-139.371 191.106 -137.57 186.936 -134.885 182.435 C-128.46 171.299 -122.616 159.865 -116.774 148.415 C-115.545 146.011 -114.312 143.608 -113.078 141.206 C-98.18 112.173 -84.324 83.042 -73.951 52.052 C-72.901 48.916 -71.729 45.861 -70.447 42.81 C-68.31 37.68 -66.914 32.349 -65.467 26.994 C-64.635 24.185 -64.635 24.185 -63.635 23.185 C-63.594 20.852 -63.592 18.518 -63.635 16.185 C-64.955 15.855 -66.275 15.525 -67.635 15.185 C-68.447 12.998 -68.447 12.998 -68.635 10.185 C-65.781 6.777 -62.797 3.546 -58.269 2.791 C-57.346 2.724 -56.422 2.657 -55.471 2.588 C-54.429 2.508 -53.388 2.429 -52.314 2.347 C-51.224 2.273 -50.133 2.199 -49.01 2.123 C-47.973 2.045 -46.937 1.967 -45.869 1.886 C-42.459 1.635 -39.047 1.409 -35.635 1.185 C-34.356 1.095 -33.076 1.004 -31.758 0.911 C-21.171 0.193 -10.61 -0.001 0 0 Z " fill="#363537" transform="translate(404.634765625,106.814697265625)"/>
<path d="M0 0 C0.33 0 0.66 0 1 0 C3.945 23.513 6.673 47.005 7.827 70.678 C8.567 85.826 10.045 100.555 13.559 115.356 C14.663 120.027 15.296 124.357 15.312 129.188 C15.329 130.336 15.346 131.485 15.363 132.668 C14.822 137.633 13.172 140.888 9.562 144.312 C3.612 148.231 -4.122 147.907 -11 147 C-21.656 144.534 -31.02 139.058 -40 133 C-39.254 132.273 -38.507 131.546 -37.738 130.797 C-8.489 100.922 -5.821 50.452 -1.578 11.113 C-1.172 7.383 -0.679 3.693 0 0 Z " fill="#FEFEFE" transform="translate(789,657)"/>
<path d="M0 0 C-2.687 2.895 -5.131 4.806 -8.668 6.551 C-9.562 7.003 -10.456 7.454 -11.377 7.92 C-13.23 8.838 -15.084 9.755 -16.939 10.67 C-23.217 13.847 -28.6 17.499 -34 22 C-34.714 22.579 -35.427 23.158 -36.163 23.755 C-52.905 37.481 -64.447 60.926 -68 82 C-68.393 86.905 -68.431 91.769 -68.375 96.688 C-68.367 97.673 -68.367 97.673 -68.359 98.678 C-68.188 116.786 -64.831 131.644 -58.84 148.699 C-51.255 170.402 -56.526 186.8 -66.147 206.892 C-68.257 211.26 -70.404 215.611 -72.551 219.961 C-77.088 229.155 -81.356 238.414 -85 248 C-85.423 249.097 -85.423 249.097 -85.855 250.216 C-90.466 262.713 -90.399 275.098 -89.817 288.236 C-89.795 288.916 -89.774 289.597 -89.752 290.298 C-89.691 292.169 -89.602 294.04 -89.512 295.91 C-90 299 -90 299 -92.395 301.42 C-95 303 -95 303 -97 303 C-105.698 269.395 -90.918 239.481 -75.405 210.563 C-65.818 192.503 -57.778 174.131 -64.004 153.56 C-65.721 148.256 -67.603 143.029 -69.598 137.824 C-73.098 128.54 -74.621 118.878 -75 109 C-75.033 108.29 -75.065 107.58 -75.099 106.848 C-76.36 76.262 -66.586 46.862 -46 24 C-34.642 11.765 -17.461 -1.318 0 0 Z " fill="#F0EFF0" transform="translate(545,318)"/>
<path d="M0 0 C2.977 2.876 5.602 5.894 8.188 9.125 C12.624 14.584 17.236 19.827 22 25 C22.728 25.796 22.728 25.796 23.471 26.607 C29.775 33.49 36.186 40.221 42.846 46.761 C50.952 54.729 58.339 62.792 65 72 C65.4 72.539 65.8 73.079 66.212 73.634 C79.372 91.399 87.42 110.719 87.25 133 C87.262 134.524 87.262 134.524 87.273 136.078 C87.222 156.161 79.48 171.527 66 186 C65.34 185.67 64.68 185.34 64 185 C64.326 184.25 64.652 183.5 64.988 182.727 C76.742 155.197 76.761 127.714 66.136 99.773 C56.596 76.491 41.255 56.911 24.332 38.566 C0 11.789 0 11.789 0 0 Z " fill="#FEFEFE" transform="translate(754,464)"/>
<path d="M0 0 C46.2 0 92.4 0 140 0 C137.36 4.62 134.72 9.24 132 14 C88.44 14 44.88 14 0 14 C0 9.38 0 4.76 0 0 Z " fill="#FEFEFE" transform="translate(347,339)"/>
<path d="M0 0 C9.698 4.229 19.301 8.628 28.805 13.277 C29.574 13.653 30.344 14.03 31.136 14.417 C35.02 16.318 38.9 18.227 42.775 20.146 C44.239 20.867 45.703 21.586 47.168 22.305 C47.867 22.648 48.565 22.991 49.285 23.344 C52.907 25.092 56.433 26.566 60.305 27.695 C64.483 29.17 65.645 30.29 67.938 34 C70.693 38.155 73.538 41.849 76.938 45.5 C81.198 50.076 85.182 54.808 89.09 59.688 C90.88 61.958 90.88 61.958 92.703 63.582 C94.619 65.677 94.685 68.091 95.262 70.793 C96.594 74.775 99.318 77.829 102 81 C99.69 81 97.38 81 95 81 C94.546 80.031 94.092 79.061 93.625 78.062 C92.342 74.929 92.342 74.929 90 74 C88.463 73.775 86.92 73.592 85.375 73.438 C84.149 73.312 84.149 73.312 82.898 73.184 C82.272 73.123 81.645 73.062 81 73 C80.67 71.02 80.34 69.04 80 67 C79.252 66.925 78.505 66.85 77.734 66.773 C74.712 66.37 71.911 65.915 69 65 C67.622 63.031 66.282 61.033 65 59 C62.163 58.447 59.917 58.708 57 59 C56.818 58.385 56.636 57.77 56.449 57.137 C56.198 56.328 55.946 55.52 55.688 54.688 C55.444 53.887 55.2 53.086 54.949 52.262 C53.922 49.814 53.18 48.52 51 47 C48.843 47.13 48.843 47.13 46.5 47.625 C42.581 47.733 41.348 47.314 38.391 44.645 C35.98 41.837 33.767 38.875 31.529 35.929 C28.898 32.609 25.979 29.568 23.062 26.5 C21.879 25.244 20.695 23.987 19.512 22.73 C18.93 22.113 18.347 21.497 17.748 20.861 C14.439 17.337 11.173 13.774 7.906 10.211 C5.874 8.001 3.833 5.84 1.664 3.762 C0 2 0 2 0 0 Z " fill="#FEFEFE" transform="translate(363,641)"/>
<path d="M0 0 C1.239 0.017 1.239 0.017 2.502 0.033 C9.574 0.225 16.018 1.441 22.812 3.438 C24.144 3.777 25.477 4.112 26.812 4.438 C25.849 6.39 24.875 8.325 23.812 10.227 C16.699 23.286 17.911 38.294 20.812 52.438 C6.995 51.961 -5.492 44.822 -15.316 35.395 C-20.929 29.337 -23.954 23.317 -23.66 14.934 C-22.821 10.504 -20.582 7.338 -17.188 4.438 C-11.535 0.742 -6.674 -0.186 0 0 Z " fill="#FEFEFE" transform="translate(241.1875,864.5625)"/>
<path d="M0 0 C2 3 2 3 2 5 C4.475 4.505 4.475 4.505 7 4 C7.495 4.99 7.495 4.99 8 6 C8.99 6.66 9.98 7.32 11 8 C9.581 13.847 8.072 19.275 5.234 24.59 C-3.199 40.191 -3.199 40.191 -7 57 C-5.515 57.495 -5.515 57.495 -4 58 C-3.638 56.824 -3.638 56.824 -3.27 55.625 C-1.641 50.975 0.335 46.51 2.312 42 C5.513 34.657 8.415 27.356 10.832 19.715 C12.141 16.673 13.381 15.019 16 13 C17.32 13 18.64 13 20 13 C17.874 19.732 15.356 26.242 12.625 32.75 C11.974 34.304 11.974 34.304 11.309 35.889 C1.475 59.19 -9.214 82.044 -20.391 104.725 C-21.353 106.683 -22.307 108.645 -23.246 110.615 C-24.857 113.967 -26.396 116.397 -29 119 C-30.367 121.484 -31.666 123.969 -32.938 126.5 C-39.306 138.858 -46.885 150.47 -54.697 161.957 C-55.949 163.919 -57 165.9 -58 168 C-58.66 168 -59.32 168 -60 168 C-60.25 168.874 -60.5 169.748 -60.758 170.648 C-62.059 174.158 -63.642 176.634 -65.875 179.625 C-66.553 180.545 -67.231 181.466 -67.93 182.414 C-69.828 184.785 -71.806 186.904 -74 189 C-72.737 183.921 -70.936 179.751 -68.25 175.25 C-61.826 164.113 -55.982 152.679 -50.14 141.23 C-48.911 138.825 -47.677 136.423 -46.443 134.021 C-31.546 104.987 -17.689 75.857 -7.316 44.867 C-6.266 41.731 -5.094 38.675 -3.812 35.625 C-1.676 30.495 -0.279 25.164 1.168 19.809 C2 17 2 17 3 16 C3.041 13.667 3.042 11.333 3 9 C1.68 8.67 0.36 8.34 -1 8 C-1.625 5.688 -1.625 5.688 -2 3 C-1.34 2.01 -0.68 1.02 0 0 Z " fill="#363537" transform="translate(338,114)"/>
<path d="M0 0 C6.232 1.888 10.515 6.492 15 11 C10.987 16.049 6.751 20.116 1.562 23.938 C0.518 24.71 0.518 24.71 -0.549 25.498 C-15.97 36.654 -33.514 45.421 -53 43 C-57.871 41.935 -62.66 40.48 -67 38 C-68.094 36.25 -68.094 36.25 -68 34 C-66.943 31.615 -65.868 29.488 -64.562 27.25 C-64.224 26.648 -63.886 26.046 -63.537 25.426 C-62.702 23.944 -61.853 22.471 -61 21 C-60.375 21.01 -59.751 21.021 -59.107 21.032 C-56.238 21.074 -53.369 21.099 -50.5 21.125 C-49.027 21.15 -49.027 21.15 -47.523 21.176 C-34.125 21.265 -22.772 16.645 -11.562 9.5 C-10.984 9.133 -10.405 8.765 -9.808 8.386 C-6.062 5.921 -3.055 3.243 0 0 Z " fill="#FEFEFE" transform="translate(665,504)"/>
<path d="M0 0 C2.312 2 2.312 2 4 4 C2.779 7.663 1.911 7.925 -1.363 9.793 C-2.299 10.333 -3.234 10.872 -4.198 11.428 C-5.226 12.009 -6.253 12.589 -7.312 13.188 C-8.379 13.8 -9.446 14.412 -10.544 15.043 C-13.431 16.697 -16.321 18.344 -19.215 19.986 C-22.163 21.66 -25.107 23.342 -28.051 25.023 C-29.229 25.696 -30.406 26.368 -31.584 27.041 C-32.168 27.374 -32.751 27.707 -33.352 28.051 C-35.134 29.068 -36.916 30.084 -38.699 31.1 C-50.547 37.858 -62.285 44.799 -73.998 51.789 C-76.034 53.004 -78.072 54.218 -80.11 55.431 C-82.028 56.572 -83.945 57.716 -85.859 58.864 C-86.721 59.377 -87.584 59.89 -88.473 60.418 C-89.228 60.869 -89.984 61.321 -90.762 61.786 C-93.116 63.063 -95.497 64.053 -98 65 C-98.679 58.78 -97.725 55.315 -93.996 50.277 C-85.534 40.623 -73.995 34.338 -63 28 C-62.171 27.522 -61.342 27.043 -60.488 26.55 C-10.487 -2.039 -10.487 -2.039 0 0 Z " fill="#FEFEFE" transform="translate(525,593)"/>
<path d="M0 0 C0 0.99 0 1.98 0 3 C-2.176 5.023 -2.176 5.023 -5.312 7.375 C-5.878 7.801 -6.444 8.226 -7.028 8.665 C-14.497 14.214 -22.21 19.443 -29.949 24.608 C-31.236 25.482 -32.509 26.378 -33.758 27.306 C-35.869 28.849 -37.407 29.97 -40.062 30.105 C-43.017 28.42 -44.911 25.933 -47 23.312 C-47.965 22.133 -48.931 20.955 -49.898 19.777 C-50.401 19.161 -50.903 18.545 -51.421 17.91 C-53.036 15.956 -54.686 14.039 -56.352 12.129 C-57.171 11.188 -57.171 11.188 -58.008 10.227 C-59.07 9.01 -60.135 7.796 -61.203 6.583 C-63.387 4.065 -64.935 2.196 -66 -1 C-65.366 -0.928 -64.732 -0.856 -64.078 -0.781 C-49.651 0.653 -35.819 0.689 -21.633 -2.32 C-14.01 -3.747 -6.65 -4.433 0 0 Z " fill="#FEFEFE" transform="translate(589,770)"/>
<path d="M0 0 C3.917 2.666 7.713 5.394 11.067 8.748 C11.043 11.568 11.043 11.568 10.692 14.873 C10.581 15.969 10.47 17.064 10.356 18.193 C10.261 19.036 10.165 19.879 10.067 20.748 C6.647 20.171 3.842 19.319 0.743 17.771 C-0.105 17.355 -0.952 16.939 -1.825 16.51 C-2.748 16.052 -3.67 15.595 -4.621 15.123 C-14.895 10.115 -25.285 5.415 -35.746 0.811 C-36.476 0.488 -37.206 0.166 -37.958 -0.166 C-45.895 -3.667 -53.842 -7.119 -61.933 -10.252 C-61.933 -10.912 -61.933 -11.572 -61.933 -12.252 C-60.518 -12.902 -59.101 -13.547 -57.683 -14.189 C-56.894 -14.549 -56.105 -14.909 -55.292 -15.279 C-36.229 -23.138 -15.644 -10.132 0 0 Z " fill="#FEFEFE" transform="translate(408.93310546875,637.251953125)"/>
<path d="M0 0 C5.971 2.236 9.393 6.011 12.152 11.68 C14.516 18.15 13.002 23.624 10.324 29.723 C8.23 33.325 5.866 35.439 2 37 C-2.212 37.904 -5.316 37.349 -9.188 35.375 C-15.524 30.024 -18.575 25.387 -19.375 17.125 C-19.192 11.158 -16.523 6.163 -12.312 2 C-7.981 -0.615 -4.932 -1.012 0 0 Z " fill="#130D0F" transform="translate(686,388)"/>
<path d="M0 0 C1.111 3.763 1.111 3.763 0.109 5.895 C-0.564 6.844 -0.564 6.844 -1.25 7.812 C-3.691 11.434 -5.353 14.964 -7 19 C-7.33 19.33 -7.66 19.66 -8 20 C-8.399 22.522 -8.751 25.03 -9.062 27.562 C-9.153 28.273 -9.244 28.984 -9.338 29.717 C-9.562 31.477 -9.782 33.239 -10 35 C-6.667 36.782 -3.755 37.488 0 38 C0 39.98 0 41.96 0 44 C-0.66 44 -1.32 44 -2 44 C-1.34 45.98 -0.68 47.96 0 50 C1.98 50 3.96 50 6 50 C5.67 51.98 5.34 53.96 5 56 C9.474 56.089 13.606 55.857 18 55 C18.33 55.99 18.66 56.98 19 58 C16.459 59.439 13.918 60.876 11.375 62.312 C10.662 62.717 9.949 63.121 9.215 63.537 C-2.383 70.081 -2.383 70.081 -5.375 69.688 C-5.911 69.461 -6.447 69.234 -7 69 C-6.34 69 -5.68 69 -5 69 C-4.876 68.154 -4.752 67.309 -4.625 66.438 C-2.808 56.444 -2.808 56.444 1 53 C0.276 53.012 -0.449 53.023 -1.195 53.035 C-6.248 53.082 -11.034 53.074 -16 52 C-16 51.34 -16 50.68 -16 50 C-17.32 49.67 -18.64 49.34 -20 49 C-20 48.34 -20 47.68 -20 47 C-20.66 47 -21.32 47 -22 47 C-22.635 35.574 -18.754 28.027 -12.258 18.822 C-9.75 15.19 -7.387 11.462 -5 7.75 C-4.042 6.266 -3.083 4.781 -2.125 3.297 C-1.424 2.209 -0.723 1.121 0 0 Z " fill="#363537" transform="translate(269,306)"/>
<path d="M0 0 C2 1 2 1 2.609 2.688 C4.199 12.099 2.841 21.007 0 30 C-0.21 30.673 -0.42 31.346 -0.636 32.039 C-4.065 42.867 -8.344 53.173 -13.062 63.5 C-18.053 74.434 -22.112 85.329 -25 97 C-25.302 98.216 -25.302 98.216 -25.609 99.457 C-26.214 103.391 -26.371 107.339 -26.562 111.312 C-26.606 112.148 -26.649 112.984 -26.693 113.846 C-26.799 115.897 -26.9 117.948 -27 120 C-28.32 120 -29.64 120 -31 120 C-32.701 116.598 -32.313 112.801 -32.375 109.062 C-32.412 108.277 -32.45 107.491 -32.488 106.682 C-32.719 90.156 -25.501 74.576 -18.625 59.938 C-6.94 36.053 -6.94 36.053 -1.062 10.375 C-0.951 9.359 -0.839 8.343 -0.725 7.297 C-0.461 4.866 -0.219 2.435 0 0 Z " fill="#F0EFF0" transform="translate(498,489)"/>
<path d="M0 0 C0.99 0.33 1.98 0.66 3 1 C3.668 3.125 3.668 3.125 4.188 6 C9.087 27.046 21.654 41.857 39 54 C41.418 55.706 43.835 57.415 46.25 59.125 C47.13 59.748 47.13 59.748 48.028 60.383 C55.036 65.384 61.655 70.443 66 78 C65.67 78.66 65.34 79.32 65 80 C64.571 79.55 64.141 79.1 63.699 78.637 C58.556 73.654 53.167 70.222 46.938 66.75 C26.19 55.102 8.274 40.534 1 17 C0.071 13.167 -0.106 9.628 -0.062 5.688 C-0.053 4.619 -0.044 3.55 -0.035 2.449 C-0.024 1.641 -0.012 0.833 0 0 Z " fill="#F0EFF0" transform="translate(704,437)"/>
<path d="M0 0 C12.261 4.181 21.207 17.313 27.285 28.188 C27.521 28.786 27.757 29.384 28 30 C27.67 30.66 27.34 31.32 27 32 C26.441 31.564 25.881 31.129 25.305 30.68 C12.674 21.298 0.589 17.877 -14.959 17.57 C-15.832 17.539 -16.706 17.508 -17.605 17.477 C-18.401 17.457 -19.197 17.437 -20.016 17.417 C-22 17 -22 17 -24 14 C-23.31 13.914 -22.621 13.827 -21.91 13.738 C-14.729 12.665 -7.212 11.185 -2.555 5.117 C-1.298 3.022 -1.298 3.022 0 0 Z " fill="#F0EFF0" transform="translate(475,744)"/>
<path d="M0 0 C1.465 1.027 1.465 1.027 3 3 C6.031 23.325 -3.933 40.548 -13.174 57.836 C-13.857 59.117 -14.54 60.399 -15.223 61.68 C-15.555 62.299 -15.887 62.918 -16.229 63.556 C-18.817 68.457 -20.862 73.477 -22.697 78.711 C-24.353 81.62 -25.848 82.095 -29 83 C-29.284 77.663 -28.567 74.109 -26.375 69.25 C-26.077 68.584 -25.779 67.919 -25.473 67.233 C-22.828 61.466 -19.838 55.892 -16.853 50.296 C-4.145 26.427 -4.145 26.427 0 0 Z " fill="#F0EFF0" transform="translate(531,511)"/>
<path d="M0 0 C4.86 3.099 9.487 6.332 13.938 10 C26.057 19.807 39.698 26.116 55 29 C55.902 29.193 56.805 29.387 57.734 29.586 C64.404 30.948 71.026 31.378 77.812 31.656 C81 32 81 32 84 34 C78.282 35.906 71.994 35.7 66 36 C64.933 36.055 63.865 36.111 62.766 36.168 C41.054 36.771 21.954 25.634 6.375 11.492 C0 4.803 0 4.803 0 0 Z " fill="#F0EFF0" transform="translate(555,318)"/>
<path d="M0 0 C2 3 2 3 2 5 C3.65 4.67 5.3 4.34 7 4 C7.495 4.99 7.495 4.99 8 6 C8.99 6.66 9.98 7.32 11 8 C9.581 13.847 8.072 19.275 5.234 24.59 C-3.199 40.191 -3.199 40.191 -7 57 C-6.34 57.66 -5.68 58.32 -5 59 C-6.468 61.937 -7.938 64.874 -9.41 67.809 C-10.348 69.69 -11.276 71.576 -12.184 73.473 C-14.695 78.701 -14.695 78.701 -16.51 80.482 C-18.168 82.172 -18.81 83.529 -19.648 85.73 C-19.929 86.448 -20.21 87.165 -20.499 87.905 C-20.788 88.658 -21.077 89.411 -21.375 90.188 C-23.763 96.196 -26.112 101.779 -30 107 C-30.66 107 -31.32 107 -32 107 C-30.437 101.898 -28.306 97.2 -26.062 92.375 C-22.165 83.854 -18.613 75.22 -15.188 66.5 C-14.732 65.344 -14.276 64.188 -13.807 62.998 C-11.312 56.595 -8.994 50.167 -6.888 43.626 C-6.025 41.074 -5.049 38.606 -4 36.125 C-1.809 30.816 -0.327 25.343 1.168 19.809 C2 17 2 17 3 16 C3.041 13.667 3.042 11.333 3 9 C1.68 8.67 0.36 8.34 -1 8 C-1.625 5.687 -1.625 5.687 -2 3 C-1.34 2.01 -0.68 1.02 0 0 Z " fill="#5F5F60" transform="translate(338,114)"/>
<path d="M0 0 C0.495 0.99 0.495 0.99 1 2 C-7.763 14.81 -18.183 25.513 -29.353 36.204 C-39.045 45.562 -48.901 56.147 -51 70 C-51.33 70 -51.66 70 -52 70 C-52.997 57.234 -48.098 46.731 -40 37 C-32.55 28.739 -24.499 21.107 -15.75 14.238 C-10.259 9.769 -5.158 4.846 0 0 Z " fill="#F0EFF0" transform="translate(537,343)"/>
<path d="M0 0 C-1.473 3.08 -3.181 5.925 -5 8.812 C-10.396 17.867 -11.653 27.061 -9.195 37.379 C-6.709 44.642 -3.216 49.669 2.207 55.074 C4 57 4 57 4 59 C0.62 59.263 -1.416 59.343 -4.379 57.602 C-10.583 51.986 -16.371 44.793 -17.177 36.09 C-17.543 23.248 -17.565 12.202 -8.367 2.242 C-5.658 -0.22 -3.538 -0.093 0 0 Z " fill="#1A171A" transform="translate(666,377)"/>
<path d="M0 0 C0.99 0.33 1.98 0.66 3 1 C3.086 1.871 3.173 2.743 3.262 3.641 C5.009 18.454 9.92 30.821 21.875 40.312 C23.23 41.238 24.606 42.134 26 43 C26.714 43.451 27.428 43.902 28.164 44.367 C35.635 48.59 43.63 49.723 52 51 C52 51.33 52 51.66 52 52 C40.944 54.521 30.879 53.651 21 48 C10.634 41.114 3.511 31.989 -0.629 20.211 C-1.205 16.777 -1.144 13.346 -1.125 9.875 C-1.129 9.147 -1.133 8.418 -1.137 7.668 C-1.127 2.253 -1.127 2.253 0 0 Z " fill="#F0EFF0" transform="translate(667,454)"/>
<path d="M0 0 C3.322 3.322 3.168 7.529 3.25 12.062 C3.048 25.818 -3.084 37.898 -8.941 50.039 C-12.104 56.614 -14.851 62.723 -16 70 C-19 69 -19 69 -21 66 C-20.613 56.712 -16.217 48.258 -12.062 40.125 C-5.352 26.886 -1.906 14.675 0 0 Z " fill="#F0EFF0" transform="translate(553,525)"/>
<path d="M0 0 C2.125 -0.438 2.125 -0.438 5 0 C12.114 5.785 15.429 15.246 17 24 C17.213 27.008 17.193 29.987 17.125 33 C17.116 33.775 17.107 34.549 17.098 35.348 C17.074 37.232 17.039 39.116 17 41 C20.678 38.727 20.678 38.727 24 36 C25.666 35.959 27.334 35.957 29 36 C28.682 39.114 28.414 40.606 26.109 42.801 C25.331 43.3 24.552 43.799 23.75 44.312 C22.598 45.08 22.598 45.08 21.422 45.863 C18.651 47.164 17.023 47.45 14 47 C12.048 45.473 11.114 44.582 10.631 42.122 C10.63 41.424 10.63 40.726 10.629 40.008 C10.614 39.226 10.6 38.445 10.585 37.64 C10.578 36.81 10.57 35.98 10.562 35.125 C10.224 24.343 8.481 14.622 2.051 5.684 C0.884 3.813 0.428 2.151 0 0 Z " fill="#1A171A" transform="translate(542,411)"/>
<path d="M0 0 C2.475 0.495 2.475 0.495 5 1 C4.528 11.193 0.975 18.49 -6.605 25.48 C-12.731 30.144 -19.594 29.99 -27 29 C-29.828 27.952 -31.579 26.844 -34 25 C-33.67 23.35 -33.34 21.7 -33 20 C-30.831 20.506 -29 21 -27 22 C-21.445 22.507 -16.582 22.763 -11.5 20.312 C-5.2 14.485 -2.128 8.183 0 0 Z " fill="#1A171A" transform="translate(595,456)"/>
<path d="M0 0 C0.763 0.206 1.526 0.413 2.312 0.625 C2.947 7.609 1.46 11.966 -2.688 17.625 C-5.717 21.056 -8.234 23.299 -12.75 24.312 C-16.908 23.339 -18.702 21.681 -21.688 18.625 C-21.688 17.635 -21.688 16.645 -21.688 15.625 C-19.965 14.301 -19.965 14.301 -17.625 12.938 C-13.341 10.246 -10.349 7.291 -7.195 3.359 C-4.886 0.704 -3.576 -0.499 0 0 Z " fill="#FEFEFE" transform="translate(449.6875,718.375)"/>
<path d="M0 0 C0.794 -0.016 1.588 -0.032 2.406 -0.049 C6.955 -0.053 10.545 0.004 14 3.312 C14.312 6.5 14.312 6.5 14 9.312 C13.395 9.332 12.791 9.352 12.167 9.373 C9.403 9.468 6.639 9.578 3.875 9.688 C2.924 9.718 1.972 9.749 0.992 9.781 C-4.049 9.991 -8.249 10.461 -13 12.312 C-15.812 12.5 -15.812 12.5 -18 12.312 C-19 11.312 -19 11.312 -19.375 9 C-19 6.312 -19 6.312 -16.812 4.125 C-11.139 0.469 -6.601 -0.027 0 0 Z " fill="#1A171A" transform="translate(571,370.6875)"/>
<path d="M0 0 C1.166 3.389 0.825 5.245 -0.438 8.562 C-1.483 11.344 -2 12.985 -2 16 C-1.34 16.33 -0.68 16.66 0 17 C0.103 17.804 0.206 18.609 0.312 19.438 C0.725 22.173 0.725 22.173 3.125 23.25 C10.043 25.055 15.984 24.918 23 24 C22.67 25.98 22.34 27.96 22 30 C26.474 30.089 30.606 29.857 35 29 C35.495 30.485 35.495 30.485 36 32 C33.459 33.439 30.918 34.876 28.375 36.312 C27.662 36.717 26.949 37.121 26.215 37.537 C14.617 44.081 14.617 44.081 11.625 43.688 C10.821 43.347 10.821 43.347 10 43 C10.66 43 11.32 43 12 43 C12.124 42.154 12.248 41.309 12.375 40.438 C14.192 30.444 14.192 30.444 18 27 C16.913 27.017 16.913 27.017 15.805 27.035 C10.752 27.082 5.966 27.074 1 26 C1 25.34 1 24.68 1 24 C-0.32 23.67 -1.64 23.34 -3 23 C-3 22.34 -3 21.68 -3 21 C-3.66 21 -4.32 21 -5 21 C-5.421 13.421 -4.271 6.407 0 0 Z " fill="#363537" transform="translate(252,332)"/>
<path d="M0 0 C0.33 0 0.66 0 1 0 C1.33 3.3 1.66 6.6 2 10 C5.719 9.493 8.735 8.884 12 7 C12 11.729 10.443 13.941 7.25 17.188 C-0.041 23.96 -0.041 23.96 -5.062 24.062 C-9.086 22.607 -10.169 20.807 -12 17 C-11.718 12.68 -10.253 10.819 -7.125 7.938 C-4.433 5.43 -2.193 2.949 0 0 Z " fill="#F0EFF0" transform="translate(425,706)"/>
<path d="M0 0 C0.66 0 1.32 0 2 0 C4.714 4.072 4.752 7.218 4 12 C1.706 17.524 -1.966 21.842 -7 25 C-9.97 25.587 -11.91 25.405 -15 25 C-17 23.5 -17 23.5 -18 22 C-16.491 18.269 -14.316 16.363 -11.25 13.812 C-7.01 10.124 -3.997 6.484 -1.156 1.652 C-0.775 1.107 -0.393 0.562 0 0 Z " fill="#FEFEFE" transform="translate(462,727)"/>
<path d="M0 0 C2.062 0.438 2.062 0.438 4 1 C4.33 2.32 4.66 3.64 5 5 C6.32 5 7.64 5 9 5 C8.42 8.913 6.493 11.008 4 14 C3.361 15.031 2.721 16.062 2.062 17.125 C-0.23 20.321 -1.332 21.595 -5 23 C-10.241 23.64 -14.496 23.826 -19.188 21.25 C-21 19 -21 19 -21 15 C-19.679 15.195 -19.679 15.195 -18.332 15.395 C-11.3 16.401 -11.3 16.401 -4.812 14.188 C-2.716 10.5 -1.976 7.277 -1.359 3.109 C-1 1 -1 1 0 0 Z " fill="#130D0F" transform="translate(587,397)"/>
<path d="M0 0 C3.875 0.875 3.875 0.875 5 2 C5.466 8.873 4.586 13.022 -0.062 18.375 C-4.361 20.753 -8.198 20.907 -13 20 C-16.595 18.074 -18.745 15.383 -21 12 C-21.125 9.312 -21.125 9.312 -21 7 C-18.449 8.177 -16.403 9.441 -14.125 11.125 C-10.609 13.234 -9.009 13.872 -5 13 C-1.346 8.951 -0.429 5.364 0 0 Z " fill="#1A171A" transform="translate(542,422)"/>
<path d="M0 0 C8.858 3.07 14.196 11.352 19.879 18.434 C22.418 21.506 25.111 24.259 28 27 C27.67 27.66 27.34 28.32 27 29 C10.001 23.693 10.001 23.693 6.316 16.824 C4.504 12.657 3.247 8.364 2 4 C0.953 1.627 0.953 1.627 0 0 Z " fill="#F0EFF0" transform="translate(504,764)"/>
<path d="M0 0 C1 1 1 1 1.289 3.355 C1 6 1 6 -0.539 7.738 C-1.227 8.258 -1.916 8.777 -2.625 9.312 C-6.394 12.336 -8.966 15.448 -11.578 19.496 C-12.047 19.992 -12.517 20.489 -13 21 C-14.32 21 -15.64 21 -17 21 C-18.093 17.331 -18.574 15.243 -16.941 11.707 C-12.793 5.274 -8.44 -1.178 0 0 Z " fill="#130D0F" transform="translate(531,387)"/>
<path d="M0 0 C1.922 0.332 1.922 0.332 4 1 C5.87 5.02 6.614 8.612 6 13 C4.536 15.816 2.837 18.414 1 21 C-3.75 20.25 -3.75 20.25 -6 18 C-6.853 13.588 -6.85 9.542 -4.656 5.562 C-3.182 3.615 -1.671 1.78 0 0 Z " fill="#F0EFF0" transform="translate(408,693)"/>
<path d="M0 0 C0.66 0.33 1.32 0.66 2 1 C2 1.66 2 2.32 2 3 C2.66 3.66 3.32 4.32 4 5 C2.532 7.937 1.062 10.874 -0.41 13.809 C-1.348 15.69 -2.276 17.576 -3.184 19.473 C-5.695 24.701 -5.695 24.701 -7.51 26.482 C-9.168 28.172 -9.81 29.529 -10.648 31.73 C-10.929 32.448 -11.21 33.165 -11.499 33.905 C-11.788 34.658 -12.077 35.411 -12.375 36.188 C-14.763 42.196 -17.112 47.779 -21 53 C-21.66 53 -22.32 53 -23 53 C-21.336 47.526 -19.008 42.437 -16.625 37.25 C-14.254 32.08 -11.96 26.936 -9.961 21.609 C-8.497 17.854 -6.932 15.786 -4 13 C-2.669 9.756 -2.669 9.756 -1.75 6.25 C-1.415 5.08 -1.08 3.909 -0.734 2.703 C-0.492 1.811 -0.25 0.919 0 0 Z " fill="#5F5F60" transform="translate(329,168)"/>
<path d="M0 0 C8.25 0.33 16.5 0.66 25 1 C25.33 2.32 25.66 3.64 26 5 C19.391 9.406 8.635 7.222 1 6 C0.67 4.02 0.34 2.04 0 0 Z " fill="#232023" transform="translate(507,749)"/>
<path d="M0 0 C34.98 0 69.96 0 106 0 C106 0.33 106 0.66 106 1 C71.02 1 36.04 1 0 1 C0 0.67 0 0.34 0 0 Z M-11 1 C-7.37 1 -3.74 1 0 1 C0 1.33 0 1.66 0 2 C-3.076 2.293 -3.076 2.293 -6.152 2.586 C-6.762 2.723 -7.372 2.859 -8 3 C-8.33 3.66 -8.66 4.32 -9 5 C-9.99 5 -10.98 5 -12 5 C-11.67 3.68 -11.34 2.36 -11 1 Z " fill="#060407" transform="translate(138,922)"/>
<path d="M0 0 C0.66 0.33 1.32 0.66 2 1 C1.67 1.33 1.34 1.66 1 2 C36.97 2.33 72.94 2.66 110 3 C110 3.33 110 3.66 110 4 C72.05 4 34.1 4 -5 4 C-2 1 -2 1 0 0 Z " fill="#F0EFF0" transform="translate(770,917)"/>
<path d="M0 0 C-1.333 2.667 -2.667 5.333 -4 8 C-4.66 8 -5.32 8 -6 8 C-6.25 8.874 -6.5 9.748 -6.758 10.648 C-8.059 14.158 -9.642 16.634 -11.875 19.625 C-12.553 20.545 -13.231 21.466 -13.93 22.414 C-15.828 24.785 -17.806 26.904 -20 29 C-18.642 23.377 -16.475 18.853 -13.562 13.875 C-13.167 13.185 -12.772 12.496 -12.365 11.785 C-11.599 10.452 -10.828 9.123 -10.051 7.797 C-9.133 6.227 -8.236 4.644 -7.344 3.059 C-6 1 -6 1 -3.938 0.188 C-2 0 -2 0 0 0 Z " fill="#5F5F60" transform="translate(284,274)"/>
<path d="M0 0 C1.782 4.17 0.057 7.831 -1.312 11.875 C-1.539 12.57 -1.765 13.265 -1.998 13.98 C-2.655 15.991 -3.325 17.996 -4 20 C-4.385 21.158 -4.771 22.315 -5.168 23.508 C-5.443 24.33 -5.717 25.153 -6 26 C-6.66 26 -7.32 26 -8 26 C-8.082 26.969 -8.165 27.939 -8.25 28.938 C-8.909 33.611 -10.672 37.907 -13 42 C-13.99 42.495 -13.99 42.495 -15 43 C-13.036 36.265 -10.896 29.616 -8.562 23 C-8.104 21.694 -8.104 21.694 -7.636 20.362 C-5.783 15.117 -3.863 9.914 -1.727 4.777 C-1.086 3.21 -0.535 1.606 0 0 Z " fill="#7E7D7E" transform="translate(337,142)"/>
<path d="M0 0 C1.166 3.389 0.825 5.245 -0.438 8.562 C-1.483 11.344 -2 12.985 -2 16 C-1.34 16.33 -0.68 16.66 0 17 C0.103 17.804 0.206 18.609 0.312 19.438 C0.539 20.283 0.766 21.129 1 22 C4.891 24.24 9.652 24.968 14 26 C10.8 27.067 9.115 26.948 5.812 26.562 C4.911 26.461 4.01 26.359 3.082 26.254 C2.395 26.17 1.708 26.086 1 26 C1 25.34 1 24.68 1 24 C-0.32 23.67 -1.64 23.34 -3 23 C-3 22.34 -3 21.68 -3 21 C-3.66 21 -4.32 21 -5 21 C-5.421 13.421 -4.271 6.407 0 0 Z " fill="#929294" transform="translate(252,332)"/>
<path d="M0 0 C0.707 1.641 0.707 1.641 1 4 C-0.363 6.797 -0.363 6.797 -2.312 9.75 C-3.266 11.227 -3.266 11.227 -4.238 12.734 C-4.82 13.482 -5.401 14.23 -6 15 C-6.66 15 -7.32 15 -8 15 C-8 15.99 -8 16.98 -8 18 C-8.66 18 -9.32 18 -10 18 C-10.159 18.831 -10.317 19.663 -10.48 20.52 C-10.714 21.606 -10.947 22.693 -11.188 23.812 C-11.408 24.891 -11.628 25.97 -11.855 27.082 C-13.242 30.617 -14.622 31.424 -18 33 C-16.32 23.848 -11.396 17.141 -6.17 9.69 C-3.987 6.537 -2.001 3.269 0 0 Z " fill="#5F5F60" transform="translate(269,306)"/>
<path d="M0 0 C0.33 0.66 0.66 1.32 1 2 C-0.184 4.746 -0.184 4.746 -2.008 8.223 C-2.33 8.842 -2.653 9.462 -2.985 10.1 C-4.024 12.091 -5.075 14.077 -6.125 16.062 C-6.811 17.374 -7.496 18.686 -8.18 19.998 C-11.692 26.718 -15.266 33.401 -19 40 C-19.99 39.67 -20.98 39.34 -22 39 C-20.437 34.54 -18.051 30.756 -15.5 26.812 C-9.941 18.088 -4.942 9.085 0 0 Z " fill="#CECDCD" transform="translate(310,230)"/>
<path d="M0 0 C-0.632 5.053 -2.135 9.296 -4 14 C-3.34 14.33 -2.68 14.66 -2 15 C-4.354 16.429 -5.48 17.087 -8.25 16.625 C-9.116 16.316 -9.116 16.316 -10 16 C-9.34 16 -8.68 16 -8 16 C-7.876 15.154 -7.752 14.309 -7.625 13.438 C-5.182 0 -5.182 0 0 0 Z " fill="#7E7D7E" transform="translate(272,359)"/>
<path d="M0 0 C1.32 1.32 2.64 2.64 4 4 C-2.6 4 -9.2 4 -16 4 C-12.108 0.108 -5.225 -2.239 0 0 Z " fill="#F0EFF0" transform="translate(506,917)"/>
<path d="M0 0 C0.66 0.33 1.32 0.66 2 1 C2 1.66 2 2.32 2 3 C2.66 3.66 3.32 4.32 4 5 C3.044 6.939 2.085 8.876 1.125 10.812 C0.591 11.891 0.058 12.97 -0.492 14.082 C-2 17 -2 17 -4 20 C-4.66 20 -5.32 20 -6 20 C-4.129 13.294 -2.06 6.65 0 0 Z " fill="#504E50" transform="translate(329,168)"/>
<path d="M0 0 C0.66 0.99 1.32 1.98 2 3 C2.536 3.681 3.072 4.361 3.625 5.062 C5.885 9.891 5.892 15.107 4.32 20.203 C3.623 21.837 2.822 23.425 2 25 C1.67 25 1.34 25 1 25 C0.75 19.375 0.75 19.375 3 16 C3.079 13.668 3.088 11.332 3 9 C1.68 8.67 0.36 8.34 -1 8 C-1.625 5.688 -1.625 5.688 -2 3 C-1.34 2.01 -0.68 1.02 0 0 Z " fill="#9E9FA1" transform="translate(338,114)"/>
<path d="M0 0 C0 0.99 0 1.98 0 3 C0.311 4.671 0.641 6.339 1 8 C0.01 8.495 0.01 8.495 -1 9 C-1.465 10.895 -1.465 10.895 -1.625 13.062 C-1.811 15.012 -1.811 15.012 -2 17 C-3.32 17 -4.64 17 -6 17 C-5.446 13.03 -4.501 9.701 -3 6 C-3 5.01 -3 4.02 -3 3 C-4.65 3 -6.3 3 -8 3 C-8.33 2.34 -8.66 1.68 -9 1 C-4.545 0.505 -4.545 0.505 0 0 Z " fill="#504E50" transform="translate(274,356)"/>
<path d="M0 0 C1.131 0.015 1.131 0.015 2.285 0.029 C3.451 0.067 3.451 0.067 4.641 0.105 C5.433 0.119 6.226 0.133 7.043 0.146 C8.992 0.182 10.942 0.236 12.891 0.293 C12.891 0.953 12.891 1.613 12.891 2.293 C2.496 2.788 2.496 2.788 -8.109 3.293 C-3.609 -0.082 -3.609 -0.082 0 0 Z " fill="#232023" transform="translate(577.109375,759.70703125)"/>
<path d="M0 0 C0.33 0.99 0.66 1.98 1 3 C-2.63 6.63 -6.26 10.26 -10 14 C-10.66 13.34 -11.32 12.68 -12 12 C-8.04 8.04 -4.08 4.08 0 0 Z " fill="#1A171A" transform="translate(508,366)"/>
<path d="M0 0 C0.99 0 1.98 0 3 0 C2.67 1.98 2.34 3.96 2 6 C3.361 5.474 3.361 5.474 4.75 4.938 C7.878 4.035 9.052 3.866 12 5 C7.496 6.757 3.824 7.193 -1 7 C-1.625 5.188 -1.625 5.188 -2 3 C-1.34 2.01 -0.68 1.02 0 0 Z " fill="#232023" transform="translate(275,356)"/>
<path d="M0 0 C0 0.33 0 0.66 0 1 C-0.701 1.021 -1.402 1.041 -2.125 1.062 C-6.379 2.45 -8.353 5.516 -11 9 C-11.33 8.34 -11.66 7.68 -12 7 C-12.66 6.67 -13.32 6.34 -14 6 C-9.33 -0.071 -7.377 -0.119 0 0 Z " fill="#5F5F60" transform="translate(352,110)"/>
<path d="M0 0 C1 3 1 3 0.223 5.043 C-0.16 5.751 -0.543 6.458 -0.938 7.188 C-1.318 7.903 -1.698 8.618 -2.09 9.355 C-2.39 9.898 -2.691 10.441 -3 11 C-3.99 11 -4.98 11 -6 11 C-6.99 11.495 -6.99 11.495 -8 12 C-2.947 1.474 -2.947 1.474 0 0 Z " fill="#F0EFF0" transform="translate(289,268)"/>
<path d="M0 0 C4.29 0 8.58 0 13 0 C12.01 0.33 11.02 0.66 10 1 C9.67 1.99 9.34 2.98 9 4 C8.34 4 7.68 4 7 4 C7 3.01 7 2.02 7 1 C4.03 2.32 1.06 3.64 -2 5 C-1.34 3.35 -0.68 1.7 0 0 Z " fill="#1A171A" transform="translate(359,126)"/>
<path d="M0 0 C0.66 0.66 1.32 1.32 2 2 C4.323 2.4 6.657 2.74 9 3 C8.34 4.32 7.68 5.64 7 7 C5.35 7 3.7 7 2 7 C0.539 4.353 0 3.106 0 0 Z " fill="#232023" transform="translate(267,350)"/>
<path d="M0 0 C3.039 0.461 3.039 0.461 6.625 1.375 C7.814 1.671 9.002 1.968 10.227 2.273 C11.142 2.513 12.057 2.753 13 3 C13 3.66 13 4.32 13 5 C7.761 4.449 3.026 3.571 -2 2 C-1.34 1.34 -0.68 0.68 0 0 Z " fill="#363537" transform="translate(493,732)"/>
<path d="M0 0 C2 1 2 1 2.621 2.641 C3.113 5.703 3.094 8.65 3.062 11.75 C3.053 12.92 3.044 14.091 3.035 15.297 C3.024 16.189 3.012 17.081 3 18 C2.67 18 2.34 18 2 18 C1.67 15.36 1.34 12.72 1 10 C0.67 10 0.34 10 0 10 C0 6.7 0 3.4 0 0 Z " fill="#CECDCD" transform="translate(498,489)"/>
<path d="M0 0 C0.33 0 0.66 0 1 0 C1.223 6.728 0.95 12.54 -1 19 C-1.66 19 -2.32 19 -3 19 C-2.505 14.545 -2.505 14.545 -2 10 C-1.34 10 -0.68 10 0 10 C0 6.7 0 3.4 0 0 Z " fill="#232023" transform="translate(627,746)"/>
<path d="M0 0 C0.66 0 1.32 0 2 0 C1.547 1.439 1.088 2.876 0.625 4.312 C0.37 5.113 0.115 5.914 -0.148 6.738 C-1 9 -1 9 -3 12 C-3.66 12 -4.32 12 -5 12 C-4.547 10.561 -4.088 9.124 -3.625 7.688 C-3.242 6.487 -3.242 6.487 -2.852 5.262 C-2 3 -2 3 0 0 Z " fill="#444143" transform="translate(321,193)"/>
<path d="M0 0 C0 0.66 0 1.32 0 2 C-3.3 2 -6.6 2 -10 2 C-10.33 2.66 -10.66 3.32 -11 4 C-12.65 4 -14.3 4 -16 4 C-15.67 3.01 -15.34 2.02 -15 1 C-13.438 0.83 -11.875 0.664 -10.312 0.5 C-9.442 0.407 -8.572 0.314 -7.676 0.219 C-5.103 0.008 -2.58 -0.037 0 0 Z " fill="#1A171A" transform="translate(390,123)"/>
<path d="M0 0 C1.158 3.475 0.773 5.137 0.062 8.688 C-0.132 9.681 -0.327 10.675 -0.527 11.699 C-0.683 12.458 -0.839 13.218 -1 14 C-1.99 14 -2.98 14 -4 14 C-4.33 12.35 -4.66 10.7 -5 9 C-4.34 9 -3.68 9 -3 9 C-2.801 8.151 -2.801 8.151 -2.598 7.285 C-2.333 6.185 -2.333 6.185 -2.062 5.062 C-1.888 4.332 -1.714 3.601 -1.535 2.848 C-1 1 -1 1 0 0 Z " fill="#C3C5C5" transform="translate(248,339)"/>
<path d="M0 0 C0.33 0.99 0.66 1.98 1 3 C-0.652 5.699 -0.652 5.699 -2.938 8.688 C-3.689 9.681 -4.441 10.675 -5.215 11.699 C-5.804 12.458 -6.393 13.218 -7 14 C-7.66 13.34 -8.32 12.68 -9 12 C-8.602 11.553 -8.203 11.105 -7.793 10.645 C-4.82 7.252 -2.172 3.982 0 0 Z " fill="#1A171A" transform="translate(640,499)"/>
<path d="M0 0 C1 3 1 3 0.074 5.043 C-0.612 6.105 -0.612 6.105 -1.312 7.188 C-1.762 7.903 -2.212 8.618 -2.676 9.355 C-3.113 9.898 -3.55 10.441 -4 11 C-4.66 11 -5.32 11 -6 11 C-3.767 3.982 -3.767 3.982 -2 1 C-1.34 0.67 -0.68 0.34 0 0 Z " fill="#504E50" transform="translate(312,210)"/>
<path d="M0 0 C0.33 0.66 0.66 1.32 1 2 C1.99 2.66 2.98 3.32 4 4 C3.34 6.64 2.68 9.28 2 12 C0.938 10.188 0.938 10.188 0 8 C0.33 7.01 0.66 6.02 1 5 C0.34 5 -0.32 5 -1 5 C-2.625 3 -2.625 3 -4 1 C-2 0 -2 0 0 0 Z " fill="#504E50" transform="translate(345,118)"/>
<path d="M0 0 C0.33 0 0.66 0 1 0 C1 1.98 1 3.96 1 6 C1.99 6.33 2.98 6.66 4 7 C1.646 8.429 0.52 9.087 -2.25 8.625 C-2.827 8.419 -3.405 8.212 -4 8 C-3.34 8 -2.68 8 -2 8 C-1.783 6.577 -1.783 6.577 -1.562 5.125 C-1 2 -1 2 0 0 Z " fill="#7E7D7E" transform="translate(266,367)"/>
<path d="M0 0 C1.44 0.257 2.877 0.531 4.312 0.812 C5.113 0.963 5.914 1.114 6.738 1.27 C9.234 2.076 10.324 3.021 12 5 C7.682 4.492 3.967 3.803 0 2 C0 1.34 0 0.68 0 0 Z " fill="#232023" transform="translate(592,341)"/>
<path d="M0 0 C1 2 1 2 0.375 4.938 C-1.217 8.482 -2.551 9.366 -6 11 C-4.881 6.149 -3.867 3.222 0 0 Z " fill="#504E50" transform="translate(257,328)"/>
<path d="M0 0 C0.33 0.66 0.66 1.32 1 2 C-0.25 5.562 -0.25 5.562 -2 9 C-2.99 9.33 -3.98 9.66 -5 10 C-4.551 8.518 -4.09 7.039 -3.625 5.562 C-3.37 4.739 -3.115 3.915 -2.852 3.066 C-2 1 -2 1 0 0 Z " fill="#5F5F60" transform="translate(316,201)"/>
<path d="M0 0 C0.763 0.309 1.526 0.619 2.312 0.938 C5.404 2.16 7.652 3 11 3 C11 3.66 11 4.32 11 5 C6.532 5.213 3.177 4.591 -1 3 C-0.67 2.01 -0.34 1.02 0 0 Z " fill="#5F5F60" transform="translate(253,352)"/>
<path d="M0 0 C1.173 3.403 0.818 5.289 -0.438 8.625 C-1.64 11.736 -1.64 11.736 -2 15 C-2.66 15 -3.32 15 -4 15 C-3.503 9.339 -2.455 5.123 0 0 Z " fill="#717273" transform="translate(252,332)"/>
<path d="M0 0 C0.883 2.467 1.131 3.639 0.223 6.141 C-0.16 6.837 -0.543 7.533 -0.938 8.25 C-1.318 8.956 -1.698 9.663 -2.09 10.391 C-2.39 10.922 -2.691 11.453 -3 12 C-3.66 12 -4.32 12 -5 12 C-3.689 7.766 -2.056 3.926 0 0 Z " fill="#5F5F60" transform="translate(301,229)"/>
<path d="M0 0 C0.66 0 1.32 0 2 0 C0.787 3.724 -0.509 7.378 -2 11 C-2.66 10.67 -3.32 10.34 -4 10 C-2.68 6.7 -1.36 3.4 0 0 Z " fill="#232023" transform="translate(820,641)"/>
<path d="M0 0 C0.66 0.33 1.32 0.66 2 1 C2.414 3.066 2.414 3.066 2.625 5.562 C2.7 6.389 2.775 7.215 2.852 8.066 C2.925 9.024 2.925 9.024 3 10 C2.67 9.01 2.34 8.02 2 7 C1.01 6.67 0.02 6.34 -1 6 C-1.043 4.334 -1.041 2.666 -1 1 C-0.67 0.67 -0.34 0.34 0 0 Z " fill="#504E50" transform="translate(250,342)"/>
<path d="M0 0 C1 3 1 3 -0.25 6.562 C-2 10 -2 10 -5 12 C-3.858 7.52 -2.57 3.855 0 0 Z " fill="#717273" transform="translate(269,291)"/>
<path d="M0 0 C0.66 0.33 1.32 0.66 2 1 C1.67 1.33 1.34 1.66 1 2 C3.97 2.495 3.97 2.495 7 3 C7 3.33 7 3.66 7 4 C3.04 4 -0.92 4 -5 4 C-2 1 -2 1 0 0 Z " fill="#E3E1E3" transform="translate(770,917)"/>
<path d="M0 0 C0.33 0 0.66 0 1 0 C1.33 3.96 1.66 7.92 2 12 C1.01 12 0.02 12 -1 12 C-0.67 8.04 -0.34 4.08 0 0 Z " fill="#C3C5C5" transform="translate(789,657)"/>
<path d="M0 0 C3 3 3 3 3.188 5.688 C3.095 6.832 3.095 6.832 3 8 C2.01 8.33 1.02 8.66 0 9 C0 6.03 0 3.06 0 0 Z " fill="#CECDCD" transform="translate(531,511)"/>
<path d="M0 0 C2 3 2 3 3 6 C2.34 6 1.68 6 1 6 C1 6.66 1 7.32 1 8 C0.34 8 -0.32 8 -1 8 C-1.625 5.688 -1.625 5.688 -2 3 C-1.34 2.01 -0.68 1.02 0 0 Z " fill="#929294" transform="translate(338,114)"/>
<path d="M0 0 C2.97 0.33 5.94 0.66 9 1 C9 1.33 9 1.66 9 2 C4.237 2.953 -0.167 3.083 -5 3 C-5 2.67 -5 2.34 -5 2 C-3.35 2 -1.7 2 0 2 C0 1.34 0 0.68 0 0 Z " fill="#504E50" transform="translate(366,931)"/>
<path d="M0 0 C0.625 1.812 0.625 1.812 1 4 C0.01 5.485 0.01 5.485 -1 7 C-1.66 7 -2.32 7 -3 7 C-3.33 7.99 -3.66 8.98 -4 10 C-3.435 6.042 -2.191 3.334 0 0 Z " fill="#5F5F60" transform="translate(264,314)"/>
<path d="M0 0 C-0.33 0.99 -0.66 1.98 -1 3 C-3.062 3.688 -3.062 3.688 -5 4 C-4.67 5.32 -4.34 6.64 -4 8 C-4.99 8.495 -4.99 8.495 -6 9 C-6.25 6.188 -6.25 6.188 -6 3 C-3.96 0.96 -2.917 0 0 0 Z " fill="#232023" transform="translate(433,730)"/>
<path d="M0 0 C0.66 0.66 1.32 1.32 2 2 C1.977 4.164 1.977 4.164 1.625 6.625 C1.514 7.442 1.403 8.26 1.289 9.102 C1.194 9.728 1.098 10.355 1 11 C-1.786 6.82 -0.796 4.853 0 0 Z " fill="#232023" transform="translate(481,492)"/>
<path d="M0 0 C0.66 0 1.32 0 2 0 C2.125 5.75 2.125 5.75 1 8 C0.34 8 -0.32 8 -1 8 C-0.67 5.36 -0.34 2.72 0 0 Z " fill="#2D2C2D" transform="translate(465,386)"/>
<path d="M0 0 C0.667 2.667 1.333 5.333 2 8 C0.68 8 -0.64 8 -2 8 C-1.125 2.25 -1.125 2.25 0 0 Z " fill="#5F5F60" transform="translate(270,365)"/>
<path d="M0 0 C0.33 0 0.66 0 1 0 C0.67 2.97 0.34 5.94 0 9 C-0.99 9.33 -1.98 9.66 -3 10 C-2.01 6.7 -1.02 3.4 0 0 Z " fill="#717273" transform="translate(318,192)"/>
<path d="M0 0 C0.33 0.66 0.66 1.32 1 2 C4.029 2.658 4.029 2.658 7 3 C7 3.66 7 4.32 7 5 C4.625 5.125 4.625 5.125 2 5 C1.34 4.34 0.68 3.68 0 3 C0 2.01 0 1.02 0 0 Z " fill="#2D2C2D" transform="translate(554,453)"/>
<path d="M0 0 C1.98 0.495 1.98 0.495 4 1 C3.34 2.65 2.68 4.3 2 6 C1.01 6 0.02 6 -1 6 C-0.67 4.02 -0.34 2.04 0 0 Z " fill="#504E50" transform="translate(324,182)"/>
<path d="M0 0 C0.66 0 1.32 0 2 0 C1.67 1.65 1.34 3.3 1 5 C0.34 5 -0.32 5 -1 5 C-1 6.65 -1 8.3 -1 10 C-1.33 10 -1.66 10 -2 10 C-1.86 8.52 -1.712 7.041 -1.562 5.562 C-1.481 4.739 -1.4 3.915 -1.316 3.066 C-1 1 -1 1 0 0 Z " fill="#717273" transform="translate(330,163)"/>
</svg>