<svg version="1.1" xmlns="http://www.w3.org/2000/svg" width="1024" height="1024">
<path d="M0 0 C337.92 0 675.84 0 1024 0 C1024 337.92 1024 675.84 1024 1024 C686.08 1024 348.16 1024 0 1024 C0 686.08 0 348.16 0 0 Z " fill="#FEFEFE" transform="translate(0,0)"/>
<path d="M0 0 C1.913 1.665 3.777 3.356 5.598 5.121 C5.747 4.212 5.747 4.212 5.898 3.285 C6.737 0.689 7.561 0.018 9.785 -1.504 C10.356 -1.909 10.927 -2.313 11.516 -2.73 C22.313 -8.686 38.489 -6.937 50.035 -4.051 C66.01 1.204 80.835 9.161 93.598 20.121 C94.432 20.821 95.266 21.521 96.125 22.242 C102.386 27.654 107.591 33.543 112.598 40.121 C112.995 40.638 113.391 41.154 113.8 41.687 C141.349 77.814 151.359 123.427 153.257 168.149 C153.437 172.287 153.437 172.287 154.082 176.371 C154.741 179.885 154.92 183.386 155.098 186.949 C155.138 187.698 155.179 188.446 155.221 189.217 C155.35 191.602 155.474 193.986 155.598 196.371 C156.34 213.788 156.34 213.788 159.535 230.871 C161.175 237.092 162.355 243.259 163.203 249.645 C163.469 252.115 163.469 252.115 164.598 254.121 C166.957 274.167 167.914 294.408 159.598 313.121 C160.918 313.121 162.238 313.121 163.598 313.121 C163.703 312.536 163.809 311.951 163.918 311.348 C164.693 308.808 165.721 307.475 167.473 305.496 C167.986 304.906 168.499 304.315 169.027 303.707 C171.626 301.082 173.28 300.156 176.973 299.746 C181.161 300.179 182.66 301.183 185.598 304.121 C188.746 310.419 186.63 319.685 184.598 326.121 C183.967 327.802 183.317 329.477 182.598 331.121 C183.753 331.121 184.908 331.121 186.098 331.121 C194.114 331.965 203.686 336.724 209.766 342.004 C211.611 343.421 211.611 343.421 214.074 342.555 C216.774 341.021 218.746 339.342 220.973 337.184 C226.962 331.747 232.123 329.515 240.227 329.762 C243.77 330.299 245.934 331.79 248.598 334.121 C251.079 337.843 251.364 340.81 250.598 345.121 C248.659 349.397 246.607 351.683 242.285 353.559 C241.398 353.744 240.511 353.93 239.598 354.121 C239.928 354.781 240.258 355.441 240.598 356.121 C241.062 361.97 241.062 361.97 240.598 364.121 C238.297 366.582 236.951 367.087 233.582 367.414 C231.981 367.362 231.981 367.362 230.348 367.309 C229.27 367.282 228.192 367.254 227.082 367.227 C225.852 367.174 225.852 367.174 224.598 367.121 C224.758 367.973 224.917 368.825 225.082 369.703 C227.451 385.408 223.799 398.689 215.414 412 C212.101 416.39 207.362 419.482 202.598 422.121 C201.938 422.121 201.278 422.121 200.598 422.121 C202.284 438.087 205.5 450.27 215.598 463.121 C216.126 462.16 216.126 462.16 216.664 461.18 C222.552 450.865 230.034 442.976 241.598 439.121 C250.064 438.219 256.571 439.189 263.598 444.121 C270.643 450.211 270.643 450.211 272.598 454.121 C273.503 453.073 273.503 453.073 274.426 452.004 C275.225 451.094 276.024 450.184 276.848 449.246 C277.637 448.341 278.425 447.436 279.238 446.504 C282.732 442.976 285.344 441.819 290.285 441.684 C298.007 441.876 303.279 445.678 308.848 450.746 C313.526 455.677 317.318 461.996 317.785 468.891 C317.598 471.121 317.598 471.121 316.598 472.121 C312.322 471.859 309.353 471.123 305.598 469.059 C301.65 467.02 299.096 466.174 294.598 467.121 C291.328 469.531 288.444 472.229 285.598 475.121 C284.938 474.791 284.278 474.461 283.598 474.121 C283.667 470.675 283.806 468.063 286.082 465.355 C290.645 461.339 294.003 459.975 300.098 459.996 C300.85 459.994 301.603 459.991 302.379 459.988 C304.571 460.12 306.491 460.518 308.598 461.121 C304.399 455.646 300.369 450.992 293.328 449.707 C289.018 449.435 287.169 449.683 283.66 452.371 C280.256 456.909 279.192 459.363 279.598 465.121 C280.896 468.277 280.896 468.277 282.598 471.496 C286.835 480.525 287.337 490.473 284.348 500.059 C283.791 501.424 283.207 502.779 282.598 504.121 C282.308 504.855 282.018 505.588 281.719 506.344 C274.429 524.127 260.94 534.263 243.734 541.898 C237.777 544.22 232.3 545.156 225.935 545.135 C225.123 545.133 224.311 545.131 223.475 545.129 C222.855 545.126 222.236 545.124 221.598 545.121 C225.05 589.998 225.05 589.998 233.461 634.062 C235.555 641.743 237.301 649.472 238.89 657.272 C239.195 658.753 239.507 660.232 239.827 661.709 C241.604 669.924 242.898 677.925 242.988 686.348 C243.001 687.04 243.014 687.732 243.027 688.446 C242.967 693.82 241.685 698.038 237.836 701.879 C229.59 707.733 218.978 714.121 208.598 714.121 C208.602 715.226 208.607 716.331 208.611 717.47 C208.652 728.11 208.682 738.751 208.701 749.392 C208.712 754.857 208.725 760.321 208.749 765.786 C208.843 788.621 208.745 811.415 207.715 834.23 C207.676 835.124 207.637 836.018 207.596 836.939 C207.198 845.81 206.643 854.644 205.649 863.47 C205.574 864.151 205.499 864.833 205.422 865.535 C204.535 872.826 202.671 880.565 197.598 886.121 C196.608 886.121 195.618 886.121 194.598 886.121 C194.658 885.461 194.719 884.801 194.781 884.121 C195.408 877.269 196.022 870.416 196.598 863.559 C196.68 862.634 196.763 861.709 196.848 860.756 C198.579 839.881 198.758 818.891 198.914 797.957 C198.935 795.573 198.956 793.189 198.977 790.804 C199.031 784.627 199.081 778.449 199.13 772.271 C199.181 765.928 199.236 759.585 199.291 753.242 C199.398 740.869 199.499 728.495 199.598 716.121 C198.668 716.439 197.739 716.758 196.781 717.086 C193.735 718.077 190.885 718.651 187.723 719.121 C183.644 719.73 179.715 720.59 175.719 721.608 C155.411 726.516 134.321 725.435 113.598 725.121 C113.493 726.286 113.493 726.286 113.386 727.475 C112.021 742.477 110.511 757.436 108.535 772.371 C107.05 783.609 105.581 794.827 104.598 806.121 C104.418 807.637 104.418 807.637 104.234 809.184 C103.765 815.518 105.575 819.905 108.402 825.534 C117.644 843.986 131.557 871.789 127.598 893.121 C126.062 895.492 126.062 895.492 124.598 897.121 C123.278 896.791 121.958 896.461 120.598 896.121 C120.499 895.556 120.4 894.991 120.299 894.408 C116.584 874.455 109.238 855.268 101.078 836.766 C100.25 834.885 99.423 833.003 98.598 831.121 C98.006 829.781 98.006 829.781 97.403 828.414 C90.711 812.634 95.661 793.931 97.8 777.42 C98.684 770.56 99.428 763.687 100.16 756.809 C101.342 745.862 102.85 734.991 104.598 724.121 C103.809 723.822 103.02 723.523 102.207 723.215 C98.871 721.816 97.207 720.34 95.598 717.121 C94.501 703.131 96.313 689.57 98.325 675.766 C99.876 665.099 101.043 654.581 101.598 643.809 C103.247 613.781 106.564 574.276 124.598 549.121 C125.258 548.791 125.918 548.461 126.598 548.121 C126.195 553.049 125.253 557.55 123.91 562.309 C116.256 589.882 111.52 618.26 110.801 646.844 C110.421 660.841 108.323 674.678 106.281 688.512 C106.165 689.303 106.049 690.094 105.929 690.91 C105.636 692.865 105.327 694.817 105.016 696.77 C104.566 700.375 104.465 703.863 104.473 707.496 C104.469 709.333 104.469 709.333 104.465 711.207 C104.265 714.013 104.265 714.013 105.598 715.121 C141.2 721.923 201.158 714.463 232.598 695.121 C235.245 689.827 233.329 682.71 232.102 677.191 C231.949 676.475 231.796 675.759 231.638 675.02 C231.316 673.522 230.991 672.025 230.662 670.528 C230.157 668.233 229.665 665.935 229.174 663.637 C228.859 662.176 228.543 660.715 228.227 659.254 C228.079 658.567 227.931 657.881 227.778 657.174 C226.986 653.548 226.986 653.548 225.598 650.121 C224.975 646.452 224.42 642.778 223.879 639.096 C223.115 634.052 222.176 629.081 221.117 624.09 C219.543 616.324 218.651 608.571 217.89 600.69 C217.49 596.545 217.063 592.404 216.641 588.262 C216.555 587.419 216.47 586.577 216.382 585.709 C215.493 576.983 214.497 568.27 213.473 559.559 C213.352 558.521 213.352 558.521 213.229 557.462 C212.393 542.892 212.393 542.892 208.598 529.121 C207.711 529.616 206.824 530.111 205.91 530.621 C202.708 532.071 201.032 532.598 197.598 532.121 C196.938 531.461 196.278 530.801 195.598 530.121 C195.598 529.131 195.598 528.141 195.598 527.121 C193.896 527.152 193.896 527.152 192.16 527.184 C188.598 527.121 188.598 527.121 187.598 526.121 C187.557 524.455 187.555 522.787 187.598 521.121 C186.278 521.121 184.958 521.121 183.598 521.121 C183.268 519.141 182.938 517.161 182.598 515.121 C181.938 515.451 181.278 515.781 180.598 516.121 C177.098 516.371 177.098 516.371 173.598 516.121 C171.598 513.121 171.598 513.121 171.473 509.871 C173.571 502.877 179.571 499.737 185.598 496.121 C183.618 492.491 181.638 488.861 179.598 485.121 C178.278 485.451 176.958 485.781 175.598 486.121 C173.719 486.201 171.837 486.229 169.957 486.219 C168.887 486.216 167.817 486.212 166.715 486.209 C165.604 486.201 164.492 486.192 163.348 486.184 C161.658 486.177 161.658 486.177 159.934 486.17 C157.155 486.158 154.376 486.142 151.598 486.121 C151.654 487.707 151.654 487.707 151.711 489.324 C151.606 492.833 151.257 494.762 149.785 497.871 C149.449 498.608 149.112 499.346 148.766 500.105 C147.565 502.178 146.454 503.61 144.598 505.121 C141.91 505.309 141.91 505.309 139.598 505.121 C138.113 502.151 138.113 502.151 136.598 499.121 C136.268 499.451 135.938 499.781 135.598 500.121 C133.223 500.434 133.223 500.434 130.598 500.121 C128.785 498.121 128.785 498.121 127.598 496.121 C126.711 496.389 125.824 496.657 124.91 496.934 C123.27 497.026 123.27 497.026 121.598 497.121 C119.931 495.454 118.264 493.788 116.598 492.121 C113.347 492.175 113.347 492.175 110.598 493.121 C108.275 490.701 107.614 489.226 107.098 485.871 C107.906 479.81 110.902 475.776 115.223 471.559 C117.575 469.144 118.409 467.264 119.578 464.16 C121.43 460.456 124.211 457.421 126.855 454.258 C128.628 452.243 128.628 452.243 129.598 450.121 C127.288 450.781 124.978 451.441 122.598 452.121 C122.474 452.719 122.35 453.317 122.223 453.934 C121.598 456.121 121.598 456.121 119.598 459.121 C118.608 458.791 117.618 458.461 116.598 458.121 C116.598 456.801 116.598 455.481 116.598 454.121 C114.989 454.183 114.989 454.183 113.348 454.246 C109.82 454.129 108.537 453.773 105.598 452.121 C105.573 452.74 105.548 453.36 105.522 453.998 C105.404 456.852 105.282 459.705 105.16 462.559 C105.101 464.019 105.101 464.019 105.041 465.51 C104.999 466.473 104.957 467.437 104.914 468.43 C104.877 469.304 104.841 470.179 104.803 471.08 C104.642 473.458 104.39 475.764 104.087 478.125 C103.49 483.461 103.501 488.732 103.563 494.094 C103.571 495.154 103.579 496.214 103.587 497.306 C103.604 499.594 103.624 501.883 103.645 504.171 C103.687 509.056 103.71 513.942 103.735 518.827 C103.78 527.905 103.833 536.982 103.92 546.06 C103.98 552.392 104.014 558.724 104.033 565.056 C104.045 567.455 104.065 569.854 104.096 572.253 C104.496 604.82 104.496 604.82 92.598 617.121 C91.893 617.753 91.187 618.384 90.461 619.035 C85.361 623.658 82.599 627.749 80.098 634.059 C75.509 645.527 68.547 652.43 57.598 658.121 C56.051 659.049 56.051 659.049 54.473 659.996 C50.448 661.571 47.91 661.687 43.598 661.121 C37.641 655.165 37.048 642.727 36.473 634.684 C36.392 633.659 36.311 632.634 36.228 631.578 C35.711 624.176 35.506 616.792 35.395 609.375 C35.379 608.423 35.363 607.472 35.347 606.491 C35.272 601.717 35.219 596.945 35.203 592.17 C35.107 581.536 34.075 571.71 31.573 561.365 C28.065 546.788 28.42 531.704 28.41 516.809 C28.409 515.95 28.408 515.091 28.407 514.206 C28.408 503.468 28.721 492.825 29.598 482.121 C28.805 482.377 28.012 482.633 27.195 482.896 C20.241 485.124 13.242 487.036 6.16 488.809 C4.883 489.13 4.883 489.13 3.579 489.458 C-5.26 491.643 -13.487 492.332 -22.59 492.371 C-24.343 492.402 -24.343 492.402 -26.131 492.434 C-33.722 492.467 -40.215 491.548 -47.402 489.121 C-48.107 488.89 -48.811 488.66 -49.536 488.422 C-51.355 487.808 -53.161 487.153 -54.965 486.496 C-56.142 486.071 -57.319 485.645 -58.531 485.207 C-61.402 484.121 -61.402 484.121 -63.402 483.121 C-63.535 484.181 -63.668 485.24 -63.805 486.332 C-63.983 487.72 -64.161 489.108 -64.34 490.496 C-64.427 491.195 -64.514 491.893 -64.604 492.613 C-65.289 497.895 -65.289 497.895 -66.402 500.121 C-65.101 500.543 -65.101 500.543 -63.773 500.973 C-60.619 502.047 -57.554 503.248 -54.465 504.496 C-41.582 509.404 -30.104 511.79 -16.342 511.643 C-13.969 511.621 -11.6 511.643 -9.229 511.668 C0.091 511.682 8.407 510.581 17.36 507.979 C20.598 507.121 20.598 507.121 24.598 507.121 C24.598 507.781 24.598 508.441 24.598 509.121 C3.602 519.754 -25.147 518.603 -47.07 512.02 C-54.446 509.569 -60.948 506.448 -67.402 502.121 C-67.489 502.776 -67.575 503.431 -67.664 504.105 C-70.745 524.115 -82.927 543.803 -94.402 560.121 C-96.856 563.756 -99.285 567.408 -101.715 571.059 C-102.326 571.972 -102.938 572.886 -103.568 573.827 C-104.149 574.696 -104.73 575.565 -105.328 576.461 C-105.848 577.238 -106.368 578.015 -106.904 578.816 C-107.398 579.577 -107.893 580.337 -108.402 581.121 C-108.95 581.962 -109.498 582.803 -110.063 583.669 C-113.638 590.215 -112.449 601.051 -110.406 608.074 C-107.454 615.934 -103.336 622.901 -98.655 629.844 C-96.34 633.316 -95.402 634.831 -95.402 639.121 C-110.54 646.741 -128.946 643.747 -144.5 638.867 C-159.271 633.927 -171.263 625.376 -178.652 611.371 C-191.176 584.555 -189.156 557.323 -179.625 530.055 C-176.699 522.024 -173.247 514.215 -169.824 506.386 C-165.925 497.446 -162.429 488.432 -159.186 479.238 C-158.309 476.87 -157.341 474.549 -156.371 472.219 C-154.385 467.292 -153.063 462.359 -151.902 457.184 C-151.694 456.279 -151.486 455.374 -151.272 454.442 C-150.64 451.671 -150.02 448.896 -149.402 446.121 C-149.211 445.282 -149.02 444.444 -148.823 443.58 C-146.445 433.136 -144.713 422.801 -143.625 412.149 C-143.266 408.88 -142.79 405.628 -142.34 402.371 C-139.837 381.908 -140.244 361.227 -140.272 340.647 C-140.278 336.462 -140.274 332.277 -140.269 328.092 C-140.249 311.077 -140.291 294.108 -141.402 277.121 C-140.412 276.791 -139.422 276.461 -138.402 276.121 C-136.741 281.375 -135.889 286.397 -135.34 291.871 C-134.789 297.575 -134.789 297.575 -133.402 303.121 C-132.147 312.597 -132.223 322.175 -132.199 331.715 C-132.195 332.887 -132.195 332.887 -132.191 334.083 C-132.176 338.233 -132.166 342.382 -132.162 346.532 C-132.158 349.896 -132.144 353.26 -132.121 356.625 C-131.983 377.348 -132.546 397.552 -135.402 418.121 C-135.566 419.314 -135.73 420.508 -135.899 421.737 C-137.664 434.462 -139.726 446.805 -143.402 459.121 C-143.842 460.778 -144.281 462.436 -144.719 464.094 C-146.465 470.523 -148.52 476.845 -150.626 483.164 C-151.276 485.116 -151.915 487.072 -152.555 489.027 C-154.786 495.781 -157.228 502.324 -160.293 508.748 C-164.665 518.103 -167.17 528.128 -169.843 538.063 C-170.319 539.813 -170.815 541.558 -171.316 543.301 C-174.634 554.863 -175.765 566.041 -175.777 578.059 C-175.802 579.326 -175.826 580.594 -175.852 581.9 C-175.895 596.106 -172.16 608.425 -162.594 619.148 C-147.282 633.696 -124.483 635.886 -104.402 636.121 C-104.994 635.261 -105.586 634.401 -106.195 633.516 C-111.451 625.716 -115.512 618.141 -118.402 609.121 C-118.767 608.04 -119.132 606.958 -119.508 605.844 C-120.596 601.314 -120.77 597.137 -120.777 592.496 C-120.802 591.702 -120.826 590.908 -120.852 590.09 C-120.934 571.983 -114.918 553.66 -110.34 536.309 C-107.167 524.258 -104.04 512.292 -101.948 500.001 C-101.402 497.121 -101.402 497.121 -100.402 495.121 C-100.149 493.713 -99.939 492.297 -99.754 490.879 C-99.579 489.55 -99.579 489.55 -99.4 488.195 C-98.866 483.966 -98.335 479.737 -97.818 475.505 C-97.548 473.304 -97.271 471.104 -96.986 468.905 C-94.295 447.994 -93.708 427.177 -93.402 406.121 C-93.072 406.121 -92.742 406.121 -92.402 406.121 C-86.477 439.099 -87.419 476.485 -96.09 508.934 C-98.029 516.379 -99.712 523.877 -101.384 531.386 C-104.127 543.705 -107.039 555.954 -110.402 568.121 C-84.104 541.822 -70.991 499.419 -70.96 463.306 C-70.962 462.008 -70.962 462.008 -70.965 460.684 C-70.965 459.429 -70.965 459.429 -70.965 458.149 C-71.004 444.222 -71.502 429.991 -74.906 416.426 C-75.574 413.323 -75.944 410.208 -76.34 407.059 C-77.247 399.923 -78.495 392.879 -79.878 385.821 C-80.514 382.546 -81.134 379.267 -81.754 375.988 C-82.899 369.939 -84.08 363.897 -85.283 357.859 C-86.082 353.821 -86.817 349.776 -87.516 345.719 C-89.67 333.942 -92.991 326.576 -101.008 317.733 C-108.97 308.528 -113.965 297.325 -118.402 286.121 C-118.73 285.301 -119.057 284.481 -119.395 283.637 C-122.696 274.584 -124.431 265.02 -124.608 255.411 C-124.609 247.48 -124.609 247.48 -128.59 240.871 C-129.216 240.295 -129.843 239.719 -130.488 239.125 C-140.246 228.91 -140.795 213.004 -140.777 199.746 C-140.776 197.963 -140.776 197.963 -140.775 196.144 C-140.634 185.741 -139.331 176.931 -133.402 168.121 C-132.412 167.461 -131.422 166.801 -130.402 166.121 C-131.058 162.511 -131.058 162.511 -132.402 159.121 C-135.901 160.66 -138.784 162.807 -141.816 165.098 C-143.402 166.121 -143.402 166.121 -145.402 166.121 C-143.945 161.389 -141.135 158.308 -137.777 154.809 C-137.233 154.233 -136.689 153.658 -136.128 153.065 C-135.044 151.922 -133.957 150.783 -132.865 149.647 C-131.673 148.403 -130.496 147.145 -129.324 145.883 C-124.918 141.257 -120.012 137.365 -114.964 133.473 C-109.987 129.625 -105.206 125.587 -100.452 121.469 C-96.9 118.394 -93.306 115.388 -89.652 112.434 C-85.28 108.886 -81.102 105.17 -76.941 101.379 C-73.38 98.212 -69.681 95.227 -65.977 92.23 C-63.8 90.447 -61.686 88.623 -59.59 86.746 C-54.376 82.144 -48.87 77.911 -43.374 73.655 C-41.357 72.085 -39.354 70.499 -37.352 68.91 C-9.354 46.883 -9.354 46.883 1.598 47.121 C0.958 52.406 -3.117 54.526 -7.047 57.637 C-11.111 60.704 -15.369 63.467 -19.632 66.246 C-26.552 70.797 -32.977 75.906 -39.402 81.121 C-40.336 81.871 -41.269 82.622 -42.23 83.395 C-47.977 88.049 -53.597 92.841 -59.198 97.668 C-63.708 101.548 -68.295 105.324 -72.914 109.074 C-76.482 112.009 -79.954 115.048 -83.402 118.121 C-82.869 117.795 -82.335 117.469 -81.785 117.133 C-69.278 109.798 -55.381 107.707 -41.098 110.848 C-34.936 113.151 -30.075 116.611 -26.402 122.121 C-25.712 125.936 -25.532 129.629 -27.523 133.043 C-28.902 134.684 -28.902 134.684 -31.402 137.121 C-36.805 136.434 -41.211 133.76 -45.904 131.18 C-59.326 124.135 -76.579 122.224 -91.402 125.121 C-97.438 127.683 -102.076 131.903 -106.695 136.466 C-109.138 138.835 -111.771 140.857 -114.465 142.934 C-115.779 143.994 -117.092 145.056 -118.402 146.121 C-111.646 147.053 -105.728 147.431 -99.09 145.684 C-92.408 144.045 -86.022 143.812 -79.152 143.809 C-78.146 143.804 -77.141 143.798 -76.104 143.793 C-69.637 143.852 -63.697 144.698 -57.402 146.121 C-56.007 146.356 -54.612 146.586 -53.215 146.809 C-39.977 149.795 -23.046 158.655 -15.402 170.121 C-12.223 170.634 -12.223 170.634 -8.59 170.684 C-4.002 170.843 -0.599 171.273 3.598 173.121 C6.961 172.934 9.496 171.695 12.473 170.246 C30.191 162.287 51.472 163.176 69.598 169.121 C70.749 169.495 71.9 169.869 73.086 170.254 C81.047 173.079 89.736 176.762 95.445 183.207 C98.312 185.757 101.322 186.382 104.973 187.184 C110.76 188.504 116.286 189.809 120.598 194.121 C120.598 195.441 120.598 196.761 120.598 198.121 C121.196 197.626 121.794 197.131 122.41 196.621 C127.173 194.38 131.428 194.234 136.598 195.121 C140.214 196.78 143.353 198.837 146.598 201.121 C145.779 189.587 144.742 178.072 143.661 166.559 C143.454 164.325 143.252 162.091 143.056 159.856 C141.786 145.399 139.739 131.511 136.178 117.435 C135.607 115.157 135.066 112.874 134.537 110.586 C128.534 84.725 117.043 60.285 99.598 40.121 C98.913 39.304 98.229 38.487 97.523 37.645 C82.564 20.295 59.71 5.18 36.419 2.909 C25.3 2.092 17.072 2.767 7.598 9.121 C7.959 9.797 8.32 10.472 8.691 11.168 C9.155 12.06 9.62 12.952 10.098 13.871 C10.794 15.194 10.794 15.194 11.504 16.543 C12.598 19.121 12.598 19.121 12.598 23.121 C8.657 21.595 6.87 19.192 4.348 15.871 C-1.954 7.992 -8.817 1.981 -19.211 0.803 C-22.427 0.645 -25.62 0.603 -28.84 0.621 C-29.991 0.627 -31.141 0.633 -32.327 0.638 C-64.403 1.305 -91.549 24.256 -112.973 46.375 C-134.537 69.396 -145.177 97.687 -151.402 128.121 C-151.609 129.114 -151.815 130.106 -152.027 131.129 C-153.496 138.998 -154.067 146.968 -154.706 154.938 C-154.782 155.892 -154.859 156.846 -154.938 157.828 C-155.003 158.679 -155.069 159.529 -155.137 160.406 C-155.327 162.354 -155.6 164.295 -155.925 166.226 C-156.56 171.413 -156.525 176.522 -156.5 181.742 C-156.499 182.842 -156.497 183.942 -156.496 185.075 C-156.49 188.57 -156.478 192.064 -156.465 195.559 C-156.46 197.936 -156.455 200.312 -156.451 202.689 C-156.441 208.5 -156.421 214.31 -156.402 220.121 C-155.412 212.861 -154.422 205.601 -153.402 198.121 C-146.117 209.049 -148.046 225.135 -148.09 237.746 C-148.092 239.274 -148.092 239.274 -148.093 240.833 C-148.157 269.604 -149.82 298.427 -154.092 326.896 C-154.381 328.965 -154.603 331.025 -154.789 333.105 C-155.727 343.156 -157.693 352.944 -159.777 362.809 C-159.924 363.51 -160.071 364.212 -160.223 364.934 C-162.008 373.397 -164.051 381.715 -166.496 390.018 C-167.253 392.609 -167.954 395.199 -168.613 397.816 C-175.499 424.449 -187.025 450.157 -198.402 475.121 C-199.35 477.221 -200.298 479.322 -201.246 481.422 C-207.071 494.278 -213.098 507.004 -219.707 519.477 C-220.084 520.201 -220.462 520.925 -220.851 521.672 C-221.573 523.057 -222.307 524.436 -223.053 525.809 C-225.128 529.811 -225.647 531.829 -224.402 536.121 C-223.455 538.205 -222.437 540.258 -221.375 542.285 C-221.071 542.87 -220.767 543.455 -220.453 544.057 C-219.463 545.957 -218.464 547.851 -217.465 549.746 C-216.773 551.069 -216.082 552.393 -215.391 553.716 C-213.403 557.522 -211.403 561.322 -209.402 565.121 C-208.493 566.85 -207.585 568.579 -206.676 570.309 C-205.514 572.516 -204.352 574.724 -203.186 576.929 C-199.824 583.296 -196.511 589.689 -193.202 596.084 C-187.026 608.027 -187.026 608.027 -180.777 619.934 C-180.208 621.013 -179.638 622.091 -179.051 623.203 C-177.409 626.212 -177.409 626.212 -175.246 629.242 C-173.545 631.899 -172.911 633.326 -172.527 636.371 C-171.629 641.15 -169.504 644.572 -166.934 648.648 C-162.867 655.216 -160.059 661.276 -161.402 669.121 C-165.493 680.226 -178.481 685.734 -188.613 690.488 C-197.413 694.408 -205.876 694.39 -215.402 694.121 C-215.402 693.461 -215.402 692.801 -215.402 692.121 C-214.696 691.96 -213.99 691.799 -213.262 691.633 C-199.181 687.9 -181.688 679.697 -171.402 669.121 C-170.239 666.846 -170.239 666.846 -170.402 664.121 C-171.449 661.53 -172.51 659.24 -173.84 656.809 C-174.178 656.163 -174.517 655.518 -174.865 654.854 C-175.698 653.269 -176.549 651.694 -177.402 650.121 C-180.824 653.517 -180.824 653.517 -184.148 657.008 C-195.427 669.016 -210.772 677.806 -225.402 685.121 C-224.815 688.563 -223.905 691.448 -222.465 694.621 C-220.713 698.687 -220.35 701.725 -220.277 706.121 C-219.025 716.215 -209.558 722.561 -202.519 729.096 C-199.128 732.341 -196.281 735.87 -193.395 739.57 C-191.189 742.394 -188.862 745.092 -186.527 747.809 C-180.614 754.872 -175.504 762.46 -170.402 770.121 C-169.412 771.606 -169.412 771.606 -168.402 773.121 C-168.696 761.408 -169.238 749.799 -170.84 738.184 C-170.962 737.292 -171.084 736.4 -171.21 735.482 C-171.787 731.525 -172.473 727.672 -173.492 723.805 C-174.258 720.706 -174.626 718.278 -174.527 715.121 C-174.509 714.358 -174.491 713.595 -174.473 712.809 C-174.449 712.252 -174.426 711.695 -174.402 711.121 C-173.742 711.121 -173.082 711.121 -172.402 711.121 C-164.167 726.906 -160.325 744.768 -160.379 762.582 C-160.321 777.597 -156.023 790.89 -151.326 805.003 C-146.74 820.48 -150.182 836.017 -157.402 850.121 C-163.088 859.125 -170.002 868.78 -179.402 874.121 C-179.977 874.472 -180.552 874.822 -181.145 875.184 C-187.567 877.85 -195.58 877.063 -202.043 874.906 C-233.128 860.096 -248.612 830.221 -259.711 799.145 C-262.418 791.333 -264.676 783.437 -266.778 775.444 C-267.925 771.174 -269.172 766.931 -270.402 762.684 C-272.114 756.761 -273.747 750.833 -275.245 744.853 C-280.566 723.768 -288.315 704.064 -302.059 687.027 C-305.411 682.87 -308.473 678.585 -311.402 674.121 C-312.061 673.145 -312.72 672.169 -313.398 671.164 C-318.377 663.231 -320.919 655.512 -323.179 646.442 C-324.69 640.458 -326.546 634.894 -329.027 629.246 C-332.428 621.389 -334.663 613.494 -336.402 605.121 C-336.611 604.128 -336.82 603.135 -337.036 602.112 C-341.574 580.296 -341.574 580.296 -341.715 571.309 C-342.06 564.225 -345.177 559.807 -349.118 554.074 C-351.661 550.208 -353.881 546.15 -356.152 542.121 C-357.177 540.316 -358.201 538.511 -359.227 536.707 C-359.745 535.793 -360.264 534.878 -360.798 533.937 C-362.433 531.067 -364.082 528.207 -365.734 525.348 C-366.275 524.409 -366.817 523.471 -367.374 522.504 C-368.407 520.713 -369.443 518.924 -370.481 517.137 C-375.423 508.548 -379.093 501.336 -377.402 491.121 C-375.203 486.683 -371.388 483.215 -366.672 481.551 C-346.621 477.755 -323.447 484.121 -303.793 487.534 C-300.904 488.034 -298.013 488.524 -295.121 489.008 C-288.271 490.164 -281.549 491.509 -274.84 493.316 C-271.982 493.985 -269.171 494.514 -266.277 494.988 C-265.353 495.145 -264.428 495.302 -263.476 495.463 C-261.641 495.769 -259.803 496.057 -257.962 496.324 C-250.878 497.524 -245.532 500.063 -241.064 505.856 C-239.95 507.615 -238.973 509.391 -238.027 511.246 C-237.699 511.853 -237.37 512.46 -237.031 513.086 C-235.427 516.066 -233.898 519.085 -232.402 522.121 C-232.036 521.317 -231.67 520.512 -231.293 519.684 C-228.08 512.707 -224.757 505.806 -221.279 498.958 C-208.921 474.58 -198.408 449.716 -188.895 424.122 C-187.875 421.379 -186.841 418.642 -185.799 415.907 C-183.054 408.695 -180.409 401.499 -178.34 394.059 C-178.096 393.194 -177.852 392.33 -177.6 391.439 C-175.004 382.029 -172.984 372.498 -171.012 362.941 C-170.595 361.014 -170.15 359.093 -169.679 357.178 C-167.394 347.873 -166.085 338.553 -164.902 329.059 C-164.796 328.222 -164.69 327.385 -164.581 326.524 C-162.978 313.829 -161.654 301.122 -160.59 288.371 C-160.495 287.252 -160.495 287.252 -160.398 286.11 C-158.639 270.703 -158.639 270.703 -160.777 255.559 C-162.157 250.523 -162.96 245.61 -163.527 240.434 C-163.64 239.43 -163.64 239.43 -163.755 238.406 C-164.005 235.98 -164.209 233.553 -164.402 231.121 C-164.491 230.027 -164.58 228.933 -164.672 227.806 C-165.599 214.594 -165.588 201.377 -165.588 188.138 C-165.588 185.46 -165.595 182.782 -165.608 180.104 C-165.703 159.909 -164.538 140.905 -160.402 121.121 C-160.198 120.117 -160.198 120.117 -159.989 119.092 C-153.63 88.279 -140.292 61.708 -118.402 39.121 C-117.646 38.326 -117.646 38.326 -116.875 37.516 C-108.968 29.214 -100.623 21.927 -91.402 15.121 C-90.378 14.352 -89.353 13.582 -88.297 12.789 C-63.736 -4.986 -27.448 -21.468 0 0 Z " fill="#09090A" transform="translate(534.40234375,90.87890625)"/>
<path d="M0 0 C3.902 3.103 7.478 6.478 11 10 C11 10.99 11 11.98 11 13 C11.943 15.051 13.03 16.991 14.125 18.965 C15 21 15 21 15 25 C11.059 23.473 9.272 21.071 6.75 17.75 C0.449 9.871 -6.415 3.86 -16.808 2.682 C-20.025 2.524 -23.217 2.481 -26.438 2.5 C-27.588 2.506 -28.739 2.511 -29.925 2.517 C-62 3.184 -89.147 26.135 -110.57 48.254 C-132.135 71.275 -142.775 99.566 -149 130 C-149.206 130.993 -149.413 131.985 -149.625 133.008 C-151.093 140.877 -151.665 148.847 -152.303 156.817 C-152.38 157.771 -152.456 158.724 -152.535 159.707 C-152.601 160.558 -152.667 161.408 -152.735 162.284 C-152.925 164.233 -153.198 166.174 -153.523 168.104 C-154.158 173.291 -154.123 178.401 -154.098 183.621 C-154.096 184.721 -154.095 185.821 -154.093 186.954 C-154.088 190.449 -154.075 193.943 -154.062 197.438 C-154.057 199.814 -154.053 202.191 -154.049 204.568 C-154.039 210.379 -154.019 216.189 -154 222 C-153.01 214.74 -152.02 207.48 -151 200 C-143.715 210.928 -145.643 227.014 -145.688 239.625 C-145.689 241.153 -145.689 241.153 -145.691 242.712 C-145.755 271.483 -147.417 300.306 -151.69 328.775 C-151.978 330.844 -152.201 332.904 -152.387 334.984 C-153.325 345.034 -155.291 354.823 -157.375 364.688 C-157.522 365.389 -157.669 366.09 -157.821 366.813 C-159.605 375.276 -161.649 383.594 -164.093 391.897 C-164.85 394.488 -165.552 397.078 -166.211 399.695 C-173.097 426.328 -184.623 452.036 -196 477 C-196.948 479.1 -197.896 481.2 -198.844 483.301 C-204.668 496.157 -210.696 508.883 -217.305 521.355 C-217.682 522.08 -218.06 522.804 -218.448 523.551 C-219.171 524.936 -219.904 526.315 -220.651 527.688 C-222.726 531.69 -223.245 533.708 -222 538 C-221.052 540.084 -220.035 542.136 -218.973 544.164 C-218.668 544.749 -218.364 545.334 -218.051 545.936 C-217.061 547.836 -216.062 549.73 -215.062 551.625 C-214.371 552.948 -213.679 554.272 -212.989 555.595 C-211 559.401 -209.001 563.201 -207 567 C-206.091 568.729 -205.182 570.458 -204.273 572.188 C-203.112 574.395 -201.949 576.602 -200.784 578.808 C-197.422 585.175 -194.109 591.568 -190.8 597.963 C-184.623 609.906 -184.623 609.906 -178.375 621.812 C-177.805 622.891 -177.235 623.97 -176.648 625.082 C-175.007 628.091 -175.007 628.091 -172.844 631.121 C-171.142 633.778 -170.509 635.205 -170.125 638.25 C-169.227 643.028 -167.102 646.451 -164.531 650.527 C-160.464 657.095 -157.656 663.155 -159 671 C-163.091 682.104 -176.079 687.613 -186.211 692.367 C-195.01 696.287 -203.473 696.269 -213 696 C-213 695.34 -213 694.68 -213 694 C-212.294 693.839 -211.587 693.678 -210.859 693.512 C-196.778 689.779 -179.286 681.576 -169 671 C-167.837 668.725 -167.837 668.725 -168 666 C-169.046 663.409 -170.108 661.119 -171.438 658.688 C-171.776 658.042 -172.114 657.397 -172.463 656.732 C-173.296 655.148 -174.146 653.573 -175 652 C-178.422 655.396 -178.422 655.396 -181.746 658.887 C-193.025 670.895 -208.37 679.685 -223 687 C-222.412 690.442 -221.502 693.327 -220.062 696.5 C-218.31 700.566 -217.947 703.604 -217.875 708 C-216.622 718.094 -207.156 724.44 -200.117 730.975 C-196.725 734.22 -193.878 737.749 -190.992 741.449 C-188.787 744.273 -186.46 746.97 -184.125 749.688 C-178.211 756.751 -173.102 764.339 -168 772 C-167.01 773.485 -167.01 773.485 -166 775 C-166.294 763.287 -166.836 751.678 -168.438 740.062 C-168.56 739.171 -168.682 738.279 -168.808 737.361 C-169.385 733.404 -170.07 729.551 -171.09 725.684 C-171.856 722.585 -172.224 720.157 -172.125 717 C-172.107 716.237 -172.089 715.474 -172.07 714.688 C-172.047 714.131 -172.024 713.574 -172 713 C-171.34 713 -170.68 713 -170 713 C-161.765 728.784 -157.922 746.647 -157.977 764.461 C-157.918 779.475 -153.621 792.769 -148.924 806.882 C-144.338 822.359 -147.78 837.896 -155 852 C-160.686 861.004 -167.6 870.659 -177 876 C-177.575 876.351 -178.15 876.701 -178.742 877.062 C-185.165 879.729 -193.177 878.942 -199.641 876.785 C-230.725 861.975 -246.21 832.1 -257.309 801.023 C-260.016 793.211 -262.274 785.316 -264.376 777.323 C-265.523 773.052 -266.77 768.81 -268 764.562 C-269.712 758.64 -271.345 752.711 -272.843 746.732 C-278.164 725.647 -285.913 705.943 -299.656 688.906 C-303.009 684.749 -306.071 680.464 -309 676 C-309.659 675.024 -310.317 674.048 -310.996 673.043 C-315.974 665.11 -318.516 657.391 -320.777 648.321 C-322.288 642.337 -324.144 636.773 -326.625 631.125 C-330.026 623.268 -332.261 615.373 -334 607 C-334.209 606.007 -334.418 605.014 -334.633 603.991 C-339.172 582.175 -339.172 582.175 -339.312 573.188 C-339.658 566.104 -342.774 561.686 -346.715 555.953 C-349.258 552.087 -351.478 548.029 -353.75 544 C-354.774 542.195 -355.799 540.39 -356.824 538.586 C-357.343 537.672 -357.862 536.757 -358.396 535.815 C-360.031 532.946 -361.679 530.085 -363.332 527.227 C-363.873 526.288 -364.414 525.35 -364.972 524.383 C-366.005 522.592 -367.04 520.803 -368.079 519.016 C-373.02 510.427 -376.691 503.214 -375 493 C-372.8 488.562 -368.986 485.094 -364.27 483.43 C-344.219 479.634 -321.045 486 -301.391 489.413 C-298.501 489.913 -295.611 490.403 -292.719 490.887 C-285.869 492.043 -279.146 493.388 -272.438 495.195 C-269.579 495.864 -266.769 496.393 -263.875 496.867 C-262.95 497.024 -262.026 497.181 -261.073 497.342 C-259.238 497.648 -257.4 497.936 -255.56 498.203 C-248.475 499.403 -243.13 501.942 -238.662 507.735 C-237.548 509.494 -236.57 511.27 -235.625 513.125 C-235.296 513.732 -234.968 514.339 -234.629 514.965 C-233.025 517.945 -231.495 520.964 -230 524 C-229.634 523.196 -229.268 522.391 -228.891 521.562 C-225.678 514.586 -222.355 507.685 -218.876 500.836 C-206.519 476.459 -196.006 451.595 -186.492 426.001 C-185.472 423.258 -184.439 420.52 -183.396 417.786 C-180.651 410.574 -178.006 403.378 -175.938 395.938 C-175.693 395.073 -175.449 394.209 -175.198 393.318 C-172.602 383.908 -170.582 374.377 -168.61 364.82 C-168.193 362.893 -167.747 360.972 -167.277 359.057 C-164.992 349.752 -163.683 340.432 -162.5 330.938 C-162.394 330.101 -162.288 329.264 -162.179 328.402 C-160.576 315.708 -159.252 303.001 -158.188 290.25 C-158.093 289.131 -158.093 289.131 -157.996 287.989 C-156.237 272.582 -156.237 272.582 -158.375 257.438 C-159.754 252.402 -160.558 247.489 -161.125 242.312 C-161.238 241.309 -161.238 241.309 -161.353 240.285 C-161.603 237.859 -161.807 235.432 -162 233 C-162.089 231.906 -162.178 230.812 -162.27 229.685 C-163.197 216.473 -163.186 203.256 -163.185 190.017 C-163.185 187.339 -163.192 184.661 -163.206 181.983 C-163.301 161.788 -162.135 142.784 -158 123 C-157.796 121.995 -157.796 121.995 -157.587 120.971 C-151.228 90.158 -137.89 63.587 -116 41 C-115.244 40.205 -115.244 40.205 -114.473 39.395 C-106.565 31.093 -98.221 23.806 -89 17 C-87.975 16.23 -86.95 15.461 -85.895 14.668 C-61.454 -3.02 -28.353 -17.868 0 0 Z " fill="#09090A" transform="translate(532,89)"/>
<path d="M0 0 C4.921 -0.167 8.503 -0.248 13 2 C12.928 2.536 12.856 3.072 12.781 3.625 C10.846 19.969 10.942 36.073 21 50 C30.532 61.995 44.857 69.151 60 71 C67.524 71.493 74.86 71.62 82 69 C82.946 68.658 83.892 68.317 84.867 67.965 C100.375 61.951 108.441 52.318 115.195 37.352 C117.289 32.312 118.817 27.325 120 22 C120.99 22 121.98 22 123 22 C123 24.97 123 27.94 123 31 C123.424 30.504 123.848 30.007 124.285 29.496 C137.885 13.744 137.885 13.744 146.438 12.5 C152.469 13.347 155.755 16.362 159.375 21.125 C163.011 27.557 162.996 34.155 161.164 41.227 C154.989 58.593 142.013 71.171 125.926 79.613 C121.383 81.714 116.803 83.572 112 85 C113.359 77.959 115.537 71.376 117.977 64.648 C119.023 60.918 119.188 57.853 119 54 C117.68 53.34 116.36 52.68 115 52 C114.865 52.623 114.729 53.245 114.59 53.887 C106.2 89.909 91.291 123.266 59.246 143.623 C49.459 149.624 39.24 154.725 28.562 158.938 C27.536 159.343 27.536 159.343 26.489 159.757 C11.181 165.518 -8.09 168.746 -23.938 163.188 C-26.832 161.813 -26.832 161.813 -30 160 C-30.691 159.608 -31.383 159.216 -32.095 158.812 C-61.953 141.711 -88.003 118.331 -98.383 84.5 C-102.098 69.451 -103.153 54.816 -103.062 39.375 C-103.057 37.879 -103.053 36.383 -103.049 34.887 C-103.038 31.258 -103.021 27.629 -103 24 C-100.794 26.177 -98.793 28.428 -96.812 30.812 C-88.986 39.697 -78.876 45.352 -67 47 C-46.836 48.149 -29.663 45.761 -14 32 C-5.963 22.476 -2.713 11.96 0 0 Z " fill="#FEFEFE" transform="translate(520,281)"/>
<path d="M0 0 C7.677 11.515 6.426 29.66 6.5 43.062 C6.51 43.805 6.52 44.548 6.531 45.314 C6.672 58.128 5.087 69.215 -2.638 79.78 C-4.151 82.246 -4.723 84.332 -5.352 87.148 C-6.859 93.002 -9.301 97.791 -12.312 103 C-13.388 104.918 -14.461 106.837 -15.531 108.758 C-16.095 109.765 -16.658 110.772 -17.238 111.81 C-34.181 142.492 -45.88 171.369 -52 206 C-52.163 206.903 -52.327 207.806 -52.495 208.737 C-53.459 214.97 -53.707 221.281 -54.062 227.574 C-54.107 228.367 -54.152 229.159 -54.198 229.975 C-55.502 253.902 -55.144 277.86 -55 301.812 C-54.952 309.861 -54.912 317.91 -54.888 325.959 C-54.875 329.137 -54.85 332.314 -54.825 335.491 C-54.817 337.433 -54.811 339.374 -54.805 341.316 C-54.794 342.183 -54.784 343.049 -54.773 343.943 C-54.772 351.701 -56.498 358.253 -59.5 365.438 C-60.134 366.982 -60.134 366.982 -60.781 368.559 C-62 371 -62 371 -64 372 C-63.54 364.653 -62.468 357.503 -61.104 350.28 C-59.314 340.673 -58.818 331.337 -58.812 321.562 C-58.794 319.817 -58.794 319.817 -58.775 318.037 C-58.762 310.01 -59.455 302.635 -62 295 C-62.66 295.33 -63.32 295.66 -64 296 C-64.014 297.453 -64.014 297.453 -64.028 298.936 C-64.359 328.345 -66.312 356.686 -75 385 C-75.207 385.691 -75.415 386.381 -75.628 387.093 C-78.817 397.421 -84.219 405.539 -93.794 410.918 C-96.078 412.038 -98.334 412.853 -100.754 413.633 C-101.952 414.022 -101.952 414.022 -103.174 414.418 C-103.777 414.61 -104.379 414.802 -105 415 C-107.404 402.057 -108.429 389.659 -108.328 376.508 C-108.325 374.702 -108.323 372.896 -108.322 371.09 C-108.318 367.337 -108.304 363.584 -108.281 359.832 C-108.253 355.087 -108.242 350.342 -108.238 345.597 C-108.232 340.984 -108.218 336.371 -108.203 331.758 C-108.2 330.49 -108.2 330.49 -108.197 329.196 C-108.151 312.929 -107.743 296.627 -106.062 280.438 C-105.476 274.489 -104.953 268.549 -104.602 262.582 C-103.551 244.995 -101.247 227.784 -98.519 210.396 C-97.939 206.603 -97.439 202.812 -97 199 C-102.572 218.68 -106.607 238.683 -109 259 C-109.162 260.072 -109.324 261.144 -109.491 262.249 C-109.981 265.864 -110.279 269.43 -110.5 273.07 C-110.624 275.033 -110.624 275.033 -110.75 277.035 C-110.876 279.087 -111.001 281.138 -111.125 283.19 C-111.247 285.192 -111.374 287.194 -111.5 289.195 C-111.572 290.381 -111.644 291.568 -111.719 292.79 C-111.965 295.601 -112.379 298.251 -113 301 C-113.33 301 -113.66 301 -114 301 C-114.052 294.264 -114.086 287.528 -114.11 280.791 C-114.12 278.51 -114.133 276.228 -114.151 273.947 C-114.306 253.245 -113.246 233.39 -108.506 213.2 C-108.039 211.17 -107.619 209.13 -107.203 207.09 C-104.365 193.715 -99.774 180.873 -95.341 167.96 C-94.396 165.19 -93.482 162.412 -92.584 159.626 C-89.269 149.375 -85.443 139.492 -81.125 129.625 C-80.475 128.123 -79.825 126.62 -79.175 125.118 C-74.091 113.385 -68.88 101.707 -63.669 90.03 C-59.423 80.513 -55.22 70.984 -51.188 61.375 C-50.797 60.452 -50.407 59.53 -50.005 58.579 C-47.889 53.481 -46.186 48.445 -44.851 43.085 C-43.237 39.13 -39.647 37.829 -36 36 C-20.787 27.25 -8.578 15.334 0 0 Z " fill="#FEFEFE" transform="translate(686,330)"/>
<path d="M0 0 C0.495 0.495 0.495 0.495 1 1 C0.845 8.607 -2.93 12.782 -8.023 18.121 C-14.346 24.174 -21.48 28.698 -28.844 33.348 C-38.448 39.075 -38.448 39.075 -46 47 C-46.372 49.76 -46.179 52.189 -46 55 C-44.13 57.267 -44.13 57.267 -41.176 57.422 C-35.181 57.23 -29.662 54.476 -24.188 52.25 C-22.946 51.753 -21.704 51.257 -20.461 50.76 C-8.761 46.045 2.661 40.75 14.069 35.371 C18.459 33.318 22.881 31.338 27.312 29.375 C28.029 29.056 28.746 28.738 29.485 28.409 C31.32 27.598 33.16 26.798 35 26 C35.906 25.604 36.812 25.209 37.746 24.801 C40.889 23.684 43.698 23.809 47 24 C47.33 24.33 47.66 24.66 48 25 C47.826 33.525 42.699 38.549 36.812 44.25 C24.99 54.54 10.525 61.975 -2.966 69.812 C-3.855 70.33 -4.744 70.849 -5.66 71.383 C-6.45 71.841 -7.241 72.298 -8.055 72.77 C-10.786 74.497 -11.865 75.433 -12.625 78.625 C-12.811 79.801 -12.811 79.801 -13 81 C-8.545 80.01 -8.545 80.01 -4 79 C0.942 89.369 2.883 97.467 2 109 C3.32 109 4.64 109 6 109 C7.43 110.223 7.43 110.223 8.875 112.062 C11.77 115.585 14.787 118.919 17.933 122.216 C24.612 129.232 30.792 136.463 36.626 144.193 C38.051 146.067 39.504 147.917 40.961 149.766 C55.661 168.608 72.071 192.987 70.281 217.833 C68.271 233.323 58.088 246.812 46.258 256.414 C42.273 259.113 38.974 259.516 34.383 258.73 C13.842 252.434 -1.329 230.53 -10.906 212.488 C-19.441 195.559 -25.217 177.292 -30 159 C-30.331 157.761 -30.663 156.522 -31.004 155.246 C-31.631 152.896 -32.256 150.546 -32.879 148.195 C-42.998 109.377 -42.998 109.377 -63 75 C-84.235 47.341 -84.235 47.341 -84 33 C-76.547 29.554 -69.032 26.31 -61.438 23.188 C-53.203 19.782 -45.026 16.276 -36.898 12.625 C-32.429 10.621 -27.94 8.713 -23.375 6.938 C-19.44 5.384 -15.556 3.709 -11.664 2.051 C-7.643 0.465 -4.338 -0.234 0 0 Z " fill="#FEFEFE" transform="translate(305,702)"/>
<path d="M0 0 C4.609 0.826 9.23 1.587 13.85 2.351 C46.497 7.771 46.497 7.771 60.272 11.219 C65.999 12.621 71.38 13.138 77.303 12.78 C85.005 15.453 88.968 28.091 92.562 34.942 C94.322 38.296 96.097 41.641 97.869 44.987 C98.222 45.654 98.574 46.32 98.937 47.007 C101.917 52.64 104.956 58.24 108.021 63.827 C112.875 72.684 117.656 81.579 122.412 90.488 C125.77 96.777 129.143 103.057 132.58 109.304 C133.141 110.323 133.702 111.343 134.279 112.394 C135.334 114.307 136.393 116.219 137.455 118.128 C137.919 118.97 138.383 119.811 138.861 120.679 C139.472 121.778 139.472 121.778 140.095 122.9 C140.959 124.702 140.959 124.702 140.959 126.702 C139.609 127.223 139.609 127.223 138.231 127.755 C129.394 131.207 120.792 135.018 112.234 139.11 C99.949 144.978 87.618 150.677 74.959 155.702 C74.245 155.999 73.531 156.296 72.795 156.603 C67.3 158.816 67.3 158.816 63.959 157.702 C69.409 153.646 74.893 149.715 80.592 146.02 C96.813 135.554 96.813 135.554 106.959 119.702 C107.526 114.466 107.791 110.166 105.146 105.515 C100.285 102.75 96.413 102.932 90.959 103.702 C80.732 106.9 70.982 111.779 61.271 116.265 C43.513 124.45 43.513 124.45 34.959 127.702 C31.413 123.815 30.061 120.546 28.834 115.452 C28.666 114.758 28.499 114.063 28.326 113.347 C27.16 108.262 26.48 103.201 25.959 98.015 C24.742 86.015 21.797 71.609 12.459 63.202 C9.055 60.614 6.157 58.65 1.731 58.755 C-2.164 58.764 -4.982 58.731 -7.865 55.93 C-9.548 53.383 -10.966 50.796 -12.354 48.077 C-12.889 47.101 -13.425 46.125 -13.977 45.119 C-15.109 43.052 -16.228 40.977 -17.333 38.895 C-19.591 34.675 -21.964 30.526 -24.339 26.371 C-26.453 22.669 -28.543 18.955 -30.62 15.233 C-31.573 13.536 -32.538 11.845 -33.514 10.162 C-34.199 8.971 -34.199 8.971 -34.896 7.757 C-35.303 7.059 -35.709 6.362 -36.128 5.643 C-37.4 2.94 -37.417 0.632 -37.041 -2.298 C-27.173 -7.232 -10.178 -1.846 0 0 Z " fill="#F4F5F4" transform="translate(205.041015625,591.2978515625)"/>
<path d="M0 0 C0.33 0 0.66 0 1 0 C1.028 1.521 1.047 3.042 1.062 4.562 C1.074 5.409 1.086 6.256 1.098 7.129 C1 10 1 10 0.512 13.016 C-0.355 18.7 -0.225 24.451 -0.25 30.188 C-0.271 31.343 -0.291 32.499 -0.312 33.689 C-0.365 45.4 1.441 58.896 9.738 67.883 C12.642 70.457 15.489 72.34 19 74 C17.896 80.599 16.514 87.02 14.75 93.473 C14.144 96.321 13.797 98.922 13.562 101.809 C13.478 102.654 13.393 103.5 13.306 104.371 C13.147 106.048 13.033 107.731 12.969 109.414 C12.696 112.036 12.341 113.72 11 116 C-3.463 125.68 -33.808 132.242 -51.346 129.654 C-61.758 127.536 -73.148 123.901 -82 118 C-82.432 115.073 -82.432 115.073 -82.512 111.332 C-82.53 110.66 -82.548 109.988 -82.566 109.296 C-82.62 107.135 -82.654 104.974 -82.688 102.812 C-82.721 101.407 -82.755 100.001 -82.791 98.596 C-83.01 89.397 -83.038 80.201 -83 71 C-81.824 70.505 -80.649 70.01 -79.438 69.5 C-70.627 65.072 -66.101 56.835 -62.875 47.875 C-60.047 35.353 -59.489 22.783 -59 10 C-55.584 11.625 -52.951 13.629 -50 16 C-41.324 21.714 -33.327 23.639 -23 22 C-12.163 18.374 -5.067 9.922 0 0 Z " fill="#FEFEFE" transform="translate(554,447)"/>
<path d="M0 0 C5.243 4.77 8.074 8.972 8.852 16.121 C9.36 30.289 5.49 42.43 -3.574 53.52 C-12.135 62.221 -20.24 65.524 -32.252 65.873 C-33.39 65.88 -34.527 65.887 -35.699 65.895 C-36.783 65.902 -37.867 65.909 -38.984 65.917 C-52.786 65.605 -63.962 60.932 -73.676 51.074 C-82.887 40.138 -83.612 28.33 -82.789 14.568 C-81.885 4.612 -76.936 -2.257 -69.574 -8.793 C-50.617 -22.014 -16.607 -12.954 0 0 Z " fill="#FEFEFE" transform="translate(622.57421875,277.79296875)"/>
<path d="M0 0 C6.732 5.17 10.683 9.781 13.035 18.043 C14.175 29.733 12.816 40.332 5.723 49.918 C-2.289 59.302 -12.451 65.751 -24.965 67.043 C-40.398 68.137 -53.798 66.487 -65.965 56.043 C-73.336 49.149 -77.363 39.457 -78.301 29.465 C-78.433 16.992 -75.416 7.135 -67.965 -2.957 C-50.845 -18.825 -17.224 -11.369 0 0 Z " fill="#FEFEFE" transform="translate(497.96484375,253.95703125)"/>
<path d="M0 0 C7.88 5.78 13.888 13.776 16.281 23.34 C17.486 35.809 17.591 48.226 11.281 59.34 C10.847 60.113 10.412 60.887 9.965 61.684 C5.246 68.889 -2.152 73.047 -10.443 74.96 C-21.787 76.852 -35.514 77.02 -45.719 71.34 C-46.658 70.831 -47.598 70.321 -48.566 69.797 C-57.958 64.273 -65.015 57.031 -68.301 46.469 C-69.455 40.592 -69.935 33.738 -67.031 28.34 C-64.811 25.46 -62.697 23.408 -59.719 21.34 C-59.68 22.318 -59.68 22.318 -59.641 23.316 C-59.267 29.07 -58.579 32.798 -54.719 37.34 C-50.823 39.937 -48.676 39.502 -44.164 38.949 C-40.544 38.047 -38.91 36.285 -36.719 33.34 C-34.047 28.766 -33.98 24.517 -34.719 19.34 C-36.826 13.595 -39.364 8.161 -44.906 5.152 C-45.504 4.884 -46.102 4.616 -46.719 4.34 C-34.905 -8.95 -14.594 -8.912 0 0 Z " fill="#F4F5F4" transform="translate(735.71875,434.66015625)"/>
<path d="M0 0 C0.124 1.042 0.247 2.083 0.375 3.156 C2.443 18.299 8.766 29.49 16.75 42.312 C24.19 54.338 27.891 64.719 26 79 C24.996 82.423 23.805 84.898 22 88 C20 86.106 18.779 84.618 17.375 82.188 C14.243 77.984 10.447 75.68 6 73 C7.852 71.05 9.325 69.811 11.688 68.438 C12.451 67.963 13.214 67.489 14 67 C14 66.34 14 65.68 14 65 C9.269 65.473 9.269 65.473 4.875 67.125 C3 68 3 68 0.375 67.875 C-2 67 -2 67 -3.125 65.242 C-4.906 60.679 -4.971 55.361 -3.102 50.816 C-2.376 49.496 -1.642 48.181 -0.898 46.871 C1.037 42.84 0.364 39.093 -1 35 C-3.059 28.823 -1.805 22.341 -1 16 C-4.445 24.075 -6.736 31.677 -8.309 40.32 C-9.302 45.608 -10.634 50.798 -12 56 C-12.99 55.505 -12.99 55.505 -14 55 C-14 54.34 -14 53.68 -14 53 C-14.773 53.144 -15.547 53.289 -16.344 53.438 C-22.328 54.504 -27.923 55.234 -34 55 C-32.21 51.311 -30.136 47.828 -28.023 44.316 C-26.866 41.698 -26.81 39.832 -27 37 C-27.66 37 -28.32 37 -29 37 C-30.339 38.827 -31.597 40.714 -32.812 42.625 C-35.66 47.013 -38.528 51.094 -42 55 C-43.32 54.34 -44.64 53.68 -46 53 C-44.964 48.021 -42.039 44.278 -39.238 40.133 C-37.226 37.098 -35.741 34.561 -35 31 C-40.575 32.346 -42.459 36.042 -45.312 40.625 C-45.767 41.331 -46.221 42.038 -46.689 42.766 C-47.805 44.503 -48.904 46.251 -50 48 C-52.375 47.688 -52.375 47.688 -55 47 C-55.66 46.01 -56.32 45.02 -57 44 C-56.423 43.013 -55.845 42.025 -55.25 41.008 C-54.5 39.714 -53.75 38.419 -53 37.125 C-52.428 36.149 -52.428 36.149 -51.844 35.152 C-49.724 31.796 -49.724 31.796 -49 28 C-51.351 28.387 -52.68 28.673 -54.372 30.399 C-54.77 30.98 -55.168 31.561 -55.578 32.16 C-56.016 32.789 -56.455 33.417 -56.906 34.064 C-57.35 34.724 -57.793 35.383 -58.25 36.062 C-58.938 37.057 -58.938 37.057 -59.641 38.072 C-60.77 39.708 -61.887 41.353 -63 43 C-64.65 42.67 -66.3 42.34 -68 42 C-62.213 31.409 -51.978 14.835 -40.586 9.969 C-39.114 9.555 -37.632 9.173 -36.14 8.838 C-33.528 7.815 -32.93 6.767 -31.43 4.441 C-29.5 2.067 -28.54 1.121 -25.523 0.444 C-22.613 0.347 -19.78 0.438 -16.875 0.625 C-14.914 0.704 -12.953 0.78 -10.992 0.852 C-10.13 0.901 -9.267 0.951 -8.378 1.002 C-5.459 0.999 -2.887 0 0 0 Z " fill="#F4F5F4" transform="translate(728,516)"/>
<path d="M0 0 C6.606 -0.703 10.719 1.028 16 5 C36.095 22.508 49.478 45.974 63.875 68.062 C64.499 69.019 65.124 69.976 65.767 70.962 C68.454 75.08 71.134 79.203 73.773 83.352 C80.382 93.655 88.192 102.254 96.898 110.84 C98.217 112.145 98.217 112.145 99.563 113.476 C101.311 115.199 103.067 116.914 104.832 118.62 C111.967 125.623 119.027 132.917 121 143 C116.826 139.499 112.685 136.02 109 132 C109 131.34 109 130.68 109 130 C108.114 129.621 108.114 129.621 107.211 129.234 C104.74 127.855 103.42 126.425 101.625 124.25 C98.604 120.614 95.364 117.317 92 114 C97.475 128.826 97.475 128.826 109 139 C110.941 140.224 112.878 141.453 114.812 142.688 C115.706 143.228 116.599 143.768 117.52 144.324 C120.023 146.016 122.013 147.726 124 150 C124 150.66 124 151.32 124 152 C116.789 153.926 111.783 150.475 105.677 146.991 C95.899 141.215 91.514 134.489 86.832 124.32 C81.635 113.041 75.949 102.833 68.838 92.659 C65.455 87.765 62.172 82.803 58.877 77.85 C57.723 76.115 56.565 74.383 55.406 72.652 C52.01 67.567 48.645 62.47 45.379 57.301 C27.453 28.729 27.453 28.729 2.875 6.125 C1.926 5.424 0.977 4.722 0 4 C0 2.68 0 1.36 0 0 Z " fill="#09090A" transform="translate(547,129)"/>
<path d="M0 0 C6.604 0.937 10.183 2.924 14.625 8 C20.67 17.3 21.6 27.661 22.854 38.408 C23.804 46.269 25.448 53.488 28 61 C28.37 62.112 28.74 63.225 29.121 64.371 C29.411 65.239 29.701 66.106 30 67 C28.235 67.866 26.463 68.717 24.688 69.562 C23.701 70.038 22.715 70.514 21.699 71.004 C19 72 19 72 16 71 C14.859 68.643 13.902 66.384 13 63.938 C12.752 63.294 12.505 62.65 12.25 61.986 C11.742 60.661 11.243 59.332 10.752 58 C10.033 56.088 9.254 54.199 8.473 52.312 C6.387 46.741 5.49 40.898 4.438 35.062 C4.021 32.803 3.603 30.544 3.184 28.285 C2.986 27.209 2.788 26.133 2.585 25.024 C2.072 22.37 1.485 19.753 0.855 17.125 C-0.005 13.353 -0.207 9.818 -0.125 5.938 C-0.107 4.812 -0.089 3.687 -0.07 2.527 C-0.047 1.693 -0.024 0.859 0 0 Z " fill="#FEFEFE" transform="translate(201,656)"/>
<path d="M0 0 C2.266 1.452 4.443 2.978 6.609 4.574 C7.62 5.317 8.631 6.059 9.672 6.824 C15.07 11.494 20.714 17.308 21.609 24.574 C17.069 24.021 13.721 22.794 9.672 20.699 C-3.538 14.469 -20.34 11.64 -34.391 16.574 C-38.141 16.449 -38.141 16.449 -41.391 15.574 C-43.94 12.803 -43.824 9.198 -43.688 5.531 C-43.171 2.126 -41.996 0.807 -39.391 -1.426 C-27.447 -8.937 -11.569 -6.9 0 0 Z " fill="#09090A" transform="translate(604.390625,224.42578125)"/>
<path d="M0 0 C1.188 3.564 0.488 4.868 -1.059 8.176 C-5.571 16.92 -11.828 23.383 -21 27 C-21.888 27.362 -22.776 27.724 -23.691 28.098 C-27.844 29.23 -31.598 29.219 -35.875 29.125 C-37.051 29.111 -37.051 29.111 -38.25 29.098 C-40.167 29.074 -42.083 29.038 -44 29 C-44.625 27.25 -44.625 27.25 -45 25 C-44.682 24.396 -44.364 23.793 -44.036 23.171 C-42.809 20.599 -42.77 18.854 -42.805 16.016 C-42.811 15.081 -42.818 14.146 -42.824 13.184 C-42.849 11.731 -42.849 11.731 -42.875 10.25 C-42.884 9.266 -42.893 8.283 -42.902 7.27 C-42.926 4.846 -42.959 2.423 -43 0 C-42.01 0.66 -41.02 1.32 -40 2 C-37.447 1.909 -37.447 1.909 -34.688 1.438 C-29.751 0.851 -27.372 1.548 -23 4 C-20.902 3.452 -20.902 3.452 -19 2 C-12.601 -1.781 -7.194 -1.799 0 0 Z " fill="#FEFEFE" transform="translate(803,574)"/>
<path d="M0 0 C0.33 0 0.66 0 1 0 C1.561 15.594 -1.11 29.304 -12.051 41.25 C-24.762 52.662 -38.481 59.276 -55.594 59.168 C-58 59 -58 59 -59 58 C-59.815 55.033 -60.386 52.014 -61 49 C-61.289 47.742 -61.577 46.484 -61.875 45.188 C-62 42 -62 42 -60.438 39.5 C-57.154 37.479 -55.766 38.319 -52 39 C-38.093 40.065 -26.843 38.639 -15.359 30.117 C-6.377 22.057 -2.238 12.762 -1 1 C-0.67 0.67 -0.34 0.34 0 0 Z " fill="#F4F5F4" transform="translate(812,570)"/>
<path d="M0 0 C0.66 0.33 1.32 0.66 2 1 C1.93 2.212 1.93 2.212 1.859 3.449 C1.513 10.036 1.513 10.036 3.75 16.062 C5.78 17.811 7.782 19.495 10 21 C9.593 26.191 8.914 29.412 5 33 C2.312 33.375 2.312 33.375 0 33 C-0.495 32.505 -0.495 32.505 -1 32 C-2.688 32.113 -4.376 32.24 -6.062 32.375 C-10.5 32.404 -12.899 31.94 -16.312 29.062 C-21.403 23.909 -25.682 17.9 -28 11 C-27.692 5.048 -27.692 5.048 -25.852 2.262 C-23.033 0.341 -20.881 1.012 -17.562 1.438 C-11.034 2.262 -6.521 -0.362 0 0 Z " fill="#09090A" transform="translate(221,610)"/>
<path d="M0 0 C5.879 3.498 10.194 7.672 13 14 C13 14.99 13 15.98 13 17 C14.98 16.67 16.96 16.34 19 16 C18.625 17.938 18.625 17.938 18 20 C17.01 20.495 17.01 20.495 16 21 C18.31 21.33 20.62 21.66 23 22 C21.544 25.84 19.718 27.31 16 29 C12.334 29.403 10.517 29.311 7.324 27.391 C6.019 26.331 6.019 26.331 4.688 25.25 C-6.089 16.977 -16.452 14.852 -30 16 C-32.769 16.838 -35.232 17.835 -37.816 19.125 C-40.344 20.138 -42.302 20.152 -45 20 C-44.632 17.411 -44.262 16.244 -42.32 14.438 C-32.861 8.243 -23.475 4.32 -12 6 C-4.876 8.069 1.725 11.06 8 15 C5.422 10.799 3.08 7.782 -1 5 C-1.507 4.626 -2.013 4.252 -2.535 3.867 C-7.215 0.926 -11.76 0.637 -17.188 0.625 C-17.877 0.623 -18.566 0.622 -19.277 0.62 C-23.3 0.708 -26.341 1.383 -30 3 C-32.312 2.625 -32.312 2.625 -34 2 C-24.305 -6.555 -10.961 -6.044 0 0 Z " fill="#09090A" transform="translate(597,284)"/>
<path d="M0 0 C0.33 0 0.66 0 1 0 C1.208 0.895 1.415 1.789 1.629 2.711 C4.977 15.852 11.118 25.701 22.953 32.762 C25.613 34.225 28.287 35.638 31 37 C29.678 41.028 28.138 43.129 24.875 45.812 C24.151 46.417 23.426 47.022 22.68 47.645 C22.125 48.092 21.571 48.539 21 49 C19.979 47.948 19.979 47.948 18.938 46.875 C16.865 44.814 14.748 42.817 12.562 40.875 C11.76 40.16 11.76 40.16 10.941 39.43 C5.468 35.399 1.208 34.58 -5.375 34.812 C-6.111 34.826 -6.847 34.84 -7.605 34.854 C-9.404 34.889 -11.202 34.942 -13 35 C-10.811 22.739 -5.928 10.912 0 0 Z " fill="#FEFEFE" transform="translate(659,476)"/>
<path d="M0 0 C0.33 0.66 0.66 1.32 1 2 C-0.221 2.014 -1.441 2.028 -2.699 2.043 C-13.073 2.29 -21.555 3.345 -31 8 C-32.007 8.46 -33.014 8.92 -34.051 9.395 C-48.937 16.717 -61.587 28.2 -73.499 39.584 C-74.992 40.993 -76.511 42.368 -78.043 43.734 C-84.904 49.861 -91.166 56.362 -97.336 63.179 C-101.061 67.255 -104.868 71.256 -108.661 75.268 C-114.991 81.992 -121.003 88.98 -127 96 C-127 91.869 -124.931 89.429 -122.688 86.125 C-122.238 85.459 -121.789 84.793 -121.326 84.106 C-116.672 77.331 -111.477 71.119 -106 65 C-105.545 64.488 -105.09 63.977 -104.621 63.45 C-96.325 54.158 -87.751 44.995 -78.254 36.918 C-76.494 35.42 -74.756 33.897 -73.027 32.363 C-22.349 -12.363 -22.349 -12.363 0 0 Z " fill="#151515" transform="translate(536,117)"/>
<path d="M0 0 C10.999 8.847 19.247 19.767 27.549 31.053 C29.308 33.413 31.12 35.726 32.941 38.038 C50.191 60.008 70.923 92.91 70 122 C66.831 119.389 65.834 116.466 64.434 112.664 C63.949 111.369 63.463 110.074 62.978 108.78 C62.727 108.101 62.476 107.423 62.217 106.725 C53.488 83.225 43.296 61.592 27.967 41.649 C22.318 34.244 17.153 26.509 11.963 18.78 C8.458 13.57 4.924 8.448 1.027 3.523 C0 2 0 2 0 0 Z " fill="#09090A" transform="translate(602,151)"/>
<path d="M0 0 C2.379 0.148 2.379 0.148 5 1 C6.59 3.039 6.59 3.039 7.938 5.625 C13.954 16.306 22.049 23.229 33.747 27.416 C38.042 28.53 42.336 28.485 46.75 28.438 C48.211 28.426 48.211 28.426 49.702 28.415 C57.068 28.246 63.32 27.255 70 24 C70.973 23.529 71.946 23.059 72.949 22.574 C77.134 20.412 80.933 18.224 84.438 15.062 C87 13 87 13 89.375 13.188 C89.911 13.456 90.447 13.724 91 14 C91 18 91 18 89.848 19.641 C85.173 23.855 80.148 26.635 74.5 29.312 C73.789 29.65 73.077 29.987 72.344 30.335 C59.806 36.033 44.659 37.515 31.375 33.375 C18.47 28.184 6.592 19.516 0 7 C-0.75 3.758 -0.75 3.758 -1 1 C-0.67 0.67 -0.34 0.34 0 0 Z " fill="#09090A" transform="translate(473,356)"/>
<path d="M0 0 C0.66 0 1.32 0 2 0 C1.589 23.002 -18.334 45.737 -32.977 61.754 C-34.574 63.527 -36.084 65.317 -37.562 67.188 C-48.404 79.697 -64.468 91.204 -80 97 C-76.3 92.173 -72.376 88.823 -67.438 85.312 C-60.13 79.97 -53.514 74.286 -47 68 C-46.1 67.163 -45.2 66.327 -44.273 65.465 C-25.75 47.769 -13.515 25.592 -2.056 2.971 C-1 1 -1 1 0 0 Z " fill="#09090A" transform="translate(509,849)"/>
<path d="M0 0 C0.773 0.217 0.773 0.217 1.562 0.438 C7.453 2.031 7.453 2.031 13.246 1.047 C20.831 -1.837 30.813 -1.014 38.125 2.25 C39.769 3.132 41.397 4.045 43 5 C44.052 5.577 45.104 6.155 46.188 6.75 C51.263 10.81 56.211 15.188 58 21.562 C58 22.367 58 23.171 58 24 C56.246 24.723 56.246 24.723 54 25 C52.098 23.559 52.098 23.559 50.062 21.438 C40.471 12.356 29.502 9.611 16.707 9.762 C13.508 9.967 11.344 10.327 8.438 11.562 C4.563 13.183 2.933 13.399 -1 12 C-3.875 9.688 -3.875 9.688 -6 7 C-6 5.68 -6 4.36 -6 3 C-3.03 3.495 -3.03 3.495 0 4 C0 2.68 0 1.36 0 0 Z " fill="#09090A" transform="translate(438,270)"/>
<path d="M0 0 C6.329 3.202 10.732 7.437 14.082 13.68 C14.822 16.564 14.845 19.152 14.707 22.117 C13.717 21.54 12.727 20.962 11.707 20.367 C11.056 20.006 10.405 19.645 9.734 19.273 C7.707 18.117 7.707 18.117 6.023 16.961 C-0.721 12.755 -8.669 13.224 -16.293 14.117 C-20.759 15.567 -24.619 17.411 -27.93 20.785 C-29.293 22.117 -29.293 22.117 -31.293 22.117 C-31.623 23.107 -31.953 24.097 -32.293 25.117 C-32.977 23.449 -32.977 23.449 -33.293 21.117 C-29.057 11.74 -21.703 4.002 -12.289 -0.219 C-7.808 -1.71 -4.317 -1.662 0 0 Z " fill="#F4F5F4" transform="translate(788.29296875,536.8828125)"/>
<path d="M0 0 C1.15 3.365 0.863 5.175 -0.406 8.465 C-0.734 9.336 -1.063 10.207 -1.401 11.104 C-1.763 12.039 -2.126 12.974 -2.5 13.938 C-3.251 15.941 -3.999 17.945 -4.746 19.949 C-5.316 21.472 -5.316 21.472 -5.898 23.025 C-11.256 37.49 -15.498 52.176 -19.422 67.086 C-21.102 73.45 -22.96 79.741 -25 86 C-25.66 86 -26.32 86 -27 86 C-28.563 62.203 -19.416 38.281 -9.812 16.938 C-9.207 15.591 -9.207 15.591 -8.589 14.217 C-6.177 9.039 -3.469 4.541 0 0 Z " fill="#151515" transform="translate(414,155)"/>
<path d="M0 0 C6.332 2.377 10.646 7.246 14 13 C14 13.66 14 14.32 14 15 C8.383 17.31 2.762 19.465 -3.016 21.34 C-5.386 22.128 -7.697 23.034 -10 24 C-11.518 20.964 -11.496 19.411 -11 16 C-8.905 12.79 -6.516 9.888 -4 7 C-7.536 8.911 -9.79 10.626 -12 14 C-13.98 13.34 -15.96 12.68 -18 12 C-18.375 9.312 -18.375 9.312 -18 6 C-12.908 0.06 -7.443 -0.939 0 0 Z " fill="#F4F5F4" transform="translate(660,516)"/>
<path d="M0 0 C-0.217 0.801 -0.217 0.801 -0.438 1.617 C-1.984 7.823 -3.207 14.639 -1.465 20.934 C-0.852 23.657 -1.119 25.969 -1.375 28.75 C-1.95 35.787 -2.281 42.82 -2.562 49.875 C-2.606 50.964 -2.65 52.053 -2.695 53.175 C-2.798 55.783 -2.9 58.392 -3 61 C-5.793 58.381 -6.87 56.204 -8.125 52.562 C-8.458 51.615 -8.79 50.668 -9.133 49.691 C-11.339 42.845 -11.293 36.184 -11.35 29.039 C-11.367 27.52 -11.394 26.001 -11.432 24.483 C-11.812 9.278 -11.812 9.278 -7.374 3.356 C-4.91 0.924 -3.487 0 0 0 Z " fill="#FEFEFE" transform="translate(412,261)"/>
<path d="M0 0 C0.169 7.932 0.154 16.95 -4 24 C-8.093 26.893 -12.119 28.038 -17 29 C-18.441 29.296 -18.441 29.296 -19.91 29.598 C-20.945 29.797 -20.945 29.797 -22 30 C-26.811 23.231 -26.811 23.231 -27.5 18.75 C-26.949 15.722 -26.07 14.243 -24 12 C-18.974 12.739 -14.631 14.369 -11 18 C-11.07 16.679 -11.07 16.679 -11.141 15.332 C-11.177 14.171 -11.213 13.009 -11.25 11.812 C-11.296 10.664 -11.343 9.515 -11.391 8.332 C-10.925 4.36 -9.776 2.812 -7 0 C-4.333 -1.333 -2.833 -0.671 0 0 Z " fill="#F4F5F4" transform="translate(715,399)"/>
<path d="M0 0 C1 1 1 1 1.25 3.875 C1 7 1 7 -0.062 8.688 C-2.881 10.597 -5.835 11.746 -9 13 C-8.874 14.065 -8.874 14.065 -8.746 15.152 C-8.644 16.071 -8.542 16.991 -8.438 17.938 C-8.333 18.854 -8.229 19.771 -8.121 20.715 C-8.081 21.469 -8.041 22.223 -8 23 C-9.811 24.811 -12.613 24.382 -15.062 24.562 C-16.72 24.688 -16.72 24.688 -18.41 24.816 C-19.265 24.877 -20.119 24.938 -21 25 C-21.84 23.232 -22.672 21.461 -23.5 19.688 C-23.964 18.701 -24.428 17.715 -24.906 16.699 C-26 14 -26 14 -26 11 C-23.827 8.76 -21.189 7.08 -18.625 5.312 C-17.899 4.81 -17.172 4.308 -16.424 3.79 C-11.076 0.285 -6.463 -1.817 0 0 Z " fill="#F4F5F4" transform="translate(777,428)"/>
<path d="M0 0 C2.629 1.314 2.703 2.243 3.625 5 C7.227 17.9 4.838 31.216 2 44 C1.807 45.098 1.613 46.197 1.414 47.328 C-0.915 59.607 -7.118 70.676 -14 81 C-15 79 -15 79 -14.18 76.375 C-13.749 75.261 -13.319 74.147 -12.875 73 C-4.01 49.139 -0.35 25.406 0 0 Z " fill="#1E1E1F" transform="translate(667,366)"/>
<path d="M0 0 C5.908 2.772 10.163 6.802 14 12 C13.67 12.66 13.34 13.32 13 14 C12.429 13.676 11.858 13.353 11.27 13.02 C6.312 10.792 1.238 11.614 -3.812 13.188 C-7.231 15.131 -8.993 16.628 -11 20 C-11.336 22.71 -11.336 22.71 -11 25 C-8.69 23.02 -6.38 21.04 -4 19 C-3.34 19.33 -2.68 19.66 -2 20 C-3.098 21.152 -4.203 22.296 -5.312 23.438 C-5.927 24.076 -6.542 24.714 -7.176 25.371 C-9 27 -9 27 -12 28 C-12.847 26.131 -13.677 24.254 -14.5 22.375 C-15.196 20.809 -15.196 20.809 -15.906 19.211 C-17.326 15.043 -17.801 11.836 -16.012 7.734 C-15.575 7.08 -15.138 6.425 -14.688 5.75 C-14.258 5.085 -13.829 4.42 -13.387 3.734 C-9.723 -0.847 -5.404 -0.972 0 0 Z " fill="#F4F5F4" transform="translate(830,540)"/>
<path d="M0 0 C0.33 0.66 0.66 1.32 1 2 C2.982 2.719 4.986 3.377 7 4 C8.982 4.784 10.961 5.576 12.938 6.375 C25.82 11.283 37.299 13.669 51.061 13.521 C53.433 13.5 55.802 13.521 58.174 13.547 C67.494 13.561 75.81 12.46 84.762 9.857 C88 9 88 9 92 9 C92 9.66 92 10.32 92 11 C71.005 21.633 42.255 20.482 20.332 13.898 C5.527 8.979 5.527 8.979 0 4 C0 2.68 0 1.36 0 0 Z " fill="#1E1E1F" transform="translate(467,589)"/>
<path d="M0 0 C0.33 1.32 0.66 2.64 1 4 C-1.986 5.991 -4.597 6.941 -8 8 C-7.741 12.398 -7.439 14.495 -4.5 17.875 C-3.675 18.576 -2.85 19.277 -2 20 C-1.67 20.33 -1.34 20.66 -1 21 C0.343 21.086 1.69 21.107 3.035 21.098 C3.844 21.094 4.653 21.091 5.486 21.088 C6.762 21.075 6.762 21.075 8.062 21.062 C8.917 21.058 9.771 21.053 10.65 21.049 C12.767 21.037 14.883 21.019 17 21 C13.424 24.973 10.461 26.647 5.168 27.406 C-1.29 27.609 -5.458 27.144 -10.375 22.77 C-13.888 18.944 -16.154 15.223 -16.688 9.938 C-15.884 5.333 -14.797 3.815 -11.156 1.055 C-7.491 -0.738 -3.974 -0.487 0 0 Z " fill="#09090A" transform="translate(513,318)"/>
<path d="M0 0 C4.801 0.302 8.968 2.744 13.188 4.875 C13.911 5.227 14.635 5.579 15.381 5.941 C16.074 6.288 16.767 6.635 17.48 6.992 C18.108 7.305 18.736 7.618 19.384 7.941 C21 9 21 9 23 12 C23.266 14.34 23.266 14.34 23.25 16.938 C23.258 18.219 23.258 18.219 23.266 19.527 C22.987 22.12 22.307 23.765 21 26 C20.01 25.67 19.02 25.34 18 25 C17.67 21.04 17.34 17.08 17 13 C14.69 13.66 12.38 14.32 10 15 C10 13.02 10 11.04 10 9 C8.121 9.048 8.121 9.048 6 10 C4.603 11.956 3.262 13.954 2 16 C1.67 16 1.34 16 1 16 C0.67 13.03 0.34 10.06 0 7 C-3.904 8.952 -6.038 10.874 -9 14 C-8.388 10.628 -7.156 8.568 -5.062 5.875 C-4.538 5.192 -4.013 4.509 -3.473 3.805 C-2 2 -2 2 0 0 Z " fill="#F4F5F4" transform="translate(657,563)"/>
<path d="M0 0 C2.605 1.926 2.605 1.926 5.188 4.312 C6.047 5.092 6.907 5.872 7.793 6.676 C10.448 9.472 11.743 11.604 12.438 15.375 C11.788 19.275 9.715 21.222 7 24 C6.01 24.33 5.02 24.66 4 25 C4.99 22.03 5.98 19.06 7 16 C4.36 16.66 1.72 17.32 -1 18 C-0.01 15.03 0.98 12.06 2 9 C0.721 9.66 -0.558 10.32 -1.875 11 C-5.75 13 -5.75 13 -8 13 C-7.67 10.03 -7.34 7.06 -7 4 C-7.699 4.373 -8.397 4.745 -9.117 5.129 C-10.027 5.602 -10.937 6.075 -11.875 6.562 C-13.232 7.276 -13.232 7.276 -14.617 8.004 C-15.404 8.333 -16.19 8.661 -17 9 C-17.66 8.67 -18.32 8.34 -19 8 C-17.61 6.868 -16.213 5.744 -14.812 4.625 C-14.035 3.999 -13.258 3.372 -12.457 2.727 C-8.202 -0.264 -5.077 -1.808 0 0 Z " fill="#E4E5E5" transform="translate(732,592)"/>
<path d="M0 0 C3.488 0.258 4.242 1.265 6.688 3.938 C10.803 9.388 10.787 14.286 10 21 C7.875 24.25 7.875 24.25 5 26 C1.938 26.562 1.938 26.562 -1 26 C-3.375 24.25 -3.375 24.25 -5 22 C-5 20.68 -5 19.36 -5 18 C-4.01 17.67 -3.02 17.34 -2 17 C0.463 13.305 0.39 11.367 0 7 C-1.354 5.056 -1.354 5.056 -3 4 C-2.01 2.68 -1.02 1.36 0 0 Z " fill="#F4F5F4" transform="translate(686,444)"/>
<path d="M0 0 C3.1 1.755 5.488 3.488 8 6 C7.812 9 7.812 9 7 12 C3.258 14.495 1.438 14.376 -3 14 C-6.981 12.423 -8.607 11.59 -11 8 C-11.375 5.5 -11.375 5.5 -11 3 C-7.86 -0.643 -4.578 -0.552 0 0 Z " fill="#151515" transform="translate(703,474)"/>
<path d="M0 0 C6.456 3.842 11.551 8.833 13.629 16.242 C13.751 16.822 13.874 17.402 14 18 C12.35 18 10.7 18 9 18 C8.781 17.481 8.562 16.961 8.336 16.426 C6.018 11.327 3.704 8.257 -1 5 C-1.529 4.607 -2.057 4.214 -2.602 3.809 C-9.215 -0.372 -17.474 0.318 -25 1 C-26.685 1.62 -28.358 2.274 -30 3 C-32.312 2.625 -32.312 2.625 -34 2 C-24.305 -6.555 -10.961 -6.044 0 0 Z " fill="#151515" transform="translate(597,284)"/>
<path d="M0 0 C1.32 0 2.64 0 4 0 C3.495 6.905 0.281 10.979 -4.75 15.438 C-8.988 17.475 -12.378 17.835 -17 17 C-20.803 14.995 -22.618 13.573 -25 10 C-25.125 7.312 -25.125 7.312 -25 5 C-24.34 5 -23.68 5 -23 5 C-21.917 6.238 -21.917 6.238 -20.812 7.5 C-18.185 10.284 -18.185 10.284 -14.562 10.562 C-8.98 9.681 -5.766 7.113 -2.375 2.75 C-1.591 1.842 -0.808 0.935 0 0 Z " fill="#09090A" transform="translate(742,473)"/>
<path d="M0 0 C0 5.94 0 11.88 0 18 C-2.475 17.01 -2.475 17.01 -5 16 C-6.237 15.835 -7.475 15.67 -8.75 15.5 C-9.822 15.335 -10.895 15.17 -12 15 C-13.72 11.56 -13.511 7.762 -13 4 C-9.269 -0.117 -5.459 0 0 0 Z " fill="#E4E5E5" transform="translate(780,555)"/>
<path d="M0 0 C2.5 1.892 4.32 3.714 5.895 6.434 C5.895 7.424 5.895 8.414 5.895 9.434 C3.394 8.279 1.244 6.991 -1.043 5.434 C-6.465 1.892 -10.921 1.047 -17.355 1.059 C-18.11 1.057 -18.865 1.056 -19.643 1.055 C-24.839 1.153 -28.869 1.936 -33.441 4.559 C-35.105 5.434 -35.105 5.434 -38.105 5.434 C-36.827 1.457 -34.424 0.183 -30.957 -1.734 C-21.844 -5.83 -8.474 -5.096 0 0 Z " fill="#09090A" transform="translate(483.10546875,264.56640625)"/>
<path d="M0 0 C6.059 1.335 12.107 2.744 16 8 C16.688 11.188 16.688 11.188 17 14 C16.433 13.839 15.866 13.678 15.281 13.512 C12.955 12.99 10.881 12.833 8.5 12.812 C7.371 12.791 7.371 12.791 6.219 12.77 C3.591 12.911 3.591 12.911 0 15 C0 10.05 0 5.1 0 0 Z " fill="#E4E5E5" transform="translate(784,556)"/>
<path d="M0 0 C2.387 1.344 2.387 1.344 4 3 C4 3.99 4 4.98 4 6 C2.854 5.954 1.708 5.907 0.527 5.859 C-1.003 5.822 -2.533 5.785 -4.062 5.75 C-4.815 5.716 -5.567 5.683 -6.342 5.648 C-12.119 5.548 -15.149 6.913 -20 10 C-22.438 9.75 -22.438 9.75 -24 9 C-22.197 4.672 -19.848 3.124 -15.781 0.984 C-10.674 -0.823 -5.321 -0.855 0 0 Z " fill="#09090A" transform="translate(742,459)"/>
<path d="M0 0 C5.951 0.698 10.57 2.889 14.336 7.594 C14.752 8.197 15.169 8.8 15.598 9.422 C14.331 9.136 13.063 8.85 11.758 8.555 C6.532 7.393 1.287 6.337 -3.965 5.297 C-4.878 5.115 -5.791 4.933 -6.732 4.746 C-8.956 4.304 -11.179 3.862 -13.402 3.422 C-9.561 -0.891 -5.53 -0.114 0 0 Z " fill="#1E1E1F" transform="translate(565.40234375,120.578125)"/>
<path d="M0 0 C2.5 1.125 2.5 1.125 4 3 C4.25 6.188 4.25 6.188 4 9 C0.125 7.125 0.125 7.125 -1 6 C-7.252 5.47 -10.109 6.088 -15 10 C-14.787 6.272 -13.999 4.999 -11.438 2.188 C-7.607 -0.738 -4.705 -0.607 0 0 Z " fill="#151515" transform="translate(663,309)"/>
<path d="M0 0 C-0.062 1.114 -0.124 2.228 -0.188 3.375 C-0.126 4.571 -0.064 5.767 0 7 C3.204 9.136 4.019 9.231 7.688 9.125 C8.496 9.107 9.304 9.089 10.137 9.07 C10.752 9.047 11.366 9.024 12 9 C12 9.66 12 10.32 12 11 C8.25 13.5 6.441 13.536 2 13 C0.293 11.374 -1.377 9.709 -3 8 C-5.712 7.58 -5.712 7.58 -8 8 C-6.785 4.356 -4.237 0 0 0 Z " fill="#1E1E1F" transform="translate(699,488)"/>
<path d="M0 0 C0.66 0.33 1.32 0.66 2 1 C2 1.66 2 2.32 2 3 C2.66 3 3.32 3 4 3 C2.932 5.719 2.019 6.985 -0.312 8.812 C-3.654 11.532 -5.599 14.432 -8 18 C-8.33 17.34 -8.66 16.68 -9 16 C-8.287 14.304 -8.287 14.304 -7.129 12.305 C-6.72 11.589 -6.31 10.874 -5.889 10.137 C-5.451 9.39 -5.013 8.644 -4.562 7.875 C-4.129 7.121 -3.695 6.367 -3.248 5.59 C-2.173 3.722 -1.087 1.861 0 0 Z " fill="#E4E5E5" transform="translate(682,429)"/>
<path d="M0 0 C0.996 3.17 0.965 5.497 0.441 8.766 C0.303 9.655 0.164 10.545 0.021 11.461 C-0.206 12.842 -0.206 12.842 -0.438 14.25 C-0.659 15.654 -0.659 15.654 -0.885 17.086 C-1.249 19.392 -1.621 21.696 -2 24 C-2.66 23.34 -3.32 22.68 -4 22 C-4.66 22.99 -5.32 23.98 -6 25 C-5.555 19.545 -4.415 14.406 -3 9.125 C-2.822 8.458 -2.644 7.792 -2.46 7.105 C-1.14 2.28 -1.14 2.28 0 0 Z " fill="#434343" transform="translate(589,527)"/>
<path d="M0 0 C1.65 0 3.3 0 5 0 C5.312 2.25 5.312 2.25 5 5 C2.5 7.312 2.5 7.312 0 9 C-0.66 8.34 -1.32 7.68 -2 7 C-1.673 4.384 -1.18 2.359 0 0 Z " fill="#09090A" transform="translate(208,601)"/>
<path d="M0 0 C0 0.66 0 1.32 0 2 C-1.601 2.673 -3.206 3.338 -4.812 4 C-5.706 4.371 -6.599 4.742 -7.52 5.125 C-10 6 -10 6 -13 6 C-13 5.34 -13 4.68 -13 4 C-14.32 3.67 -15.64 3.34 -17 3 C-14.918 2.495 -12.834 1.996 -10.75 1.5 C-9.59 1.222 -8.43 0.943 -7.234 0.656 C-4 0 -4 0 0 0 Z " fill="#333333" transform="translate(559,598)"/>
<path d="M0 0 C0.33 0 0.66 0 1 0 C1 4.95 1 9.9 1 15 C0.34 14.34 -0.32 13.68 -1 13 C-1.99 13.495 -1.99 13.495 -3 14 C-2.692 11.853 -2.379 9.708 -2.062 7.562 C-1.888 6.368 -1.714 5.173 -1.535 3.941 C-1 1 -1 1 0 0 Z " fill="#C4C4C4" transform="translate(812,570)"/>
<path d="M0 0 C0.99 0.33 1.98 0.66 3 1 C2.299 1.66 1.597 2.32 0.875 3 C-2.494 6.35 -5.225 10.157 -8 14 C-8.33 13.01 -8.66 12.02 -9 11 C-7.637 8.809 -7.637 8.809 -5.688 6.438 C-5.052 5.652 -4.416 4.867 -3.762 4.059 C-2 2 -2 2 0 0 Z " fill="#D2D3D3" transform="translate(657,563)"/>
<path d="M0 0 C1.32 0 2.64 0 4 0 C5.461 2.647 6 3.894 6 7 C4.125 6.688 4.125 6.688 2 6 C0 3 0 3 0 0 Z " fill="#151515" transform="translate(258,612)"/>
<path d="M0 0 C0 0.66 0 1.32 0 2 C-3.644 4.429 -5.712 4.162 -10 4 C-10 3.01 -10 2.02 -10 1 C-6.565 0.375 -3.509 0 0 0 Z " fill="#333333" transform="translate(711,497)"/>
<path d="M0 0 C0.66 0 1.32 0 2 0 C4.152 3.228 4.201 4.284 4 8 C2.062 7.312 2.062 7.312 0 6 C-0.812 3.438 -0.812 3.438 -1 1 C-0.67 0.67 -0.34 0.34 0 0 Z " fill="#151515" transform="translate(248,610)"/>
<path d="M0 0 C6.523 0.492 6.523 0.492 8.938 3.062 C9.288 3.702 9.639 4.341 10 5 C8.35 5 6.7 5 5 5 C5 4.01 5 3.02 5 2 C3.02 2.33 1.04 2.66 -1 3 C-0.67 2.01 -0.34 1.02 0 0 Z " fill="#D2D3D3" transform="translate(697,478)"/>
<path d="M0 0 C3.824 5.099 3.824 5.099 4 8 C2.625 10.75 2.625 10.75 1 13 C0.67 13 0.34 13 0 13 C0 8.71 0 4.42 0 0 Z " fill="#8B8886" transform="translate(392,359)"/>
<path d="M0 0 C1.32 0.66 2.64 1.32 4 2 C4 3.65 4 5.3 4 7 C2.68 6.67 1.36 6.34 0 6 C-0.382 4.344 -0.714 2.675 -1 1 C-0.67 0.67 -0.34 0.34 0 0 Z " fill="#151515" transform="translate(271,613)"/>
<path d="M0 0 C0.66 0 1.32 0 2 0 C2.53 1.288 3.049 2.58 3.562 3.875 C3.998 4.954 3.998 4.954 4.441 6.055 C5 8 5 8 4 10 C2.02 7.36 0.04 4.72 -2 2 C-1.34 1.34 -0.68 0.68 0 0 Z " fill="#C4C4C4" transform="translate(760,562)"/>
<path d="M0 0 C2.398 2.398 2.343 3.333 2.625 6.625 C2.7 7.442 2.775 8.26 2.852 9.102 C2.901 9.728 2.95 10.355 3 11 C2.01 11 1.02 11 0 11 C-1.125 3.375 -1.125 3.375 0 0 Z " fill="#434343" transform="translate(395,367)"/>
<path d="M0 0 C0.66 0.33 1.32 0.66 2 1 C-1.38 5.981 -5.302 9.046 -11 11 C-7.333 7.333 -3.667 3.667 0 0 Z " fill="#D2D3D3" transform="translate(461,199)"/>
<path d="M0 0 C0 0.66 0 1.32 0 2 C-2.882 2.961 -4.699 3.106 -7.688 3.062 C-8.9 3.049 -8.9 3.049 -10.137 3.035 C-11.059 3.018 -11.059 3.018 -12 3 C-8.402 -0.598 -4.843 -0.091 0 0 Z " fill="#09090A" transform="translate(546,602)"/>
<path d="M0 0 C0.66 0.33 1.32 0.66 2 1 C1 4 1 4 -0.777 5.203 C-1.49 5.549 -2.203 5.894 -2.938 6.25 C-4.003 6.784 -4.003 6.784 -5.09 7.328 C-6.035 7.661 -6.035 7.661 -7 8 C-7.66 7.67 -8.32 7.34 -9 7 C-6.03 4.69 -3.06 2.38 0 0 Z " fill="#D2D3D3" transform="translate(722,593)"/>
<path d="M0 0 C-4.29 0 -8.58 0 -13 0 C-13 -0.66 -13 -1.32 -13 -2 C-7.484 -3.379 -5.071 -2.536 0 0 Z " fill="#333333" transform="translate(332,785)"/>
<path d="M0 0 C1.033 2.788 1.045 3.868 0.062 6.75 C-0.288 7.493 -0.639 8.235 -1 9 C-1.99 9 -2.98 9 -4 9 C-4 5.001 -2.274 3.198 0 0 Z " fill="#1E1E1F" transform="translate(414,155)"/>
<path d="M0 0 C-1.135 3.291 -1.993 3.996 -5.125 5.75 C-6.548 6.369 -6.548 6.369 -8 7 C-6.139 2.849 -4.831 0 0 0 Z " fill="#151515" transform="translate(656,523)"/>
<path d="M0 0 C1.98 1.65 3.96 3.3 6 5 C5.67 5.99 5.34 6.98 5 8 C2.007 6.902 1.154 6.323 -0.25 3.375 C-0.497 2.591 -0.745 1.808 -1 1 C-0.67 0.67 -0.34 0.34 0 0 Z " fill="#151515" transform="translate(696,492)"/>
<path d="M0 0 C0 3.589 -0.664 4.109 -3 6.688 C-3.557 7.31 -4.114 7.933 -4.688 8.574 C-5.121 9.045 -5.554 9.515 -6 10 C-6 5.968 -4.359 4.191 -2 1 C-1.34 0.67 -0.68 0.34 0 0 Z " fill="#1E1E1F" transform="translate(415,203)"/>
<path d="M0 0 C0.33 0 0.66 0 1 0 C0.67 3.3 0.34 6.6 0 10 C-0.99 9.34 -1.98 8.68 -3 8 C-1.125 1.125 -1.125 1.125 0 0 Z " fill="#333333" transform="translate(727,531)"/>
<path d="M0 0 C0.33 0 0.66 0 1 0 C1 3.3 1 6.6 1 10 C0.34 8.68 -0.32 7.36 -1 6 C-1.99 6.495 -1.99 6.495 -3 7 C-1.125 1.125 -1.125 1.125 0 0 Z " fill="#C4C4C4" transform="translate(554,447)"/>
<path d="M0 0 C0.66 0 1.32 0 2 0 C2.33 2.31 2.66 4.62 3 7 C2.01 6.67 1.02 6.34 0 6 C0 4.02 0 2.04 0 0 Z " fill="#F4F5F4" transform="translate(641,532)"/>
<path d="M0 0 C0.66 0.33 1.32 0.66 2 1 C-0.21 3.819 -2.401 6.531 -5 9 C-4.521 4.686 -3.254 2.834 0 0 Z " fill="#1E1E1F" transform="translate(653,310)"/>
<path d="M0 0 C2.31 1.98 4.62 3.96 7 6 C6.01 7.485 6.01 7.485 5 9 C4.161 7.879 3.329 6.753 2.5 5.625 C2.036 4.999 1.572 4.372 1.094 3.727 C0 2 0 2 0 0 Z " fill="#333333" transform="translate(602,151)"/>
</svg>