<svg xmlns="http://www.w3.org/2000/svg" version="1.1" viewBox="511.59040000000005 142.5408 499.712 684.032" style="max-height: 500px" width="499.712" height="684.032">
<path transform="translate(0,0)" fill="#FEFEFE" d="M0 0 C337.92 0 675.84 0 1024 0 C1024 337.92 1024 675.84 1024 1024 C686.08 1024 348.16 1024 0 1024 C0 686.08 0 348.16 0 0 Z"/>
<path transform="translate(247.02392578125,168.553955078125)" fill="#484A4F" d="M0 0 C2.736 0.009 5.47 -0.02 8.207 -0.052 C19.553 -0.099 29.263 0.246 37.976 8.446 C38.698 9.106 39.42 9.766 40.164 10.446 C41.976 12.446 41.976 12.446 42.929 14.602 C43.844 16.651 43.844 16.651 46.148 17.352 C46.999 17.548 47.85 17.744 48.726 17.946 C53.236 19.129 56.285 20.629 59.976 23.446 C55.743 18.507 50.846 16.125 44.976 13.446 C44.976 12.456 44.976 11.466 44.976 10.446 C51.164 9.632 55.996 11.99 60.976 15.446 C70.602 25.344 70.602 25.344 71.171 31.587 C71.106 33.54 71.041 35.493 70.976 37.446 C67.976 36.446 67.976 36.446 66.789 34.384 C66.386 33.424 66.386 33.424 65.976 32.446 C65.976 37.009 66.691 37.86 69.351 41.384 C74.207 47.848 75.304 52.453 75.226 60.384 C75.234 61.169 75.242 61.955 75.25 62.764 C75.234 67.447 74.572 71.007 72.976 75.446 C72.331 78.555 71.841 81.685 71.351 84.821 C71.217 85.652 71.083 86.484 70.945 87.341 C70.617 89.375 70.296 91.41 69.976 93.446 C71.061 93.541 72.147 93.637 73.265 93.735 C77.104 94.47 78.063 94.825 80.351 97.821 C81.074 98.73 81.074 98.73 81.812 99.657 C85.783 105.76 84.77 115.433 83.976 122.446 C81.972 131.372 76.934 139.523 69.976 145.446 C69.316 145.446 68.656 145.446 67.976 145.446 C68.059 146.601 68.141 147.756 68.226 148.946 C68.183 162.837 62.083 177.232 55.976 189.446 C59.276 191.756 62.576 194.066 65.976 196.446 C66.703 195.251 66.703 195.251 67.445 194.032 C73.638 184.241 80.578 177.484 91.777 173.864 C103.681 171.602 114.156 173.856 124.539 179.95 C131.304 184.693 136.359 191.594 138.976 199.446 C139.047 202.185 139.07 204.896 139.039 207.634 C139.034 208.383 139.03 209.133 139.025 209.905 C139.013 211.752 138.995 213.599 138.976 215.446 C139.513 215.611 140.051 215.776 140.604 215.946 C146.523 217.833 152.068 220.196 157.664 222.884 C158.479 223.266 159.294 223.648 160.134 224.042 C164.693 226.212 168.831 228.569 172.976 231.446 C174.961 232.475 176.957 233.485 178.976 234.446 C178.976 236.096 178.976 237.746 178.976 239.446 C179.811 239.866 179.811 239.866 180.664 240.294 C193.875 247.234 201.602 256.846 206.173 271.094 C207.571 276.931 207.479 282.662 207.351 288.634 C207.335 289.913 207.319 291.192 207.303 292.51 C207.032 307.605 204.844 321.893 201.878 336.669 C201.725 337.485 201.571 338.302 201.412 339.143 C201.027 341.179 200.606 343.208 200.179 345.235 C199.498 351.189 201.389 357.018 202.789 362.759 C208.12 385.324 208.12 385.324 207.976 394.446 C209.01 394.436 210.044 394.425 211.11 394.414 C214.958 394.378 218.806 394.355 222.655 394.336 C224.318 394.326 225.982 394.313 227.645 394.295 C230.041 394.271 232.436 394.26 234.832 394.251 C235.941 394.235 235.941 394.235 237.073 394.219 C241.159 394.219 244.3 394.622 247.976 396.446 C247.646 397.106 247.316 397.766 246.976 398.446 C245.34 398.458 245.34 398.458 243.671 398.471 C233.359 398.548 223.046 398.636 212.734 398.734 C207.433 398.783 202.132 398.83 196.831 398.868 C191.708 398.905 186.586 398.951 181.464 399.004 C179.516 399.023 177.569 399.038 175.622 399.049 C157.327 398.123 157.327 398.123 141.503 405.334 C139.625 407.932 138.473 410.53 137.234 413.489 C136.979 414.097 136.724 414.705 136.462 415.332 C133.011 423.651 129.847 432.085 126.664 440.509 C125.966 442.347 125.268 444.186 124.57 446.025 C122.368 451.83 120.172 457.638 117.976 463.446 C117.251 465.362 116.527 467.278 115.802 469.194 C110.23 483.925 104.668 498.66 99.109 513.396 C90.461 536.319 81.747 559.216 72.899 582.062 C72.281 583.659 71.663 585.256 71.045 586.853 C69.248 591.5 67.445 596.144 65.632 600.785 C65.078 602.205 64.525 603.626 63.975 605.048 C58.817 618.359 58.817 618.359 54.976 624.446 C54.316 624.446 53.656 624.446 52.976 624.446 C52.409 617.069 54.43 611.318 56.976 604.446 C57.548 602.855 57.548 602.855 58.132 601.231 C59.069 598.632 60.017 596.037 60.976 593.446 C60.26 593.316 59.543 593.186 58.805 593.051 C56.017 592.455 53.408 591.668 50.705 590.76 C49.676 590.415 48.647 590.071 47.587 589.717 C46.482 589.344 45.376 588.971 44.238 588.587 C43.084 588.2 41.931 587.814 40.742 587.416 C37.048 586.179 33.356 584.938 29.664 583.696 C24.835 582.074 20.005 580.454 15.175 578.837 C14.016 578.448 12.857 578.06 11.662 577.659 C4.136 575.145 -3.41 572.717 -11.003 570.41 C-13.757 569.531 -16.414 568.545 -19.086 567.446 C-23.185 565.769 -27.299 564.145 -31.461 562.634 C-33.223 561.974 -33.223 561.974 -35.02 561.302 C-43.205 559.023 -52.747 561.814 -60.872 563.477 C-61.85 563.673 -62.829 563.869 -63.837 564.071 C-65.882 564.482 -67.926 564.896 -69.97 565.312 C-73.108 565.951 -76.249 566.58 -79.389 567.208 C-81.383 567.61 -83.378 568.012 -85.372 568.415 C-86.311 568.603 -87.251 568.792 -88.219 568.986 C-89.084 569.163 -89.949 569.34 -90.841 569.522 C-91.602 569.677 -92.364 569.832 -93.149 569.991 C-95.098 570.39 -95.098 570.39 -97.024 571.446 C-99.815 571.913 -102.603 572.344 -105.403 572.755 C-115.669 574.318 -125.804 576.364 -135.961 578.509 C-165.675 584.753 -165.675 584.753 -174.774 584.571 C-175.965 584.553 -177.156 584.535 -178.383 584.516 C-179.69 584.482 -179.69 584.482 -181.024 584.446 C-181.024 583.456 -181.024 582.466 -181.024 581.446 C-178.962 581.108 -176.9 580.776 -174.836 580.446 C-173.688 580.26 -172.539 580.075 -171.356 579.884 C-168.52 579.511 -165.877 579.36 -163.024 579.446 C-162.914 578.26 -162.805 577.074 -162.692 575.852 C-161.796 566.561 -160.579 557.477 -158.75 548.325 C-157.764 543.058 -157.098 537.776 -156.454 532.458 C-156.024 529.446 -156.024 529.446 -155.024 526.446 C-155.739 526.351 -156.455 526.255 -157.192 526.157 C-167.056 523.681 -174.011 514.752 -179.024 506.446 C-182.637 500.072 -184.778 493.333 -186.774 486.321 C-187.09 485.211 -187.09 485.211 -187.413 484.079 C-196.521 450.356 -188.471 409.217 -182.967 375.333 C-181.663 367.29 -180.517 359.224 -179.368 351.157 C-178.609 345.945 -177.729 340.819 -176.531 335.69 C-175.979 333.248 -175.511 330.798 -175.051 328.337 C-169.741 300.498 -162.696 264.094 -139.024 245.446 C-123.728 235.09 -105.7 228.281 -88.711 221.259 C-87.781 220.872 -86.85 220.485 -85.891 220.087 C-85.031 219.737 -84.172 219.388 -83.286 219.028 C-82.532 218.721 -81.779 218.414 -81.003 218.098 C-79.024 217.446 -79.024 217.446 -76.024 217.446 C-76.01 216.684 -75.996 215.922 -75.981 215.137 C-75.484 204.374 -72.074 197.62 -64.262 190.235 C-57.324 184.689 -48.913 181.446 -40.024 181.446 C-40.286 180.923 -40.548 180.4 -40.818 179.861 C-42.024 177.437 -43.212 175.004 -44.399 172.571 C-45.018 171.337 -45.018 171.337 -45.649 170.079 C-48.454 164.288 -50.069 158.807 -51.024 152.446 C-51.849 152.57 -52.674 152.694 -53.524 152.821 C-59.272 152.205 -62.875 148.801 -66.692 144.618 C-73.79 135.64 -77.178 126.909 -77.336 115.509 C-77.38 114.473 -77.38 114.473 -77.424 113.417 C-77.488 108.241 -76.234 105.443 -73.024 101.446 C-70.885 99.307 -69.891 99.019 -67.024 98.446 C-67.478 97.456 -67.931 96.466 -68.399 95.446 C-71.322 88.534 -73.327 80.987 -72.024 73.446 C-71.034 72.786 -70.044 72.126 -69.024 71.446 C-70.096 71.034 -71.169 70.621 -72.274 70.196 C-75.553 68.789 -77.742 67.255 -80.024 64.446 C-80.985 61.564 -81.13 59.748 -81.086 56.759 C-81.077 55.95 -81.068 55.142 -81.059 54.309 C-81.047 53.694 -81.036 53.08 -81.024 52.446 C-79.539 52.941 -79.539 52.941 -78.024 53.446 C-77.336 55.183 -76.649 56.92 -75.973 58.661 C-73.913 62.536 -70.007 64.118 -66.024 65.446 C-64.38 65.539 -62.733 65.576 -61.086 65.571 C-60.232 65.574 -59.377 65.576 -58.497 65.579 C-56.197 65.455 -54.228 65.09 -52.024 64.446 C-52.797 64.42 -53.571 64.394 -54.368 64.368 C-62.798 63.909 -68.706 62.842 -74.711 56.696 C-75.475 55.624 -76.238 54.551 -77.024 53.446 C-77.724 52.601 -77.724 52.601 -78.438 51.739 C-82.349 46.55 -82.712 41.849 -82.446 35.442 C-81.697 30.121 -79.275 27.605 -75.461 24.071 C-73.024 22.446 -73.024 22.446 -70.024 22.446 C-70.024 25.086 -70.024 27.726 -70.024 30.446 C-67.384 30.776 -64.744 31.106 -62.024 31.446 C-62.003 30.312 -61.983 29.177 -61.961 28.009 C-61.205 22.232 -58.099 18.447 -54.024 14.446 C-38.186 2.376 -19.244 -0.092 0 0 Z"/>
<path transform="translate(931,168)" fill="#020202" d="M0 0 C10.465 6.544 18.316 16.686 22.062 28.5 C25.655 45.094 21.07 57.889 12.25 71.75 C2.504 81.496 -8.688 86.194 -22.268 86.26 C-27.513 86.193 -31.325 85.29 -36 83 C-35.67 83.66 -35.34 84.32 -35 85 C-34.022 97.581 -34.057 110.191 -39.812 121.625 C-41.031 125.089 -41.071 125.635 -40.188 128.938 C-36.701 142.04 -38.89 154.16 -45 166 C-49.981 174.496 -56.427 181.708 -65.734 185.492 C-70.307 186.517 -75.099 186.427 -79.77 186.496 C-83.018 186.614 -83.018 186.614 -84.222 188.667 C-85.207 191.621 -85.013 193.745 -84.68 196.84 C-84.558 197.98 -84.437 199.121 -84.312 200.296 C-84.168 201.497 -84.024 202.699 -83.875 203.938 C-83.735 205.154 -83.596 206.371 -83.452 207.624 C-82.45 215.765 -81.101 223.366 -78 231 C-77.606 230.041 -77.606 230.041 -77.203 229.062 C-76 227 -76 227 -72.75 226 C-68.205 226 -66.446 227.128 -63 230 C-61.747 232.505 -61.93 234.327 -61.875 237.125 C-61.305 243.643 -58.884 246.818 -54 251 C-48.847 255.094 -43.218 258.503 -37.687 262.054 C-23.951 270.883 -23.951 270.883 -18 276 C-17.403 276.491 -16.806 276.982 -16.191 277.488 C-2.221 290.028 3.52 310.789 4.5 328.812 C4.552 330.036 4.603 331.259 4.656 332.52 C4.871 336.115 5.369 339.627 5.91 343.188 C6.792 349.149 7.431 355.103 7.965 361.105 C8.045 362.003 8.125 362.901 8.207 363.825 C8.535 367.538 8.858 371.251 9.175 374.964 C10.086 385.568 11.169 396.073 12.956 406.569 C13.825 411.679 14.442 416.778 14.938 421.938 C15.702 429.404 17.008 436.677 18.592 444.013 C19.4 447.794 20.086 451.487 20.434 455.34 C20.774 458.695 21.404 461.824 22.258 465.086 C23.811 471.033 25.076 477.018 26.305 483.039 C26.512 484.051 26.72 485.064 26.933 486.107 C27.799 490.335 28.66 494.563 29.515 498.793 C32.059 511.363 34.88 523.732 38.447 536.05 C39.874 541.081 41.089 546.167 42.312 551.25 C42.576 552.311 42.84 553.372 43.111 554.465 C43.359 555.492 43.608 556.52 43.863 557.578 C44.193 558.93 44.193 558.93 44.529 560.31 C45.279 564.592 45.7 567.824 43.438 571.625 C40.493 574.494 37.642 576.109 34 578 C34.941 578.049 35.882 578.098 36.852 578.148 C38.097 578.223 39.342 578.298 40.625 578.375 C42.47 578.479 42.47 578.479 44.352 578.586 C47.837 578.981 50.73 579.763 54 581 C53.67 581.99 53.34 582.98 53 584 C17.305 584.229 -18.391 584.405 -54.087 584.511 C-58.3 584.523 -62.513 584.536 -66.727 584.549 C-67.565 584.552 -68.404 584.555 -69.268 584.557 C-82.854 584.601 -96.439 584.68 -110.024 584.772 C-123.962 584.865 -137.899 584.921 -151.837 584.941 C-160.439 584.955 -169.04 584.998 -177.642 585.079 C-183.539 585.132 -189.436 585.148 -195.333 585.135 C-198.737 585.129 -202.139 585.138 -205.542 585.192 C-209.233 585.242 -212.919 585.23 -216.611 585.203 C-217.687 585.232 -218.762 585.261 -219.871 585.291 C-222.9 585.23 -225.17 585.091 -228 584 C-230.989 580.712 -234 576.598 -234 572 C-234.866 572.33 -235.733 572.66 -236.625 573 C-245.594 575.488 -254.894 574.159 -263.875 572.5 C-275.532 570.382 -286.706 569.204 -297.863 574.125 C-300 575 -300 575 -303 575 C-301.587 579.459 -299.887 583.695 -297.996 587.973 C-297.415 589.297 -296.833 590.622 -296.252 591.947 C-295.343 594.011 -294.433 596.073 -293.52 598.135 C-292.633 600.142 -291.751 602.151 -290.871 604.16 C-290.081 605.949 -290.081 605.949 -289.275 607.774 C-288.169 610.573 -287.538 613.059 -287 616 C-285.982 615.996 -284.963 615.991 -283.914 615.987 C-274.32 615.946 -264.727 615.916 -255.133 615.896 C-250.2 615.886 -245.268 615.872 -240.336 615.849 C-235.577 615.827 -230.818 615.815 -226.058 615.81 C-224.242 615.807 -222.425 615.799 -220.609 615.789 C-218.066 615.774 -215.524 615.772 -212.981 615.773 C-212.229 615.766 -211.477 615.759 -210.702 615.751 C-206.974 615.766 -204.164 615.922 -201 618 C-201.252 619.871 -201.252 619.871 -202 622 C-208.822 626.592 -218.097 628.212 -225.938 630.327 C-229.68 631.343 -233.386 632.425 -237.084 633.594 C-254.627 638.874 -271.778 638.83 -289.897 638.696 C-294.396 638.67 -298.895 638.679 -303.393 638.684 C-311.159 638.687 -318.924 638.668 -326.69 638.634 C-337.917 638.585 -349.144 638.57 -360.371 638.562 C-378.593 638.549 -396.815 638.51 -415.037 638.453 C-432.722 638.397 -450.407 638.355 -468.092 638.33 C-469.185 638.328 -470.278 638.326 -471.404 638.325 C-476.887 638.317 -482.371 638.309 -487.855 638.302 C-533.236 638.24 -578.618 638.134 -624 638 C-624.66 636.68 -625.32 635.36 -626 634 C-625.227 634 -624.454 634 -623.658 634 C-577.788 634.009 -531.917 633.987 -486.047 633.924 C-480.531 633.917 -475.016 633.909 -469.5 633.902 C-468.402 633.901 -467.304 633.9 -466.172 633.898 C-448.426 633.876 -430.68 633.875 -412.934 633.881 C-394.706 633.887 -376.477 633.871 -358.249 633.834 C-347.014 633.811 -335.779 633.806 -324.544 633.824 C-316.825 633.835 -309.106 633.823 -301.387 633.795 C-296.943 633.779 -292.499 633.772 -288.055 633.793 C-269.535 633.869 -253.729 633.098 -236 627 C-228.41 625.02 -220.82 623.04 -213 621 C-236.76 620.67 -260.52 620.34 -285 620 C-284.67 620.99 -284.34 621.98 -284 623 C-283.96 625.333 -283.956 627.667 -284 630 C-284.99 630 -285.98 630 -287 630 C-293.122 617.582 -298.614 604.937 -303.925 592.156 C-307.643 583.214 -311.44 574.314 -315.312 565.438 C-320.318 553.954 -325.213 542.426 -330.062 530.875 C-336.074 516.561 -342.142 502.273 -348.276 488.011 C-351.481 480.556 -354.679 473.098 -357.876 465.64 C-359.052 462.899 -360.229 460.157 -361.406 457.416 C-364.787 449.537 -368.158 441.656 -371.457 433.742 C-372.21 431.94 -372.21 431.94 -372.978 430.102 C-373.875 427.949 -374.767 425.794 -375.653 423.636 C-378.708 416.304 -381.476 410.07 -388.583 405.951 C-393.352 404.074 -398.312 404.256 -403.375 404.25 C-405.529 404.217 -407.682 404.181 -409.836 404.141 C-410.78 404.136 -411.724 404.131 -412.697 404.126 C-415 404 -415 404 -417 403 C-417 402.34 -417 401.68 -417 401 C-406.76 397.587 -394.823 397.382 -384.918 401.832 C-382.956 403.027 -381.589 404.357 -380 406 C-379.202 403.231 -378.411 400.46 -377.625 397.688 C-377.403 396.921 -377.182 396.155 -376.953 395.365 C-376.263 392.919 -375.621 390.465 -375 388 C-374.703 386.861 -374.703 386.861 -374.401 385.698 C-372.405 376.707 -372.664 367.522 -372.684 358.36 C-372.687 355.468 -372.664 352.577 -372.639 349.686 C-372.6 338.513 -373.471 327.979 -375.615 317.02 C-381.183 287.801 -386.05 254.265 -369 228 C-364.958 222.996 -360.678 219.06 -355 216 C-354.34 216 -353.68 216 -353 216 C-353.433 214.67 -353.433 214.67 -353.875 213.312 C-354 210 -354 210 -351.688 207.5 C-350.481 206.634 -349.249 205.804 -348 205 C-347.318 204.55 -346.636 204.1 -345.934 203.637 C-340.646 200.317 -335.125 197.45 -329.562 194.625 C-328.864 194.267 -328.165 193.909 -327.446 193.54 C-322.359 191 -322.359 191 -319 191 C-319.058 190.25 -319.116 189.5 -319.176 188.727 C-319.572 179.747 -317.845 173.871 -312.273 166.812 C-305.344 159.285 -295.545 153.589 -285.266 152.664 C-273.282 152.394 -263.957 154.661 -255 163 C-247.443 171.116 -244.344 179.932 -244.459 190.957 C-244.892 200.319 -248.495 208.478 -254.988 215.254 C-261.16 220.611 -268.161 223.88 -276 226 C-276.629 226.183 -277.258 226.366 -277.906 226.555 C-286.333 228.347 -294.544 227.292 -302 223 C-303.872 221.441 -305.585 219.867 -307.234 218.074 C-309.037 216.754 -309.037 216.754 -311.672 217.113 C-315.016 218.004 -318.043 219.172 -321.219 220.528 C-329.697 224.142 -337.618 226.796 -347 226 C-347.66 225.34 -348.32 224.68 -349 224 C-354.502 224.74 -358.527 228.141 -361.867 232.355 C-378.136 256.55 -372.355 286.758 -367.516 313.693 C-365.074 327.663 -364.71 341.479 -364.688 355.625 C-364.684 356.536 -364.68 357.446 -364.677 358.385 C-364.649 371.316 -365.186 383.775 -368.938 396.25 C-369.271 397.424 -369.605 398.599 -369.949 399.809 C-371 403 -371 403 -372.207 405.285 C-373.462 407.725 -373.958 409.238 -374 412 C-372.515 416.187 -370.589 420.016 -368.551 423.957 C-365.744 429.389 -363.402 434.979 -361.062 440.625 C-356.229 452.171 -351.259 463.654 -346.25 475.125 C-345.892 475.945 -345.534 476.765 -345.165 477.61 C-344.461 479.223 -343.756 480.837 -343.051 482.451 C-342.366 484.017 -341.682 485.584 -340.999 487.152 C-339.326 490.986 -337.639 494.814 -335.928 498.632 C-335.6 499.367 -335.273 500.102 -334.935 500.859 C-334.318 502.244 -333.696 503.627 -333.069 505.008 C-331.8 507.862 -331 509.838 -331 513 C-330.217 512.968 -329.435 512.936 -328.629 512.903 C-320.219 512.711 -312.72 513.786 -304.562 515.75 C-303.38 516.024 -302.197 516.299 -300.978 516.582 C-292.906 518.477 -284.918 520.535 -277 523 C-275.472 523.456 -275.472 523.456 -273.914 523.922 C-264.543 526.745 -255.274 529.877 -246 533 C-246.026 532.415 -246.052 531.83 -246.079 531.228 C-246.183 528.569 -246.248 525.91 -246.312 523.25 C-246.354 522.33 -246.396 521.409 -246.439 520.461 C-246.563 513.638 -246.563 513.638 -243.668 510.359 C-241 509 -241 509 -238 509 C-237.879 507.733 -237.758 506.466 -237.633 505.16 C-237.464 503.461 -237.295 501.762 -237.125 500.062 C-237.046 499.232 -236.968 498.401 -236.887 497.545 C-236.402 492.754 -235.635 488.186 -234.522 483.505 C-233.908 480.56 -233.527 477.617 -233.141 474.633 C-231.893 465.589 -229.83 456.758 -227.75 447.875 C-227.55 447.013 -227.35 446.151 -227.144 445.262 C-224.388 433.407 -221.379 421.71 -217.659 410.117 C-216.488 406.355 -215.471 402.551 -214.438 398.75 C-211.619 388.467 -208.642 378.226 -204.844 368.256 C-203.878 365.673 -202.962 363.074 -202.047 360.473 C-169.042 267.755 -169.042 267.755 -143 255 C-140.003 254.427 -137.047 254.135 -134 254 C-134.628 257.887 -135.806 261.1 -137.449 264.672 C-137.961 265.794 -138.472 266.917 -138.999 268.073 C-139.274 268.671 -139.548 269.268 -139.831 269.883 C-141.317 273.123 -142.782 276.372 -144.246 279.621 C-144.553 280.303 -144.86 280.984 -145.177 281.686 C-154.149 301.647 -162.627 321.819 -170.061 342.406 C-170.715 344.212 -171.377 346.015 -172.047 347.815 C-174.05 353.225 -175.841 358.611 -177.312 364.188 C-178.698 369.328 -180.121 374.451 -181.664 379.547 C-192.541 415.532 -198.776 452.586 -202 490 C-201.402 489.67 -200.804 489.34 -200.188 489 C-198 488 -198 488 -195 488 C-194.871 486.921 -194.742 485.842 -194.609 484.73 C-185.319 410.718 -154.823 338.683 -115 276 C-115.713 276.046 -116.426 276.093 -117.16 276.141 C-123.804 276.391 -127.6 275.937 -133 272 C-133.66 271.526 -134.32 271.051 -135 270.562 C-136 269 -136 269 -135.938 266.812 C-135 264 -135 264 -133.188 260.562 C-126.189 246.642 -126.512 233.236 -127 218 C-125.828 217.564 -124.656 217.129 -123.449 216.68 C-112.287 212.472 -101.806 207.891 -92 201 C-91.244 205.536 -91.144 207.774 -93.828 211.617 C-98.684 217.036 -103.671 222.201 -110.375 225.25 C-111.084 225.585 -111.793 225.92 -112.523 226.266 C-115.736 227.218 -118.669 227.113 -122 227 C-121.948 228.541 -121.948 228.541 -121.895 230.113 C-121.692 238.61 -122.128 245.91 -125 254 C-125.438 255.262 -125.875 256.523 -126.312 257.785 C-127.509 261.202 -128.746 264.604 -130 268 C-124.809 271.035 -118.907 272.034 -113.018 270.875 C-106.365 267.99 -102.456 259.305 -98.692 253.472 C-96.192 249.819 -93.307 246.628 -90.25 243.438 C-89.748 242.909 -89.247 242.38 -88.73 241.835 C-86.844 239.866 -84.928 237.928 -83 236 C-83.711 231.993 -84.68 228.147 -85.773 224.23 C-88.737 213.272 -89.235 202.311 -89 191 C-89.862 191.424 -90.725 191.848 -91.613 192.285 C-92.845 192.88 -94.078 193.472 -95.312 194.062 C-96.299 194.535 -96.299 194.535 -97.306 195.017 C-101.186 196.829 -105.07 198.422 -109.121 199.812 C-109.973 200.106 -110.826 200.4 -111.704 200.703 C-113.376 201.267 -115.055 201.813 -116.74 202.338 C-121.696 204.007 -121.696 204.007 -124.922 208.07 C-125.456 209.521 -125.456 209.521 -126 211 C-129.223 214.726 -131.369 215.815 -136.312 216.375 C-141.225 215.875 -142.589 214.492 -146 211 C-147.239 207.284 -147.685 203.855 -147 200 C-144.557 196.963 -142.234 195.156 -139 193 C-134.007 192.538 -131 192.914 -127 196 C-126.34 196.99 -125.68 197.98 -125 199 C-112.622 197.253 -101.766 191.001 -91 185 C-90.766 182.864 -90.766 182.864 -92.574 181.406 C-93.62 180.463 -93.62 180.463 -94.688 179.5 C-102.952 171.441 -105.1 162.721 -105.312 151.438 C-105.341 137.863 -100.309 125.676 -92 115 C-92.53 114.786 -93.06 114.572 -93.605 114.352 C-96.92 112.481 -99.554 109.964 -102.312 107.375 C-102.893 106.831 -103.473 106.287 -104.071 105.726 C-117.437 93.078 -126.999 78.773 -128 60 C-128.66 60 -129.32 60 -130 60 C-130.253 60.581 -130.505 61.163 -130.766 61.762 C-135.48 70.31 -146.13 75.767 -155 79 C-158.93 79.188 -158.93 79.188 -162 79 C-162 78.34 -162 77.68 -162 77 C-162.62 77.303 -163.241 77.606 -163.88 77.918 C-166.688 79.285 -169.5 80.642 -172.312 82 C-173.289 82.477 -174.265 82.954 -175.271 83.445 C-176.209 83.896 -177.147 84.348 -178.113 84.812 C-179.409 85.441 -179.409 85.441 -180.732 86.082 C-183 87 -183 87 -186 87 C-185.67 90.3 -185.34 93.6 -185 97 C-183.68 96.34 -182.36 95.68 -181 95 C-175.417 94.218 -170.704 94.718 -166 98 C-160.571 104.687 -161.227 111.851 -162 120 C-163.777 130.855 -168.836 140.69 -174.961 149.711 C-176.254 152.561 -175.885 154.055 -175 157 C-170.433 156.543 -167.057 156.173 -163 154 C-161.68 154 -160.36 154 -159 154 C-160.204 157.747 -162.503 159.428 -165.93 161.234 C-169.63 162.603 -173.137 162.731 -177 162 C-179.562 160.375 -179.562 160.375 -181 158 C-182.006 151.748 -178.823 146.973 -176 141.625 C-175.523 140.698 -175.046 139.771 -174.555 138.816 C-173.38 136.538 -172.195 134.267 -171 132 C-173.293 132 -175.587 132.102 -177.875 132.25 C-180.988 132.233 -182.069 131.963 -184.938 130.438 C-187.564 127.334 -187.769 124.999 -188 121 C-184.229 122.69 -184.229 122.69 -182.75 124.688 C-180.846 126.412 -180.846 126.412 -177.125 125.75 C-175.747 125.519 -174.371 125.269 -173 125 C-172.01 124.814 -171.02 124.629 -170 124.438 C-169.34 124.293 -168.68 124.149 -168 124 C-167.247 119.762 -166.865 115.618 -166.75 111.312 C-166.724 110.401 -166.698 109.49 -166.672 108.551 C-167.071 105.446 -167.709 104.133 -170 102 C-172.53 101.44 -172.53 101.44 -175.312 101.625 C-176.237 101.638 -177.161 101.651 -178.113 101.664 C-181.284 102.033 -184.012 102.897 -187 104 C-187.098 104.802 -187.196 105.604 -187.297 106.43 C-188.332 114.303 -189.78 121.964 -191.591 129.693 C-195.401 146.07 -195.732 161.404 -189 177 C-188.542 178.07 -188.085 179.14 -187.613 180.242 C-183.365 189.39 -177.408 197.162 -170 204 C-169.526 204.468 -169.051 204.936 -168.562 205.418 C-159.818 213.595 -149.746 216.901 -138 218 C-138.33 218.99 -138.66 219.98 -139 221 C-150.739 221.937 -160 218.965 -169.176 211.559 C-169.778 211.044 -170.38 210.53 -171 210 C-171.674 209.434 -172.348 208.868 -173.043 208.285 C-174.709 206.872 -176.356 205.438 -178 204 C-178.147 205.775 -178.147 205.775 -178.297 207.586 C-179.744 223.569 -184.456 233.319 -193.827 246.236 C-196.276 249.919 -197.276 252.833 -197.625 257.25 C-197.7 258.142 -197.775 259.034 -197.852 259.953 C-197.901 260.629 -197.95 261.304 -198 262 C-198.66 262 -199.32 262 -200 262 C-201.655 257.034 -202.511 252.189 -200.177 247.262 C-197.727 242.989 -194.866 239.001 -192 235 C-184.739 224.569 -182.115 213.106 -183.479 200.484 C-184.747 194.434 -188.126 189.291 -191.422 184.148 C-195.712 177.454 -198.315 170.878 -199.688 163.062 C-200.404 158.387 -200.404 158.387 -202 154 C-202.301 149.694 -202.278 145.378 -202.312 141.062 C-202.342 139.876 -202.371 138.689 -202.4 137.467 C-202.473 127.333 -200.433 119.245 -194.812 110.75 C-190.972 104.085 -191.02 97.547 -191 90 C-194.465 90.495 -194.465 90.495 -198 91 C-195.503 88.146 -192.786 86.713 -189.406 85.039 C-188.293 84.485 -187.179 83.93 -186.031 83.359 C-184.866 82.787 -183.701 82.215 -182.5 81.625 C-181.366 81.06 -180.231 80.496 -179.062 79.914 C-175.717 78.257 -172.361 76.625 -169 75 C-167.958 74.484 -166.917 73.968 -165.844 73.437 C-164.874 72.97 -163.905 72.504 -162.906 72.023 C-162.054 71.608 -161.201 71.192 -160.322 70.763 C-157.731 69.912 -156.523 70.067 -154 71 C-154.66 71.99 -155.32 72.98 -156 74 C-146.89 69.599 -139.404 65.181 -132.172 58.004 C-130 56 -130 56 -127 55 C-125.093 52.455 -125.093 52.455 -123.312 49.438 C-122.379 47.92 -122.379 47.92 -121.426 46.371 C-120.72 45.197 -120.72 45.197 -120 44 C-120.66 44 -121.32 44 -122 44 C-122.206 44.722 -122.413 45.444 -122.625 46.188 C-124.452 49.926 -126.704 51.492 -130 54 C-128.515 48.06 -128.515 48.06 -127 42 C-127.66 42 -128.32 42 -129 42 C-129.186 42.825 -129.371 43.65 -129.562 44.5 C-133.027 52.935 -139.849 58.287 -148 62 C-152.1 63.489 -156.268 64.725 -160.461 65.922 C-163.226 66.764 -165.45 67.719 -168 69 C-168.99 69 -169.98 69 -171 69 C-170.67 67.68 -170.34 66.36 -170 65 C-170.33 65.33 -170.66 65.66 -171 66 C-176.327 70.971 -181.709 74.21 -188.25 77.375 C-189.147 77.825 -190.044 78.275 -190.969 78.738 C-197.591 82 -197.591 82 -201 82 C-201.66 80.68 -202.32 79.36 -203 78 C-203.33 81.3 -203.66 84.6 -204 88 C-204.99 87.67 -205.98 87.34 -207 87 C-210.038 77.885 -208.633 67.254 -204.562 58.754 C-202.014 54.262 -199.161 50.081 -196 46 C-195.361 45.161 -194.721 44.322 -194.062 43.457 C-184.627 32.216 -170.151 25.101 -156 22 C-150.878 21.568 -145.823 21.615 -140.688 21.75 C-139.35 21.77 -138.012 21.788 -136.674 21.805 C-133.448 21.851 -130.225 21.917 -127 22 C-127.474 20.563 -127.95 19.127 -128.426 17.691 C-128.69 16.892 -128.955 16.092 -129.228 15.268 C-130.066 12.807 -130.995 10.397 -132 8 C-129.75 8.062 -129.75 8.062 -127 9 C-123.467 13.774 -122.407 16.949 -123 23 C-123.33 23.66 -123.66 24.32 -124 25 C-123.313 25.102 -122.626 25.204 -121.918 25.309 C-106.003 29.08 -92.492 41.35 -83.866 54.764 C-78.469 63.697 -74.887 72.994 -72 83 C-71.631 84.16 -71.631 84.16 -71.254 85.344 C-69.833 90.438 -69.801 95.557 -69.75 100.812 C-69.741 101.555 -69.731 102.297 -69.721 103.062 C-69.744 106.854 -69.874 109.786 -72 113 C-72.33 111.68 -72.66 110.36 -73 109 C-85.806 114.591 -92.768 122.697 -98.105 135.691 C-101.646 146.845 -101.279 158.433 -96.629 169.164 C-94.248 173.309 -91.339 176.843 -87 179 C-84.859 178.974 -84.859 178.974 -83 178 C-82.34 177.01 -81.68 176.02 -81 175 C-80.34 175 -79.68 175 -79 175 C-79 174.34 -79 173.68 -79 173 C-79.866 172.66 -79.866 172.66 -80.75 172.312 C-85.764 169.388 -88.239 164.373 -90 159 C-91.504 146.931 -89.09 138.03 -83 127.562 C-77.866 120.985 -71.069 114.196 -62.438 113.125 C-61.303 113.084 -60.169 113.043 -59 113 C-57.589 85.286 -66.109 58.748 -84.348 37.699 C-90.561 31.376 -98.759 24.397 -107.867 23.707 C-109.203 23.727 -110.54 23.762 -111.875 23.812 C-112.908 23.833 -112.908 23.833 -113.961 23.854 C-115.641 23.889 -117.321 23.942 -119 24 C-119 19.475 -118.64 19.149 -115.688 16.062 C-113.038 13.193 -110.844 10.472 -109 7 C-108.34 7.33 -107.68 7.66 -107 8 C-107.449 12.673 -108.019 15.388 -111 19 C-110.392 19.014 -109.783 19.028 -109.156 19.043 C-94.925 19.817 -82.359 25.299 -70 32 C-69.72 31.022 -69.441 30.043 -69.152 29.035 C-65.19 15.823 -58.567 6.097 -46.562 -1.25 C-31.264 -8.765 -14.849 -8.286 0 0 Z"/>
<path transform="translate(172,391)" fill="#72767D" d="M0 0 C0.454 1.471 0.454 1.471 0.918 2.973 C1.341 4.336 1.764 5.699 2.188 7.062 C2.411 7.782 2.634 8.501 2.865 9.242 C4.403 14.166 6.022 19.056 7.688 23.938 C9.071 28.012 10.275 31.958 11.062 36.188 C12.074 40.302 12.753 41.434 16 44 C18.515 44.588 18.515 44.588 21.246 44.504 C22.248 44.523 23.251 44.541 24.283 44.561 C25.324 44.561 26.365 44.562 27.438 44.562 C39.917 44.617 39.917 44.617 44 48 C43.886 51.864 42.992 53.008 40.188 55.75 C37.891 57.598 35.536 59.336 33.148 61.066 C21.048 69.874 15.579 76.708 11 91 C8.156 98.51 4.765 105.788 1.375 113.062 C0.991 113.897 0.606 114.731 0.21 115.591 C-0.346 116.77 -0.346 116.77 -0.914 117.973 C-1.408 119.029 -1.408 119.029 -1.913 120.106 C-3.052 122.09 -4.315 123.464 -6 125 C-7.32 123.35 -8.64 121.7 -10 120 C-18.114 123.701 -24.361 131.202 -30.562 137.438 C-31.279 138.15 -31.995 138.862 -32.732 139.596 C-36.094 142.964 -39.362 146.364 -42.465 149.973 C-47.12 155.373 -52.247 160.293 -57.328 165.289 C-61.478 169.396 -65.433 173.578 -69.24 178.004 C-72.451 181.645 -75.879 185.069 -79.312 188.5 C-80.056 189.245 -80.799 189.989 -81.565 190.757 C-86.194 195.345 -90.856 199.598 -96.117 203.457 C-99.841 206.509 -101.34 209.252 -102 214 C-100.824 212.793 -100.824 212.793 -99.625 211.562 C-97 209 -97 209 -95 208 C-95.268 208.639 -95.536 209.279 -95.812 209.938 C-98.261 216.251 -100.281 222.246 -101 229 C-100.01 229 -99.02 229 -98 229 C-97.902 228.443 -97.804 227.886 -97.703 227.312 C-96.587 221.619 -94.778 217.092 -92 212 C-90.813 215.56 -90.903 218.438 -90.938 222.188 C-90.947 223.46 -90.956 224.732 -90.965 226.043 C-90.976 227.019 -90.988 227.995 -91 229 C-90.34 229 -89.68 229 -89 229 C-88.762 227.043 -88.762 227.043 -88.52 225.047 C-85.916 204.967 -79.824 192.559 -64.32 179.094 C-61.659 176.692 -59.417 174.105 -57.113 171.367 C-53.634 167.47 -49.882 163.841 -46.149 160.187 C-42.624 156.712 -39.363 153.15 -36.264 149.287 C-35.847 148.863 -35.43 148.438 -35 148 C-34.34 148 -33.68 148 -33 148 C-32.839 148.695 -32.678 149.39 -32.512 150.105 C-26.17 173.818 -11.111 197.09 10 210 C13.286 211.776 16.609 213.434 20 215 C13.498 224.89 6.148 234.164 -1.195 243.438 C-3.027 245.753 -4.833 248.085 -6.617 250.438 C-13.299 259.197 -20.58 267.248 -28.232 275.169 C-29.836 276.83 -31.427 278.502 -33.016 280.176 C-38.865 286.217 -44.905 291.465 -52 296 C-52.703 296.455 -53.405 296.91 -54.129 297.379 C-61.692 301.498 -71.766 301.448 -79.938 299.188 C-93.213 293.213 -99.441 281.209 -104.491 268.275 C-105.982 264.258 -106.936 260.296 -107.656 256.078 C-107.782 255.345 -107.908 254.612 -108.037 253.857 C-109.319 245.822 -109.545 237.872 -109.5 229.75 C-109.5 228.96 -109.499 228.169 -109.499 227.355 C-109.457 213.206 -108.284 199.239 -106.688 185.188 C-106.581 184.25 -106.474 183.312 -106.365 182.345 C-105.204 172.326 -103.837 162.37 -101.98 152.454 C-101.164 148.098 -100.584 143.794 -100.309 139.371 C-99.951 136.623 -99.23 134.015 -98.537 131.336 C-97.723 127.797 -97.232 124.222 -96.708 120.629 C-85.952 47.172 -85.952 47.172 -61.875 28.338 C-56.074 24.136 -50.113 20.82 -43.625 17.812 C-42.66 17.358 -41.695 16.904 -40.7 16.436 C-32.445 12.59 -24.11 8.926 -15.75 5.312 C-14.824 4.91 -14.824 4.91 -13.88 4.5 C-12.126 3.74 -10.368 2.989 -8.609 2.238 C-7.598 1.806 -6.587 1.373 -5.546 0.927 C-3 0 -3 0 0 0 Z"/>
<path transform="translate(931,168)" fill="#020202" d="M0 0 C10.465 6.544 18.316 16.686 22.062 28.5 C25.655 45.094 21.07 57.889 12.25 71.75 C2.504 81.496 -8.688 86.194 -22.268 86.26 C-27.513 86.193 -31.325 85.29 -36 83 C-35.67 83.66 -35.34 84.32 -35 85 C-34.022 97.581 -34.057 110.191 -39.812 121.625 C-41.031 125.089 -41.071 125.635 -40.188 128.938 C-36.701 142.04 -38.89 154.16 -45 166 C-49.981 174.496 -56.427 181.708 -65.734 185.492 C-70.307 186.517 -75.099 186.427 -79.77 186.496 C-81.369 186.746 -81.369 186.746 -83 187 C-85.044 189.935 -85.182 192.062 -84.758 195.547 C-84.613 196.813 -84.613 196.813 -84.465 198.105 C-84.353 198.978 -84.241 199.851 -84.125 200.75 C-84.021 201.638 -83.916 202.526 -83.809 203.441 C-83.55 205.629 -83.28 207.815 -83 210 C-85.152 206.772 -85.201 205.716 -85 202 C-86.32 201.67 -87.64 201.34 -89 201 C-89 197.7 -89 194.4 -89 191 C-90.294 191.636 -90.294 191.636 -91.613 192.285 C-92.845 192.88 -94.078 193.472 -95.312 194.062 C-95.97 194.378 -96.628 194.693 -97.306 195.017 C-101.186 196.829 -105.07 198.422 -109.121 199.812 C-109.973 200.106 -110.826 200.4 -111.704 200.703 C-113.376 201.267 -115.055 201.813 -116.74 202.338 C-121.696 204.007 -121.696 204.007 -124.922 208.07 C-125.278 209.037 -125.633 210.004 -126 211 C-129.223 214.726 -131.369 215.815 -136.312 216.375 C-141.225 215.875 -142.589 214.492 -146 211 C-147.239 207.284 -147.685 203.855 -147 200 C-144.557 196.963 -142.234 195.156 -139 193 C-134.007 192.538 -131 192.914 -127 196 C-126.34 196.99 -125.68 197.98 -125 199 C-112.622 197.253 -101.766 191.001 -91 185 C-90.766 182.864 -90.766 182.864 -92.574 181.406 C-93.272 180.777 -93.969 180.148 -94.688 179.5 C-102.952 171.441 -105.1 162.721 -105.312 151.438 C-105.341 137.863 -100.309 125.676 -92 115 C-92.53 114.786 -93.06 114.572 -93.605 114.352 C-96.92 112.481 -99.554 109.964 -102.312 107.375 C-103.183 106.559 -103.183 106.559 -104.071 105.726 C-117.437 93.078 -126.999 78.773 -128 60 C-128.66 60 -129.32 60 -130 60 C-130.253 60.581 -130.505 61.163 -130.766 61.762 C-135.48 70.31 -146.13 75.767 -155 79 C-158.93 79.188 -158.93 79.188 -162 79 C-162 78.34 -162 77.68 -162 77 C-162.931 77.454 -162.931 77.454 -163.88 77.918 C-166.688 79.285 -169.5 80.642 -172.312 82 C-173.289 82.477 -174.265 82.954 -175.271 83.445 C-176.209 83.896 -177.147 84.348 -178.113 84.812 C-179.409 85.441 -179.409 85.441 -180.732 86.082 C-183 87 -183 87 -186 87 C-185.67 90.3 -185.34 93.6 -185 97 C-183.02 96.01 -183.02 96.01 -181 95 C-175.417 94.218 -170.704 94.718 -166 98 C-160.571 104.687 -161.227 111.851 -162 120 C-163.777 130.855 -168.836 140.69 -174.961 149.711 C-176.254 152.561 -175.885 154.055 -175 157 C-170.433 156.543 -167.057 156.173 -163 154 C-161.68 154 -160.36 154 -159 154 C-160.204 157.747 -162.503 159.428 -165.93 161.234 C-169.63 162.603 -173.137 162.731 -177 162 C-179.562 160.375 -179.562 160.375 -181 158 C-182.006 151.748 -178.823 146.973 -176 141.625 C-175.523 140.698 -175.046 139.771 -174.555 138.816 C-173.38 136.538 -172.195 134.267 -171 132 C-173.293 132 -175.587 132.102 -177.875 132.25 C-180.988 132.233 -182.069 131.963 -184.938 130.438 C-187.564 127.334 -187.769 124.999 -188 121 C-184.229 122.69 -184.229 122.69 -182.75 124.688 C-180.846 126.412 -180.846 126.412 -177.125 125.75 C-175.747 125.519 -174.371 125.269 -173 125 C-172.01 124.814 -171.02 124.629 -170 124.438 C-169.01 124.221 -169.01 124.221 -168 124 C-167.247 119.762 -166.865 115.618 -166.75 111.312 C-166.711 109.945 -166.711 109.945 -166.672 108.551 C-167.071 105.446 -167.709 104.133 -170 102 C-172.53 101.44 -172.53 101.44 -175.312 101.625 C-176.237 101.638 -177.161 101.651 -178.113 101.664 C-181.284 102.033 -184.012 102.897 -187 104 C-187.098 104.802 -187.196 105.604 -187.297 106.43 C-188.332 114.303 -189.78 121.964 -191.591 129.693 C-195.401 146.07 -195.732 161.404 -189 177 C-188.542 178.07 -188.085 179.14 -187.613 180.242 C-183.365 189.39 -177.408 197.162 -170 204 C-169.288 204.702 -169.288 204.702 -168.562 205.418 C-159.818 213.595 -149.746 216.901 -138 218 C-138.33 218.99 -138.66 219.98 -139 221 C-150.739 221.937 -160 218.965 -169.176 211.559 C-169.778 211.044 -170.38 210.53 -171 210 C-171.674 209.434 -172.348 208.868 -173.043 208.285 C-174.709 206.872 -176.356 205.438 -178 204 C-178.098 205.183 -178.196 206.367 -178.297 207.586 C-179.744 223.569 -184.456 233.319 -193.827 246.236 C-196.276 249.919 -197.276 252.833 -197.625 257.25 C-197.7 258.142 -197.775 259.034 -197.852 259.953 C-197.925 260.966 -197.925 260.966 -198 262 C-198.66 262 -199.32 262 -200 262 C-201.655 257.034 -202.511 252.189 -200.177 247.262 C-197.727 242.989 -194.866 239.001 -192 235 C-184.739 224.569 -182.115 213.106 -183.479 200.484 C-184.747 194.434 -188.126 189.291 -191.422 184.148 C-195.712 177.454 -198.315 170.878 -199.688 163.062 C-200.404 158.387 -200.404 158.387 -202 154 C-202.301 149.694 -202.278 145.378 -202.312 141.062 C-202.342 139.876 -202.371 138.689 -202.4 137.467 C-202.473 127.333 -200.433 119.245 -194.812 110.75 C-190.972 104.085 -191.02 97.547 -191 90 C-194.465 90.495 -194.465 90.495 -198 91 C-195.503 88.146 -192.786 86.713 -189.406 85.039 C-188.293 84.485 -187.179 83.93 -186.031 83.359 C-184.866 82.787 -183.701 82.215 -182.5 81.625 C-181.366 81.06 -180.231 80.496 -179.062 79.914 C-175.717 78.257 -172.361 76.625 -169 75 C-167.958 74.484 -166.917 73.968 -165.844 73.437 C-164.874 72.97 -163.905 72.504 -162.906 72.023 C-162.054 71.608 -161.201 71.192 -160.322 70.763 C-157.731 69.912 -156.523 70.067 -154 71 C-154.66 71.99 -155.32 72.98 -156 74 C-146.89 69.599 -139.404 65.181 -132.172 58.004 C-130 56 -130 56 -127 55 C-125.093 52.455 -125.093 52.455 -123.312 49.438 C-122.379 47.92 -122.379 47.92 -121.426 46.371 C-120.955 45.589 -120.485 44.806 -120 44 C-120.66 44 -121.32 44 -122 44 C-122.309 45.083 -122.309 45.083 -122.625 46.188 C-124.452 49.926 -126.704 51.492 -130 54 C-129.01 50.04 -128.02 46.08 -127 42 C-127.66 42 -128.32 42 -129 42 C-129.278 43.238 -129.278 43.238 -129.562 44.5 C-133.027 52.935 -139.849 58.287 -148 62 C-152.1 63.489 -156.268 64.725 -160.461 65.922 C-163.226 66.764 -165.45 67.719 -168 69 C-168.99 69 -169.98 69 -171 69 C-170.505 67.02 -170.505 67.02 -170 65 C-170.33 65.33 -170.66 65.66 -171 66 C-176.327 70.971 -181.709 74.21 -188.25 77.375 C-189.147 77.825 -190.044 78.275 -190.969 78.738 C-197.591 82 -197.591 82 -201 82 C-201.66 80.68 -202.32 79.36 -203 78 C-203.33 81.3 -203.66 84.6 -204 88 C-204.99 87.67 -205.98 87.34 -207 87 C-210.038 77.885 -208.633 67.254 -204.562 58.754 C-202.014 54.262 -199.161 50.081 -196 46 C-195.361 45.161 -194.721 44.322 -194.062 43.457 C-184.627 32.216 -170.151 25.101 -156 22 C-150.878 21.568 -145.823 21.615 -140.688 21.75 C-139.35 21.77 -138.012 21.788 -136.674 21.805 C-133.448 21.851 -130.225 21.917 -127 22 C-127.474 20.563 -127.95 19.127 -128.426 17.691 C-128.823 16.492 -128.823 16.492 -129.228 15.268 C-130.066 12.807 -130.995 10.397 -132 8 C-129.75 8.062 -129.75 8.062 -127 9 C-123.467 13.774 -122.407 16.949 -123 23 C-123.33 23.66 -123.66 24.32 -124 25 C-123.313 25.102 -122.626 25.204 -121.918 25.309 C-106.003 29.08 -92.492 41.35 -83.866 54.764 C-78.469 63.697 -74.887 72.994 -72 83 C-71.631 84.16 -71.631 84.16 -71.254 85.344 C-69.833 90.438 -69.801 95.557 -69.75 100.812 C-69.736 101.926 -69.736 101.926 -69.721 103.062 C-69.744 106.854 -69.874 109.786 -72 113 C-72.33 111.68 -72.66 110.36 -73 109 C-85.806 114.591 -92.768 122.697 -98.105 135.691 C-101.646 146.845 -101.279 158.433 -96.629 169.164 C-94.248 173.309 -91.339 176.843 -87 179 C-84.859 178.974 -84.859 178.974 -83 178 C-82.34 177.01 -81.68 176.02 -81 175 C-80.34 175 -79.68 175 -79 175 C-79 174.34 -79 173.68 -79 173 C-79.577 172.773 -80.155 172.546 -80.75 172.312 C-85.764 169.388 -88.239 164.373 -90 159 C-91.504 146.931 -89.09 138.03 -83 127.562 C-77.866 120.985 -71.069 114.196 -62.438 113.125 C-61.303 113.084 -60.169 113.043 -59 113 C-57.589 85.286 -66.109 58.748 -84.348 37.699 C-90.561 31.376 -98.759 24.397 -107.867 23.707 C-109.203 23.727 -110.54 23.762 -111.875 23.812 C-112.908 23.833 -112.908 23.833 -113.961 23.854 C-115.641 23.889 -117.321 23.942 -119 24 C-119 19.475 -118.64 19.149 -115.688 16.062 C-113.038 13.193 -110.844 10.472 -109 7 C-108.01 7.495 -108.01 7.495 -107 8 C-107.449 12.673 -108.019 15.388 -111 19 C-110.392 19.014 -109.783 19.028 -109.156 19.043 C-94.925 19.817 -82.359 25.299 -70 32 C-69.72 31.022 -69.441 30.043 -69.152 29.035 C-65.19 15.823 -58.567 6.097 -46.562 -1.25 C-31.264 -8.765 -14.849 -8.286 0 0 Z"/>
<path transform="translate(288,226)" fill="#FEFEFE" d="M0 0 C0.66 0 1.32 0 2 0 C2.413 0.887 2.825 1.774 3.25 2.688 C4.828 5.948 4.828 5.948 6.855 8.238 C9.376 11.484 11.19 14.856 13.062 18.5 C13.74 19.803 14.418 21.105 15.098 22.406 C15.418 23.025 15.739 23.643 16.069 24.28 C16.883 25.783 17.788 27.235 18.707 28.676 C20.094 31.169 20.443 32.863 20.625 35.688 C20.837 38.968 20.837 38.968 22 42 C23.881 51.562 24.345 60.993 24.316 70.704 C24.313 72.867 24.336 75.028 24.361 77.191 C24.422 90.158 22.872 102.925 17.875 115 C17.579 115.737 17.282 116.474 16.977 117.234 C10.46 132.922 3.115 145.559 -12 154 C-12.636 154.365 -13.271 154.73 -13.926 155.105 C-20.849 158.375 -30.612 158.59 -37.936 156.429 C-46.271 153.214 -53.416 147.936 -60 142 C-60.661 141.432 -61.323 140.863 -62.004 140.277 C-72.364 130.754 -79.763 117.922 -85 105 C-85.303 104.322 -85.606 103.644 -85.918 102.945 C-88.314 97.277 -89.238 91.217 -90.352 85.195 C-90.831 82.121 -90.831 82.121 -92 80 C-93.4 72.073 -94.128 63.999 -95 56 C-95.11 55.028 -95.219 54.056 -95.333 53.054 C-97.111 36.388 -97.111 36.388 -93.125 30.375 C-92.114 29.223 -91.078 28.09 -90 27 C-88.176 23.351 -88.627 18.812 -88.482 14.766 C-88.214 9.214 -88.214 9.214 -86 7 C-81.929 7.573 -78.054 9.478 -74.242 10.965 C-65.866 13.639 -57.824 14.34 -49.062 14.312 C-48.055 14.329 -47.048 14.345 -46.01 14.361 C-33.996 14.369 -23.879 10.367 -12.875 5.875 C-11.741 5.42 -10.606 4.965 -9.438 4.496 C-4.377 2.814 -4.377 2.814 0 0 Z"/>
<path transform="translate(801,228)" fill="#FEFEFE" d="M0 0 C0.66 0 1.32 0 2 0 C2.159 0.799 2.317 1.598 2.48 2.422 C7.316 25.185 19.299 41.358 38 55 C36.737 57.552 35.438 60.083 34.125 62.609 C33.416 63.989 32.708 65.37 32 66.75 C31.644 67.428 31.288 68.106 30.922 68.805 C27.201 76.109 25.634 82.815 25.75 91 C25.757 91.701 25.765 92.403 25.773 93.125 C25.97 102.61 28.257 111.213 35.105 118.125 C37.029 119.814 38.974 121.437 41 123 C37.219 127.189 33.504 129.631 28.438 132.062 C27.737 132.405 27.036 132.747 26.313 133.099 C11.217 140.316 11.217 140.316 5.734 139.777 C5.162 139.521 4.59 139.264 4 139 C3.67 138.01 3.34 137.02 3 136 C-0.97 133.781 -4.518 133.6 -9 134 C-12.539 135.651 -13.811 136.716 -16 140 C-16.431 145.35 -16.457 148.647 -13 153 C-9.812 155.125 -7.735 155.502 -4 156 C-8.67 158.643 -12.742 158.692 -18 158 C-26.215 155.607 -32.567 151.519 -39 146 C-39.808 145.39 -40.616 144.781 -41.449 144.152 C-53.608 133.893 -63.525 115.649 -65.223 99.936 C-66.259 85.302 -63.539 70.798 -59.906 56.668 C-59.181 53.732 -58.656 51 -58.375 48 C-58.3 47.237 -58.225 46.474 -58.148 45.688 C-58.075 44.852 -58.075 44.852 -58 44 C-52.107 40.857 -46.654 39.937 -40 41 C-37.312 42.812 -37.312 42.812 -36 46 C-35.569 49.726 -35.669 53.269 -36 57 C-36.059 57.714 -36.119 58.428 -36.18 59.164 C-36.5 61 -36.5 61 -38 64 C-41.301 66.069 -44.802 66.737 -48.562 67.562 C-52.549 66.643 -55.115 63.793 -58 61 C-56.942 65.819 -56.942 65.819 -54.375 69.938 C-49.879 71.949 -44.636 71.545 -40 70 C-41.713 75.769 -44.395 80.816 -47.254 86.078 C-49.385 90.168 -50.756 93.271 -50 98 C-48.51 100.219 -47.613 100.855 -45.02 101.469 C-38.863 101.556 -34.732 99.984 -30 96 C-29.67 95.34 -29.34 94.68 -29 94 C-29.736 94.289 -30.472 94.577 -31.23 94.875 C-32.206 95.246 -33.182 95.618 -34.188 96 C-35.15 96.371 -36.113 96.743 -37.105 97.125 C-39.962 97.989 -42.042 98.327 -45 98 C-45.66 97.34 -46.32 96.68 -47 96 C-46.667 92.163 -45.338 89.618 -43.25 86.438 C-36.451 75.454 -32.924 64.671 -32.625 51.812 C-32.586 50.796 -32.586 50.796 -32.546 49.759 C-32.529 44.705 -33.84 41.884 -37 38 C-41.177 35.375 -46.201 35.441 -51 36 C-52.65 36.66 -54.3 37.32 -56 38 C-56 34.37 -56 30.74 -56 27 C-54.372 26.294 -54.372 26.294 -52.711 25.574 C-51.266 24.945 -49.82 24.316 -48.375 23.688 C-47.662 23.379 -46.949 23.07 -46.215 22.752 C-42.959 21.333 -39.768 19.882 -36.602 18.27 C-34 17 -34 17 -32 17 C-32 17.66 -32 18.32 -32 19 C-19.888 17.152 -9.389 10.857 -1 2 C-0.67 1.34 -0.34 0.68 0 0 Z"/>
<path transform="translate(799,176)" fill="#020202" d="M0 0 C2.25 0.062 2.25 0.062 5 1 C8.533 5.774 9.593 8.949 9 15 C8.67 15.66 8.34 16.32 8 17 C8.687 17.102 9.374 17.204 10.082 17.309 C25.997 21.08 39.508 33.35 48.134 46.764 C53.531 55.697 57.113 64.994 60 75 C60.369 76.16 60.369 76.16 60.746 77.344 C62.167 82.438 62.199 87.557 62.25 92.812 C62.264 93.926 62.264 93.926 62.279 95.062 C62.256 98.854 62.126 101.786 60 105 C59.67 103.68 59.34 102.36 59 101 C46.269 106.559 39.596 114.548 33.988 127.301 C33 129 33 129 30 130 C30.97 122.143 33.593 116.526 38 110 C38.99 108.515 38.99 108.515 40 107 C39.47 106.786 38.94 106.572 38.395 106.352 C35.08 104.481 32.446 101.964 29.688 99.375 C28.817 98.559 28.817 98.559 27.929 97.726 C14.563 85.078 5.001 70.773 4 52 C3.34 52 2.68 52 2 52 C1.621 52.872 1.621 52.872 1.234 53.762 C-3.48 62.31 -14.13 67.767 -23 71 C-26.93 71.188 -26.93 71.188 -30 71 C-30 70.34 -30 69.68 -30 69 C-30.931 69.454 -30.931 69.454 -31.88 69.918 C-34.688 71.285 -37.5 72.642 -40.312 74 C-41.289 74.477 -42.265 74.954 -43.271 75.445 C-44.209 75.896 -45.147 76.348 -46.113 76.812 C-47.409 77.441 -47.409 77.441 -48.732 78.082 C-51 79 -51 79 -54 79 C-53.67 82.3 -53.34 85.6 -53 89 C-51.02 88.01 -51.02 88.01 -49 87 C-43.417 86.218 -38.704 86.718 -34 90 C-28.571 96.687 -29.227 103.851 -30 112 C-31.777 122.855 -36.836 132.69 -42.961 141.711 C-44.254 144.561 -43.885 146.055 -43 149 C-38.433 148.543 -35.057 148.173 -31 146 C-29.68 146 -28.36 146 -27 146 C-28.204 149.747 -30.503 151.428 -33.93 153.234 C-37.63 154.603 -41.137 154.731 -45 154 C-47.562 152.375 -47.562 152.375 -49 150 C-50.006 143.748 -46.823 138.973 -44 133.625 C-43.523 132.698 -43.046 131.771 -42.555 130.816 C-41.38 128.538 -40.195 126.267 -39 124 C-41.293 124 -43.587 124.102 -45.875 124.25 C-48.988 124.233 -50.069 123.963 -52.938 122.438 C-55.564 119.334 -55.769 116.999 -56 113 C-52.229 114.69 -52.229 114.69 -50.75 116.688 C-48.846 118.412 -48.846 118.412 -45.125 117.75 C-43.747 117.519 -42.371 117.269 -41 117 C-39.515 116.722 -39.515 116.722 -38 116.438 C-37.01 116.221 -37.01 116.221 -36 116 C-35.247 111.762 -34.865 107.618 -34.75 103.312 C-34.711 101.945 -34.711 101.945 -34.672 100.551 C-35.071 97.446 -35.709 96.133 -38 94 C-40.53 93.44 -40.53 93.44 -43.312 93.625 C-44.237 93.638 -45.161 93.651 -46.113 93.664 C-49.284 94.033 -52.012 94.897 -55 96 C-55.098 96.802 -55.196 97.604 -55.297 98.43 C-56.332 106.303 -57.78 113.964 -59.591 121.693 C-63.401 138.07 -63.732 153.404 -57 169 C-56.542 170.07 -56.085 171.14 -55.613 172.242 C-51.365 181.39 -45.408 189.162 -38 196 C-37.288 196.702 -37.288 196.702 -36.562 197.418 C-27.818 205.595 -17.746 208.901 -6 210 C-6.33 210.99 -6.66 211.98 -7 213 C-18.739 213.937 -28 210.965 -37.176 203.559 C-37.778 203.044 -38.38 202.53 -39 202 C-39.674 201.434 -40.348 200.868 -41.043 200.285 C-42.709 198.872 -44.356 197.438 -46 196 C-46.098 197.183 -46.196 198.367 -46.297 199.586 C-47.744 215.569 -52.456 225.319 -61.827 238.236 C-64.276 241.919 -65.276 244.833 -65.625 249.25 C-65.7 250.142 -65.775 251.034 -65.852 251.953 C-65.925 252.966 -65.925 252.966 -66 254 C-66.66 254 -67.32 254 -68 254 C-69.655 249.034 -70.511 244.189 -68.177 239.262 C-65.727 234.989 -62.866 231.001 -60 227 C-52.739 216.569 -50.115 205.106 -51.479 192.484 C-52.747 186.434 -56.126 181.291 -59.422 176.148 C-63.712 169.454 -66.315 162.878 -67.688 155.062 C-68.404 150.387 -68.404 150.387 -70 146 C-70.301 141.694 -70.278 137.378 -70.312 133.062 C-70.342 131.876 -70.371 130.689 -70.4 129.467 C-70.473 119.333 -68.433 111.245 -62.812 102.75 C-58.972 96.085 -59.02 89.547 -59 82 C-62.465 82.495 -62.465 82.495 -66 83 C-63.503 80.146 -60.786 78.713 -57.406 77.039 C-56.293 76.485 -55.179 75.93 -54.031 75.359 C-52.866 74.787 -51.701 74.215 -50.5 73.625 C-49.366 73.06 -48.231 72.496 -47.062 71.914 C-43.717 70.257 -40.361 68.625 -37 67 C-35.958 66.484 -34.917 65.968 -33.844 65.437 C-32.874 64.97 -31.905 64.504 -30.906 64.023 C-30.054 63.608 -29.201 63.192 -28.322 62.763 C-25.731 61.912 -24.523 62.067 -22 63 C-22.66 63.99 -23.32 64.98 -24 66 C-14.89 61.599 -7.404 57.181 -0.172 50.004 C2 48 2 48 5 47 C6.907 44.455 6.907 44.455 8.688 41.438 C9.621 39.92 9.621 39.92 10.574 38.371 C11.045 37.589 11.515 36.806 12 36 C11.34 36 10.68 36 10 36 C9.691 37.083 9.691 37.083 9.375 38.188 C7.548 41.926 5.296 43.492 2 46 C2.99 42.04 3.98 38.08 5 34 C4.34 34 3.68 34 3 34 C2.722 35.238 2.722 35.238 2.438 36.5 C-1.027 44.935 -7.849 50.287 -16 54 C-20.1 55.489 -24.268 56.725 -28.461 57.922 C-31.226 58.764 -33.45 59.719 -36 61 C-36.99 61 -37.98 61 -39 61 C-38.67 59.68 -38.34 58.36 -38 57 C-38.33 57.33 -38.66 57.66 -39 58 C-44.327 62.971 -49.709 66.21 -56.25 69.375 C-57.147 69.825 -58.044 70.275 -58.969 70.738 C-65.591 74 -65.591 74 -69 74 C-69.66 72.68 -70.32 71.36 -71 70 C-71.33 73.3 -71.66 76.6 -72 80 C-72.99 79.67 -73.98 79.34 -75 79 C-78.038 69.885 -76.633 59.254 -72.562 50.754 C-70.014 46.262 -67.161 42.081 -64 38 C-63.361 37.161 -62.721 36.322 -62.062 35.457 C-52.627 24.216 -38.151 17.101 -24 14 C-18.878 13.568 -13.823 13.615 -8.688 13.75 C-7.35 13.77 -6.012 13.788 -4.674 13.805 C-1.448 13.851 1.775 13.917 5 14 C4.526 12.563 4.05 11.127 3.574 9.691 C3.31 8.892 3.045 8.092 2.772 7.268 C1.934 4.807 1.005 2.397 0 0 Z"/>
<path transform="translate(392,458)" fill="#0F0F10" d="M0 0 C0.99 0 1.98 0 3 0 C3.862 12.284 -0.904 24.096 -4.852 35.562 C-10.158 51.446 -7.805 66.873 -5.5 83.125 C-5.139 85.72 -4.782 88.316 -4.43 90.912 C-4.213 92.508 -3.991 94.103 -3.762 95.697 C-3.144 100.18 -2.896 104.474 -3 109 C-1.928 108.484 -0.855 107.969 0.25 107.438 C2.715 106.368 3.721 105.964 6.438 106.312 C6.953 106.539 7.469 106.766 8 107 C7.34 107.33 6.68 107.66 6 108 C6 108.66 6 109.32 6 110 C6.99 110.33 7.98 110.66 9 111 C7.989 111.041 6.979 111.082 5.938 111.125 C0.96 111.918 -1.866 114.123 -5 118 C-5.996 119.979 -6.906 122.002 -7.758 124.047 C-8.012 124.655 -8.265 125.263 -8.527 125.889 C-11.965 134.21 -15.13 142.641 -18.312 151.062 C-19.01 152.901 -19.708 154.74 -20.406 156.579 C-22.608 162.384 -24.804 168.192 -27 174 C-27.725 175.916 -28.45 177.832 -29.174 179.748 C-34.746 194.479 -40.308 209.214 -45.867 223.95 C-54.515 246.873 -63.229 269.77 -72.077 292.616 C-72.695 294.213 -73.313 295.81 -73.931 297.407 C-75.728 302.054 -77.531 306.698 -79.344 311.339 C-79.898 312.759 -80.451 314.18 -81.001 315.602 C-86.159 328.913 -86.159 328.913 -90 335 C-90.66 335 -91.32 335 -92 335 C-92.567 327.623 -90.546 321.872 -88 315 C-87.428 313.409 -87.428 313.409 -86.844 311.785 C-85.907 309.186 -84.959 306.591 -84 304 C-85.074 303.805 -85.074 303.805 -86.171 303.605 C-88.959 303.009 -91.569 302.222 -94.271 301.313 C-95.3 300.969 -96.329 300.625 -97.389 300.271 C-98.494 299.898 -99.6 299.525 -100.738 299.141 C-101.892 298.754 -103.045 298.368 -104.234 297.97 C-107.928 296.733 -111.62 295.492 -115.312 294.25 C-120.141 292.628 -124.971 291.008 -129.801 289.391 C-131.54 288.808 -131.54 288.808 -133.314 288.213 C-140.84 285.699 -148.386 283.271 -155.979 280.964 C-158.733 280.085 -161.39 279.099 -164.062 278 C-168.161 276.323 -172.275 274.699 -176.438 273.188 C-178.199 272.528 -178.199 272.528 -179.996 271.855 C-188.181 269.577 -197.723 272.368 -205.848 274.031 C-206.826 274.227 -207.805 274.423 -208.813 274.625 C-210.858 275.036 -212.902 275.449 -214.946 275.866 C-218.084 276.504 -221.225 277.134 -224.365 277.762 C-226.359 278.164 -228.354 278.566 -230.348 278.969 C-231.757 279.252 -231.757 279.252 -233.195 279.54 C-234.06 279.717 -234.925 279.894 -235.817 280.076 C-236.578 280.231 -237.34 280.385 -238.125 280.545 C-240.075 280.944 -240.075 280.944 -242 282 C-244.791 282.467 -247.579 282.898 -250.379 283.309 C-260.645 284.872 -270.78 286.918 -280.938 289.062 C-310.651 295.307 -310.651 295.307 -319.75 295.125 C-320.941 295.107 -322.132 295.089 -323.359 295.07 C-324.666 295.036 -324.666 295.036 -326 295 C-326 294.01 -326 293.02 -326 292 C-323.938 291.662 -321.876 291.33 -319.812 291 C-318.664 290.814 -317.515 290.629 -316.332 290.438 C-313.496 290.065 -310.853 289.914 -308 290 C-307.89 288.814 -307.781 287.628 -307.668 286.406 C-306.772 277.119 -305.555 268.04 -303.73 258.891 C-302.555 252.628 -301.772 246.324 -301 240 C-299.35 239.67 -297.7 239.34 -296 239 C-295.866 245.374 -296.316 251.339 -297.312 257.629 C-297.446 258.504 -297.579 259.379 -297.716 260.281 C-298.138 263.042 -298.569 265.802 -299 268.562 C-299.29 270.448 -299.579 272.335 -299.867 274.221 C-300.571 278.815 -301.283 283.408 -302 288 C-300.38 287.684 -300.38 287.684 -298.728 287.361 C-294.569 286.548 -290.41 285.736 -286.25 284.924 C-284.373 284.558 -282.496 284.191 -280.619 283.824 C-271.202 281.984 -261.784 280.144 -252.359 278.344 C-236.405 275.292 -220.513 272.044 -204.646 268.569 C-202.102 268.022 -199.553 267.504 -197 267 C-196.67 265.02 -196.34 263.04 -196 261 C-195.67 261 -195.34 261 -195 261 C-195 262.65 -195 264.3 -195 266 C-194.01 266 -193.02 266 -192 266 C-191.67 265.34 -191.34 264.68 -191 264 C-191 264.66 -191 265.32 -191 266 C-190.203 265.74 -189.406 265.479 -188.585 265.211 C-181.046 262.81 -173.599 260.941 -165.812 259.562 C-164.112 259.256 -164.112 259.256 -162.378 258.942 C-152.712 257.233 -143.019 255.71 -133.312 254.25 C-132.614 254.143 -131.916 254.036 -131.197 253.926 C-121.143 252.398 -111.157 251.485 -101 251 C-100.877 250.212 -100.755 249.424 -100.629 248.612 C-99.755 243.071 -98.772 237.554 -97.625 232.062 C-97.304 230.502 -97.304 230.502 -96.977 228.91 C-95.664 225 -93.762 221.881 -90 220 C-88 220 -86 220 -84 220 C-77.035 219.561 -73.9 217.122 -69.219 212.129 C-65.47 208.532 -61.755 207.78 -56.688 207.375 C-55.141 207.251 -53.594 207.128 -52 207 C-52 202.05 -52 197.1 -52 192 C-51.67 192 -51.34 192 -51 192 C-51 196.95 -51 201.9 -51 207 C-49.35 207 -47.7 207 -46 207 C-45.599 205.783 -45.198 204.566 -44.785 203.312 C-38.516 184.525 -31.582 166.019 -24.093 147.685 C-23.026 145.064 -21.976 142.438 -20.93 139.809 C-19.173 135.411 -17.37 131.038 -15.5 126.688 C-15.218 126.011 -14.935 125.335 -14.645 124.639 C-12.882 120.552 -10.829 117.472 -8 114 C-7.509 109.905 -8.109 106.274 -8.891 102.27 C-10.134 95.528 -11.024 88.752 -11.86 81.95 C-12.123 79.832 -12.399 77.716 -12.676 75.6 C-14.274 62.956 -15.932 49.789 -11.312 37.625 C-10.759 36.027 -10.208 34.428 -9.66 32.828 C-9.382 32.033 -9.104 31.239 -8.817 30.42 C-7.476 26.447 -6.358 22.418 -5.25 18.375 C-4.953 17.311 -4.953 17.311 -4.65 16.225 C-3.423 11.77 -2.386 7.299 -1.456 2.772 C-1 1 -1 1 0 0 Z"/>
<path transform="translate(235,431)" fill="#FEFEFE" d="M0 0 C2.246 0.262 2.246 0.262 4 1 C4.638 7.697 3.923 11.313 -0.09 16.73 C-5.031 22.602 -10.26 28.219 -17 32 C-17.66 32 -18.32 32 -19 32 C-19 33.32 -19 34.64 -19 36 C-18.105 35.662 -17.211 35.325 -16.289 34.977 C-14.475 34.308 -14.475 34.308 -12.625 33.625 C-11.442 33.184 -10.258 32.743 -9.039 32.289 C0.47 29.102 9.639 28.662 19.625 28.688 C20.896 28.671 22.167 28.655 23.477 28.639 C30.371 28.635 35.748 29.016 42 32 C42 32.99 42 33.98 42 35 C35.99 38.306 30.439 40.04 23.75 41.438 C15.682 43.229 8.502 45.504 1 49 C-0.485 49.495 -0.485 49.495 -2 50 C-2 51.32 -2 52.64 -2 54 C-1.098 53.567 -0.195 53.134 0.734 52.688 C14.03 46.903 28.664 46.251 43 48 C44.485 48.99 44.485 48.99 46 50 C45.091 53.133 44.56 54.651 41.742 56.406 C40.796 56.767 39.85 57.128 38.875 57.5 C37.803 57.914 36.73 58.328 35.625 58.754 C32.414 59.858 29.197 60.86 25.942 61.824 C13.71 65.071 13.71 65.071 4.742 73.184 C4.375 74.083 4.375 74.083 4 75 C4.822 74.674 5.645 74.348 6.492 74.012 C9.984 72.645 13.488 71.315 17 70 C18.286 69.505 18.286 69.505 19.598 69 C26.684 66.539 33.563 66.711 41 67 C36.491 75.157 28.949 79.138 21 83.5 C9.179 90.015 1.242 97.397 -6.734 108.391 C-10.722 113.821 -15.175 117.762 -20.469 121.922 C-24.005 124.825 -26.935 127.87 -29 132 C-37.284 128.258 -43.146 120.904 -48.672 113.93 C-50.698 111.38 -52.777 108.887 -54.888 106.407 C-65.002 94.485 -65.002 94.485 -67 90 C-66.529 86.703 -65.277 84.833 -63.18 82.297 C-59.996 78.185 -58.025 74.065 -56.125 69.25 C-55.792 68.439 -55.459 67.629 -55.115 66.794 C-53.328 62.42 -51.622 58.019 -49.957 53.598 C-49.618 52.714 -49.28 51.83 -48.931 50.919 C-48.289 49.235 -47.662 47.546 -47.053 45.851 C-43.611 36.825 -37.406 30.921 -29.875 25.125 C-29.229 24.617 -28.583 24.108 -27.917 23.585 C-24.788 21.13 -21.631 18.715 -18.453 16.324 C-12.419 11.772 -6.935 7.19 -1.902 1.52 C-1.275 1.018 -0.647 0.517 0 0 Z"/>
<path transform="translate(504,173)" fill="#1E1D1F" d="M0 0 C0.99 0 1.98 0 3 0 C4.154 2.308 4.126 3.607 4.126 6.176 C4.129 7.058 4.132 7.94 4.135 8.849 C4.132 10.316 4.132 10.316 4.129 11.811 C4.13 12.848 4.132 13.884 4.134 14.952 C4.139 18.465 4.136 21.979 4.134 25.492 C4.136 28.02 4.138 30.548 4.141 33.076 C4.145 38.594 4.147 44.112 4.146 49.629 C4.145 57.834 4.149 66.038 4.154 74.243 C4.164 89.747 4.166 105.25 4.167 120.754 C4.168 132.723 4.17 144.692 4.173 156.661 C4.174 160.101 4.175 163.542 4.175 166.983 C4.176 167.839 4.176 168.694 4.176 169.575 C4.182 193.645 4.186 217.715 4.186 241.785 C4.186 242.693 4.186 243.601 4.186 244.536 C4.186 249.139 4.186 253.742 4.185 258.345 C4.185 259.717 4.185 259.717 4.185 261.116 C4.185 262.964 4.185 264.813 4.185 266.662 C4.185 295.435 4.192 324.208 4.206 352.982 C4.221 385.282 4.23 417.582 4.229 449.882 C4.229 453.323 4.229 456.764 4.229 460.206 C4.229 461.053 4.229 461.9 4.229 462.773 C4.229 476.436 4.235 490.098 4.244 503.76 C4.252 517.48 4.253 531.2 4.247 544.921 C4.243 553.081 4.245 561.241 4.254 569.401 C4.261 575.48 4.257 581.56 4.25 587.639 C4.248 590.109 4.25 592.579 4.255 595.048 C4.262 598.387 4.257 601.725 4.249 605.063 C4.254 606.038 4.259 607.013 4.264 608.018 C4.259 608.902 4.254 609.787 4.25 610.699 C4.25 611.463 4.25 612.227 4.25 613.014 C4 615 4 615 2 618 C1.01 618 0.02 618 -1 618 C-1.927 615.218 -2.125 613.569 -2.126 610.699 C-2.129 609.814 -2.132 608.929 -2.135 608.018 C-2.133 607.043 -2.131 606.068 -2.129 605.063 C-2.13 604.025 -2.132 602.987 -2.134 601.918 C-2.139 598.406 -2.136 594.893 -2.134 591.381 C-2.136 588.851 -2.138 586.322 -2.141 583.792 C-2.145 578.274 -2.147 572.756 -2.146 567.238 C-2.145 559.033 -2.149 550.828 -2.154 542.623 C-2.164 527.119 -2.166 511.615 -2.167 496.111 C-2.168 484.142 -2.17 472.174 -2.173 460.206 C-2.174 456.764 -2.175 453.323 -2.175 449.882 C-2.176 449.026 -2.176 448.171 -2.176 447.29 C-2.182 423.22 -2.186 399.151 -2.186 375.081 C-2.186 374.173 -2.186 373.266 -2.186 372.33 C-2.186 367.728 -2.186 363.126 -2.185 358.524 C-2.185 357.609 -2.185 356.695 -2.185 355.754 C-2.185 353.905 -2.185 352.057 -2.185 350.208 C-2.185 321.435 -2.192 292.661 -2.206 263.888 C-2.221 231.586 -2.23 199.285 -2.229 166.983 C-2.229 163.542 -2.229 160.101 -2.229 156.661 C-2.229 155.39 -2.229 155.39 -2.229 154.093 C-2.229 140.43 -2.235 126.766 -2.244 113.103 C-2.252 99.384 -2.253 85.665 -2.247 71.946 C-2.243 63.786 -2.245 55.626 -2.254 47.466 C-2.261 41.388 -2.257 35.31 -2.25 29.232 C-2.248 26.762 -2.25 24.291 -2.255 21.821 C-2.262 18.484 -2.257 15.148 -2.249 11.811 C-2.254 10.834 -2.259 9.856 -2.264 8.849 C-2.259 7.967 -2.254 7.085 -2.25 6.176 C-2.25 5.412 -2.25 4.648 -2.25 3.861 C-2 2 -2 2 0 0 Z"/>
<path transform="translate(796,429)" fill="#FEFEFE" d="M0 0 C0.99 0.99 0.99 0.99 2 2 C1.34 2.66 0.68 3.32 0 4 C-0.058 6.467 -0.058 6.467 1 9 C5.339 13.11 8.855 14.082 14.688 14.562 C15.681 14.646 16.675 14.73 17.699 14.816 C18.458 14.877 19.218 14.938 20 15 C18.417 19.428 16.114 23.31 13.688 27.312 C-21.909 87.031 -47.756 151.818 -58.583 220.628 C-58.962 222.787 -59.438 224.883 -60 227 C-63.465 227.99 -63.465 227.99 -67 229 C-66.112 187.979 -57.023 146.253 -44.375 107.312 C-42.778 102.373 -41.396 97.386 -40.055 92.371 C-38.927 88.767 -37.558 85.327 -36.133 81.832 C-34.913 78.782 -33.763 75.711 -32.625 72.629 C-26.776 56.85 -20.407 41.432 -13.414 26.117 C-12.035 23.078 -10.686 20.029 -9.348 16.973 C-8.939 16.044 -8.529 15.115 -8.108 14.158 C-7.352 12.441 -6.6 10.721 -5.853 9 C-5.519 8.247 -5.184 7.494 -4.84 6.719 C-4.555 6.068 -4.27 5.418 -3.976 4.748 C-2.895 2.812 -1.63 1.492 0 0 Z"/>
<path transform="translate(603,685)" fill="#FEFEFE" d="M0 0 C24.702 0.513 50.001 9.534 72.944 18.017 C79.337 20.32 85.198 21.723 92 22 C93.341 25.935 94.671 29.873 96 33.812 C96.382 34.932 96.763 36.052 97.156 37.205 C97.517 38.278 97.878 39.351 98.25 40.457 C98.753 41.942 98.753 41.942 99.266 43.456 C100 46 100 46 100 49 C93.111 51.833 87.029 52.435 79.625 52.312 C78.661 52.316 77.697 52.319 76.703 52.322 C70.829 52.279 65.372 51.607 59.617 50.465 C55.656 49.761 51.767 49.576 47.75 49.562 C46.946 49.559 46.142 49.555 45.313 49.551 C37.245 49.704 30.412 51.898 23 55 C21 52 21 52 21.047 50.027 C22.439 47.067 24.446 46.186 27.25 44.562 C31.447 42.118 34.668 39.544 38 36 C35.646 36.312 33.292 36.625 30.938 36.938 C29.952 37.068 29.952 37.068 28.947 37.201 C24.628 37.776 20.313 38.377 16 39 C13.966 35.27 13 33.331 13 29 C13.641 28.818 14.281 28.636 14.941 28.449 C20.144 26.937 25.071 25.25 30 23 C30 22.67 30 22.34 30 22 C23.07 22 16.14 22 9 22 C6 16 6 16 6 14 C10.061 12.646 14.029 12.621 18.285 12.379 C21.144 12.258 21.144 12.258 23 10 C20.293 9.098 18.762 8.881 15.988 8.902 C15.231 8.906 14.474 8.909 13.693 8.912 C12.515 8.925 12.515 8.925 11.312 8.938 C10.515 8.942 9.718 8.947 8.896 8.951 C6.931 8.963 4.965 8.981 3 9 C0 3.375 0 3.375 0 0 Z"/>
<path transform="translate(209,353)" fill="#72767D" d="M0 0 C0.059 3.354 0.094 6.708 0.125 10.062 C0.142 11.005 0.159 11.948 0.176 12.92 C0.214 18.365 -0.187 22.855 -2 28 C-4.12 25.385 -6.131 22.804 -8 20 C-8.99 19.67 -9.98 19.34 -11 19 C-8.41 26.002 -5.283 32.385 -1.5 38.812 C-0.439 40.642 0.623 42.471 1.684 44.301 C2.227 45.234 2.771 46.166 3.332 47.127 C6.104 51.902 8.831 56.702 11.562 61.5 C12.542 63.219 13.523 64.938 14.504 66.656 C14.939 67.419 15.373 68.181 15.821 68.967 C16.793 70.644 17.807 72.296 18.832 73.941 C20 76 20 76 20.125 78.438 C18.434 82.288 15.46 84.674 12 87 C11.34 87 10.68 87 10 87 C9.938 86.216 9.876 85.433 9.812 84.625 C9.544 83.759 9.276 82.892 9 82 C6.557 80.689 6.557 80.689 4 80 C3.67 79.67 3.34 79.34 3 79 C1.328 78.903 -0.348 78.868 -2.023 78.859 C-3.044 78.84 -4.065 78.821 -5.117 78.801 C-7.281 78.767 -9.445 78.749 -11.609 78.746 C-19.461 78.558 -19.461 78.558 -22.145 75.777 C-22.963 73.12 -23.735 70.533 -24.312 67.812 C-25.78 61.494 -27.793 55.436 -29.931 49.32 C-33.1 40.125 -35.567 28.621 -31.941 19.27 C-30.462 16.939 -28.897 15.003 -27 13 C-26.42 12.366 -25.84 11.732 -25.242 11.078 C-18.843 4.813 -9.125 0 0 0 Z"/>
<path transform="translate(306.6875,682.6875)" fill="#FEFEFE" d="M0 0 C1.439 0.08 2.878 0.177 4.312 0.312 C3.785 1.19 3.785 1.19 3.246 2.086 C-0.657 8.873 -3.522 15.717 -6.063 23.117 C-7.753 27.786 -9.192 30.739 -13.688 33.312 C-16.145 33.703 -16.145 33.703 -18.5 33.562 C-19.29 33.526 -20.08 33.49 -20.895 33.453 C-21.486 33.407 -22.078 33.36 -22.688 33.312 C-22.028 34.303 -21.368 35.293 -20.688 36.312 C-18.021 36.677 -18.021 36.677 -15.062 36.5 C-13.558 36.459 -13.558 36.459 -12.023 36.418 C-10.867 36.366 -10.867 36.366 -9.688 36.312 C-9.403 37.113 -9.118 37.914 -8.824 38.738 C-7.932 41.468 -7.932 41.468 -5.5 42.5 C-3.314 43.131 -1.126 43.755 1.062 44.375 C4.312 45.312 4.312 45.312 5.312 46.312 C6.832 46.384 8.354 46.396 9.875 46.375 C10.701 46.366 11.528 46.357 12.379 46.348 C13.017 46.336 13.655 46.324 14.312 46.312 C12.659 52.479 10.584 58.439 8.25 64.375 C7.993 65.042 7.735 65.709 7.47 66.397 C5.552 71.193 5.552 71.193 3.312 72.312 C-5.57 71.088 -14.237 67.473 -22.622 64.446 C-28.286 62.419 -33.977 60.609 -39.754 58.941 C-48.268 56.481 -56.676 53.741 -65.076 50.918 C-67.477 50.112 -69.879 49.31 -72.281 48.51 C-73.828 47.992 -75.375 47.475 -76.922 46.957 C-77.984 46.602 -77.984 46.602 -79.068 46.24 C-82.655 45.034 -86.191 43.761 -89.688 42.312 C-89.688 41.982 -89.688 41.653 -89.688 41.312 C-83.645 40.37 -77.603 39.428 -71.56 38.487 C-69.514 38.168 -67.468 37.849 -65.422 37.53 C-60.455 36.754 -55.487 35.982 -50.518 35.216 C-46.707 34.629 -42.899 34.026 -39.092 33.413 C-37.337 33.136 -35.583 32.859 -33.828 32.582 C-33.05 32.453 -32.271 32.324 -31.469 32.192 C-25.847 31.317 -20.373 31.177 -14.688 31.312 C-10.284 20.455 -10.284 20.455 -8 9.062 C-7.481 2.833 -6.463 0.041 0 0 Z"/>
<path transform="translate(801,224)" fill="#0F0F10" d="M0 0 C0.99 0.495 0.99 0.495 2 1 C2 1.99 2 2.98 2 4 C1.34 4 0.68 4 0 4 C-0.253 4.581 -0.505 5.163 -0.766 5.762 C-5.48 14.31 -16.13 19.767 -25 23 C-28.93 23.188 -28.93 23.188 -32 23 C-32 22.34 -32 21.68 -32 21 C-32.62 21.303 -33.241 21.606 -33.88 21.918 C-36.688 23.285 -39.5 24.642 -42.312 26 C-43.289 26.477 -44.265 26.954 -45.271 27.445 C-46.209 27.896 -47.147 28.348 -48.113 28.812 C-49.409 29.441 -49.409 29.441 -50.732 30.082 C-53 31 -53 31 -56 31 C-55.67 34.3 -55.34 37.6 -55 41 C-53.68 40.34 -52.36 39.68 -51 39 C-45.417 38.218 -40.704 38.718 -36 42 C-30.571 48.687 -31.227 55.851 -32 64 C-33.777 74.855 -38.836 84.69 -44.961 93.711 C-46.254 96.561 -45.885 98.055 -45 101 C-40.433 100.543 -37.057 100.173 -33 98 C-31.68 98 -30.36 98 -29 98 C-30.204 101.747 -32.503 103.428 -35.93 105.234 C-39.63 106.603 -43.137 106.731 -47 106 C-49.562 104.375 -49.562 104.375 -51 102 C-52.006 95.748 -48.823 90.973 -46 85.625 C-45.523 84.698 -45.046 83.771 -44.555 82.816 C-43.38 80.538 -42.195 78.267 -41 76 C-43.293 76 -45.587 76.102 -47.875 76.25 C-50.988 76.233 -52.069 75.963 -54.938 74.438 C-57.564 71.334 -57.769 68.999 -58 65 C-54.229 66.69 -54.229 66.69 -52.75 68.688 C-50.846 70.412 -50.846 70.412 -47.125 69.75 C-45.747 69.519 -44.371 69.269 -43 69 C-42.01 68.814 -41.02 68.629 -40 68.438 C-39.01 68.221 -39.01 68.221 -38 68 C-37.247 63.762 -36.865 59.618 -36.75 55.312 C-36.711 53.945 -36.711 53.945 -36.672 52.551 C-37.071 49.446 -37.709 48.133 -40 46 C-42.53 45.44 -42.53 45.44 -45.312 45.625 C-46.699 45.644 -46.699 45.644 -48.113 45.664 C-51.284 46.033 -54.012 46.897 -57 48 C-57.098 48.802 -57.196 49.604 -57.297 50.43 C-58.332 58.303 -59.78 65.964 -61.591 73.693 C-65.401 90.07 -65.732 105.404 -59 121 C-58.542 122.07 -58.085 123.14 -57.613 124.242 C-53.365 133.39 -47.408 141.162 -40 148 C-39.288 148.702 -39.288 148.702 -38.562 149.418 C-29.818 157.595 -19.746 160.901 -8 162 C-8.33 162.99 -8.66 163.98 -9 165 C-20.739 165.937 -30 162.965 -39.176 155.559 C-39.778 155.044 -40.38 154.53 -41 154 C-41.674 153.434 -42.348 152.868 -43.043 152.285 C-44.709 150.872 -46.356 149.438 -48 148 C-48.098 149.183 -48.196 150.367 -48.297 151.586 C-49.744 167.569 -54.456 177.319 -63.827 190.236 C-66.276 193.919 -67.276 196.833 -67.625 201.25 C-67.7 202.142 -67.775 203.034 -67.852 203.953 C-67.925 204.966 -67.925 204.966 -68 206 C-68.66 206 -69.32 206 -70 206 C-71.655 201.034 -72.511 196.189 -70.177 191.262 C-67.727 186.989 -64.866 183.001 -62 179 C-54.739 168.569 -52.115 157.106 -53.479 144.484 C-54.747 138.434 -58.126 133.291 -61.422 128.148 C-65.712 121.454 -68.315 114.878 -69.688 107.062 C-70.404 102.387 -70.404 102.387 -72 98 C-72.301 93.694 -72.278 89.378 -72.312 85.062 C-72.342 83.876 -72.371 82.689 -72.4 81.467 C-72.473 71.333 -70.433 63.245 -64.812 54.75 C-60.972 48.085 -61.02 41.547 -61 34 C-64.465 34.495 -64.465 34.495 -68 35 C-65.503 32.146 -62.786 30.713 -59.406 29.039 C-58.293 28.485 -57.179 27.93 -56.031 27.359 C-54.866 26.787 -53.701 26.215 -52.5 25.625 C-51.366 25.06 -50.231 24.496 -49.062 23.914 C-45.717 22.257 -42.361 20.625 -39 19 C-37.958 18.484 -36.917 17.968 -35.844 17.437 C-34.874 16.97 -33.905 16.504 -32.906 16.023 C-32.054 15.608 -31.201 15.192 -30.322 14.763 C-27.731 13.912 -26.523 14.067 -24 15 C-24.66 15.99 -25.32 16.98 -26 18 C-15.938 13.139 -7.875 7.99 0 0 Z"/>
<path transform="translate(810,189)" fill="#F5F5F5" d="M0 0 C0.66 0.66 1.32 1.32 2 2 C4.314 1.988 6.628 1.891 8.938 1.75 C19.15 1.478 25.411 5.644 33.062 12 C51.235 29.251 62.367 55.624 63.219 80.539 C63.274 84.372 63.256 88.175 63 92 C61.436 93.564 59.598 93.381 57.438 93.688 C52.439 94.613 49.418 96.482 45.594 99.758 C44 101 44 101 42 101 C41.743 101.514 41.487 102.029 41.223 102.559 C40.255 104.49 39.283 106.419 38.309 108.348 C37.685 109.586 37.061 110.824 36.438 112.062 C35.963 112.999 35.963 112.999 35.479 113.955 C31.265 122.337 30.209 132.032 32.941 141.137 C35.206 145.885 37.606 148.987 42 152 C42 154 42 154 39.812 156.688 C37 159 37 159 34.625 159.25 C28.233 156.206 24.848 151.406 22.062 145 C17.978 133.206 19.084 121.364 24 110 C29.094 100.291 35.456 91.902 46 88 C46.66 88 47.32 88 48 88 C48.33 88.99 48.66 89.98 49 91 C54.103 75.691 47.562 56.78 41 43 C40.582 42.1 40.165 41.2 39.734 40.273 C30.539 21.936 15.879 11.218 -3 4 C-3 3.34 -3 2.68 -3 2 C-2.01 1.34 -1.02 0.68 0 0 Z"/>
<path transform="translate(879.375,287.5)" fill="#FEFEFE" d="M0 0 C5.829 5.551 7.704 12.362 7.969 20.236 C8.141 32.27 5.454 42.192 -2.492 51.566 C-8.019 57.242 -14.533 62.05 -22.656 62.676 C-24.563 62.686 -26.471 62.602 -28.375 62.5 C-26.5 57.75 -26.5 57.75 -25.375 55.5 C-23.061 54.769 -20.727 54.099 -18.375 53.5 C-18.967 53.281 -19.558 53.062 -20.168 52.836 C-26.654 50.233 -30.351 47.669 -33.48 41.223 C-36.114 33.208 -35.043 23.795 -31.832 16.102 C-25.289 4.418 -13.79 -6.129 0 0 Z"/>
<path transform="translate(300,363)" fill="#72767D" d="M0 0 C4.766 1.248 8.985 2.978 12 7 C12.732 10.217 12.595 13.341 12.5 16.625 C12.621 26.488 14.209 33.136 21.328 40.363 C23.495 42.331 25.713 44.175 28 46 C28.66 46.66 29.32 47.32 30 48 C29.34 48.99 28.68 49.98 28 51 C28 50.01 28 49.02 28 48 C20.249 53.196 11.875 60.335 8 69 C8.014 75.071 10.322 78.572 13.875 83.188 C14.322 83.79 14.77 84.393 15.23 85.014 C17.06 87.471 18.919 89.898 20.82 92.301 C22 94 22 94 22 96 C15.666 95.75 10.884 95.43 6 91 C-1.746 81.164 -3.601 71.143 -3.312 58.875 C-3.299 57.571 -3.286 56.266 -3.272 54.923 C-3.198 48.545 -2.983 42.179 -2.656 35.809 C-2.6 34.709 -2.545 33.608 -2.487 32.475 C-2.373 30.407 -2.242 28.34 -2.093 26.275 C-2.038 25.355 -1.983 24.436 -1.926 23.488 C-1.868 22.689 -1.811 21.891 -1.751 21.068 C-2.066 18.45 -2.997 17.634 -5 16 C-5 16.66 -5 17.32 -5 18 C-5.66 18 -6.32 18 -7 18 C-7.592 13.413 -8 9.569 -5.441 5.555 C-3.701 3.601 -1.931 1.764 0 0 Z"/>
<path transform="translate(422,415)" fill="#FEFEFE" d="M0 0 C8.51 2.659 15.712 9.43 20.188 17.012 C23.355 23.126 25.252 28.696 25.266 35.656 C25.269 37.563 25.269 37.563 25.273 39.508 C25.266 40.825 25.258 42.143 25.25 43.5 C25.262 45.43 25.262 45.43 25.273 47.398 C25.247 60.345 23.426 72.53 20 85 C19.34 85 18.68 85 18 85 C17.855 84.463 17.71 83.927 17.56 83.374 C12.6 65.172 6.642 48.069 -1.438 31 C-1.963 29.878 -2.488 28.757 -3.03 27.601 C-7.604 18.15 -13.44 10.153 -20 2 C-17.36 2.66 -14.72 3.32 -12 4 C-11.67 3.01 -11.34 2.02 -11 1 C-10.374 1.095 -9.747 1.191 -9.102 1.289 C-7.876 1.455 -7.876 1.455 -6.625 1.625 C-5.813 1.741 -5.001 1.857 -4.164 1.977 C-3.45 1.984 -2.736 1.992 -2 2 C-1.34 1.34 -0.68 0.68 0 0 Z"/>
<path transform="translate(214,362)" fill="#FEFEFE" d="M0 0 C3.04 2.957 5.798 5.899 8.312 9.312 C14.811 17.74 21.75 23.703 31 29 C32.093 29.639 33.186 30.279 34.312 30.938 C42.994 33.439 50.783 33.121 58.875 29 C65.457 25.046 70.739 20.392 75 14 C75.66 14 76.32 14 77 14 C78.205 31.907 78.205 31.907 73.875 36.875 C71.93 38.598 71.93 38.598 70 40 C69.01 40.763 68.02 41.526 67 42.312 C55.742 48.645 42.375 50.15 29.682 47.52 C20.892 45.031 12.009 40.872 5 35 C4.299 34.42 3.597 33.839 2.875 33.241 C-0.559 30 -2.814 27.637 -3.359 22.834 C-3.116 19.304 -2.628 15.92 -2 12.438 C-1.821 11.238 -1.642 10.039 -1.457 8.803 C-1.011 5.86 -0.525 2.93 0 0 Z"/>
<path transform="translate(152,526)" fill="#72767D" d="M0 0 C0.801 1.597 0.801 1.597 1.617 3.227 C6.665 13.127 12.206 22.208 19 31 C19.753 31.977 20.506 32.954 21.281 33.961 C30.33 45.336 39.808 54.619 53 61 C51.378 64.585 49.207 67.59 46.875 70.75 C45.788 72.227 45.788 72.227 44.68 73.734 C44.125 74.482 43.571 75.23 43 76 C29.432 74.083 17.639 61.367 9.525 51.142 C1.883 40.918 -11.003 21.988 -9.809 8.902 C-8.783 6.49 -7.437 5.074 -5.562 3.25 C-4.945 2.636 -4.328 2.023 -3.691 1.391 C-2 0 -2 0 0 0 Z"/>
<path transform="translate(293,400)" fill="#72767D" d="M0 0 C-0.33 6.93 -0.66 13.86 -1 21 C-4.645 22.749 -8.287 24.407 -12 26 C-12.906 26.403 -13.812 26.807 -14.746 27.223 C-22.486 30.153 -29.845 30.388 -38.062 30.438 C-39.17 30.448 -40.277 30.458 -41.418 30.468 C-42.468 30.457 -43.517 30.445 -44.598 30.434 C-45.541 30.424 -46.485 30.414 -47.457 30.404 C-50.424 29.933 -51.67 28.824 -54 27 C-57.667 26.749 -57.667 26.749 -61 27 C-61.282 26.491 -61.564 25.983 -61.854 25.459 C-63.153 23.118 -64.451 20.778 -65.75 18.438 C-66.193 17.638 -66.637 16.838 -67.094 16.014 C-69.697 11.324 -72.328 6.651 -75 2 C-70.938 3.532 -67.161 5.433 -63.312 7.438 C-49.396 14.432 -35.953 16.392 -20.746 11.977 C-15.581 10.14 -4.045 0 0 0 Z"/>
<path transform="translate(270,508)" fill="#0F0F10" d="M0 0 C0.058 0.894 0.116 1.789 0.176 2.71 C0.733 11.267 1.292 19.824 1.852 28.38 C2.14 32.776 2.427 37.172 2.713 41.568 C3.044 46.657 3.377 51.747 3.711 56.836 C3.766 57.67 3.82 58.503 3.877 59.362 C4.559 69.731 5.298 80.091 6.125 90.449 C6.865 99.782 7.404 109.077 7.625 118.438 C7.643 119.145 7.661 119.852 7.68 120.581 C8.024 134.355 8.129 148.133 8.175 161.911 C8.183 164.21 8.194 166.509 8.209 168.808 C8.226 172.046 8.23 175.285 8.23 178.523 C8.238 179.494 8.245 180.464 8.252 181.464 C8.236 186.383 7.939 190.387 6 195 C5.01 195 4.02 195 3 195 C2.999 194.178 2.997 193.355 2.996 192.508 C2.903 151.874 2.178 111.37 -0.438 70.812 C-0.492 69.955 -0.547 69.098 -0.604 68.214 C-2.159 43.725 -2.159 43.725 -4.419 19.293 C-4.925 14.499 -5.073 9.822 -5 5 C-5.549 5.348 -6.099 5.696 -6.665 6.054 C-9.172 7.641 -11.68 9.227 -14.188 10.812 C-15.052 11.36 -15.916 11.907 -16.807 12.471 C-18.476 13.526 -20.147 14.577 -21.822 15.624 C-23.524 16.699 -25.199 17.816 -26.863 18.949 C-29.459 20.226 -30.319 19.813 -33 19 C-27.076 13.371 -20.729 9.114 -13.688 5 C-12.699 4.403 -11.711 3.806 -10.693 3.191 C-9.273 2.354 -9.273 2.354 -7.824 1.5 C-6.969 0.995 -6.114 0.489 -5.233 -0.031 C-3 -1 -3 -1 0 0 Z"/>
<path transform="translate(337.6875,669.9375)" fill="#F5F5F5" d="M0 0 C0.994 0.009 1.988 0.018 3.012 0.027 C4.151 0.045 4.151 0.045 5.312 0.062 C4.666 3.792 3.63 7.144 2.273 10.676 C1.861 11.752 1.449 12.828 1.024 13.936 C0.583 15.071 0.142 16.206 -0.312 17.375 C-0.99 19.119 -0.99 19.119 -1.681 20.898 C-12.477 48.527 -12.477 48.527 -18.688 54.062 C-21.367 54.723 -21.367 54.723 -23.688 55.062 C-23.022 52.812 -22.347 50.565 -21.66 48.32 C-20.945 45.924 -20.271 43.531 -19.621 41.117 C-17.346 32.94 -14.837 27.09 -8.688 21.062 C-6.824 18.271 -6.824 18.271 -5.688 16.062 C-12.721 20.048 -16.632 24.141 -20.688 31.062 C-30.798 47.347 -30.798 47.347 -35 48.938 C-35.557 48.979 -36.114 49.02 -36.688 49.062 C-34.763 31.788 -26.414 14.682 -12.883 3.582 C-8.582 0.618 -5.136 -0.06 0 0 Z"/>
<path transform="translate(923.05859375,171.44921875)" fill="#F5F5F5" d="M0 0 C11.518 6.073 18.585 14.824 23.191 26.801 C25.636 39.023 23.507 50.043 16.941 60.551 C12.171 66.638 6.361 71.185 -1.059 73.551 C-4.445 73.907 -7.672 73.875 -11.059 73.551 C-10.564 72.066 -10.564 72.066 -10.059 70.551 C-7.617 69.41 -7.617 69.41 -4.496 68.301 C4.712 64.616 9.927 59.976 13.977 50.883 C14.295 50.113 14.613 49.344 14.941 48.551 C15.375 47.602 15.808 46.653 16.254 45.676 C18.198 36.837 17.581 28.401 12.941 20.551 C7.139 12.437 -0.921 5.329 -11.059 3.551 C-19.578 2.904 -26.69 2.99 -34.059 7.551 C-34.756 7.963 -35.453 8.376 -36.172 8.801 C-43.85 13.89 -48.128 21.67 -50.059 30.551 C-51.379 30.551 -52.699 30.551 -54.059 30.551 C-54.017 20.783 -50.388 13.999 -43.934 6.801 C-31.777 -4.702 -14.896 -6.488 0 0 Z"/>
<path transform="translate(703,682)" fill="#FEFEFE" d="M0 0 C1.024 1.893 1.024 1.893 1.768 4.228 C2.055 5.103 2.342 5.979 2.638 6.881 C2.932 7.833 3.227 8.785 3.531 9.766 C4.008 11.243 4.008 11.243 4.494 12.75 C5.51 15.913 6.505 19.081 7.5 22.25 C8.169 24.339 8.84 26.428 9.512 28.516 C11.377 34.333 13.196 40.163 15 46 C15.241 46.771 15.482 47.542 15.731 48.337 C16.342 50.299 16.938 52.267 17.531 54.234 C17.846 55.273 18.162 56.312 18.486 57.382 C19.012 60.062 19.069 61.501 18 64 C15.526 65.404 13.821 66.052 10.967 65.872 C9 65 9 65 7.811 62.749 C7.489 61.754 7.166 60.759 6.833 59.733 C6.46 58.608 6.086 57.483 5.701 56.324 C5.313 55.098 4.924 53.872 4.523 52.609 C3.895 50.697 3.267 48.784 2.638 46.871 C1.76 44.184 0.897 41.492 0.034 38.8 C-1.055 35.414 -2.16 32.033 -3.266 28.652 C-4.509 24.847 -5.751 21.041 -6.979 17.231 C-7.346 16.094 -7.714 14.956 -8.092 13.784 C-8.413 12.786 -8.734 11.787 -9.065 10.758 C-9.687 8.925 -10.372 7.112 -11.119 5.326 C-12 3 -12 3 -12 0 C-3.801 -2.46 -3.801 -2.46 0 0 Z"/>
<path transform="translate(382,387)" fill="#FEFEFE" d="M0 0 C4.089 0.638 7.434 1.972 11.176 3.723 C12.911 4.53 12.911 4.53 14.682 5.354 C15.892 5.923 17.102 6.493 18.312 7.062 C19.542 7.637 20.772 8.21 22.002 8.783 C25.004 10.184 28.003 11.59 31 13 C29.608 16.533 28.092 19.924 26.375 23.312 C25.929 24.196 25.483 25.079 25.023 25.988 C24.517 26.984 24.517 26.984 24 28 C20.035 27.36 16.706 26.13 13.043 24.496 C11.931 24.003 10.819 23.51 9.674 23.002 C8.523 22.486 7.373 21.969 6.188 21.438 C5.018 20.917 3.848 20.397 2.643 19.861 C-0.24 18.579 -3.121 17.291 -6 16 C-5.277 12.06 -4.145 8.821 -2.438 5.188 C-1.982 4.212 -1.527 3.236 -1.059 2.23 C-0.709 1.494 -0.36 0.758 0 0 Z"/>
<path transform="translate(752.765625,268.6796875)" fill="#F5F5F5" d="M0 0 C4.372 -0.269 7.237 -0.353 10.922 2.133 C12.89 6.912 12.687 11.227 12.234 16.32 C12.175 17.034 12.116 17.749 12.055 18.484 C11.734 20.32 11.734 20.32 10.234 23.32 C6.934 25.39 3.432 26.057 -0.328 26.883 C-4.315 25.963 -6.881 23.113 -9.766 20.32 C-10.096 21.64 -10.426 22.96 -10.766 24.32 C-11.426 24.32 -12.086 24.32 -12.766 24.32 C-12.537 22.812 -12.537 22.812 -12.305 21.273 C-11.961 18.751 -11.678 16.218 -11.477 13.68 C-11.144 10.11 -10.704 6.782 -9.766 3.32 C-6.206 0.442 -4.397 0.509 0 0 Z"/>
<path transform="translate(615,361)" fill="#FEFEFE" d="M0 0 C2.429 3.013 4.092 6.041 5.688 9.562 C6.343 10.988 6.343 10.988 7.012 12.441 C8 15 8 15 8 18 C4.279 19.542 0.547 21.055 -3.188 22.562 C-4.243 23 -5.298 23.438 -6.385 23.889 C-7.406 24.298 -8.428 24.707 -9.48 25.129 C-10.418 25.511 -11.355 25.893 -12.321 26.287 C-15.345 27.092 -17.051 27.003 -20 26 C-21.582 23.602 -21.582 23.602 -22.812 20.625 C-23.441 19.159 -23.441 19.159 -24.082 17.664 C-25 15 -25 15 -25 12 C-24.314 11.672 -23.627 11.344 -22.92 11.006 C-19.822 9.525 -16.723 8.044 -13.625 6.562 C-12.545 6.046 -11.465 5.53 -10.352 4.998 C-8.805 4.258 -8.805 4.258 -7.227 3.504 C-6.273 3.048 -5.32 2.593 -4.338 2.123 C-2.887 1.426 -1.44 0.72 0 0 Z"/>
<path transform="translate(178,272)" fill="#F5F5F5" d="M0 0 C2.25 -0.062 2.25 -0.062 5 1 C6.804 3.807 7.854 6.878 9 10 C9.364 10.888 9.727 11.776 10.102 12.691 C12.218 18.043 13.411 22.845 13.785 28.582 C14.007 31.074 14.48 33.381 15.062 35.812 C15.813 38.95 16.209 41.753 16 45 C7.369 42.287 2.822 34.219 -1.27 26.652 C-4.361 19.935 -5.011 13.321 -4 6 C-2.928 3.444 -1.891 2.068 0 0 Z"/>
<path transform="translate(284,330)" fill="#1E1D1F" d="M0 0 C0.495 1.485 0.495 1.485 1 3 C0.34 3 -0.32 3 -1 3 C-1.103 3.557 -1.206 4.114 -1.312 4.688 C-3.364 11.589 -7.981 14.554 -14 18 C-19.943 19.981 -26.194 20.024 -32.094 17.871 C-37.539 15.068 -41.242 12.516 -44 7 C-44.99 7.99 -45.98 8.98 -47 10 C-47.99 9.67 -48.98 9.34 -50 9 C-49.49 5.224 -48.792 3.553 -46 1 C-44.604 1.456 -43.208 1.915 -41.812 2.375 C-40.647 2.758 -40.647 2.758 -39.457 3.148 C-37 4 -37 4 -34.68 5.078 C-31.217 6.269 -27.935 6.383 -24.312 6.375 C-23.607 6.375 -22.902 6.375 -22.175 6.375 C-14.004 6.197 -7.221 0 0 0 Z"/>
<path transform="translate(243,431)" fill="#696D73" d="M0 0 C0.33 0.66 0.66 1.32 1 2 C3.549 2.312 6.004 2.513 8.562 2.625 C9.629 2.683 9.629 2.683 10.717 2.742 C12.477 2.837 14.239 2.919 16 3 C16.502 6.291 17.001 9.583 17.5 12.875 C17.643 13.812 17.786 14.749 17.934 15.715 C18.069 16.611 18.204 17.507 18.344 18.43 C18.532 19.671 18.532 19.671 18.725 20.937 C19 23 19 23 19 25 C9.43 25.33 -0.14 25.66 -10 26 C-8.44 22.099 -7.413 19.957 -4.938 16.812 C-1.81 12.813 -0.853 10.485 -0.438 5.375 C-0.354 4.372 -0.27 3.369 -0.184 2.336 C-0.123 1.565 -0.062 0.794 0 0 Z"/>
<path transform="translate(114,441)" fill="#0F0F10" d="M0 0 C2.279 0.166 2.279 0.166 5 1 C6.83 3.287 6.83 3.287 8.531 6.344 C9.491 8.043 9.491 8.043 10.47 9.776 C11.147 11.017 11.824 12.258 12.5 13.5 C13.204 14.767 13.908 16.034 14.614 17.301 C16.418 20.552 18.197 23.817 19.965 27.088 C20.961 28.927 21.961 30.763 22.963 32.598 C24.764 35.91 26.544 39.233 28.312 42.562 C28.845 43.553 29.377 44.543 29.926 45.562 C34.247 53.855 37.523 62.195 37.188 71.688 C37.147 73.209 37.147 73.209 37.105 74.762 C37.071 75.5 37.036 76.239 37 77 C35.68 76.67 34.36 76.34 33 76 C32.841 74.984 32.683 73.968 32.52 72.922 C29.244 53.077 19.214 36.842 9.328 19.57 C8.432 18.001 8.432 18.001 7.518 16.4 C6.356 14.371 5.188 12.346 4.014 10.325 C3.488 9.409 2.963 8.494 2.422 7.551 C1.954 6.743 1.485 5.935 1.003 5.103 C0 3 0 3 0 0 Z"/>
<path transform="translate(871,303)" fill="#0F0F10" d="M0 0 C4.326 2.36 4.326 2.36 6 5 C7.01 9.272 6.874 13.13 5.004 17.133 C2.886 20.286 0.774 22.971 -3 24 C-6 24.375 -6 24.375 -9 24 C-12.055 21.523 -13.821 19.567 -14.273 15.609 C-14.581 6.94 -14.581 6.94 -11.625 3.375 C-7.647 -0.224 -5.37 -0.537 0 0 Z"/>
<path transform="translate(855.625,640.9375)" fill="#606669" d="M0 0 C2.51 2.18 4.483 4.329 6.375 7.062 C6.375 8.053 6.375 9.043 6.375 10.062 C3.034 8.557 0.428 6.584 -2.438 4.312 C-17.474 -6.714 -35.409 -9.687 -53.625 -6.938 C-56.299 -6.857 -58.949 -6.891 -61.625 -6.938 C-61.625 -7.597 -61.625 -8.258 -61.625 -8.938 C-41.34 -18.086 -17.42 -12.857 0 0 Z"/>
<path transform="translate(296.22265625,252.9296875)" fill="#0F0F10" d="M0 0 C1.777 1.07 1.777 1.07 3.777 3.07 C3.222 7.626 3.222 7.626 1.777 9.07 C-0.283 9.17 -2.347 9.201 -4.41 9.203 C-5.666 9.204 -6.921 9.206 -8.215 9.207 C-8.872 9.205 -9.529 9.203 -10.206 9.201 C-12.214 9.195 -14.222 9.201 -16.23 9.207 C-17.486 9.206 -18.742 9.204 -20.035 9.203 C-21.197 9.202 -22.358 9.201 -23.555 9.2 C-26.223 9.07 -26.223 9.07 -27.223 8.07 C-27.66 5.258 -27.66 5.258 -27.223 2.07 C-18.962 -4.722 -9.327 -4.554 0 0 Z"/>
<path transform="translate(247,256)" fill="#0F0F10" d="M0 0 C1 1 1 1 1.188 3.438 C1 6 1 6 -1 8 C-2.984 8.195 -2.984 8.195 -5.395 8.125 C-6.268 8.11 -7.141 8.094 -8.041 8.078 C-9.877 8.026 -11.713 7.974 -13.549 7.922 C-18.248 7.839 -21.681 7.932 -26 10 C-28.812 9.625 -28.812 9.625 -31 9 C-31.375 6.812 -31.375 6.812 -31 4 C-22.748 -4.448 -10.292 -5.718 0 0 Z"/>
<path transform="translate(260,273)" fill="#0F0F10" d="M0 0 C0.99 0.33 1.98 0.66 3 1 C3.809 3.055 3.809 3.055 4.438 5.875 C4.682 6.951 4.927 8.028 5.18 9.137 C5.45 10.412 5.721 11.686 6 13 C6.161 13.754 6.323 14.507 6.489 15.284 C7.516 20.081 8.518 24.882 9.51 29.686 C10.165 32.781 10.875 35.863 11.594 38.944 C12.524 43.656 12.676 47.524 10.625 52 C7.141 54.654 4.646 54.643 0.352 54.434 C-2 54 -2 54 -4.625 52.125 C-6 50 -6 50 -6 48 C-4.948 48.33 -3.896 48.66 -2.812 49 C0.431 49.851 2.715 50.091 6 50 C6.476 42.356 5.208 35.563 3.484 28.138 C2.529 23.918 1.673 19.678 0.812 15.438 C0.544 14.152 0.544 14.152 0.271 12.84 C-1.345 4.876 -1.345 4.876 -1 1 C-0.67 0.67 -0.34 0.34 0 0 Z"/>
<path transform="translate(318,267)" fill="#E5E5E6" d="M0 0 C2.25 0.062 2.25 0.062 5 1 C9.12 6.011 9.622 10.417 9.383 16.816 C8.269 26.083 4.425 34.455 -1 42 C-1.33 42 -1.66 42 -2 42 C-2 38.37 -2 34.74 -2 31 C-1.34 31 -0.68 31 0 31 C1.969 24.711 3.647 18.451 5 12 C4.34 12 3.68 12 3 12 C2.807 12.855 2.613 13.709 2.414 14.59 C2.023 16.247 2.023 16.247 1.625 17.938 C1.37 19.04 1.115 20.142 0.852 21.277 C0.571 22.176 0.29 23.074 0 24 C-0.66 24.33 -1.32 24.66 -2 25 C-2.058 21.396 -2.094 17.792 -2.125 14.188 C-2.142 13.163 -2.159 12.139 -2.176 11.084 C-2.182 10.101 -2.189 9.118 -2.195 8.105 C-2.206 7.199 -2.216 6.294 -2.227 5.36 C-2 3 -2 3 0 0 Z"/>
<path transform="translate(199,193)" fill="#E5E5E6" d="M0 0 C19.594 -0.556 34.247 2.148 49.375 15.438 C61.298 26.811 61.298 26.811 65 34 C64.505 34.99 64.505 34.99 64 36 C63.129 35.094 62.257 34.188 61.359 33.254 C45.443 16.883 27.912 3.994 4.438 2.375 C2.889 2.263 2.889 2.263 1.309 2.148 C0.547 2.099 -0.215 2.05 -1 2 C-0.67 1.34 -0.34 0.68 0 0 Z"/>
<path transform="translate(789,339)" fill="#0F0F10" d="M0 0 C0.99 0.33 1.98 0.66 3 1 C1.343 7.794 -2.578 12.703 -8.438 16.438 C-12.598 18.262 -14.527 18.926 -19 18 C-22.361 15.672 -25.361 13.129 -28 10 C-28 9.01 -28 8.02 -28 7 C-27.459 7.159 -26.917 7.317 -26.359 7.48 C-19.208 9.055 -12.012 8.882 -5.625 5.156 C-3.497 3.642 -1.698 1.981 0 0 Z"/>
<path transform="translate(795,263)" fill="#0F0F10" d="M0 0 C7.419 1.6 15.267 6.046 20 12 C20 13.32 20 14.64 20 16 C15.68 14.334 11.617 12.329 7.5 10.219 C2.4 7.732 -1.591 6.696 -7.312 6.375 C-8.567 6.3 -9.821 6.225 -11.113 6.148 C-12.066 6.099 -13.019 6.05 -14 6 C-14.33 4.68 -14.66 3.36 -15 2 C-10.322 -1.119 -5.48 -0.343 0 0 Z"/>
<path transform="translate(306.6875,682.6875)" fill="#E5E5E6" d="M0 0 C1.439 0.08 2.878 0.177 4.312 0.312 C3.785 1.19 3.785 1.19 3.246 2.086 C-0.657 8.873 -3.522 15.717 -6.063 23.117 C-7.757 27.797 -9.211 30.693 -13.688 33.312 C-16.572 33.936 -18.679 33.604 -21.688 33.312 C-22.678 32.653 -23.668 31.992 -24.688 31.312 C-21.387 31.312 -18.087 31.312 -14.688 31.312 C-10.284 20.455 -10.284 20.455 -8 9.062 C-7.481 2.833 -6.463 0.041 0 0 Z"/>
<path transform="translate(243,219)" fill="#E5E5E6" d="M0 0 C4.373 3.05 7.586 5.659 9 11 C8.196 10.464 7.391 9.928 6.562 9.375 C6.009 9.01 5.456 8.645 4.887 8.27 C3.583 7.392 2.295 6.492 1.02 5.574 C-13.05 -4.344 -28.333 -7.89 -45.375 -5.5 C-46.241 -5.335 -47.107 -5.17 -48 -5 C-48 -5.66 -48 -6.32 -48 -7 C-31.088 -14.248 -14.974 -9.144 0 0 Z"/>
<path transform="translate(867.625,305.4375)" fill="#E5E5E6" d="M0 0 C2.375 0.562 2.375 0.562 4.188 1.562 C6.074 4.739 5.791 8.008 5.375 11.562 C4.205 14.983 3.502 15.478 0.375 17.562 C-2.125 17.938 -2.125 17.938 -4.625 17.562 C-7.297 15.259 -7.607 13.685 -8.125 10.188 C-7.425 5.114 -5.436 1.165 0 0 Z"/>
<path transform="translate(184,475)" fill="#0F0F10" d="M0 0 C0.33 0.66 0.66 1.32 1 2 C1.99 2 2.98 2 4 2 C2.947 8.184 0.454 13.767 -1.875 19.562 C-2.322 20.699 -2.77 21.835 -3.23 23.006 C-3.667 24.098 -4.104 25.191 -4.555 26.316 C-4.952 27.311 -5.348 28.306 -5.757 29.33 C-6.934 31.858 -8.239 33.85 -10 36 C-10 35.01 -10 34.02 -10 33 C-11.485 33.495 -11.485 33.495 -13 34 C-11.29 28.595 -9.189 23.376 -7.062 18.125 C-4.632 12.109 -2.252 6.085 0 0 Z"/>
<path transform="translate(781,292)" fill="#1E1D1F" d="M0 0 C2.712 1.613 5.374 3.249 8 5 C14.059 5.505 17.556 4.562 23 2 C23.99 2 24.98 2 26 2 C25.67 5.084 25.023 5.978 22.688 8.125 C17.867 11.488 15.045 12.615 9 12 C5.067 10.39 2.395 8.593 0 5 C-0.125 2.312 -0.125 2.312 0 0 Z"/>
<path transform="translate(744,394)" fill="#1E1D1F" d="M0 0 C1.32 0.33 2.64 0.66 4 1 C3.573 6.326 0.586 9.871 -2.438 14.062 C-3.438 15.468 -4.437 16.876 -5.434 18.285 C-5.878 18.903 -6.322 19.52 -6.779 20.156 C-9.244 23.878 -10.273 26.79 -10.625 31.25 C-10.7 32.142 -10.775 33.034 -10.852 33.953 C-10.901 34.629 -10.95 35.304 -11 36 C-11.66 36 -12.32 36 -13 36 C-14.655 31.034 -15.511 26.189 -13.177 21.262 C-10.726 16.988 -7.864 13.002 -5 9 C-2.033 4.732 -2.033 4.732 0 0 Z"/>
<path transform="translate(221,287)" fill="#0F0F10" d="M0 0 C4 2 4 2 5.75 3.125 C9.959 4.762 14.048 4.8 18.191 3.102 C19.558 2.392 20.909 1.652 22.238 0.875 C24 0 24 0 27 0 C26.246 4.227 24.505 6.129 21.23 8.789 C16.985 11.094 12.657 10.836 8 10 C4.413 8.143 1.695 5.994 -1 3 C-0.67 2.01 -0.34 1.02 0 0 Z"/>
<path transform="translate(295,284)" fill="#1E1D1F" d="M0 0 C0.99 0 1.98 0 3 0 C2.848 2.657 2.527 4.442 0.668 6.41 C-4.149 10.43 -6.711 11.507 -13 11 C-16.819 9.548 -20.102 7.898 -23 5 C-23 4.01 -23 3.02 -23 2 C-18.25 2.875 -18.25 2.875 -16 4 C-14.232 4.122 -12.459 4.176 -10.688 4.188 C-9.743 4.202 -8.798 4.216 -7.824 4.23 C-4.856 3.988 -2.691 3.24 0 2 C0 1.34 0 0.68 0 0 Z"/>
<path transform="translate(829,300)" fill="#0F0F10" d="M0 0 C0.186 0.959 0.186 0.959 0.375 1.938 C0.684 2.958 0.684 2.958 1 4 C1.66 4.33 2.32 4.66 3 5 C2.838 5.999 2.675 6.998 2.508 8.027 C1.959 11.884 1.867 15.665 1.875 19.562 C1.871 21.452 1.871 21.452 1.867 23.379 C1.908 26.973 1.908 26.973 2.633 30.34 C2.754 31.218 2.875 32.096 3 33 C2.34 33.66 1.68 34.32 1 35 C0.34 35 -0.32 35 -1 35 C-4.782 23.654 -3.973 11.162 0 0 Z"/>
<path transform="translate(815,627.875)" fill="#72767D" d="M0 0 C0.794 -0.004 1.588 -0.008 2.406 -0.012 C6.403 -0.005 10.099 0.134 14 1.125 C10.949 3.769 8.866 4.55 4.859 4.855 C3.871 4.936 2.882 5.017 1.863 5.1 C0.836 5.17 -0.191 5.24 -1.25 5.312 C-2.768 5.435 -2.768 5.435 -4.316 5.561 C-9.893 5.991 -15.407 6.212 -21 6.125 C-21 5.465 -21 4.805 -21 4.125 C-13.785 0.871 -7.889 -0.038 0 0 Z"/>
<path transform="translate(260,273)" fill="#292729" d="M0 0 C0.99 0.33 1.98 0.66 3 1 C3.879 3.371 3.879 3.371 4.562 6.438 C4.806 7.519 5.05 8.601 5.301 9.715 C5.532 10.799 5.762 11.883 6 13 C6.22 13.95 6.441 14.9 6.668 15.879 C8.259 23.043 8.259 23.043 7 27 C6.34 26.34 5.68 25.68 5 25 C4.34 25.33 3.68 25.66 3 26 C2.325 22.772 1.662 19.543 1 16.312 C0.809 15.4 0.618 14.488 0.422 13.549 C0.241 12.663 0.061 11.776 -0.125 10.863 C-0.293 10.052 -0.46 9.24 -0.633 8.404 C-1.018 5.885 -1.132 3.544 -1 1 C-0.67 0.67 -0.34 0.34 0 0 Z"/>
<path transform="translate(822,175)" fill="#1E1D1F" d="M0 0 C0.66 0.33 1.32 0.66 2 1 C1.52 5.992 1.112 7.85 -2 12 C1.63 12.33 5.26 12.66 9 13 C9 13.33 9 13.66 9 14 C7.02 14.33 5.04 14.66 3 15 C3 15.33 3 15.66 3 16 C-3.435 16.495 -3.435 16.495 -10 17 C-10 12.475 -9.64 12.149 -6.688 9.062 C-4.038 6.193 -1.844 3.472 0 0 Z"/>
<path transform="translate(262,510)" fill="#0F0F10" d="M0 0 C0.66 0.33 1.32 0.66 2 1 C0.654 4.184 -0.567 5.691 -3.52 7.473 C-4.212 7.897 -4.905 8.322 -5.619 8.76 C-6.343 9.19 -7.067 9.62 -7.812 10.062 C-8.525 10.496 -9.237 10.93 -9.971 11.377 C-11.354 12.218 -12.742 13.051 -14.135 13.875 C-15.709 14.824 -17.241 15.841 -18.762 16.871 C-21 18 -21 18 -23.312 17.688 C-23.869 17.461 -24.426 17.234 -25 17 C-19.982 11.863 -14.263 8.142 -8.125 4.5 C-7.363 4.043 -6.601 3.585 -5.817 3.114 C-5.096 2.695 -4.375 2.276 -3.633 1.844 C-2.657 1.274 -2.657 1.274 -1.661 0.693 C-0.839 0.35 -0.839 0.35 0 0 Z"/>
<path transform="translate(235,186)" fill="#DCDCDB" d="M0 0 C13.338 4.783 22.513 15.612 29.066 27.715 C29.529 28.846 29.529 28.846 30 30 C29.67 30.66 29.34 31.32 29 32 C28.443 31.238 27.886 30.476 27.312 29.691 C20.087 19.914 12.879 11.379 3.223 3.848 C1 2 1 2 0 0 Z"/>
<path transform="translate(246,338)" fill="#F5F5F5" d="M0 0 C1.031 0.33 2.062 0.66 3.125 1 C10.326 2.807 19.376 3.703 26 0 C28.25 0.375 28.25 0.375 30 1 C24.017 6.185 20.192 7.449 12.164 7.43 C7.199 6.755 3.66 4.336 0 1 C0 0.67 0 0.34 0 0 Z"/>
<path transform="translate(169,220)" fill="#DCDCDB" d="M0 0 C0.557 0.743 1.114 1.485 1.688 2.25 C6.117 7.518 10.443 10.558 17.332 11.414 C18.481 11.484 19.629 11.553 20.812 11.625 C22.555 11.737 22.555 11.737 24.332 11.852 C25.212 11.901 26.093 11.95 27 12 C26 14 26 14 24.234 14.605 C17.544 15.787 11.664 15.642 5.695 12.199 C3.146 10.396 1.551 8.714 0 6 C-0.25 2.688 -0.25 2.688 0 0 Z"/>
<path transform="translate(178,286)" fill="#1E1D1F" d="M0 0 C0.99 0 1.98 0 3 0 C4.754 2.449 4.754 2.449 6.562 5.688 C7.162 6.743 7.761 7.799 8.379 8.887 C9.769 11.556 10.95 14.183 12 17 C9.812 17 9.812 17 7 16 C3.31 11.514 0 5.884 0 0 Z"/>
<path transform="translate(163,734)" fill="#0F0F10" d="M0 0 C0.33 0.66 0.66 1.32 1 2 C-1.246 2.7 -3.497 3.384 -5.75 4.062 C-7.003 4.445 -8.256 4.828 -9.547 5.223 C-12.674 5.927 -14.095 6.167 -17 5 C-17 3.667 -17 2.333 -17 1 C-11.046 -0.45 -6.012 -1.535 0 0 Z"/>
<path transform="translate(263,174)" fill="#DCDCDB" d="M0 0 C7.211 0.163 12.368 1.354 18 6 C20 8.312 20 8.312 21 10 C20.428 9.711 19.855 9.423 19.266 9.125 C12.945 5.987 6.91 3.508 0 2 C0 1.34 0 0.68 0 0 Z"/>
<path transform="translate(321,279)" fill="#1E1D1F" d="M0 0 C0.66 0 1.32 0 2 0 C2.363 5.802 1.257 9.64 -1 15 C-1.33 14.34 -1.66 13.68 -2 13 C-2.66 12.67 -3.32 12.34 -4 12 C-3.523 10.374 -3.043 8.749 -2.562 7.125 C-2.296 6.22 -2.029 5.315 -1.754 4.383 C-1 2 -1 2 0 0 Z"/>
<path transform="translate(772,322)" fill="#1E1D1F" d="M0 0 C-1.397 3.499 -2.713 4.709 -6.125 6.25 C-7.212 6.753 -7.212 6.753 -8.32 7.266 C-9.152 7.629 -9.152 7.629 -10 8 C-10.33 6.35 -10.66 4.7 -11 3 C-4.5 0 -4.5 0 0 0 Z"/>
<path transform="translate(228,429)" fill="#54575D" d="M0 0 C0.33 1.32 0.66 2.64 1 4 C-0.286 5.173 -1.579 6.338 -2.875 7.5 C-3.594 8.15 -4.314 8.799 -5.055 9.469 C-7 11 -7 11 -9 11 C-9.33 9.68 -9.66 8.36 -10 7 C-9.237 6.732 -8.474 6.464 -7.688 6.188 C-5.095 5.042 -3.912 4.003 -2 2 C-1.34 2 -0.68 2 0 2 C0 1.34 0 0.68 0 0 Z"/>
<path transform="translate(300,185)" fill="#CACBCC" d="M0 0 C2.777 1.867 5.402 3.892 8 6 C7.67 6.66 7.34 7.32 7 8 C6.515 7.662 6.031 7.325 5.531 6.977 C0.728 3.781 -3.34 2.112 -9 1 C-5.605 -1.138 -3.782 -1.375 0 0 Z"/>
<path transform="translate(173,290)" fill="#1E1D1F" d="M0 0 C2.899 2.395 3.502 4.312 4 8 C2.68 8.99 1.36 9.98 0 11 C-1.771 8.292 -2.011 7.107 -1.688 3.812 C-1 1 -1 1 0 0 Z"/>
<path transform="translate(80,603)" fill="#606669" d="M0 0 C1.142 3.427 0.909 5.611 0.562 9.188 C0.461 10.274 0.359 11.361 0.254 12.48 C0.128 13.728 0.128 13.728 0 15 C-0.66 13.68 -1.32 12.36 -2 11 C-2.99 11.33 -3.98 11.66 -5 12 C-4.547 10.561 -4.088 9.124 -3.625 7.688 C-3.242 6.487 -3.242 6.487 -2.852 5.262 C-2 3 -2 3 0 0 Z"/>
<path transform="translate(284,325)" fill="#0F0F10" d="M0 0 C2.719 0.375 3.842 0.842 5.812 2.812 C7 5 7 5 6.688 7.25 C6.461 7.827 6.234 8.405 6 9 C5.34 9 4.68 9 4 9 C0 3.706 0 3.706 0 0 Z"/>
<path transform="translate(199,193)" fill="#F5F5F5" d="M0 0 C5.61 0 11.22 0 17 0 C16.01 0.33 15.02 0.66 14 1 C14 1.66 14 2.32 14 3 C9.05 2.67 4.1 2.34 -1 2 C-0.67 1.34 -0.34 0.68 0 0 Z"/>
<path transform="translate(215.0625,180.875)" fill="#CACBCC" d="M0 0 C1.063 -0.003 2.127 -0.005 3.223 -0.008 C5.938 0.125 5.938 0.125 7.938 1.125 C7.608 1.785 7.278 2.445 6.938 3.125 C1.327 3.125 -4.282 3.125 -10.062 3.125 C-8.091 -0.818 -3.903 -0.009 0 0 Z"/>
<path transform="translate(852,640)" fill="#72767D" d="M0 0 C5.022 1.435 7.047 3.866 10 8 C10 8.99 10 9.98 10 11 C6.644 9.611 4.927 8.083 3 5 C3 4.34 3 3.68 3 3 C1.542 1.375 1.542 1.375 0 0 Z"/>
<path transform="translate(732,417)" fill="#0F0F10" d="M0 0 C0.66 0 1.32 0 2 0 C1.67 4.29 1.34 8.58 1 13 C0.34 13 -0.32 13 -1 13 C-1.224 11.586 -1.428 10.168 -1.625 8.75 C-1.741 7.961 -1.857 7.172 -1.977 6.359 C-2.003 3.678 -1.366 2.273 0 0 Z"/>
<path transform="translate(176,502)" fill="#1E1D1F" d="M0 0 C0.66 0.33 1.32 0.66 2 1 C0.25 6.75 0.25 6.75 -2 9 C-2 8.01 -2 7.02 -2 6 C-2.99 6.33 -3.98 6.66 -5 7 C-4.188 4.062 -4.188 4.062 -3 1 C-2.01 0.67 -1.02 0.34 0 0 Z"/>
<path transform="translate(809,212)" fill="#BEBEBE" d="M0 0 C0.66 0 1.32 0 2 0 C0.443 4.671 -2.084 8.087 -5 12 C-6.32 11.34 -7.64 10.68 -9 10 C-8.518 9.613 -8.036 9.227 -7.539 8.828 C-6.907 8.307 -6.276 7.787 -5.625 7.25 C-4.685 6.484 -4.685 6.484 -3.727 5.703 C-1.917 3.918 -0.999 2.321 0 0 Z"/>
<path transform="translate(217,556)" fill="#54575D" d="M0 0 C0 3.63 0 7.26 0 11 C-2.092 8.21 -3.576 6.068 -5 3 C-1.125 0 -1.125 0 0 0 Z"/>
<path transform="translate(66,750)" fill="#292729" d="M0 0 C2.31 0 4.62 0 7 0 C7 0.33 7 0.66 7 1 C9.31 1.33 11.62 1.66 14 2 C14 2.33 14 2.66 14 3 C9.38 3 4.76 3 0 3 C0 2.01 0 1.02 0 0 Z"/>
<path transform="translate(206.8125,210.375)" fill="#CACBCC" d="M0 0 C1.161 0.111 2.323 0.222 3.52 0.336 C4.4 0.431 5.28 0.527 6.188 0.625 C6.188 0.955 6.188 1.285 6.188 1.625 C-2.722 2.615 -2.722 2.615 -11.812 3.625 C-11.812 2.965 -11.812 2.305 -11.812 1.625 C-7.629 -0.439 -4.606 -0.465 0 0 Z"/>
<path transform="translate(832,630)" fill="#606669" d="M0 0 C-0.33 1.32 -0.66 2.64 -1 4 C-4.63 3.67 -8.26 3.34 -12 3 C-12 2.67 -12 2.34 -12 2 C-10.567 1.468 -9.128 0.95 -7.688 0.438 C-6.487 0.002 -6.487 0.002 -5.262 -0.441 C-3 -1 -3 -1 0 0 Z"/>
<path transform="translate(400,565)" fill="#1E1D1F" d="M0 0 C-0.99 0.495 -0.99 0.495 -2 1 C-2 1.66 -2 2.32 -2 3 C-1.01 3.33 -0.02 3.66 1 4 C-1.64 4.33 -4.28 4.66 -7 5 C-7 3.333 -7 1.667 -7 0 C-3.867 -1.044 -3.01 -0.934 0 0 Z"/>
<path transform="translate(146,735)" fill="#292729" d="M0 0 C2.64 0.33 5.28 0.66 8 1 C8 1.66 8 2.32 8 3 C5.646 4.429 4.52 5.087 1.75 4.625 C1.173 4.419 0.595 4.212 0 4 C0 2.667 0 1.333 0 0 Z"/>
<path transform="translate(320,657)" fill="#54575D" d="M0 0 C0.33 0 0.66 0 1 0 C1.061 0.843 1.121 1.686 1.184 2.555 C1.267 3.65 1.351 4.746 1.438 5.875 C1.519 6.966 1.6 8.056 1.684 9.18 C1.83 11.947 1.83 11.947 3 14 C1.02 14.99 1.02 14.99 -1 16 C-1.33 14.68 -1.66 13.36 -2 12 C-1.34 12 -0.68 12 0 12 C0 8.04 0 4.08 0 0 Z"/>
<path transform="translate(245,222)" fill="#CACBCC" d="M0 0 C3.367 1.393 4.986 2.979 7 6 C6.67 6.66 6.34 7.32 6 8 C3.69 6.02 1.38 4.04 -1 2 C-0.67 1.34 -0.34 0.68 0 0 Z"/>
<path transform="translate(311,717)" fill="#9FA1A3" d="M0 0 C0.33 0.66 0.66 1.32 1 2 C0.062 4.125 0.062 4.125 -1 6 C-2.98 6 -4.96 6 -7 6 C-7 5.34 -7 4.68 -7 4 C-6.031 3.526 -5.061 3.051 -4.062 2.562 C-1.195 1.298 -1.195 1.298 0 0 Z"/>
<path transform="translate(804,632)" fill="#72767D" d="M0 0 C-2 2 -2 2 -3.945 2.195 C-5.964 2.13 -7.982 2.065 -10 2 C-10 1.34 -10 0.68 -10 0 C-6.717 -1.642 -3.575 -0.519 0 0 Z"/>
<path transform="translate(812,628)" fill="#696D73" d="M0 0 C-0.33 0.99 -0.66 1.98 -1 3 C-4.3 2.67 -7.6 2.34 -11 2 C-11 1.67 -11 1.34 -11 1 C-7.266 0.121 -3.832 -0.089 0 0 Z"/>
<path transform="translate(829,300)" fill="#39383B" d="M0 0 C0.186 0.959 0.186 0.959 0.375 1.938 C0.684 2.958 0.684 2.958 1 4 C1.66 4.33 2.32 4.66 3 5 C2.67 6.32 2.34 7.64 2 9 C1.34 8.67 0.68 8.34 0 8 C-0.66 8.66 -1.32 9.32 -2 10 C-1.542 6.531 -1.109 3.326 0 0 Z"/>
<path transform="translate(802,210)" fill="#BEBEBE" d="M0 0 C0.66 0 1.32 0 2 0 C1.67 2.64 1.34 5.28 1 8 C0.01 8 -0.98 8 -2 8 C-2.33 7.34 -2.66 6.68 -3 6 C-2.066 3.969 -1.068 1.965 0 0 Z"/>
<path transform="translate(830,630)" fill="#696D73" d="M0 0 C6.152 0.586 6.152 0.586 8 1 C8.33 1.66 8.66 2.32 9 3 C7.35 2.67 5.7 2.34 4 2 C4 2.66 4 3.32 4 4 C3.01 4 2.02 4 1 4 C0.67 2.68 0.34 1.36 0 0 Z"/>
<path transform="translate(263,174)" fill="#A9AAAB" d="M0 0 C3.3 0.33 6.6 0.66 10 1 C9.34 1.66 8.68 2.32 8 3 C5.271 2.967 2.703 2.436 0 2 C0 1.34 0 0.68 0 0 Z"/>
<path transform="translate(744,394)" fill="#1E1D1F" d="M0 0 C1.98 0.495 1.98 0.495 4 1 C3.67 2.65 3.34 4.3 3 6 C1.68 5.67 0.36 5.34 -1 5 C-0.67 3.35 -0.34 1.7 0 0 Z"/>
<path transform="translate(246,338)" fill="#DCDCDB" d="M0 0 C2.64 0.66 5.28 1.32 8 2 C7.01 2.99 6.02 3.98 5 5 C3.35 3.35 1.7 1.7 0 0 Z"/>
</svg>