<svg version="1.1" xmlns="http://www.w3.org/2000/svg" width="1024" height="1024">
<path d="M0 0 C337.92 0 675.84 0 1024 0 C1024 337.92 1024 675.84 1024 1024 C686.08 1024 348.16 1024 0 1024 C0 686.08 0 348.16 0 0 Z " fill="#FEFEFE" transform="translate(0,0)"/>
<path d="M0 0 C1.229 -0.016 2.458 -0.032 3.725 -0.049 C17.921 -0.056 31.742 2.561 42.766 12.113 C45.876 15.518 47.582 18.78 48.688 23.312 C48.852 22.426 49.018 21.539 49.188 20.625 C51.262 16.044 54.181 14.372 58.688 12.312 C61.723 11.621 64.583 11.548 67.688 11.625 C68.923 11.642 68.923 11.642 70.184 11.66 C78.794 12.006 85.968 14.687 93.688 18.312 C94.768 18.792 95.848 19.272 96.961 19.766 C124.04 32.435 142.032 57.004 152.474 84.373 C159.097 102.888 160.8 121.711 160.887 141.264 C160.899 143.748 160.918 146.231 160.94 148.715 C161.001 155.77 161.055 162.825 161.089 169.881 C161.202 192.217 162.093 214.117 164.688 236.312 C164.972 238.923 165.249 241.535 165.525 244.147 C165.888 247.538 166.287 250.925 166.688 254.312 C166.84 255.599 166.992 256.885 167.148 258.211 C167.847 263.947 168.582 269.669 169.445 275.383 C170.83 284.586 172.025 293.677 172.397 302.984 C172.509 306.57 172.509 306.57 173.19 310.076 C174.337 315.231 173.873 320.73 173.873 325.999 C173.875 328.211 173.893 330.423 173.912 332.635 C173.959 344.231 172.753 355.232 169.625 366.438 C169.283 367.678 168.942 368.918 168.59 370.195 C167.996 372.246 167.363 374.287 166.688 376.312 C167.426 376.63 168.165 376.947 168.926 377.273 C185.891 385.077 196.598 398.668 203.035 415.926 C205.503 422.95 207.554 429.945 208.688 437.312 C208.854 438.368 209.021 439.424 209.193 440.512 C211.064 454.073 211.041 467.607 211.005 481.278 C211 483.334 210.998 485.391 210.997 487.448 C210.977 507.789 210.42 528.061 209.312 548.375 C209.249 549.534 209.186 550.694 209.121 551.888 C208.451 563.912 207.588 575.9 206.443 587.888 C205.764 595.118 205.255 602.354 204.793 609.602 C204.72 610.753 204.646 611.904 204.57 613.09 C204.496 614.261 204.421 615.431 204.344 616.636 C196.909 733.162 196.909 733.162 171.809 760.465 C165.904 765.609 158.922 769.419 151.688 772.312 C222.473 772.808 222.473 772.808 294.688 773.312 C295.847 775.631 295.814 776.967 295.817 779.547 C295.822 780.858 295.822 780.858 295.826 782.196 C295.824 783.142 295.822 784.088 295.82 785.062 C295.821 786.032 295.822 787.001 295.823 787.999 C295.824 790.05 295.822 792.101 295.818 794.152 C295.813 797.3 295.818 800.447 295.824 803.594 C295.824 805.583 295.822 807.573 295.82 809.562 C295.822 810.508 295.824 811.454 295.826 812.429 C295.823 813.303 295.82 814.177 295.817 815.078 C295.816 816.235 295.816 816.235 295.814 817.415 C295.688 819.313 295.688 819.313 294.688 821.312 C270.268 821.312 245.847 821.312 220.688 821.312 C220.767 838.949 220.767 838.949 220.868 856.585 C220.874 858.792 220.879 861 220.883 863.207 C220.893 864.358 220.903 865.508 220.914 866.694 C220.914 867.79 220.914 868.886 220.915 870.015 C220.919 870.968 220.923 871.92 220.928 872.902 C220.688 875.312 220.688 875.312 218.688 878.312 C216.139 878.687 216.139 878.687 212.835 878.685 C211.578 878.692 210.32 878.699 209.025 878.706 C207.614 878.698 206.203 878.69 204.792 878.682 C203.299 878.684 201.806 878.687 200.313 878.692 C196.177 878.701 192.042 878.692 187.906 878.679 C183.419 878.669 178.933 878.676 174.446 878.681 C166.572 878.687 158.697 878.682 150.823 878.67 C139.114 878.652 127.405 878.651 115.696 878.654 C96.002 878.658 76.308 878.648 56.615 878.63 C37.107 878.612 17.599 878.6 -1.909 878.597 C-3.727 878.597 -3.727 878.597 -5.581 878.597 C-11.733 878.595 -17.885 878.595 -24.038 878.594 C-67.651 878.587 -111.264 878.567 -154.876 878.539 C-197.254 878.511 -239.632 878.49 -282.009 878.477 C-283.315 878.477 -284.62 878.477 -285.965 878.476 C-299.076 878.472 -312.186 878.468 -325.297 878.465 C-352.006 878.457 -378.715 878.449 -405.424 878.44 C-406.652 878.439 -407.88 878.439 -409.145 878.438 C-491.201 878.411 -573.257 878.363 -655.312 878.312 C-657.089 874.985 -657.558 872.789 -657.54 868.993 C-657.539 867.932 -657.539 866.872 -657.539 865.779 C-657.529 864.64 -657.518 863.501 -657.508 862.328 C-657.505 861.157 -657.502 859.987 -657.499 858.78 C-657.488 855.041 -657.463 851.302 -657.438 847.562 C-657.427 845.027 -657.418 842.492 -657.41 839.957 C-657.388 833.742 -657.355 827.527 -657.312 821.312 C-657.872 821.317 -658.431 821.321 -659.007 821.326 C-664.814 821.37 -670.622 821.4 -676.429 821.422 C-678.598 821.432 -680.767 821.446 -682.936 821.463 C-686.048 821.488 -689.161 821.499 -692.273 821.508 C-693.247 821.518 -694.221 821.528 -695.225 821.539 C-696.126 821.539 -697.027 821.539 -697.955 821.54 C-698.75 821.544 -699.545 821.548 -700.364 821.553 C-702.312 821.312 -702.312 821.312 -704.312 819.312 C-704.566 817.415 -704.566 817.415 -704.571 815.078 C-704.581 813.767 -704.581 813.767 -704.59 812.429 C-704.586 811.483 -704.582 810.537 -704.578 809.562 C-704.58 808.593 -704.582 807.624 -704.584 806.626 C-704.585 804.575 -704.582 802.524 -704.573 800.473 C-704.563 797.325 -704.573 794.179 -704.586 791.031 C-704.585 789.042 -704.582 787.052 -704.578 785.062 C-704.584 783.644 -704.584 783.644 -704.59 782.196 C-704.584 781.322 -704.578 780.448 -704.571 779.547 C-704.569 778.39 -704.569 778.39 -704.566 777.21 C-704.312 775.312 -704.312 775.312 -702.312 773.312 C-699.349 773.066 -699.349 773.066 -695.466 773.072 C-694.398 773.069 -694.398 773.069 -693.308 773.067 C-690.909 773.064 -688.511 773.075 -686.113 773.085 C-684.398 773.086 -682.684 773.086 -680.969 773.085 C-676.304 773.084 -671.639 773.096 -666.974 773.11 C-662.103 773.122 -657.231 773.123 -652.36 773.126 C-643.131 773.132 -633.901 773.148 -624.672 773.168 C-614.167 773.191 -603.661 773.202 -593.156 773.212 C-571.541 773.233 -549.927 773.268 -528.312 773.312 C-540.109 740.818 -540.109 740.818 -552.014 708.363 C-559.028 689.338 -565.969 670.287 -572.871 651.221 C-573.552 649.34 -574.234 647.46 -574.915 645.58 C-579.341 633.358 -583.759 621.134 -588.05 608.863 C-589.182 605.678 -590.357 602.514 -591.55 599.351 C-592.836 595.915 -594.07 592.461 -595.309 589.008 C-595.873 587.439 -596.437 585.87 -597.002 584.301 C-597.876 581.87 -598.749 579.44 -599.621 577.008 C-600.474 574.633 -601.328 572.257 -602.184 569.883 C-602.457 569.124 -602.73 568.365 -603.011 567.584 C-604.757 562.763 -606.599 557.998 -608.619 553.284 C-609.873 549.718 -609.822 547.069 -609.312 543.312 C-607.245 540.033 -605.541 538.465 -602.312 536.312 C-599.648 536.051 -599.648 536.051 -596.371 536.034 C-594.51 536.017 -594.51 536.017 -592.61 536 C-591.233 535.998 -589.855 535.996 -588.478 535.994 C-587.029 535.984 -585.58 535.974 -584.132 535.963 C-580.196 535.936 -576.26 535.921 -572.325 535.908 C-568.213 535.892 -564.101 535.865 -559.989 535.84 C-552.201 535.793 -544.413 535.756 -536.625 535.723 C-527.759 535.685 -518.894 535.635 -510.028 535.585 C-491.79 535.482 -473.551 535.392 -455.312 535.312 C-456.117 534.694 -456.921 534.075 -457.75 533.438 C-460.313 531.312 -460.313 531.312 -461.312 529.312 C-461.48 527.289 -461.48 527.289 -461.5 524.938 C-461.514 524.167 -461.528 523.396 -461.543 522.602 C-461.291 520.094 -460.564 518.48 -459.312 516.312 C-460.519 515.57 -460.519 515.57 -461.75 514.812 C-464.529 512.102 -465.3 510.292 -465.598 506.418 C-465.072 502.536 -462.811 500.237 -460.312 497.312 C-461.519 496.137 -461.519 496.137 -462.75 494.938 C-466.213 491.39 -466.708 489.349 -466.672 484.355 C-466.067 480.914 -463.991 479.353 -461.312 477.312 C-460.653 477.312 -459.993 477.312 -459.312 477.312 C-459.395 476.426 -459.477 475.539 -459.562 474.625 C-459.238 470.331 -458.587 469.13 -455.312 466.312 C-451.704 465.015 -448.061 464.107 -444.312 463.312 C-444.333 462.728 -444.354 462.143 -444.376 461.54 C-444.459 458.881 -444.511 456.222 -444.562 453.562 C-444.596 452.642 -444.63 451.722 -444.664 450.773 C-444.763 443.949 -444.763 443.949 -442.496 440.746 C-432.621 434.263 -417.86 436.149 -406.496 436.145 C-404.754 436.141 -403.011 436.138 -401.269 436.134 C-397.623 436.128 -393.978 436.127 -390.333 436.127 C-385.706 436.127 -381.079 436.114 -376.452 436.096 C-372.853 436.085 -369.254 436.083 -365.655 436.084 C-363.951 436.083 -362.248 436.078 -360.545 436.07 C-331.342 435.949 -331.342 435.949 -322.312 441.312 C-321.101 443.736 -321.183 445.297 -321.18 448.004 C-321.178 448.949 -321.177 449.895 -321.176 450.869 C-321.18 451.861 -321.184 452.853 -321.188 453.875 C-321.184 454.84 -321.18 455.805 -321.176 456.799 C-321.184 462.717 -321.549 468.443 -322.312 474.312 C-321.281 474.395 -320.25 474.477 -319.188 474.562 C-312.769 475.805 -308.206 479.364 -304.461 484.645 C-301.666 491.138 -301.849 499.6 -304.426 506.137 C-308.673 512.88 -314.9 518.348 -322.312 521.312 C-323.632 521.312 -324.952 521.312 -326.312 521.312 C-327.029 530.31 -327.663 539.311 -328.242 548.318 C-328.377 550.404 -328.514 552.49 -328.65 554.576 C-328.737 555.917 -328.824 557.257 -328.91 558.598 C-328.988 559.793 -329.065 560.988 -329.145 562.219 C-329.273 564.581 -329.312 566.947 -329.312 569.312 C-328.652 568.982 -327.993 568.653 -327.312 568.312 C-322.189 567.789 -319.635 568.943 -315.434 571.82 C-314.348 572.56 -313.262 573.3 -312.143 574.062 C-311.585 574.453 -311.028 574.844 -310.453 575.246 C-308.762 576.429 -307.056 577.587 -305.346 578.742 C-291.739 588.121 -291.739 588.121 -290 596.125 C-287.075 604.054 -278.497 606.959 -271.312 610.312 C-270.236 610.818 -269.16 611.323 -268.051 611.844 C-263.061 614.029 -258.039 615.725 -252.812 617.25 C-235.624 622.433 -221.735 632.873 -212.492 648.363 C-209.562 653.835 -207.461 658.071 -208.312 664.312 C-210.97 664.236 -212.731 663.907 -214.627 661.969 C-216.023 660.121 -217.332 658.234 -218.625 656.312 C-219.6 654.933 -220.578 653.555 -221.559 652.18 C-222.032 651.512 -222.504 650.844 -222.992 650.155 C-233.518 635.469 -247.163 629.141 -263.516 622.737 C-283.915 614.71 -283.915 614.71 -289.312 609.312 C-289.663 610.509 -290.014 611.705 -290.375 612.938 C-296.681 631.651 -308.788 647.754 -326.312 657.312 C-326.973 657.312 -327.632 657.312 -328.312 657.312 C-326.905 661.482 -325.485 665.648 -324.062 669.812 C-323.667 670.986 -323.271 672.159 -322.863 673.367 C-318.665 686.984 -318.665 686.984 -308.375 695.875 C-307.767 696.229 -307.159 696.583 -306.533 696.947 C-303.925 698.379 -301.857 699.32 -298.855 699.277 C-295.26 697.913 -291.945 696.133 -288.562 694.312 C-282.72 691.26 -278.022 689.312 -271.312 689.312 C-271.271 688.261 -271.23 687.209 -271.188 686.125 C-270.289 682.209 -269.366 680.858 -266.273 678.355 C-252.168 670.853 -233.604 675.632 -219.165 679.56 C-215.046 680.647 -210.898 681.595 -206.749 682.557 C-197.4 684.732 -188.245 687.159 -179.125 690.145 C-172.281 692.241 -165.298 693.765 -158.312 695.312 C-158.038 694.562 -157.763 693.812 -157.48 693.039 C-156.402 690.522 -155.289 688.83 -153.625 686.688 C-141.423 668.728 -135.253 639.681 -138.312 618.312 C-140.292 610.495 -143.055 602.971 -145.832 595.406 C-148.237 588.806 -149.92 582.191 -151.312 575.312 C-151.499 574.507 -151.685 573.702 -151.877 572.872 C-154.669 556.458 -153.417 536.345 -149.312 520.312 C-149.124 519.563 -148.936 518.813 -148.743 518.041 C-142.173 492.644 -130.602 468.877 -119.312 445.312 C-118.865 444.367 -118.418 443.421 -117.957 442.447 C-116.857 440.126 -115.745 437.811 -114.625 435.5 C-114.323 434.861 -114.02 434.221 -113.708 433.562 C-112.863 431.855 -112.863 431.855 -111.312 429.312 C-110.322 428.983 -109.332 428.652 -108.312 428.312 C-107.873 435.661 -108.886 441.44 -111.438 448.312 C-111.784 449.28 -112.13 450.247 -112.487 451.243 C-116.066 461.039 -120.143 470.632 -124.166 480.252 C-128.289 490.132 -132.157 500.035 -135.562 510.188 C-135.921 511.243 -136.279 512.298 -136.648 513.386 C-138.648 519.52 -139.996 525.53 -140.909 531.918 C-141.312 534.312 -141.312 534.312 -142.312 536.312 C-143.355 542.49 -143.523 548.749 -143.562 555 C-143.583 555.796 -143.604 556.592 -143.625 557.412 C-143.709 570.719 -139.219 583.409 -135.188 595.938 C-134.503 598.084 -133.821 600.232 -133.139 602.379 C-132.528 604.302 -131.912 606.222 -131.296 608.143 C-123.279 633.971 -130.973 664.495 -143.094 687.727 C-144.966 690.911 -146.698 693.698 -149.312 696.312 C-145.688 696.341 -142.063 696.359 -138.438 696.375 C-137.405 696.383 -136.372 696.392 -135.309 696.4 C-134.322 696.404 -133.336 696.407 -132.32 696.41 C-131.409 696.415 -130.498 696.421 -129.559 696.426 C-127.276 696.461 -127.276 696.461 -125.312 695.312 C-125.808 694.776 -126.303 694.24 -126.812 693.688 C-128.78 690.572 -128.905 688.941 -128.312 685.312 C-123.851 679.539 -118.489 678.339 -111.531 677.348 C-110.449 677.189 -109.366 677.03 -108.251 676.866 C-106.549 676.623 -106.549 676.623 -104.812 676.375 C-97.653 675.321 -90.553 674.254 -83.5 672.625 C-77.137 671.16 -70.826 670.626 -64.312 670.312 C-64.251 669.168 -64.251 669.168 -64.188 668 C-63.312 665.312 -63.312 665.312 -60.734 663.594 C-57.034 662.208 -53.45 661.397 -49.562 660.812 C-48.418 660.63 -48.418 660.63 -47.25 660.443 C-39.125 659.194 -30.952 658.337 -22.781 657.438 C-15.527 656.621 -8.455 655.517 -1.301 654.059 C2.631 653.283 6.586 652.762 10.558 652.238 C19.943 651 28.67 649.262 37.688 646.312 C38.478 646.089 39.268 645.866 40.082 645.637 C46.111 643.866 51.299 640.833 56.672 637.641 C59.977 636.185 61.32 636.19 64.688 637.312 C64.75 639.938 64.75 639.938 63.688 643.312 C53.93 652.732 38.829 656.164 25.938 658.84 C23.66 659.318 21.391 659.826 19.121 660.34 C0.029 664.604 -19.349 666.733 -38.762 668.955 C-39.48 669.038 -40.198 669.12 -40.938 669.205 C-42.906 669.431 -44.875 669.655 -46.844 669.879 C-50.019 670.276 -53.161 670.76 -56.312 671.312 C-56.972 673.293 -57.633 675.273 -58.312 677.312 C-59.375 677.506 -60.437 677.699 -61.531 677.898 C-62.958 678.161 -64.385 678.424 -65.812 678.688 C-66.509 678.814 -67.205 678.94 -67.922 679.07 C-68.618 679.199 -69.314 679.328 -70.031 679.461 C-70.974 679.634 -70.974 679.634 -71.936 679.81 C-74 680.246 -76.047 680.761 -78.089 681.29 C-82.082 682.298 -86.095 682.965 -90.172 683.531 C-91.632 683.743 -93.091 683.956 -94.551 684.168 C-96.817 684.493 -99.084 684.816 -101.351 685.135 C-103.563 685.449 -105.774 685.771 -107.984 686.094 C-108.66 686.187 -109.337 686.279 -110.033 686.375 C-113.469 686.881 -116.318 687.519 -119.312 689.312 C-118.852 690.028 -118.852 690.028 -118.382 690.759 C-108.989 705.458 -102.235 718.253 -101.812 736 C-101.758 736.924 -101.704 737.847 -101.648 738.799 C-101.459 748.824 -105.408 757.273 -109.312 766.312 C-77.803 765.603 -77.803 765.603 -46.312 764.312 C-45.509 762.672 -44.721 761.025 -43.938 759.375 C-43.497 758.458 -43.056 757.542 -42.602 756.598 C-39.544 748.806 -38.952 741.32 -39 733 C-39.006 731.98 -39.011 730.959 -39.017 729.908 C-39.134 722.636 -39.825 716.187 -42.312 709.312 C-42.522 708.699 -42.731 708.085 -42.947 707.452 C-46.356 697.46 -50.431 688.135 -56.312 679.312 C-55.937 676.625 -55.937 676.625 -55.312 674.312 C-53.663 673.982 -52.013 673.653 -50.312 673.312 C-33.237 695.03 -28.428 720.207 -30.312 747.312 C-31.45 754.52 -34.374 760.674 -37.911 767.011 C-38.361 767.818 -38.811 768.624 -39.274 769.455 C-39.617 770.068 -39.96 770.681 -40.312 771.312 C-17.062 771.35 6.188 771.317 29.438 771.062 C30.253 771.054 31.068 771.045 31.908 771.036 C54.118 770.784 76.225 770.192 98.375 768.438 C99.404 768.356 100.433 768.275 101.494 768.192 C112.755 767.281 123.982 766.099 135.203 764.789 C136.247 764.669 137.29 764.549 138.365 764.425 C151.888 762.793 161.057 759.48 169.812 748.625 C183.973 728.593 187.535 702.934 190.125 679.125 C190.227 678.211 190.328 677.297 190.433 676.355 C193.515 648.453 195.58 620.456 197.537 592.456 C197.687 590.313 197.839 588.17 197.991 586.027 C200.295 553.509 202.063 521.043 202.121 488.435 C202.125 486.415 202.134 484.394 202.144 482.374 C202.233 452.872 201.32 418.28 179.422 395.719 C169.483 386.973 156.3 381.249 143.008 381.297 C141.794 381.3 141.794 381.3 140.555 381.304 C139.939 381.307 139.323 381.31 138.688 381.312 C138.453 381.849 138.218 382.386 137.976 382.939 C131.833 396.804 124.648 409.098 115.688 421.312 C115.109 422.104 114.531 422.895 113.935 423.711 C111.006 427.712 108.062 431.7 105.109 435.684 C87.536 459.428 72.247 482.047 72.438 512.625 C72.43 513.886 72.422 515.148 72.414 516.447 C72.417 517.657 72.419 518.867 72.422 520.113 C72.424 521.208 72.426 522.303 72.429 523.431 C72.682 526.257 73.225 527.914 74.688 530.312 C75.005 529.637 75.323 528.961 75.65 528.265 C77.095 525.195 78.547 522.129 80 519.062 C80.5 517.999 80.999 516.936 81.514 515.84 C82 514.815 82.487 513.79 82.988 512.734 C83.433 511.792 83.879 510.849 84.337 509.878 C85.613 507.454 86.882 505.372 88.688 503.312 C89.347 503.312 90.008 503.312 90.688 503.312 C91.619 512.335 88.836 519.972 85.812 528.312 C85.308 529.741 84.804 531.17 84.301 532.6 C80.882 542.257 77.217 551.813 73.47 561.347 C68.717 573.57 64.663 586.027 60.595 598.491 C59.518 601.789 58.432 605.083 57.327 608.372 C57.104 609.036 56.881 609.701 56.651 610.385 C56.038 612.209 55.422 614.032 54.806 615.855 C53.631 619.488 52.583 623.132 51.562 626.812 C50.25 631.519 48.787 635.903 46.688 640.312 C45.367 640.312 44.048 640.312 42.688 640.312 C41.575 618.554 48.989 591.71 58.688 572.312 C57.995 572.359 57.303 572.405 56.59 572.453 C38.621 573.116 19.638 565.498 5.688 554.312 C4.982 553.77 4.277 553.227 3.551 552.668 C-12.469 539.639 -19.232 518.168 -21.312 498.312 C-22.184 482.395 -22.058 466.142 -19.629 450.371 C-19.29 448.167 -18.988 445.96 -18.688 443.75 C-16.093 425.402 -11.512 407.76 -5.312 390.312 C-6.492 390.355 -7.671 390.398 -8.887 390.441 C-22.018 390.421 -34.381 382.255 -43.625 373.562 C-48.323 368.692 -51.457 363.418 -54.312 357.312 C-67.432 357.901 -67.432 357.901 -80.312 360.312 C-81.281 360.556 -82.249 360.8 -83.246 361.051 C-97.293 364.954 -109.608 371.376 -120.312 381.312 C-121.09 382.021 -121.867 382.73 -122.668 383.461 C-128.666 389.18 -133.542 395.555 -138.312 402.312 C-139.415 403.856 -139.415 403.856 -140.539 405.43 C-149.402 418.128 -156.761 431.812 -164.312 445.312 C-164.647 445.909 -164.981 446.506 -165.325 447.12 C-174.168 462.919 -182.766 478.842 -191.229 494.847 C-195.284 502.513 -199.384 510.15 -203.562 517.75 C-207.756 525.382 -211.814 533.077 -215.812 540.812 C-221.319 551.457 -226.955 562.021 -232.759 572.506 C-233.838 574.455 -234.914 576.405 -235.987 578.357 C-237.691 581.451 -239.406 584.539 -241.125 587.625 C-241.64 588.562 -242.155 589.498 -242.686 590.463 C-251.943 606.966 -251.943 606.966 -259.312 611.312 C-262.625 611.562 -262.625 611.562 -265.312 611.312 C-263.736 606.807 -261.3 602.997 -258.75 599 C-251.296 587.068 -244.915 574.552 -238.374 562.107 C-235.332 556.329 -232.212 550.595 -229.062 544.875 C-224.869 537.243 -220.811 529.549 -216.812 521.812 C-212.304 513.091 -207.698 504.434 -202.97 495.83 C-199.206 488.973 -195.512 482.079 -191.835 475.175 C-185.815 463.881 -179.639 452.687 -173.297 441.57 C-170.975 437.498 -168.709 433.399 -166.465 429.283 C-147.93 395.399 -126.308 363.747 -87.487 351.951 C-77.466 349.094 -67.207 347.638 -56.875 346.438 C-45.699 344.982 -30.408 342.931 -22.312 334.312 C-20.243 331.11 -18.71 327.853 -17.312 324.312 C-16.963 323.536 -16.614 322.76 -16.254 321.961 C-15.081 318.66 -14.642 315.471 -14.188 312 C-14.02 310.746 -13.852 309.491 -13.68 308.199 C-13.559 307.247 -13.437 306.294 -13.312 305.312 C-13.921 305.382 -14.529 305.452 -15.156 305.523 C-29.693 306.421 -42.251 299.246 -52.878 289.942 C-73.06 271.922 -85.159 245.223 -87.312 218.312 C-87.938 203.754 -88.01 189.477 -84.312 175.312 C-84.104 174.486 -83.895 173.66 -83.68 172.809 C-82.283 167.293 -80.821 161.798 -79.312 156.312 C-79.905 156.041 -80.498 155.769 -81.109 155.488 C-93.025 149.129 -99.495 133.507 -103.312 121.312 C-107.539 107.215 -106.889 89.182 -102.312 75.312 C-102.119 74.703 -101.926 74.093 -101.727 73.465 C-96.495 57.221 -88.264 44.389 -76.312 32.312 C-75.646 31.585 -74.98 30.858 -74.293 30.109 C-55.576 10.092 -26.834 -0.07 0 0 Z " fill="#030303" transform="translate(715.3125,145.6875)"/>
<path d="M0 0 C325.05 0 650.1 0 985 0 C985 10.89 985 21.78 985 33 C659.95 33 334.9 33 0 33 C0 22.11 0 11.22 0 0 Z " fill="#FEFEFE" transform="translate(18,927)"/>
<path d="M0 0 C0.026 1.137 0.052 2.274 0.078 3.445 C1.21 38.449 20.296 71.596 45.199 95.473 C47.714 97.968 47.714 97.968 50 99 C50 101.97 50 104.94 50 108 C53.409 106.864 53.757 106.241 55.688 103.375 C59.194 98.497 63.557 93.721 69 91 C73.056 90.61 75.453 90.726 79.125 92.562 C83.369 96.161 86.309 99.001 87.59 104.559 C88.416 115.241 83.06 124.792 76.664 132.996 C70.597 139.446 62.769 145.889 53.886 147.6 C50.222 148.377 47.291 149.195 44 151 C41.272 155.299 40.297 159.818 39.188 164.75 C38.498 167.396 37.768 170.031 37.043 172.668 C36.703 173.937 36.363 175.206 36.013 176.513 C30.533 195.373 17.397 212.209 0.59 222.172 C-13.906 229.934 -32.126 232.794 -48.258 229.199 C-67.483 223.359 -80.732 209.341 -90 192 C-107.497 157.059 -104.593 122.62 -94.965 85.848 C-93.855 81.42 -92.918 76.971 -92 72.5 C-91.339 69.332 -90.672 66.166 -90 63 C-89.851 62.293 -89.702 61.586 -89.548 60.858 C-86.547 46.917 -81.78 33.417 -73 22 C-72.078 20.757 -72.078 20.757 -71.137 19.488 C-68.924 16.911 -66.84 15.226 -64 13.375 C-63.154 12.805 -62.309 12.235 -61.438 11.648 C-50.646 6.473 -39.51 6.567 -27.777 6.561 C-18.061 6.411 -8.435 0 0 0 Z " fill="#FEFEFE" transform="translate(738,214)"/>
<path d="M0 0 C0.086 5.86 -0.181 11.446 -0.938 17.25 C-1.754 23.979 -2.235 30.665 -2.5 37.438 C-2.766 44.076 -3.194 50.648 -3.938 57.25 C-5.619 72.208 -6.858 87.208 -7.438 102.25 C-7.789 111.118 -8.594 119.925 -9.5 128.75 C-9.631 130.043 -9.762 131.337 -9.896 132.669 C-10.023 133.866 -10.15 135.063 -10.281 136.297 C-10.395 137.373 -10.509 138.449 -10.627 139.558 C-11 142 -11 142 -12 143 C-14.016 143.234 -16.038 143.413 -18.062 143.562 C-19.167 143.646 -20.272 143.73 -21.41 143.816 C-22.265 143.877 -23.119 143.938 -24 144 C-24.316 143.081 -24.316 143.081 -24.639 142.143 C-33.112 109.181 -33.112 109.181 -52 84 C-55.06 83.843 -58.101 83.741 -61.164 83.684 C-62.071 83.663 -62.978 83.642 -63.913 83.621 C-66.817 83.555 -69.721 83.496 -72.625 83.438 C-74.591 83.394 -76.557 83.351 -78.523 83.307 C-83.349 83.199 -88.174 83.098 -93 83 C-93 82.67 -93 82.34 -93 82 C-92.348 81.841 -91.695 81.683 -91.023 81.52 C-85.194 79.963 -81.051 78.57 -77 74 C-75.884 70.257 -75.38 68.207 -77.188 64.688 C-79.034 62.968 -80.676 61.962 -83 61 C-82.732 59.783 -82.464 58.566 -82.188 57.312 C-81.731 53.683 -81.81 53.257 -84.125 50.125 C-86.745 48.189 -88.909 46.972 -92 46 C-91.34 45.34 -90.68 44.68 -90 44 C-87.456 40.184 -87.216 37.467 -88 33 C-89.351 30.075 -89.351 30.075 -91 28 C-90.505 27.464 -90.01 26.928 -89.5 26.375 C-87.557 23.299 -87.478 21.581 -88 18 C-90.737 14.169 -94.559 12.308 -99 11 C-102.01 10.501 -104.952 10.234 -108 10 C-108 7.03 -108 4.06 -108 1 C-106.773 1.002 -105.546 1.004 -104.282 1.007 C-92.717 1.027 -81.152 1.042 -69.587 1.052 C-63.641 1.057 -57.696 1.064 -51.75 1.075 C-46.012 1.086 -40.274 1.092 -34.535 1.095 C-32.346 1.097 -30.158 1.1 -27.969 1.106 C-24.902 1.113 -21.836 1.114 -18.769 1.114 C-17.865 1.117 -16.961 1.121 -16.029 1.124 C-10.613 1.116 -5.362 0 0 0 Z " fill="#FEFEFE" transform="translate(387,599)"/>
<path d="M0 0 C0.772 0.006 1.544 0.011 2.34 0.017 C22.012 0.591 41.45 6.993 60.188 12.5 C84.01 19.385 106.209 25.165 131.188 21.5 C138.429 35.091 141.752 45.999 141.188 61.5 C122.198 72.47 90.97 65.141 71.062 59.938 C69.517 59.523 67.973 59.105 66.43 58.684 C65.7 58.486 64.97 58.288 64.219 58.084 C62.458 57.578 60.724 56.984 58.996 56.375 C36.682 51.248 14.337 56.009 -4.848 67.609 C-7.597 69.212 -7.597 69.212 -8.812 70.5 C-10.832 70.572 -12.854 70.584 -14.875 70.562 C-15.98 70.553 -17.084 70.544 -18.223 70.535 C-19.077 70.524 -19.932 70.512 -20.812 70.5 C-16.043 59.228 -3.492 52.112 7.301 47.559 C15.776 44.451 24.169 42.122 33.188 41.5 C32.858 40.84 32.528 40.18 32.188 39.5 C12.55 38.119 -5.623 45.901 -20.609 58.406 C-22.938 60.619 -24.951 62.966 -27 65.438 C-29.435 68.313 -30.962 70.032 -34.75 70.625 C-37.812 70.5 -37.812 70.5 -38.812 69.5 C-38.812 60.629 -34.282 56.002 -28.254 49.918 C-20.421 42.508 -12.739 36.912 -2.238 34.152 C0.099 33.524 2.299 32.727 4.562 31.875 C9.973 30.02 15.51 29.779 21.188 29.5 C20.692 28.51 20.692 28.51 20.188 27.5 C2.284 26.507 -16.131 31.438 -29.742 43.584 C-32.148 45.843 -34.481 48.165 -36.812 50.5 C-38.486 52.077 -40.173 53.641 -41.875 55.188 C-42.567 55.831 -43.259 56.474 -43.973 57.137 C-45.812 58.5 -45.812 58.5 -48.812 58.5 C-50.3 55.525 -50.244 53.827 -49.812 50.5 C-48.151 47.533 -46.05 45.05 -43.812 42.5 C-43.244 41.837 -42.676 41.175 -42.09 40.492 C-32.909 30.551 -19.203 22.805 -5.812 20.5 C-5.812 19.84 -5.812 19.18 -5.812 18.5 C-24.264 18.577 -37.914 28.592 -50.816 40.812 C-52.812 42.5 -52.812 42.5 -54.812 42.5 C-55.858 39.67 -56.264 38.423 -55.812 35.5 C-47.853 23.321 -33.92 15.905 -19.995 12.857 C-12.419 11.617 -4.583 12.105 3.062 12.25 C4.926 12.27 6.789 12.288 8.652 12.305 C13.165 12.348 17.676 12.417 22.188 12.5 C22.517 11.51 22.847 10.52 23.188 9.5 C15.175 7.336 7.397 7.071 -0.875 6.875 C-2.231 6.837 -3.587 6.798 -4.943 6.758 C-8.233 6.664 -11.523 6.578 -14.812 6.5 C-13.812 3.5 -13.812 3.5 -11.238 1.844 C-7.391 0.335 -4.075 -0.036 0 0 Z " fill="#FEFEFE" transform="translate(464.8125,827.5)"/>
<path d="M0 0 C0.99 0.495 0.99 0.495 2 1 C1.71 1.545 1.42 2.09 1.121 2.651 C-14.535 32.135 -28.069 61.826 -40 93 C-52.185 93.59 -63.048 89.723 -72.52 81.926 C-77.442 77.248 -81.352 72.294 -84 66 C-84 65.34 -84 64.68 -84 64 C-83.053 63.797 -83.053 63.797 -82.086 63.59 C-71.495 61.041 -58.313 56.487 -52 47 C-47.37 38.523 -45.035 30.66 -45 21 C-39.331 22.804 -39.331 22.804 -37.227 24.051 C-34.139 25.367 -31.471 25.302 -28.125 25.312 C-26.334 25.338 -26.334 25.338 -24.508 25.363 C-19.99 24.895 -16.568 23.724 -13.461 20.309 C-13.103 19.691 -12.744 19.074 -12.375 18.438 C-11.969 17.74 -11.563 17.043 -11.145 16.324 C-9.925 13.847 -8.995 11.348 -8.062 8.75 C-6.286 3.998 -4.502 2.251 0 0 Z " fill="#FAF6F1" transform="translate(753,435)"/>
<path d="M0 0 C2.365 0.661 4.732 1.317 7.099 1.972 C8.597 2.39 10.093 2.815 11.587 3.249 C13.718 3.861 15.856 4.436 18 5 C18.688 5.194 19.377 5.388 20.086 5.588 C28.941 7.758 38.075 7.216 47.125 7.125 C48.862 7.115 50.599 7.106 52.336 7.098 C56.557 7.076 60.779 7.041 65 7 C64.67 7.99 64.34 8.98 64 10 C63.648 15.449 63.629 18.505 67 23 C67.99 24.32 68.98 25.64 70 27 C42.94 27 15.88 27 -12 27 C-12.33 21.72 -12.66 16.44 -13 11 C-16.94 6.773 -16.94 6.773 -21.86 6.454 C-23.301 6.425 -23.301 6.425 -24.772 6.394 C-25.801 6.393 -26.83 6.392 -27.891 6.391 C-28.95 6.374 -30.01 6.358 -31.102 6.341 C-34.485 6.292 -37.867 6.271 -41.25 6.25 C-43.544 6.222 -45.839 6.192 -48.133 6.16 C-53.755 6.086 -59.377 6.035 -65 6 C-62.257 3.257 -59.009 2.318 -55.438 1 C-54.759 0.74 -54.08 0.479 -53.381 0.211 C-35.708 -6.385 -17.856 -5.182 0 0 Z " fill="#FEFEFE" transform="translate(532,892)"/>
<path d="M0 0 C23.215 14.369 23.215 14.369 26 21 C27.758 33.015 22.378 44.149 16 54 C9.741 62.283 1.422 71.625 -9 74 C-9.292 73.208 -9.585 72.417 -9.886 71.601 C-10.978 68.647 -12.07 65.693 -13.163 62.739 C-13.634 61.464 -14.106 60.188 -14.577 58.913 C-15.256 57.073 -15.937 55.234 -16.617 53.395 C-17.026 52.29 -17.434 51.185 -17.855 50.046 C-18.586 48.101 -19.347 46.167 -20.145 44.249 C-21.304 41.202 -21.232 40.044 -20 37 C-19.013 35.967 -17.986 34.971 -16.938 34 C-9.607 27.077 -4.438 17.754 -2 8 C-1.798 7.232 -1.595 6.463 -1.387 5.672 C-0.902 3.787 -0.448 1.894 0 0 Z " fill="#FEFEFE" transform="translate(392,722)"/>
<path d="M0 0 C17.764 3.832 33.402 11.809 43.625 27.188 C50.493 38.706 54.495 50.168 57.75 63.062 C58.173 64.703 58.596 66.344 59.02 67.985 C62.368 81.065 65.44 94.21 68.438 107.375 C68.647 108.293 68.856 109.211 69.071 110.157 C72.523 125.364 75.517 140.602 78 156 C78.262 157.547 78.262 157.547 78.528 159.125 C81.321 176.033 82.389 192.565 82.375 209.688 C82.377 211.057 82.377 211.057 82.38 212.455 C82.377 229.299 81.646 246.216 77.562 262.625 C77.358 263.5 77.154 264.376 76.943 265.277 C74.492 275.586 71.308 285.317 67 295 C66.693 295.693 66.386 296.385 66.07 297.099 C58.536 313.967 49.406 329.257 38.137 343.887 C34.044 349.207 30.164 354.68 26.276 360.15 C25.761 360.87 25.246 361.59 24.715 362.332 C24.262 362.969 23.81 363.605 23.344 364.261 C22.008 365.99 20.578 367.492 19 369 C20.562 363.262 23.427 358.591 26.5 353.562 C27.036 352.676 27.572 351.789 28.125 350.875 C31.328 345.615 34.652 340.461 38.125 335.375 C43.664 327.235 48.391 318.693 53 310 C53.369 309.307 53.738 308.615 54.118 307.901 C62.041 292.913 67.499 277.672 71.471 261.196 C71.803 259.815 72.149 258.438 72.514 257.066 C88.174 194.441 67.772 122.024 50.998 61.652 C50.304 59.113 49.631 56.576 48.984 54.026 C47.271 47.307 45.545 40.851 42.312 34.688 C41.968 34.023 41.623 33.358 41.268 32.674 C32.301 16.057 17.121 8.115 0 2 C0 1.34 0 0.68 0 0 Z " fill="#ECECEC" transform="translate(775,229)"/>
<path d="M0 0 C0.66 0 1.32 0 2 0 C8.407 14.425 7.472 31.556 7.391 46.965 C7.375 50.598 7.391 54.23 7.41 57.863 C7.441 91.709 2.202 127.08 -11.762 158.207 C-12.873 160.713 -13.895 163.232 -14.902 165.781 C-16.771 170.477 -18.782 175.088 -20.875 179.688 C-21.249 180.518 -21.624 181.348 -22.01 182.204 C-24.162 186.972 -26.335 191.732 -28.526 196.483 C-37.873 216.765 -47.121 237.095 -52 259 C-52.224 259.966 -52.449 260.931 -52.68 261.926 C-56.99 284.214 -55.471 310.378 -42.814 329.821 C-40.91 332.516 -38.904 335.084 -36.82 337.645 C-35 340 -35 340 -34 343 C-39.556 342.054 -42.554 338.212 -46 334 C-50.77 326.755 -54.698 319.404 -57 311 C-57.557 309.453 -57.557 309.453 -58.125 307.875 C-63.52 290.148 -61.26 266.546 -56 249 C-55.759 248.178 -55.517 247.356 -55.269 246.509 C-50.425 230.344 -43.677 215.069 -36.699 199.734 C-35.507 197.115 -34.316 194.495 -33.125 191.875 C-32.677 190.89 -32.677 190.89 -32.219 189.884 C-26.098 176.405 -20.398 162.787 -15 149 C-14.713 148.271 -14.426 147.541 -14.13 146.79 C-8.35 131.939 -4.956 116.68 -2.312 101 C-2.11 99.803 -1.908 98.606 -1.699 97.373 C1.007 80.637 2.335 64.177 2.261 47.219 C2.25 44.304 2.261 41.39 2.273 38.475 C2.28 28.617 1.902 19.054 0.429 9.302 C0.02 6.157 -0.076 3.167 0 0 Z " fill="#FAF6F1" transform="translate(815,358)"/>
<path d="M0 0 C1.926 -0.017 1.926 -0.017 3.891 -0.035 C15.149 -0.001 25.181 2.194 34.75 8.375 C36.875 11.188 36.875 11.188 37.75 13.375 C34.888 12.238 32.037 11.08 29.191 9.902 C27.898 9.372 26.606 8.842 25.312 8.312 C24.67 8.044 24.027 7.775 23.365 7.498 C9.465 1.839 -8.137 3.068 -22.25 7.375 C-23.277 7.642 -24.305 7.909 -25.363 8.184 C-44.633 13.478 -65.489 25.133 -76.25 42.375 C-75.656 41.928 -75.061 41.48 -74.449 41.02 C-60.948 31.172 -47.145 26.778 -30.438 26.938 C-29.297 26.947 -28.157 26.956 -26.983 26.965 C-12.414 27.263 4.463 31.072 15.703 41.121 C16.049 41.535 16.394 41.949 16.75 42.375 C12.553 41.734 9.152 40.284 5.312 38.5 C-14.654 29.726 -38.111 29.867 -58.5 37.5 C-73.544 44.305 -83.307 55.211 -89.25 70.375 C-92.137 78.562 -92.792 86.296 -92.75 94.938 C-92.75 96.158 -92.75 97.379 -92.75 98.636 C-92.606 107.713 -91.211 115.676 -88.246 124.227 C-87.25 127.375 -87.25 127.375 -88.25 129.375 C-98.435 112.094 -102.528 93.75 -97.562 74 C-90.23 47.086 -73.898 25.749 -49.879 11.859 C-34.3 3.25 -17.728 -0.162 0 0 Z " fill="#ECECEC" transform="translate(717.25,154.625)"/>
<path d="M0 0 C1.32 0 2.64 0 4 0 C8.304 9.435 11.878 19.064 15.35 28.832 C18.116 36.593 20.992 44.305 23.938 52 C28.816 64.774 33.546 77.599 38.25 90.438 C45.379 109.889 52.546 129.326 59.75 148.75 C59.995 149.412 60.241 150.073 60.494 150.755 C67.501 169.646 74.549 188.52 81.711 207.353 C82.412 209.196 83.111 211.039 83.811 212.882 C84.538 214.789 85.272 216.694 86.018 218.595 C87.172 221.561 88 223.785 88 227 C85.63 226.763 85.63 226.763 83 226 C81.774 224.187 81.774 224.187 80.919 221.791 C80.589 220.896 80.259 220.001 79.919 219.078 C79.582 218.103 79.245 217.127 78.898 216.121 C78.535 215.12 78.172 214.12 77.798 213.089 C76.638 209.878 75.506 206.658 74.375 203.438 C73.606 201.293 72.835 199.149 72.062 197.006 C70.637 193.046 69.224 189.083 67.822 185.115 C66.266 180.723 64.651 176.357 63 172 C62.5 170.667 61.999 169.334 61.5 168 C61.252 167.34 61.005 166.68 60.75 166 C58.5 160 58.5 160 57.792 158.111 C57.294 156.783 56.795 155.455 56.295 154.128 C54.571 149.548 52.885 144.955 51.223 140.352 C50.704 138.919 50.185 137.487 49.666 136.055 C48.865 133.841 48.064 131.628 47.264 129.414 C44.615 122.084 41.95 114.773 39.012 107.553 C36.761 101.874 34.714 96.115 32.625 90.375 C31.701 87.841 30.777 85.307 29.852 82.773 C29.618 82.134 29.385 81.495 29.144 80.837 C27.496 76.333 25.819 71.84 24.129 67.352 C20.456 57.592 16.887 47.795 13.312 38 C12.314 35.265 11.315 32.53 10.316 29.796 C9.701 28.113 9.087 26.43 8.473 24.747 C6.372 18.996 4.254 13.252 2.051 7.539 C0 2.222 0 2.222 0 0 Z " fill="#ECECEC" transform="translate(333,692)"/>
<path d="M0 0 C4.943 0.081 8.906 2.153 13.266 4.312 C14.529 4.928 14.529 4.928 15.817 5.555 C22.425 8.854 28.319 12.594 34.016 17.312 C34.544 17.744 35.072 18.175 35.616 18.619 C49.494 29.963 62.102 42.574 71.016 58.312 C71.016 59.303 71.016 60.293 71.016 61.312 C65.716 62.128 62.971 60.413 58.783 57.524 C51.92 52.04 45.993 45.429 39.892 39.127 C28.496 27.391 17.103 17.468 2.512 9.818 C-2.757 6.904 -2.757 6.904 -4.031 3.582 C-3.96 0.114 -3.508 0.367 0 0 Z " fill="#030303" transform="translate(790.984375,778.6875)"/>
<path d="M0 0 C5.486 2.229 9.456 5.594 12 11 C12.816 17.423 11.734 20.753 8 26 C3.301 30.355 -0.471 31.362 -6.719 31.281 C-11.5 30.692 -14.25 27.852 -17.312 24.375 C-20.218 20.286 -20.498 16.935 -20 12 C-16.756 2.81 -9.434 -1.324 0 0 Z " fill="#FEC6C9" transform="translate(746,342)"/>
<path d="M0 0 C0.33 0 0.66 0 1 0 C1 1.65 1 3.3 1 5 C2.702 4.01 2.702 4.01 4.438 3 C9.008 0.735 12.963 0.075 18 1 C22.971 3.532 26.494 6.989 29 12 C29.059 17.926 28.068 22.515 24 27 C19.277 30.296 14.788 32.015 9 31 C5.777 29.213 2.978 27.199 0 25 C-0.33 29.29 -0.66 33.58 -1 38 C-1.33 38 -1.66 38 -2 38 C-2.059 33.917 -2.094 29.834 -2.125 25.75 C-2.142 24.61 -2.159 23.471 -2.176 22.297 C-2.219 14.659 -1.514 7.487 0 0 Z " fill="#FEC6C9" transform="translate(637,326)"/>
<path d="M0 0 C1.353 2.705 0.432 4.134 -0.421 6.904 C-1.493 10.787 -1.989 14.769 -2.562 18.75 C-2.751 19.995 -2.751 19.995 -2.943 21.266 C-8.041 55.856 -9.004 95.869 12.391 125.461 C14.192 127.722 16.056 129.863 18 132 C18.495 132.99 18.495 132.99 19 134 C10.519 131.615 5.001 124.383 0.664 117.145 C-15.679 86.262 -14.699 45.771 -5.028 12.86 C-3.652 8.415 -2.214 4.103 0 0 Z " fill="#ECECEC" transform="translate(720,568)"/>
<path d="M0 0 C2.475 0.495 2.475 0.495 5 1 C4.475 5.871 3.474 9.72 1.375 14.141 C0.568 15.857 0.568 15.857 -0.255 17.609 C-0.54 18.204 -0.825 18.799 -1.119 19.412 C-2.01 21.272 -2.89 23.137 -3.766 25.004 C-6.42 30.642 -9.117 36.258 -11.863 41.852 C-12.282 42.711 -12.7 43.571 -13.131 44.456 C-13.896 46.022 -14.671 47.583 -15.459 49.138 C-17.484 53.278 -18.437 56.275 -18 61 C-14.557 62.721 -10.772 62.387 -7 62 C-4.971 61.061 -2.961 60.074 -1 59 C0.485 59.495 0.485 59.495 2 60 C1.812 62.312 1.812 62.312 1 65 C-4.869 69.442 -11.854 69.95 -19 69 C-22.176 67.35 -24.378 65.245 -26 62 C-26.574 55.306 -25.128 51.118 -22.09 45.215 C-21.482 43.987 -21.482 43.987 -20.862 42.734 C-19.569 40.127 -18.254 37.532 -16.938 34.938 C-16.08 33.223 -15.224 31.507 -14.369 29.791 C-13.112 27.266 -11.853 24.742 -10.589 22.221 C-6.912 14.88 -3.418 7.463 0 0 Z " fill="#0D0C0D" transform="translate(694,296)"/>
<path d="M0 0 C8.873 3.248 18.591 8.181 23 17 C23.445 22.233 23.445 22.233 21.875 24.938 C20 26 20 26 17.312 26.062 C13.503 24.841 11.234 23.013 8.129 20.562 C3.02 16.813 -2.002 14.917 -8.312 14.5 C-11.626 14.273 -12.788 14.141 -15.625 12.25 C-17 10 -17 10 -17.625 7.562 C-16.871 4.47 -15.582 2.84 -13.012 0.965 C-8.675 -1.115 -4.645 -0.902 0 0 Z " fill="#030303" transform="translate(737,268)"/>
<path d="M0 0 C4.972 2.228 9.161 5.505 11.781 10.348 C12.253 13.215 12.089 15.42 11.781 18.348 C11.183 18.41 10.585 18.471 9.969 18.535 C6.902 19.674 6.403 21.558 4.781 24.348 C2.469 26.723 2.469 26.723 -0.219 28.348 C-3.707 28.348 -5.447 28.016 -8.094 25.723 C-9.693 22.347 -9.665 20.048 -9.219 16.348 C-7.344 13.098 -7.344 13.098 -5.219 10.348 C-4.559 9.358 -3.899 8.368 -3.219 7.348 C-9.732 7.494 -14.168 8.337 -19.43 12.289 C-21.219 13.348 -21.219 13.348 -25.219 13.348 C-25.219 10.723 -25.219 10.723 -24.219 7.348 C-17.312 0.615 -9.573 -2.815 0 0 Z " fill="#030303" transform="translate(735.21875,304.65234375)"/>
<path d="M0 0 C26.438 13.355 43.33 38.844 52.566 66.25 C56.363 78.213 58.419 90.066 57.965 102.652 C57.305 102.652 56.645 102.652 55.965 102.652 C55.797 101.065 55.797 101.065 55.625 99.445 C52.344 72.791 42.259 46.362 24.965 25.652 C24.282 24.795 23.598 23.938 22.895 23.055 C12.214 10.305 -5.351 -1.912 -22.223 -3.562 C-27.489 -3.96 -32.757 -4.181 -38.035 -4.348 C-28.637 -13.746 -10.005 -4.442 0 0 Z " fill="#ECECEC" transform="translate(808.03515625,173.34765625)"/>
<path d="M0 0 C2.475 0.495 2.475 0.495 5 1 C5 7.298 2.596 10.357 -1.68 14.855 C-11.675 24.094 -21.732 27.557 -35.207 27.27 C-44.789 26.589 -51.62 22.04 -58 15 C-60.09 11.538 -60.09 11.538 -59.625 8.75 C-59.419 8.173 -59.212 7.595 -59 7 C-55 7 -55 7 -53.395 8.574 C-52.611 9.62 -52.611 9.62 -51.812 10.688 C-47.315 16.041 -42.99 19.375 -35.957 20.477 C-25.372 20.957 -16.003 17.347 -7.758 10.758 C-4.581 7.581 -2.264 3.86 0 0 Z " fill="#0D0C0D" transform="translate(724,376)"/>
<path d="M0 0 C2.688 2.312 2.688 2.312 4 5 C3.789 11.211 3.789 11.211 1 14 C-3.798 14.47 -6.639 13.717 -10.922 11.672 C-16.784 9.777 -23.67 10.751 -29.688 11.562 C-31.327 11.779 -31.327 11.779 -33 12 C-34 11 -34 11 -34.5 8.312 C-33.857 4.052 -32.388 2.874 -29.055 0.324 C-19.52 -5.821 -9.844 -5.398 0 0 Z " fill="#030303" transform="translate(686,262)"/>
<path d="M0 0 C3.742 2.738 7.002 5.241 8.012 9.984 C8.287 15.495 6.98 20.476 3.562 24.875 C0.467 26.749 -1.81 27.433 -5.438 26.875 C-7.673 25.102 -8.315 23.652 -8.758 20.852 C-9.056 15.025 -7.694 11.658 -4.438 6.875 C-6.334 6.963 -8.23 7.071 -10.125 7.188 C-11.709 7.275 -11.709 7.275 -13.324 7.363 C-16.676 7.914 -18.592 9.096 -21.438 10.875 C-23.75 10.062 -23.75 10.062 -25.438 8.875 C-20.748 -1.803 -10.323 -3.378 0 0 Z " fill="#030303" transform="translate(673.4375,294.125)"/>
<path d="M0 0 C6.994 0.146 10.207 3.143 15 8 C15.684 8.663 16.369 9.325 17.074 10.008 C26.749 19.996 31.196 32.618 31.266 46.328 C31 49 31 49 29 52 C27.68 52 26.36 52 25 52 C23.805 49.611 23.764 47.478 23.558 44.846 C22.327 30.77 16.426 19.693 6 10 C3.725 8.159 1.471 6.577 -1 5 C-0.67 3.35 -0.34 1.7 0 0 Z " fill="#0D0C0D" transform="translate(296,512)"/>
<path d="M0 0 C2.736 0.132 2.736 0.132 5.736 2.132 C5.673 3.882 5.673 3.882 4.736 6.132 C-3.393 11.89 -12.293 12.479 -22.014 12.445 C-22.933 12.461 -23.852 12.477 -24.799 12.493 C-29.705 12.497 -33.372 12.491 -37.264 9.132 C-38.077 6.445 -38.077 6.445 -38.264 4.132 C-34.758 0.843 -32.021 0.72 -27.303 0.62 C-26.635 0.602 -25.967 0.584 -25.278 0.566 C-23.149 0.512 -21.019 0.478 -18.889 0.445 C-17.465 0.411 -16.04 0.377 -14.616 0.341 C-9.744 0.225 -4.869 0.197 0 0 Z " fill="#FAF6F1" transform="translate(299.26416015625,664.867919921875)"/>
<path d="M0 0 C0.756 0.07 1.513 0.14 2.292 0.212 C7.291 0.763 11.218 1.999 15.75 4.188 C15.42 5.508 15.09 6.827 14.75 8.188 C3.083 12.505 -11.357 13.083 -23.25 9.188 C-25.812 7.562 -25.812 7.562 -27.25 6.188 C-26.299 3.681 -25.312 2.243 -23.312 0.438 C-16.077 -2.516 -7.611 -0.755 0 0 Z " fill="#FAF6F1" transform="translate(283.25,648.8125)"/>
<path d="M0 0 C8.005 0.17 12.514 4.675 18.105 10.008 C24.767 16.991 31.423 25.825 31.438 35.812 C31.329 37.212 31.198 38.611 31 40 C29.35 40 27.7 40 26 40 C25.443 38.608 25.443 38.608 24.875 37.188 C18.885 23.503 10.662 13.329 -1 4 C-0.67 2.68 -0.34 1.36 0 0 Z " fill="#0D0C0D" transform="translate(492,771)"/>
<path d="M0 0 C2.991 0.132 5.849 0.381 8.812 0.75 C10.092 0.899 10.092 0.899 11.397 1.051 C13.933 1.352 16.467 1.672 19 2 C19.694 2.088 20.388 2.177 21.103 2.268 C31.899 3.673 31.899 3.673 36 6 C35.727 7.891 35.727 7.891 35 10 C28.394 14.493 18.53 13.723 11 13 C5.757 11.736 0.483 10.363 -3 6 C-2.73 3.026 -2.146 2.146 0 0 Z " fill="#FEFEFE" transform="translate(258,629)"/>
<path d="M0 0 C4.682 1.141 8.14 2.119 11.562 5.625 C13.71 10.667 13.998 14.975 12.27 20.215 C10.294 24.545 8.117 27.451 4 30 C2.009 30.693 0.01 31.363 -2 32 C-2.24 21.111 -1.754 10.762 0 0 Z " fill="#FEFEFE" transform="translate(392,627)"/>
<path d="M0 0 C0.33 0 0.66 0 1 0 C1.147 1.004 1.147 1.004 1.297 2.027 C6.574 35.917 20.583 65.04 42.672 91.215 C44 93 44 93 44 95 C36.518 91.635 31.684 84.64 27.125 78.062 C26.353 76.953 26.353 76.953 25.565 75.822 C14.851 60.196 5.371 42.567 1 24 C0.814 23.292 0.629 22.585 0.438 21.855 C-0.209 17.633 -0.104 13.452 -0.062 9.188 C-0.058 8.304 -0.053 7.42 -0.049 6.51 C-0.037 4.34 -0.019 2.17 0 0 Z " fill="#ECECEC" transform="translate(745,207)"/>
<path d="M0 0 C0.699 2.109 0.699 2.109 1 4 C-3.324 6.883 -7.164 6.33 -12.25 6.312 C-13.179 6.329 -14.109 6.345 -15.066 6.361 C-20.831 6.365 -24.881 5.68 -30 3 C-29 0 -29 0 -26.312 -1.688 C-18.159 -4.871 -7.615 -4.181 0 0 Z " fill="#FAF6F1" transform="translate(292,618)"/>
<path d="M0 0 C1.11 -0.014 2.22 -0.028 3.363 -0.043 C6.784 0.194 9.497 0.966 12.688 2.188 C12.688 3.178 12.688 4.167 12.688 5.188 C11.891 5.034 11.094 4.881 10.273 4.723 C5.953 4.078 1.672 3.837 -2.688 3.625 C-3.519 3.582 -4.35 3.539 -5.207 3.494 C-7.242 3.389 -9.277 3.288 -11.312 3.188 C-7.903 -0.222 -4.609 0.027 0 0 Z " fill="#AEAEAF" transform="translate(781.3125,165.8125)"/>
<path d="M0 0 C0.99 0.33 1.98 0.66 3 1 C2.497 5.401 0.912 7.712 -2 11 C-3.65 10.67 -5.3 10.34 -7 10 C-5.606 5.565 -3.394 3.126 0 0 Z " fill="#171515" transform="translate(801,331)"/>
<path d="M0 0 C2.874 0.154 5.729 0.257 8.605 0.316 C9.864 0.348 9.864 0.348 11.149 0.379 C13.828 0.445 16.508 0.504 19.188 0.562 C21.005 0.606 22.822 0.649 24.639 0.693 C29.092 0.8 33.546 0.902 38 1 C38 1.33 38 1.66 38 2 C22.82 2 7.64 2 -8 2 C-5.141 -0.859 -3.863 -1.288 0 0 Z " fill="#ECECEC" transform="translate(475,896)"/>
<path d="M0 0 C0.33 0 0.66 0 1 0 C1.962 6.374 2.107 12.559 2 19 C1.34 19 0.68 19 0 19 C-0.784 12.435 -1.109 6.532 0 0 Z " fill="#AEAEAF" transform="translate(864,257)"/>
<path d="M0 0 C0.33 0.66 0.66 1.32 1 2 C-1.97 6.29 -4.94 10.58 -8 15 C-8.33 14.34 -8.66 13.68 -9 13 C-7.637 10.215 -7.637 10.215 -5.688 6.938 C-4.734 5.311 -4.734 5.311 -3.762 3.652 C-2 1 -2 1 0 0 Z " fill="#CDCDCE" transform="translate(803,583)"/>
<path d="M0 0 C0.66 0 1.32 0 2 0 C3.655 3.504 4.264 5.324 3 9 C2.659 10.665 2.324 12.332 2 14 C1.67 14 1.34 14 1 14 C0.67 9.38 0.34 4.76 0 0 Z " fill="#B9B9BA" transform="translate(815,358)"/>
<path d="M0 0 C1.98 0 3.96 0 6 0 C5 3 5 3 3.062 4 C2.042 4.495 2.042 4.495 1 5 C0.34 5.99 -0.32 6.98 -1 8 C-1.931 5.394 -2.149 4.358 -1.062 1.75 C-0.712 1.173 -0.361 0.595 0 0 Z " fill="#DBDBDC" transform="translate(659,816)"/>
<path d="M0 0 C3.465 1.98 3.465 1.98 7 4 C5.25 7.875 5.25 7.875 3 9 C2.01 6.03 1.02 3.06 0 0 Z " fill="#DBDBDC" transform="translate(402,847)"/>
<path d="M0 0 C4.754 1.148 9.379 2.383 14 4 C12.328 5.117 12.328 5.117 10 6 C7.422 5.32 7.422 5.32 4.75 4.125 C3.858 3.736 2.966 3.346 2.047 2.945 C1.371 2.633 0.696 2.321 0 2 C0 1.34 0 0.68 0 0 Z " fill="#AEAEAF" transform="translate(775,229)"/>
<path d="M0 0 C0.66 0 1.32 0 2 0 C2 3.63 2 7.26 2 11 C1.34 10.01 0.68 9.02 0 8 C-0.66 8.99 -1.32 9.98 -2 11 C-1.4 7.317 -0.752 3.655 0 0 Z " fill="#CDCDCE" transform="translate(715,581)"/>
<path d="M0 0 C1.576 2.886 2.463 5.533 3.125 8.75 C3.293 9.549 3.46 10.348 3.633 11.172 C3.815 12.077 3.815 12.077 4 13 C1.975 11.067 0.579 9.368 -1 7 C-0.625 3.312 -0.625 3.312 0 0 Z " fill="#CDCDCE" transform="translate(626,271)"/>
<path d="M0 0 C3.594 1.335 6.755 2.96 10 5 C7 6 7 6 4.957 5.223 C4.249 4.84 3.542 4.457 2.812 4.062 C2.097 3.682 1.382 3.302 0.645 2.91 C0.102 2.61 -0.441 2.309 -1 2 C-0.67 1.34 -0.34 0.68 0 0 Z " fill="#CDCDCE" transform="translate(724,191)"/>
<path d="M0 0 C4.455 0.99 4.455 0.99 9 2 C8.01 3.485 8.01 3.485 7 5 C4.69 4.01 2.38 3.02 0 2 C0 1.34 0 0.68 0 0 Z " fill="#DBDBDC" transform="translate(794,169)"/>
<path d="M0 0 C0.66 0.33 1.32 0.66 2 1 C2 1.66 2 2.32 2 3 C-4.75 2.25 -4.75 2.25 -7 0 C-4.309 -1.345 -2.864 -0.716 0 0 Z " fill="#DBDBDC" transform="translate(722,189)"/>
<path d="M0 0 C4.62 0 9.24 0 14 0 C14.33 0.99 14.66 1.98 15 3 C14.01 3 13.02 3 12 3 C12 2.34 12 1.68 12 1 C8.04 1 4.08 1 0 1 C0 0.67 0 0.34 0 0 Z " fill="#444240" transform="translate(471,854)"/>
</svg>