<svg version="1.1" xmlns="http://www.w3.org/2000/svg" width="1024" height="1024">
<path d="M0 0 C337.92 0 675.84 0 1024 0 C1024 337.92 1024 675.84 1024 1024 C686.08 1024 348.16 1024 0 1024 C0 686.08 0 348.16 0 0 Z " fill="#FEFEFE" transform="translate(0,0)"/>
<path d="M0 0 C1.165 0.002 1.165 0.002 2.353 0.004 C24.406 0.097 46.594 3.758 63.723 18.934 C69.436 25.059 74.098 31.837 74.25 40.375 C74.276 41.241 74.302 42.108 74.328 43 C73.941 45.804 73.171 46.638 71 48.375 C70.797 47.267 70.797 47.267 70.59 46.137 C68.452 36.064 64.231 27.139 55.977 20.656 C52.174 18.191 48.12 16.248 44 14.375 C44 15.035 44 15.695 44 16.375 C45.102 16.779 45.102 16.779 46.227 17.191 C55.214 21.027 60.487 27.941 65 36.375 C67.108 42.698 67.259 50.836 65.012 57.152 C60.051 65.327 50.973 69.826 42 72.375 C31.59 74.821 21.183 74.687 10.562 74.625 C9.678 74.623 8.794 74.621 7.883 74.619 C-24.541 74.528 -24.541 74.528 -34 71.375 C-37.327 70.456 -37.327 70.456 -41 71.375 C-46.5 76.898 -49.51 84.105 -52 91.375 C-51.368 91.158 -50.737 90.942 -50.086 90.719 C-41.35 88 -31.102 86.093 -22.438 90 C-18.712 92.288 -16.279 94.625 -14 98.375 C-14.188 102.25 -14.188 102.25 -15 105.375 C-17.375 106.25 -17.375 106.25 -21 106.375 C-23.662 105.072 -26.068 103.559 -28.535 101.918 C-33.267 98.956 -36.914 98.099 -42.5 98.125 C-43.603 98.12 -44.707 98.115 -45.844 98.109 C-49.13 98.386 -51.205 98.611 -54 100.375 C-55.363 103.349 -55.363 103.349 -56.062 107.062 C-56.303 108.105 -56.303 108.105 -56.548 109.168 C-57.491 113.418 -58.225 117.687 -58.891 121.988 C-60.455 132.029 -62.01 141.139 -66.714 150.24 C-68.869 154.477 -69.443 157.64 -69 162.375 C-66.287 167.592 -62.301 171.725 -57 174.375 C-48.928 175.356 -42.613 174.168 -36 169.375 C-26.413 160.705 -16.106 147.165 -12.812 134.5 C-12.544 133.469 -12.276 132.438 -12 131.375 C-10.125 130.75 -10.125 130.75 -8 130.375 C-6 132.375 -6 132.375 -5.668 135.039 C-6.071 139.089 -7.459 142.194 -9.312 145.75 C-9.667 146.443 -10.022 147.137 -10.387 147.851 C-15.334 157.242 -21.562 165.81 -27.926 174.281 C-28.39 174.908 -28.854 175.534 -29.333 176.179 C-30.209 177.358 -31.099 178.527 -32.003 179.684 C-34.745 183.363 -35.473 185.812 -35 190.375 C-33.355 190.522 -33.355 190.522 -31.676 190.672 C-30.221 190.822 -28.767 190.973 -27.312 191.125 C-26.591 191.187 -25.87 191.249 -25.127 191.312 C-20.298 191.842 -17.604 192.878 -14 196.375 C-14.33 197.365 -14.66 198.355 -15 199.375 C-18.564 199.323 -22.125 199.228 -25.688 199.125 C-26.695 199.111 -27.702 199.097 -28.74 199.082 C-36.249 198.834 -36.249 198.834 -40.145 196.453 C-42.772 193.511 -43.155 191.859 -43.188 188 C-43.202 187.229 -43.216 186.458 -43.23 185.664 C-42.978 183.157 -42.252 181.542 -41 179.375 C-41.532 179.696 -42.065 180.017 -42.613 180.348 C-48.069 182.696 -55.018 182.336 -60.605 180.535 C-66.275 177.637 -70.147 173.368 -74 168.375 C-74.651 169.935 -75.296 171.498 -75.938 173.062 C-76.297 173.933 -76.657 174.803 -77.027 175.699 C-81.234 187.271 -81.022 205.153 -76 216.375 C-75.642 217.209 -75.283 218.043 -74.914 218.902 C-72.148 222.475 -68.789 223.661 -64.688 225.375 C-59.057 227.765 -54.391 230.039 -50 234.375 C-48.639 242.542 -51.391 252.254 -53.855 260.098 C-55.17 264.199 -55.17 264.199 -54.137 268.227 C-47.572 276.622 -37.365 282.424 -27 284.375 C-16.574 285.331 -6.245 284.393 4 282.375 C5.116 282.192 6.233 282.009 7.383 281.82 C16.718 280.129 24.677 276.738 33 272.375 C34.011 271.852 34.011 271.852 35.042 271.318 C49.445 263.795 65.083 253.374 74 239.375 C73.743 236.677 73.208 234.791 72 232.375 C70.833 223.068 73.237 214.671 78.668 207.027 C79.108 206.482 79.547 205.937 80 205.375 C79.06 205.302 79.06 205.302 78.102 205.227 C77.284 205.152 76.467 205.077 75.625 205 C74.407 204.896 74.407 204.896 73.164 204.789 C71 204.375 71 204.375 69 202.375 C68.5 199.625 68.5 199.625 69 196.375 C70.379 194.93 70.379 194.93 72.062 193.5 C73.776 192.081 73.776 192.081 75 190.375 C75.105 188.365 75.105 188.365 74.625 186.312 C74 182.375 74 182.375 75.523 179.836 C78.476 176.902 81.157 175.638 85 174.062 C85.616 173.799 86.232 173.535 86.867 173.264 C90.188 171.892 92.344 171.375 96 171.375 C95.613 170.707 95.225 170.038 94.826 169.35 C87.309 156.324 80.198 143.505 75 129.375 C74.484 128.021 73.969 126.667 73.453 125.312 C67.518 109.457 64.823 94.619 64.812 77.75 C64.8 76.657 64.788 75.564 64.775 74.438 C64.765 68.684 65.034 63.8 67 58.375 C67.66 58.375 68.32 58.375 69 58.375 C74.891 67.11 75.851 77.254 77.378 87.457 C80.336 107.071 84.765 125.434 100 139.375 C106.453 144.013 112.809 147.421 120.812 148 C121.788 148.075 122.764 148.15 123.77 148.227 C124.874 148.3 124.874 148.3 126 148.375 C125.281 147.658 124.561 146.942 123.82 146.203 C122.013 144.391 120.215 142.569 118.43 140.734 C117.165 139.443 117.165 139.443 115.875 138.125 C115.027 137.254 114.179 136.382 113.305 135.484 C111.105 133.184 111.105 133.184 108 132.375 C108.398 132.906 108.797 133.437 109.207 133.984 C111.805 137.448 114.402 140.911 117 144.375 C106.471 141.816 99.698 135.417 94 126.375 C85.614 111.784 82.098 95.774 80.125 79.188 C78.921 70.35 76.448 62.659 70 56.375 C70 55.715 70 55.055 70 54.375 C70.959 53.725 70.959 53.725 71.938 53.062 C74.575 50.904 74.537 49.693 75 46.375 C75.335 45.502 75.67 44.63 76.016 43.73 C77.201 39.691 77.223 36.176 77.125 32 C77.111 30.896 77.111 30.896 77.098 29.77 C77.074 27.971 77.038 26.173 77 24.375 C96.664 18.841 118.337 22.624 136 32.375 C162.84 49.478 176.72 78.936 183.75 109.062 C186.943 123.524 188.72 138.184 189.445 152.965 C189.917 162.265 190.887 171.46 192.125 180.688 C192.232 181.49 192.34 182.293 192.45 183.119 C195.087 202.432 200.61 219.291 210 236.375 C210.315 236.963 210.631 237.551 210.956 238.157 C220.907 256.671 233.849 273.135 247.108 289.357 C251.136 294.288 255.073 299.283 258.983 304.308 C261.569 307.612 264.223 310.835 266.968 314.008 C288.266 338.636 306.507 366.846 318 397.375 C318.385 398.353 318.771 399.332 319.168 400.34 C329.643 427.67 332.381 458.605 327 487.375 C326.767 488.66 326.533 489.945 326.293 491.27 C321.992 512.789 312.143 545.207 294.355 559.717 C292.768 561.293 292.768 561.293 293.043 563.502 C293.238 564.304 293.432 565.107 293.633 565.934 C293.843 566.824 294.054 567.715 294.271 568.632 C295.176 572.035 296.114 575.425 297.107 578.803 C308.178 616.771 309.614 658.102 291.562 694.254 C287.581 701.167 282.644 707.731 277 713.375 C277.86 713.473 278.72 713.571 279.605 713.672 C287.845 714.714 296.415 715.815 304 719.375 C305.359 721.508 305.359 721.508 306 723.375 C304.316 725.059 302.233 724.54 299.983 724.565 C299.287 724.564 298.592 724.563 297.875 724.562 C297.164 724.562 296.454 724.562 295.722 724.562 C287.53 724.476 278.801 723.975 271 721.375 C266.109 720.843 262.703 721.748 258.062 723.375 C243.852 727.911 230 725.75 216.807 719.303 C204.773 713.047 204.773 713.047 201.355 709.825 C197.77 707.618 194.121 707.506 189.984 707.094 C189.096 706.994 188.207 706.895 187.292 706.792 C184.446 706.474 181.598 706.174 178.75 705.875 C175.036 705.477 171.322 705.07 167.609 704.656 C166.245 704.504 166.245 704.504 164.852 704.349 C158.022 703.559 151.327 702.406 144.585 701.067 C139.167 700.021 133.717 699.296 128.25 698.562 C117.295 697.049 106.4 695.296 95.5 693.438 C82.942 691.301 70.37 689.361 57.75 687.625 C57.019 687.524 56.287 687.423 55.533 687.32 C49.278 686.461 43.022 685.612 36.752 684.861 C30.256 684.082 23.848 683.214 17.445 681.844 C12.506 680.897 7.496 680.426 2.5 679.875 C0.364 679.639 -1.771 679.4 -3.906 679.156 C-4.838 679.054 -5.769 678.951 -6.729 678.846 C-9.337 678.47 -11.841 677.991 -14.413 677.437 C-20.659 676.163 -26.965 675.511 -33.296 674.833 C-47.467 673.31 -61.603 671.564 -75.73 669.684 C-76.607 669.567 -77.483 669.451 -78.385 669.33 C-83.751 668.616 -89.115 667.897 -94.48 667.176 C-101.689 666.208 -108.9 665.246 -116.11 664.283 C-117.848 664.051 -119.587 663.819 -121.326 663.587 C-133.311 661.985 -145.301 660.437 -157.302 658.959 C-161.236 658.473 -165.166 657.96 -169.094 657.426 C-170.018 657.3 -170.942 657.174 -171.895 657.045 C-173.694 656.798 -175.494 656.548 -177.293 656.295 C-186.623 654.569 -186.623 654.569 -195.336 656.844 C-196.009 657.514 -196.682 658.184 -197.375 658.875 C-201.942 662.862 -206.555 665.29 -212.062 667.688 C-212.806 668.012 -213.55 668.337 -214.316 668.672 C-229.128 674.955 -247.091 679.491 -262.75 673.312 C-268.027 670.648 -272.597 667.3 -277 663.375 C-277.603 662.865 -278.207 662.354 -278.828 661.828 C-284.744 656.445 -289.933 648.712 -292.824 641.247 C-293.84 639.191 -293.84 639.191 -296.024 638.693 C-296.847 638.607 -297.669 638.522 -298.516 638.434 C-299.431 638.327 -300.346 638.22 -301.29 638.109 C-302.266 638.011 -303.243 637.913 -304.25 637.812 C-306.253 637.575 -308.256 637.335 -310.258 637.09 C-311.238 636.972 -312.218 636.855 -313.228 636.734 C-329.46 634.633 -329.46 634.633 -334 630.375 C-334 629.715 -334 629.055 -334 628.375 C-324.454 623.602 -307.966 628.437 -298 630.375 C-299.65 625.425 -301.3 620.475 -303 615.375 C-304.32 618.015 -305.64 620.655 -307 623.375 C-307.99 623.045 -308.98 622.715 -310 622.375 C-314.669 612.499 -314.145 601.867 -314.098 591.148 C-314.096 589.305 -314.096 589.305 -314.093 587.425 C-314.088 583.533 -314.075 579.642 -314.062 575.75 C-314.057 573.098 -314.053 570.445 -314.049 567.793 C-314.038 561.32 -314.021 554.848 -314 548.375 C-315.78 548.641 -317.558 548.923 -319.334 549.212 C-320.325 549.367 -321.315 549.523 -322.335 549.683 C-325.273 550.209 -325.273 550.209 -327.648 552.984 C-328.218 554.021 -328.788 555.057 -329.375 556.125 C-330.012 557.207 -330.649 558.288 -331.305 559.402 C-331.864 560.383 -332.424 561.364 -333 562.375 C-341.891 575.027 -356.576 583.981 -370.29 590.538 C-381.078 595.729 -381.078 595.729 -389 604.375 C-389.789 607.638 -389.789 607.638 -390.188 611.125 C-390.346 612.295 -390.505 613.466 -390.668 614.672 C-390.778 615.564 -390.887 616.456 -391 617.375 C-389.719 617.352 -388.437 617.329 -387.117 617.305 C-354.099 616.882 -354.099 616.882 -344.891 625.304 C-342.131 629.786 -342.516 633.64 -342.664 638.801 C-342.68 639.849 -342.695 640.898 -342.712 641.978 C-342.942 654.216 -343.532 666.445 -344.172 678.667 C-344.375 682.568 -344.567 686.471 -344.758 690.373 C-345.326 701.734 -345.951 713.091 -346.914 724.426 C-347.01 725.694 -347.01 725.694 -347.108 726.987 C-347.635 732.661 -348.947 736.258 -353 740.438 C-371.697 752.513 -401.289 752.112 -422.312 748.125 C-436.507 744.854 -436.507 744.854 -441 739.375 C-445.585 726.485 -446.752 712.352 -448.562 698.875 C-449.142 694.614 -449.727 690.354 -450.316 686.094 C-450.457 685.073 -450.598 684.053 -450.743 683.002 C-451.751 675.829 -452.987 668.732 -454.377 661.625 C-455.662 654.922 -456.395 648.168 -457 641.375 C-457.11 640.199 -457.219 639.024 -457.332 637.812 C-457.727 630.318 -457.727 630.318 -454.688 626.375 C-452.984 625.32 -452.984 625.32 -451 624.375 C-450.304 624.022 -449.608 623.669 -448.891 623.305 C-437.44 618.382 -423.381 617.087 -411 617.375 C-415.399 606.927 -423.142 601.976 -432.75 596.5 C-440.6 591.906 -447.931 587.122 -455 581.375 C-455.721 580.807 -456.441 580.238 -457.184 579.652 C-465.877 572.484 -472.787 563.326 -478 553.375 C-478.414 552.586 -478.828 551.797 -479.254 550.984 C-482.345 544.307 -483.153 537.661 -482 530.375 C-480.368 527.1 -478.317 525.034 -475 523.375 C-463.905 521.96 -454.332 525.791 -445.312 532.062 C-423.621 548.969 -414.161 571.904 -406.795 597.634 C-405.612 601.713 -404.342 605.763 -403.062 609.812 C-402.657 611.103 -402.253 612.393 -401.848 613.684 C-401.568 614.572 -401.288 615.46 -401 616.375 C-399.759 610.763 -398.862 605.217 -398.25 599.5 C-396.263 584.248 -390.981 570.007 -384 556.375 C-384.792 556.36 -385.583 556.346 -386.399 556.331 C-389.996 556.256 -393.591 556.16 -397.188 556.062 C-398.433 556.04 -399.679 556.017 -400.963 555.994 C-402.165 555.959 -403.367 555.923 -404.605 555.887 C-405.71 555.861 -406.815 555.834 -407.954 555.807 C-411.33 555.328 -413.294 554.427 -416 552.375 C-416 551.715 -416 551.055 -416 550.375 C-410.655 547.292 -404.897 547.239 -398.852 547.059 C-398.194 547.038 -397.537 547.017 -396.859 546.996 C-394.781 546.931 -392.703 546.872 -390.625 546.812 C-389.207 546.769 -387.789 546.726 -386.371 546.682 C-382.914 546.575 -379.457 546.474 -376 546.375 C-375.699 545.753 -375.398 545.132 -375.088 544.491 C-369.254 533.145 -356.935 525.069 -346 519.375 C-344.967 518.83 -344.967 518.83 -343.914 518.273 C-338.072 515.636 -331.265 515.356 -325 516.375 C-322.304 518.186 -320.458 519.459 -319 522.375 C-318.903 524.498 -318.87 526.625 -318.875 528.75 C-318.872 529.892 -318.87 531.034 -318.867 532.211 C-318.976 534.807 -319.235 536.911 -320 539.375 C-318.35 539.375 -316.7 539.375 -315 539.375 C-315.002 538.375 -315.004 537.375 -315.007 536.345 C-315.027 526.941 -315.042 517.538 -315.052 508.135 C-315.057 503.3 -315.064 498.465 -315.075 493.63 C-315.086 488.968 -315.092 484.306 -315.095 479.644 C-315.097 477.862 -315.1 476.079 -315.106 474.296 C-315.113 471.808 -315.114 469.32 -315.114 466.832 C-315.117 466.088 -315.121 465.343 -315.124 464.576 C-315.114 459.489 -315.114 459.489 -314 458.375 C-335.715 460.135 -335.715 460.135 -357.375 462.438 C-358.637 462.591 -359.899 462.744 -361.199 462.902 C-363.178 463.148 -365.157 463.395 -367.135 463.653 C-377.726 465.006 -388.286 465.619 -398.958 465.727 C-400.971 465.75 -402.984 465.789 -404.997 465.829 C-406.235 465.831 -407.474 465.833 -408.75 465.836 C-409.859 465.844 -410.967 465.852 -412.109 465.861 C-415.673 465.262 -416.845 464.229 -419 461.375 C-419.461 458.211 -419.461 458.211 -419.375 454.75 C-419.362 453.603 -419.349 452.455 -419.336 451.273 C-419 448.375 -419 448.375 -417 446.375 C-413.947 445.788 -410.955 445.326 -407.875 444.938 C-406.433 444.748 -406.433 444.748 -404.962 444.555 C-395.053 443.299 -385.111 442.398 -375.166 441.5 C-366.578 440.724 -358.005 439.854 -349.438 438.875 C-329.679 436.632 -309.893 434.683 -290.062 433.188 C-288.962 433.104 -287.861 433.02 -286.727 432.933 C-281.134 432.529 -275.607 432.287 -270 432.375 C-270 431.715 -270 431.055 -270 430.375 C-270.557 430.326 -271.114 430.277 -271.688 430.227 C-272.451 430.152 -273.214 430.077 -274 430 C-274.743 429.93 -275.485 429.861 -276.25 429.789 C-279 429.375 -279 429.375 -282.668 428.402 C-287.503 427.154 -292.348 426.734 -297.312 426.312 C-299.08 426.158 -300.847 426.001 -302.613 425.84 C-303.385 425.774 -304.156 425.708 -304.95 425.64 C-307 425.375 -307 425.375 -310 424.375 C-318.262 423.217 -326.638 423.137 -334.966 422.93 C-338.618 422.837 -342.27 422.729 -345.922 422.621 C-346.63 422.6 -347.338 422.579 -348.067 422.558 C-353.505 422.395 -358.941 422.215 -364.375 421.938 C-365.62 421.877 -366.865 421.816 -368.148 421.754 C-371 421.375 -371 421.375 -374 419.375 C-373.67 418.385 -373.34 417.395 -373 416.375 C-368.479 414.333 -364.404 414.118 -359.488 414.109 C-358.77 414.107 -358.052 414.104 -357.312 414.101 C-354.979 414.097 -352.646 414.11 -350.312 414.125 C-349.518 414.127 -348.723 414.129 -347.904 414.131 C-310.382 414.248 -310.382 414.248 -301 417.375 C-299.169 417.566 -297.337 417.754 -295.503 417.92 C-288.52 418.574 -281.946 419.7 -275.25 421.812 C-274.596 422.018 -273.941 422.223 -273.267 422.435 C-267.275 424.427 -262.22 426.77 -259 432.375 C-258.33 435.853 -258.267 438.904 -259 442.375 C-265.913 450.743 -278.453 452.344 -288.562 454.125 C-289.73 454.345 -290.897 454.566 -292.1 454.793 C-298.506 455.955 -304.491 456.625 -311 456.375 C-311 457.035 -311 457.695 -311 458.375 C-310.34 458.375 -309.68 458.375 -309 458.375 C-306.801 461.996 -306.356 465.7 -305.901 469.832 C-305.775 470.948 -305.775 470.948 -305.646 472.088 C-304.682 481.398 -304.644 490.716 -304.586 500.066 C-304.567 501.993 -304.548 503.919 -304.527 505.845 C-304.476 510.854 -304.437 515.863 -304.399 520.872 C-304.359 526.008 -304.308 531.144 -304.258 536.279 C-304.162 546.311 -304.077 556.343 -304 566.375 C-303.803 565.36 -303.605 564.346 -303.402 563.3 C-303.136 561.947 -302.87 560.595 -302.604 559.242 C-302.474 558.576 -302.345 557.909 -302.212 557.223 C-301.043 551.308 -299.436 545.642 -297.5 539.938 C-297.155 538.917 -296.809 537.896 -296.453 536.844 C-292.433 525.309 -287.359 514.34 -282 503.375 C-281.549 502.45 -281.549 502.45 -281.089 501.507 C-272.489 483.89 -263.559 466.493 -254 449.375 C-253.188 447.911 -252.377 446.446 -251.566 444.98 C-249.052 440.441 -246.526 435.908 -244 431.375 C-241.54 426.959 -239.082 422.542 -236.625 418.125 C-236.142 417.257 -236.142 417.257 -235.649 416.371 C-231.838 409.522 -228.059 402.657 -224.333 395.761 C-218.717 385.371 -212.854 375.148 -206.812 365 C-206.334 364.194 -205.856 363.389 -205.363 362.559 C-204.162 360.634 -202.872 358.865 -201.5 357.062 C-199.681 354.494 -199.681 354.494 -200.539 351.801 C-202.054 349.286 -203.618 346.916 -205.375 344.562 C-206.084 343.601 -206.793 342.639 -207.523 341.648 C-209.289 339.295 -211.094 336.976 -212.914 334.664 C-228.301 314.959 -237.41 292.901 -235 267.375 C-232.309 251.287 -224.216 235.907 -214 223.375 C-213.313 222.524 -212.626 221.673 -211.918 220.797 C-203.614 211.041 -191.572 200.448 -178.609 197.906 C-175.446 197.766 -173.272 198.225 -170.5 199.75 C-169 201.375 -169 201.375 -169 203.375 C-167.922 203.351 -167.922 203.351 -166.823 203.327 C-151.848 203.044 -137.684 203.412 -123 206.375 C-121.248 206.705 -119.495 207.033 -117.742 207.359 C-109.348 208.95 -101.119 210.669 -93 213.375 C-93.014 211.952 -93.014 211.952 -93.027 210.5 C-92.819 194.964 -88.815 179.2 -81.562 165.438 C-78.578 159.611 -78.537 154.51 -78.957 148.108 C-79.157 144.774 -79.251 142.796 -77.512 139.879 C-77.013 139.383 -76.514 138.886 -76 138.375 C-74.35 138.705 -72.7 139.035 -71 139.375 C-70.208 135.896 -69.416 132.417 -68.625 128.938 C-68.403 127.964 -68.182 126.99 -67.953 125.986 C-67.511 124.044 -67.071 122.102 -66.632 120.159 C-66.229 118.383 -65.821 116.607 -65.407 114.833 C-64.305 110.047 -63.655 105.444 -63.344 100.539 C-63 98.375 -63 98.375 -61 95.375 C-60.567 93.927 -60.176 92.467 -59.812 91 C-58.175 85.216 -55.38 80.25 -52.426 75.062 C-50.844 72.588 -50.844 72.588 -51 70.375 C-54.022 70.239 -57.039 70.14 -60.062 70.062 C-60.91 70.021 -61.758 69.979 -62.631 69.936 C-68.059 69.831 -71.436 70.514 -75.659 74.029 C-78.991 77.374 -79.314 80.38 -79.375 85 C-79.265 91.892 -77.602 98.012 -73.344 103.516 C-72 105.375 -72 105.375 -72.312 107.625 C-72.653 108.491 -72.653 108.491 -73 109.375 C-78.414 110.064 -81.248 109.66 -85.688 106.375 C-93.228 99.898 -97.137 91.676 -98.304 81.807 C-98.436 79.218 -98.468 76.655 -98.438 74.062 C-98.429 73.145 -98.421 72.228 -98.412 71.283 C-97.914 51.168 -87.443 36.283 -73.41 22.906 C-60.403 11.483 -44.605 6.26 -28 2.375 C-26.77 2.081 -26.77 2.081 -25.514 1.782 C-17.065 -0.005 -8.594 -0.025 0 0 Z " fill="#050505" transform="translate(517,196.625)"/>
<path d="M0 0 C3 1 3 1 4 3 C4.822 12.279 3.249 21.053 1 30 C0.693 31.254 0.693 31.254 0.379 32.534 C-4.384 51.404 -11.635 69.281 -18.945 87.279 C-22.969 97.202 -26.858 107.141 -30.383 117.254 C-30.699 118.161 -31.016 119.069 -31.342 120.003 C-35.686 132.667 -39.808 145.815 -41.593 159.118 C-41.855 160.975 -42.154 162.828 -42.498 164.672 C-44.318 174.773 -44.399 184.77 -44.375 195 C-44.374 196.367 -44.374 196.367 -44.372 197.761 C-44.33 211.186 -43.915 224.06 -40 237 C-39.753 237.831 -39.507 238.663 -39.252 239.52 C-31.375 265.324 -17.443 286.951 0.188 307.125 C8.517 316.686 15.626 326.007 15.461 339.176 C14.638 346.003 12.525 352.49 10.508 359.047 C6.512 372.059 4.699 384.399 11 397 C12.32 396.67 13.64 396.34 15 396 C14.974 395.261 14.948 394.521 14.921 393.76 C14.132 368.08 14.132 368.08 18.711 357.113 C23.095 346.525 24.405 332.896 20.188 322.062 C17.229 315.96 13.615 310.18 10.167 304.344 C2.896 291.889 -1.784 279.178 -4.578 265.05 C-4.971 263.139 -5.436 261.242 -5.906 259.348 C-17.597 206.9 2.947 149.559 18.688 100.188 C19.068 98.988 19.449 97.789 19.841 96.553 C21.659 90.896 23.582 85.425 26 80 C26.8 77.618 27.532 75.227 28.254 72.82 C29 71 29 71 31 70 C31.204 76.312 30.648 81.574 28.953 87.637 C28.742 88.431 28.53 89.225 28.313 90.043 C27.864 91.728 27.411 93.411 26.954 95.093 C23.109 109.267 19.659 123.368 17.371 137.886 C17.005 139.974 16.532 142.01 16.031 144.07 C13.241 156.441 12.593 168.988 12.625 181.625 C12.625 182.37 12.625 183.116 12.625 183.884 C12.672 204.616 14.986 225.103 21 245 C21.454 246.897 21.907 248.793 22.347 250.693 C23.916 257.414 25.943 263.832 28.312 270.312 C37.497 295.525 46.738 326.855 36 353 C33.344 358.253 30.26 363.11 27 368 C35.351 365.707 41.43 360.388 48 355 C48.58 354.524 49.16 354.048 49.758 353.558 C53.193 350.73 56.605 347.875 60 345 C62.125 348.674 62.984 352.595 63.938 356.688 C70.394 384.296 83.499 408.354 104 428 C101.142 429.429 99.251 428.728 96.104 428.227 C94.865 428.033 93.626 427.84 92.349 427.64 C90.987 427.42 89.624 427.2 88.262 426.98 C86.861 426.759 85.46 426.538 84.059 426.318 C80.356 425.734 76.654 425.143 72.952 424.55 C69.234 423.955 65.514 423.367 61.795 422.779 C57.589 422.114 53.384 421.448 49.179 420.777 C33.217 418.18 33.217 418.18 17.188 416.062 C10.46 415.262 3.85 414.105 -2.793 412.781 C-12.786 410.857 -22.902 409.578 -32.988 408.254 C-34.943 407.995 -36.898 407.736 -38.852 407.477 C-40.267 407.29 -41.683 407.102 -43.098 406.915 C-57.498 405.009 -71.893 403.069 -86.289 401.134 C-91.256 400.466 -96.223 399.799 -101.19 399.134 C-106.1 398.476 -111.011 397.816 -115.921 397.155 C-117.756 396.908 -119.591 396.662 -121.426 396.417 C-131.499 395.071 -141.551 393.644 -151.583 392.017 C-164.105 389.99 -176.725 388.679 -189.326 387.249 C-204.656 385.507 -219.945 383.689 -235.192 381.316 C-242.593 380.172 -249.99 379.275 -257.447 378.595 C-262.81 378.095 -262.81 378.095 -265 377 C-263.565 373.912 -261.83 371.301 -259.812 368.562 C-257.08 364.736 -254.86 360.887 -252.75 356.688 C-250.228 351.863 -247.352 347.806 -243.75 343.75 C-233.409 332.032 -225.919 318.396 -218.415 304.754 C-215.896 300.201 -213.473 295.916 -210 292 C-210.135 293.208 -210.271 294.416 -210.41 295.66 C-210.844 299.563 -211.266 303.467 -211.684 307.371 C-211.806 308.513 -211.928 309.654 -212.053 310.83 C-212.316 313.293 -212.576 315.757 -212.835 318.221 C-213.962 328.877 -213.962 328.877 -214.641 333.848 C-215.889 343.155 -216.205 352.357 -216.25 361.75 C-216.259 362.966 -216.269 364.181 -216.278 365.434 C-216.274 366.585 -216.27 367.736 -216.266 368.922 C-216.263 369.949 -216.261 370.976 -216.259 372.034 C-215.976 375.274 -215.14 377.964 -214 381 C-213.01 381 -212.02 381 -211 381 C-210.091 378.272 -209.878 376.694 -209.859 373.891 C-209.581 358.684 -208.178 343.676 -206.562 328.562 C-206.453 327.525 -206.344 326.488 -206.231 325.419 C-205.912 322.405 -205.584 319.392 -205.254 316.379 C-205.158 315.482 -205.062 314.584 -204.963 313.66 C-204.373 308.415 -203.529 303.288 -202.43 298.125 C-201.917 295.59 -201.634 293.077 -201.438 290.5 C-201.105 286.21 -201.105 286.21 -200 284 C-199.679 282.046 -199.393 280.087 -199.125 278.125 C-195.293 252.815 -185.297 229.054 -172.812 206.875 C-167.575 197.539 -163.82 188.312 -161 178 C-160.675 176.833 -160.35 175.667 -160.016 174.465 C-157.386 164.455 -156.806 154.945 -156.812 144.625 C-156.812 143.957 -156.812 143.288 -156.812 142.6 C-156.828 130.724 -157.342 119.189 -159.992 107.574 C-160.971 103.279 -161.631 98.984 -162.25 94.625 C-164.239 81.296 -166.837 67.688 -170.664 54.758 C-170.775 54.178 -170.886 53.598 -171 53 C-169.688 51.25 -169.688 51.25 -168 50 C-167.34 50 -166.68 50 -166 50 C-149.685 105.632 -138.314 162.436 -166.959 215.778 C-169.432 220.222 -172.219 224.213 -175.457 228.125 C-177.518 230.629 -179.251 233.272 -181 236 C-173.329 233.764 -166.745 230.378 -159.812 226.438 C-158.707 225.813 -157.601 225.188 -156.462 224.544 C-148.226 219.83 -140.473 214.851 -133 209 C-131.532 207.863 -131.532 207.863 -130.035 206.703 C-104.618 186.481 -91.313 158.969 -87.34 127.031 C-86.041 115.39 -85.473 103.699 -85 92 C-81.643 93.258 -78.722 94.728 -75.688 96.625 C-70.378 99.609 -66.56 99.479 -60.676 98.688 C-55.961 98.064 -53.43 98.069 -49 100 C-46.308 100.177 -43.702 100.092 -41 100 C-42.38 104.218 -43.782 108.412 -45.324 112.574 C-51.964 130.527 -56.708 148.984 -59 168 C-59.088 168.718 -59.175 169.435 -59.266 170.174 C-60.247 179.396 -60.164 188.617 -60.168 197.879 C-60.171 199.7 -60.175 201.521 -60.178 203.343 C-60.184 207.142 -60.186 210.942 -60.185 214.742 C-60.185 219.589 -60.199 224.436 -60.216 229.283 C-60.227 233.038 -60.229 236.793 -60.229 240.548 C-60.23 242.335 -60.234 244.121 -60.242 245.908 C-60.305 259.073 -60.305 259.073 -58 272 C-57.789 273.014 -57.577 274.029 -57.359 275.074 C-53.283 292.558 -44.598 307.569 -35.835 323.059 C-34.883 324.743 -33.941 326.434 -33 328.125 C-32.505 328.994 -32.01 329.863 -31.5 330.758 C-26.937 340.621 -25.443 349.289 -25.438 360.125 C-25.392 372.228 -23.729 381.332 -18 392 C-16.68 392 -15.36 392 -14 392 C-13.568 387.249 -14.262 384.049 -15.988 379.594 C-18.344 372.731 -18.465 366.446 -18.438 359.25 C-18.849 337.438 -27.013 322.205 -37.658 303.586 C-48.974 283.744 -53.104 264.704 -53.238 241.949 C-53.243 241.279 -53.248 240.61 -53.253 239.919 C-53.29 234.842 -53.306 229.765 -53.312 224.688 C-53.314 223.943 -53.315 223.199 -53.316 222.433 C-53.35 190.996 -52.407 160.288 -43 130 C-42.7 129.026 -42.401 128.053 -42.092 127.05 C-36.868 110.43 -30.174 94.426 -23.376 78.405 C-23.071 77.687 -22.767 76.97 -22.453 76.23 C-22.154 75.527 -21.856 74.823 -21.548 74.098 C-18.883 67.787 -16.41 61.413 -14 55 C-13.716 54.259 -13.432 53.517 -13.139 52.754 C-11.28 47.88 -9.6 42.963 -8 38 C-7.806 37.401 -7.612 36.801 -7.413 36.184 C-3.484 23.988 -0.755 12.847 0 0 Z " fill="#FEFEFE" transform="translate(599,466)"/>
<path d="M0 0 C1.096 0.009 2.191 0.018 3.32 0.027 C4.585 0.045 4.585 0.045 5.875 0.062 C8.824 8.886 11.771 17.709 14.716 26.534 C16.084 30.632 17.452 34.73 18.822 38.828 C20.146 42.789 21.469 46.751 22.79 50.713 C23.292 52.218 23.795 53.722 24.298 55.227 C26.717 62.458 29.132 69.682 31.235 77.013 C31.921 79.209 32.745 81.312 33.625 83.438 C36.278 89.894 38.515 96.493 40.801 103.086 C41.11 103.976 41.419 104.867 41.738 105.784 C42.356 107.567 42.974 109.35 43.589 111.134 C47.873 123.551 52.374 135.871 57.041 148.149 C58.155 151.078 59.265 154.008 60.374 156.938 C63.654 165.597 66.945 174.253 70.25 182.902 C85.661 223.253 101.183 267.516 89.875 311.062 C89.626 312.045 89.626 312.045 89.371 313.048 C84.878 330.309 77.602 346.764 62.375 357 C52.153 362.978 41.605 365.131 29.876 362.638 C12.967 358.009 -1.908 347.298 -14.125 335.062 C-14.898 334.36 -15.672 333.657 -16.469 332.934 C-33.682 316.963 -42.424 295.007 -49.125 273.062 C-49.516 271.846 -49.906 270.629 -50.309 269.375 C-52.745 261.185 -54.056 252.878 -55.312 244.438 C-55.48 243.337 -55.647 242.236 -55.819 241.101 C-56.783 234.207 -57.34 227.36 -57.664 220.41 C-57.707 219.495 -57.749 218.58 -57.793 217.637 C-58.186 208.643 -58.29 199.656 -58.324 190.655 C-58.336 187.729 -58.356 184.804 -58.377 181.879 C-58.438 173.575 -58.492 165.271 -58.526 156.968 C-58.625 134.327 -59.033 111.772 -60.531 89.176 C-60.593 88.239 -60.654 87.302 -60.718 86.337 C-61.927 68.334 -64.008 50.482 -66.462 32.61 C-66.953 28.904 -67.239 25.302 -67.188 21.562 C-67.178 20.707 -67.169 19.851 -67.16 18.969 C-67.149 18.34 -67.137 17.711 -67.125 17.062 C-65.334 16.382 -63.542 15.705 -61.746 15.039 C-59.921 14.359 -58.101 13.665 -56.285 12.961 C-41.605 7.445 -26.18 3.137 -10.574 1.387 C-0.091 -0.001 -0.091 -0.001 0 0 Z " fill="#FEFEFE" transform="translate(720.125,549.9375)"/>
<path d="M0 0 C0.33 0 0.66 0 1 0 C1.112 1.034 1.112 1.034 1.227 2.09 C2.222 9.208 3.897 14.774 9 20 C21.018 28.622 34.591 30.019 48.938 30.562 C50.003 30.606 51.068 30.649 52.166 30.693 C54.777 30.799 57.389 30.901 60 31 C57.15 41.175 54.261 51.323 51 61.375 C45.251 79.199 40.741 97.352 38 115.875 C36.136 128.382 36.136 128.382 35.004 134.039 C33.387 142.776 32.746 151.66 31.938 160.5 C31.848 161.456 31.759 162.411 31.668 163.396 C30.611 174.786 29.728 186.125 29.438 197.562 C28.624 227.069 25.422 255.973 4 278 C3.424 278.638 2.848 279.276 2.254 279.934 C-9.445 292.53 -28.863 300.822 -45.859 302.238 C-56.883 302.521 -64.733 299.163 -73 292 C-73.657 291.448 -74.315 290.897 -74.992 290.328 C-85.455 280.801 -90.755 267.191 -95 254 C-95.415 252.766 -95.83 251.533 -96.258 250.262 C-102.289 230.346 -100.667 206.827 -95 187 C-94.769 186.184 -94.539 185.367 -94.301 184.526 C-88.177 163.507 -78.74 143.641 -68.315 124.45 C-66.397 120.876 -64.547 117.268 -62.69 113.662 C-57.692 103.974 -52.476 94.441 -47.067 84.978 C-42.745 77.388 -38.6 69.711 -34.5 62 C-29.403 52.417 -24.18 42.917 -18.8 33.49 C-14.087 25.212 -9.548 16.845 -5.048 8.45 C-4.532 7.49 -4.016 6.529 -3.484 5.539 C-2.799 4.258 -2.799 4.258 -2.101 2.952 C-1 1 -1 1 0 0 Z " fill="#FEFEFE" transform="translate(320,562)"/>
<path d="M0 0 C9.029 1.729 15.555 7.531 20.719 14.961 C24.282 20.632 26.31 25.235 27 32 C27.33 32.33 27.66 32.66 28 33 C28.454 32.175 28.908 31.35 29.375 30.5 C29.911 29.675 30.447 28.85 31 28 C31.66 28 32.32 28 33 28 C32.743 29.44 32.469 30.877 32.188 32.312 C31.961 33.513 31.961 33.513 31.73 34.738 C30.915 37.263 30.08 38.381 28 40 C27.34 40 26.68 40 26 40 C26.387 40.461 26.773 40.923 27.172 41.398 C35.697 52.076 37.283 63.953 39.322 77.074 C42.006 94.067 47.318 114.322 62 125 C65.256 126.604 68.549 127.882 72 129 C71.423 128.374 70.845 127.747 70.25 127.102 C69.136 125.876 69.136 125.876 68 124.625 C66.886 123.407 66.886 123.407 65.75 122.164 C64 120 64 120 64 118 C68.239 118.491 70.145 120.872 73 123.875 C76.459 127.509 76.459 127.509 80.312 130.695 C80.869 131.126 81.426 131.556 82 132 C82 132.66 82 133.32 82 134 C71.67 135.098 64.534 132.079 56.266 125.984 C38.164 110.735 34.038 87.677 31.148 65.417 C30.252 58.885 28.674 53.046 26 47 C25.67 46.01 25.34 45.02 25 44 C24.01 44.495 24.01 44.495 23 45 C18.005 63.801 22.81 85.815 28 104 C28.247 104.919 28.495 105.838 28.75 106.785 C30.533 113.179 33.104 119.036 36 125 C36.29 125.601 36.581 126.202 36.88 126.822 C41.099 135.525 45.602 143.982 50.531 152.305 C52 155 52 155 52 157 C51.059 157.315 50.118 157.629 49.148 157.953 C47.903 158.381 46.658 158.809 45.375 159.25 C43.53 159.876 43.53 159.876 41.648 160.516 C38.012 161.995 35.099 163.596 32 166 C31.047 169.048 30.648 170.961 31.68 174.008 C31.785 174.665 31.891 175.323 32 176 C30.785 177.492 30.785 177.492 29.062 178.875 C26.458 181.245 26.049 181.632 25.562 185.312 C25.717 187.912 25.717 187.912 27 189 C28.682 189.233 30.371 189.413 32.062 189.562 C32.982 189.646 33.901 189.73 34.848 189.816 C35.558 189.877 36.268 189.938 37 190 C36.506 190.976 36.013 191.952 35.504 192.957 C34.857 194.242 34.21 195.527 33.562 196.812 C33.237 197.455 32.912 198.098 32.576 198.76 C30.173 203.541 28.849 207.09 28.812 212.438 C28.798 213.385 28.784 214.332 28.77 215.309 C28.828 217.991 28.828 217.991 30.074 220.098 C31 222 31 222 30.879 223.953 C28.838 228.706 24.514 232.295 21 236 C20.367 236.697 19.734 237.395 19.082 238.113 C5.751 252.297 -15.414 263.849 -34.312 268.125 C-35.067 268.297 -35.821 268.469 -36.598 268.646 C-42.073 269.859 -47.384 270.803 -53 271 C-53.651 271.031 -54.302 271.062 -54.972 271.094 C-70.599 271.781 -81.747 269.424 -94 259 C-94.69 258.42 -95.379 257.84 -96.09 257.242 C-97.825 255.551 -98.995 254.204 -100 252 C-100.026 248.808 -98.95 246.023 -98 243 C-96.869 238.021 -95.901 233.026 -95 228 C-94.832 227.165 -94.665 226.329 -94.492 225.469 C-94.108 223.188 -94.108 223.188 -95 220 C-98.518 216.391 -103.124 214.41 -107.609 212.25 C-108.231 211.948 -108.853 211.647 -109.494 211.336 C-111.305 210.471 -113.133 209.639 -114.961 208.809 C-120.347 205.603 -121.934 200.522 -123.422 194.68 C-125.482 181.566 -125.312 167.33 -120 155 C-119.01 154.01 -119.01 154.01 -118 153 C-117.515 153.603 -117.031 154.207 -116.531 154.828 C-111.303 161.062 -107.159 165.513 -98.816 166.301 C-93.056 166.425 -88.429 166.038 -83 164 C-83.495 164.639 -83.99 165.279 -84.5 165.938 C-86.441 169.9 -87.125 173.676 -86 178 C-84.26 180.953 -84.26 180.953 -81 183 C-77.231 183.745 -73.521 183.79 -69.688 183.812 C-68.661 183.838 -67.634 183.863 -66.576 183.889 C-64.05 183.947 -61.526 183.984 -59 184 C-60.403 180.718 -60.403 180.718 -63.375 178.812 C-67.743 177.833 -72.025 177.515 -76.488 177.246 C-79 177 -79 177 -80 176 C-80.543 171.521 -79.8 169.068 -77.104 165.461 C-76.678 164.917 -76.252 164.373 -75.812 163.812 C-74.895 162.582 -73.98 161.35 -73.066 160.117 C-72.573 159.458 -72.079 158.799 -71.571 158.12 C-56.777 139.797 -56.777 139.797 -51 118 C-52.98 117.505 -52.98 117.505 -55 117 C-55.208 117.655 -55.415 118.31 -55.629 118.984 C-59.279 129.796 -64.665 138.753 -72 147.438 C-72.729 148.306 -72.729 148.306 -73.473 149.193 C-78.624 155.095 -84.666 160.332 -92.684 161.336 C-98.68 161.421 -102.372 161.198 -107 157 C-113.855 149.741 -113.855 149.741 -114.266 144.812 C-113.971 140.581 -112.654 137.684 -110.75 134 C-107.548 127.302 -105.966 120.818 -104.812 113.5 C-104.658 112.522 -104.503 111.544 -104.344 110.536 C-104.042 108.606 -103.742 106.675 -103.443 104.744 C-102.793 100.715 -102.022 96.731 -101.125 92.75 C-100.859 91.507 -100.594 90.265 -100.32 88.984 C-99 86 -99 86 -96.25 84.113 C-89.663 81.857 -83.137 81.824 -76.594 84.277 C-72.543 86.288 -68.761 88.493 -65 91 C-61.875 91.167 -61.875 91.167 -59 91 C-58.562 86.62 -58.671 84.518 -61.062 80.75 C-66.091 75.555 -70.859 74.806 -77.875 74.625 C-83.122 74.72 -87.413 75.369 -92.23 77.441 C-94 78 -94 78 -97 77 C-94.182 69.326 -91.271 61.536 -85 56 C-81.812 55.312 -81.812 55.312 -78 56 C-76.104 56.314 -74.209 56.626 -72.312 56.938 C-71.401 57.112 -70.49 57.286 -69.551 57.465 C-58.624 59.112 -47.689 59.186 -36.664 59.185 C-34.005 59.187 -31.346 59.206 -28.688 59.225 C-16.84 59.266 -5.555 59.03 5.438 54.125 C6.571 53.633 7.704 53.14 8.871 52.633 C13.628 50.15 17.716 47.224 20.266 42.375 C22.563 34.947 22.166 26.441 18.812 19.438 C17.916 17.933 16.982 16.45 16 15 C15.299 13.948 14.597 12.896 13.875 11.812 C10.682 8.186 6.356 5.935 2.23 3.516 C1.494 3.015 0.758 2.515 0 2 C0 1.34 0 0.68 0 0 Z " fill="#FEFEFE" transform="translate(561,211)"/>
<path d="M0 0 C0.92 -0.001 1.84 -0.002 2.788 -0.003 C3.778 0.015 4.769 0.032 5.789 0.051 C6.817 0.063 7.845 0.075 8.904 0.087 C25.741 0.391 41.561 2.389 57.844 6.69 C60.402 7.36 62.967 7.996 65.535 8.625 C80.516 12.34 93.715 18.367 107.414 25.363 C108.074 25.693 108.734 26.023 109.414 26.363 C108.887 34.144 106.928 40.998 104.414 48.363 C104.169 49.084 103.924 49.804 103.671 50.546 C96.686 70.846 87.758 90.964 72.414 106.363 C71.802 106.999 71.189 107.634 70.559 108.289 C57.977 120.388 41.44 123.874 24.563 123.785 C16.974 123.588 10.412 122.421 3.414 119.363 C2.392 118.928 1.37 118.492 0.316 118.043 C-10.723 112.935 -19.385 106.584 -24.586 95.363 C-25.448 93.015 -26.053 90.814 -26.586 88.363 C-23.816 86.517 -22.159 85.871 -19.023 85.051 C-12.379 83.115 -6.14 80.674 -0.961 75.988 C0.848 72.534 0.912 70.208 0.414 66.363 C-1.385 63.754 -3.657 62.502 -6.586 61.363 C-8.911 60.976 -11.244 60.633 -13.586 60.363 C-13.029 59.951 -12.472 59.538 -11.898 59.113 C-7.082 55.823 -7.082 55.823 -3.586 51.363 C-3.328 47.408 -3.492 44.767 -5.586 41.363 C-4.843 40.837 -4.843 40.837 -4.086 40.301 C-2.316 38.31 -2.316 38.31 -1.898 34.988 C-2.639 31.082 -2.767 30.719 -5.836 28.613 C-11.073 25.759 -16.784 24.553 -22.586 23.363 C-22.146 17.868 -21.184 14.576 -17.586 10.363 C-15.095 8.456 -12.551 6.694 -9.926 4.977 C-7.609 3.525 -7.609 3.525 -6.226 1.785 C-4.062 -0.091 -2.837 -0.01 0 0 Z " fill="#FEFEFE" transform="translate(349.5859375,407.63671875)"/>
<path d="M0 0 C3.878 3.108 7.428 6.55 11 10 C12.368 11.175 13.742 12.343 15.125 13.5 C19.854 17.593 23.888 22.303 28 27 C28.33 27.33 28.66 27.66 29 28 C29.084 30.33 29.104 32.63 29.082 34.96 C29.079 35.688 29.076 36.417 29.072 37.168 C29.065 38.758 29.056 40.348 29.045 41.938 C29.027 44.466 29.017 46.995 29.009 49.523 C28.984 56.716 28.949 63.908 28.904 71.101 C28.877 75.498 28.86 79.895 28.849 84.293 C28.843 85.959 28.833 87.624 28.819 89.29 C28.698 103.896 30.114 117.259 34.438 131.312 C34.737 132.319 35.037 133.325 35.346 134.361 C36.937 139.667 38.619 144.927 40.469 150.149 C41 152 41 152 41 155 C39.822 155.264 39.822 155.264 38.62 155.533 C30.632 157.346 22.716 159.352 14.812 161.5 C13.166 161.943 13.166 161.943 11.486 162.395 C4.958 164.16 -1.535 166.015 -8 168 C-8.557 167.178 -9.114 166.355 -9.688 165.508 C-13.31 160.198 -16.924 154.99 -21.062 150.062 C-34.823 133.089 -39.038 115.645 -37.222 94.062 C-36.206 84.644 -34.137 75.334 -32.193 66.073 C-30.778 59.294 -29.51 52.517 -28.582 45.652 C-28.475 44.947 -28.368 44.242 -28.257 43.516 C-27.856 40.258 -27.81 38.358 -29.37 35.426 C-31.121 33.562 -32.811 32.31 -35 31 C-35.887 30.34 -36.774 29.68 -37.688 29 C-39.886 27.868 -39.886 27.868 -42 28 C-48.337 31.169 -51.774 37.531 -54 44 C-54.498 47.456 -54.744 50.824 -54.859 54.312 C-55 57 -55 57 -56 59 C-58.375 58.75 -58.375 58.75 -61 58 C-64.598 52.671 -63.566 45.319 -62.535 39.273 C-60.929 33.136 -58.036 28.814 -54 24 C-52.993 22.672 -51.991 21.34 -51 20 C-57.825 22.089 -61.454 25.834 -65 32 C-66.318 35.618 -67.259 39.224 -68 43 C-69.938 43.562 -69.938 43.562 -72 44 C-73.813 42.187 -73.383 39.643 -73.5 37.188 C-73.431 29.288 -70.701 24.202 -66 18 C-65.433 17.239 -64.866 16.479 -64.281 15.695 C-60.33 11.38 -56.79 10.473 -51 10.188 C-36.905 10.889 -22.111 17.608 -11.562 26.875 C-8.916 29.07 -7.382 29.702 -4 30 C-8.355 19.74 -19.184 14.334 -29 10 C-30.196 9.443 -31.393 8.886 -32.625 8.312 C-45.622 3.258 -57.639 4.427 -70.797 8.125 C-74 9 -74 9 -76 9 C-73.635 3.43 -69.146 1.416 -63.812 -0.984 C-47.672 -6.764 -31.828 -1.779 -16.879 4.956 C-8.995 8.769 -2.572 13.757 3.598 19.898 C6.011 22.01 7.972 23.018 11 24 C9.636 16.798 3.764 12.342 -1.942 8.274 C-8.136 4.055 -14.541 0.572 -21.375 -2.5 C-22.099 -2.826 -22.823 -3.152 -23.57 -3.488 C-36.029 -8.829 -49.713 -9.807 -62.887 -6.438 C-65.3 -5.938 -67.542 -5.931 -70 -6 C-70 -6.66 -70 -7.32 -70 -8 C-45.097 -21.199 -22.292 -16.375 0 0 Z " fill="#FEFEFE" transform="translate(669,387)"/>
<path d="M0 0 C0.147 1.102 0.294 2.204 0.445 3.34 C2.91 20.53 8.891 35.275 16.129 51.008 C19.109 57.575 21.294 64 23 71 C23.201 71.691 23.403 72.383 23.611 73.095 C30.029 95.546 21.807 116.962 11.594 136.637 C5.881 147.725 0.858 158.944 -3.812 170.5 C-34.624 246.601 -34.624 246.601 -53 264 C-52.878 262.893 -52.756 261.787 -52.631 260.647 C-51.545 250.473 -50.7 240.299 -50.035 230.09 C-49.955 228.862 -49.875 227.634 -49.793 226.369 C-49.465 221.295 -49.143 216.221 -48.825 211.146 C-45.417 156.96 -45.417 156.96 -40 138 C-39.737 136.169 -39.489 134.335 -39.25 132.5 C-37.105 117.922 -32.658 103.658 -28.119 89.671 C-26.144 83.564 -24.447 77.417 -22.859 71.199 C-22 68 -22 68 -20.902 64.941 C-19.963 61.88 -19.764 59.441 -19.812 56.25 C-19.822 54.835 -19.822 54.835 -19.832 53.391 C-19.847 50.985 -19.847 50.985 -21 49 C-23.017 47.866 -23.017 47.866 -25 47 C-24.929 46.342 -24.859 45.683 -24.786 45.005 C-24.093 38.088 -23.847 31.261 -23.875 24.312 C-23.871 23.332 -23.867 22.352 -23.863 21.342 C-23.871 15.8 -24.181 10.481 -25 5 C-23.766 4.836 -23.766 4.836 -22.508 4.668 C-16.115 3.76 -10.061 2.614 -3.926 0.586 C-2 0 -2 0 0 0 Z " fill="#FEFEFE" transform="translate(407,534)"/>
<path d="M0 0 C0.103 8.827 -0.147 17.518 -0.875 26.312 C-1.974 40.487 -2.662 54.672 -3.302 68.874 C-4.517 95.517 -4.517 95.517 -8 99 C-27.036 110.21 -55.698 107.769 -76.211 103.168 C-79.78 102.068 -80.782 101.735 -83 99 C-83.844 95.875 -83.844 95.875 -84.5 92 C-84.621 91.302 -84.742 90.603 -84.867 89.884 C-85.259 87.591 -85.632 85.296 -86 83 C-86.129 82.208 -86.258 81.416 -86.391 80.6 C-87.174 75.786 -87.928 70.969 -88.668 66.148 C-88.959 64.265 -89.26 62.385 -89.562 60.504 C-90.397 55.28 -91.118 50.064 -91.697 44.807 C-92.533 37.221 -93.713 29.829 -95.316 22.367 C-96.353 17.261 -97.143 12.281 -97.062 7.062 C-97.053 6.29 -97.044 5.518 -97.035 4.723 C-97.024 4.154 -97.012 3.586 -97 3 C-95.375 3.141 -93.75 3.288 -92.125 3.438 C-91.22 3.519 -90.315 3.6 -89.383 3.684 C-87 4 -87 4 -85 5 C-83.186 5.106 -81.368 5.149 -79.551 5.161 C-77.836 5.176 -77.836 5.176 -76.087 5.19 C-74.842 5.194 -73.596 5.199 -72.312 5.203 C-71.026 5.209 -69.74 5.215 -68.415 5.22 C-65.678 5.231 -62.94 5.237 -60.203 5.24 C-57.43 5.245 -54.656 5.258 -51.883 5.281 C-34.38 5.423 -16.564 0 0 0 Z " fill="#FEFEFE" transform="translate(166,831)"/>
<path d="M0 0 C0.718 -0.003 1.436 -0.005 2.176 -0.008 C4.51 -0.012 6.843 0.001 9.176 0.016 C10.368 0.019 10.368 0.019 11.584 0.022 C49.107 0.138 49.107 0.138 58.488 3.266 C60.32 3.456 62.152 3.644 63.985 3.81 C70.968 4.465 77.543 5.59 84.238 7.703 C84.893 7.908 85.547 8.114 86.221 8.325 C92.213 10.318 97.268 12.66 100.488 18.266 C101.159 21.744 101.222 24.794 100.488 28.266 C93.625 36.573 81.222 38.195 71.176 39.953 C69.475 40.271 69.475 40.271 67.74 40.596 C60.844 41.841 54.043 42.632 47.046 43.031 C44.5 43.108 44.5 43.108 42.488 44.266 C40.367 44.536 38.239 44.755 36.109 44.949 C34.804 45.071 33.499 45.193 32.154 45.319 C31.463 45.381 30.772 45.444 30.061 45.509 C26.497 45.833 22.934 46.17 19.371 46.508 C18.675 46.574 17.978 46.639 17.26 46.707 C12.265 47.182 7.281 47.717 2.301 48.328 C1.012 48.482 -0.277 48.635 -1.605 48.793 C-3.624 49.037 -5.643 49.283 -7.66 49.543 C-18.247 50.897 -28.801 51.509 -39.47 51.618 C-41.483 51.64 -43.496 51.68 -45.509 51.719 C-46.747 51.722 -47.986 51.724 -49.262 51.727 C-50.37 51.735 -51.479 51.743 -52.621 51.751 C-56.185 51.152 -57.356 50.119 -59.512 47.266 C-59.973 44.102 -59.973 44.102 -59.887 40.641 C-59.874 39.493 -59.861 38.346 -59.848 37.164 C-59.512 34.266 -59.512 34.266 -57.512 32.266 C-54.458 31.679 -51.467 31.217 -48.387 30.828 C-47.425 30.702 -46.464 30.575 -45.473 30.445 C-35.565 29.19 -25.623 28.288 -15.677 27.391 C-7.089 26.614 1.483 25.745 10.051 24.766 C29.81 22.523 49.596 20.574 69.426 19.078 C71.077 18.952 71.077 18.952 72.762 18.824 C78.355 18.419 83.881 18.178 89.488 18.266 C89.488 17.606 89.488 16.946 89.488 16.266 C88.931 16.217 88.375 16.168 87.801 16.117 C87.038 16.042 86.275 15.968 85.488 15.891 C84.746 15.821 84.003 15.751 83.238 15.68 C80.488 15.266 80.488 15.266 76.82 14.293 C71.986 13.044 67.14 12.624 62.176 12.203 C60.409 12.049 58.642 11.891 56.875 11.73 C56.104 11.665 55.332 11.599 54.538 11.531 C52.488 11.266 52.488 11.266 49.488 10.266 C41.226 9.108 32.85 9.028 24.522 8.82 C20.87 8.728 17.218 8.62 13.566 8.512 C12.505 8.48 12.505 8.48 11.421 8.448 C5.983 8.286 0.547 8.105 -4.887 7.828 C-6.132 7.768 -7.377 7.707 -8.66 7.645 C-11.512 7.266 -11.512 7.266 -14.512 5.266 C-14.182 4.276 -13.852 3.286 -13.512 2.266 C-8.99 0.224 -4.915 0.008 0 0 Z " fill="#050505" transform="translate(157.51171875,610.734375)"/>
<path d="M0 0 C0.796 -0.019 1.592 -0.037 2.411 -0.056 C8.348 0.007 12.176 1.541 17.312 4.5 C14.026 8.486 10.515 9.639 5.688 10.938 C-3.688 13.663 -13.27 16.864 -19.5 24.812 C-21.43 29.181 -21.179 33.026 -19.688 37.5 C-18.368 37.5 -17.048 37.5 -15.688 37.5 C-15.688 36.51 -15.688 35.52 -15.688 34.5 C-15.027 34.5 -14.368 34.5 -13.688 34.5 C-12.242 36.004 -12.242 36.004 -10.562 38.062 C1.818 52.468 19.658 62.266 38.615 64.161 C42.17 64.62 43.947 65.065 46.285 67.848 C47.762 73.097 47.755 78.072 47.688 83.5 C47.679 85.167 47.679 85.167 47.67 86.867 C47.541 95.073 46.684 102.609 44.312 110.5 C30.458 110.98 17.505 110.803 6.312 101.5 C5.741 101.071 5.17 100.641 4.582 100.199 C2.67 97.641 3.085 95.467 3.125 92.312 C2.352 77.346 -7.536 65.082 -16.648 53.844 C-17.704 52.542 -18.758 51.24 -19.812 49.938 C-20.331 49.298 -20.849 48.658 -21.383 47.998 C-26.963 41.034 -32.881 33.373 -34.125 24.312 C-33.336 17.438 -30.487 11.534 -25.062 7.125 C-17.011 1.886 -9.509 0.138 0 0 Z " fill="#FEFEFE" transform="translate(327.6875,473.5)"/>
<path d="M0 0 C4.699 0.436 9.392 0.656 14.106 0.829 C52.235 2.45 52.235 2.45 62.544 13.329 C63.356 16.829 63.356 16.829 62.544 20.329 C58.898 24.824 55.807 26.212 50.231 27.516 C48.977 27.819 47.723 28.122 46.431 28.434 C44.507 28.877 44.507 28.877 42.544 29.329 C41.337 29.66 40.13 29.992 38.886 30.333 C34.339 31.471 29.855 31.847 25.188 32.145 C23.891 32.237 23.891 32.237 22.568 32.331 C19.831 32.524 17.094 32.708 14.356 32.891 C11.608 33.079 8.86 33.269 6.112 33.462 C4.41 33.581 2.707 33.697 1.004 33.809 C0.229 33.863 -0.545 33.916 -1.344 33.971 C-2.019 34.016 -2.694 34.062 -3.39 34.108 C-5.513 34.296 -5.513 34.296 -7.784 34.841 C-11.003 35.428 -14.052 35.471 -17.325 35.49 C-18.334 35.497 -18.334 35.497 -19.363 35.505 C-21.589 35.519 -23.816 35.526 -26.042 35.532 C-26.815 35.535 -27.588 35.537 -28.385 35.54 C-32.505 35.555 -36.626 35.565 -40.747 35.569 C-44.09 35.573 -47.433 35.587 -50.776 35.61 C-123.517 36.102 -123.517 36.102 -142.456 24.329 C-142.456 23.339 -142.456 22.349 -142.456 21.329 C-140.352 21.273 -138.248 21.235 -136.144 21.204 C-134.386 21.169 -134.386 21.169 -132.593 21.133 C-129.431 21.188 -126.494 21.655 -123.394 22.27 C-116.557 23.596 -109.711 23.981 -102.769 24.391 C-100.244 24.547 -97.719 24.704 -95.194 24.864 C-93.54 24.963 -93.54 24.963 -91.852 25.063 C-89.444 25.251 -87.042 25.52 -84.649 25.845 C-79.977 26.448 -75.342 26.508 -70.636 26.532 C-69.207 26.542 -69.207 26.542 -67.75 26.553 C-64.61 26.57 -61.471 26.576 -58.331 26.579 C-57.249 26.58 -56.166 26.581 -55.051 26.583 C-37.136 26.578 -19.281 25.992 -1.394 25.016 C-0.262 24.957 0.869 24.898 2.034 24.838 C18.956 23.938 35.254 22.289 51.544 17.329 C41.672 11.779 28.635 11.643 17.544 10.704 C15.488 10.522 13.433 10.339 11.378 10.153 C9.535 9.987 7.692 9.828 5.849 9.67 C3.786 9.457 1.729 9.185 -0.313 8.827 C-5.5 8.005 -10.705 7.945 -15.948 7.774 C-17.211 7.732 -18.474 7.69 -19.775 7.647 C-35.065 7.171 -50.359 7.177 -65.656 7.198 C-69.807 7.204 -73.959 7.201 -78.11 7.195 C-81.367 7.191 -84.623 7.192 -87.88 7.195 C-89.412 7.195 -90.943 7.195 -92.475 7.192 C-100.099 7.183 -107.651 7.277 -115.238 8.105 C-118.378 8.422 -121.491 8.425 -124.644 8.391 C-125.751 8.382 -126.858 8.373 -127.999 8.364 C-128.81 8.352 -129.621 8.341 -130.456 8.329 C-131.116 7.009 -131.776 5.689 -132.456 4.329 C-100.621 -14.6 -35.356 -3.571 0 0 Z " fill="#0E0E0E" transform="translate(152.4560546875,147.67138671875)"/>
<path d="M0 0 C1.049 44.124 1.049 44.124 -5 61 C-5.258 61.885 -5.517 62.769 -5.783 63.681 C-6.65 66.347 -7.511 68.624 -9 71 C-12.182 72.395 -13.694 72.817 -17 73 C-18.143 73.102 -18.143 73.102 -19.31 73.207 C-36.604 74.398 -48.709 70.415 -62 59 C-62.932 58.212 -63.864 57.425 -64.824 56.613 C-67.515 53.382 -67.54 51.824 -67.312 47.688 C-67.267 46.619 -67.222 45.55 -67.176 44.449 C-67.089 43.237 -67.089 43.237 -67 42 C-66.051 42.165 -65.102 42.33 -64.125 42.5 C-50.892 44.247 -40.144 41.105 -29.387 32.98 C-21.16 26.154 -15.078 18.696 -9.11 9.889 C-2.402 0 -2.402 0 0 0 Z " fill="#FEFEFE" transform="translate(583,457)"/>
<path d="M0 0 C9.982 -0.772 16.498 0.95 24.547 6.875 C31.131 12.578 35.375 20.306 39.25 28 C39.567 28.627 39.884 29.255 40.21 29.901 C53.415 57.025 57.252 88.89 60.7 118.503 C61.858 128.145 63.558 137.585 66.051 146.969 C66.237 147.682 66.424 148.396 66.616 149.132 C66.991 150.562 67.374 151.991 67.767 153.417 C68.713 157.031 69.091 159.44 68 163 C67.808 162.458 67.617 161.917 67.419 161.359 C65.41 155.679 63.398 150.001 61.384 144.323 C60.634 142.209 59.886 140.095 59.138 137.98 C58.057 134.926 56.974 131.873 55.891 128.82 C55.561 127.888 55.232 126.955 54.893 125.994 C53.324 121.583 51.701 117.211 49.939 112.873 C48.119 108.375 46.557 103.834 45.09 99.211 C44.836 98.423 44.583 97.635 44.321 96.823 C43.523 94.341 42.73 91.858 41.938 89.375 C41.141 86.885 40.343 84.395 39.543 81.906 C39.049 80.368 38.557 78.83 38.067 77.291 C36.236 71.586 34.151 66.005 32.008 60.41 C29.61 54.033 27.648 47.578 25.838 41.014 C24.01 33.469 24.01 33.469 19.197 27.876 C16.819 26.928 14.795 26.6 12.25 26.375 C11.451 26.3 10.652 26.225 9.828 26.148 C9.225 26.099 8.622 26.05 8 26 C6.656 22.421 5.327 18.836 4 15.25 C3.618 14.234 3.237 13.218 2.844 12.172 C2.483 11.192 2.122 10.212 1.75 9.203 C1.247 7.852 1.247 7.852 0.734 6.474 C0 4 0 4 0 0 Z " fill="#FEFEFE" transform="translate(710,514)"/>
<path d="M0 0 C13.847 -0.67 26.228 4.863 36.812 13.75 C56.039 32.099 64.399 58.926 65.25 84.875 C65.601 105.262 64.015 126.1 58.773 145.848 C57.922 149.317 57.31 152.795 56.688 156.312 C54.957 165.233 52.073 174.391 47 182 C46.01 182 45.02 182 44 182 C43.263 175.01 44.388 168.84 46.125 162.125 C52.061 138.325 55.572 114.799 55.625 90.25 C55.635 88.912 55.635 88.912 55.646 87.546 C55.714 71.95 53.553 57.465 47.25 43.062 C46.909 42.268 46.569 41.474 46.218 40.656 C43.362 34.269 39.759 29.133 35 24 C34.237 22.948 33.474 21.896 32.688 20.812 C24.601 12.35 14.398 8.363 3.102 6.527 C1 6 1 6 -1 4 C-0.625 1.875 -0.625 1.875 0 0 Z " fill="#0E0E0E" transform="translate(850,729)"/>
<path d="M0 0 C0.761 0.015 1.521 0.031 2.305 0.047 C4.125 0.25 4.125 0.25 5.125 1.25 C5.644 7.645 4.517 11.658 1.5 17.25 C1.131 17.954 0.762 18.657 0.382 19.382 C-2.296 24.391 -5.045 29.029 -8.875 33.25 C-9.715 34.182 -10.556 35.114 -11.422 36.074 C-18.457 43.605 -26.029 49.052 -34.875 54.25 C-36.396 55.163 -37.917 56.077 -39.438 56.992 C-42.404 58.765 -45.373 60.535 -48.355 62.281 C-48.963 62.638 -49.57 62.994 -50.196 63.361 C-51.875 64.25 -51.875 64.25 -54.875 65.25 C-53.118 46.502 -41.491 26.814 -28.02 13.973 C-20.534 7.96 -9.998 -0.346 0 0 Z " fill="#FEFEFE" transform="translate(184.875,721.75)"/>
<path d="M0 0 C9.157 -1.302 15.482 1.988 23 7 C40.802 20.609 51.768 41.015 55 63 C41.092 55.433 28.496 46.957 17 36 C16.377 35.452 15.755 34.904 15.113 34.34 C8.301 28.11 0.44 17.527 -0.195 8.105 C-0.172 7.143 -0.149 6.18 -0.125 5.188 C-0.107 4.212 -0.089 3.236 -0.07 2.23 C-0.047 1.494 -0.024 0.758 0 0 Z " fill="#FEFEFE" transform="translate(44,729)"/>
<path d="M0 0 C3.165 1.884 6.23 3.829 9.25 5.938 C19.974 13.116 29.678 15.322 42.438 15.125 C44.107 15.111 44.107 15.111 45.811 15.098 C48.541 15.074 51.27 15.041 54 15 C52.296 21.211 50.323 26.93 47.312 32.625 C46.992 33.248 46.672 33.87 46.342 34.512 C45.569 36.012 44.786 37.506 44 39 C42.417 39.054 40.834 39.093 39.25 39.125 C37.927 39.16 37.927 39.16 36.578 39.195 C33.839 38.988 32.41 38.234 30 37 C27.707 36.723 27.707 36.723 25.375 36.812 C24.211 36.822 24.211 36.822 23.023 36.832 C20.931 36.879 20.931 36.879 19 38 C13.355 38.924 10.135 37.956 5.258 34.934 C1.713 32.264 0.222 30.865 -0.89 26.53 C-1.083 22.465 -0.965 18.553 -0.688 14.5 C-0.632 13.091 -0.582 11.682 -0.537 10.273 C-0.408 6.844 -0.228 3.425 0 0 Z " fill="#FEFEFE" transform="translate(516,520)"/>
<path d="M0 0 C0.782 -0.021 1.564 -0.041 2.369 -0.062 C7.739 -0.098 11.394 0.818 16.188 3.25 C15.688 5.125 15.688 5.125 14.188 7.25 C8.924 8.974 3.682 9.661 -1.812 10.25 C-2.142 11.24 -2.472 12.23 -2.812 13.25 C-1.115 13.557 -1.115 13.557 0.617 13.871 C2.099 14.143 3.581 14.415 5.062 14.688 C5.809 14.822 6.555 14.957 7.324 15.096 C12.961 16.137 12.961 16.137 15.188 17.25 C15.188 17.91 15.188 18.57 15.188 19.25 C10.652 21.676 7.09 22.442 1.938 22.688 C-7.908 23.254 -17.23 26.285 -24.062 33.688 C-25.863 36.12 -25.863 36.12 -26.75 38.625 C-28.232 42.287 -30.454 45.085 -32.812 48.25 C-36.866 44.196 -35.934 36.7 -36.062 31.25 C-35.941 21.759 -33.771 16.339 -27.27 9.367 C-19.154 2.374 -10.364 0.067 0 0 Z " fill="#FEFEFE" transform="translate(324.8125,438.75)"/>
<path d="M0 0 C2.25 0 2.25 0 5 1 C9.488 7.142 9.974 14.253 10.689 21.578 C11.546 28.692 13.805 34.236 19.312 39 C24.693 41.002 29.21 40.553 34.438 38.5 C43.085 34.22 48.922 27.25 54.463 19.569 C57.541 15.346 60.444 11.841 65.516 10.172 C74.369 8.806 83.069 8.81 92 9 C92.495 10.98 92.495 10.98 93 13 C87.568 15.14 82.94 16.189 77.112 16.212 C70.766 16.314 65.786 16.748 61.055 21.285 C58.226 24.422 55.738 27.771 53.312 31.226 C51.449 33.746 49.279 35.857 47 38 C46.426 38.559 45.853 39.119 45.262 39.695 C38.779 45.583 32.529 47.682 23.746 47.414 C17.793 46.516 13.029 43.464 9.062 39 C4.179 31.897 3.139 23.717 2.562 15.25 C2.233 10.84 1.102 7.917 -1 4 C-0.688 1.625 -0.688 1.625 0 0 Z " fill="#0E0E0E" transform="translate(513,355)"/>
<path d="M0 0 C5.959 4.076 9.705 9.486 11.262 16.547 C12.123 22.642 11.045 27.696 9.262 33.547 C6.642 41.937 6.642 41.937 7.262 50.547 C9.236 53.601 11.698 55.988 14.262 58.547 C15.393 59.942 16.499 61.358 17.574 62.797 C18.045 63.421 18.515 64.045 19 64.688 C22.748 70.212 22.901 74.967 22.262 81.547 C21.495 84.126 20.536 86.158 19.262 88.547 C17.942 88.547 16.622 88.547 15.262 88.547 C15.137 82.797 15.137 82.797 16.262 80.547 C16.674 75.291 16.242 70.947 13.262 66.547 C11.63 64.846 9.959 63.182 8.262 61.547 C3.006 56.467 0.298 52.878 -0.176 45.422 C-0.061 41.424 0.983 38.074 2.262 34.297 C4.813 26.525 6.175 18.587 2.574 10.984 C-2.469 5.669 -6.135 3.417 -13.488 3.109 C-18.891 3.142 -21.608 4.076 -25.434 7.844 C-28.793 12.229 -28.997 15.866 -28.863 21.297 C-28.85 22.343 -28.85 22.343 -28.836 23.41 C-28.812 25.123 -28.777 26.835 -28.738 28.547 C-30.058 28.547 -31.378 28.547 -32.738 28.547 C-35.549 25.736 -35.071 23.846 -35.113 19.922 C-35.003 13.92 -34.662 9.246 -30.738 4.547 C-21.45 -4.102 -11.362 -6.35 0 0 Z " fill="#171618" transform="translate(312.73828125,253.453125)"/>
<path d="M0 0 C7.183 2.953 9.79 11.209 12.613 17.97 C25.429 50.023 31.026 86.828 18.379 119.785 C13.166 131.938 6.299 141.68 -4 150 C-4 146.165 -2.866 145.283 -0.5 142.312 C16.976 118.836 22.161 89.358 18.581 60.639 C15.599 41.881 10.412 23.365 1.688 6.438 C0 3 0 3 0 0 Z " fill="#E9E9E9" transform="translate(474,513)"/>
<path d="M0 0 C0.953 0.01 1.905 0.02 2.887 0.031 C19.729 0.519 35.75 6.001 51.703 10.984 C64.284 14.903 75.716 16.744 88.875 16.625 C89.836 16.62 90.797 16.616 91.787 16.611 C94.129 16.6 96.471 16.583 98.812 16.562 C98.812 17.553 98.812 18.542 98.812 19.562 C85.417 25.303 71.801 22.656 58.207 19.174 C55.715 18.538 53.218 17.929 50.719 17.324 C43.266 15.509 35.856 13.61 28.5 11.438 C5.452 4.766 5.452 4.766 -17.457 9.273 C-20.24 11.347 -22.11 13.793 -24.188 16.562 C-24.848 16.562 -25.507 16.562 -26.188 16.562 C-24.706 10.907 -22.364 6.464 -17.29 3.427 C-11.42 0.672 -6.453 -0.107 0 0 Z " fill="#E9E9E9" transform="translate(461.1875,235.4375)"/>
<path d="M0 0 C12.135 6.19 22.885 15.391 28.336 28.191 C27.961 30.441 27.961 30.441 27.336 32.191 C23.827 31.802 22.24 30.273 19.863 27.781 C9.496 16.99 -0.012 12.878 -14.759 11.354 C-21.081 10.624 -21.081 10.624 -24.266 8.262 C-25.664 6.191 -25.664 6.191 -25.602 3.629 C-24.612 1.056 -23.833 -0.14 -21.664 -1.809 C-14.254 -4.279 -6.998 -3.168 0 0 Z " fill="#050505" transform="translate(562.6640625,303.80859375)"/>
<path d="M0 0 C2.25 -0.312 2.25 -0.312 5 0 C13.995 8.177 14.565 22.766 16.322 34.074 C19.006 51.067 24.318 71.322 39 82 C42.256 83.604 45.549 84.882 49 86 C48.423 85.374 47.845 84.747 47.25 84.102 C46.508 83.284 45.765 82.467 45 81.625 C44.258 80.813 43.515 80.001 42.75 79.164 C41 77 41 77 41 75 C45.239 75.491 47.145 77.872 50 80.875 C53.459 84.509 53.459 84.509 57.312 87.695 C57.869 88.126 58.426 88.556 59 89 C59 89.66 59 90.32 59 91 C48.67 92.098 41.534 89.079 33.266 82.984 C15.164 67.735 11.038 44.677 8.148 22.417 C7.252 15.885 5.674 10.046 3 4 C2.67 3.01 2.34 2.02 2 1 C1.34 0.67 0.68 0.34 0 0 Z " fill="#E9E9E9" transform="translate(584,254)"/>
<path d="M0 0 C0.99 0.33 1.98 0.66 3 1 C3.041 2.011 3.082 3.021 3.125 4.062 C3.818 8.881 6.514 11.767 10 15 C11.987 16.353 13.987 17.686 16 19 C24.558 26.607 24.558 26.607 25.371 32.848 C25.522 40.157 24.441 44.894 21.129 51.367 C19.322 55.582 19.102 59.519 20 64 C21.955 67.309 21.955 67.309 24 70 C23.75 72.375 23.75 72.375 23 74 C19.916 73.67 19.022 73.023 16.875 70.688 C12.982 65.108 11.911 60.782 13 54 C14.402 50.596 16.015 47.345 17.648 44.047 C20.052 38.63 19.793 35.18 17.75 29.562 C14.873 25.002 10.162 22.293 5.863 19.191 C1.799 16.081 -1.475 13.159 -2.355 7.859 C-2.438 5.688 -2.438 5.688 -2 2 C-1.34 1.34 -0.68 0.68 0 0 Z " fill="#0E0E0E" transform="translate(302,311)"/>
<path d="M0 0 C9.79 3.072 15.044 15.872 19.699 24.492 C31.484 47.094 40.773 72.181 39 98 C37.988 100.449 37.988 100.449 37 102 C36.34 102 35.68 102 35 102 C34.976 101.338 34.952 100.676 34.927 99.994 C33.733 71.492 25.376 47.065 12.438 21.875 C11.785 20.596 11.785 20.596 11.12 19.29 C8.34 14.021 5.185 9.469 1.34 4.915 C0 3 0 3 0 0 Z " fill="#E9E9E9" transform="translate(613,247)"/>
<path d="M0 0 C3.815 0.266 5.766 2.377 8.438 4.938 C14.804 11.039 19.813 11.281 28.312 11.125 C29.244 11.116 30.175 11.107 31.135 11.098 C33.423 11.074 35.712 11.041 38 11 C38.66 12.32 39.32 13.64 40 15 C34.083 19.902 34.083 19.902 29.562 20.312 C28.717 20.209 27.871 20.106 27 20 C27 20.66 27 21.32 27 22 C16.672 22.331 9.751 21.223 2 14 C-0.401 10.955 -1.855 8.085 -2.375 4.188 C-2 2 -2 2 0 0 Z " fill="#0E0E0E" transform="translate(532,351)"/>
<path d="M0 0 C4.359 2.221 7.168 4.421 9 9 C9.76 14.701 9.271 19.146 6 24 C2.174 28.33 -2.152 32.084 -6.617 35.738 C-9.926 38.757 -9.343 42.954 -9.562 47.125 C-9.606 47.879 -9.649 48.633 -9.693 49.41 C-9.799 51.273 -9.9 53.137 -10 55 C-11.938 54.688 -11.938 54.688 -14 54 C-15.906 48.281 -16.111 41.411 -14.234 35.648 C-11.359 30.565 -6.983 27.334 -2.305 23.957 C1.396 20.815 2.876 18.197 3.375 13.375 C3.283 10.125 3.283 10.125 1.832 8.301 C-0.734 6.479 -2.578 6.703 -5.688 6.812 C-6.681 6.84 -7.675 6.867 -8.699 6.895 C-9.838 6.947 -9.838 6.947 -11 7 C-11.33 5.68 -11.66 4.36 -12 3 C-8.485 -0.515 -4.726 -0.82 0 0 Z " fill="#0E0E0E" transform="translate(364,325)"/>
<path d="M0 0 C0.99 0 1.98 0 3 0 C4.43 1.609 4.43 1.609 5.875 3.75 C8.224 7.216 10.388 9.81 14 12 C17.124 12.469 20.163 12.379 23.312 12.25 C24.148 12.232 24.984 12.214 25.846 12.195 C27.898 12.148 29.949 12.077 32 12 C32.495 14.475 32.495 14.475 33 17 C26.395 22.6 22.821 23.672 14 23 C7.702 21.038 3.269 17.799 -0.875 12.688 C-2.471 8.875 -2.338 6.124 -2 2 C-1.34 1.34 -0.68 0.68 0 0 Z " fill="#0E0E0E" transform="translate(462,328)"/>
<path d="M0 0 C2.502 0.301 3.713 0.707 5.492 2.523 C6.41 3.752 7.326 4.981 8.242 6.211 C11.489 9.515 14.794 10.87 19.367 11.363 C25.945 11.268 31.696 10.868 38 9 C39.32 9 40.64 9 42 9 C42.495 11.475 42.495 11.475 43 14 C34.416 19.117 26.987 20.03 17 19 C9.954 16.712 3.881 13.424 0 7 C-0.875 3.688 -0.875 3.688 -1 1 C-0.67 0.67 -0.34 0.34 0 0 Z " fill="#0E0E0E" transform="translate(470,411)"/>
<path d="M0 0 C-3.812 4.775 -7.796 8.742 -12.625 12.5 C-18.588 17.242 -22.146 21.585 -24 29 C-29.445 30.485 -29.445 30.485 -35 32 C-31.298 18.281 -21.283 8.394 -9.125 1.375 C-5.64 -0.545 -3.803 -1.468 0 0 Z " fill="#E9E9E9" transform="translate(341,403)"/>
<path d="M0 0 C5.279 0.546 9.763 1.837 14.625 4 C15.319 4.308 16.012 4.615 16.727 4.932 C31.365 11.673 45.021 22.531 54 36 C54.125 38.687 54.125 38.687 54 41 C50.709 37.784 47.705 34.461 44.75 30.938 C34.423 19.622 21.62 12.304 7.692 6.209 C6.406 5.639 6.406 5.639 5.094 5.059 C4.327 4.732 3.561 4.405 2.771 4.068 C1 3 1 3 0 0 Z " fill="#E9E9E9" transform="translate(523,211)"/>
<path d="M0 0 C0.33 0 0.66 0 1 0 C1.025 1.166 1.05 2.331 1.076 3.532 C1.17 7.854 1.27 12.176 1.372 16.498 C1.416 18.369 1.457 20.24 1.497 22.111 C1.555 24.799 1.619 27.488 1.684 30.176 C1.7 31.013 1.717 31.851 1.734 32.714 C1.819 36.037 1.943 38.828 3 42 C2.66 44.262 2.66 44.262 2.062 46.688 C1.868 47.496 1.673 48.304 1.473 49.137 C1.317 49.752 1.161 50.366 1 51 C0.67 51 0.34 51 0 51 C0 34.17 0 17.34 0 0 Z " fill="#E9E9E9" transform="translate(212,715)"/>
<path d="M0 0 C-0.99 0.495 -0.99 0.495 -2 1 C-6.207 3.804 -9.515 7.359 -13 11 C-13 7.261 -12.08 6.591 -9.625 3.875 C-8.999 3.171 -8.372 2.467 -7.727 1.742 C-4.915 -1.095 -3.698 -1.11 0 0 Z " fill="#171618" transform="translate(580,367)"/>
<path d="M0 0 C1.724 2.585 2.447 4.038 3.188 6.938 C3.367 7.607 3.546 8.276 3.73 8.965 C4.033 11.247 3.688 12.82 3 15 C2.299 13.255 1.615 11.504 0.938 9.75 C0.555 8.775 0.172 7.801 -0.223 6.797 C-1.011 3.96 -1.024 2.706 0 0 Z " fill="#B6B7B8" transform="translate(775,662)"/>
<path d="M0 0 C0.124 0.639 0.248 1.279 0.375 1.938 C0.581 2.618 0.788 3.299 1 4 C1.66 4.33 2.32 4.66 3 5 C1.515 7.475 1.515 7.475 0 10 C-1.238 6.424 -0.749 3.663 0 0 Z " fill="#D1D1D2" transform="translate(355,788)"/>
<path d="M0 0 C0.33 0 0.66 0 1 0 C0.67 2.97 0.34 5.94 0 9 C-0.99 8.34 -1.98 7.68 -3 7 C-1.125 2.25 -1.125 2.25 0 0 Z " fill="#D1D1D2" transform="translate(388,758)"/>
</svg>