<svg version="1.1" xmlns="http://www.w3.org/2000/svg" width="1024" height="1024">
<path d="M0 0 C337.92 0 675.84 0 1024 0 C1024 337.92 1024 675.84 1024 1024 C686.08 1024 348.16 1024 0 1024 C0 686.08 0 348.16 0 0 Z " fill="#FEFEFE" transform="translate(0,0)"/>
<path d="M0 0 C6.389 6.22 12.821 14.116 13.617 23.293 C13.624 25.71 13.556 28.09 13.375 30.5 C13.946 30.552 14.517 30.603 15.105 30.656 C31.537 32.955 46.408 46.92 56.375 59.5 C70.335 78.019 78.642 97.402 78.812 120.75 C78.828 122.527 78.828 122.527 78.844 124.339 C78.741 134.515 76.918 143.268 72.047 152.234 C69.996 159.149 73.998 168.226 75.688 174.938 C78.719 187.199 81.086 199.471 82.949 211.967 C83.349 214.343 83.889 216.642 84.453 218.984 C86.092 227.048 85.815 235.369 85.812 243.562 C85.814 244.895 85.814 244.895 85.815 246.254 C85.746 277.757 78.034 309.82 57.375 334.5 C56.18 335.516 54.973 336.518 53.75 337.5 C51.125 340.163 51.125 340.163 51.418 342.804 C52.792 349.895 55.02 356.182 58 362.75 C58.45 363.757 58.9 364.764 59.364 365.802 C68.724 386.515 80.745 405.256 95.078 422.897 C101.015 430.235 106.669 437.672 111.637 445.711 C113.633 448.914 115.712 452.053 117.812 455.188 C118.492 456.202 119.171 457.216 119.871 458.262 C120.367 459 120.864 459.739 121.375 460.5 C122.324 459.654 123.273 458.809 124.25 457.938 C134.061 449.542 141.524 444.857 154.684 444.973 C160.131 445.751 163.09 448.205 166.375 452.5 C168.45 456.65 168.104 461.012 167.375 465.5 C165.773 469.756 163.596 473.72 161.418 477.703 C157.616 484.712 155.827 490.66 155.188 498.562 C155.065 499.871 155.065 499.871 154.939 501.205 C154.721 503.635 154.544 506.066 154.375 508.5 C154.282 509.482 154.189 510.465 154.094 511.477 C154.535 516.22 156.348 520.394 158.062 524.812 C164.095 540.898 168.419 557.274 172.704 573.898 C175.327 584.065 178.125 594.176 181.028 604.266 C182.822 610.518 184.553 616.784 186.25 623.062 C192.441 645.926 198.935 668.733 206.062 691.324 C206.882 693.926 207.694 696.531 208.5 699.138 C211.901 710.132 215.535 721.041 219.221 731.942 C222.198 740.754 225.011 749.558 227.506 758.52 C228.408 761.612 229.479 764.578 230.656 767.572 C241.436 796.466 243.706 827.264 230.879 855.832 C226.208 865.616 220.595 876.234 212.375 883.5 C209.624 884.417 208.016 884.609 205.188 884.562 C203.929 884.542 202.671 884.521 201.375 884.5 C202.693 880.983 204.248 877.86 206.203 874.656 C206.753 873.746 207.303 872.836 207.869 871.898 C208.449 870.942 209.028 869.985 209.625 869 C216.873 856.859 222.615 845.21 226.375 831.5 C226.552 830.902 226.728 830.303 226.91 829.687 C229.808 816.061 228.314 798.788 224.375 785.5 C223.847 783.69 223.847 783.69 223.309 781.844 C220.779 774.03 217.448 767.916 212.375 761.5 C210.769 759.439 209.164 757.377 207.562 755.312 C206.928 754.495 206.928 754.495 206.281 753.661 C197.988 742.885 191.01 731.428 184.488 719.516 C183.374 717.499 182.238 715.496 181.094 713.496 C176.296 705.107 171.841 696.608 167.583 687.934 C166.198 685.143 164.786 682.366 163.371 679.59 C157.787 668.594 152.411 657.564 147.5 646.25 C143.155 636.194 143.155 636.194 138.562 626.25 C138.082 625.234 137.601 624.218 137.105 623.172 C134.906 619.775 132.64 617.889 129.375 615.5 C128.715 615.5 128.055 615.5 127.375 615.5 C128.035 616.119 128.695 616.737 129.375 617.375 C132.248 621.864 132.308 625.307 131.375 630.5 C123.573 652.581 102.539 667.707 82.302 677.585 C72.042 682.457 61.138 685.912 49.75 682.777 C40.604 678.961 36.276 673.39 32.375 664.5 C31.233 676.702 34.439 687.179 37.657 698.82 C40.039 707.713 41.312 716.706 42.29 725.842 C44.742 748.472 49.243 771.076 56.731 792.6 C58.032 796.44 59.11 800.352 60.223 804.25 C61.958 809.145 64.178 813.798 66.375 818.5 C66.806 819.429 67.238 820.358 67.682 821.315 C77.727 842.84 88.95 862.733 104.023 881.16 C107.375 885.297 107.375 885.297 107.375 887.5 C100.814 887.977 95.857 887.326 90.375 883.5 C69.606 863.545 58.843 834.957 49.426 808.458 C48.566 806.038 47.691 803.626 46.809 801.215 C40.771 784.123 37.856 766.167 34.688 748.375 C34.537 747.541 34.387 746.708 34.232 745.849 C32.412 735.713 31.026 725.644 30.092 715.389 C29.516 709.31 28.524 703.513 26.875 697.625 C26.662 696.812 26.45 695.998 26.23 695.16 C25.359 691.873 24.447 688.692 23.246 685.508 C20.835 677.182 20.732 665.649 24.438 657.75 C26.761 653.899 29.779 651.059 33.047 648.012 C34.634 646.522 34.634 646.522 34.5 644 C34.129 643.175 33.757 642.35 33.375 641.5 C32.901 640.428 32.426 639.355 31.938 638.25 C31.675 637.666 31.412 637.082 31.141 636.48 C29.77 632.936 29.093 629.223 28.375 625.5 C26.399 628.464 24.822 631.461 23.188 634.625 C18.355 643.716 12.083 651.022 5.019 658.428 C2.792 660.79 1.416 662.377 0.375 665.5 C0.969 665.737 1.564 665.974 2.176 666.219 C4.857 667.781 5.914 669.389 7.562 672 C8.072 672.794 8.581 673.588 9.105 674.406 C12.587 680.148 12.642 686.994 11.375 693.5 C9.195 699.246 5.707 704.368 2.375 709.5 C-4.504 720.715 -8.392 733.38 -12.357 745.857 C-14.418 752.227 -17 758.345 -19.625 764.5 C-20.096 765.616 -20.566 766.732 -21.052 767.882 C-29.654 788.226 -38.745 808.25 -49.625 827.5 C-33.494 826.631 -17.472 825.404 -1.438 823.438 C-0.714 823.35 0.009 823.262 0.754 823.171 C8.674 822.354 8.674 822.354 16.375 820.5 C19.018 820.3 21.605 820.177 24.25 820.125 C24.958 820.088 25.665 820.05 26.395 820.012 C30.338 819.946 32.168 820.343 35.344 822.742 C37.947 826.277 38.126 828.107 37.844 832.355 C37.034 836.059 35.446 837.35 32.375 839.5 C25.323 842.89 18.087 844.66 10.438 846.125 C9.449 846.329 8.461 846.532 7.443 846.742 C-5.758 849.341 -18.866 850.729 -32.316 850.352 C-34.123 850.317 -35.93 850.283 -37.736 850.25 C-40.486 850.199 -43.224 850.123 -45.97 849.976 C-56.288 849.118 -56.288 849.118 -65.387 853.02 C-68.486 856.815 -70.526 861.004 -72.553 865.436 C-74.357 868.908 -76.835 871.795 -79.375 874.75 C-79.808 875.271 -80.242 875.791 -80.689 876.328 C-84.13 880.312 -87.814 884.07 -93.18 884.891 C-94.689 884.799 -96.198 884.708 -97.708 884.616 C-98.34 884.578 -98.973 884.54 -99.625 884.5 C-96.529 879.821 -93.405 875.163 -90.215 870.547 C-81.618 858.097 -73.388 845.487 -65.625 832.5 C-65.129 831.672 -64.634 830.845 -64.123 829.992 C-48.62 803.93 -35.756 776.586 -25.113 748.207 C-24.809 747.396 -24.504 746.585 -24.191 745.75 C-22.693 741.753 -21.208 737.751 -19.746 733.74 C-15.025 720.909 -9.641 708.572 -1.809 697.301 C1.739 691.903 1.905 685.764 2.375 679.5 C1.715 679.5 1.055 679.5 0.375 679.5 C0.278 680.103 0.182 680.707 0.082 681.328 C-1.026 684.733 -3.111 685.776 -6.129 687.508 C-12.96 690.223 -19.816 689.12 -26.5 686.5 C-28.561 685.539 -30.602 684.537 -32.625 683.5 C-33.739 682.93 -34.852 682.36 -36 681.773 C-57.189 670.28 -75.198 653.141 -87.625 632.5 C-88.286 631.404 -88.948 630.309 -89.629 629.18 C-93.005 623.054 -95.014 617.539 -93.625 610.5 C-92.965 609.51 -92.305 608.52 -91.625 607.5 C-102.437 611.041 -108.326 623.31 -113.75 632.562 C-114.483 633.794 -115.218 635.025 -115.954 636.255 C-117.455 638.77 -118.95 641.287 -120.439 643.808 C-123.764 649.431 -127.135 655.026 -130.5 660.625 C-131.737 662.686 -132.974 664.747 -134.211 666.809 C-134.792 667.777 -135.373 668.744 -135.972 669.742 C-137.016 671.484 -138.059 673.228 -139.099 674.973 C-154.51 700.832 -172.323 725.066 -190.93 748.699 C-210.54 773.651 -226.996 795.26 -227.211 828.083 C-227.344 838.626 -227.344 838.626 -230.625 843.5 C-231.945 843.5 -233.265 843.5 -234.625 843.5 C-241.384 834.738 -239.375 819.896 -238.625 809.5 C-234.874 783.669 -214.148 761.189 -198.625 741.5 C-189.335 729.701 -180.204 717.83 -171.625 705.5 C-171.225 704.925 -170.825 704.35 -170.413 703.758 C-167.652 699.783 -164.915 695.793 -162.198 691.787 C-161.28 690.437 -160.357 689.089 -159.429 687.745 C-158.12 685.844 -156.829 683.932 -155.543 682.016 C-154.949 681.163 -154.949 681.163 -154.342 680.294 C-151.847 676.521 -151.089 673.988 -151.625 669.5 C-152.324 666.472 -152.324 666.472 -153.391 663.371 C-153.78 662.186 -154.169 661.001 -154.57 659.78 C-155.004 658.499 -155.439 657.218 -155.875 655.938 C-156.096 655.281 -156.317 654.624 -156.545 653.948 C-164.351 630.837 -174.2 608.537 -184.625 586.5 C-185.185 585.313 -185.745 584.126 -186.322 582.902 C-195.004 564.256 -195.004 564.256 -205.049 546.328 C-207.404 542.415 -208.326 539.054 -208.625 534.5 C-207.625 533.5 -207.625 533.5 -205.24 533.21 C-202.625 533.5 -202.625 533.5 -201.09 534.983 C-200.659 535.694 -200.229 536.405 -199.785 537.137 C-199.027 538.377 -199.027 538.377 -198.254 539.642 C-195.109 545.158 -192.036 550.703 -189.062 556.312 C-188.715 556.966 -188.368 557.619 -188.01 558.291 C-170.412 591.469 -156.183 626.146 -143.625 661.5 C-141.914 658.723 -140.204 655.946 -138.494 653.168 C-137.032 650.792 -135.568 648.417 -134.104 646.043 C-130.841 640.75 -127.585 635.454 -124.395 630.117 C-107.427 601.767 -107.427 601.767 -94.625 597.5 C-92.727 597.428 -90.826 597.41 -88.926 597.434 C-87.438 597.448 -87.438 597.448 -85.919 597.463 C-85.162 597.475 -84.405 597.487 -83.625 597.5 C-83.629 596.828 -83.634 596.156 -83.638 595.464 C-83.683 588.373 -83.713 581.282 -83.735 574.191 C-83.744 571.556 -83.758 568.921 -83.776 566.286 C-83.997 532.057 -83.997 532.057 -80.625 516.5 C-81.222 516.437 -81.819 516.374 -82.434 516.309 C-103.51 513.334 -122.46 500.663 -138.625 487.5 C-140.291 486.166 -141.958 484.833 -143.625 483.5 C-147.292 485.043 -149.614 487.291 -152.438 490.062 C-162.685 499.506 -174.716 505.466 -187.625 510.5 C-188.558 510.879 -189.492 511.258 -190.453 511.648 C-202.227 516.227 -213.992 518.009 -226.584 517.891 C-228.624 517.875 -230.663 517.891 -232.703 517.91 C-260.134 517.956 -285.83 506.282 -305.125 487.125 C-306.629 485.587 -308.13 484.047 -309.625 482.5 C-310.285 481.84 -310.945 481.18 -311.625 480.5 C-319.007 491.924 -323.312 503.286 -325.227 516.797 C-325.594 519.287 -326.098 521.68 -326.688 524.125 C-328.852 533.608 -328.937 543.375 -329 553.062 C-329.005 553.757 -329.01 554.451 -329.015 555.166 C-329.07 574.429 -326.421 593.474 -323.625 612.5 C-323.458 613.635 -323.292 614.77 -323.12 615.939 C-322.205 621.778 -320.942 627.449 -319.459 633.169 C-318.494 637.022 -317.635 640.892 -316.793 644.773 C-316.634 645.503 -316.475 646.234 -316.312 646.986 C-315.982 648.502 -315.652 650.018 -315.323 651.534 C-312.346 665.194 -309.16 678.739 -305.291 692.178 C-304.436 695.159 -303.612 698.148 -302.788 701.137 C-302.187 703.314 -301.581 705.489 -300.973 707.664 C-299.951 711.323 -298.941 714.985 -297.934 718.648 C-295.142 728.762 -292.293 738.792 -288.867 748.711 C-287.331 753.395 -286.011 758.127 -284.688 762.875 C-282.638 770.213 -280.337 777.389 -277.732 784.547 C-276.215 788.745 -274.877 792.944 -273.688 797.25 C-270.209 809.801 -266.203 822.304 -260.988 834.246 C-259.521 837.748 -258.202 841.287 -256.884 844.847 C-253.861 852.983 -250.646 860.963 -246.938 868.812 C-246.581 869.57 -246.225 870.327 -245.858 871.108 C-243.708 875.568 -241.305 879.733 -238.567 883.86 C-237.625 885.5 -237.625 885.5 -237.625 887.5 C-243.712 887.92 -246.833 887.667 -251.625 883.5 C-266.402 868.057 -272.103 844.194 -278.625 824.5 C-279.052 823.219 -279.479 821.937 -279.906 820.656 C-280.308 819.45 -280.711 818.243 -281.125 817 C-281.343 816.347 -281.561 815.694 -281.785 815.021 C-282.662 812.393 -283.538 809.765 -284.402 807.133 C-285.529 803.706 -286.696 800.304 -287.93 796.914 C-291.106 788.171 -293.88 779.389 -296.376 770.427 C-297.978 764.696 -299.716 759.031 -301.562 753.375 C-304.388 744.638 -306.688 735.79 -308.947 726.892 C-310.899 719.221 -312.999 711.607 -315.188 704 C-320.393 685.729 -324.128 667.113 -327.938 648.51 C-328.921 643.737 -329.968 639.016 -331.25 634.312 C-332.898 628.045 -333.69 621.649 -334.536 615.234 C-335.099 610.993 -335.736 606.809 -336.613 602.621 C-345.075 561.448 -345.295 511.625 -323.625 474.5 C-322.078 472.333 -320.469 470.268 -318.785 468.207 C-317.205 465.882 -316.836 463.417 -316.281 460.695 C-312.301 447.379 -300.292 439.777 -288.823 433.442 C-258.808 416.801 -240.086 387.879 -230.625 355.5 C-228.962 349.229 -227.704 342.896 -226.625 336.5 C-226.506 335.799 -226.388 335.098 -226.266 334.375 C-222.584 311.271 -222.831 285.629 -228.13 262.791 C-228.977 258.87 -229.505 254.907 -230.062 250.938 C-231.475 241.209 -233.091 231.529 -235.188 221.922 C-238.354 207.374 -239.004 192.587 -238.938 177.75 C-238.936 176.926 -238.935 176.102 -238.933 175.253 C-238.874 157.07 -237.351 139.865 -231.625 122.5 C-231.159 120.93 -230.696 119.36 -230.234 117.789 C-215.753 69.913 -180.491 32.39 -136.968 9.077 C-99.089 -10.601 -37.529 -31.049 0 0 Z " fill="#040404" transform="translate(639.625,132.5)"/>
<path d="M0 0 C34.76 28.104 48.058 70.569 56.488 112.598 C57.707 118.646 59.03 124.665 60.404 130.68 C61.419 135.141 62.399 139.609 63.366 144.08 C63.753 145.862 64.147 147.642 64.552 149.42 C69.992 173.692 69.442 202.319 62 226 C61.743 226.836 61.486 227.672 61.221 228.534 C52.139 257.273 34.412 281.445 7.605 295.82 C-10.272 304.424 -31.523 308.759 -51 303 C-52.183 302.682 -53.367 302.363 -54.586 302.035 C-80.383 294.792 -103.931 278.55 -121 258 C-121.687 257.212 -122.374 256.425 -123.082 255.613 C-135.559 240.995 -146.55 222.864 -151 204 C-152.052 204.66 -153.104 205.32 -154.188 206 C-159.957 208.854 -165.706 208.888 -172 208 C-175.403 206.794 -178.11 205.145 -181 203 C-181.614 202.566 -182.227 202.131 -182.859 201.684 C-192.766 193.99 -199.381 181.315 -201.318 168.975 C-202.103 160.93 -201.448 152.91 -197 146 C-194.05 142.794 -190.604 139.33 -186.117 138.762 C-180.182 138.565 -175.845 139.468 -171 143 C-166.665 147.083 -163.25 151.442 -161 157 C-161 157.66 -161 158.32 -161 159 C-160.01 158.67 -159.02 158.34 -158 158 C-157.963 156.765 -157.925 155.53 -157.887 154.258 C-157.693 148.831 -157.382 143.417 -157 138 C-156.94 137.142 -156.881 136.283 -156.819 135.399 C-155.731 121.997 -155.731 121.997 -151.895 117.57 C-149.346 115.792 -146.77 114.403 -144 113 C-142.409 111.873 -140.845 110.706 -139.312 109.5 C-138.222 108.641 -138.222 108.641 -137.109 107.766 C-132.891 104.235 -129.056 100.584 -126 96 C-124.199 95.584 -122.397 95.175 -120.59 94.789 C-117.266 93.776 -114.39 92.237 -111.312 90.625 C-101.114 85.312 -90.67 82.145 -79.117 81.824 C-77.831 81.788 -77.831 81.788 -76.52 81.752 C-74.749 81.709 -72.978 81.678 -71.207 81.658 C-66.999 81.522 -64.577 81.352 -60.918 79.117 C-58.809 77.141 -58.809 77.141 -58.438 74.438 C-58.806 71.963 -58.806 71.963 -60.422 70.379 C-64.433 68.234 -68.33 68.47 -72.812 68.5 C-73.749 68.504 -74.685 68.507 -75.649 68.511 C-86.896 68.776 -96.339 72.396 -106.363 77.398 C-107.173 77.696 -107.173 77.696 -108 78 C-108.66 77.67 -109.32 77.34 -110 77 C-105.451 72.133 -100.83 68.217 -95.188 64.688 C-94.441 64.215 -93.694 63.743 -92.925 63.256 C-82.032 56.438 -70.834 50.374 -59.312 44.688 C-58.529 44.3 -57.745 43.912 -56.938 43.512 C-52.976 41.554 -49.009 39.608 -45.03 37.683 C-27.908 29.322 -12.416 19.393 -2 3 C-1.34 2.01 -0.68 1.02 0 0 Z " fill="#FEFEFE" transform="translate(649,194)"/>
<path d="M0 0 C2 1.062 2 1.062 3 3 C3.286 10.013 -0.713 14.755 -5 20 C-6.953 22.09 -8.961 24.088 -11.027 26.066 C-13.618 28.606 -15.941 31.338 -18.301 34.09 C-19.881 35.866 -21.525 37.491 -23.25 39.125 C-26.697 42.517 -29.691 46.213 -32.688 50 C-33.151 50.582 -33.615 51.163 -34.093 51.762 C-38.811 57.807 -42.364 63.213 -43 71 C-38.512 69.638 -36.821 67.867 -34.25 64 C-30.915 59.196 -27.343 54.869 -23.371 50.582 C-21.483 48.526 -19.653 46.443 -17.832 44.328 C-13.486 39.351 -8.894 34.635 -4.25 29.938 C-3.42 29.078 -2.59 28.219 -1.734 27.334 C11.699 13.766 11.699 13.766 19.167 12.687 C21.062 12.875 21.062 12.875 24 14 C26 17 26 17 25.859 20.368 C23.304 31.173 10.638 40.575 2.875 48.188 C-7.418 58.259 -7.418 58.259 -17 69 C-17.529 69.633 -18.059 70.267 -18.604 70.92 C-20.168 72.809 -21.712 74.714 -23.25 76.625 C-23.766 77.254 -24.281 77.883 -24.812 78.531 C-29.205 83.988 -32.156 88.909 -33 96 C-28.117 94.627 -25.977 91.827 -23.125 87.875 C-16.674 79.336 -9.458 71.661 -2 64 C-1.225 63.203 -0.449 62.405 0.35 61.584 C25.672 35.655 25.672 35.655 32.5 35.188 C36 36 36 36 38.062 37.625 C39.398 41.009 39.138 42.52 38 46 C34.345 51.623 29.821 56.495 25.188 61.312 C20.264 66.505 15.601 71.798 11.141 77.398 C8.863 80.166 6.454 82.763 4 85.375 C-6.939 96.958 -6.939 96.958 -12.125 111.25 C-12.084 112.158 -12.043 113.065 -12 114 C-9.246 113.654 -8.216 113.255 -6.395 111.102 C-5.872 110.284 -5.35 109.467 -4.812 108.625 C0.95 100.012 7.638 92.281 14.691 84.707 C18.87 80.203 22.848 75.541 26.765 70.807 C34.757 61.299 34.757 61.299 40.75 60.5 C41.822 60.665 42.895 60.83 44 61 C46.434 64.651 46.629 65.677 46 70 C42.992 76.538 38.445 82.132 34.028 87.762 C29.177 93.976 24.735 100.453 20.345 106.998 C19.448 108.333 18.546 109.665 17.64 110.994 C16.352 112.884 15.08 114.784 13.812 116.688 C13.426 117.251 13.039 117.815 12.64 118.396 C10.457 121.73 9.548 124.008 10 128 C12.873 127.664 14.544 127.444 16.65 125.393 C17.124 124.708 17.598 124.022 18.086 123.316 C18.621 122.558 19.155 121.8 19.706 121.02 C20.257 120.209 20.808 119.398 21.375 118.562 C21.951 117.74 22.527 116.918 23.12 116.07 C24.76 113.723 26.383 111.364 28 109 C41.091 90.075 41.091 90.075 47 86 C49.684 92.375 50.358 98.503 47.832 105.008 C46.791 107.185 45.733 109.354 44.66 111.516 C38.356 124.748 36.454 138.134 35.309 152.57 C33.223 178.43 24.557 193.668 7.032 212.511 C0.47 219.646 -4.999 227.164 -9 236 C-21.271 232.672 -31.478 225.227 -41 217 C-41.968 216.166 -42.936 215.332 -43.934 214.473 C-52.216 207.184 -60.922 198.911 -66 189 C-65.807 185.463 -65.224 182.589 -63.966 179.281 C-62.837 175.447 -62.715 171.898 -62.729 167.941 C-62.721 166.761 -62.721 166.761 -62.713 165.558 C-62.703 163.856 -62.697 162.153 -62.695 160.451 C-62.691 157.735 -62.675 155.02 -62.654 152.304 C-62.599 144.584 -62.569 136.864 -62.544 129.143 C-62.528 124.409 -62.497 119.676 -62.459 114.942 C-62.447 113.159 -62.441 111.376 -62.441 109.593 C-62.44 99.875 -61.987 90.389 -60.636 80.756 C-60.517 79.902 -60.398 79.048 -60.275 78.168 C-56.214 51.615 -35.996 19.992 -14.523 4.176 C-9.676 1.035 -5.947 -1.092 0 0 Z " fill="#FEFEFE" transform="translate(628,574)"/>
<path d="M0 0 C5.684 1.232 7.543 5.176 10.75 9.812 C13.092 13.459 15.281 17.179 17.438 20.938 C18.038 21.975 18.638 23.013 19.256 24.082 C25.416 34.821 31.154 45.77 36.75 56.812 C37.301 57.9 37.301 57.9 37.863 59.009 C39.846 62.934 41.802 66.871 43.75 70.812 C44.728 72.771 45.707 74.73 46.688 76.688 C47.375 78.062 48.062 79.438 48.75 80.812 C49.74 80.812 50.73 80.812 51.75 80.812 C52.777 72.594 49.889 66.758 46.477 59.484 C46.178 58.846 45.879 58.207 45.571 57.549 C44.903 56.135 44.216 54.73 43.523 53.328 C41.626 47.157 42.488 42.385 45.289 36.775 C45.647 36.107 46.006 35.438 46.375 34.75 C46.925 33.697 46.925 33.697 47.487 32.624 C52.657 22.973 59.473 16.124 69.75 11.812 C74.343 11.18 78.378 11.015 82.438 13.375 C84.327 16.885 83.592 18.957 82.75 22.812 C81.526 25.197 80.3 27.376 78.875 29.625 C75.506 35.233 73.227 40.45 71.75 46.812 C71.575 47.539 71.4 48.265 71.22 49.013 C69.693 55.895 69.401 62.594 69.25 69.625 C68.418 95.04 60.645 114.706 49.437 137.214 C39.575 157.025 32.159 176.693 36.582 199.137 C36.75 202.812 36.75 202.812 34.75 205.43 C33.76 206.175 32.77 206.92 31.75 207.688 C30.941 208.306 30.941 208.306 30.115 208.937 C28.349 210.263 26.555 211.54 24.75 212.812 C23.849 213.468 23.849 213.468 22.931 214.136 C11.263 222.589 -2.387 231.067 -17.25 230.812 C-17.47 230.088 -17.69 229.363 -17.916 228.616 C-20.361 220.89 -23.536 213.845 -27.188 206.625 C-39.6 181.275 -40.063 163.298 -32.168 136.043 C-28.591 123.454 -27.71 111.171 -31.594 98.496 C-32.328 95.492 -32.436 92.895 -32.25 89.812 C-31.062 87.875 -31.062 87.875 -29.25 86.812 C-26.298 87.05 -24.743 87.307 -22.647 89.455 C-18.735 95.696 -15.599 102.141 -12.625 108.875 C-11.697 110.95 -10.767 113.024 -9.836 115.098 C-9.4 116.071 -8.964 117.044 -8.515 118.047 C-6.851 121.685 -5.071 125.251 -3.25 128.812 C-1.93 128.812 -0.61 128.812 0.75 128.812 C0.342 121.09 -1.874 115.127 -5.062 108.125 C-5.547 107.041 -6.032 105.957 -6.532 104.84 C-10.758 95.553 -15.514 86.606 -20.523 77.723 C-22.424 74.328 -24.284 70.919 -26.074 67.465 C-26.482 66.68 -26.891 65.895 -27.311 65.086 C-28.817 61.439 -28.737 58.71 -28.25 54.812 C-26.25 52.812 -26.25 52.812 -23.062 52.062 C-18.618 52.937 -18.374 53.456 -15.945 57.039 C-11.912 63.088 -8.593 69.457 -5.312 75.938 C-4.696 77.142 -4.08 78.346 -3.463 79.55 C-1.715 82.965 0.02 86.388 1.75 89.812 C2.181 90.664 2.611 91.515 3.055 92.392 C5.307 96.855 7.532 101.332 9.75 105.812 C11.081 108.48 12.415 111.146 13.75 113.812 C14.75 115.812 15.75 117.812 16.75 119.812 C17.74 119.812 18.73 119.812 19.75 119.812 C22.092 99.675 1.339 72.38 -8.25 55.812 C-9.964 52.836 -11.676 49.857 -13.385 46.877 C-14.439 45.04 -15.496 43.206 -16.556 41.373 C-17.027 40.554 -17.499 39.735 -17.984 38.891 C-18.399 38.173 -18.814 37.455 -19.241 36.716 C-21.375 32.69 -21.571 29.313 -21.25 24.812 C-20.125 22.875 -20.125 22.875 -18.25 21.812 C-15.438 21.188 -15.438 21.188 -12.25 21.812 C-7.049 26.375 -3.741 32.717 -0.438 38.688 C0.381 40.153 0.381 40.153 1.216 41.647 C26.744 87.795 26.744 87.795 32.75 105.812 C34.07 105.812 35.39 105.812 36.75 105.812 C37.38 97.811 35.353 92.391 32 85.188 C31.505 84.096 31.01 83.005 30.5 81.881 C23.397 66.43 15.342 51.525 6.938 36.75 C-0.649 23.403 -0.649 23.403 -3.562 17.812 C-4.095 16.802 -4.627 15.791 -5.176 14.75 C-6.738 10.477 -7.023 6.586 -5.188 2.375 C-3.25 0.812 -3.25 0.812 0 0 Z " fill="#FEFEFE" transform="translate(715.25,575.1875)"/>
<path d="M0 0 C1.126 0.964 2.251 1.928 3.376 2.892 C4.317 3.697 4.317 3.697 5.276 4.519 C7.071 6.061 8.851 7.62 10.625 9.188 C20.296 17.65 30.151 25.819 40.312 33.686 C41.896 34.919 43.466 36.17 45.035 37.422 C51.715 42.697 58.624 47.563 65.688 52.312 C66.554 52.899 67.421 53.486 68.315 54.091 C74.007 57.875 79.816 61.09 86 64 C86.296 63.243 86.593 62.487 86.898 61.707 C88.115 58.718 89.531 55.871 91 53 C93.957 53.61 96.122 54.528 98.66 56.152 C99.361 56.594 100.063 57.036 100.785 57.491 C101.912 58.207 101.912 58.207 103.062 58.938 C121.752 70.525 140.908 81.341 163.312 82.562 C164.423 82.627 164.423 82.627 165.557 82.693 C167.371 82.799 169.185 82.9 171 83 C171 86.63 171 90.26 171 94 C169.783 94.227 168.566 94.454 167.312 94.688 C162.248 95.951 159.714 98.632 156.688 102.812 C154.282 110.466 157.085 116.92 160 124 C158.83 124.423 158.83 124.423 157.637 124.855 C153.41 126.69 151.584 129.686 149.75 133.812 C149.503 134.534 149.255 135.256 149 136 C147.35 134.68 145.7 133.36 144 132 C144.165 131.196 144.33 130.391 144.5 129.562 C145.665 121.327 145.665 121.327 143.25 113.562 C139.022 108.747 135.155 108.615 129 108 C129.33 107.196 129.66 106.391 130 105.562 C131.209 101.257 131.672 97.439 131 93 C128.855 89.399 126.855 87.542 123 86 C120.282 85.722 120.282 85.722 117.438 85.812 C116.487 85.819 115.537 85.825 114.559 85.832 C111.88 85.899 111.88 85.899 109 87 C108.914 86.325 108.827 85.649 108.738 84.953 C107.884 79.115 107.884 79.115 104.5 74.438 C99.545 71.589 95.69 71.313 90 72 C81.478 74.815 73.454 80.882 67.723 87.715 C64.143 90.719 61.22 90.723 56.75 90.562 C55.96 90.546 55.17 90.529 54.356 90.512 C32.479 89.672 13.607 79.65 -5 69 C-4.712 66.874 -4.419 64.75 -4.125 62.625 C-3.963 61.442 -3.8 60.258 -3.633 59.039 C-3.211 56.13 -2.625 53.292 -1.986 50.424 C-0.893 44.988 -0.654 39.712 -0.586 34.18 C-0.567 33.195 -0.547 32.21 -0.527 31.196 C-0.468 28.089 -0.421 24.982 -0.375 21.875 C-0.337 19.753 -0.298 17.63 -0.258 15.508 C-0.162 10.339 -0.078 5.169 0 0 Z " fill="#FEFEFE" transform="translate(530,494)"/>
<path d="M0 0 C0.66 0.33 1.32 0.66 2 1 C2.977 4.016 3.828 6.998 4.625 10.062 C4.881 11.022 5.137 11.981 5.4 12.97 C8.076 23.096 10.58 33.267 13.099 43.434 C15.066 51.359 17.113 59.253 19.35 67.107 C20.648 71.675 21.82 76.26 22.938 80.875 C24.624 87.798 26.633 94.604 28.714 101.417 C30.449 107.108 32.068 112.821 33.625 118.562 C35.166 124.216 36.876 129.721 38.978 135.197 C40.045 138.124 40.964 141.069 41.862 144.052 C43.838 150.529 45.965 156.945 48.145 163.355 C48.911 165.628 49.677 167.901 50.443 170.174 C51.636 173.708 52.831 177.242 54.032 180.774 C55.201 184.215 56.361 187.66 57.52 191.105 C57.884 192.17 58.248 193.234 58.624 194.331 C58.951 195.31 59.279 196.289 59.616 197.298 C59.909 198.16 60.201 199.022 60.502 199.911 C61 202 61 202 60 204 C47.717 184.429 36.537 164.562 26 144 C25.452 142.932 24.904 141.865 24.339 140.765 C18.672 129.689 13.116 118.586 8.023 107.234 C7.692 106.496 7.36 105.757 7.018 104.996 C5.407 101.402 3.811 97.801 2.237 94.19 C-2.553 83.317 -7.654 73.216 -18 66.75 C-20.624 65.766 -23.23 65.378 -26 65 C-24.032 57.299 -20.985 50.589 -17.312 43.562 C-6.578 22.557 -6.578 22.557 0 0 Z " fill="#FEFEFE" transform="translate(790,672)"/>
<path d="M0 0 C4.204 1.262 7.61 2.846 11.312 5.188 C28.374 15.395 46.282 20.001 66 21 C64.034 24.375 61.913 27.599 59.688 30.808 C51.435 42.799 44.771 55.65 39 69 C19.278 65.885 1.733 54.79 -14 43 C-16.326 41.322 -18.662 39.661 -21 38 C-19.572 34.813 -17.684 32.073 -15.674 29.227 C-10.178 21.389 -6.186 13.324 -2.496 4.508 C-1 1 -1 1 0 0 Z " fill="#FEFEFE" transform="translate(522,571)"/>
<path d="M0 0 C2.552 2.24 3.574 4.04 4.535 7.281 C4.913 8.546 4.913 8.546 5.299 9.836 C5.677 11.155 5.677 11.155 6.062 12.5 C6.318 13.348 6.574 14.196 6.838 15.07 C10.411 27.23 11.41 38.822 11.375 51.438 C11.374 52.237 11.373 53.036 11.371 53.86 C11.226 89.249 -1.764 120.722 -27 146 C-42.006 159.726 -59.578 169.216 -79 175 C-80.537 175.483 -80.537 175.483 -82.105 175.977 C-92.587 178.878 -106.383 180.013 -117 177 C-117 176.34 -117 175.68 -117 175 C-115.797 174.961 -115.797 174.961 -114.57 174.922 C-97.094 174.05 -81.77 169.456 -66 162 C-64.977 161.52 -64.977 161.52 -63.933 161.031 C-35.648 147.533 -17.078 124.425 -5 96 C-4.496 94.819 -3.992 93.638 -3.473 92.422 C7.605 64.005 6.788 29.391 0 0 Z " fill="#F2F2F2" transform="translate(480,452)"/>
<path d="M0 0 C-0.681 0.268 -1.361 0.536 -2.062 0.812 C-43.111 17.407 -65.491 41.888 -85.448 80.981 C-98.415 106.199 -115.489 125.099 -142 136 C-145.057 136.954 -147.824 137.546 -151 138 C-149.389 134.777 -145.962 133.966 -142.812 132.5 C-134.522 128.511 -127.279 123.595 -120 118 C-119.154 117.374 -118.309 116.747 -117.438 116.102 C-104.842 105.242 -97.47 89.225 -90.5 74.5 C-75.299 42.385 -54.1 15.94 -19.828 3.43 C-5.08 -1.693 -5.08 -1.693 0 0 Z " fill="#F2F2F2" transform="translate(624,167)"/>
<path d="M0 0 C3.488 2.48 6.347 4.894 8.664 8.539 C8.352 11.289 8.352 11.289 7.664 13.539 C5.492 14.242 5.492 14.242 2.664 14.539 C0.086 13.211 0.086 13.211 -2.586 11.289 C-11.19 5.534 -18.899 3.169 -29.336 4.539 C-36.497 6.574 -43.058 9.636 -49.336 13.621 C-51.786 14.746 -53.671 14.701 -56.336 14.539 C-57.148 12.352 -57.148 12.352 -57.336 9.539 C-44.86 -7.239 -17.112 -10.702 0 0 Z " fill="#040404" transform="translate(590.3359375,324.4609375)"/>
<path d="M0 0 C1.32 0.33 2.64 0.66 4 1 C4.605 2.801 4.605 2.801 5 5 C0.017 14.412 -9.943 20.761 -19.746 24.344 C-32.58 28.081 -46.176 27.192 -58 21 C-64.38 17.465 -70.396 13.724 -75 8 C-75.375 5.125 -75.375 5.125 -75 3 C-72.766 2.273 -72.766 2.273 -70 2 C-67.859 3.477 -67.859 3.477 -65.75 5.625 C-61.501 9.669 -57.288 12.497 -52 15 C-50.946 15.531 -49.891 16.062 -48.805 16.609 C-44.492 18.427 -40.38 18.496 -35.75 18.438 C-34.912 18.43 -34.073 18.422 -33.21 18.415 C-22.887 18.141 -14.616 15.072 -7 8 C-4.557 5.417 -2.241 2.759 0 0 Z " fill="#0D0D0E" transform="translate(662,414)"/>
<path d="M0 0 C2.062 0.438 2.062 0.438 4 1 C5.259 5.299 6.428 9.613 7.551 13.949 C7.838 15.046 8.124 16.142 8.42 17.271 C9.009 19.528 9.593 21.785 10.17 24.045 C12.182 31.679 14.838 38.775 18 46 C18.778 47.914 19.549 49.83 20.312 51.75 C20.639 52.57 20.965 53.39 21.301 54.234 C21.532 54.817 21.762 55.4 22 56 C23.258 56.103 24.516 56.206 25.812 56.312 C28.605 56.649 29.744 56.8 32 58.562 C32.33 59.037 32.66 59.511 33 60 C31.973 62.768 31.22 63.862 28.68 65.449 C23.02 67.948 18.192 69.65 12 70 C12.33 69.505 12.66 69.01 13 68.5 C16.129 60.678 12.681 53.514 9.75 46.188 C8.953 44.14 8.156 42.091 7.359 40.043 C6.967 39.04 6.574 38.038 6.169 37.005 C1.595 25.248 -2.156 13.823 -1 1 C-0.67 0.67 -0.34 0.34 0 0 Z " fill="#0D0D0E" transform="translate(624,320)"/>
<path d="M0 0 C3.875 1.875 3.875 1.875 5 3 C5.204 4.589 5.348 6.187 5.465 7.785 C5.541 8.782 5.618 9.779 5.697 10.807 C5.776 11.881 5.856 12.956 5.938 14.062 C7.299 41.771 7.299 41.771 15 68 C15.188 71 15.188 71 15 74 C14.01 74.99 14.01 74.99 13 76 C11.004 75.859 11.004 75.859 9 75 C4.569 68.853 3.46 60.253 2 53 C1.867 52.361 1.734 51.722 1.597 51.063 C-1.083 38.125 -2.074 25.517 -2.188 12.312 C-2.201 11.331 -2.214 10.349 -2.227 9.337 C-2.228 8.418 -2.229 7.498 -2.23 6.551 C-2.235 5.722 -2.239 4.894 -2.243 4.04 C-2 2 -2 2 0 0 Z " fill="#040404" transform="translate(682,940)"/>
<path d="M0 0 C4.388 2.308 8.647 4.797 11.812 8.688 C12.312 11.5 12.312 11.5 11.812 13.688 C11.317 14.183 11.317 14.183 10.812 14.688 C6.138 14.306 2.299 13.259 -2 11.406 C-6.745 9.847 -11.587 9.636 -16.543 9.512 C-17.971 9.476 -17.971 9.476 -19.428 9.439 C-21.404 9.396 -23.381 9.365 -25.357 9.346 C-32.56 9.135 -32.56 9.135 -35.832 6.801 C-37.554 4.116 -37.814 2.818 -37.188 -0.312 C-28.674 -10.881 -10.344 -4.815 0 0 Z " fill="#040404" transform="translate(680.1875,266.3125)"/>
<path d="M0 0 C2.689 1.75 5.032 3.448 7 6 C7.562 8.75 7.562 8.75 7 11 C6.34 11.66 5.68 12.32 5 13 C0.92 12.664 -2.06 11.026 -5.562 9 C-11.998 5.287 -17.562 3.924 -25 5 C-30.481 7.029 -35.93 9.448 -39.875 13.875 C-42 16 -42 16 -45.25 16.375 C-48 16 -48 16 -49 15 C-49.411 11.383 -49.392 9.576 -47.316 6.527 C-44.917 3.91 -42.632 2.187 -39.625 0.312 C-38.71 -0.269 -37.795 -0.85 -36.852 -1.449 C-25.167 -7.804 -11.271 -6.533 0 0 Z " fill="#040404" transform="translate(693,319)"/>
<path d="M0 0 C3.536 0.536 3.536 0.536 5 2 C6.811 19.622 0.011 42.848 -9 58 C-10.666 58.043 -12.334 58.041 -14 58 C-14.33 57.67 -14.66 57.34 -15 57 C-14.542 51.637 -13.088 47.069 -11.188 42.062 C-6.741 29.863 -3.825 17.832 -2.492 4.914 C-2 2 -2 2 0 0 Z " fill="#0D0D0E" transform="translate(354,957)"/>
<path d="M0 0 C1.93 0.211 1.93 0.211 4 1 C5.195 2.602 5.195 2.602 6.125 4.625 C6.437 5.277 6.749 5.93 7.07 6.602 C9.923 13.962 10.307 20.25 10.25 28.125 C10.258 29.196 10.265 30.267 10.273 31.371 C10.271 32.406 10.268 33.441 10.266 34.508 C10.263 35.443 10.261 36.377 10.259 37.34 C9.98 40.21 9.191 42.388 8 45 C6.35 44.67 4.7 44.34 3 44 C2.985 43.371 2.971 42.743 2.956 42.095 C2.572 26.156 2.572 26.156 -0.363 10.547 C-1.196 7.214 -1.31 4.41 -1 1 C-0.67 0.67 -0.34 0.34 0 0 Z " fill="#040404" transform="translate(846,902)"/>
<path d="M0 0 C4.85 0.416 6.843 2.417 10 6 C12.82 10.231 12.667 14.031 12 19 C10.25 21.625 10.25 21.625 8 23 C6.68 23 5.36 23 4 23 C7.222 26.867 10.149 27.881 15 29 C15.562 30.938 15.562 30.938 16 33 C15 34 15 34 11.812 34.25 C6.01 33.869 2.589 31.881 -1.375 27.75 C-3.748 24.852 -3.998 24.016 -4.375 20.062 C-4.251 19.052 -4.127 18.041 -4 17 C-1.949 17.293 0.102 17.586 2.152 17.879 C2.762 17.919 3.372 17.959 4 18 C5.271 16.928 5.271 16.928 5.375 14.438 C4.924 10.308 3.459 8.163 1.094 4.832 C0 3 0 3 0 0 Z " fill="#0D0D0E" transform="translate(469,345)"/>
<path d="M0 0 C0.358 0.954 0.717 1.908 1.086 2.891 C3.254 7.95 6.457 12.275 9.625 16.75 C10.808 18.43 11.988 20.112 13.164 21.797 C13.684 22.533 14.205 23.268 14.741 24.026 C16 26 16 26 17 29 C15.927 31.517 14.452 33.668 13 36 C8.874 32.443 6.706 28.171 4.188 23.438 C0.752 17.095 -2.805 10.965 -6.82 4.969 C-8 3 -8 3 -8 1 C-5.291 -0.354 -2.991 -0.065 0 0 Z " fill="#F2F2F2" transform="translate(738,574)"/>
<path d="M0 0 C1.222 0.015 1.222 0.015 2.468 0.029 C16.847 0.315 30.314 4.402 41.074 14.551 C45.247 19.524 48.509 24.787 49.5 31.25 C47.118 28.997 45.238 26.586 43.312 23.938 C33.171 10.846 17.323 5.69 1.5 3.25 C-2.83 2.787 -7.151 2.463 -11.5 2.25 C-7.651 -0.316 -4.461 -0.055 0 0 Z " fill="#DEDEDF" transform="translate(594.5,127.75)"/>
<path d="M0 0 C3 0.125 3 0.125 4 1.125 C4.188 4.062 4.188 4.062 4 7.125 C2 9.125 2 9.125 -0.5 9.375 C-3 9.125 -3 9.125 -5 7.125 C-4.291 0.179 -4.291 0.179 0 0 Z " fill="#0D0D0E" transform="translate(622,379.875)"/>
<path d="M0 0 C0.33 0 0.66 0 1 0 C1.889 5.311 2.134 10.399 2.098 15.777 C2.096 16.589 2.095 17.4 2.093 18.236 C2.088 20.803 2.075 23.37 2.062 25.938 C2.057 27.688 2.053 29.439 2.049 31.189 C2.038 35.46 2.021 39.73 2 44 C1.67 44 1.34 44 1 44 C-0.393 33.377 -0.097 22.689 0 12 C-0.33 12 -0.66 12 -1 12 C-0.67 8.04 -0.34 4.08 0 0 Z " fill="#F2F2F2" transform="translate(714,353)"/>
<path d="M0 0 C0.66 0.33 1.32 0.66 2 1 C0.978 3.745 0.241 4.851 -2.285 6.414 C-8.167 8.978 -13.68 10.86 -20 12 C-18.299 8.598 -14.44 7.591 -11.125 6 C-9.668 5.293 -8.213 4.585 -6.758 3.875 C-6.11 3.563 -5.461 3.251 -4.793 2.93 C-2.747 1.91 -2.747 1.91 0 0 Z " fill="#DEDEDF" transform="translate(493,293)"/>
<path d="M0 0 C3.96 0 7.92 0 12 0 C12 0.33 12 0.66 12 1 C16.29 1.33 20.58 1.66 25 2 C25 2.33 25 2.66 25 3 C21.583 3.029 18.167 3.047 14.75 3.062 C13.298 3.075 13.298 3.075 11.816 3.088 C10.882 3.091 9.947 3.094 8.984 3.098 C8.126 3.103 7.267 3.108 6.382 3.114 C4.113 3.005 2.174 2.636 0 2 C0 1.34 0 0.68 0 0 Z " fill="#BDBDBD" transform="translate(363,627)"/>
<path d="M0 0 C-3.96 1.65 -7.92 3.3 -12 5 C-12.33 3.68 -12.66 2.36 -13 1 C-11.586 0.634 -10.169 0.283 -8.75 -0.062 C-7.961 -0.26 -7.172 -0.457 -6.359 -0.66 C-4 -1 -4 -1 0 0 Z " fill="#BDBDBD" transform="translate(624,167)"/>
<path d="M0 0 C2.934 2.934 3.476 3.653 4.312 7.438 C4.494 8.199 4.676 8.961 4.863 9.746 C5 12 5 12 3 16 C2.01 10.72 1.02 5.44 0 0 Z " fill="#ADAFAF" transform="translate(480,452)"/>
<path d="M0 0 C0.552 0.379 1.103 0.758 1.672 1.148 C-0.095 1.847 -1.866 2.532 -3.641 3.211 C-5.12 3.785 -5.12 3.785 -6.629 4.371 C-9.328 5.148 -9.328 5.148 -12.328 4.148 C-10.756 3.254 -9.17 2.384 -7.578 1.523 C-6.696 1.036 -5.815 0.549 -4.906 0.047 C-2.328 -0.852 -2.328 -0.852 0 0 Z " fill="#CACBCB" transform="translate(485.328125,299.8515625)"/>
<path d="M0 0 C0.33 0 0.66 0 1 0 C1.847 5.081 2.09 9.848 2 15 C0.48 13.887 0.48 13.887 -1 12 C-1.074 9.082 -1.074 9.082 -0.688 5.812 C-0.568 4.726 -0.448 3.639 -0.324 2.52 C-0.217 1.688 -0.11 0.857 0 0 Z " fill="#BDBDBD" transform="translate(714,353)"/>
<path d="M0 0 C0.66 0.33 1.32 0.66 2 1 C-0.029 3.942 -2.058 5.971 -5 8 C-5.66 7.67 -6.32 7.34 -7 7 C-4.69 4.69 -2.38 2.38 0 0 Z " fill="#E8E9E9" transform="translate(546,264)"/>
<path d="M0 0 C0.66 0 1.32 0 2 0 C2.99 2.97 3.98 5.94 5 9 C2.379 6.379 0.804 4.178 -1 1 C-0.67 0.67 -0.34 0.34 0 0 Z " fill="#CACBCB" transform="translate(639,150)"/>
</svg>