<svg version="1.1" xmlns="http://www.w3.org/2000/svg" width="1024" height="1024">
<path d="M0 0 C337.92 0 675.84 0 1024 0 C1024 337.92 1024 675.84 1024 1024 C686.08 1024 348.16 1024 0 1024 C0 686.08 0 348.16 0 0 Z " fill="#FEFEFE" transform="translate(0,0)"/>
<path d="M0 0 C0.868 -0.003 1.735 -0.006 2.629 -0.01 C5.55 -0.018 8.471 -0.012 11.392 -0.006 C13.502 -0.009 15.612 -0.013 17.721 -0.018 C23.53 -0.028 29.339 -0.026 35.148 -0.022 C41.409 -0.019 47.669 -0.028 53.93 -0.036 C66.2 -0.048 78.47 -0.05 90.74 -0.048 C100.712 -0.046 110.683 -0.048 120.655 -0.052 C122.087 -0.053 123.519 -0.053 124.951 -0.054 C127.109 -0.055 129.267 -0.056 131.425 -0.057 C151.492 -0.065 171.56 -0.069 191.628 -0.065 C192.763 -0.065 192.763 -0.065 193.921 -0.065 C197.757 -0.064 201.592 -0.063 205.428 -0.062 C206.19 -0.062 206.952 -0.062 207.736 -0.062 C209.277 -0.061 210.818 -0.061 212.358 -0.061 C236.325 -0.055 260.292 -0.063 284.26 -0.082 C311.182 -0.102 338.103 -0.113 365.025 -0.109 C367.896 -0.109 370.767 -0.108 373.637 -0.108 C374.344 -0.108 375.051 -0.108 375.779 -0.108 C386.451 -0.107 397.123 -0.113 407.795 -0.124 C419.933 -0.136 432.071 -0.137 444.209 -0.125 C450.403 -0.119 456.598 -0.118 462.792 -0.13 C468.462 -0.141 474.132 -0.138 479.802 -0.124 C481.854 -0.121 483.906 -0.124 485.957 -0.132 C488.747 -0.142 491.535 -0.133 494.324 -0.12 C495.121 -0.128 495.917 -0.135 496.737 -0.142 C503.309 -0.079 509.546 1.172 514.937 5.087 C515.548 5.74 516.159 6.394 516.789 7.067 C517.415 7.713 518.042 8.359 518.687 9.024 C524.004 15.893 523.844 21.923 523.808 30.323 C523.813 31.67 523.819 33.017 523.827 34.363 C523.843 38.059 523.841 41.754 523.835 45.45 C523.833 49.438 523.847 53.426 523.859 57.413 C523.88 65.225 523.885 73.036 523.883 80.847 C523.882 87.197 523.886 93.548 523.893 99.898 C523.895 101.727 523.897 103.557 523.899 105.386 C523.901 106.752 523.901 106.752 523.903 108.145 C523.921 125.368 523.92 142.59 523.914 159.812 C523.908 175.561 523.929 191.31 523.962 207.058 C523.996 223.233 524.011 239.409 524.006 255.584 C524.004 264.663 524.009 273.742 524.034 282.821 C524.055 290.552 524.059 298.283 524.04 306.014 C524.031 309.957 524.03 313.899 524.05 317.841 C524.069 321.455 524.064 325.068 524.042 328.682 C524.036 330.599 524.054 332.516 524.073 334.433 C523.996 342.032 522.859 347.957 518.414 354.254 C511.331 361.154 503.61 363.597 493.884 363.594 C492.832 363.579 491.779 363.563 490.695 363.547 C489.597 363.543 488.498 363.539 487.366 363.535 C483.882 363.518 480.398 363.48 476.914 363.442 C474.541 363.427 472.169 363.413 469.797 363.401 C464.002 363.368 458.208 363.318 452.414 363.254 C452.43 364.309 452.445 365.364 452.461 366.45 C453.69 457.372 453.69 457.372 432.414 481.254 C431.754 481.584 431.094 481.914 430.414 482.254 C446.254 482.584 462.094 482.914 478.414 483.254 C478.744 484.904 479.074 486.554 479.414 488.254 C476.902 490.766 475.383 490.494 471.957 490.516 C471.187 490.511 470.417 490.506 469.625 490.501 C468.807 490.503 467.989 490.505 467.146 490.508 C464.376 490.513 461.607 490.504 458.837 490.495 C456.843 490.496 454.849 490.498 452.855 490.5 C447.352 490.505 441.85 490.497 436.347 490.487 C430.422 490.478 424.497 490.481 418.572 490.482 C408.299 490.483 398.026 490.477 387.753 490.466 C376.975 490.454 366.198 490.446 355.42 490.444 C354.751 490.444 354.081 490.444 353.391 490.444 C349.992 490.443 346.592 490.443 343.192 490.442 C319.096 490.438 294.999 490.424 270.903 490.405 C247.49 490.387 224.077 490.373 200.664 490.364 C199.942 490.364 199.221 490.364 198.478 490.364 C191.234 490.361 183.99 490.358 176.746 490.356 C161.988 490.351 147.23 490.345 132.472 490.339 C131.454 490.339 131.454 490.339 130.416 490.338 C85.082 490.32 39.748 490.288 -5.586 490.254 C-5.968 488.263 -6.299 486.262 -6.586 484.254 C-4.623 482.291 -0.814 483.07 1.871 483.049 C2.652 483.039 3.432 483.029 4.236 483.019 C6.828 482.987 9.42 482.963 12.011 482.938 C13.804 482.918 15.596 482.897 17.388 482.875 C22.114 482.82 26.841 482.77 31.567 482.722 C36.387 482.672 41.206 482.616 46.025 482.561 C55.488 482.453 64.951 482.352 74.414 482.254 C73.933 481.306 73.451 480.358 72.955 479.382 C64.238 461.697 75.499 436.912 81.265 419.854 C84.335 410.907 87.771 402.143 91.476 393.442 C91.934 392.366 92.392 391.289 92.863 390.18 C95.681 383.742 98.802 377.531 102.111 371.334 C102.526 370.553 102.941 369.773 103.369 368.969 C104.382 367.063 105.398 365.159 106.414 363.254 C105.835 363.259 105.257 363.264 104.661 363.268 C90.555 363.379 76.448 363.462 62.341 363.514 C55.518 363.539 48.696 363.574 41.874 363.632 C35.287 363.687 28.699 363.716 22.111 363.729 C19.602 363.738 17.093 363.756 14.583 363.783 C11.06 363.82 7.538 363.824 4.014 363.822 C2.984 363.84 1.954 363.858 0.893 363.877 C-7.124 363.82 -13.793 361.814 -19.738 356.235 C-27.093 348.333 -28.027 341.716 -27.987 331.179 C-27.993 329.832 -28 328.484 -28.008 327.137 C-28.026 323.439 -28.026 319.742 -28.022 316.044 C-28.022 312.055 -28.038 308.065 -28.053 304.075 C-28.077 296.26 -28.086 288.445 -28.087 280.63 C-28.089 274.278 -28.095 267.925 -28.104 261.572 C-28.131 243.558 -28.145 225.544 -28.142 207.529 C-28.142 206.558 -28.142 205.587 -28.142 204.587 C-28.142 203.615 -28.142 202.642 -28.142 201.641 C-28.141 185.885 -28.169 170.129 -28.212 154.374 C-28.255 138.193 -28.275 122.012 -28.273 105.831 C-28.272 96.748 -28.28 87.665 -28.312 78.582 C-28.34 70.848 -28.346 63.115 -28.326 55.381 C-28.316 51.437 -28.316 47.493 -28.342 43.548 C-28.365 39.934 -28.361 36.32 -28.335 32.706 C-28.328 30.786 -28.351 28.866 -28.375 26.947 C-28.282 19.163 -26.921 14.059 -21.586 8.254 C-14.746 2.182 -9.222 -0.05 0 0 Z " fill="#FEFEFE" transform="translate(278.5861930847168,309.7455244064331)"/>
<path d="M0 0 C0.868 -0.003 1.735 -0.006 2.629 -0.01 C5.55 -0.018 8.471 -0.012 11.392 -0.006 C13.502 -0.009 15.612 -0.013 17.721 -0.018 C23.53 -0.028 29.339 -0.026 35.148 -0.022 C41.409 -0.019 47.669 -0.028 53.93 -0.036 C66.2 -0.048 78.47 -0.05 90.74 -0.048 C100.712 -0.046 110.683 -0.048 120.655 -0.052 C122.087 -0.053 123.519 -0.053 124.951 -0.054 C127.109 -0.055 129.267 -0.056 131.425 -0.057 C151.492 -0.065 171.56 -0.069 191.628 -0.065 C192.763 -0.065 192.763 -0.065 193.921 -0.065 C197.757 -0.064 201.592 -0.063 205.428 -0.062 C206.19 -0.062 206.952 -0.062 207.736 -0.062 C209.277 -0.061 210.818 -0.061 212.358 -0.061 C236.325 -0.055 260.292 -0.063 284.26 -0.082 C311.182 -0.102 338.103 -0.113 365.025 -0.109 C367.896 -0.109 370.767 -0.108 373.637 -0.108 C374.344 -0.108 375.051 -0.108 375.779 -0.108 C386.451 -0.107 397.123 -0.113 407.795 -0.124 C419.933 -0.136 432.071 -0.137 444.209 -0.125 C450.403 -0.119 456.598 -0.118 462.792 -0.13 C468.462 -0.141 474.132 -0.138 479.802 -0.124 C481.854 -0.121 483.906 -0.124 485.957 -0.132 C488.747 -0.142 491.535 -0.133 494.324 -0.12 C495.121 -0.128 495.917 -0.135 496.737 -0.142 C503.309 -0.079 509.546 1.172 514.937 5.087 C515.548 5.74 516.159 6.394 516.789 7.067 C517.415 7.713 518.042 8.359 518.687 9.024 C524.004 15.893 523.844 21.923 523.808 30.323 C523.813 31.67 523.819 33.017 523.827 34.363 C523.843 38.059 523.841 41.754 523.835 45.45 C523.833 49.438 523.847 53.426 523.859 57.413 C523.88 65.225 523.885 73.036 523.883 80.847 C523.882 87.197 523.886 93.548 523.893 99.898 C523.895 101.727 523.897 103.557 523.899 105.386 C523.901 106.752 523.901 106.752 523.903 108.145 C523.921 125.368 523.92 142.59 523.914 159.812 C523.908 175.561 523.929 191.31 523.962 207.058 C523.996 223.233 524.011 239.409 524.006 255.584 C524.004 264.663 524.009 273.742 524.034 282.821 C524.055 290.552 524.059 298.283 524.04 306.014 C524.031 309.957 524.03 313.899 524.05 317.841 C524.069 321.455 524.064 325.068 524.042 328.682 C524.036 330.599 524.054 332.516 524.073 334.433 C523.996 342.032 522.859 347.957 518.414 354.254 C511.331 361.154 503.61 363.597 493.884 363.594 C492.832 363.579 491.779 363.563 490.695 363.547 C489.597 363.543 488.498 363.539 487.366 363.535 C483.882 363.518 480.398 363.48 476.914 363.442 C474.541 363.427 472.169 363.413 469.797 363.401 C464.002 363.368 458.208 363.318 452.414 363.254 C452.43 364.309 452.445 365.364 452.461 366.45 C453.69 457.372 453.69 457.372 432.414 481.254 C431.754 481.584 431.094 481.914 430.414 482.254 C446.254 482.584 462.094 482.914 478.414 483.254 C478.744 484.904 479.074 486.554 479.414 488.254 C476.902 490.766 475.383 490.494 471.957 490.516 C471.187 490.511 470.417 490.506 469.625 490.501 C468.807 490.503 467.989 490.505 467.146 490.508 C464.376 490.513 461.607 490.504 458.837 490.495 C456.843 490.496 454.849 490.498 452.855 490.5 C447.352 490.505 441.85 490.497 436.347 490.487 C430.422 490.478 424.497 490.481 418.572 490.482 C408.299 490.483 398.026 490.477 387.753 490.466 C376.975 490.454 366.198 490.446 355.42 490.444 C354.751 490.444 354.081 490.444 353.391 490.444 C349.992 490.443 346.592 490.443 343.192 490.442 C319.096 490.438 294.999 490.424 270.903 490.405 C247.49 490.387 224.077 490.373 200.664 490.364 C199.942 490.364 199.221 490.364 198.478 490.364 C191.234 490.361 183.99 490.358 176.746 490.356 C161.988 490.351 147.23 490.345 132.472 490.339 C131.454 490.339 131.454 490.339 130.416 490.338 C85.082 490.32 39.748 490.288 -5.586 490.254 C-5.968 488.263 -6.299 486.262 -6.586 484.254 C-4.623 482.291 -0.814 483.07 1.871 483.049 C2.652 483.039 3.432 483.029 4.236 483.019 C6.828 482.987 9.42 482.963 12.011 482.938 C13.804 482.918 15.596 482.897 17.388 482.875 C22.114 482.82 26.841 482.77 31.567 482.722 C36.387 482.672 41.206 482.616 46.025 482.561 C55.488 482.453 64.951 482.352 74.414 482.254 C73.933 481.306 73.451 480.358 72.955 479.382 C64.238 461.697 75.499 436.912 81.265 419.854 C84.335 410.907 87.771 402.143 91.476 393.442 C91.934 392.366 92.392 391.289 92.863 390.18 C95.681 383.742 98.802 377.531 102.111 371.334 C102.526 370.553 102.941 369.773 103.369 368.969 C104.382 367.063 105.398 365.159 106.414 363.254 C105.835 363.259 105.257 363.264 104.661 363.268 C90.555 363.379 76.448 363.462 62.341 363.514 C55.518 363.539 48.696 363.574 41.874 363.632 C35.287 363.687 28.699 363.716 22.111 363.729 C19.602 363.738 17.093 363.756 14.583 363.783 C11.06 363.82 7.538 363.824 4.014 363.822 C2.984 363.84 1.954 363.858 0.893 363.877 C-7.124 363.82 -13.793 361.814 -19.738 356.235 C-27.093 348.333 -28.027 341.716 -27.987 331.179 C-27.993 329.832 -28 328.484 -28.008 327.137 C-28.026 323.439 -28.026 319.742 -28.022 316.044 C-28.022 312.055 -28.038 308.065 -28.053 304.075 C-28.077 296.26 -28.086 288.445 -28.087 280.63 C-28.089 274.278 -28.095 267.925 -28.104 261.572 C-28.131 243.558 -28.145 225.544 -28.142 207.529 C-28.142 206.558 -28.142 205.587 -28.142 204.587 C-28.142 203.615 -28.142 202.642 -28.142 201.641 C-28.141 185.885 -28.169 170.129 -28.212 154.374 C-28.255 138.193 -28.275 122.012 -28.273 105.831 C-28.272 96.748 -28.28 87.665 -28.312 78.582 C-28.34 70.848 -28.346 63.115 -28.326 55.381 C-28.316 51.437 -28.316 47.493 -28.342 43.548 C-28.365 39.934 -28.361 36.32 -28.335 32.706 C-28.328 30.786 -28.351 28.866 -28.375 26.947 C-28.282 19.163 -26.921 14.059 -21.586 8.254 C-14.746 2.182 -9.222 -0.05 0 0 Z M-20.586 20.254 C-20.689 73.054 -20.792 125.854 -20.899 180.254 C-20.944 196.94 -20.99 213.626 -21.037 230.817 C-21.053 245.744 -21.053 245.744 -21.063 260.672 C-21.068 267.333 -21.086 273.993 -21.114 280.653 C-21.146 288.334 -21.16 296.014 -21.153 303.695 C-21.15 307.624 -21.155 311.553 -21.182 315.483 C-21.211 319.691 -21.201 323.898 -21.187 328.106 C-21.202 329.331 -21.217 330.557 -21.232 331.819 C-21.169 338.911 -20.352 343.831 -15.586 349.254 C-11.533 353.22 -8.542 355.365 -2.837 355.435 C-1.334 355.457 -1.334 355.457 0.2 355.479 C1.304 355.489 2.408 355.5 3.545 355.511 C4.705 355.525 5.864 355.54 7.059 355.555 C17.757 355.681 28.455 355.751 39.154 355.803 C47.06 355.842 54.964 355.91 62.869 356.017 C68.43 356.09 73.991 356.129 79.553 356.142 C82.873 356.151 86.191 356.18 89.511 356.237 C93.22 356.297 96.926 356.301 100.635 356.292 C101.729 356.323 102.823 356.354 103.95 356.385 C109.806 356.321 109.806 356.321 114.604 353.269 C116.366 351.002 117.885 348.681 119.414 346.254 C125.995 339.951 132.677 337.152 141.543 335.337 C144.543 334.542 144.543 334.542 145.738 332.09 C146.531 328.762 147.126 325.446 147.664 322.067 C150.166 307.941 155.472 295.01 160.976 281.817 C165.168 271.763 168.592 261.85 170.963 251.219 C171.411 249.268 171.93 247.333 172.449 245.399 C173.673 240.533 174.204 235.605 174.789 230.629 C181.595 176.357 181.595 176.357 202.429 159.868 C218.38 148.18 234.788 143.682 254.414 145.254 C258.286 145.872 261.774 146.809 265.414 148.254 C266.125 148.533 266.837 148.811 267.57 149.098 C276.964 153.289 282.874 160.189 287.414 169.254 C287.829 170.052 288.244 170.85 288.672 171.672 C293.356 182.237 292.253 195.067 290.414 206.254 C291.321 206.811 292.229 207.368 293.164 207.942 C298.246 211.558 301.053 215.132 302.414 221.254 C303.377 230.374 301.778 238.89 296.101 246.254 C292.051 253.455 295.926 263.061 297.664 270.692 C297.856 271.549 298.048 272.407 298.246 273.29 C299.64 279.094 301.647 284.39 304.009 289.865 C306.832 296.676 309.173 303.671 311.601 310.629 C312.139 312.162 312.678 313.695 313.217 315.227 C315.321 321.223 317.419 327.22 319.414 333.254 C319.996 333.294 320.579 333.334 321.179 333.375 C355.459 335.814 355.459 335.814 363.734 344.309 C364.288 344.951 364.843 345.593 365.414 346.254 C366.071 346.979 366.729 347.703 367.406 348.45 C369.11 350.359 370.767 352.297 372.414 354.254 C373.539 355.611 373.539 355.611 376.476 355.317 C377.93 355.286 377.93 355.286 379.414 355.254 C379.535 354.288 379.656 353.321 379.781 352.325 C380.217 348.94 380.67 345.558 381.145 342.178 C381.376 340.522 381.597 338.865 381.816 337.208 C382.846 330.734 382.846 330.734 386.226 327.879 C386.948 327.013 387.67 326.147 388.414 325.254 C387.328 314.904 382.275 304.767 378.441 295.208 C375.187 286.892 373.08 279.025 371.414 270.254 C363.164 269.924 354.914 269.594 346.414 269.254 C346.084 267.604 345.754 265.954 345.414 264.254 C354.654 263.924 363.894 263.594 373.414 263.254 C374.074 259.954 374.734 256.654 375.414 253.254 C366.174 252.924 356.934 252.594 347.414 252.254 C347.414 250.604 347.414 248.954 347.414 247.254 C363.254 247.254 379.094 247.254 395.414 247.254 C394.414 251.254 394.414 251.254 391.414 253.254 C391.744 253.914 392.074 254.574 392.414 255.254 C392.646 257.967 392.833 260.662 392.976 263.379 C393.019 264.134 393.063 264.888 393.107 265.665 C393.213 267.528 393.314 269.391 393.414 271.254 C394.404 271.254 395.394 271.254 396.414 271.254 C400.692 261.574 400.728 249.902 401.629 239.448 C402.907 225.492 402.907 225.492 406.476 220.192 C409.96 217.894 412.147 217.661 416.23 217.59 C419.638 218.627 420.636 220.205 422.414 223.254 C422.765 226.256 422.887 228.831 422.789 231.817 C422.768 233.051 422.768 233.051 422.748 234.31 C422.466 245.652 421.411 257.083 419.414 268.254 C417.764 268.254 416.114 268.254 414.414 268.254 C414.474 267.597 414.535 266.939 414.597 266.261 C415.867 252.22 416.716 238.353 416.414 224.254 C414.764 223.924 413.114 223.594 411.414 223.254 C409.461 226.183 409.086 227.253 408.668 230.587 C408.498 231.893 408.498 231.893 408.324 233.225 C408.209 234.163 408.095 235.101 407.976 236.067 C407.849 237.034 407.722 238.002 407.591 238.999 C406.92 244.125 406.294 249.256 405.695 254.391 C405.514 255.866 405.514 255.866 405.33 257.37 C405.099 259.252 404.882 261.135 404.68 263.019 C403.999 268.495 402.968 271.981 399.414 276.254 C396.539 277.692 394.595 277.636 391.414 277.254 C387.692 273.783 386.929 270.995 386.707 266.128 C386.693 265.406 386.678 264.685 386.664 263.942 C386.619 262.831 386.619 262.831 386.574 261.698 C386.504 259.884 386.456 258.069 386.414 256.254 C385.094 255.924 383.774 255.594 382.414 255.254 C377.894 262.329 377.516 268.951 378.414 277.254 C379.7 282.375 381.672 287.273 383.606 292.176 C384.829 295.322 385.927 298.505 387.039 301.692 C388.791 306.597 390.641 311.447 392.617 316.266 C393.274 317.907 393.855 319.578 394.414 321.254 C395.128 321.228 395.842 321.202 396.578 321.175 C422.768 320.342 422.768 320.342 434.414 326.254 C435.747 326.922 437.08 327.589 438.414 328.254 C442.184 317.073 445.689 305.897 448.289 294.379 C448.491 293.484 448.694 292.589 448.903 291.666 C451.944 277.735 454.626 261.443 446.851 248.692 C446.14 247.98 446.14 247.98 445.414 247.254 C444.754 247.254 444.094 247.254 443.414 247.254 C443.41 248.272 443.41 248.272 443.406 249.309 C443.103 256.606 441.506 262.779 436.414 268.254 C434.764 268.584 433.114 268.914 431.414 269.254 C431.084 260.344 430.754 251.434 430.414 242.254 C434.251 243.214 435.01 243.491 437.414 246.254 C437.723 245.285 438.033 244.316 438.351 243.317 C439.414 240.254 439.414 240.254 440.414 239.254 C443.68 238.801 445.135 239.084 447.976 240.817 C450.914 243.755 452.503 246.575 454.414 250.254 C458.319 247.414 461.325 244.195 464.441 240.551 C466.667 237.96 468.941 235.418 471.226 232.879 C471.975 232.047 472.724 231.214 473.496 230.356 C477.223 226.272 477.223 226.272 480.851 225.942 C484.414 226.254 484.414 226.254 486.351 227.317 C488.034 230.386 487.733 232.811 487.414 236.254 C485.543 238.958 485.543 238.958 482.976 241.504 C481.609 242.912 481.609 242.912 480.215 244.348 C479.746 244.826 479.278 245.305 478.795 245.797 C476.619 248.093 474.648 250.543 472.664 253.004 C471.566 254.36 471.566 254.36 470.445 255.743 C469.775 256.572 469.104 257.4 468.414 258.254 C467.338 259.573 466.255 260.886 465.164 262.192 C464.746 262.696 464.328 263.2 463.898 263.719 C462.414 265.254 462.414 265.254 459.785 267.04 C457.148 269.078 457.148 269.078 456.777 272.286 C456.76 273.43 456.744 274.575 456.726 275.754 C456.102 291.305 451.822 305.685 447.164 320.442 C444.337 327.827 444.337 327.827 445.406 335.215 C446.287 336.659 447.178 338.096 448.08 339.527 C449.647 342.731 450.108 345.531 450.582 349.059 C450.743 350.222 450.905 351.384 451.071 352.582 C451.184 353.464 451.297 354.346 451.414 355.254 C458.53 355.356 465.647 355.426 472.764 355.474 C475.183 355.494 477.602 355.522 480.021 355.556 C483.506 355.605 486.991 355.627 490.476 355.645 C491.551 355.666 492.625 355.686 493.732 355.708 C500.15 355.71 505.088 355.023 510.414 351.254 C514.733 346.708 516.665 343 516.66 336.733 C516.664 335.604 516.668 334.474 516.672 333.309 C516.666 332.068 516.66 330.828 516.654 329.549 C516.656 328.234 516.658 326.919 516.66 325.564 C516.664 321.903 516.656 318.242 516.646 314.582 C516.637 310.577 516.64 306.573 516.642 302.568 C516.643 294.791 516.633 287.015 516.621 279.238 C516.606 270.244 516.605 261.25 516.603 252.257 C516.593 228.506 516.565 204.755 516.539 181.004 C516.477 101.433 516.477 101.433 516.414 20.254 C339.204 20.254 161.994 20.254 -20.586 20.254 Z " fill="#060606" transform="translate(278.5861930847168,309.7455244064331)"/>
<path d="M0 0 C2.98 0.115 5.958 0.242 8.938 0.375 C9.768 0.406 10.599 0.437 11.455 0.469 C12.697 0.527 12.697 0.527 13.965 0.586 C14.714 0.617 15.463 0.649 16.234 0.681 C20.205 1.139 24.098 2.133 28 3 C28 49.2 28 95.4 28 143 C-38 143 -104 143 -172 143 C-172 109.34 -172 75.68 -172 41 C-167 46 -167 46 -165.105 48.035 C-152.142 61.738 -133.517 76.57 -114.012 77.479 C-110.227 77.575 -106.446 77.581 -102.66 77.566 C-101.005 77.572 -99.349 77.578 -97.693 77.585 C-94.241 77.596 -90.79 77.591 -87.338 77.576 C-82.949 77.559 -78.562 77.583 -74.173 77.618 C-70.76 77.64 -67.346 77.638 -63.932 77.63 C-62.316 77.629 -60.699 77.636 -59.083 77.651 C-39.711 77.802 -24.568 70.524 -10.672 56.961 C-6.576 52.422 -4.196 47.663 -2 42 C-1.664 41.248 -1.327 40.497 -0.98 39.723 C3.566 27.91 1.398 12.283 0 0 Z " fill="#FEFEFE" transform="translate(599,650)"/>
<path d="M0 0 C4.811 2.951 8.981 6.429 11.375 11.645 C12.744 17.612 12.555 23.662 12.578 29.75 C12.584 30.943 12.59 32.135 12.595 33.364 C12.605 35.898 12.611 38.433 12.615 40.967 C12.625 44.746 12.656 48.524 12.688 52.303 C12.788 75.42 10.949 98.166 5.375 120.645 C5.14 121.633 4.906 122.622 4.664 123.641 C2 133.684 -2.796 142.81 -11.625 148.645 C-20.775 152.915 -36.415 153.081 -45.931 149.865 C-49.815 147.803 -52.685 144.859 -55.625 141.645 C-57.011 140.507 -58.406 139.381 -59.812 138.27 C-64.679 133.921 -68.608 128.764 -72.625 123.645 C-73.318 122.972 -74.012 122.299 -74.727 121.605 C-77.48 117.311 -77.155 113.622 -77.079 108.622 C-77.08 107.616 -77.08 106.611 -77.081 105.575 C-77.078 102.258 -77.047 98.942 -77.016 95.625 C-77.008 93.323 -77.002 91.021 -76.998 88.719 C-76.983 82.664 -76.944 76.609 -76.9 70.554 C-76.859 64.374 -76.84 58.194 -76.82 52.014 C-76.777 39.89 -76.709 27.768 -76.625 15.645 C-75.965 15.645 -75.305 15.645 -74.625 15.645 C-73.18 17.113 -73.18 17.113 -71.5 19.145 C-69.073 22.011 -66.596 24.683 -63.875 27.27 C-58.19 32.9 -53.424 39.264 -48.625 45.645 C-47.841 46.686 -47.841 46.686 -47.041 47.749 C-39.376 57.995 -32.408 68.513 -25.895 79.523 C-24.675 81.561 -23.421 83.574 -22.152 85.582 C-9.625 105.553 -9.625 105.553 -9.625 113.645 C-8.635 112.985 -7.645 112.325 -6.625 111.645 C-4.226 95.451 -20.112 75.131 -28.625 62.332 C-29.117 61.588 -29.609 60.844 -30.116 60.077 C-32.519 56.515 -34.987 53.151 -37.828 49.926 C-45.441 41.1 -46.957 34.395 -46.125 22.766 C-45.962 21.058 -45.795 19.351 -45.625 17.645 C-45.519 16.156 -45.415 14.668 -45.312 13.18 C-44.334 2.808 -44.334 2.808 -41.375 -1.168 C-30.427 -9.876 -11.362 -5.867 0 0 Z " fill="#FEFEFE" transform="translate(710.625,642.35546875)"/>
<path d="M0 0 C0 4.29 0 8.58 0 13 C-0.66 13.33 -1.32 13.66 -2 14 C-1.997 14.546 -1.994 15.093 -1.99 15.656 C-1.917 28.996 -1.894 42.335 -1.925 55.674 C-1.938 62.126 -1.935 68.576 -1.894 75.028 C-1.854 81.259 -1.859 87.489 -1.894 93.721 C-1.9 96.092 -1.889 98.464 -1.863 100.836 C-1.649 121.748 -1.649 121.748 -7.356 128.754 C-8.879 130.197 -10.425 131.615 -12 133 C-13.157 134.525 -14.294 136.066 -15.398 137.629 C-20.471 142.544 -26.887 142.089 -33.562 142.045 C-34.81 142.017 -34.81 142.017 -36.082 141.988 C-38.628 141.937 -41.165 141.967 -43.711 142.006 C-55.358 142.01 -55.358 142.01 -59.413 139.516 C-60.999 137.72 -62.009 136.173 -63 134 C-63.546 132.985 -63.546 132.985 -64.103 131.95 C-70.283 118.521 -60.345 97.208 -55.938 84.062 C-55.701 83.354 -55.465 82.646 -55.221 81.917 C-33.311 16.643 -33.311 16.643 -11 3 C-7.363 1.232 -4.101 0 0 0 Z " fill="#FEFEFE" transform="translate(422,652)"/>
<path d="M0 0 C2.266 2.152 2.266 2.152 4.25 4.938 C6.64 8.532 6.64 8.532 10 11 C13.713 11.413 17.292 11.484 21 11 C23.659 9.01 23.659 9.01 25 6 C25.866 4.36 25.866 4.36 26.75 2.688 C27.163 1.801 27.575 0.914 28 0 C33.62 0.51 37.772 2.021 42.75 4.625 C43.445 4.982 44.14 5.339 44.857 5.706 C52.874 9.883 60.969 14.131 67 21 C67.552 21.561 68.103 22.121 68.672 22.699 C74.595 28.939 79.211 36.245 79.438 45.062 C79 49 79 49 77 51 C74.758 51.249 74.758 51.249 71.907 51.247 C70.829 51.251 69.75 51.256 68.639 51.26 C67.451 51.254 66.263 51.249 65.039 51.243 C63.168 51.246 63.168 51.246 61.26 51.249 C57.834 51.252 54.409 51.246 50.983 51.236 C47.404 51.227 43.825 51.229 40.246 51.229 C34.236 51.228 28.226 51.219 22.217 51.206 C15.259 51.19 8.302 51.185 1.345 51.186 C-5.338 51.186 -12.021 51.181 -18.704 51.173 C-21.553 51.169 -24.401 51.167 -27.25 51.167 C-31.223 51.166 -35.196 51.156 -39.168 51.145 C-40.358 51.146 -41.549 51.146 -42.775 51.147 C-43.85 51.142 -44.926 51.138 -46.034 51.134 C-46.974 51.132 -47.915 51.13 -48.884 51.129 C-51 51 -51 51 -52 50 C-53.503 39.858 -49.901 32.441 -44.09 24.336 C-35.553 14.028 -14.107 -1.701 0 0 Z " fill="#060606" transform="translate(363,486)"/>
<path d="M0 0 C3.599 2.176 5.654 4.51 7.438 8.375 C8.21 13.612 7.803 16.099 4.938 20.5 C1.37 26.298 1.418 32.766 2.438 39.375 C3.883 41.05 3.883 41.05 5.438 42.375 C5.979 47.093 6.215 49.247 3.5 53.188 C1.315 56.564 1.174 57.75 1 61.625 C0.532 69.274 -2.237 75.6 -7.938 80.812 C-13.486 85.025 -18.893 87.092 -25.875 86.848 C-32.932 85.607 -38.836 81.819 -43.188 76.188 C-44.782 73.851 -45.657 72.091 -46.562 69.375 C-48.472 68.714 -48.472 68.714 -50.75 68.438 C-57.465 67.137 -61.67 63.997 -65.562 58.375 C-67.144 53.63 -67.435 49.567 -65.586 44.922 C-63.414 40.791 -62.012 38.182 -57.562 36.375 C-57.728 35.488 -57.892 34.601 -58.062 33.688 C-59.131 25.839 -60.156 17.214 -55.969 10.156 C-52.428 5.672 -47.932 1.487 -42.562 -0.625 C-37.66 -1.129 -33.012 -1.165 -28.375 0.562 C-24.847 1.582 -23.235 0.529 -19.965 -0.871 C-13.637 -2.857 -6.081 -2.717 0 0 Z " fill="#060606" transform="translate(404.5625,386.625)"/>
<path d="M0 0 C0.863 -0.004 1.727 -0.008 2.616 -0.012 C5.529 -0.022 8.441 -0.018 11.354 -0.014 C13.455 -0.019 15.557 -0.024 17.658 -0.03 C23.449 -0.044 29.239 -0.046 35.029 -0.045 C41.268 -0.047 47.507 -0.06 53.745 -0.072 C66.684 -0.093 79.622 -0.102 92.56 -0.107 C93.263 -0.107 93.967 -0.107 94.691 -0.107 C95.396 -0.108 96.101 -0.108 96.827 -0.108 C104.633 -0.111 112.44 -0.118 120.246 -0.124 C143.82 -0.144 167.393 -0.16 190.967 -0.163 C192.098 -0.163 192.098 -0.163 193.252 -0.164 C196.308 -0.164 199.365 -0.164 202.421 -0.165 C204.722 -0.165 207.023 -0.165 209.323 -0.165 C210.083 -0.166 210.843 -0.166 211.627 -0.166 C235.513 -0.169 259.4 -0.191 283.286 -0.227 C310.113 -0.268 336.941 -0.291 363.768 -0.292 C366.629 -0.292 369.489 -0.292 372.349 -0.292 C373.053 -0.292 373.758 -0.292 374.483 -0.292 C385.822 -0.293 397.16 -0.311 408.499 -0.334 C419.893 -0.357 431.287 -0.361 442.682 -0.346 C448.856 -0.339 455.03 -0.34 461.204 -0.363 C466.854 -0.383 472.504 -0.381 478.155 -0.36 C480.2 -0.356 482.246 -0.361 484.292 -0.376 C487.071 -0.394 489.848 -0.381 492.627 -0.361 C493.821 -0.38 493.821 -0.38 495.04 -0.399 C500.926 -0.306 504.993 1.536 509.565 5.26 C509.565 5.59 509.565 5.92 509.565 6.26 C335.985 6.26 162.405 6.26 -16.435 6.26 C-10.76 0.586 -7.865 -0.037 0 0 Z " fill="#AEB3B4" transform="translate(280.4347038269043,316.7399377822876)"/>
<path d="M0 0 C8.749 6.567 14.024 15.563 15.738 26.305 C15.944 29.99 15.931 33.62 15.738 37.305 C15.408 37.305 15.078 37.305 14.738 37.305 C14.644 36.249 14.644 36.249 14.547 35.172 C13.28 24.955 9.643 14.533 2.051 7.242 C-9.063 -1.067 -20.811 -2.178 -34.262 -0.695 C-38.259 0.165 -41.636 1.437 -45.262 3.305 C-46.403 3.831 -46.403 3.831 -47.566 4.367 C-63.199 12.156 -70.855 25.476 -76.32 41.387 C-79.238 51.138 -80.388 61.05 -81.694 71.119 C-83.108 81.782 -85.163 92.175 -87.647 102.634 C-88.247 105.242 -88.784 107.856 -89.305 110.48 C-92.148 124.282 -97.377 136.653 -103.043 149.516 C-113.144 172.637 -114.011 195.482 -114.262 220.305 C-118.387 216.179 -118.531 211.752 -118.598 206.117 C-118.61 205.081 -118.61 205.081 -118.623 204.024 C-118.643 201.784 -118.643 199.545 -118.637 197.305 C-118.636 196.54 -118.636 195.775 -118.635 194.988 C-118.557 171.04 -112.657 150.285 -103.232 128.416 C-100.939 123.05 -98.869 117.65 -97.012 112.117 C-96.79 111.466 -96.568 110.815 -96.34 110.145 C-91.334 94.828 -88.967 79.423 -86.907 63.502 C-84.028 41.451 -80.485 21.169 -62.59 6.047 C-56.804 1.618 -51.155 -1.405 -44.262 -3.695 C-43.165 -4.142 -43.165 -4.142 -42.047 -4.598 C-28.584 -9.592 -11.86 -8.033 0 0 Z " fill="#EEEEEF" transform="translate(548.26171875,467.6953125)"/>
<path d="M0 0 C1.781 1.777 1.781 1.777 3.5 3.938 C5.84 6.972 5.84 6.972 9.078 8.832 C12.185 10.72 12.354 13.324 13.25 16.75 C13.585 17.962 13.92 19.173 14.266 20.422 C15.247 26.541 15 32.802 15 39 C-4.8 39 -24.6 39 -45 39 C-42.203 26.412 -37.497 18.593 -27 11 C-5.413 -2.474 -5.413 -2.474 0 0 Z " fill="#A0A1A1" transform="translate(361,493)"/>
<path d="M0 0 C6.152 1.422 11.081 4.057 16.5 7.25 C17.316 7.715 18.132 8.181 18.973 8.66 C26.067 12.794 32.162 17.19 36.812 24.062 C37.376 24.878 37.939 25.694 38.52 26.535 C41.495 31.488 42 33.988 42 40 C23.52 40 5.04 40 -14 40 C-12.809 24.521 -12.809 24.521 -11.812 18.438 C-11.724 17.767 -11.636 17.096 -11.545 16.404 C-10.877 12.509 -10.239 11.18 -7.035 8.77 C-6.034 8.186 -5.032 7.602 -4 7 C-2.513 5.167 -2.513 5.167 -1.625 3.25 C-1.089 2.178 -0.553 1.105 0 0 Z " fill="#A0A1A1" transform="translate(394,492)"/>
<path d="M0 0 C4.082 0.781 6.217 2.856 9.039 5.719 C10.082 6.738 11.126 7.757 12.172 8.773 C12.921 9.51 12.921 9.51 13.685 10.261 C15.481 11.95 17.429 13.385 19.414 14.844 C22.102 17.594 22.102 17.594 22.602 20.844 C21.133 26.481 16.014 30.548 12.102 34.594 C10.285 36.682 8.494 38.789 6.707 40.902 C4.909 42.797 3.375 44.287 1.102 45.594 C-2.836 45.41 -4.887 44.12 -7.711 41.469 C-8.39 40.842 -9.07 40.216 -9.77 39.57 C-10.472 38.918 -11.175 38.266 -11.898 37.594 C-14.005 35.78 -16.119 33.975 -18.234 32.172 C-20.835 29.706 -21.865 28.136 -22.086 24.531 C-21.219 19.674 -17.759 16.672 -14.441 13.238 C-11.137 9.802 -8.152 6.12 -5.137 2.43 C-2.898 0.594 -2.898 0.594 0 0 Z " fill="#FEFEFE" transform="translate(155.8984375,485.40625)"/>
<path d="M0 0 C2.062 1.625 2.062 1.625 3 4 C2.816 10.38 0.765 13.069 -3.562 17.312 C-4.665 18.447 -5.766 19.583 -6.863 20.723 C-7.671 21.554 -7.671 21.554 -8.495 22.403 C-10.549 24.583 -12.406 26.891 -14.25 29.25 C-23.934 41.622 -23.934 41.622 -29 45 C-33.599 45.452 -35.981 45.51 -40.125 43.438 C-45.818 38.61 -50.645 33.723 -51.375 26.062 C-51.274 23.054 -50.899 21.798 -49.5 19 C-46.668 16.734 -44.671 16.223 -41.039 16.434 C-37.422 17.438 -35.083 19.954 -33 23 C-33 23.66 -33 24.32 -33 25 C-27.171 19.359 -21.863 13.233 -16.488 7.164 C-15.688 6.264 -14.887 5.365 -14.062 4.438 C-13.332 3.611 -12.601 2.785 -11.848 1.934 C-8.278 -1.802 -4.749 -1.231 0 0 Z " fill="#060606" transform="translate(765,410)"/>
<path d="M0 0 C3.906 0.617 7.005 1.863 10.562 3.562 C20.038 7.59 28.283 6.325 38 4 C38.117 7.666 38.188 11.332 38.25 15 C38.284 16.03 38.317 17.06 38.352 18.121 C38.431 24.386 38.138 29.984 34 35 C28.754 38.174 22.923 37.77 17 37 C9.326 34.058 3.332 28.802 -0.25 21.426 C-2.542 15.72 -4.112 10.158 -3 4 C-1.5 1.438 -1.5 1.438 0 0 Z " fill="#FEFEFE" transform="translate(362,413)"/>
<path d="M0 0 C1.65 0 3.3 0 5 0 C9.819 9.639 6.397 28.208 3.457 38.191 C-0.64 49.531 -6.839 60.13 -15 69 C-15.709 69.777 -16.418 70.555 -17.148 71.355 C-22.262 76.712 -27.797 80.973 -34 85 C-33.794 86.114 -33.587 87.227 -33.375 88.375 C-33.251 89.571 -33.128 90.768 -33 92 C-37.217 96.217 -45.354 95.118 -51.055 95.23 C-53 95 -53 95 -56 93 C-56.625 90.375 -56.625 90.375 -56 87 C-53.943 84.055 -51.517 81.554 -49 79 C-48.526 78.465 -48.051 77.93 -47.562 77.379 C-46.312 76 -46.312 76 -44 74 C-42.68 74 -41.36 74 -40 74 C-39.34 74.99 -38.68 75.98 -38 77 C-24.392 72.548 -15.398 58.998 -9.25 46.938 C-3.407 35.051 -0.795 23.645 -0.375 10.438 C-0.336 9.429 -0.298 8.42 -0.258 7.381 C-0.165 4.921 -0.079 2.461 0 0 Z " fill="#060606" transform="translate(875,544)"/>
<path d="M0 0 C3.812 0.562 3.812 0.562 5.812 1.688 C7.332 4.536 7.25 6.372 6.812 9.562 C3.991 14.258 0.588 18.326 -3 22.438 C-3.53 23.049 -4.059 23.66 -4.605 24.29 C-5.654 25.5 -6.704 26.708 -7.756 27.915 C-8.985 29.33 -10.205 30.754 -11.422 32.18 C-12.025 32.884 -12.628 33.587 -13.25 34.312 C-13.757 34.905 -14.263 35.498 -14.785 36.109 C-17.484 38.906 -19.653 39.904 -23.438 40.062 C-28.092 39.957 -30.431 38.503 -33.68 35.262 C-37.957 30.441 -39.905 27.098 -39.566 20.625 C-39.188 18.562 -39.188 18.562 -37.625 15.938 C-35.188 14.562 -35.188 14.562 -31.812 14.5 C-27.42 15.787 -25.592 17.575 -22.188 20.562 C-21.391 19.621 -20.594 18.68 -19.773 17.711 C-18.703 16.453 -17.633 15.195 -16.562 13.938 C-16.04 13.32 -15.518 12.703 -14.98 12.066 C-4.856 0.192 -4.856 0.192 0 0 Z " fill="#060606" transform="translate(611.1875,411.4375)"/>
<path d="M0 0 C2.375 1.625 2.375 1.625 4 4 C4.633 7.642 4.275 9.475 2.562 12.75 C-0.243 16.563 -3.552 19.979 -6.75 23.461 C-9.278 26.314 -11.525 29.287 -13.711 32.406 C-15.6 34.742 -17.327 35.902 -20.305 36.336 C-24.35 36.397 -27.194 36.43 -30.812 34.5 C-34.708 30.048 -38.243 25.873 -38.562 19.75 C-38 16 -38 16 -36.438 13.438 C-34 12 -34 12 -30.438 12.062 C-25.821 13.321 -25.821 13.321 -24 16 C-24 16.66 -24 17.32 -24 18 C-18.797 14.131 -15.042 9.52 -11.051 4.426 C-7.617 0.365 -5.232 -0.641 0 0 Z " fill="#060606" transform="translate(619,547)"/>
<path d="M0 0 C0.942 -0.003 1.885 -0.006 2.855 -0.009 C4.419 -0.006 4.419 -0.006 6.013 -0.002 C7.104 -0.004 8.195 -0.006 9.319 -0.008 C12.945 -0.012 16.571 -0.009 20.197 -0.006 C22.704 -0.007 25.212 -0.007 27.719 -0.009 C32.981 -0.01 38.244 -0.008 43.507 -0.003 C49.599 0.002 55.691 0 61.783 -0.005 C67.634 -0.01 73.484 -0.01 79.334 -0.007 C81.829 -0.006 84.323 -0.007 86.817 -0.009 C90.297 -0.012 93.776 -0.008 97.256 -0.002 C98.298 -0.004 99.34 -0.006 100.414 -0.009 C101.827 -0.004 101.827 -0.004 103.269 0 C104.093 0 104.916 0.001 105.765 0.001 C107.635 0.127 107.635 0.127 108.635 1.127 C108.76 3.627 108.76 3.627 108.635 6.127 C107.054 7.707 105.463 7.253 103.269 7.254 C101.856 7.258 101.856 7.258 100.414 7.263 C98.85 7.259 98.85 7.259 97.256 7.256 C95.619 7.259 95.619 7.259 93.95 7.262 C90.324 7.266 86.698 7.263 83.072 7.26 C80.565 7.26 78.058 7.261 75.55 7.263 C70.288 7.264 65.025 7.262 59.762 7.257 C53.67 7.252 47.578 7.254 41.486 7.259 C35.636 7.264 29.785 7.264 23.935 7.261 C21.44 7.26 18.946 7.261 16.452 7.263 C12.972 7.266 9.493 7.262 6.013 7.256 C4.971 7.258 3.929 7.26 2.855 7.263 C1.913 7.26 0.971 7.257 0 7.254 C-0.824 7.254 -1.647 7.253 -2.496 7.253 C-4.365 7.127 -4.365 7.127 -5.365 6.127 C-5.49 3.627 -5.49 3.627 -5.365 1.127 C-3.785 -0.454 -2.194 0.001 0 0 Z " fill="#1A1B1B" transform="translate(317.365478515625,584.8730163574219)"/>
<path d="M0 0 C37.62 0 75.24 0 114 0 C114.495 2.475 114.495 2.475 115 5 C112.619 6.191 111.172 6.126 108.514 6.127 C107.571 6.13 106.627 6.133 105.655 6.136 C104.616 6.134 103.578 6.131 102.508 6.129 C101.416 6.131 100.325 6.133 99.201 6.135 C95.581 6.139 91.96 6.136 88.34 6.133 C85.834 6.133 83.328 6.134 80.822 6.136 C75.566 6.137 70.309 6.135 65.052 6.13 C58.968 6.125 52.883 6.127 46.798 6.132 C40.952 6.137 35.107 6.137 29.261 6.134 C26.77 6.133 24.278 6.134 21.787 6.136 C18.312 6.139 14.838 6.135 11.363 6.129 C10.322 6.131 9.282 6.133 8.21 6.136 C7.269 6.133 6.328 6.13 5.359 6.127 C4.536 6.127 3.714 6.126 2.867 6.126 C1 6 1 6 0 5 C0 3.35 0 1.7 0 0 Z " fill="#060606" transform="translate(312,560)"/>
<path d="M0 0 C37.62 0 75.24 0 114 0 C114 1.65 114 3.3 114 5 C112.42 6.58 110.828 6.126 108.635 6.127 C107.221 6.131 107.221 6.131 105.779 6.136 C104.216 6.132 104.216 6.132 102.621 6.129 C100.985 6.132 100.985 6.132 99.315 6.135 C95.689 6.139 92.063 6.136 88.438 6.133 C85.93 6.133 83.423 6.134 80.916 6.136 C75.653 6.137 70.391 6.135 65.128 6.13 C59.036 6.125 52.944 6.127 46.851 6.132 C41.001 6.137 35.151 6.137 29.3 6.134 C26.806 6.133 24.312 6.134 21.817 6.136 C18.338 6.139 14.858 6.135 11.379 6.129 C10.337 6.131 9.295 6.133 8.221 6.136 C7.279 6.133 6.336 6.13 5.365 6.127 C4.542 6.127 3.718 6.126 2.869 6.126 C1 6 1 6 0 5 C0 3.35 0 1.7 0 0 Z " fill="#060606" transform="translate(312,574)"/>
<path d="M0 0 C0.99 0.33 1.98 0.66 3 1 C3.699 3.266 3.699 3.266 4 6 C2.707 7.922 2.707 7.922 0.812 9.75 C-6.038 17.162 -7.621 23.77 -7.545 33.685 C-7.28 40.02 -5.677 44.78 -2 50 C-1.616 50.58 -1.232 51.16 -0.836 51.758 C4.826 59.423 12.349 61.646 21.34 63.422 C24 64 24 64 25 65 C25.125 67.5 25.125 67.5 25 70 C24 71 24 71 21.125 71.312 C11.13 71.128 2.739 65.687 -4.129 58.895 C-13.048 49.351 -15.518 40.965 -15.273 28.117 C-14.726 16.293 -8.156 7.995 0 0 Z " fill="#101011" transform="translate(183,397)"/>
<path d="M0 0 C4.082 0.781 6.217 2.856 9.039 5.719 C10.082 6.738 11.126 7.757 12.172 8.773 C12.921 9.51 12.921 9.51 13.685 10.261 C15.481 11.95 17.429 13.385 19.414 14.844 C22.102 17.594 22.102 17.594 22.602 20.844 C21.133 26.481 16.014 30.548 12.102 34.594 C10.285 36.682 8.494 38.789 6.707 40.902 C4.909 42.797 3.375 44.287 1.102 45.594 C-2.836 45.41 -4.887 44.12 -7.711 41.469 C-8.39 40.842 -9.07 40.216 -9.77 39.57 C-10.472 38.918 -11.175 38.266 -11.898 37.594 C-14.005 35.78 -16.119 33.975 -18.234 32.172 C-20.835 29.706 -21.865 28.136 -22.086 24.531 C-21.219 19.674 -17.759 16.672 -14.441 13.238 C-11.137 9.802 -8.152 6.12 -5.137 2.43 C-2.898 0.594 -2.898 0.594 0 0 Z M-2.287 6.939 C-3.069 7.862 -3.069 7.862 -3.867 8.805 C-4.438 9.472 -5.009 10.14 -5.598 10.828 C-6.192 11.535 -6.786 12.241 -7.398 12.969 C-8.575 14.352 -9.752 15.735 -10.93 17.117 C-11.451 17.735 -11.973 18.353 -12.51 18.99 C-13.589 20.236 -14.732 21.428 -15.898 22.594 C-15.566 27.906 -12.782 30.156 -9.109 33.656 C-6.177 36.226 -3.142 38.431 0.102 40.594 C2.566 37.9 5.026 35.202 7.473 32.492 C9.012 30.795 10.561 29.108 12.137 27.445 C13.978 25.51 13.978 25.51 16.102 22.594 C15.721 16.67 9.395 12.677 5.309 8.965 C1.705 5.344 1.705 5.344 -2.287 6.939 Z " fill="#101011" transform="translate(155.8984375,485.40625)"/>
<path d="M0 0 C0.534 0.289 1.067 0.577 1.617 0.875 C0.411 2.267 0.411 2.267 -0.82 3.688 C-4.48 7.932 -7.952 12.321 -11.43 16.715 C-12.396 17.784 -12.396 17.784 -13.383 18.875 C-14.043 18.875 -14.703 18.875 -15.383 18.875 C-16.295 17.737 -17.163 16.564 -18.008 15.375 C-20.253 12.635 -20.253 12.635 -23.449 11.34 C-27.211 11.291 -29.238 11.778 -32.383 13.875 C-31.616 7.588 -27.798 4.126 -23.383 -0.125 C-15.958 -5.451 -7.709 -3.841 0 0 Z " fill="#A0A1A1" transform="translate(747.3828125,416.125)"/>
<path d="M0 0 C4.836 0.99 9.476 1.957 14 4 C13.371 10.759 11.229 16.905 9.062 23.312 C8.702 24.409 8.342 25.505 7.971 26.635 C7.621 27.68 7.271 28.724 6.91 29.801 C6.592 30.751 6.274 31.702 5.946 32.681 C5 35 5 35 3 37 C-3.282 36.675 -9.031 34.476 -14.938 32.438 C-15.908 32.108 -16.878 31.779 -17.877 31.439 C-20.253 30.632 -22.627 29.818 -25 29 C-25 27.35 -25 25.7 -25 24 C-20.119 24.606 -15.536 25.572 -10.812 26.938 C-9.623 27.277 -8.433 27.616 -7.207 27.965 C-4.62 28.8 -2.369 29.689 0 31 C2.77 23.107 4.9 15.09 7 7 C6.051 6.856 5.103 6.711 4.125 6.562 C1 6 1 6 -1 5 C-0.67 3.35 -0.34 1.7 0 0 Z " fill="#101011" transform="translate(384,224)"/>
<path d="M0 0 C1.099 0.002 2.198 0.004 3.331 0.007 C4.572 0.007 5.813 0.007 7.092 0.007 C8.457 0.012 9.821 0.017 11.186 0.023 C12.575 0.024 13.963 0.026 15.352 0.027 C19.013 0.031 22.674 0.041 26.335 0.052 C30.069 0.062 33.802 0.066 37.536 0.071 C44.866 0.082 52.196 0.099 59.526 0.12 C59.908 1.776 60.24 3.445 60.526 5.12 C59.526 6.12 59.526 6.12 57.052 6.241 C55.953 6.238 54.854 6.236 53.721 6.234 C51.859 6.234 51.859 6.234 49.96 6.234 C48.595 6.228 47.23 6.223 45.866 6.218 C44.477 6.216 43.089 6.215 41.7 6.214 C38.039 6.21 34.378 6.2 30.716 6.189 C26.983 6.179 23.25 6.174 19.516 6.169 C12.186 6.158 4.856 6.141 -2.474 6.12 C-2.856 4.464 -3.188 2.796 -3.474 1.12 C-2.474 0.12 -2.474 0.12 0 0 Z " fill="#060606" transform="translate(463.47401428222656,424.87974548339844)"/>
<path d="M0 0 C1.099 0.002 2.198 0.004 3.331 0.007 C4.572 0.007 5.813 0.007 7.092 0.007 C8.457 0.012 9.821 0.017 11.186 0.023 C12.575 0.024 13.963 0.026 15.352 0.027 C19.013 0.031 22.674 0.041 26.335 0.052 C30.069 0.062 33.802 0.066 37.536 0.071 C44.866 0.082 52.196 0.099 59.526 0.12 C59.908 1.776 60.24 3.445 60.526 5.12 C59.526 6.12 59.526 6.12 57.052 6.241 C55.953 6.238 54.854 6.236 53.721 6.234 C51.859 6.234 51.859 6.234 49.96 6.234 C48.595 6.228 47.23 6.223 45.866 6.218 C44.477 6.216 43.089 6.215 41.7 6.214 C38.039 6.21 34.378 6.2 30.716 6.189 C26.983 6.179 23.25 6.174 19.516 6.169 C12.186 6.158 4.856 6.141 -2.474 6.12 C-2.856 4.464 -3.188 2.796 -3.474 1.12 C-2.474 0.12 -2.474 0.12 0 0 Z " fill="#060606" transform="translate(463.47401428222656,408.87974548339844)"/>
<path d="M0 0 C18.15 0 36.3 0 55 0 C55.495 2.475 55.495 2.475 56 5 C53.479 6.26 51.744 6.127 48.924 6.129 C47.866 6.133 46.808 6.136 45.718 6.139 C44 6.136 44 6.136 42.246 6.133 C40.489 6.134 40.489 6.134 38.697 6.136 C36.218 6.136 33.739 6.135 31.26 6.13 C27.45 6.125 23.64 6.13 19.83 6.137 C17.427 6.136 15.024 6.135 12.621 6.133 C10.899 6.136 10.899 6.136 9.143 6.139 C8.088 6.136 7.034 6.133 5.947 6.129 C5.014 6.129 4.08 6.128 3.119 6.127 C1 6 1 6 0 5 C0 3.35 0 1.7 0 0 Z " fill="#060606" transform="translate(618,439)"/>
<path d="M0 0 C16.83 0 33.66 0 51 0 C52 4 52 4 51 6 C34.5 6 18 6 1 6 C0.67 4.02 0.34 2.04 0 0 Z " fill="#101011" transform="translate(622,422)"/>
<path d="M0 0 C0.33 0 0.66 0 1 0 C1.094 0.57 1.188 1.14 1.284 1.727 C4.215 18.843 9.542 34.495 15.726 50.625 C17.444 55.175 19.034 59.759 20.562 64.375 C20.903 65.389 20.903 65.389 21.25 66.423 C31.293 96.955 31.293 96.955 25.983 108.142 C25.659 108.755 25.334 109.368 25 110 C24.82 108.817 24.82 108.817 24.636 107.611 C20.82 82.87 15.116 59.44 6.871 35.794 C2.835 24.129 -0.777 12.497 0 0 Z " fill="#E2E3E3" transform="translate(566,566)"/>
<path d="M0 0 C1.922 0.956 3.789 2.018 5.645 3.098 C0.754 8.865 -4.28 14.492 -9.355 20.098 C-12.153 18.699 -12.822 16.462 -14.285 13.812 C-16.455 10.336 -19.734 8.779 -23.355 7.098 C-16.408 0.978 -9.417 -3.608 0 0 Z " fill="#A0A1A1" transform="translate(743.35546875,539.90234375)"/>
<path d="M0 0 C1.65 0 3.3 0 5 0 C5.186 1.114 5.371 2.228 5.562 3.375 C6.037 4.571 6.511 5.767 7 7 C10.514 8.541 10.514 8.541 14 9 C13.67 10.65 13.34 12.3 13 14 C11.329 14.278 11.329 14.278 9.625 14.562 C8.429 15.037 7.232 15.511 6 16 C4.459 19.514 4.459 19.514 4 23 C2.68 23 1.36 23 0 23 C-0.33 20.36 -0.66 17.72 -1 15 C-3.31 15 -5.62 15 -8 15 C-8.625 12.625 -8.625 12.625 -9 10 C-6.64 7.64 -5.221 7.509 -2 7 C-1.34 4.69 -0.68 2.38 0 0 Z " fill="#101011" transform="translate(852,448)"/>
<path d="M0 0 C2.35 2.35 2.319 2.919 2.375 6.125 C2.222 11.15 1.158 15.033 -2 19 C-7.957 23.867 -12.297 26.143 -20 26 C-20.33 27.32 -20.66 28.64 -21 30 C-21.5 26.938 -21.5 26.938 -21 23 C-19.283 21.082 -17.388 19.613 -15.363 18.023 C-10.958 14.252 -7.568 9.547 -4 5 C-2.668 3.332 -1.335 1.665 0 0 Z " fill="#A0A1A1" transform="translate(757,556)"/>
<path d="M0 0 C6.225 2.49 6.225 2.49 8.266 5.91 C10.67 12.752 9.805 20.175 6.75 26.625 C4.775 30.294 3.54 31.345 0 34 C0 22.78 0 11.56 0 0 Z " fill="#FEFEFE" transform="translate(566,522)"/>
<path d="M0 0 C0.99 0 1.98 0 3 0 C2.478 3.975 1.545 5.961 -1.246 8.82 C-1.914 9.516 -2.582 10.212 -3.27 10.928 C-3.985 11.653 -4.701 12.378 -5.438 13.125 C-6.902 14.634 -8.366 16.145 -9.828 17.656 C-10.543 18.392 -11.258 19.128 -11.994 19.887 C-13.76 21.747 -15.45 23.639 -17.109 25.594 C-18.386 27.094 -18.386 27.094 -19.688 28.625 C-20.413 29.504 -21.139 30.383 -21.887 31.289 C-24 33 -24 33 -26.465 33.074 C-29.759 31.678 -31.497 29.85 -33.875 27.188 C-34.677 26.315 -35.479 25.442 -36.305 24.543 C-38 22 -38 22 -37.758 19.676 C-37.508 19.123 -37.258 18.57 -37 18 C-33.79 19.382 -31.951 20.924 -29.75 23.625 C-29.229 24.257 -28.708 24.888 -28.172 25.539 C-27.592 26.262 -27.592 26.262 -27 27 C-22.984 26.478 -21.451 24.638 -18.875 21.625 C-18.095 20.727 -17.315 19.828 -16.512 18.902 C-15.683 17.945 -14.854 16.987 -14 16 C-12.234 14.058 -10.463 12.121 -8.688 10.188 C-6.292 7.576 -4.014 5.018 -1.895 2.176 C-1.269 1.458 -0.644 0.74 0 0 Z " fill="#EEEEEF" transform="translate(758,415)"/>
<path d="M0 0 C0.33 0 0.66 0 1 0 C1.511 6.926 1.154 12.256 -3 18 C-4.898 20.047 -6.668 21.368 -9 23 C-9.866 23.619 -10.732 24.238 -11.625 24.875 C-16.792 26.597 -21.67 25.716 -27 25 C-27 24.67 -27 24.34 -27 24 C-25.948 23.773 -24.896 23.546 -23.812 23.312 C-19.769 22.146 -17.813 20.165 -15 17 C-13.899 15.934 -12.795 14.872 -11.688 13.812 C-7.975 10.125 -4.796 6.079 -1.602 1.941 C-0.809 0.98 -0.809 0.98 0 0 Z " fill="#A0A1A1" transform="translate(757,431)"/>
<path d="M0 0 C1.65 0 3.3 0 5 0 C5.33 2.31 5.66 4.62 6 7 C8.31 7.33 10.62 7.66 13 8 C12.67 9.65 12.34 11.3 12 13 C10.02 13.33 8.04 13.66 6 14 C6.041 14.784 6.083 15.567 6.125 16.375 C6 19 6 19 4 21 C1.875 20.625 1.875 20.625 0 20 C0 18.02 0 16.04 0 14 C-1.454 14.031 -1.454 14.031 -2.938 14.062 C-6 14 -6 14 -7 13 C-7.041 11.334 -7.043 9.666 -7 8 C-3.535 7.505 -3.535 7.505 0 7 C0 4.69 0 2.38 0 0 Z " fill="#1A1B1B" transform="translate(200,599)"/>
<path d="M0 0 C4.666 3.999 9.125 7.967 13.438 12.312 C13.978 12.849 14.519 13.386 15.076 13.939 C19 17.873 19 17.873 19 19 C12.73 19 6.46 19 0 19 C0 12.73 0 6.46 0 0 Z " fill="#EEEEEF" transform="translate(634,774)"/>
<path d="M0 0 C0.99 0.33 1.98 0.66 3 1 C1.579 5.357 -0.556 7.999 -3.688 11.312 C-4.581 12.269 -5.474 13.225 -6.395 14.211 C-7.254 15.131 -8.114 16.052 -9 17 C-10.299 18.473 -11.592 19.951 -12.875 21.438 C-15.157 24.064 -17.488 26.588 -20 29 C-24.186 27.663 -26.179 26.057 -28.812 22.562 C-29.417 21.78 -30.022 20.998 -30.645 20.191 C-32 18 -32 18 -32 15 C-28.401 15.556 -27.001 16.749 -24.75 19.562 C-23.969 20.523 -23.969 20.523 -23.172 21.504 C-22.785 21.998 -22.398 22.491 -22 23 C-12.671 18.771 -5.526 8.289 0 0 Z " fill="#EEEEEF" transform="translate(609,417)"/>
<path d="M0 0 C-1.308 4.95 -3.225 7.757 -6.75 11.438 C-9.754 14.597 -12.604 17.725 -15.25 21.188 C-18 24 -18 24 -20.938 25 C-25.817 23.407 -28.597 19.445 -31 15 C-30.67 14.01 -30.34 13.02 -30 12 C-26.205 13.491 -24.39 15.757 -22 19 C-18.684 18.433 -17.25 17.569 -15.125 14.98 C-14.615 14.37 -14.104 13.76 -13.578 13.131 C-13.057 12.49 -12.537 11.848 -12 11.188 C-2.748 0 -2.748 0 0 0 Z " fill="#EEEEEF" transform="translate(617,553)"/>
<path d="M0 0 C0.99 0.33 1.98 0.66 3 1 C1.649 3.963 0.113 6.208 -2.062 8.625 C-2.681 9.317 -3.3 10.009 -3.938 10.723 C-4.958 11.85 -4.958 11.85 -6 13 C-7.521 14.687 -9.042 16.375 -10.562 18.062 C-11.317 18.897 -12.071 19.731 -12.848 20.59 C-14.768 22.74 -16.643 24.92 -18.5 27.125 C-19.325 28.074 -20.15 29.023 -21 30 C-21.33 30 -21.66 30 -22 30 C-22.388 26.27 -22.458 24.582 -20.094 21.578 C-19.238 20.81 -18.382 20.042 -17.5 19.25 C-13.147 15.168 -9.413 10.961 -5.789 6.227 C-3.99 3.987 -2.066 1.993 0 0 Z " fill="#EEEEEF" transform="translate(758,541)"/>
<path d="M0 0 C0.66 0 1.32 0 2 0 C2.33 1.32 2.66 2.64 3 4 C4.32 4 5.64 4 7 4 C6.34 5.98 5.68 7.96 5 10 C5.66 10 6.32 10 7 10 C7 10.99 7 11.98 7 13 C5.35 13 3.7 13 2 13 C1.67 13.99 1.34 14.98 1 16 C0.34 15.67 -0.32 15.34 -1 15 C-1 14.01 -1 13.02 -1 12 C-2.65 12.33 -4.3 12.66 -6 13 C-5.794 12.258 -5.588 11.515 -5.375 10.75 C-4.956 7.677 -5.381 6.572 -7 4 C-5.02 4 -3.04 4 -1 4 C-0.67 2.68 -0.34 1.36 0 0 Z " fill="#1A1B1B" transform="translate(199,539)"/>
<path d="M0 0 C0.33 0 0.66 0 1 0 C1.11 0.612 1.219 1.224 1.332 1.854 C3.698 14.768 6.671 26.986 11.496 39.217 C11.835 40.081 12.174 40.946 12.523 41.836 C12.832 42.594 13.141 43.353 13.458 44.134 C14 46 14 46 13 48 C12.34 48 11.68 48 11 48 C-0.858 13.795 -0.858 13.795 0 0 Z " fill="#AEB3B4" transform="translate(566,566)"/>
<path d="M0 0 C0.33 0 0.66 0 1 0 C1.809 3.568 2.162 6.905 2.188 10.562 C2.202 11.492 2.216 12.421 2.23 13.379 C1.993 16.075 1.373 17.694 0 20 C-0.39 17.418 -0.763 14.836 -1.125 12.25 C-1.237 11.52 -1.349 10.791 -1.465 10.039 C-2.002 6.099 -2.372 3.338 0 0 Z " fill="#AEB3B4" transform="translate(591,656)"/>
<path d="M0 0 C0.043 2 0.041 4 0 6 C-1 7 -1 7 -3.562 7.062 C-4.769 7.032 -4.769 7.032 -6 7 C-6.688 5.188 -6.688 5.188 -7 3 C-4.824 -0.206 -4.078 0 0 0 Z " fill="#E2E3E3" transform="translate(354,427)"/>
<path d="M0 0 C0.99 0 1.98 0 3 0 C4.95 6.46 5.223 12.272 5 19 C4.67 19 4.34 19 4 19 C3.818 17.822 3.818 17.822 3.633 16.621 C2.728 10.949 1.742 5.475 0 0 Z " fill="#BBBBBC" transform="translate(559,486)"/>
<path d="M0 0 C2.816 3.184 3.723 5.755 4 10 C3.34 10.66 2.68 11.32 2 12 C0.708 7.88 -0.263 4.332 0 0 Z " fill="#C6C7C7" transform="translate(570,588)"/>
<path d="M0 0 C0.99 0.33 1.98 0.66 3 1 C2.34 2.32 1.68 3.64 1 5 C0.34 5 -0.32 5 -1 5 C-2.362 5.961 -3.699 6.959 -5 8 C-3.628 5.046 -2.011 2.56 0 0 Z " fill="#E2E3E3" transform="translate(609,417)"/>
<path d="M0 0 C0.66 0 1.32 0 2 0 C2.66 2.64 3.32 5.28 4 8 C3.01 8 2.02 8 1 8 C0.67 5.36 0.34 2.72 0 0 Z " fill="#E2E3E3" transform="translate(576,606)"/>
</svg>