<svg version="1.1" xmlns="http://www.w3.org/2000/svg" width="1024" height="1024">
<path d="M0 0 C337.92 0 675.84 0 1024 0 C1024 337.92 1024 675.84 1024 1024 C686.08 1024 348.16 1024 0 1024 C0 686.08 0 348.16 0 0 Z " fill="#FEFEFE" transform="translate(0,0)"/>
<path d="M0 0 C19.561 9.89 33.535 26.429 40.376 47.204 C43.773 58.46 46.6 70.171 46.672 81.977 C46.805 93.368 49.781 101.175 55.617 110.898 C56.19 111.885 56.762 112.871 57.352 113.887 C64.21 125.171 72.692 135.216 81.617 144.898 C83.975 147.544 86.297 150.22 88.617 152.898 C89.049 153.393 89.481 153.888 89.926 154.398 C103.019 169.412 116.287 184.633 122.617 203.898 C122.915 204.772 123.213 205.646 123.52 206.547 C129.685 227.289 124.305 249.161 114.617 267.898 C112.564 271.178 110.506 274.299 107.617 276.898 C106.957 276.898 106.297 276.898 105.617 276.898 C105.304 272.774 106.015 270.744 108.305 267.336 C119.169 249.989 122.278 229.728 118.371 209.727 C112.926 189.3 99.197 173.442 85.617 157.898 C84.967 157.147 84.318 156.395 83.648 155.621 C81.247 152.851 78.82 150.116 76.324 147.43 C68.123 138.58 60.452 129.503 54.617 118.898 C59.164 139.336 70.52 158.008 81.305 175.711 C94.035 196.687 103.086 216.917 102.805 241.898 C102.804 243.016 102.803 244.134 102.803 245.285 C102.758 253.475 102.758 253.475 101.617 256.898 C101.071 264.06 102.819 270.115 104.805 276.961 C107.263 285.751 109.557 294.54 111.492 303.461 C111.695 304.381 111.897 305.301 112.106 306.248 C113.138 311.091 113.862 315.853 114.343 320.778 C114.691 323.471 115.408 326.042 116.109 328.662 C117.195 333.443 117.623 338.345 118.18 343.211 C118.428 345.353 118.679 347.495 118.934 349.637 C119.095 351.045 119.095 351.045 119.26 352.482 C119.565 355.034 119.565 355.034 120.617 357.898 C120.964 360.607 121.274 363.308 121.555 366.023 C121.73 367.664 121.906 369.305 122.082 370.945 C122.171 371.776 122.26 372.607 122.351 373.463 C122.67 376.383 123.016 379.3 123.37 382.217 C123.624 384.334 123.868 386.452 124.109 388.57 C124.433 391.399 124.797 394.219 125.188 397.039 C126.607 408.038 126.852 419.03 126.915 430.107 C126.925 431.818 126.939 433.53 126.958 435.241 C127.097 449.273 126.065 462.66 120.367 475.711 C120.063 476.421 119.758 477.131 119.445 477.863 C113.69 490.852 106.206 498.577 92.867 503.836 C74.545 509.958 52.795 505.706 35.078 499.717 C32.361 498.813 29.631 497.955 26.898 497.098 C9.159 491.452 -7.971 484.555 -25.162 477.445 C-30.596 475.203 -36.062 473.063 -41.561 470.981 C-50.316 467.622 -58.867 463.82 -67.383 459.898 C-68.373 469.303 -68.373 469.303 -69.383 478.898 C-74.426 479.907 -75.793 479.492 -80.359 477.801 C-87.18 475.765 -94.357 474.967 -101.383 473.898 C-101.383 474.558 -101.383 475.218 -101.383 475.898 C-102.703 475.898 -104.023 475.898 -105.383 475.898 C-105.41 473.711 -105.429 471.523 -105.445 469.336 C-105.457 468.118 -105.469 466.9 -105.48 465.645 C-105.385 461.985 -104.973 458.508 -104.383 454.898 C-105.188 455.132 -105.188 455.132 -106.009 455.37 C-117.386 458.661 -128.78 461.845 -140.246 464.812 C-143.416 465.635 -146.555 466.532 -149.695 467.461 C-163.387 471.115 -176.945 473.274 -191.133 473.398 C-192.203 473.417 -193.273 473.435 -194.375 473.454 C-205.637 473.367 -214.202 469.592 -222.383 461.898 C-234.158 449.049 -236.291 431.859 -235.789 415.078 C-235.344 407.506 -233.302 400.855 -230.383 393.898 C-230.115 393.251 -229.847 392.603 -229.57 391.935 C-224.358 379.619 -217.556 368.102 -210.895 356.53 C-208.89 353.04 -206.914 349.534 -204.945 346.023 C-204.6 345.409 -204.254 344.794 -203.898 344.16 C-201.652 340.165 -199.413 336.167 -197.176 332.168 C-196.6 331.139 -196.024 330.11 -195.431 329.05 C-194.227 326.899 -193.024 324.748 -191.821 322.597 C-187.823 315.455 -183.797 308.33 -179.758 301.211 C-175.492 293.69 -171.313 286.127 -167.195 278.523 C-145.577 238.694 -145.577 238.694 -134.109 235.207 C-133.255 235.054 -133.255 235.054 -132.383 234.898 C-132.692 234.383 -133.002 233.867 -133.32 233.336 C-135.747 227.768 -135.616 221.397 -135.695 215.398 C-135.739 214.347 -135.739 214.347 -135.783 213.273 C-135.959 197.899 -128.705 184.652 -121.82 171.398 C-120.52 168.862 -119.223 166.324 -117.928 163.785 C-117.128 162.222 -116.325 160.66 -115.517 159.1 C-110.461 149.3 -105.359 139.047 -107.863 127.727 C-110.202 114.993 -108.446 102.901 -104.945 90.586 C-100.54 75.029 -100.259 59.958 -100.383 43.898 C-106.871 48.435 -106.871 48.435 -111.758 54.586 C-112.219 55.332 -112.681 56.079 -113.156 56.848 C-113.561 57.524 -113.966 58.201 -114.383 58.898 C-115.043 59.888 -115.703 60.878 -116.383 61.898 C-118.195 61.773 -118.195 61.773 -120.383 60.898 C-124.451 55.522 -124.055 49.315 -123.383 42.898 C-120.538 28.392 -110.564 15.759 -98.615 7.468 C-86.089 -0.867 -72.546 -5.666 -57.383 -3.102 C-54.192 -1.761 -52.136 -0.249 -49.383 1.898 C-46.392 1.555 -43.966 0.285 -41.32 -1.102 C-29.177 -7.441 -12.185 -5.572 0 0 Z " fill="#09090A" transform="translate(569.3828125,389.1015625)"/>
<path d="M0 0 C7.367 7.947 9.908 19.325 12.562 29.562 C12.859 30.687 13.156 31.812 13.461 32.97 C15.24 39.804 16.904 46.656 18.375 53.562 C18.53 54.292 18.686 55.022 18.846 55.774 C19.573 59.354 20.118 62.891 20.477 66.527 C20.832 70.03 21.566 73.284 22.474 76.69 C23.672 81.948 24.198 87.342 24.875 92.688 C25.222 95.378 25.572 98.068 25.922 100.758 C26.01 101.442 26.099 102.126 26.19 102.83 C26.951 108.691 27.774 114.543 28.607 120.395 C29.286 125.201 29.937 130.011 30.577 134.823 C30.835 136.763 31.098 138.703 31.368 140.642 C33.144 153.676 33.232 166.743 33.312 179.875 C33.322 180.757 33.332 181.639 33.342 182.548 C33.476 196.913 32.856 210.837 26.25 223.938 C25.9 224.651 25.55 225.364 25.189 226.098 C19.803 236.711 13.673 241.893 2.457 245.578 C-3.231 247.25 -8.598 247.497 -14.5 247.438 C-16.071 247.427 -16.071 247.427 -17.674 247.417 C-27.179 247.223 -35.903 245.666 -45 243 C-45.722 242.791 -46.444 242.583 -47.188 242.368 C-53.836 240.424 -60.439 238.335 -66.891 235.809 C-70.975 234.243 -75.116 232.829 -79.242 231.379 C-88.537 228.029 -97.645 224.129 -106.778 220.366 C-110.858 218.687 -114.933 217.009 -119.059 215.445 C-120.132 215.03 -121.206 214.615 -122.312 214.188 C-123.216 213.851 -124.12 213.515 -125.051 213.168 C-127 212 -127 212 -127.744 210.271 C-128.091 207.197 -127.232 205.344 -126.051 202.492 C-125.614 201.422 -125.178 200.352 -124.729 199.25 C-124.261 198.136 -123.794 197.023 -123.312 195.875 C-122.865 194.784 -122.417 193.694 -121.955 192.57 C-121.105 190.5 -120.249 188.432 -119.388 186.367 C-116.262 178.783 -113.266 171.15 -110.328 163.492 C-110.001 162.641 -109.674 161.789 -109.336 160.912 C-108.307 158.233 -107.278 155.554 -106.25 152.875 C-105.546 151.042 -104.841 149.208 -104.137 147.375 C-102.424 142.917 -100.712 138.459 -99 134 C-97.541 134.309 -96.083 134.622 -94.625 134.938 C-93.813 135.112 -93.001 135.286 -92.164 135.465 C-90 136 -90 136 -88 137 C-86.209 137.216 -84.417 137.423 -82.625 137.625 C-68.912 139.943 -58.625 149.571 -50 160 C-45 167.082 -45 167.082 -45 170 C-43.68 170 -42.36 170 -41 170 C-43.461 161.961 -46.865 155.649 -52 149 C-46.732 147.244 -41.683 150.688 -36.884 153.021 C-23.475 159.985 -11.462 170.985 -2.586 183.137 C-1.045 185.272 -1.045 185.272 2 186 C0.77 180.692 -1.072 176.902 -4.5 172.625 C-4.943 172.064 -5.386 171.503 -5.842 170.925 C-13.776 161.119 -23.363 153.907 -34.551 148.152 C-35.443 147.69 -35.443 147.69 -36.352 147.219 C-38.042 146.355 -39.743 145.515 -41.445 144.676 C-44 143 -44 143 -44.651 141.227 C-45.05 138.684 -45.127 136.262 -45.141 133.688 C-45.098 107.189 -45.098 107.189 -52 82 C-52.973 70.194 -53.315 57.795 -48 47 C-47.441 45.815 -46.881 44.631 -46.305 43.41 C-39.303 29.165 -18.845 -4.146 0 0 Z " fill="#FEFEFE" transform="translate(656,641)"/>
<path d="M0 0 C1.301 3.902 0.114 6.278 -1.176 9.996 C-3.951 18.426 -5.904 26.931 -7.685 35.618 C-8.188 38.066 -8.706 40.511 -9.225 42.955 C-11.052 51.672 -12.568 60.341 -13.599 69.189 C-14 72 -14 72 -15 74 C-15.393 76.875 -15.746 79.741 -16.062 82.625 C-16.199 83.828 -16.199 83.828 -16.338 85.055 C-16.562 87.036 -16.781 89.018 -17 91 C-17.99 91.33 -18.98 91.66 -20 92 C-20.563 91.242 -20.563 91.242 -21.137 90.469 C-24.21 86.346 -24.21 86.346 -28.75 84.375 C-31.363 84.837 -31.363 84.837 -33 88 C-33.456 90.509 -33.456 90.509 -33.625 93.188 C-33.737 94.539 -33.737 94.539 -33.852 95.918 C-33.925 96.949 -33.925 96.949 -34 98 C-37.849 96.488 -39.812 94.496 -42 91 C-42.738 88.146 -42.972 85.309 -43.188 82.375 C-43.297 81.144 -43.297 81.144 -43.41 79.887 C-44.173 70.941 -44.618 61.97 -45 53 C-46.98 52.505 -46.98 52.505 -49 52 C-48.97 52.629 -48.939 53.257 -48.908 53.905 C-47.81 76.996 -47.81 76.996 -48 88 C-48.923 87.675 -49.846 87.35 -50.797 87.016 C-54.106 85.966 -56.554 85.687 -60 86 C-62.364 87.929 -62.364 87.929 -62.25 91.375 C-62.025 94.635 -61.724 96.306 -60 99 C-60.784 98.835 -61.567 98.67 -62.375 98.5 C-70.835 97.103 -70.835 97.103 -78.562 99.75 C-80.086 101.866 -80.086 101.866 -80.5 104.062 C-81 106 -81 106 -82.938 107.312 C-85.89 109.729 -86.178 112.369 -87 116 C-87.66 116 -88.32 116 -89 116 C-89.014 116.675 -89.028 117.351 -89.043 118.047 C-89.189 120.782 -89.394 123.327 -90 126 C-91.64 127.366 -93.303 128.705 -95 130 C-95.56 133.44 -95.56 133.44 -94 137 C-91.089 140.195 -87.882 143.059 -84 145 C-84.641 146.677 -85.315 148.341 -86 150 C-86.389 151.036 -86.779 152.073 -87.18 153.141 C-89 156 -89 156 -91.863 156.664 C-93.571 156.645 -93.571 156.645 -95.312 156.625 C-107.376 157.023 -118.663 160.051 -128 168 C-132.488 173.03 -135.195 177.238 -136 184 C-135.041 183.01 -135.041 183.01 -134.062 182 C-118.977 167 -118.977 167 -113 167 C-113.296 167.562 -113.593 168.124 -113.898 168.703 C-115.009 171.02 -115.835 173.307 -116.625 175.75 C-117.016 176.949 -117.016 176.949 -117.414 178.172 C-117.607 178.775 -117.801 179.378 -118 180 C-117.072 179.01 -117.072 179.01 -116.125 178 C-113.611 175.508 -110.969 173.203 -108.25 170.938 C-107.471 170.287 -106.693 169.636 -105.891 168.965 C-97.498 163.26 -90.699 162.48 -80.625 162.812 C-78.305 162.865 -75.984 162.913 -73.664 162.957 C-72.648 162.988 -71.632 163.018 -70.584 163.05 C-67.882 163.126 -67.882 163.126 -65 162 C-63.666 161.856 -62.328 161.754 -60.988 161.684 C-59.852 161.621 -59.852 161.621 -58.693 161.557 C-57.908 161.517 -57.122 161.478 -56.312 161.438 C-55.515 161.394 -54.718 161.351 -53.896 161.307 C-51.931 161.201 -49.966 161.1 -48 161 C-48.16 161.879 -48.32 162.758 -48.484 163.664 C-50.767 179.793 -49.867 197.195 -46 213 C-45.749 214.04 -45.497 215.081 -45.238 216.152 C-43.76 221.853 -41.936 227.44 -40 233 C-89.416 247.101 -89.416 247.101 -113.625 247.438 C-115.119 247.471 -115.119 247.471 -116.643 247.505 C-126.37 247.474 -133.218 244.396 -140.281 237.781 C-149.835 227.88 -151.478 212.963 -151.427 199.795 C-150.909 178.137 -137.746 158.736 -127.199 140.543 C-123.759 134.605 -120.407 128.618 -117.062 122.625 C-112.609 114.652 -108.132 106.693 -103.625 98.75 C-99.413 91.323 -95.263 83.865 -91.154 76.381 C-88.459 71.471 -85.746 66.571 -83.032 61.672 C-81.673 59.219 -80.32 56.763 -78.972 54.305 C-77.023 50.754 -75.044 47.22 -73.062 43.688 C-72.485 42.627 -71.907 41.566 -71.311 40.473 C-66.136 31.34 -59.764 24.83 -50.25 20.312 C-49.183 19.793 -48.115 19.274 -47.016 18.738 C-42.595 16.756 -38.054 15.08 -33.527 13.358 C-27.607 11.079 -21.744 8.659 -15.875 6.25 C-13.498 5.275 -11.12 4.301 -8.742 3.328 C-7.709 2.904 -6.677 2.481 -5.613 2.044 C-3.764 1.305 -1.889 0.63 0 0 Z " fill="#FEFEFE" transform="translate(492,608)"/>
<path d="M0 0 C0.014 1.039 0.028 2.078 0.043 3.148 C0.309 12.689 0.995 20.707 7.871 27.979 C14.325 33.844 21.227 37.581 29.004 41.422 C38.994 46.576 44.89 53.547 49 64 C49.854 67.003 50.453 69.919 51 73 C52.98 73.495 52.98 73.495 55 74 C55.447 73.397 55.895 72.793 56.355 72.172 C64.546 61.344 64.546 61.344 70.562 60.5 C74 61 74 61 76.438 62.375 C78.897 66.507 78.685 70.318 78 75 C75.401 83.596 68.509 89.567 60.984 94 C56.65 96.184 52.82 97 48 97 C47.888 97.525 47.776 98.049 47.66 98.59 C43.148 116.315 32.477 132.283 17 142 C6.125 148.452 -6.256 152.816 -19 151 C-27.824 148.4 -33.837 142.375 -38.43 134.57 C-42.082 127.107 -44.293 119.029 -46.448 111.028 C-46.974 109.096 -47.544 107.176 -48.117 105.258 C-51.75 90.401 -49.68 74.131 -44.611 59.951 C-43.186 55.399 -42.648 50.589 -41.969 45.879 C-41 43 -41 43 -38.75 41.617 C-32.802 40.282 -27.223 39.736 -21.812 42.812 C-19.13 47.53 -19.378 51.674 -20 57 C-21.285 61.447 -23.033 65.633 -24.875 69.875 C-25.335 70.976 -25.795 72.077 -26.27 73.211 C-27.123 75.248 -27.983 77.282 -28.855 79.312 C-31.296 85.042 -32.512 88.754 -32 95 C-28.299 97.468 -26.378 97.307 -22 97 C-19.645 96.326 -19.645 96.326 -18 95 C-17.505 93.515 -17.505 93.515 -17 92 C-17.681 92.165 -18.361 92.33 -19.062 92.5 C-22.416 93.071 -25.604 93.067 -29 93 C-28.372 89.366 -27.379 86.145 -26.004 82.727 C-25.61 81.737 -25.216 80.747 -24.811 79.727 C-24.399 78.703 -23.987 77.68 -23.562 76.625 C-18.377 63.913 -18.377 63.913 -16.688 50.375 C-16.671 49.104 -16.654 47.833 -16.637 46.523 C-17.026 42.745 -17.588 40.911 -20 38 C-23.54 36.032 -26.554 35.751 -30.562 35.812 C-31.957 35.822 -31.957 35.822 -33.379 35.832 C-35.726 35.982 -37.751 36.338 -40 37 C-39.767 34.581 -39.528 32.163 -39.277 29.746 C-39.106 28.052 -38.95 26.357 -38.816 24.66 C-38.34 19.445 -38.34 19.445 -36.801 17.435 C-34.524 15.62 -32.236 14.614 -29.555 13.477 C-28.477 13.012 -27.399 12.548 -26.289 12.07 C-24.599 11.355 -24.599 11.355 -22.875 10.625 C-15.929 7.671 -9.138 4.707 -2.614 0.896 C-1 0 -1 0 0 0 Z " fill="#FEFEFE" transform="translate(516,415)"/>
<path d="M0 0 C5.086 0.648 9.344 2.887 13.93 5.043 C24.796 10.04 35.893 14.223 47.125 18.312 C49.956 19.35 52.785 20.39 55.615 21.431 C57.35 22.069 59.087 22.705 60.824 23.338 C66.595 25.449 72.306 27.69 78 30 C78 30.66 78 31.32 78 32 C77.429 32.233 76.858 32.467 76.27 32.707 C57.701 41.061 45.802 57.817 36 75 C35.387 76.056 35.387 76.056 34.762 77.133 C33.72 79.056 32.839 80.98 32 83 C31.64 83.847 31.281 84.694 30.91 85.566 C26.952 96.37 27.169 107.617 27 119 C26.312 118.859 25.624 118.717 24.915 118.571 C18.836 117.384 13.065 116.676 6.875 116.75 C6.099 116.751 5.322 116.752 4.523 116.753 C0.389 116.803 -3.309 117.123 -7.312 118.25 C-11 119 -11 119 -14.062 117.125 C-15.022 116.073 -15.022 116.073 -16 115 C-14.389 109.991 -11.417 106.227 -8.312 102.062 C-2.982 94.803 2.183 87.446 7.25 80 C8.234 78.558 8.234 78.558 9.237 77.086 C12.324 72.666 12.324 72.666 15 68 C12.651 67.587 12.651 67.587 10 68 C8.04 70.06 8.04 70.06 6.438 72.938 C5.75 74.036 5.063 75.134 4.355 76.266 C3.981 76.868 3.606 77.471 3.22 78.092 C1.016 81.54 -1.375 84.855 -3.75 88.188 C-4.781 89.645 -5.813 91.102 -6.844 92.559 C-8.941 95.514 -11.047 98.464 -13.156 101.41 C-14.188 102.856 -15.22 104.303 -16.25 105.75 C-16.751 106.452 -17.251 107.155 -17.767 107.879 C-21.509 113.18 -24.885 118.623 -28.086 124.266 C-29.941 126.916 -31.878 128.54 -34.399 130.522 C-37.65 133.524 -39.872 137.362 -42.25 141.062 C-42.779 141.865 -43.307 142.667 -43.852 143.494 C-46.096 146.927 -48.221 150.299 -50 154 C-45.797 152.657 -43.843 151.056 -41.188 147.562 C-40.145 146.226 -40.145 146.226 -39.082 144.863 C-36.978 142.041 -36.978 142.041 -35.199 139.105 C-29.893 130.799 -24.178 128.14 -15 125 C-14.065 124.589 -13.131 124.178 -12.168 123.754 C-2.62 119.806 11.19 118.773 21.129 122.023 C22.055 122.507 22.055 122.507 23 123 C22.505 124.485 22.505 124.485 22 126 C20.886 126.086 19.773 126.173 18.625 126.262 C5.123 127.45 -7.246 129.908 -19 137 C-19 137.66 -19 138.32 -19 139 C-15.476 138.408 -12.616 137.41 -9.375 135.938 C0.903 132.154 13.09 132.301 23.188 136.5 C24.809 137.299 26.422 138.118 28 139 C28 139.66 28 140.32 28 141 C27.371 141.009 26.743 141.019 26.095 141.028 C14.131 141.252 3.219 141.482 -8 146 C-8.99 146.33 -9.98 146.66 -11 147 C-11 147.66 -11 148.32 -11 149 C-10.051 148.783 -9.102 148.567 -8.125 148.344 C4.596 145.668 17.043 145.681 30 146 C30.33 147.32 30.66 148.64 31 150 C24.328 152.547 17.889 153.748 10.812 154.562 C2.191 155.403 2.191 155.403 -6 158 C-6.33 158.99 -6.66 159.98 -7 161 C-4.395 160.691 -1.791 160.378 0.812 160.062 C1.55 159.975 2.288 159.888 3.049 159.799 C6.167 159.418 9.011 158.996 12 158 C13.408 157.92 14.82 157.892 16.23 157.902 C17.434 157.907 17.434 157.907 18.662 157.912 C19.495 157.92 20.329 157.929 21.188 157.938 C22.455 157.944 22.455 157.944 23.748 157.951 C25.832 157.963 27.916 157.981 30 158 C30 159.32 30 160.64 30 162 C23.683 164.264 17.39 165.935 10.812 167.25 C9.949 167.436 9.086 167.621 8.197 167.812 C7.355 167.983 6.512 168.153 5.645 168.328 C4.521 168.559 4.521 168.559 3.374 168.794 C-1.735 169.237 -6.13 167.721 -10.809 165.82 C-11.886 165.386 -12.963 164.951 -14.072 164.504 C-15.183 164.049 -16.293 163.594 -17.438 163.125 C-18.544 162.678 -19.651 162.23 -20.791 161.77 C-25.237 159.968 -29.671 158.159 -34.051 156.203 C-37.611 154.751 -40.19 154.56 -44 155 C-45.667 156.5 -45.667 156.5 -47 158 C-50.674 157.643 -52.311 156.019 -54.688 153.312 C-55.289 152.649 -55.891 151.985 -56.512 151.301 C-58.84 147.702 -59.282 144.409 -58.443 140.214 C-58.128 139.275 -57.813 138.335 -57.488 137.367 C-57.142 136.313 -56.796 135.258 -56.439 134.172 C-56.068 133.084 -55.696 131.996 -55.312 130.875 C-54.784 129.278 -54.784 129.278 -54.244 127.648 C-53.531 125.499 -52.811 123.351 -52.084 121.206 C-51.014 118.041 -49.965 114.869 -48.918 111.695 C-47.618 107.792 -46.257 103.927 -44.787 100.084 C-43.842 97.582 -42.945 95.063 -42.047 92.543 C-30.661 60.882 -17.836 28.638 0 0 Z " fill="#FEFEFE" transform="translate(571,604)"/>
<path d="M0 0 C9.887 1.433 17.854 9.325 25.176 15.668 C30.412 19.992 34.134 22.451 41 23 C38.827 18.998 36.25 16.168 33 13 C29.261 9.261 29.313 5.044 29 0 C32.195 1.394 34.147 3.009 36.5 5.562 C39.768 8.94 43.187 11.693 47 14.438 C58.662 23.044 64.136 32.861 69.5 46.125 C73.41 55.621 77.786 62.704 86 69 C85.219 72.866 83.636 76.362 82.059 79.953 C81.771 80.613 81.484 81.274 81.188 81.954 C80.274 84.054 79.356 86.152 78.438 88.25 C77.815 89.677 77.194 91.104 76.572 92.531 C75.051 96.022 73.527 99.512 72 103 C68.01 101.786 64.671 100.38 61.164 98.129 C59.827 97.276 59.827 97.276 58.463 96.405 C57.526 95.797 56.59 95.189 55.625 94.562 C54.162 93.622 54.162 93.622 52.67 92.663 C46.228 88.503 39.878 84.223 33.577 79.854 C29.226 76.838 24.86 73.849 20.438 70.938 C19.364 70.225 18.29 69.512 17.184 68.777 C11.755 65.747 6.9 64.851 0.75 64.812 C-6.718 64.309 -11.145 61.445 -17 57 C-18.589 55.85 -18.589 55.85 -20.211 54.676 C-24.759 51.345 -29.099 48.085 -33 44 C-32.67 43.01 -32.34 42.02 -32 41 C-26.531 41.378 -22.871 44.669 -18.625 47.812 C-9.152 55.22 -9.152 55.22 2 59 C0.64 55.8 -0.691 54.205 -3.562 52.266 C-4.273 51.778 -4.983 51.29 -5.715 50.787 C-6.469 50.28 -7.223 49.773 -8 49.25 C-9.542 48.183 -11.082 47.114 -12.621 46.043 C-13.37 45.524 -14.119 45.005 -14.89 44.47 C-17.653 42.545 -20.376 40.592 -23.062 38.562 C-24.225 37.698 -24.225 37.698 -25.41 36.816 C-27 35 -27 35 -27.246 32.277 C-27.165 31.526 -27.084 30.774 -27 30 C-22.757 30.563 -20.099 32.006 -16.586 34.414 C-15.578 35.092 -14.57 35.77 -13.531 36.469 C-11.418 37.912 -9.306 39.358 -7.195 40.805 C-6.19 41.48 -5.184 42.156 -4.148 42.852 C-3.232 43.479 -2.316 44.106 -1.373 44.752 C-0.59 45.164 0.193 45.576 1 46 C1.99 45.67 2.98 45.34 4 45 C-2.458 39.841 -9.121 35.01 -15.863 30.234 C-18.269 28.521 -20.649 26.788 -23 25 C-22.67 23.68 -22.34 22.36 -22 21 C-16.341 21.458 -12.739 23.709 -8.125 26.75 C-7.121 27.396 -7.121 27.396 -6.098 28.055 C-4.747 28.924 -3.399 29.795 -2.052 30.67 C0.067 32.044 2.189 33.411 4.32 34.766 C4.955 35.171 5.589 35.576 6.243 35.993 C8.137 37.155 8.137 37.155 11 38 C9.659 32.777 6.343 30.774 2 28.062 C1.33 27.628 0.659 27.193 -0.032 26.746 C-4.665 23.764 -9.389 20.962 -14.242 18.352 C-16 17 -16 17 -16.82 14.898 C-16.88 14.272 -16.939 13.645 -17 13 C-16 12 -16 12 -13.023 11.648 C-7.922 11.729 -3.985 14.191 0.375 16.625 C1.216 17.079 2.056 17.533 2.922 18.001 C7.921 20.736 12.755 23.598 17.309 27.039 C19.255 28.329 19.255 28.329 23 28 C21.547 22.932 18.574 20.371 14.75 17 C14.189 16.492 13.629 15.984 13.051 15.461 C10.324 13.005 7.553 10.625 4.703 8.312 C2 6 2 6 0 3 C0 2.01 0 1.02 0 0 Z " fill="#FEFEFE" transform="translate(434,698)"/>
<path d="M0 0 C4.748 0.607 9.246 2.318 13.75 3.875 C14.53 4.132 15.31 4.388 16.113 4.652 C18.11 5.343 20.06 6.163 22 7 C23.097 10.291 22.985 10.777 21.873 13.875 C21.588 14.675 21.303 15.475 21.009 16.299 C19.049 21.544 17.059 26.775 15.035 31.996 C14.323 33.839 14.323 33.839 13.597 35.719 C12.597 38.308 11.596 40.895 10.594 43.483 C9.32 46.771 8.049 50.06 6.778 53.349 C5.552 56.524 4.325 59.697 3.098 62.871 C2.646 64.038 2.195 65.205 1.73 66.407 C-0.806 72.955 -3.375 79.488 -6 86 C-9.286 85.381 -12.008 84.679 -14.988 83.152 C-16.047 82.616 -16.047 82.616 -17.127 82.068 C-17.848 81.695 -18.569 81.322 -19.312 80.938 C-20.053 80.56 -20.794 80.183 -21.557 79.795 C-23.374 78.869 -25.187 77.935 -27 77 C-27.681 67.451 -25.848 59.783 -22.688 50.812 C-22.238 49.502 -21.788 48.192 -21.339 46.882 C-7.724 7.724 -7.724 7.724 0 0 Z " fill="#FEFEFE" transform="translate(529,764)"/>
<path d="M0 0 C5.53 1.815 9.68 5.294 14.251 8.772 C17.833 11.475 21.319 13.741 25.312 15.812 C28 17.609 28.849 18.511 29.809 21.629 C30.119 23.915 30.356 26.212 30.539 28.512 C31.021 34.334 32.381 39.989 33.625 45.688 C34.078 47.774 34.529 49.861 34.977 51.949 C35.173 52.85 35.37 53.751 35.573 54.678 C36 57 36 57 36 60 C32.089 61.371 28.171 62.719 24.25 64.062 C23.139 64.452 22.028 64.842 20.883 65.244 C19.813 65.608 18.743 65.972 17.641 66.348 C16.656 66.688 15.672 67.028 14.657 67.379 C11.926 68.017 10.57 68.064 8 67 C-1.323 52.724 -1.045 31.669 -1.125 15.438 C-1.13 14.485 -1.135 13.532 -1.14 12.55 C-1.137 11.646 -1.135 10.741 -1.133 9.809 C-1.132 9.002 -1.131 8.196 -1.129 7.365 C-0.991 4.833 -0.553 2.472 0 0 Z " fill="#FEFEFE" transform="translate(449,771)"/>
<path d="M0 0 C0.583 0.142 1.167 0.284 1.768 0.431 C8.563 1.954 14.991 2.272 21.938 2.188 C22.945 2.187 23.952 2.186 24.99 2.186 C31.706 2.147 38.323 1.715 45 1 C45.413 2.155 45.825 3.31 46.25 4.5 C47.367 7.54 48.678 10.297 50.25 13.125 C51.635 15.852 52 16.966 52 20.125 C50.775 23.648 49.332 26.075 47 29 C43.793 30.426 43.793 30.426 40.188 31.312 C39.005 31.618 37.823 31.924 36.605 32.238 C20.216 35.701 3.101 35.888 -12 28 C-11.494 23.378 -10.359 20.594 -7.688 16.812 C-4.106 11.448 -1.966 6.108 0 0 Z " fill="#FEFEFE" transform="translate(511,585)"/>
<path d="M0 0 C0.99 0 1.98 0 3 0 C1.432 5.228 -0.398 9.914 -2.938 14.75 C-9.11 26.787 -10.939 38.684 -11.562 52 C-11.627 53.305 -11.627 53.305 -11.693 54.637 C-11.798 56.758 -11.9 58.879 -12 61 C-19.744 62.046 -27.38 62.183 -35.188 62.188 C-37.054 62.206 -37.054 62.206 -38.959 62.225 C-40.162 62.227 -41.366 62.228 -42.605 62.23 C-44.232 62.237 -44.232 62.237 -45.891 62.243 C-49.204 61.984 -51.902 61.174 -55 60 C-55 58.68 -55 57.36 -55 56 C-54.074 56.087 -54.074 56.087 -53.129 56.176 C-45.231 56.597 -40.234 54.536 -34.199 49.496 C-28.949 44.487 -24.483 38.687 -20 33 C-19.232 32.025 -18.463 31.051 -17.672 30.047 C-10.476 20.697 -4.45 10.946 0 0 Z " fill="#FEFEFE" transform="translate(567,519)"/>
<path d="M0 0 C1.32 1.32 2.64 2.64 4 4 C-3.333 11.333 -10.667 18.667 -18 26 C-18.891 26.892 -19.782 27.784 -20.7 28.703 C-22.794 30.794 -24.892 32.864 -27.062 34.875 C-27.713 35.491 -28.364 36.107 -29.035 36.742 C-31 38 -31 38 -32.926 37.945 C-35.714 36.675 -37.778 34.971 -40.125 33 C-41.097 32.185 -42.069 31.371 -43.07 30.531 C-46.582 27.497 -50.023 24.393 -53.449 21.262 C-56.168 18.851 -58.974 16.581 -61.812 14.312 C-65.74 11.142 -68.992 8.046 -72 4 C-71.34 3.34 -70.68 2.68 -70 2 C-65.941 2.21 -63.758 4.808 -60.938 7.5 C-57.209 11.002 -53.425 14.351 -49.438 17.562 C-44.117 21.856 -39.036 26.379 -34 31 C-30.55 29.53 -28.435 27.591 -25.875 24.875 C-24.622 23.546 -23.337 22.245 -22 21 C-21.34 21 -20.68 21 -20 21 C-19.665 20.176 -19.665 20.176 -19.324 19.336 C-17.577 16.254 -15.335 14.109 -12.812 11.625 C-12.323 11.142 -11.833 10.659 -11.329 10.161 C-7.687 6.596 -3.935 3.235 0 0 Z " fill="#141314" transform="translate(387,298)"/>
<path d="M0 0 C2.641 4.645 2.526 8.958 1.812 14.188 C0.26 18.919 0.26 18.919 -2.062 20.312 C-2.764 20.601 -3.465 20.89 -4.188 21.188 C-5.116 21.992 -5.116 21.992 -6.062 22.812 C-9.024 24.729 -10.722 24.753 -14.188 24.188 C-16.875 21.812 -16.875 21.812 -19.188 19.188 C-20.178 18.527 -21.168 17.868 -22.188 17.188 C-21.819 14.39 -21.419 11.603 -21 8.812 C-20.899 8.018 -20.798 7.224 -20.693 6.406 C-20.351 4.221 -19.978 2.254 -19.188 0.188 C-13.76 -3.428 -5.518 -3.138 0 0 Z " fill="#FEFEFE" transform="translate(494.1875,457.8125)"/>
<path d="M0 0 C2.475 0.495 2.475 0.495 5 1 C5.127 8.299 4.759 15.48 4.125 22.75 C4.035 23.797 3.946 24.844 3.854 25.922 C1.891 48.109 1.891 48.109 0 50 C-8.823 50.1 -17.553 47.253 -26 45 C-26.33 43.35 -26.66 41.7 -27 40 C-23.703 38.901 -22.451 39.11 -19.113 39.777 C-18.175 39.961 -17.238 40.145 -16.271 40.334 C-15.295 40.533 -14.319 40.732 -13.312 40.938 C-12.324 41.133 -11.336 41.328 -10.318 41.529 C-7.877 42.013 -5.438 42.503 -3 43 C-3.052 41.612 -3.052 41.612 -3.105 40.195 C-3.436 26.655 -1.744 13.408 0 0 Z " fill="#141314" transform="translate(591,617)"/>
<path d="M0 0 C0.66 0.33 1.32 0.66 2 1 C4.036 7.447 2.689 11.611 -0.312 17.5 C-3.791 24.143 -7.678 30.549 -11.55 36.968 C-14.803 42.444 -17.097 47.92 -19 54 C-19.341 54.745 -19.682 55.49 -20.033 56.258 C-21.142 59.402 -21.228 61.847 -21.195 65.176 C-21.189 66.333 -21.182 67.49 -21.176 68.682 C-21.159 69.88 -21.142 71.078 -21.125 72.312 C-21.116 73.53 -21.107 74.748 -21.098 76.002 C-21.074 79.002 -21.041 82.001 -21 85 C-21.99 85 -22.98 85 -24 85 C-25.557 80.328 -25.309 75.645 -25.375 70.75 C-25.412 69.745 -25.45 68.739 -25.488 67.703 C-25.655 53.044 -19.125 40.54 -12.5 27.875 C-7.747 18.737 -3.476 9.719 0 0 Z " fill="#EEEEEF" transform="translate(465,535)"/>
<path d="M0 0 C0.729 -0.012 1.458 -0.024 2.209 -0.037 C6.034 -0.048 7.806 0.017 11.062 2.188 C11.25 5.312 11.25 5.312 11.062 8.188 C5.395 11.021 0.365 11.82 -5.938 12.188 C-5.938 8.188 -5.938 8.188 -4.938 7.188 C-6.918 6.197 -8.897 5.207 -10.938 4.188 C-10.608 3.197 -10.277 2.207 -9.938 1.188 C-6.793 -0.385 -3.448 0.003 0 0 Z " fill="#141314" transform="translate(454.9375,649.8125)"/>
<path d="M0 0 C1.34 4.019 0.005 6.66 -1.312 10.5 C-6.647 26.977 -8.087 43.33 -3.559 60.215 C-3.008 62.962 -3.055 64.403 -4 67 C-12.772 51.211 -11.454 32.064 -7 15 C-3.502 3.502 -3.502 3.502 0 0 Z " fill="#C6C6C6" transform="translate(580,528)"/>
<path d="M0 0 C0.66 0 1.32 0 2 0 C2.037 1.186 2.075 2.372 2.113 3.594 C2.93 25.299 7.653 42.403 18.598 61.129 C21.06 65.485 21.06 65.485 20.719 68.422 C20.482 68.943 20.244 69.463 20 70 C14.002 60.851 9.357 51.011 5 41 C4.706 40.332 4.412 39.665 4.109 38.977 C-1.243 26.329 -0.524 13.479 0 0 Z " fill="#EEEEEF" transform="translate(592,538)"/>
<path d="M0 0 C0 0.66 0 1.32 0 2 C-1.881 3.183 -3.808 4.295 -5.75 5.375 C-20.706 14.212 -30.698 27.43 -36 44 C-36.33 44 -36.66 44 -37 44 C-37.969 32.855 -31.771 24.322 -25 16 C-19.408 9.359 -9.172 0 0 0 Z " fill="#E2E2E2" transform="translate(489,395)"/>
<path d="M0 0 C0.639 0.66 1.279 1.32 1.938 2 C2.954 3.005 3.975 4.004 5 5 C5.655 5.639 6.31 6.279 6.984 6.938 C18.735 17.938 30.532 20.187 46.078 21.211 C47.081 21.286 48.084 21.36 49.117 21.438 C50.031 21.498 50.945 21.559 51.886 21.621 C52.584 21.746 53.281 21.871 54 22 C54.495 22.99 54.495 22.99 55 24 C51.5 24.059 48 24.094 44.5 24.125 C43.027 24.15 43.027 24.15 41.523 24.176 C28.65 24.262 16.152 20.055 6.223 11.648 C2.718 7.859 0.718 5.19 0 0 Z " fill="#D7D7D6" transform="translate(522,429)"/>
<path d="M0 0 C0.99 0.33 1.98 0.66 3 1 C0.832 5.843 -2.681 9.087 -6.375 12.812 C-7.048 13.518 -7.721 14.224 -8.414 14.951 C-9.069 15.613 -9.724 16.275 -10.398 16.957 C-10.993 17.565 -11.588 18.173 -12.201 18.8 C-14 20 -14 20 -16 19.865 C-18.232 18.9 -19.762 17.789 -21.602 16.199 C-22.584 15.351 -22.584 15.351 -23.586 14.486 C-24.259 13.893 -24.932 13.299 -25.625 12.688 C-26.646 11.814 -26.646 11.814 -27.688 10.924 C-30.905 8.117 -33.258 5.963 -35 2 C-29.62 2.322 -27.003 5.405 -23.375 9 C-19.216 13.283 -19.216 13.283 -14 16 C-14 15.34 -14 14.68 -14 14 C-12.461 12.52 -12.461 12.52 -10.375 10.812 C-6.457 7.494 -3.244 3.973 0 0 Z " fill="#141314" transform="translate(737,405)"/>
<path d="M0 0 C0.99 0.33 1.98 0.66 3 1 C0.533 5.73 -2.832 9.031 -6.625 12.688 C-7.807 13.835 -8.987 14.985 -10.164 16.137 C-10.684 16.639 -11.205 17.141 -11.741 17.659 C-13.118 18.997 -13.118 18.997 -14 21 C-17.304 20.394 -19.255 19.268 -21.855 17.164 C-22.56 16.594 -23.264 16.025 -23.99 15.438 C-24.715 14.839 -25.44 14.241 -26.188 13.625 C-26.924 13.035 -27.661 12.444 -28.42 11.836 C-33.873 7.381 -33.873 7.381 -35 4 C-29.754 4.385 -26.94 7.212 -23.188 10.562 C-22.59 11.083 -21.993 11.603 -21.377 12.139 C-19.911 13.417 -18.454 14.708 -17 16 C-9.83 12.791 -4.939 5.903 0 0 Z " fill="#141314" transform="translate(324,497)"/>
<path d="M0 0 C8.611 0.047 15.905 1.473 22.609 7.266 C23.34 9.43 23.34 9.43 23.609 11.266 C19.7 11.266 18.919 11.069 15.734 9.328 C9.632 6.435 3.263 6.455 -3.391 6.266 C-4.016 4.391 -4.016 4.391 -4.391 2.266 C-2.391 0.266 -2.391 0.266 0 0 Z " fill="#141314" transform="translate(513.390625,451.734375)"/>
<path d="M0 0 C0.99 0.33 1.98 0.66 3 1 C0.672 6.297 -3.463 9.569 -8.438 12.375 C-13.15 13.524 -17.282 13.781 -21.75 11.75 C-24.029 9.978 -26.034 8.112 -28 6 C-27.67 5.01 -27.34 4.02 -27 3 C-25.546 4.237 -25.546 4.237 -24.062 5.5 C-20.437 8.058 -17.688 8.745 -13.277 8.496 C-7.883 7.321 -3.742 3.915 0 0 Z " fill="#141314" transform="translate(511,522)"/>
<path d="M0 0 C0.33 0 0.66 0 1 0 C0.859 1.459 0.712 2.917 0.562 4.375 C0.481 5.187 0.4 5.999 0.316 6.836 C0 9 0 9 -1 11 C-1.085 12.959 -1.107 14.922 -1.098 16.883 C-1.094 18.049 -1.091 19.216 -1.088 20.418 C-1.08 21.641 -1.071 22.865 -1.062 24.125 C-1.058 25.356 -1.053 26.587 -1.049 27.855 C-1.037 30.904 -1.021 33.952 -1 37 C-1.99 37 -2.98 37 -4 37 C-5.597 32.208 -5.226 27.331 -5.25 22.312 C-5.271 21.248 -5.291 20.184 -5.312 19.088 C-5.344 12.658 -4.793 7.823 -2 2 C-1.34 1.34 -0.68 0.68 0 0 Z " fill="#EEEEEF" transform="translate(445,583)"/>
<path d="M0 0 C1.65 0 3.3 0 5 0 C5.678 2.184 6.342 4.372 7 6.562 C7.371 7.781 7.743 8.999 8.125 10.254 C8.995 13.979 9.157 17.191 9 21 C7.68 21 6.36 21 5 21 C4.158 18.44 3.326 15.878 2.5 13.312 C2.142 12.231 2.142 12.231 1.777 11.127 C0.556 7.306 -0.321 4.066 0 0 Z " fill="#141314" transform="translate(340,279)"/>
<path d="M0 0 C1.65 0 3.3 0 5 0 C4.415 7.094 3.368 14.016 2 21 C0.35 21 -1.3 21 -3 21 C-2.582 13.779 -2.045 6.954 0 0 Z " fill="#222222" transform="translate(372,276)"/>
<path d="M0 0 C0.681 0.825 1.361 1.65 2.062 2.5 C4.817 5.309 4.817 5.309 8.562 5.438 C11.624 5.048 13.491 4.737 16 3 C16.33 2.34 16.66 1.68 17 1 C17.99 1 18.98 1 20 1 C18.607 5.875 16.169 8.194 12 11 C8.171 11.703 6.586 11.326 3.188 9.438 C0.41 6.342 0.236 4.084 0 0 Z " fill="#141314" transform="translate(510,475)"/>
<path d="M0 0 C0.33 1.98 0.66 3.96 1 6 C-0.688 7.562 -0.688 7.562 -3 9 C-7.303 8.767 -11.118 6.751 -15 5 C-14.67 4.34 -14.34 3.68 -14 3 C-11.348 2.148 -11.348 2.148 -8.062 1.375 C-6.44 0.984 -6.44 0.984 -4.785 0.586 C-2 0 -2 0 0 0 Z " fill="#EEEEEF" transform="translate(601,771)"/>
<path d="M0 0 C0.66 0 1.32 0 2 0 C2.049 1.221 2.098 2.441 2.148 3.699 C2.57 13.267 3.256 22.568 5 32 C3.515 32.495 3.515 32.495 2 33 C-0.198 25.94 -0.235 19.356 -0.125 12 C-0.116 10.844 -0.107 9.687 -0.098 8.496 C-0.074 5.664 -0.041 2.832 0 0 Z " fill="#D7D7D6" transform="translate(592,538)"/>
<path d="M0 0 C0.639 0.66 1.279 1.32 1.938 2 C10.088 10.241 10.088 10.241 20 16 C19.34 16.99 18.68 17.98 18 19 C11.237 15.408 5.162 11.605 1 5 C0.316 2.254 0.316 2.254 0 0 Z " fill="#EEEEEF" transform="translate(522,429)"/>
<path d="M0 0 C0.66 0 1.32 0 2 0 C2.577 0.66 3.155 1.32 3.75 2 C5.879 4.273 5.879 4.273 9 4.375 C11.835 4.021 13.59 3.483 16 2 C15.638 4.624 15.173 5.82 13.312 7.75 C10.22 9.421 8.472 9.567 5 9 C2.125 6.75 2.125 6.75 0 4 C0 2.68 0 1.36 0 0 Z " fill="#141314" transform="translate(475,473)"/>
<path d="M0 0 C0.99 0 1.98 0 3 0 C1.004 6.719 -1.729 12.807 -5 19 C-5.99 18.67 -6.98 18.34 -8 18 C-6.443 13.987 -4.689 10.091 -2.875 6.188 C-2.336 5.026 -1.797 3.865 -1.242 2.668 C-0.627 1.347 -0.627 1.347 0 0 Z " fill="#E2E2E2" transform="translate(567,519)"/>
<path d="M0 0 C0.99 0.33 1.98 0.66 3 1 C1.468 4.631 -0.718 6.986 -3.5 9.75 C-4.691 10.949 -4.691 10.949 -5.906 12.172 C-8 14 -8 14 -10 14 C-9.468 9.862 -7.221 7.729 -4.438 4.75 C-3.611 3.858 -2.785 2.966 -1.934 2.047 C-1.296 1.371 -0.657 0.696 0 0 Z " fill="#141314" transform="translate(737,405)"/>
<path d="M0 0 C2.255 2.866 4.072 5.763 5.75 9 C6.199 9.846 6.647 10.691 7.109 11.562 C8.091 14.249 7.999 15.37 7 18 C0.146 7.094 0.146 7.094 -1 2 C-0.67 1.34 -0.34 0.68 0 0 Z " fill="#D7D7D6" transform="translate(605,590)"/>
<path d="M0 0 C3.579 1.652 6.748 3.783 10 6 C6.905 7.032 5.474 6.975 2.312 6.562 C1.1 6.41 1.1 6.41 -0.137 6.254 C-0.752 6.17 -1.366 6.086 -2 6 C-1.34 4.02 -0.68 2.04 0 0 Z " fill="#141314" transform="translate(412,757)"/>
<path d="M0 0 C0.33 2.97 0.66 5.94 1 9 C-2.63 8.34 -6.26 7.68 -10 7 C-9.01 6.34 -8.02 5.68 -7 5 C-5.949 4.137 -4.907 3.262 -3.875 2.375 C-1 0 -1 0 0 0 Z " fill="#EEEEEF" transform="translate(600,729)"/>
<path d="M0 0 C1.285 3.855 0.405 5.403 -0.938 9.188 C-1.318 10.274 -1.698 11.361 -2.09 12.48 C-2.39 13.312 -2.691 14.143 -3 15 C-3.66 15 -4.32 15 -5 15 C-4.724 8.795 -3.894 4.898 0 0 Z " fill="#C6C6C6" transform="translate(580,528)"/>
<path d="M0 0 C0.99 0 1.98 0 3 0 C3 3.96 3 7.92 3 12 C2.01 12 1.02 12 0 12 C0 8.04 0 4.08 0 0 Z " fill="#222222" transform="translate(306,485)"/>
<path d="M0 0 C1.842 2.763 2.722 4.807 3.688 7.938 C3.959 8.792 4.231 9.647 4.512 10.527 C5.021 13.105 4.849 14.544 4 17 C0.525 11.027 -0.574 6.885 0 0 Z " fill="#D7D7D6" transform="translate(572,578)"/>
<path d="M0 0 C0.99 0 1.98 0 3 0 C4.203 2.405 4.101 3.95 4.062 6.625 C4.053 7.442 4.044 8.26 4.035 9.102 C4.024 9.728 4.012 10.355 4 11 C3.34 11 2.68 11 2 11 C0.577 7.177 -0.24 4.087 0 0 Z " fill="#222222" transform="translate(717,393)"/>
<path d="M0 0 C0.33 0 0.66 0 1 0 C1.33 7.26 1.66 14.52 2 22 C1.01 22 0.02 22 -1 22 C-1.33 20.35 -1.66 18.7 -2 17 C-1.67 17 -1.34 17 -1 17 C-0.67 11.39 -0.34 5.78 0 0 Z " fill="#ACAEB0" transform="translate(442,598)"/>
<path d="M0 0 C0.99 0.33 1.98 0.66 3 1 C2.547 2.439 2.088 3.876 1.625 5.312 C1.37 6.113 1.115 6.914 0.852 7.738 C0 10 0 10 -2 13 C-2.193 8.176 -1.757 4.504 0 0 Z " fill="#D7D7D6" transform="translate(454,426)"/>
<path d="M0 0 C0.99 0 1.98 0 3 0 C2.67 1.98 2.34 3.96 2 6 C0.68 6.33 -0.64 6.66 -2 7 C-2 3 -2 3 0 0 Z " fill="#616665" transform="translate(551,722)"/>
<path d="M0 0 C2.301 3.452 2.138 4.235 1.625 8.188 C1.514 9.089 1.403 9.99 1.289 10.918 C1.194 11.605 1.098 12.292 1 13 C0.01 12.34 -0.98 11.68 -2 11 C-1.125 3.375 -1.125 3.375 0 0 Z " fill="#B8B8B8" transform="translate(574,540)"/>
<path d="M0 0 C-0.33 2.97 -0.66 5.94 -1 9 C-1.66 8.34 -2.32 7.68 -3 7 C-3.66 7.99 -4.32 8.98 -5 10 C-4.387 3.5 -4.387 3.5 -2.5 1.062 C-1 0 -1 0 0 0 Z " fill="#D7D7D6" transform="translate(446,583)"/>
<path d="M0 0 C0.66 0 1.32 0 2 0 C1.75 2.875 1.75 2.875 1 6 C-1.062 7.375 -1.062 7.375 -3 8 C-1.125 1.125 -1.125 1.125 0 0 Z " fill="#222222" transform="translate(733,397)"/>
<path d="M0 0 C0 0.66 0 1.32 0 2 C-3.96 3.98 -3.96 3.98 -8 6 C-8.33 5.01 -8.66 4.02 -9 3 C-2.25 0 -2.25 0 0 0 Z " fill="#C6C6C6" transform="translate(489,395)"/>
<path d="M0 0 C0.66 0.99 1.32 1.98 2 3 C0.35 4.32 -1.3 5.64 -3 7 C-3 6.34 -3 5.68 -3 5 C-3.66 4.67 -4.32 4.34 -5 4 C-4.34 4 -3.68 4 -3 4 C-3 3.34 -3 2.68 -3 2 C-2.01 1.34 -1.02 0.68 0 0 Z " fill="#222222" transform="translate(726,417)"/>
<path d="M0 0 C0.66 0 1.32 0 2 0 C1.453 3.375 0.945 5.082 -1 8 C-1.66 7.67 -2.32 7.34 -3 7 C-1.125 2.25 -1.125 2.25 0 0 Z " fill="#EEEEEF" transform="translate(562,530)"/>
<path d="M0 0 C2.475 0.99 2.475 0.99 5 2 C5 2.99 5 3.98 5 5 C3.68 4.67 2.36 4.34 1 4 C0.67 2.68 0.34 1.36 0 0 Z " fill="#141314" transform="translate(718,420)"/>
</svg>