<svg version="1.1" xmlns="http://www.w3.org/2000/svg" width="1024" height="1024">
<path d="M0 0 C337.92 0 675.84 0 1024 0 C1024 337.92 1024 675.84 1024 1024 C686.08 1024 348.16 1024 0 1024 C0 686.08 0 348.16 0 0 Z " fill="#FEFEFE" transform="translate(0,0)"/>
<path d="M0 0 C3.474 2.667 6.551 5.327 9 9 C12.485 7.657 15.802 6.14 19.125 4.438 C27.093 0.357 34.702 -0.386 43.465 1.906 C50.12 4.329 55.735 7.258 61 12 C61.615 12.547 62.23 13.093 62.863 13.656 C72.115 22.373 76.931 33.229 77.474 46.013 C77.665 61.747 73.849 79.54 66.75 93.562 C65.04 97.151 64.906 99.732 65.125 103.688 C65.38 110.188 63.206 114.652 60.535 120.48 C54.36 134.637 55.681 149.879 56 165 C54.68 165.33 53.36 165.66 52 166 C45.822 158.536 46.581 148.219 47 139 C47.23 136.623 47.563 134.349 48 132 C47.397 132.217 46.793 132.433 46.172 132.656 C44.973 133.074 44.973 133.074 43.75 133.5 C42.961 133.778 42.172 134.057 41.359 134.344 C39 135 39 135 35 135 C34.814 136.196 34.629 137.393 34.438 138.625 C32.69 146.556 28.563 154.469 23.816 161.008 C21.72 164.462 21.447 166.681 21.312 170.688 C21.066 176.803 21.066 176.803 20 180 C19.882 181.851 19.825 183.707 19.812 185.562 C19.791 187.018 19.791 187.018 19.77 188.504 C19.748 191.174 19.748 191.174 22 193 C24.088 193.613 24.088 193.613 26.5 194 C27.857 194.259 27.857 194.259 29.242 194.523 C30.929 194.815 32.622 195.077 34.32 195.289 C46.123 197.009 59.335 203.818 67 213 C68.312 216 68.312 216 69 219 C69.64 220.326 70.309 221.638 71 222.938 C74.394 229.588 75.623 236.721 77 244 C82.666 239.854 86.29 234.928 90 229 C90.44 228.335 90.879 227.67 91.332 226.984 C95.625 219.279 95.74 208.351 93.44 199.958 C89.375 188.786 81.567 181.758 72.438 174.688 C66.129 169.648 59.312 162.298 58 154 C57.779 151.273 57.867 148.753 58 146 C60 144 60 144 61.961 143.973 C65.175 145.592 65.46 148.117 66.625 151.438 C69.535 158.987 73.863 163.71 80 169 C81.077 169.951 81.077 169.951 82.176 170.922 C83.487 172.073 84.804 173.219 86.125 174.359 C91.736 179.269 96.636 184.256 100 191 C100 191.66 100 192.32 100 193 C100.672 192.856 101.343 192.711 102.035 192.562 C119.727 189.275 138.063 188.343 153.438 198.812 C160.899 204.986 166.285 213.448 167.348 223.184 C167.46 226.865 167.436 230.521 167.359 234.203 C167.343 235.607 167.328 237.01 167.313 238.413 C167.096 255.004 166.249 271.58 165.385 288.147 C165.201 291.694 165.023 295.242 164.845 298.79 C163.624 323.032 162.293 347.268 160.875 371.5 C160.835 372.192 160.794 372.884 160.753 373.598 C159.938 387.573 159.063 401.538 157.945 415.492 C157.085 426.261 156.524 437.022 156.109 447.816 C155.594 461.091 155.044 474.331 153.75 487.555 C153.121 494.416 152.785 501.275 152.5 508.156 C152.458 509.163 152.416 510.17 152.373 511.207 C152.163 516.311 151.967 521.415 151.785 526.52 C151.711 528.419 151.637 530.319 151.562 532.219 C151.535 533.086 151.508 533.952 151.48 534.845 C151.161 542.689 149.625 549.325 146 556.375 C145.484 557.393 144.969 558.412 144.438 559.461 C143 562 143 562 141 564 C142.301 564.015 143.603 564.029 144.944 564.044 C149.786 564.102 154.628 564.18 159.469 564.262 C161.562 564.296 163.655 564.324 165.749 564.346 C168.762 564.38 171.776 564.432 174.789 564.488 C175.721 564.495 176.652 564.501 177.612 564.508 C182.827 564.625 186.445 565.169 191 568 C191 569.32 191 570.64 191 572 C185.056 576.024 178.866 575.415 171.897 575.375 C170.539 575.378 169.182 575.382 167.825 575.387 C164.084 575.398 160.344 575.39 156.603 575.379 C152.538 575.371 148.472 575.38 144.407 575.386 C137.278 575.396 130.149 575.394 123.02 575.385 C112.42 575.371 101.819 575.374 91.218 575.381 C72.287 575.393 53.356 575.388 34.425 575.376 C17.858 575.366 1.29 575.361 -15.277 575.363 C-16.924 575.363 -16.924 575.363 -18.604 575.363 C-23.061 575.363 -27.517 575.363 -31.974 575.364 C-73.802 575.368 -115.63 575.355 -157.459 575.334 C-194.637 575.316 -231.816 575.31 -268.995 575.316 C-271.382 575.316 -273.769 575.316 -276.156 575.317 C-277.337 575.317 -278.517 575.317 -279.732 575.317 C-285.673 575.318 -291.613 575.319 -297.553 575.32 C-298.725 575.32 -299.897 575.32 -301.104 575.32 C-332.15 575.324 -363.196 575.319 -394.242 575.31 C-397.582 575.309 -400.922 575.308 -404.262 575.307 C-406.477 575.307 -408.693 575.306 -410.909 575.306 C-426.369 575.301 -441.829 575.301 -457.289 575.303 C-477.211 575.305 -497.133 575.301 -517.055 575.286 C-527.596 575.277 -538.137 575.275 -548.678 575.28 C-555.713 575.283 -562.748 575.279 -569.783 575.269 C-573.795 575.263 -577.807 575.261 -581.82 575.267 C-585.468 575.272 -589.117 575.269 -592.766 575.258 C-594.699 575.255 -596.632 575.261 -598.565 575.268 C-609.705 575.217 -609.705 575.217 -615 573 C-615.99 571.515 -615.99 571.515 -617 570 C-615 568 -615 568 -611.875 567.875 C-610.926 567.916 -609.977 567.957 -609 568 C-609 567.34 -609 566.68 -609 566 C-609.597 565.785 -610.194 565.569 -610.809 565.348 C-613.776 563.523 -614.566 561.562 -616.062 558.438 C-616.548 557.446 -617.034 556.455 -617.535 555.434 C-620.978 547.363 -622.881 539.297 -624.5 530.688 C-625.689 524.429 -626.909 518.219 -628.523 512.055 C-630.182 505.574 -631.188 499.055 -632.125 492.438 C-632.294 491.296 -632.463 490.155 -632.637 488.979 C-634.109 478.832 -635.18 468.758 -635.25 458.5 C-635.271 457.716 -635.291 456.933 -635.312 456.125 C-635.351 450.485 -635.351 450.485 -633.759 448.287 C-631.54 446.664 -630.263 446.606 -627.529 446.568 C-626.628 446.548 -625.727 446.528 -624.799 446.508 C-623.346 446.498 -623.346 446.498 -621.863 446.488 C-620.371 446.461 -620.371 446.461 -618.849 446.434 C-615.67 446.38 -612.492 446.346 -609.312 446.312 C-607.158 446.279 -605.004 446.245 -602.85 446.209 C-597.567 446.124 -592.283 446.056 -587 446 C-587.863 445.34 -587.863 445.34 -588.742 444.667 C-609.059 429.011 -626.972 409.748 -631.609 383.559 C-632.038 379.652 -632.293 375.803 -632.375 371.875 C-632.412 371.185 -632.45 370.496 -632.488 369.785 C-632.555 365.889 -632.134 364.175 -629.734 361.055 C-626.295 358.47 -624.694 358.138 -620.52 358.395 C-611.279 360.615 -603.585 368.537 -597 375 C-596.346 375.629 -595.693 376.258 -595.02 376.906 C-590.235 381.879 -586.567 387.514 -582.875 393.312 C-582.384 394.083 -581.893 394.853 -581.387 395.646 C-577.5 401.893 -574.205 408.381 -571 415 C-570.985 414.221 -570.971 413.442 -570.956 412.639 C-570.312 381.745 -570.312 381.745 -567 367 C-566.813 366.166 -566.627 365.332 -566.435 364.473 C-562.017 345.566 -554.541 328.279 -540 315 C-536.803 313.402 -533.47 313.497 -530 314 C-526.985 316.222 -525.43 318.58 -524 322 C-523.513 326.11 -523.572 330.239 -523.562 334.375 C-523.559 335.572 -523.555 336.769 -523.551 338.002 C-523.688 348.8 -525.727 358.588 -528.531 368.96 C-529.08 371.348 -529.201 373.559 -529 376 C-528.299 375.192 -527.597 374.384 -526.875 373.551 C-514.034 358.978 -514.034 358.978 -505.312 358.375 C-501.746 358.578 -500.994 359.004 -498 361.312 C-495.215 365.054 -494.879 367.65 -494.938 372.188 C-494.947 373.089 -494.956 373.99 -494.965 374.918 C-494.982 375.949 -494.982 375.949 -495 377 C-494.34 376.67 -493.68 376.34 -493 376 C-485.972 375.051 -481.077 375.704 -475.402 379.992 C-472.103 382.749 -468.823 385.528 -465.566 388.335 C-439.35 412.006 -439.35 412.006 -407 420 C-396.986 418.515 -392.127 412.237 -386.298 404.654 C-381.583 398.645 -376.217 393.14 -370.767 387.799 C-369.082 386.084 -367.527 384.314 -365.973 382.48 C-361.7 377.569 -357.123 372.972 -352.512 368.382 C-351.065 366.94 -349.623 365.493 -348.182 364.045 C-343.496 359.356 -338.762 354.777 -333.703 350.489 C-331.885 348.899 -330.191 347.224 -328.5 345.5 C-324.837 341.788 -320.96 338.39 -317 335 C-315.945 334.093 -314.891 333.185 -313.836 332.277 C-310.23 329.177 -306.616 326.088 -303 323 C-302.42 322.504 -301.839 322.007 -301.241 321.496 C-295.133 316.275 -289 311.117 -282.609 306.242 C-281.053 305.096 -281.053 305.096 -280 304 C-281.039 303.194 -282.078 302.389 -283.148 301.559 C-287.355 297.95 -289.899 293.838 -292.625 289.062 C-293.531 287.51 -294.44 285.959 -295.352 284.41 C-295.787 283.663 -296.223 282.915 -296.672 282.145 C-297.941 280.095 -299.321 278.223 -300.793 276.316 C-303.15 272.775 -303.533 271.043 -303.688 266.875 C-304.65 259.129 -308.619 254.498 -313.526 248.767 C-316.154 245.616 -318.561 242.299 -321 239 C-324.619 234.148 -328.28 229.337 -332 224.562 C-335.986 219.403 -339.801 214.138 -343.562 208.812 C-344.088 208.069 -344.613 207.325 -345.154 206.559 C-348.472 201.83 -350.087 199.102 -350.523 193.168 C-349.671 189.639 -347.818 188.194 -345 186 C-324.584 181.711 -300.124 192.58 -281.26 199.247 C-277.511 200.496 -274.211 201.13 -270.254 201.246 C-269.34 201.278 -268.427 201.309 -267.485 201.342 C-266.521 201.373 -265.556 201.405 -264.562 201.438 C-257.163 201.722 -250.029 202.241 -242.734 203.535 C-240.149 203.975 -237.613 204.234 -235 204.438 C-225.222 205.391 -215.233 206.862 -208 214 C-205.174 217.645 -202.826 221.518 -200.491 225.484 C-198.712 228.486 -196.894 231.461 -195.074 234.438 C-188.489 245.214 -181.974 256.032 -175.5 266.875 C-170.831 274.693 -165.993 282.385 -161 290 C-157.606 287.243 -154.448 284.603 -151.625 281.25 C-151.049 280.575 -150.473 279.899 -149.879 279.203 C-149.259 278.476 -148.639 277.749 -148 277 C-146.525 275.33 -145.045 273.663 -143.562 272 C-142.543 270.855 -142.543 270.855 -141.504 269.688 C-140.759 268.852 -140.759 268.852 -140 268 C-140.33 267.443 -140.66 266.886 -141 266.312 C-142.205 263.525 -142.394 262.019 -142 259 C-140.092 256.54 -140.092 256.54 -137.434 253.98 C-136.962 253.518 -136.49 253.056 -136.004 252.58 C-134.493 251.103 -132.966 249.645 -131.438 248.188 C-129.452 246.269 -127.474 244.344 -125.496 242.418 C-124.772 241.716 -124.772 241.716 -124.033 241.001 C-120.707 237.758 -117.635 234.375 -114.629 230.839 C-112.91 228.898 -111.1 227.116 -109.219 225.332 C-108.605 224.749 -107.992 224.165 -107.359 223.564 C-106.097 222.375 -104.826 221.196 -103.547 220.025 C-99.985 216.847 -99.985 216.847 -98.934 212.453 C-99.461 211.239 -99.461 211.239 -100 210 C-100.59 208.59 -100.59 208.59 -101.191 207.152 C-101.644 206.091 -102.096 205.031 -102.562 203.938 C-107.823 189.379 -105.997 174.072 -99.715 160.152 C-96.096 152.985 -91.236 147.044 -86 141 C-85.416 140.305 -84.832 139.61 -84.23 138.895 C-78.981 132.662 -78.981 132.662 -76 130 C-75.34 130 -74.68 130 -74 130 C-72.925 140.388 -72.925 140.388 -75.242 143.863 C-76.431 144.923 -77.64 145.961 -78.863 146.98 C-83.594 151.451 -86.756 157.404 -90 163 C-90.556 163.936 -91.111 164.872 -91.684 165.836 C-96.294 174.953 -97.296 188.442 -94.297 198.314 C-93.559 200.221 -92.782 202.112 -92 204 C-92 204.99 -92 205.98 -92 207 C-91.527 206.576 -91.054 206.152 -90.566 205.715 C-79.185 195.62 -69.604 187.799 -53.875 187.812 C-53.094 187.812 -52.313 187.811 -51.508 187.811 C-42.932 187.886 -34.493 188.876 -26 190 C-25.34 187.69 -24.68 185.38 -24 183 C-24.909 182.853 -24.909 182.853 -25.836 182.703 C-40.551 180.077 -53.718 173.134 -62.586 160.793 C-69.49 149.946 -72.863 139.411 -72.562 126.562 C-72.548 125.352 -72.534 124.141 -72.519 122.894 C-72.269 112.486 -70.791 102.553 -68.53 92.41 C-68.016 90.072 -67.549 87.73 -67.102 85.379 C-65.194 75.388 -65.194 75.388 -64 73 C-64.834 73.058 -65.668 73.116 -66.527 73.176 C-76.649 73.582 -82.373 71.497 -89.812 64.75 C-97.018 56.858 -97.866 48.798 -97.445 38.445 C-96.979 32.305 -95.003 27.341 -92 22 C-91.504 21.068 -91.007 20.136 -90.496 19.176 C-82.346 5.095 -68.613 -4.379 -53.375 -9.5 C-34.196 -14.36 -16.268 -10.753 0 0 Z " fill="#0A0A0A" transform="translate(710,235)"/>
<path d="M0 0 C1.36 -0.016 2.719 -0.044 4.078 -0.082 C13.805 -0.355 21.662 0.327 29.219 6.908 C36.854 15.053 38.034 23.688 37.797 34.499 C37.783 35.795 37.768 37.092 37.753 38.428 C37.524 54.79 36.598 71.137 35.693 87.472 C35.509 90.811 35.334 94.15 35.159 97.489 C34.288 114.066 33.35 130.632 32.083 147.184 C31.313 157.34 30.914 167.503 30.604 177.683 C30.467 179.787 30.228 181.885 29.953 183.976 C29.404 188.315 29.119 192.643 28.889 197.009 C28.844 197.836 28.798 198.664 28.751 199.517 C28.601 202.245 28.455 204.973 28.309 207.702 C28.203 209.639 28.098 211.577 27.991 213.515 C27.712 218.633 27.436 223.751 27.16 228.869 C26.887 233.93 26.611 238.992 26.334 244.053 C25.496 259.444 24.665 274.834 23.857 290.226 C23.812 291.089 23.767 291.951 23.72 292.84 C23.51 296.843 23.301 300.846 23.093 304.849 C22.6 314.331 22.064 323.81 21.493 333.288 C21.423 334.466 21.353 335.645 21.281 336.859 C20.75 345.276 18.819 351.65 13.43 358.35 C8.757 361.86 4.377 364.471 -1.581 364.481 C-2.811 364.487 -2.811 364.487 -4.066 364.493 C-4.968 364.492 -5.87 364.491 -6.8 364.49 C-8.242 364.494 -8.242 364.494 -9.714 364.499 C-12.966 364.508 -16.219 364.509 -19.471 364.511 C-21.815 364.515 -24.158 364.521 -26.501 364.526 C-32.285 364.539 -38.07 364.546 -43.854 364.552 C-50.78 364.559 -57.706 364.572 -64.632 364.585 C-82.17 364.616 -99.708 364.636 -117.246 364.654 C-121.995 364.659 -126.744 364.664 -131.494 364.669 C-160.967 364.7 -190.441 364.726 -219.915 364.743 C-226.745 364.747 -233.575 364.751 -240.405 364.755 C-241.253 364.756 -242.102 364.756 -242.976 364.757 C-270.491 364.773 -298.005 364.812 -325.52 364.862 C-353.8 364.915 -382.08 364.947 -410.361 364.955 C-414.354 364.956 -418.348 364.957 -422.341 364.958 C-423.127 364.959 -423.913 364.959 -424.723 364.959 C-437.377 364.964 -450.031 364.989 -462.685 365.021 C-475.402 365.053 -488.12 365.063 -500.837 365.051 C-507.729 365.044 -514.62 365.048 -521.511 365.079 C-527.818 365.106 -534.124 365.106 -540.431 365.083 C-542.714 365.08 -544.997 365.087 -547.281 365.105 C-550.383 365.128 -553.482 365.114 -556.584 365.091 C-557.917 365.114 -557.917 365.114 -559.277 365.138 C-566.073 365.026 -570.384 362.673 -575.57 358.35 C-584.89 348.022 -584.401 332.843 -583.75 319.833 C-583.105 310.945 -580.921 303.763 -574.57 297.35 C-567.299 291.443 -559.53 292.208 -550.598 292.237 C-548.797 292.236 -548.797 292.236 -546.96 292.236 C-543.681 292.237 -540.403 292.242 -537.124 292.249 C-533.693 292.255 -530.262 292.256 -526.83 292.257 C-520.339 292.26 -513.847 292.268 -507.356 292.278 C-499.963 292.289 -492.57 292.295 -485.177 292.3 C-469.974 292.31 -454.772 292.328 -439.57 292.35 C-447.786 309.376 -468.113 319.429 -483.77 328.375 C-496.736 335.29 -496.736 335.29 -505.57 346.35 C-506.139 349.489 -506.26 352.226 -505.57 355.35 C-503.299 358.374 -503.299 358.374 -500.57 360.35 C-500.24 360.68 -499.91 361.01 -499.57 361.35 C-486.08 362.722 -473.107 358.751 -460.511 354.346 C-456.127 352.861 -451.676 351.646 -447.21 350.428 C-443.577 349.409 -443.577 349.409 -440.179 348.022 C-429.669 344.064 -419.427 343.745 -408.304 343.715 C-399.701 343.649 -391.541 343.494 -384.57 337.975 C-380.528 332.67 -380.248 327.992 -380.156 321.549 C-380.136 320.713 -380.117 319.877 -380.097 319.015 C-380.038 316.356 -379.991 313.697 -379.945 311.038 C-379.907 309.23 -379.868 307.422 -379.828 305.614 C-379.732 301.193 -379.648 296.772 -379.57 292.35 C-362.402 292.21 -345.234 292.104 -328.065 292.039 C-320.092 292.008 -312.12 291.966 -304.148 291.897 C-297.196 291.837 -290.244 291.799 -283.292 291.786 C-279.614 291.778 -275.936 291.76 -272.258 291.716 C-268.143 291.667 -264.029 291.666 -259.914 291.669 C-258.706 291.647 -257.499 291.626 -256.254 291.604 C-248.025 291.663 -243.237 293.666 -236.57 298.35 C-222 305.095 -206.381 305.711 -190.586 305.666 C-188.241 305.663 -185.897 305.686 -183.552 305.711 C-175.1 305.747 -167.612 305.248 -159.57 302.35 C-158.907 302.125 -158.244 301.899 -157.561 301.667 C-155.884 301.078 -154.226 300.435 -152.57 299.788 C-151.497 299.374 -150.425 298.96 -149.32 298.534 C-146.433 297.389 -146.433 297.389 -143.57 295.35 C-141.637 295.092 -141.637 295.092 -139.425 295.079 C-138.593 295.069 -137.762 295.058 -136.905 295.048 C-136.008 295.046 -135.111 295.044 -134.187 295.042 C-132.278 295.016 -130.369 294.991 -128.46 294.965 C-125.459 294.937 -122.457 294.913 -119.456 294.894 C-116.553 294.872 -113.652 294.833 -110.75 294.792 C-109.865 294.791 -108.98 294.791 -108.069 294.791 C-97.899 294.632 -86.647 291.047 -79.07 284.038 C-78.327 283.202 -78.327 283.202 -77.57 282.35 C-76.91 282.35 -76.25 282.35 -75.57 282.35 C-75.299 281.775 -75.028 281.2 -74.75 280.608 C-73.171 277.588 -71.193 274.916 -69.203 272.155 C-64.975 264.892 -63.016 257.71 -62.164 249.413 C-60.579 236.225 -57.837 223.332 -55.07 210.35 C-54.578 208.016 -54.087 205.681 -53.597 203.346 C-51.949 195.512 -50.299 187.679 -48.593 179.858 C-48.328 178.638 -48.062 177.419 -47.789 176.163 C-47.571 175.179 -47.354 174.195 -47.13 173.182 C-46.695 170.985 -46.356 168.769 -46.056 166.549 C-45.57 163.35 -45.57 163.35 -44.57 162.35 C-44.094 159.685 -43.664 157.025 -43.257 154.35 C-42.134 147.256 -40.694 140.311 -38.983 133.338 C-37.762 128.315 -36.854 123.297 -36.07 118.186 C-35.531 115.128 -34.794 112.166 -34.007 109.163 C-32.887 104.871 -32.203 100.764 -31.816 96.354 C-31.57 94.35 -31.57 94.35 -30.57 90.975 C-29.236 86.14 -28.913 81.341 -28.57 76.35 C-30.055 76.845 -30.055 76.845 -31.57 77.35 C-32.603 79.957 -32.603 79.957 -33.289 83.194 C-33.579 84.412 -33.87 85.631 -34.17 86.886 C-34.471 88.208 -34.771 89.529 -35.07 90.85 C-35.383 92.189 -35.696 93.528 -36.01 94.866 C-37.893 102.97 -39.524 111.086 -40.841 119.301 C-41.506 123.192 -42.446 126.98 -43.445 130.799 C-45.386 138.38 -46.976 146 -48.462 153.681 C-51.059 167.082 -53.84 180.433 -56.799 193.76 C-57.093 195.083 -57.386 196.406 -57.679 197.729 C-57.828 198.399 -57.976 199.069 -58.129 199.759 C-59.404 205.54 -60.623 211.333 -61.835 217.127 C-62.428 219.945 -63.021 222.762 -63.614 225.579 C-63.994 227.394 -64.372 229.209 -64.747 231.025 C-72.673 269.415 -72.673 269.415 -86.617 280.561 C-96.369 286.469 -105.094 286.861 -116.195 286.6 C-117.691 286.58 -119.187 286.562 -120.683 286.545 C-124.313 286.502 -127.941 286.433 -131.57 286.35 C-131.205 285.878 -130.84 285.405 -130.464 284.919 C-116.321 266.373 -106.065 246.332 -97.528 224.731 C-96.681 222.627 -95.795 220.547 -94.882 218.471 C-93.813 215.928 -92.993 213.591 -92.382 210.913 C-92.114 209.737 -91.846 208.561 -91.57 207.35 C-90.312 207.144 -89.054 206.938 -87.757 206.725 C-79.628 204.889 -72.354 201.385 -67.659 194.352 C-65.732 190.81 -64.861 187.144 -64.007 183.225 C-63.804 182.336 -63.6 181.446 -63.391 180.53 C-60.895 169.062 -59.507 157.412 -58.025 145.78 C-57.029 138.279 -55.822 130.811 -54.57 123.35 C-53.312 123.082 -52.054 122.814 -50.757 122.538 C-46.488 121.485 -46.488 121.485 -43.57 118.35 C-42.62 114.619 -42.49 111.224 -42.599 107.386 C-42.643 105.618 -42.643 105.618 -42.687 103.815 C-42.721 102.551 -42.754 101.286 -42.789 99.983 C-42.835 97.297 -42.88 94.611 -42.921 91.924 C-42.987 87.695 -43.065 83.467 -43.194 79.238 C-43.277 76.476 -43.336 73.716 -43.368 70.953 C-43.398 68.355 -43.462 65.758 -43.564 63.163 C-43.592 54.551 -43.592 54.551 -40.594 51.029 C-38.328 49.262 -36.047 47.796 -33.57 46.35 C-22.899 36.507 -17.535 23.765 -16.945 9.413 C-16.906 8.633 -16.867 7.854 -16.828 7.051 C-16.734 5.151 -16.651 3.251 -16.57 1.35 C-11.201 -0.283 -5.561 0.049 0 0 Z " fill="#FEFEFE" transform="translate(830.56982421875,435.64990234375)"/>
<path d="M0 0 C19.891 -1.304 41.269 6.866 59.75 13.375 C66.648 15.534 73.583 15.565 80.75 15.789 C86.069 15.966 91.335 16.436 96.625 17 C97.437 17.083 98.248 17.167 99.084 17.252 C104.74 17.87 104.74 17.87 107 19 C108.332 19.103 109.666 19.183 111 19.25 C117.538 19.975 123.335 22.113 127.871 27.027 C129.733 29.612 131.377 32.259 133 35 C133.663 36.083 134.325 37.166 135.008 38.281 C136.935 41.446 138.825 44.631 140.709 47.821 C143.082 51.827 145.479 55.82 147.875 59.812 C148.387 60.667 148.9 61.521 149.428 62.402 C153.088 68.499 156.781 74.576 160.499 80.639 C163.398 85.37 166.281 90.111 169.152 94.859 C169.893 96.083 170.634 97.306 171.375 98.53 C172.868 100.996 174.357 103.465 175.844 105.935 C179.225 111.535 182.663 117.056 186.391 122.431 C190.15 127.867 191.752 131.375 191.066 138.004 C190.795 140.242 190.795 140.242 192.75 142.562 C194.902 143.938 196.485 144.641 199 145 C199 143.68 199 142.36 199 141 C198.34 141 197.68 141 197 141 C197 139.68 197 138.36 197 137 C201.964 137.473 205.275 140.031 209.188 142.875 C215.209 147.135 221.325 151.163 227.625 155 C228.37 155.456 229.116 155.912 229.884 156.382 C231.289 157.233 232.701 158.073 234.122 158.899 C235.7 159.824 237.245 160.806 238.781 161.801 C243.76 163.656 248.614 163.314 253.875 163.188 C254.945 163.174 256.015 163.16 257.117 163.146 C259.745 163.111 262.372 163.062 265 163 C266.723 167.463 267.222 171.102 267.125 175.875 C267.107 177.027 267.089 178.18 267.07 179.367 C267.036 180.67 267.036 180.67 267 182 C266.178 181.994 265.357 181.987 264.51 181.981 C246.326 181.939 229.354 183.29 211.649 187.561 C203.211 189.568 194.695 191.332 186 190 C185.34 189.01 184.68 188.02 184 187 C185.542 186.229 187.083 185.458 188.625 184.688 C189.534 184.229 190.443 183.77 191.379 183.297 C193.414 182.29 195.483 181.35 197.562 180.438 C200.174 179.265 200.174 179.265 200.652 176.91 C200.767 176.28 200.882 175.649 201 175 C199.814 175.024 199.814 175.024 198.604 175.048 C194.965 175.111 191.327 175.149 187.688 175.188 C186.444 175.213 185.201 175.238 183.92 175.264 C176.117 175.325 169.393 174.541 162 172 C162 171.01 162 170.02 162 169 C162.923 168.925 163.847 168.85 164.798 168.772 C168.226 168.487 171.653 168.189 175.08 167.883 C176.562 167.753 178.046 167.628 179.529 167.508 C181.663 167.334 183.794 167.144 185.926 166.949 C187.209 166.839 188.492 166.729 189.814 166.616 C193.02 165.996 194.104 165.583 196 163 C192.343 160.562 189.506 160.653 185.27 160.586 C184.519 160.567 183.769 160.547 182.996 160.527 C180.601 160.468 178.207 160.421 175.812 160.375 C174.188 160.337 172.564 160.298 170.939 160.258 C166.96 160.162 162.98 160.078 159 160 C158.67 159.01 158.34 158.02 158 157 C167.153 153.281 175.424 152.359 185.25 152.25 C186.592 152.222 187.935 152.192 189.277 152.16 C192.518 152.09 195.759 152.037 199 152 C199.33 150.68 199.66 149.36 200 148 C197.571 147.254 195.14 146.519 192.703 145.801 C190.545 145.161 188.396 144.492 186.25 143.812 C178.02 141.831 169.38 141.7 162 146 C159.881 147.33 157.808 148.711 155.734 150.109 C155.162 150.403 154.59 150.697 154 151 C153.34 150.67 152.68 150.34 152 150 C152 149.34 152 148.68 152 148 C149.553 148.432 149.553 148.432 147 150 C145.597 152.655 144.567 155.068 143.562 157.875 C142.869 159.706 142.175 161.537 141.48 163.367 C141.093 164.408 140.705 165.45 140.306 166.522 C138.856 170.384 137.365 174.228 135.863 178.07 C135.444 179.143 135.444 179.143 135.016 180.238 C134.434 181.728 133.852 183.218 133.269 184.708 C131.748 188.607 130.236 192.508 128.723 196.41 C126.278 202.712 123.828 209.011 121.371 215.309 C120.185 218.351 118.998 221.394 117.812 224.438 C117.379 225.549 117.379 225.549 116.938 226.682 C113.827 234.666 110.739 242.657 107.711 250.672 C107.452 251.357 107.193 252.042 106.926 252.748 C105.708 255.974 104.495 259.203 103.286 262.433 C102.866 263.552 102.445 264.671 102.012 265.824 C101.645 266.805 101.279 267.785 100.901 268.796 C100 271 100 271 99 272 C92.989 272.475 87.08 271.758 81.152 270.828 C80.337 270.704 79.522 270.581 78.683 270.453 C76.967 270.191 75.252 269.925 73.537 269.656 C70.97 269.255 68.4 268.869 65.83 268.484 C40.106 264.553 40.106 264.553 33 261 C33.52 254.109 35.548 248.427 38 242 C38.883 239.544 39.759 237.087 40.625 234.625 C40.867 233.939 41.11 233.252 41.359 232.545 C43.095 227.617 44.803 222.679 46.504 217.738 C46.724 217.099 46.944 216.459 47.171 215.8 C48.278 212.585 49.382 209.369 50.485 206.153 C52.353 200.714 54.234 195.29 56.282 189.916 C57.76 185.97 59.119 181.981 60.5 178 C62.592 171.969 64.741 165.97 67 160 C67.649 158.23 68.295 156.46 68.938 154.688 C69.45 153.276 69.45 153.276 69.973 151.836 C70.627 150.029 71.281 148.222 71.934 146.414 C83.941 113.23 83.941 113.23 88 110 C90.637 109.008 90.637 109.008 93.688 108.125 C102.994 105.174 102.994 105.174 109.562 98.375 C110.223 95.864 110.223 95.864 109 93 C109.328 90.666 109.661 88.332 110 86 C109.67 85.34 109.34 84.68 109 84 C108.34 83.794 107.68 83.587 107 83.375 C106.01 82.694 106.01 82.694 105 82 C104.743 79.973 104.49 77.943 104.324 75.906 C104.14 73.821 104.14 73.821 102.312 72.062 C99.553 70.795 97.008 70.342 94 70 C93.752 68.907 93.505 67.814 93.25 66.688 C91.923 62.772 91.436 61.997 88 60 C85.69 59.575 85.69 59.575 83.227 59.672 C82.319 59.677 81.412 59.682 80.477 59.688 C79.536 59.708 78.595 59.729 77.625 59.75 C76.225 59.758 76.225 59.758 74.797 59.766 C70.098 59.819 65.619 60.042 61 61 C60.818 60.151 60.818 60.151 60.633 59.285 C60.381 58.185 60.381 58.185 60.125 57.062 C59.963 56.332 59.8 55.601 59.633 54.848 C59.17 52.793 59.17 52.793 57 52 C52.188 51.411 49.351 52.138 45.254 54.523 C44.454 54.984 43.654 55.445 42.83 55.919 C42.226 56.276 41.622 56.633 41 57 C37.971 53.043 34.944 49.085 31.918 45.125 C29.257 41.643 26.593 38.165 23.926 34.688 C11.902 18.991 11.902 18.991 6.125 11 C5.364 9.948 4.604 8.896 3.82 7.812 C2.16 5.247 1.005 2.876 0 0 Z " fill="#FEFEFE" transform="translate(369,430)"/>
<path d="M0 0 C-0.016 0.58 -0.031 1.159 -0.048 1.757 C-0.11 4.4 -0.149 7.044 -0.188 9.688 C-0.213 10.6 -0.238 11.512 -0.264 12.451 C-0.376 19.254 -0.376 19.254 3 25 C6.763 27.886 10.177 28.547 14.812 29.25 C26.871 31.397 39.57 35.75 47 46 C60.101 65.245 58.312 91.953 58.125 114.25 C58.115 116.375 58.106 118.5 58.098 120.625 C58.076 125.75 58.042 130.875 58 136 C56.682 135.614 56.682 135.614 55.337 135.219 C47.81 133.037 40.275 131.024 32.625 129.312 C31.706 129.1 30.787 128.888 29.84 128.67 C20.362 126.527 11.192 125.791 1.5 125.438 C0.391 125.394 -0.717 125.351 -1.859 125.307 C-4.573 125.201 -7.286 125.099 -10 125 C-9.451 118.882 -8.435 113.315 -6.688 107.438 C-6.238 105.868 -5.79 104.297 -5.344 102.727 C-5.119 101.942 -4.895 101.157 -4.664 100.349 C-3.627 96.681 -2.641 93.003 -1.688 89.312 C-1.361 88.071 -1.035 86.83 -0.699 85.551 C0.012 81.941 0.127 78.669 0 75 C-2.475 75.495 -2.475 75.495 -5 76 C-7.942 84.43 -10.38 92.907 -12.562 101.562 C-13.146 103.856 -13.731 106.149 -14.316 108.441 C-14.595 109.54 -14.874 110.638 -15.162 111.77 C-16.195 115.753 -17.303 119.713 -18.434 123.669 C-19.232 126.954 -19.358 129.639 -19 133 C-16.435 135.565 -14.523 135.54 -11 136 C-11.647 144.89 -13.87 153.372 -16 162 C-16.708 162.02 -17.416 162.04 -18.145 162.06 C-32.603 162.483 -46.928 163.211 -61.311 164.734 C-64.272 165.027 -67.233 165.27 -70.199 165.504 C-71.239 165.587 -72.279 165.67 -73.351 165.756 C-75.355 165.914 -77.359 166.068 -79.364 166.215 C-87.908 166.724 -87.908 166.724 -95 171 C-95.4 173.323 -95.74 175.657 -96 178 C-107.868 179.621 -114.7 175.581 -124 169 C-124.572 168.6 -125.144 168.2 -125.733 167.789 C-128.868 165.586 -131.954 163.324 -135 161 C-134.319 157.671 -133.078 154.96 -131.516 151.949 C-130.741 150.455 -130.741 150.455 -129.952 148.93 C-129.39 147.86 -128.829 146.79 -128.25 145.688 C-127.667 144.571 -127.083 143.455 -126.482 142.304 C-121.638 133.093 -116.568 124.024 -111.406 114.988 C-106.957 107.196 -102.625 99.34 -98.288 91.485 C-94.761 85.114 -91.144 78.819 -87.372 72.59 C-85.611 69.265 -85.085 66.732 -85 63 C-87.381 62.694 -87.381 62.694 -90 63 C-91.654 64.486 -91.654 64.486 -92.844 66.664 C-93.348 67.488 -93.852 68.312 -94.371 69.161 C-94.909 70.098 -95.446 71.035 -96 72 C-96.589 73.022 -97.178 74.044 -97.785 75.097 C-99.718 78.508 -101.614 81.938 -103.5 85.375 C-104.457 87.108 -104.457 87.108 -105.434 88.875 C-109.313 95.904 -113.162 102.948 -117 110 C-121.697 108.293 -124.758 105.746 -128.312 102.312 C-129.458 101.23 -130.603 100.148 -131.75 99.066 C-132.303 98.542 -132.856 98.017 -133.426 97.477 C-136.536 94.559 -139.764 91.776 -143 89 C-141.492 85.445 -139.424 83.204 -136.676 80.516 C-135.379 79.236 -135.379 79.236 -134.057 77.93 C-133.151 77.045 -132.246 76.161 -131.312 75.25 C-124.292 68.431 -124.292 68.431 -117.691 61.215 C-112.877 55.598 -107.642 50.381 -102.431 45.135 C-101.226 43.919 -100.026 42.699 -98.83 41.473 C-86.177 28.51 -86.177 28.51 -78 25 C-77.01 24.505 -77.01 24.505 -76 24 C-74.257 23.903 -72.511 23.869 -70.766 23.867 C-69.192 23.865 -69.192 23.865 -67.586 23.863 C-66.485 23.867 -65.384 23.871 -64.25 23.875 C-63.165 23.871 -62.079 23.867 -60.961 23.863 C-59.379 23.865 -59.379 23.865 -57.766 23.867 C-56.804 23.868 -55.843 23.869 -54.853 23.871 C-51.834 24.008 -48.971 24.459 -46 25 C-40.591 25.517 -36.647 25.134 -32 22 C-28.869 18.087 -28.058 13.804 -27 9 C-26.129 8.853 -25.257 8.706 -24.359 8.555 C-16.52 7.078 -10.275 5.032 -3.23 1.207 C-1 0 -1 0 0 0 Z " fill="#FEFEFE" transform="translate(722,408)"/>
<path d="M0 0 C0.66 0 1.32 0 2 0 C2.004 0.888 2.004 0.888 2.008 1.793 C2.184 6.512 2.184 6.512 4.227 10.641 C6.57 12.635 8.866 13.951 11.75 15 C12.864 15.495 12.864 15.495 14 16 C14.247 16.825 14.495 17.65 14.75 18.5 C15.163 19.325 15.575 20.15 16 21 C18.062 21.614 18.062 21.614 20.438 21.938 C22.883 22.344 22.883 22.344 25 23 C26.812 25.938 26.812 25.938 28 29 C33.6 34.075 40.212 33.502 47.401 33.201 C62.635 32.297 62.635 32.297 77 28 C79.298 27.691 81.597 27.491 83.906 27.281 C86.054 27.108 86.054 27.108 88 26 C89.667 25.916 91.338 25.893 93.008 25.902 C93.994 25.906 94.98 25.909 95.996 25.912 C97.029 25.92 98.061 25.929 99.125 25.938 C100.685 25.944 100.685 25.944 102.277 25.951 C104.852 25.963 107.426 25.979 110 26 C110.049 26.964 110.098 27.928 110.148 28.922 C110.261 30.817 110.261 30.817 110.375 32.75 C110.479 34.629 110.479 34.629 110.586 36.547 C111.021 40.609 111.021 40.609 113 44 C118.591 48.113 125.221 47.556 131.875 47.688 C133.04 47.722 134.206 47.756 135.406 47.791 C138.271 47.873 141.135 47.942 144 48 C144 48.66 144 49.32 144 50 C143.01 50.66 142.02 51.32 141 52 C146.547 57.639 152.085 63.186 158.105 68.324 C160.158 70.14 162.077 72.048 164 74 C167.117 77.16 170.344 80.106 173.711 82.996 C177.194 86.045 180.579 89.2 183.964 92.357 C186.762 94.982 186.762 94.982 190 97 C184.178 112.37 172.554 127.023 157.484 133.973 C146.911 138.345 137.286 139.187 125.9 139.185 C123.666 139.187 121.433 139.206 119.199 139.225 C93.258 139.329 73.824 133.434 55 115 C54.281 114.296 53.562 113.593 52.822 112.868 C50.436 110.523 48.06 108.17 45.688 105.812 C44.935 105.065 44.182 104.317 43.406 103.546 C39.341 99.468 35.449 95.302 31.691 90.94 C28.879 87.714 25.935 84.614 23 81.5 C18.862 77.09 14.769 72.662 10.828 68.074 C8.826 65.802 6.767 63.59 4.701 61.377 C-0.51 55.791 -5.486 50.114 -10.258 44.145 C-11.972 41.96 -11.972 41.96 -14 40 C-13.775 29.896 -7.99 19.899 -4.137 10.746 C-2.667 7.195 -1.319 3.61 0 0 Z " fill="#FEFEFE" transform="translate(519,594)"/>
<path d="M0 0 C45.21 0 90.42 0 137 0 C137 8.779 136.922 16.797 135.75 25.375 C135.617 26.387 135.484 27.398 135.348 28.441 C133.398 42.932 131.333 57.528 127.77 71.723 C127.147 74.376 126.62 77.004 126.137 79.684 C124.215 90.106 122.35 97.911 114.438 105.438 C109.445 108.638 105.49 109.256 99.567 109.291 C98.471 109.301 98.471 109.301 97.352 109.311 C94.946 109.33 92.54 109.334 90.133 109.336 C88.453 109.342 86.773 109.349 85.093 109.356 C81.574 109.368 78.055 109.372 74.537 109.371 C70.039 109.37 65.541 109.398 61.043 109.432 C57.574 109.454 54.105 109.458 50.635 109.457 C48.978 109.46 47.32 109.469 45.662 109.484 C43.338 109.504 41.016 109.498 38.692 109.486 C37.372 109.489 36.053 109.492 34.693 109.494 C28.989 108.731 24.438 106.14 20.75 101.625 C20.291 101.081 19.832 100.537 19.359 99.977 C15.664 94.604 14.052 89.064 12.562 82.812 C12.35 81.94 12.138 81.068 11.919 80.17 C8.799 67.211 6.004 54.181 4 41 C3.75 39.404 3.5 37.807 3.25 36.211 C1.363 24.042 0 12.371 0 0 Z " fill="#FEFEFE" transform="translate(84,692)"/>
<path d="M0 0 C-2.031 7.041 -4.339 13.939 -6.844 20.824 C-7.21 21.837 -7.576 22.85 -7.952 23.894 C-9.133 27.159 -10.316 30.423 -11.5 33.688 C-13.128 38.184 -14.754 42.682 -16.379 47.18 C-16.978 48.837 -16.978 48.837 -17.59 50.528 C-19.931 57.011 -22.248 63.503 -24.527 70.008 C-24.784 70.738 -25.04 71.467 -25.304 72.219 C-26.456 75.502 -27.601 78.787 -28.738 82.075 C-29.133 83.201 -29.527 84.328 -29.934 85.488 C-30.429 86.92 -30.429 86.92 -30.935 88.38 C-32.799 92.965 -34.494 96.142 -38.902 98.551 C-39.696 98.994 -40.49 99.437 -41.308 99.893 C-42.176 100.361 -43.044 100.83 -43.938 101.312 C-45.835 102.368 -47.732 103.424 -49.629 104.48 C-50.651 105.044 -51.674 105.608 -52.727 106.189 C-91.648 127.042 -91.648 127.042 -120.25 159.875 C-127.056 171.093 -127.056 171.093 -131.812 173.312 C-139.778 172.532 -145.704 163.162 -150.865 157.543 C-157.456 150.407 -164.359 143.587 -171.272 136.765 C-175.78 132.299 -180.123 127.792 -184.25 122.972 C-187.651 119.139 -191.347 115.591 -195 112 C-200.017 107.067 -204.877 102.097 -209.463 96.759 C-211.436 94.501 -213.537 92.401 -215.688 90.312 C-222.393 83.63 -222.393 83.63 -224 81 C-223.841 77.577 -223.437 76.437 -221 74 C-215.714 74.142 -212.852 76.366 -209.125 79.812 C-202.374 85.783 -195.28 91.171 -188.023 96.509 C-186.021 97.984 -184.028 99.47 -182.035 100.957 C-162.781 115.396 -162.781 115.396 -139.352 117.758 C-126.337 115.746 -119.44 107.513 -111.559 97.862 C-109.021 94.83 -106.328 91.948 -103.625 89.062 C-100.454 85.672 -97.335 82.265 -94.375 78.688 C-93.591 77.801 -92.808 76.914 -92 76 C-91.34 76 -90.68 76 -90 76 C-89.617 75.13 -89.617 75.13 -89.227 74.241 C-87.873 71.767 -86.366 70.123 -84.367 68.137 C-83.643 67.414 -82.918 66.692 -82.172 65.947 C-81.414 65.202 -80.656 64.456 -79.875 63.688 C-78.773 62.586 -78.773 62.586 -77.648 61.463 C-73.467 57.314 -69.18 53.349 -64.719 49.503 C-62.718 47.754 -60.846 45.912 -59 44 C-55.829 40.786 -52.544 37.782 -49.121 34.84 C-46.775 32.805 -44.483 30.717 -42.188 28.625 C-37.469 24.372 -32.607 20.332 -27.663 16.345 C-25.721 14.774 -23.786 13.194 -21.852 11.613 C-20.401 10.43 -18.951 9.246 -17.5 8.062 C-16.805 7.494 -16.11 6.926 -15.394 6.341 C-14.738 5.807 -14.082 5.273 -13.406 4.723 C-12.822 4.246 -12.237 3.769 -11.635 3.278 C-7.503 0.049 -5.188 -0.196 0 0 Z " fill="#FEFEFE" transform="translate(443,546)"/>
<path d="M0 0 C-0.093 1.042 -0.186 2.083 -0.281 3.156 C-0.984 14.531 0.9 23.836 8 33 C10.631 35.728 13.464 38.135 16.518 40.376 C20.317 43.165 22.267 45.61 24 50 C24 50.66 24 51.32 24 52 C27.206 51.657 27.975 51.029 30.125 48.5 C30.744 47.675 31.362 46.85 32 46 C35.935 44.032 40.711 44.536 45 45 C48.002 46.801 49.452 47.903 51 51 C52.028 58.636 50.527 64.758 46 71 C39.327 77.528 33.143 80.07 24 81 C23.625 82.123 23.25 83.246 22.863 84.402 C17.401 100.502 10.754 114.584 -5 123 C-5.762 123.413 -6.524 123.825 -7.309 124.25 C-17.043 128.624 -29.325 128.569 -39.605 126.152 C-50.708 121.915 -59.172 114.266 -65 104 C-65.508 103.126 -66.016 102.252 -66.539 101.352 C-75.156 83.396 -70.219 58.658 -64.93 40.281 C-63.732 36.053 -63.166 31.822 -62.562 27.477 C-62.377 26.659 -62.191 25.842 -62 25 C-59.043 23.522 -56.258 23.94 -53 24 C-53.784 24.516 -54.567 25.031 -55.375 25.562 C-58.556 28.516 -59.115 30.816 -60 35 C-59.359 34.7 -58.719 34.399 -58.059 34.09 C-52.675 31.723 -48.874 30.202 -43 32 C-41.062 33.062 -41.062 33.062 -40 35 C-39.45 40.592 -39.783 44.227 -43 49 C-46.288 52.704 -48.71 54.803 -53.688 55.562 C-57.099 54.983 -58.466 54.253 -61 52 C-61.66 52 -62.32 52 -63 52 C-62.477 54.763 -61.891 57.326 -61 60 C-57.04 60.66 -53.08 61.32 -49 62 C-50.042 65.286 -51.171 68.368 -52.625 71.5 C-54.019 75.048 -54.513 77.24 -54 81 C-51.987 83.967 -49.394 85.041 -46 86 C-42.992 86.157 -40.009 86.118 -37 86 C-36.34 84.68 -35.68 83.36 -35 82 C-36.896 80.104 -40.295 80.634 -42.871 80.477 C-45 80 -45 80 -47 77 C-46.566 75.082 -46.566 75.082 -45.562 72.812 C-45.184 71.935 -44.805 71.057 -44.414 70.152 C-43.947 69.112 -43.481 68.072 -43 67 C-42.116 64.992 -41.236 62.982 -40.357 60.971 C-39.759 59.608 -39.157 58.246 -38.551 56.886 C-33.413 45.89 -33.413 45.89 -33 34 C-35.03 30.085 -37.154 27.198 -41 25 C-43.313 24.267 -45.646 23.589 -48 23 C-44.464 21.015 -40.834 20.078 -36.938 19 C-30.239 17.014 -24.122 14.304 -17.938 11.062 C-17.153 10.656 -16.369 10.249 -15.56 9.83 C-11.011 7.374 -7.189 4.671 -3.412 1.135 C-2 0 -2 0 0 0 Z " fill="#FEFEFE" transform="translate(716,282)"/>
<path d="M0 0 C17.08 -0.543 32.709 1.955 49 7 C49.373 14.87 47.962 22.453 46.688 30.188 C46.221 33.066 45.759 35.945 45.297 38.824 C45.183 39.532 45.069 40.239 44.951 40.968 C44.153 45.948 43.442 50.935 42.779 55.935 C39.242 82.517 39.242 82.517 33 89 C31 90.328 31 90.328 29 91.25 C28.34 91.565 27.68 91.879 27 92.203 C22.329 94.064 17.937 94.143 12.949 94.129 C11.736 94.132 11.736 94.132 10.499 94.135 C7.823 94.139 5.148 94.136 2.473 94.133 C0.604 94.133 -1.265 94.134 -3.134 94.136 C-7.057 94.137 -10.98 94.135 -14.904 94.13 C-19.9 94.125 -24.896 94.128 -29.892 94.134 C-33.757 94.138 -37.622 94.136 -41.487 94.134 C-43.327 94.133 -45.166 94.134 -47.006 94.136 C-57.059 94.146 -66.988 93.997 -77 93 C-76.094 86.402 -76.094 86.402 -75.484 83.805 C-73.375 71.589 -75.081 59.436 -78.125 47.562 C-79 44 -79 44 -79 41 C-58.793 38.517 -38.553 36.844 -18.188 36.688 C-16.96 36.67 -15.732 36.652 -14.468 36.634 C-8.484 36.638 -4.21 36.742 1 40 C4.251 40.252 4.251 40.252 7 40 C7.334 37.626 7.334 37.626 7 35 C3.876 31.616 -0.757 30.485 -5 29 C-4.574 22.365 -3.398 16.209 -1.699 9.785 C-0.88 6.523 -0.379 3.338 0 0 Z " fill="#FEFEFE" transform="translate(720,541)"/>
<path d="M0 0 C2.544 2.442 4.895 5.003 7.199 7.668 C10.8 11.796 14.499 15.821 18.25 19.812 C19.225 20.852 19.225 20.852 20.219 21.912 C24.859 26.84 29.59 31.651 34.438 36.375 C36.427 38.413 38.277 40.465 40.125 42.625 C44.804 48.023 49.917 52.988 55 58 C60.649 63.57 66.231 69.135 71.391 75.168 C74.09 78.241 77.014 81.081 79.938 83.938 C81.983 85.938 84.001 87.953 86 90 C86 90.33 86 90.66 86 91 C84.579 91.006 84.579 91.006 83.129 91.012 C79.569 91.04 76.01 91.089 72.45 91.153 C70.918 91.176 69.386 91.19 67.854 91.196 C56.564 91.243 47.542 92.238 39.188 100.562 C27.961 114.522 28.741 133.429 30.202 150.34 C31.133 157.333 33.533 162.707 37.793 168.293 C39 170 39 170 39 172 C26.13 172 13.26 172 0 172 C1.263 168.843 2.4 166.177 3.996 163.262 C6.203 158.898 7.18 154.597 8.062 149.812 C8.393 148.126 8.725 146.44 9.059 144.754 C9.217 143.939 9.375 143.125 9.539 142.286 C10.151 139.253 10.884 136.254 11.625 133.25 C12.971 127.519 13.749 121.789 14.469 115.949 C15.028 111.792 15.743 107.687 16.5 103.562 C19.319 87.805 21.183 72.046 20 56 C18.174 54.174 15.283 54.827 12.828 54.795 C12.184 54.785 11.54 54.775 10.877 54.765 C8.739 54.733 6.602 54.708 4.465 54.684 C2.987 54.663 1.508 54.642 0.03 54.621 C-3.868 54.565 -7.766 54.516 -11.664 54.468 C-15.639 54.418 -19.613 54.362 -23.588 54.307 C-31.392 54.199 -39.196 54.098 -47 54 C-43.933 50.9 -40.896 48.032 -37.438 45.375 C-21.413 32.665 -9.009 18.488 0 0 Z " fill="#FEFEFE" transform="translate(209,628)"/>
<path d="M0 0 C7.302 0.6 14.429 1.703 21.625 3.062 C22.629 3.249 23.633 3.435 24.668 3.627 C27.113 4.081 29.557 4.539 32 5 C31.711 6.501 31.419 8 31.125 9.5 C30.963 10.335 30.8 11.171 30.633 12.031 C30.149 14.301 29.568 16.551 28.945 18.786 C27.832 23.194 27.738 27.391 27.762 31.918 C27.746 33.601 27.73 35.284 27.713 36.967 C27.696 39.587 27.688 42.207 27.695 44.827 C27.697 47.379 27.669 49.929 27.637 52.48 C27.647 53.261 27.657 54.041 27.668 54.845 C27.596 58.837 27.175 60.773 24.71 63.97 C20.393 67.204 17.244 67.117 11.934 67.141 C-2.806 67.335 -16.023 68.239 -30 73 C-31.787 73.592 -31.787 73.592 -33.609 74.195 C-35.979 74.99 -38.346 75.791 -40.711 76.598 C-46.35 78.472 -52.044 80.155 -57.75 81.812 C-58.792 82.127 -59.833 82.441 -60.907 82.765 C-67.752 84.721 -73.891 85.403 -81 85 C-81.647 83.212 -81.647 83.212 -82 81 C-78.829 74.848 -72.421 71.46 -66.625 68.188 C-64.837 67.143 -63.049 66.097 -61.262 65.051 C-60.375 64.537 -59.489 64.024 -58.576 63.495 C-48.77 57.805 -39.619 52.238 -31.43 44.324 C-29 42 -29 42 -25.996 39.57 C-14.008 29.286 -6.888 13.915 0 0 Z " fill="#FEFEFE" transform="translate(415,704)"/>
<path d="M0 0 C3.277 1.092 3.923 1.799 6.062 4.375 C9.939 8.959 13.988 13.367 18.059 17.777 C20 20 20 20 20 21 C12.08 21.33 4.16 21.66 -4 22 C-4 23.65 -4 25.3 -4 27 C-2.9 28.328 -2.9 28.328 -0.152 28.094 C1.722 28.082 1.722 28.082 3.633 28.07 C5.01 28.079 6.388 28.089 7.766 28.102 C9.939 28.118 12.109 28.125 14.282 28.1 C26.326 27.978 26.326 27.978 30.446 30.493 C32.204 32.24 33.594 33.965 35 36 C36.01 37.176 37.03 38.344 38.062 39.5 C38.636 40.164 39.21 40.828 39.801 41.512 C47.879 50.651 56.305 59.461 65.086 67.926 C67 70 67 70 67 72 C67.639 72.289 68.279 72.577 68.938 72.875 C71 74 71 74 72 76 C33.06 76 -5.88 76 -46 76 C-45.34 73.69 -44.68 71.38 -44 69 C-42.964 68.974 -41.927 68.948 -40.859 68.922 C-39.49 68.866 -38.12 68.808 -36.75 68.75 C-36.068 68.736 -35.386 68.722 -34.684 68.707 C-31.472 68.551 -29.441 68.358 -26.911 66.301 C-24.804 63.764 -23.859 61.68 -22.754 58.578 C-22.333 57.425 -21.911 56.272 -21.477 55.084 C-21.245 54.438 -21.013 53.792 -20.773 53.127 C-19.28 49.02 -17.708 44.943 -16.152 40.859 C-15.457 39.029 -14.763 37.198 -14.068 35.367 C-13.718 34.444 -13.368 33.521 -13.007 32.569 C-12.291 30.683 -11.577 28.796 -10.863 26.909 C-9.816 24.142 -8.766 21.375 -7.715 18.609 C-7.401 17.778 -7.088 16.946 -6.764 16.09 C-4.69 10.64 -2.421 5.305 0 0 Z " fill="#FEFEFE" transform="translate(500,643)"/>
<path d="M0 0 C-0.165 0.887 -0.33 1.774 -0.5 2.688 C-1.845 12.319 -2.593 24.611 3 33 C3.99 33 4.98 33 6 33 C6.33 31.35 6.66 29.7 7 28 C7.247 28.516 7.495 29.031 7.75 29.562 C8.163 30.367 8.575 31.171 9 32 C9.516 33.072 10.031 34.145 10.562 35.25 C13.379 40.15 17.706 43.429 22 47 C32.463 55.803 41.203 64.489 42.527 78.668 C43.893 95.218 43.893 95.218 40.438 100.375 C39.334 101.622 38.188 102.833 37 104 C35.955 105.31 34.914 106.623 33.875 107.938 C31.815 110.399 29.937 111.695 27 113 C26.781 111.851 26.562 110.703 26.336 109.52 C23.384 94.783 19.868 82.15 7 73 C3.713 71.233 0.366 69.609 -3 68 C-3.666 67.642 -4.333 67.283 -5.02 66.914 C-7.227 65.895 -9.235 65.436 -11.625 65 C-12.495 64.834 -13.365 64.667 -14.262 64.496 C-16.096 64.164 -17.932 63.844 -19.77 63.535 C-21.09 63.301 -21.09 63.301 -22.438 63.062 C-23.241 62.93 -24.044 62.797 -24.871 62.66 C-27.435 61.865 -28.47 61.21 -30 59 C-30.328 56.406 -30.328 56.406 -30.25 53.5 C-30.235 52.541 -30.219 51.582 -30.203 50.594 C-30 48 -30 48 -29 45 C-28.974 43.042 -28.954 41.083 -28.938 39.125 C-28.466 32.152 -25.935 27.986 -22.074 22.289 C-18.305 16.312 -16.223 9.669 -14 3 C-11.348 1.797 -11.348 1.797 -8.062 0.75 C-6.44 0.216 -6.44 0.216 -4.785 -0.328 C-2 -1 -2 -1 0 0 Z " fill="#9FA0A0" transform="translate(759,367)"/>
<path d="M0 0 C-1.841 8.528 -4.552 16.516 -7.695 24.629 C-9.548 29.416 -10.445 32.834 -10 38 C-7.158 43.21 -3.394 44.292 2 46 C1.425 47.69 0.84 49.377 0.25 51.062 C-0.075 52.002 -0.4 52.942 -0.734 53.91 C-2 57 -2 57 -6 64 C-30.42 64 -54.84 64 -80 64 C-75.205 55.78 -70.683 48.463 -65 41 C-64.257 39.969 -63.515 38.938 -62.75 37.875 C-53.497 28.201 -41.523 22.079 -29.948 15.644 C-25.761 13.309 -21.592 10.941 -17.421 8.575 C-14.445 6.888 -11.467 5.202 -8.488 3.52 C-7.669 3.057 -6.849 2.594 -6.005 2.116 C-2.204 0 -2.204 0 0 0 Z " fill="#FEFEFE" transform="translate(404,655)"/>
<path d="M0 0 C0.33 0 0.66 0 1 0 C1.004 1.905 1.004 1.905 1.008 3.848 C1.263 19.136 4.172 31.772 14 44 C14.476 44.599 14.951 45.199 15.441 45.816 C24.136 55.557 36.625 60.141 49 63 C48.125 67.75 48.125 67.75 47 70 C45.125 70.027 43.25 70.047 41.375 70.062 C40.331 70.074 39.287 70.086 38.211 70.098 C35 70 35 70 32.145 69.516 C18.56 67.288 6.332 68.615 -5.25 76.312 C-9.08 79.13 -12.419 82.208 -15.625 85.715 C-17 87 -17 87 -19 87 C-24.563 76.396 -24.913 62.881 -22.117 51.363 C-20.947 48.398 -19.615 45.747 -18 43 C-17.481 42.072 -16.961 41.144 -16.426 40.188 C-13.466 35.221 -10.49 31.534 -6.188 27.688 C0.733 20.496 -0.207 9.427 0 0 Z " fill="#E2E3E2" transform="translate(637,355)"/>
<path d="M0 0 C0.99 0.33 1.98 0.66 3 1 C4.367 36.623 -5.739 72.639 -17.812 105.938 C-18.102 106.743 -18.392 107.549 -18.691 108.378 C-20.75 113.875 -20.75 113.875 -23 115 C-33.179 94.642 -24.75 51.724 -18.188 31.375 C-14.09 19.559 -8.228 9.468 0 0 Z " fill="#FEFEFE" transform="translate(174,558)"/>
<path d="M0 0 C6.522 0.167 10.323 3.899 15 8 C15.723 8.628 16.446 9.256 17.191 9.902 C34.857 26.367 48.567 52.671 54 76 C53.67 76.66 53.34 77.32 53 78 C42.219 70.718 32.197 63.219 23 54 C22.169 53.18 21.337 52.36 20.48 51.516 C10.722 41.341 5.101 29.341 1 16 C0.794 15.337 0.588 14.675 0.375 13.992 C-0.146 11.226 -0.093 8.561 -0.062 5.75 C-0.049 4.134 -0.049 4.134 -0.035 2.484 C-0.024 1.665 -0.012 0.845 0 0 Z " fill="#FEFEFE" transform="translate(87,604)"/>
<path d="M0 0 C13.694 -0.084 27.373 0.181 41.062 0.5 C43.201 0.548 45.34 0.597 47.479 0.645 C52.652 0.761 57.826 0.88 63 1 C62.689 2.441 62.375 3.882 62.061 5.323 C61.886 6.125 61.712 6.928 61.532 7.754 C58.8 19.28 52.115 30.359 47 41 C43.512 41 43.247 40.635 40.848 38.324 C40.242 37.749 39.636 37.173 39.012 36.58 C38.047 35.643 38.047 35.643 37.062 34.688 C35.709 33.398 34.355 32.109 33 30.82 C32.326 30.175 31.652 29.529 30.957 28.864 C28.19 26.229 25.383 23.64 22.562 21.062 C21.116 19.74 21.116 19.74 19.641 18.391 C16.133 15.215 12.573 12.102 9 9 C7.33 7.545 5.664 6.087 4 4.625 C3.237 3.957 2.474 3.29 1.688 2.602 C1.131 2.073 0.574 1.545 0 1 C0 0.67 0 0.34 0 0 Z " fill="#FEFEFE" transform="translate(667,643)"/>
<path d="M0 0 C4.965 1.494 7.929 4.421 11.562 7.938 C16.555 12.734 16.555 12.734 22 17 C21.389 21.717 19.371 25.556 17.184 29.707 C16.808 30.432 16.432 31.158 16.044 31.905 C14.848 34.211 13.643 36.512 12.438 38.812 C11.622 40.379 10.808 41.946 9.994 43.514 C8.003 47.346 6.003 51.174 4 55 C3.266 54.701 2.532 54.401 1.775 54.093 C0.126 53.443 -1.538 52.828 -3.226 52.29 C-10.42 49.73 -13.037 45.279 -16.562 38.75 C-17.094 37.814 -17.626 36.878 -18.174 35.914 C-19.472 33.621 -20.746 31.318 -22 29 C-17.696 27.689 -14.063 28.542 -9.75 29.438 C-8.632 29.659 -8.632 29.659 -7.492 29.885 C-5.66 30.249 -3.83 30.623 -2 31 C-5.209 27.606 -8.262 25.01 -12.312 22.688 C-13.196 22.176 -14.079 21.664 -14.988 21.137 C-15.652 20.762 -16.316 20.386 -17 20 C-11.878 12.801 -6.028 6.436 0 0 Z " fill="#FEFEFE" transform="translate(577,508)"/>
<path d="M0 0 C0 2.97 0 5.94 0 9 C1.597 8.892 1.597 8.892 3.227 8.781 C12.505 8.179 21.699 7.867 31 8 C22.823 14.69 16.617 16.646 6 17 C6 18.65 6 20.3 6 22 C13.717 22.375 20.327 21.59 27.797 19.668 C32.553 18.676 37.168 18.739 42 19 C42 19.66 42 20.32 42 21 C34.509 25.298 27.451 28.896 18.918 30.57 C16.929 30.935 16.929 30.935 15 32 C15.33 32.99 15.66 33.98 16 35 C24.31 35.319 31.298 35.255 39 32 C42.767 30.65 44.953 30 49 30 C46.141 36.377 41.173 39.729 34.812 42.312 C28.183 44.787 20.616 47.089 13.816 44.012 C8.14 40.083 4.661 34.742 1 29 C0.103 27.68 -0.795 26.361 -1.695 25.043 C-2.632 23.634 -3.567 22.224 -4.5 20.812 C-4.958 20.148 -5.416 19.483 -5.888 18.797 C-8.169 15.263 -9.01 13.552 -8.93 9.227 C-7.566 4.493 -5.464 0 0 0 Z " fill="#F1F2F2" transform="translate(423,490)"/>
<path d="M0 0 C0.65 14.784 -8.53 31.133 -18.24 41.999 C-22.047 46.11 -26.038 50.038 -30 54 C-30.608 54.632 -31.217 55.263 -31.844 55.914 C-35.006 59.181 -37.91 61.893 -42 64 C-37.809 40.532 -25.096 15.717 -7 0 C-4.333 -1.333 -2.833 -0.671 0 0 Z " fill="#FEFEFE" transform="translate(206,605)"/>
<path d="M0 0 C2.816 0 4.511 0.558 6.605 2.453 C7.776 3.685 8.945 4.918 10.113 6.152 C16.58 12.485 23.995 15.004 32.938 15.5 C44.117 15.307 55.028 10.971 63.105 3.223 C65 2 65 2 67.738 2.309 C68.858 2.651 68.858 2.651 70 3 C69.58 7.898 67.686 9.863 64 13 C61.441 14.896 58.794 16.474 56 18 C55.181 18.471 54.363 18.941 53.52 19.426 C46.951 22.715 41.045 23.465 33.812 23.5 C32.981 23.506 32.15 23.512 31.294 23.519 C22.873 23.348 15.963 21.224 9.188 16.125 C7.848 15.139 7.848 15.139 6.48 14.133 C2.861 11.021 0.357 8.428 -0.812 3.75 C-0.874 2.842 -0.936 1.935 -1 1 C-0.67 0.67 -0.34 0.34 0 0 Z " fill="#0A0A0A" transform="translate(664,437)"/>
<path d="M0 0 C2.477 1.897 4.715 3.868 7 6 C6.67 6.66 6.34 7.32 6 8 C4.389 7.169 4.389 7.169 2.746 6.32 C1.31 5.588 -0.126 4.856 -1.562 4.125 C-2.267 3.76 -2.971 3.395 -3.697 3.02 C-15.464 -2.945 -30.016 -4.472 -42.941 -1.16 C-54.998 3.149 -66.283 11.601 -72.602 22.852 C-76.009 30.218 -77.726 37.35 -75.301 45.289 C-73.158 50.118 -70.236 52.92 -66 56 C-67.485 56.495 -67.485 56.495 -69 57 C-75.86 53.205 -79.498 48.38 -82 41 C-83.269 30.3 -78.651 20.823 -72.199 12.535 C-53.731 -8.754 -24.28 -15.554 0 0 Z " fill="#E2E3E2" transform="translate(703,241)"/>
<path d="M0 0 C1.65 0 3.3 0 5 0 C6.318 3.624 6.042 4.906 4.438 8.5 C1.143 13.714 -3.122 17.032 -9 19 C-14.336 19.668 -18.717 19.597 -23.625 17.312 C-26.208 14.797 -26.803 13.551 -27 10 C-25.25 9.375 -25.25 9.375 -23 9 C-22.076 9.472 -22.076 9.472 -21.133 9.953 C-17.511 11.731 -13.94 11.541 -10 11 C-4.574 8.441 -2.588 5.177 0 0 Z " fill="#0A0A0A" transform="translate(699,367)"/>
<path d="M0 0 C9.218 6.158 15.163 14.36 18.477 24.977 C19.079 28.285 18.88 31.531 18.824 34.887 C18.164 34.887 17.504 34.887 16.824 34.887 C16.677 34.064 16.53 33.242 16.379 32.395 C14.329 22.192 11.043 14.024 2.926 7.238 C-3.543 3.078 -8.436 1.277 -16.176 1.574 C-16.931 1.584 -17.687 1.594 -18.465 1.604 C-23.427 1.702 -28.262 2.2 -33.176 2.887 C-22.971 -6.081 -11.78 -6.606 0 0 Z " fill="#E2E3E2" transform="translate(759.17578125,249.11328125)"/>
<path d="M0 0 C2.83 0.283 3.82 0.801 5.75 2.938 C7 5 7 5 7 7 C10.073 7.847 12.814 8.306 16 8 C18.395 6.403 20.214 4.668 22.176 2.566 C24 1 24 1 28 1 C27.756 5.151 27.435 7.454 24.812 10.75 C20.84 13.928 17.673 15.721 12.625 16.562 C7.691 15.797 4.501 13.509 1 10 C-0.881 6.86 -1.297 4.667 -1 1 C-0.67 0.67 -0.34 0.34 0 0 Z " fill="#0A0A0A" transform="translate(688,333)"/>
<path d="M0 0 C6.756 0.082 11.032 1.887 15.938 6.5 C17.938 9.5 17.938 9.5 17.562 12.188 C17.253 13.332 17.253 13.332 16.938 14.5 C13.486 14.895 12.236 14.718 9.375 12.625 C8.571 11.924 7.766 11.223 6.938 10.5 C3.85 8.649 1.259 8.157 -2.312 7.875 C-3.205 7.8 -4.097 7.725 -5.016 7.648 C-6.029 7.575 -6.029 7.575 -7.062 7.5 C-7.688 5.125 -7.688 5.125 -8.062 2.5 C-5.36 -0.203 -3.778 0.106 0 0 Z " fill="#0A0A0A" transform="translate(701.0625,309.5)"/>
<path d="M0 0 C0.33 0.66 0.66 1.32 1 2 C4.3 2 7.6 2 11 2 C11 2.33 11 2.66 11 3 C10.117 3.026 9.234 3.052 8.324 3.078 C-4.814 3.699 -13.612 7.019 -24 15 C-25.32 15.99 -26.64 16.98 -28 18 C-28.99 14.7 -29.98 11.4 -31 8 C-30.34 8 -29.68 8 -29 8 C-29 8.99 -29 9.98 -29 11 C-28.216 10.67 -27.433 10.34 -26.625 10 C-24 9 -24 9 -22 9 C-21.627 8.06 -21.627 8.06 -21.246 7.102 C-19.354 3.911 -17.09 3.681 -13.664 2.66 C-9.149 1.541 -4.592 0.73 0 0 Z " fill="#AFAFAE" transform="translate(651,420)"/>
<path d="M0 0 C2.335 0.326 4.667 0.66 7 1 C8.085 1.157 9.171 1.315 10.289 1.477 C11.452 1.649 12.615 1.822 13.812 2 C15.493 2.248 15.493 2.248 17.207 2.5 C20 3 20 3 22 4 C22 4.66 22 5.32 22 6 C17.356 8.322 11.054 7.424 6 7 C3.152 6.005 2.142 5.205 0 3 C0 2.01 0 1.02 0 0 Z " fill="#141414" transform="translate(689,437)"/>
<path d="M0 0 C-3.604 3.905 -7.729 6.868 -12 10 C-12.99 6.7 -13.98 3.4 -15 0 C-14.34 0 -13.68 0 -13 0 C-13 0.99 -13 1.98 -13 3 C-12.397 2.7 -11.793 2.399 -11.172 2.09 C-10.373 1.71 -9.573 1.329 -8.75 0.938 C-7.961 0.555 -7.172 0.172 -6.359 -0.223 C-3.74 -1.086 -2.551 -0.93 0 0 Z " fill="#848383" transform="translate(635,428)"/>
<path d="M0 0 C0.99 0 1.98 0 3 0 C5.697 6.55 7.537 11.885 7 19 C6.34 19 5.68 19 5 19 C4.807 18.131 4.613 17.262 4.414 16.367 C4.154 15.215 3.893 14.062 3.625 12.875 C3.37 11.738 3.115 10.601 2.852 9.43 C2.054 6.216 1.092 3.124 0 0 Z " fill="#E2E3E2" transform="translate(771,265)"/>
<path d="M0 0 C-0.784 0.557 -1.567 1.114 -2.375 1.688 C-5.087 4.077 -5.961 5.601 -7 9 C-7.99 8.67 -8.98 8.34 -10 8 C-9.744 5.657 -9.407 3.322 -9 1 C-6.043 -0.478 -3.258 -0.06 0 0 Z " fill="#D4D4D5" transform="translate(663,306)"/>
<path d="M0 0 C-1.992 2.695 -3.048 3.009 -6.438 3.625 C-7.613 3.749 -8.789 3.873 -10 4 C-11.339 4.309 -12.677 4.629 -14 5 C-14.33 3.35 -14.66 1.7 -15 0 C-14.34 0 -13.68 0 -13 0 C-13 0.99 -13 1.98 -13 3 C-12.397 2.7 -11.793 2.399 -11.172 2.09 C-10.373 1.71 -9.573 1.329 -8.75 0.938 C-7.961 0.555 -7.172 0.172 -6.359 -0.223 C-3.74 -1.086 -2.551 -0.93 0 0 Z " fill="#929292" transform="translate(635,428)"/>
<path d="M0 0 C6.625 -0.125 6.625 -0.125 10 1 C9.125 5.75 9.125 5.75 8 8 C7.34 8 6.68 8 6 8 C6 6.02 6 4.04 6 2 C3.03 1.505 3.03 1.505 0 1 C0 0.67 0 0.34 0 0 Z " fill="#F1F2F2" transform="translate(676,417)"/>
<path d="M0 0 C1.459 0.087 2.918 0.195 4.375 0.312 C5.593 0.4 5.593 0.4 6.836 0.488 C9 1 9 1 11 4 C6.167 4.083 1.763 3.953 -3 3 C-2.01 2.67 -1.02 2.34 0 2 C0 1.34 0 0.68 0 0 Z " fill="#B7B8BA" transform="translate(669,421)"/>
<path d="M0 0 C1.485 0.99 1.485 0.99 3 2 C2.67 2.33 2.34 2.66 2 3 C1.603 5.18 1.257 7.37 0.938 9.562 C0.761 10.76 0.584 11.958 0.402 13.191 C0.27 14.118 0.137 15.045 0 16 C-0.33 16 -0.66 16 -1 16 C-1.027 13.521 -1.047 11.042 -1.062 8.562 C-1.075 7.502 -1.075 7.502 -1.088 6.42 C-1.097 4.613 -1.052 2.806 -1 1 C-0.67 0.67 -0.34 0.34 0 0 Z " fill="#D4D4D5" transform="translate(732,398)"/>
<path d="M0 0 C1.32 0 2.64 0 4 0 C4 1.65 4 3.3 4 5 C2.68 5.33 1.36 5.66 0 6 C-0.66 4.68 -1.32 3.36 -2 2 C-1.34 1.34 -0.68 0.68 0 0 Z " fill="#0A0A0A" transform="translate(646,535)"/>
<path d="M0 0 C1.32 0.66 2.64 1.32 4 2 C3.34 3.32 2.68 4.64 2 6 C0.68 5.67 -0.64 5.34 -2 5 C-1.125 1.125 -1.125 1.125 0 0 Z " fill="#3D3B3F" transform="translate(669,492)"/>
<path d="M0 0 C2.6 3.9 2.151 7.474 2 12 C1.34 12 0.68 12 0 12 C-0.196 10.564 -0.381 9.126 -0.562 7.688 C-0.667 6.887 -0.771 6.086 -0.879 5.262 C-1 3 -1 3 0 0 Z " fill="#AFAFAE" transform="translate(776,272)"/>
<path d="M0 0 C0.66 0.66 1.32 1.32 2 2 C-0.31 4.97 -2.62 7.94 -5 11 C-5.33 10.01 -5.66 9.02 -6 8 C-4.785 5.957 -4.785 5.957 -3.062 3.812 C-2.497 3.097 -1.931 2.382 -1.348 1.645 C-0.903 1.102 -0.458 0.559 0 0 Z " fill="#848383" transform="translate(798,464)"/>
<path d="M0 0 C0.99 0.495 0.99 0.495 2 1 C2 1.66 2 2.32 2 3 C3.32 3.33 4.64 3.66 6 4 C3.525 5.485 3.525 5.485 1 7 C0.67 4.69 0.34 2.38 0 0 Z " fill="#747676" transform="translate(785,473)"/>
</svg>