<svg version="1.1" xmlns="http://www.w3.org/2000/svg" width="1024" height="1024">
<path d="M0 0 C337.92 0 675.84 0 1024 0 C1024 337.92 1024 675.84 1024 1024 C686.08 1024 348.16 1024 0 1024 C0 686.08 0 348.16 0 0 Z " fill="#FEFEFE" transform="translate(0,0)"/>
<path d="M0 0 C0.795 -0.021 1.591 -0.041 2.41 -0.062 C6.833 -0.091 10.47 0.355 14.672 1.77 C20.141 3.568 25.05 3.43 30.75 3.188 C57.319 2.669 78.699 12.956 97.75 31.25 C98.633 32.07 99.516 32.89 100.426 33.734 C128.231 60.32 145.216 100.351 149.812 138.125 C150.432 143.267 150.432 143.267 151.75 148.25 C153.101 157.901 153.065 167.73 153.302 177.459 C153.354 179.526 153.411 181.593 153.469 183.66 C153.514 185.488 153.514 185.488 153.561 187.352 C153.558 190.189 153.558 190.189 154.75 192.25 C155.765 206.26 155.136 219.677 150.438 232.961 C145.573 247.176 143.345 265.187 149.305 279.418 C149.782 280.353 150.259 281.287 150.75 282.25 C151.193 283.137 151.193 283.137 151.646 284.042 C155.879 292.389 160.857 299.938 166.506 307.383 C170.263 312.408 173.535 317.64 176.688 323.062 C177.136 323.827 177.584 324.591 178.046 325.378 C186.444 340.093 191.536 356.669 188.059 373.621 C185.459 382.158 181.169 389.078 174.75 395.25 C174.75 395.91 174.75 396.57 174.75 397.25 C176.34 398.386 176.34 398.386 178.438 399.562 C193.675 409.473 208.473 427.811 212.318 445.927 C212.532 447.077 212.532 447.077 212.75 448.25 C213.756 448.246 214.762 448.243 215.799 448.239 C240.295 448.15 264.792 448.084 289.289 448.043 C301.135 448.022 312.982 447.994 324.828 447.948 C335.155 447.908 345.482 447.883 355.81 447.874 C361.276 447.868 366.743 447.856 372.209 447.827 C377.359 447.8 382.508 447.792 387.658 447.798 C389.544 447.796 391.429 447.789 393.315 447.773 C404.381 447.687 414.006 447.66 423.188 454.688 C428.374 459.874 429.879 464.566 430.125 471.75 C430.004 485.337 425.011 498.656 421.054 511.529 C419.086 517.976 417.356 524.469 415.688 531 C413.878 538.071 411.947 545.047 409.71 551.996 C404.64 567.866 400.527 584.05 396.237 600.143 C394.337 607.215 392.237 614.178 389.992 621.148 C388.406 626.235 387.128 631.401 385.812 636.562 C383.803 644.436 381.58 652.183 379.071 659.91 C375.951 669.588 373.309 679.401 370.598 689.2 C369.317 693.807 368.005 698.404 366.688 703 C366.444 703.852 366.2 704.704 365.949 705.582 C364.725 709.861 363.493 714.139 362.254 718.414 C361.752 720.151 361.251 721.888 360.75 723.625 C360.502 724.486 360.253 725.348 359.998 726.235 C358.423 731.75 356.959 737.285 355.551 742.844 C353.344 751.532 350.988 760.15 348.25 768.688 C347.99 769.533 347.729 770.379 347.461 771.25 C344.173 781.193 338.113 788.282 328.895 793.25 C321.655 796.574 314.545 796.375 306.75 796.25 C306.497 797 306.245 797.75 305.984 798.523 C304.66 801.448 303.427 802.815 301 804.875 C300.345 805.445 299.69 806.015 299.016 806.602 C296.399 808.506 293.654 809.831 290.75 811.25 C291.526 811.253 292.303 811.257 293.103 811.26 C311.972 811.341 330.841 811.433 349.71 811.538 C358.835 811.588 367.96 811.634 377.085 811.672 C385.036 811.705 392.987 811.745 400.938 811.793 C405.15 811.818 409.362 811.84 413.574 811.853 C417.535 811.866 421.496 811.888 425.457 811.917 C426.914 811.926 428.371 811.932 429.828 811.934 C431.811 811.938 433.794 811.954 435.777 811.972 C436.889 811.977 438 811.983 439.146 811.988 C441.75 812.25 441.75 812.25 443.75 814.25 C444 816.75 444 816.75 443.75 819.25 C441.114 821.886 439.958 821.501 436.279 821.502 C435.107 821.507 433.935 821.512 432.728 821.518 C431.426 821.513 430.125 821.509 428.784 821.504 C427.393 821.507 426.001 821.51 424.61 821.514 C420.756 821.523 416.902 821.519 413.049 821.513 C408.867 821.509 404.686 821.516 400.505 821.522 C393.167 821.531 385.829 821.532 378.491 821.529 C367.579 821.523 356.668 821.53 345.756 821.538 C325.137 821.553 304.519 821.555 283.9 821.552 C267.983 821.551 252.066 821.552 236.149 821.557 C233.865 821.557 231.581 821.558 229.298 821.558 C225.857 821.559 222.416 821.56 218.975 821.561 C186.968 821.57 154.96 821.574 122.953 821.57 C121.745 821.57 120.538 821.569 119.293 821.569 C113.172 821.568 107.051 821.568 100.93 821.567 C99.714 821.567 98.498 821.566 97.245 821.566 C94.787 821.566 92.328 821.565 89.869 821.565 C51.604 821.56 13.338 821.568 -24.928 821.586 C-67.881 821.607 -110.834 821.618 -153.787 821.614 C-158.363 821.613 -162.939 821.613 -167.515 821.613 C-169.205 821.612 -169.205 821.612 -170.929 821.612 C-187.973 821.611 -205.016 821.618 -222.059 821.628 C-241.432 821.64 -260.804 821.642 -280.177 821.63 C-291.03 821.623 -301.882 821.625 -312.735 821.638 C-319.973 821.646 -327.211 821.644 -334.449 821.632 C-338.581 821.626 -342.712 821.624 -346.844 821.636 C-350.596 821.646 -354.348 821.643 -358.1 821.629 C-360.099 821.625 -362.097 821.636 -364.095 821.647 C-365.857 821.636 -365.857 821.636 -367.654 821.625 C-368.67 821.625 -369.686 821.625 -370.733 821.625 C-373.25 821.25 -373.25 821.25 -375.111 819.855 C-376.25 818.25 -376.25 818.25 -376.062 816.188 C-375.25 814.25 -375.25 814.25 -373.25 812.25 C-371.208 811.988 -371.208 811.988 -368.644 811.972 C-367.188 811.955 -367.188 811.955 -365.703 811.938 C-364.635 811.936 -363.567 811.933 -362.466 811.931 C-361.344 811.921 -360.222 811.911 -359.066 811.901 C-355.344 811.87 -351.621 811.853 -347.898 811.836 C-345.323 811.817 -342.747 811.798 -340.172 811.777 C-334.077 811.731 -327.982 811.694 -321.887 811.661 C-314.949 811.622 -308.01 811.573 -301.072 811.523 C-286.798 811.419 -272.524 811.33 -258.25 811.25 C-259.072 810.78 -259.894 810.31 -260.741 809.826 C-261.821 809.204 -262.9 808.582 -264.012 807.941 C-265.082 807.327 -266.151 806.713 -267.253 806.08 C-270.956 803.819 -274.04 801.279 -277.125 798.25 C-277.671 797.726 -278.217 797.202 -278.78 796.662 C-280.284 795.204 -281.769 793.73 -283.25 792.25 C-284.194 791.341 -284.194 791.341 -285.156 790.414 C-301.172 773.632 -300.659 749.337 -300.334 727.827 C-299.652 698.91 -290.591 670.113 -282.625 642.5 C-282.348 641.536 -282.071 640.572 -281.785 639.579 C-280.117 633.886 -278.218 628.327 -276.156 622.765 C-274.965 619.458 -274.007 616.136 -273.062 612.75 C-270.798 604.824 -268.234 597.006 -265.625 589.188 C-265.241 588.034 -264.856 586.88 -264.46 585.691 C-262.962 581.225 -261.457 576.771 -259.792 572.364 C-258.287 568.378 -256.879 564.364 -255.492 560.336 C-254.953 558.778 -254.413 557.219 -253.873 555.661 C-253.589 554.843 -253.305 554.024 -253.013 553.181 C-216.638 448.454 -216.638 448.454 -195.25 419.25 C-194.545 418.278 -193.84 417.306 -193.113 416.305 C-186.889 408.228 -177.864 398.262 -168.25 394.25 C-169.526 390.917 -170.985 387.821 -172.688 384.688 C-179.55 370.821 -180.889 353.842 -176.25 339 C-170.414 321.993 -160.573 306.311 -150.373 291.62 C-138.752 274.793 -130.83 256.231 -129.156 235.773 C-129.073 234.781 -128.989 233.788 -128.903 232.765 C-127.999 221.23 -127.832 209.69 -127.688 198.125 C-127.643 194.907 -127.597 191.689 -127.545 188.471 C-127.513 186.496 -127.486 184.52 -127.464 182.545 C-127.4 178.307 -127.224 174.393 -126.25 170.25 C-126.091 168.635 -125.961 167.018 -125.855 165.398 C-124.947 152.717 -123.308 140.591 -120.25 128.25 C-120.087 127.591 -119.925 126.932 -119.757 126.253 C-118.666 121.896 -117.465 117.574 -116.25 113.25 C-115.912 111.951 -115.574 110.651 -115.238 109.352 C-104.515 69.107 -80.303 33.358 -44.078 12.285 C-30.63 4.669 -15.445 0.098 0 0 Z " fill="#040304" transform="translate(478.25,104.75)"/>
<path d="M0 0 C1.595 -0.009 1.595 -0.009 3.222 -0.018 C4.389 -0.014 5.556 -0.01 6.759 -0.006 C8.619 -0.012 8.619 -0.012 10.518 -0.018 C13.963 -0.026 17.409 -0.026 20.854 -0.022 C24.569 -0.019 28.285 -0.028 32 -0.036 C39.279 -0.048 46.558 -0.05 53.838 -0.048 C59.754 -0.046 65.67 -0.048 71.586 -0.052 C72.848 -0.053 72.848 -0.053 74.136 -0.054 C75.845 -0.055 77.554 -0.056 79.264 -0.058 C95.301 -0.068 111.338 -0.066 127.375 -0.06 C142.05 -0.055 156.725 -0.066 171.399 -0.085 C186.463 -0.105 201.526 -0.113 216.589 -0.109 C225.048 -0.107 233.506 -0.11 241.965 -0.124 C249.167 -0.136 256.368 -0.137 263.57 -0.125 C267.244 -0.119 270.919 -0.118 274.593 -0.13 C278.576 -0.143 282.559 -0.132 286.541 -0.12 C287.704 -0.127 288.867 -0.134 290.064 -0.142 C297.422 -0.092 301.809 0.867 307.652 5.567 C311.499 10.663 310.508 17.268 309.777 23.254 C308.814 27.357 307.621 31.321 306.328 35.329 C304.468 41.1 302.948 46.955 301.402 52.817 C298.284 64.522 294.937 76.151 291.51 87.769 C288.972 96.375 286.571 105.006 284.261 113.675 C281.68 123.351 279.012 132.957 275.953 142.493 C274.428 147.37 273.068 152.284 271.717 157.212 C270.156 162.906 268.539 168.582 266.902 174.254 C264.575 182.333 262.377 190.442 260.214 198.567 C258.03 206.764 255.693 214.856 253.093 222.93 C250.93 229.853 249.158 236.894 247.295 243.902 C245.594 250.28 243.797 256.6 241.796 262.891 C240.397 267.506 239.155 272.161 237.902 276.817 C235.893 284.264 233.808 291.68 231.589 299.067 C231.352 299.86 231.114 300.653 230.869 301.47 C224.512 322.464 224.512 322.464 215.777 328.254 C207.486 331.952 199.743 332.836 190.757 332.783 C189.502 332.791 188.246 332.799 186.952 332.808 C183.502 332.83 180.052 332.828 176.602 332.821 C172.868 332.818 169.134 332.839 165.4 332.856 C158.1 332.885 150.8 332.892 143.501 332.891 C137.569 332.89 131.636 332.896 125.704 332.907 C107.042 332.939 88.379 332.948 69.716 332.939 C54.997 332.933 40.277 332.964 25.558 333.011 C10.431 333.059 -4.696 333.081 -19.823 333.076 C-28.31 333.073 -36.798 333.081 -45.286 333.117 C-52.505 333.147 -59.724 333.153 -66.944 333.127 C-70.627 333.115 -74.309 333.113 -77.993 333.143 C-81.984 333.174 -85.974 333.151 -89.965 333.123 C-91.13 333.141 -92.295 333.158 -93.496 333.177 C-101.064 333.061 -101.064 333.061 -104.344 330.779 C-106.039 328.964 -107.271 327.55 -108.223 325.254 C-107.964 323.094 -107.964 323.094 -107.223 321.254 C-105.543 320.133 -105.543 320.133 -103.348 319.247 C-102.536 318.905 -101.724 318.564 -100.888 318.212 C-100.008 317.855 -99.129 317.497 -98.223 317.129 C-73.83 306.678 -45.965 290.594 -33.997 265.704 C-33.147 263.014 -33.022 260.756 -32.973 257.942 C-32.599 252.71 -31.125 249.909 -27.696 246.008 C-24.474 242.171 -23.912 239.23 -24.223 234.254 C-24.471 233.594 -24.718 232.934 -24.973 232.254 C-25.223 230.254 -25.223 230.254 -23.286 227.379 C-20.978 223.883 -20.769 222.344 -21.223 218.254 C-21.553 217.264 -21.883 216.274 -22.223 215.254 C-29.214 212.621 -36.743 213.935 -43.36 216.868 C-48.183 219.204 -52.977 221.595 -57.758 224.016 C-62.674 226.494 -67.629 228.885 -72.598 231.254 C-73.425 231.652 -74.252 232.05 -75.104 232.46 C-76.257 233.008 -76.257 233.008 -77.434 233.567 C-78.118 233.893 -78.801 234.219 -79.506 234.555 C-81.223 235.254 -81.223 235.254 -83.223 235.254 C-82.49 229.54 -80.757 224.229 -79.036 218.754 C-76.62 210.956 -74.329 203.142 -72.223 195.254 C-69.943 186.728 -67.434 178.292 -64.829 169.86 C-62.554 162.454 -60.493 155.005 -58.493 147.522 C-56.71 140.907 -54.753 134.36 -52.723 127.817 C-50.328 120.092 -48.153 112.343 -46.161 104.504 C-44.2 96.794 -42.007 89.221 -39.541 81.659 C-37.396 74.998 -35.573 68.269 -33.786 61.504 C-30.792 50.182 -27.502 38.974 -24.003 27.798 C-23.468 26.054 -22.953 24.305 -22.455 22.551 C-19.824 13.328 -15.871 6.201 -7.401 1.173 C-4.785 0.07 -2.836 0.003 0 0 Z " fill="#FEFEFE" transform="translate(590.2231121063232,561.7455244064331)"/>
<path d="M0 0 C2.967 -0.323 2.967 -0.323 6 -1 C16.09 -1.528 25.334 -1.257 35 2 C36.08 2.364 37.16 2.727 38.273 3.102 C49.135 7.026 58.158 12.632 67 20 C67.791 20.656 68.583 21.312 69.398 21.988 C101.274 49.49 117.916 92.917 123.625 133.75 C123.759 134.669 123.893 135.588 124.031 136.535 C124.221 137.871 124.221 137.871 124.414 139.234 C124.527 140.031 124.64 140.827 124.756 141.647 C125.012 144.115 125.041 146.521 125 149 C122.685 146.685 121.981 144.816 120.766 141.781 C115.737 129.426 110.339 117.224 105 105 C104.555 103.981 104.11 102.961 103.652 101.911 C93.675 79.04 93.675 79.04 79 59 C78.047 57.908 78.047 57.908 77.074 56.793 C69.339 48.417 58.147 41.406 46.555 40.828 C43.363 40.814 40.189 40.867 37 41 C37 41.66 37 42.32 37 43 C37.727 43.086 38.454 43.173 39.203 43.262 C54.315 45.374 67.639 51.833 77.395 63.836 C87.81 77.876 94.023 93.828 100.379 109.979 C104.47 120.37 108.845 130.607 113.375 140.812 C125.541 168.277 134.296 194.233 122.924 223.745 C120.341 230.049 117.308 236.049 114 242 C113.592 242.735 113.183 243.47 112.763 244.227 C111.04 247.319 109.311 250.409 107.582 253.498 C101.025 265.276 96.302 276.956 93 290 C92.627 291.473 92.627 291.473 92.246 292.977 C87.139 317.764 92.734 342.502 102.082 365.426 C103 368 103 368 103 371 C94.365 371.549 86.376 370.005 78 368 C76.849 367.733 75.698 367.466 74.512 367.191 C67.057 365.143 67.057 365.143 64.477 362.352 C63.345 360.267 62.706 358.265 62 356 C61.612 354.811 61.612 354.811 61.217 353.598 C59.073 346.486 58.543 339.965 58.625 332.562 C58.613 331.52 58.602 330.478 58.59 329.404 C58.618 321.867 59.941 315.226 62 308 C62.396 306.444 62.786 304.887 63.168 303.328 C64.112 299.552 65.056 295.776 66 292 C64.68 292 63.36 292 62 292 C61.859 292.581 61.718 293.162 61.572 293.761 C60.481 298.032 59.125 302.239 57.816 306.449 C55.053 315.621 54.818 324.411 54.812 333.938 C54.8 335.066 54.788 336.195 54.775 337.357 C54.765 343.169 55.029 348.48 56.569 354.1 C57 356 57 356 57 360 C51.558 359.611 48.797 357.884 45 354 C42.331 348.336 42.669 342.442 42.688 336.312 C42.671 335.287 42.655 334.262 42.639 333.205 C42.618 300.58 70.282 269.59 89.055 244.988 C102.503 227.248 110.481 210.703 108 188 C106.443 180.341 102.342 173.618 98.66 166.821 C98.257 166.076 97.853 165.33 97.438 164.562 C97.022 163.802 96.607 163.042 96.18 162.259 C91.915 154.245 88.512 145.912 85.125 137.5 C84.71 136.471 84.71 136.471 84.287 135.421 C80.76 126.649 77.416 117.823 74.26 108.911 C66.509 87.066 57.077 66.782 35.871 55.227 C24.417 50.333 9.116 49.955 -2.75 53.625 C-28.925 64.236 -38.723 93.804 -48.995 117.874 C-53.111 127.495 -57.358 136.987 -62.223 146.258 C-62.815 147.389 -62.815 147.389 -63.42 148.542 C-72.907 166.284 -84.836 183.034 -104.812 189.375 C-108.852 190.529 -112.847 191.367 -117 192 C-117 193.32 -117 194.64 -117 196 C-113.7 196 -110.4 196 -107 196 C-106.95 201.959 -106.914 207.918 -106.89 213.877 C-106.88 215.901 -106.867 217.925 -106.849 219.949 C-106.825 222.871 -106.813 225.793 -106.805 228.715 C-106.794 229.609 -106.784 230.503 -106.773 231.424 C-106.772 237.211 -107.537 242.408 -109 248 C-109.188 248.852 -109.376 249.704 -109.57 250.582 C-113.246 265.363 -120.063 279.243 -126.562 292.938 C-142.07 325.706 -149.775 358.289 -137.836 393.426 C-136.689 396.371 -135.413 399.173 -134 402 C-133.471 403.057 -132.943 404.114 -132.398 405.203 C-128.067 413.276 -122.837 420.385 -117.1 427.52 C-113.096 432.502 -109.46 437.626 -106 443 C-106.33 443.66 -106.66 444.32 -107 445 C-120.546 436.651 -133.011 427.441 -145 417 C-145.681 416.432 -146.361 415.863 -147.062 415.277 C-162.909 401.924 -179.269 385.565 -187 366 C-187.262 365.338 -187.524 364.676 -187.794 363.995 C-192.466 351.3 -191.387 336.345 -185.959 324.065 C-179.93 311.081 -172.932 299.011 -164.855 287.203 C-151.589 267.799 -143.041 248.498 -140.922 224.926 C-140.836 223.976 -140.751 223.026 -140.662 222.047 C-139.835 212.159 -139.686 202.285 -139.594 192.368 C-139.405 174.089 -138.863 156.087 -136 138 C-135.862 137.1 -135.724 136.201 -135.583 135.274 C-129.782 98.521 -116.752 63.879 -93 35 C-92.37 34.205 -91.739 33.409 -91.09 32.59 C-81.873 21.494 -69.687 13.584 -57 7 C-56.077 6.518 -55.154 6.036 -54.203 5.539 C-37.492 -2.619 -17.989 -5.21 0 0 Z " fill="#FEFEFE" transform="translate(498,116)"/>
<path d="M0 0 C1.272 0.619 1.272 0.619 2.57 1.25 C19.883 10.568 27.459 29.607 33.917 47.125 C35.06 50.16 36.282 53.156 37.504 56.16 C49.299 86.476 45.634 123.317 36 154 C35.515 155.853 35.036 157.707 34.562 159.562 C27.244 185.956 12.995 214.772 -11.715 228.871 C-25.2 235.533 -39.912 237.539 -54.695 233.805 C-81.044 224.605 -99.231 201.116 -111.096 176.892 C-117.941 162.56 -124.573 140.922 -121 125 C-118.899 121.164 -115.716 118.789 -112.207 116.293 C-103.853 110.32 -98.505 100.522 -93 92 C-91.02 93.65 -89.04 95.3 -87 97 C-87.495 98.98 -87.495 98.98 -88 101 C-87.01 101.33 -86.02 101.66 -85 102 C-84.553 101.457 -84.105 100.915 -83.645 100.355 C-76.995 92.486 -76.995 92.486 -73 91 C-69.65 90.778 -66.351 90.824 -63 91 C-63.804 91.804 -64.609 92.609 -65.438 93.438 C-68.666 97.297 -69.045 101.078 -69 106 C-68.659 108.9 -68.659 108.9 -68 111 C-72.779 110.71 -75.117 108.417 -78.449 105.277 C-79.922 103.788 -79.922 103.788 -82 104 C-80.808 108.634 -78.533 110.405 -74.754 112.984 C-69.858 115.819 -64.476 115.426 -59 115 C-54.655 113.428 -52.868 110.807 -50.781 106.852 C-49.697 104.281 -49.27 101.765 -49 99 C-47.624 100.29 -46.292 101.627 -45 103 C-45 103.66 -45 104.32 -45 105 C-44.34 104.67 -43.68 104.34 -43 104 C-43.82 98.667 -47.009 94.947 -50.812 91.312 C-56.278 87.347 -61.31 85.683 -68 85 C-68.33 83.35 -68.66 81.7 -69 80 C-69.99 80 -70.98 80 -72 80 C-72 81.98 -72 83.96 -72 86 C-73.32 86 -74.64 86 -76 86 C-76.66 84.35 -77.32 82.7 -78 81 C-78.66 81 -79.32 81 -80 81 C-79.505 84.465 -79.505 84.465 -79 88 C-79.804 88.289 -80.609 88.577 -81.438 88.875 C-84.133 89.733 -84.133 89.733 -85 92 C-87 91 -89 90 -91 89 C-89.527 84.084 -87.473 79.752 -85.062 75.25 C-84.715 74.578 -84.368 73.907 -84.01 73.215 C-82.26 69.926 -81.153 68.102 -78 66 C-69.356 63.643 -59.279 64.016 -51 67.324 C-47.562 68.486 -44.598 68.316 -41 68 C-38.65 66.102 -38.65 66.102 -38.875 62.875 C-38.916 61.926 -38.957 60.978 -39 60 C-50.213 52.843 -63.078 52.519 -76 55 C-57.269 8.71 -57.269 8.71 -38.773 -0.844 C-26.554 -5.938 -11.878 -6.072 0 0 Z " fill="#FEFEFE" transform="translate(532,179)"/>
<path d="M0 0 C0.33 0.33 0.66 0.66 1 1 C0.789 11.35 -8.024 18.339 -14.789 25.355 C-24.339 35.105 -24.339 35.105 -27.422 47.805 C-27.16 50.368 -27.16 50.368 -24.188 52.5 C-7.994 60.12 14.184 54.492 30.293 48.824 C41.018 44.909 51.351 40.601 61.339 35.064 C69.083 30.776 76.948 26.584 86 27 C86.797 28.664 86.797 28.664 87 31 C85.486 33.055 84.078 34.63 82.25 36.375 C81.72 36.891 81.19 37.407 80.644 37.939 C60.872 56.591 36.86 70.04 11 78 C11 78.99 11 79.98 11 81 C35.799 78.746 59.728 61.832 77.75 45.73 C80 44 80 44 83 44 C82.317 52.171 78.361 56.18 73 62 C72.52 62.53 72.039 63.059 71.544 63.605 C63.602 72.266 55.1 79.018 45 85 C44.389 85.365 43.778 85.729 43.148 86.105 C35.203 90.773 27.212 94.285 18.37 96.923 C16.053 97.613 16.053 97.613 13 99 C11.904 101.053 11.904 101.053 12 103 C29.711 99.163 47.242 90.798 61 79 C62.125 78.071 63.251 77.144 64.379 76.219 C67.274 73.837 70.143 71.427 73 69 C73.33 69.66 73.66 70.32 74 71 C64.671 90.398 44.216 102.16 26 112 C24.798 112.672 23.596 113.345 22.395 114.02 C10.301 120.738 -2.005 126.29 -15.508 129.484 C-16.409 129.698 -17.309 129.911 -18.238 130.13 C-28.246 132.409 -38.355 133.809 -48.526 135.14 C-52.939 135.718 -57.348 136.322 -61.758 136.924 C-63.922 137.219 -66.087 137.513 -68.251 137.807 C-85.486 140.141 -102.506 142.947 -119.477 146.773 C-124.863 147.985 -130.269 149.068 -135.688 150.125 C-140.857 151.136 -145.971 152.201 -151.062 153.562 C-158.508 155.495 -166.094 156.562 -173.698 157.659 C-175.722 157.959 -177.74 158.293 -179.758 158.633 C-188.763 160.014 -197.713 160.268 -206.812 160.375 C-208.041 160.401 -209.269 160.427 -210.535 160.454 C-218.806 160.47 -227.318 159.845 -233.967 154.384 C-242.051 146.094 -242.255 133.591 -242.249 122.697 C-241.945 102.357 -232.896 83.612 -219 69 C-210.598 61.849 -203 58.367 -191.938 58.648 C-179.665 59.744 -167.644 62.653 -155.83 66.064 C-149.899 67.775 -143.938 69.304 -137.938 70.75 C-136.653 71.066 -136.653 71.066 -135.342 71.388 C-130.503 72.541 -125.774 73.345 -120.815 73.763 C-119 74 -119 74 -117 75 C-97.182 77.828 -97.182 77.828 -78.451 73.504 C-74.875 69.672 -73.272 65.105 -71.754 60.159 C-70.639 56.967 -68.803 54.535 -66.75 51.875 C-66.102 51.019 -65.453 50.163 -64.785 49.281 C-64.196 48.528 -63.607 47.776 -63 47 C-62.524 46.371 -62.049 45.742 -61.559 45.094 C-54.275 35.963 -43.859 29.334 -34.555 22.406 C-28.334 17.768 -22.174 13.051 -16.006 8.344 C-14.727 7.367 -14.727 7.367 -13.422 6.371 C-12.665 5.793 -11.908 5.215 -11.128 4.619 C-10.075 3.818 -10.075 3.818 -9 3 C-7.956 2.161 -7.956 2.161 -6.892 1.305 C-4.458 -0.374 -2.895 -0.313 0 0 Z " fill="#FEFEFE" transform="translate(477,755)"/>
<path d="M0 0 C2.97 0.33 5.94 0.66 9 1 C9.17 2.221 9.34 3.441 9.516 4.699 C11.7 19.785 14.767 36.533 23.625 49.352 C25.581 53.118 25.651 56.687 25.938 60.875 C27.983 83.693 37.324 104.529 47.786 124.662 C57.921 144.185 57.921 144.185 61 153 C61.344 153.971 61.344 153.971 61.695 154.962 C70.863 181.181 75.325 211.544 63.162 237.609 C55.623 252.723 47.58 260.453 32 267 C30.78 267.53 30.78 267.53 29.535 268.07 C16.498 272.851 2.659 272.368 -11 272 C-11 271.34 -11 270.68 -11 270 C-10.408 269.781 -9.817 269.562 -9.207 269.336 C-2.756 266.747 0.494 264.176 4.102 258.164 C6.244 253.004 5.809 246.77 4.266 241.484 C0.608 233.48 -5.473 226.766 -11 220 C-30.457 196.11 -39.409 172.812 -36.81 141.723 C-34.665 123.48 -26.899 105.996 -19.179 89.528 C-17.142 85.161 -15.167 80.768 -13.188 76.375 C-12.827 75.582 -12.466 74.789 -12.094 73.972 C-8.316 65.62 -4.809 57.409 -2.812 48.438 C-2.648 47.747 -2.484 47.057 -2.314 46.346 C0.085 35.901 0.127 25.598 0.062 14.938 C0.057 13.485 0.053 12.033 0.049 10.58 C0.038 7.053 0.021 3.527 0 0 Z " fill="#FEFEFE" transform="translate(396,319)"/>
<path d="M0 0 C0.619 0.639 1.238 1.279 1.875 1.938 C21.383 21.282 43.504 34.58 71 38 C71.231 38.797 71.461 39.593 71.699 40.414 C74.947 50.965 79.366 56.704 89.093 62.044 C100.294 67.66 113.506 73.398 126 75 C120.808 90.011 104.391 103.431 90.531 110.207 C71.003 118.253 47.405 117.628 27 114 C27 108.06 27 102.12 27 96 C30.063 96.141 33.125 96.288 36.188 96.438 C37.052 96.477 37.916 96.516 38.807 96.557 C42.959 96.763 46.945 97.001 51 98 C50.67 96.68 50.34 95.36 50 94 C42.019 92.353 34.131 91.491 26 91 C25.888 90.014 25.776 89.028 25.66 88.012 C22.798 66.234 14.444 45.881 5.036 26.186 C1.727 19.205 -0.148 13.499 -0.062 5.688 C-0.053 4.619 -0.044 3.55 -0.035 2.449 C-0.024 1.641 -0.012 0.833 0 0 Z " fill="#FEFEFE" transform="translate(446,414)"/>
<path d="M0 0 C0.33 0 0.66 0 1 0 C1.014 0.993 1.028 1.985 1.043 3.008 C1.604 22.584 10.312 36.117 20.961 51.859 C46.597 89.806 46.597 89.806 44 113 C41.876 121.203 37.145 130.105 30 135 C26.352 135.079 23.89 133.957 20.5 132.625 C13.226 129.771 5.181 128.032 -2.625 127.812 C-6 127 -6 127 -8.125 123.938 C-8.784 122.305 -9.403 120.656 -10 119 C-10.483 117.79 -10.967 116.579 -11.465 115.332 C-14.62 107.351 -17.202 99.405 -19 91 C-19.205 90.193 -19.41 89.386 -19.621 88.555 C-21.821 78.874 -21.234 68.86 -21 59 C-20.982 57.796 -20.964 56.592 -20.945 55.352 C-20.129 36.296 -11.069 15.378 0 0 Z " fill="#FEFEFE" transform="translate(615,362)"/>
<path d="M0 0 C2.277 3.416 2.916 6.563 3.75 10.5 C5.353 17.679 7.375 24.634 9.647 31.627 C11.571 37.57 13.317 43.547 15 49.562 C16.892 56.274 18.875 62.941 21.062 69.562 C21.284 70.239 21.505 70.916 21.732 71.614 C23.469 76.778 25.552 81.771 27.669 86.79 C29.935 92.254 32.022 97.785 34.125 103.312 C34.98 105.559 35.837 107.805 36.695 110.051 C37.091 111.088 37.487 112.125 37.896 113.194 C38.808 115.511 39.776 117.777 40.805 120.043 C42 123 42 123 42 127 C16.83 128.447 -8.359 121.116 -32 113 C-32.473 105.484 -30.713 98.865 -28.812 91.625 C-28.49 90.371 -28.168 89.116 -27.835 87.824 C-26.902 84.213 -25.955 80.606 -25 77 C-24.777 76.151 -24.553 75.301 -24.323 74.426 C-22.955 69.262 -21.496 64.128 -20 59 C-19.525 57.365 -19.525 57.365 -19.04 55.697 C-15.151 42.381 -11.168 29.111 -6.625 16 C-6.304 15.07 -5.982 14.139 -5.651 13.181 C-4.036 8.607 -2.293 4.276 0 0 Z " fill="#FEFEFE" transform="translate(339,696)"/>
<path d="M0 0 C0.745 0.005 1.49 0.009 2.258 0.014 C4.089 0.025 5.919 0.043 7.75 0.062 C8.245 2.537 8.245 2.537 8.75 5.062 C7.746 5.077 6.742 5.091 5.707 5.105 C-14.455 5.686 -31.097 15.264 -44.883 29.848 C-65.672 53.974 -77.014 86.418 -82.92 117.392 C-83.735 121.497 -84.862 124.615 -87.25 128.062 C-88.24 127.733 -89.23 127.403 -90.25 127.062 C-91.153 96.363 -73.505 54.336 -53.25 31.062 C-52.54 30.232 -51.829 29.402 -51.098 28.547 C-38.106 13.712 -20.54 -0.236 0 0 Z " fill="#111112" transform="translate(496.25,136.9375)"/>
<path d="M0 0 C2.062 0.438 2.062 0.438 4 1 C4.009 1.556 4.019 2.113 4.028 2.686 C4.323 16.835 5.86 30.205 9 44 C9.153 44.702 9.307 45.405 9.465 46.128 C11.483 55.239 14.77 63.348 18.874 71.681 C21.216 76.504 23.445 81.38 25.688 86.25 C26.151 87.244 26.614 88.238 27.092 89.261 C34.996 106.393 39.145 122.263 39.25 141.125 C39.271 142.062 39.291 142.999 39.312 143.965 C39.346 150.028 38.478 154.457 36 160 C34.68 160 33.36 160 32 160 C31.875 152.375 31.875 152.375 33 149 C33.229 145.817 33.185 142.628 33.188 139.438 C33.206 138.153 33.206 138.153 33.225 136.842 C33.272 115.769 23.461 96.086 14.419 77.544 C9.14 66.674 4.341 55.736 2.25 43.75 C1.553 39.233 1.553 39.233 0 35 C-1.068 27.657 -1.151 20.411 -1.125 13 C-1.129 11.857 -1.133 10.713 -1.137 9.535 C-1.135 8.451 -1.134 7.367 -1.133 6.25 C-1.131 4.773 -1.131 4.773 -1.129 3.266 C-1 1 -1 1 0 0 Z " fill="#111112" transform="translate(416,392)"/>
<path d="M0 0 C0.99 0 1.98 0 3 0 C3.33 1.32 3.66 2.64 4 4 C4.557 4.098 5.114 4.196 5.688 4.297 C15.78 6.274 21.738 9.758 28 18 C30 21 30 21 29.625 23.188 C29.419 23.786 29.212 24.384 29 25 C28.34 25 27.68 25 27 25 C25.375 22.5 25.375 22.5 24 20 C23.762 20.888 23.762 20.888 23.52 21.793 C21.535 28.516 18.917 32.055 13 36 C5.959 36.978 -0.217 36.268 -6 32 C-8.102 30.078 -9.405 28.417 -11 26 C-10.67 25.01 -10.34 24.02 -10 23 C-7.176 24.195 -5.372 25.537 -3 27.562 C-0.409 29.668 0.785 30.629 4 31 C3.474 30.041 3.474 30.041 2.938 29.062 C1.646 24.843 1.773 21.241 3 17 C5.562 13.938 5.562 13.938 8 12 C3.428 11.634 -0.004 11.512 -4.188 13.562 C-7.509 16.441 -10.276 19.561 -13 23 C-14.32 22.34 -15.64 21.68 -17 21 C-16.732 20.464 -16.464 19.928 -16.188 19.375 C-15.955 16.427 -16.58 15.952 -18.438 13.75 C-19.706 12.389 -19.706 12.389 -21 11 C-20.67 10.34 -20.34 9.68 -20 9 C-17.038 9.613 -15.619 10.254 -13 12 C-12.67 11.01 -12.34 10.02 -12 9 C-9.938 8.312 -9.938 8.312 -8 8 C-8 5.69 -8 3.38 -8 1 C-7.34 1 -6.68 1 -6 1 C-5.34 2.65 -4.68 4.3 -4 6 C-2.68 6 -1.36 6 0 6 C0 4.02 0 2.04 0 0 Z " fill="#111112" transform="translate(460,259)"/>
<path d="M0 0 C0.66 0 1.32 0 2 0 C1.67 2.64 1.34 5.28 1 8 C3.929 7.372 6.361 6.414 9 5 C8.424 7.386 7.778 9.667 7 12 C9.31 11.34 11.62 10.68 14 10 C13.401 13.356 12.154 15.378 10 18 C10.99 18 11.98 18 13 18 C12.25 19.938 12.25 19.938 11 22 C8.938 22.812 8.938 22.812 7 23 C6.67 22.67 6.34 22.34 6 22 C5.72 22.603 5.441 23.207 5.152 23.828 C2.844 28.431 0.859 32.158 -3.918 34.406 C-9.164 35.902 -14.382 36.041 -19.484 34.012 C-23.347 31.799 -23.347 31.799 -25 30 C-25 28.68 -25 27.36 -25 26 C-20.965 27.59 -16.982 29.282 -13 31 C-13.236 30.161 -13.236 30.161 -13.477 29.305 C-14.534 24.651 -15.297 19.305 -12.883 15.016 C-11.5 13.375 -11.5 13.375 -9 11 C-16.775 11.622 -20.785 14.454 -25.75 20.25 C-26.322 20.956 -26.895 21.663 -27.484 22.391 C-27.985 22.922 -28.485 23.453 -29 24 C-29.66 24 -30.32 24 -31 24 C-30.863 18.535 -28.612 15.651 -25.008 11.828 C-19.246 6.582 -13.255 5.468 -5.637 4.688 C-2.418 3.848 -1.777 2.712 0 0 Z " fill="#111112" transform="translate(552,262)"/>
<path d="M0 0 C0.99 0.66 1.98 1.32 3 2 C3 3.32 3 4.64 3 6 C2.238 5.942 1.476 5.884 0.691 5.824 C-6.74 5.499 -12.221 6.045 -18 11 C-23.928 18.05 -26.508 24.615 -26.305 33.801 C-25.493 42.328 -22.687 48.282 -16.098 53.758 C-13.7 55.178 -11.762 55.694 -9 56 C-8.381 55.691 -7.763 55.381 -7.125 55.062 C-3.055 53.027 1.196 53.813 5.5 54.812 C9.352 55.019 11.321 54.343 14.355 51.945 C17.738 47.944 19.305 42.897 21 38 C22.65 38.33 24.3 38.66 26 39 C25.412 46.207 23.059 51.362 17.688 56.25 C12.315 60.486 8.073 62.298 1.188 61.625 C0.253 61.494 -0.682 61.362 -1.645 61.227 C-4.018 60.788 -4.018 60.788 -6 62 C-12.333 62.778 -15.762 61.608 -20.891 57.832 C-28.022 51.639 -31.415 44.603 -32.387 35.293 C-32.99 24.904 -30.838 17.214 -24.324 8.848 C-17.514 1.442 -10.052 -1.397 0 0 Z " fill="#111112" transform="translate(736,695)"/>
<path d="M0 0 C4.483 3.651 4.483 3.651 6.254 6.164 C6.488 9.422 6.488 9.422 6.254 12.164 C1.932 11.788 -1.214 10.995 -5.121 9.102 C-9.932 7.073 -14.225 6.785 -19.371 6.789 C-20.075 6.788 -20.78 6.786 -21.505 6.785 C-26.517 6.888 -30.914 7.846 -35.746 9.164 C-38.744 9.497 -40.042 9.626 -42.559 7.977 C-44.215 5.448 -44.325 4.131 -43.746 1.164 C-33.565 -10.375 -11.521 -7.702 0 0 Z " fill="#040304" transform="translate(565.74609375,242.8359375)"/>
<path d="M0 0 C0.99 0.33 1.98 0.66 3 1 C3.02 1.668 3.04 2.337 3.06 3.025 C3.595 27.78 3.595 27.78 8.625 51.875 C12.618 64.596 12.618 64.596 11 71 C8.697 74.506 5.744 75.785 1.75 76.938 C0.842 76.958 -0.065 76.979 -1 77 C-1.66 76.34 -2.32 75.68 -3 75 C-3 74.01 -3 73.02 -3 72 C-2.01 71.423 -1.02 70.845 0 70.25 C0.99 69.507 1.98 68.765 3 68 C3.495 62.856 2.504 58.351 1.125 53.438 C-2.02 41.342 -3.193 29.928 -3.312 17.438 C-3.339 15.723 -3.339 15.723 -3.366 13.973 C-3.365 12.888 -3.364 11.802 -3.363 10.684 C-3.366 9.71 -3.369 8.736 -3.372 7.732 C-2.938 4.545 -1.81 2.628 0 0 Z " fill="#111112" transform="translate(507,264)"/>
<path d="M0 0 C4.278 0.389 6.647 2.008 9.863 4.648 C16.238 8.681 22.312 9.551 29.688 9.5 C30.56 9.499 31.433 9.499 32.332 9.498 C39.127 9.343 44.299 8.016 50.469 5.094 C53 4 53 4 57 4 C57 5.65 57 7.3 57 9 C44.85 15.538 33.759 19.323 19.816 16.312 C12.113 13.957 4.319 10.262 -1 4 C-0.688 1.812 -0.688 1.812 0 0 Z " fill="#111112" transform="translate(470,355)"/>
<path d="M0 0 C0.66 0 1.32 0 2 0 C25.066 24.287 37.593 59.086 37.125 92.25 C37.116 93.484 37.107 94.717 37.098 95.988 C37.074 98.992 37.042 101.996 37 105 C36.01 105 35.02 105 34 105 C33.97 103.836 33.97 103.836 33.94 102.648 C33.844 99.099 33.735 95.549 33.625 92 C33.594 90.779 33.563 89.559 33.531 88.301 C33.323 81.878 32.835 76.159 31 70 C30.673 68.42 30.358 66.837 30.062 65.25 C25.87 44.16 17.475 23.766 3.404 7.276 C0 3.268 0 3.268 0 0 Z " fill="#E2E2E2" transform="translate(318,517)"/>
<path d="M0 0 C2.475 0.495 2.475 0.495 5 1 C6.363 13.725 -0.664 27.903 -8 38 C-12.864 43.775 -17.924 49.048 -25 52 C-27.375 51.688 -27.375 51.688 -29 51 C-29 50.01 -29 49.02 -29 48 C-27.059 46.457 -27.059 46.457 -24.438 44.812 C-19.394 41.421 -15.658 37.834 -12 33 C-11.325 32.13 -11.325 32.13 -10.637 31.242 C-4.442 22.382 -1.66 10.533 0 0 Z " fill="#111112" transform="translate(438,535)"/>
<path d="M0 0 C0 0.66 0 1.32 0 2 C-0.804 1.969 -1.608 1.937 -2.437 1.905 C-30.216 0.966 -55.735 5.218 -77.188 24.602 C-79 26 -79 26 -82 26 C-76.692 14.211 -60.242 7.58 -49 2.625 C-33.775 -2.859 -15.34 -6.694 0 0 Z " fill="#E2E2E2" transform="translate(289,789)"/>
<path d="M0 0 C-0.313 2.95 -0.501 4.54 -2.723 6.59 C-17.756 15.248 -32.648 19.49 -50 19 C-50.562 17.062 -50.562 17.062 -51 15 C-49.491 13.491 -48.009 13.683 -45.906 13.457 C-31.128 11.716 -13.003 0 0 0 Z " fill="#111112" transform="translate(566,490)"/>
<path d="M0 0 C2.25 1.75 2.25 1.75 3.035 3.645 C3.25 5.75 3.25 5.75 2.324 7.496 C1.867 8.054 1.409 8.612 0.938 9.188 C-3.354 14.811 -4.176 19.816 -4.75 26.75 C-6.07 26.75 -7.39 26.75 -8.75 26.75 C-9.75 25.75 -9.75 25.75 -10.188 22.5 C-10.176 16.034 -6.629 10.371 -3.75 4.75 C-5.646 4.696 -7.541 4.657 -9.438 4.625 C-10.493 4.602 -11.549 4.579 -12.637 4.555 C-15.795 4.753 -17.874 5.506 -20.75 6.75 C-21.74 6.75 -22.73 6.75 -23.75 6.75 C-23.75 5.43 -23.75 4.11 -23.75 2.75 C-16.597 -2.573 -8.374 -2.791 0 0 Z " fill="#111112" transform="translate(764.75,698.25)"/>
<path d="M0 0 C5.014 8.976 4.266 20.293 4.125 30.25 C4.116 31.484 4.107 32.717 4.098 33.988 C4.074 36.992 4.042 39.996 4 43 C3.01 43 2.02 43 1 43 C0.98 42.224 0.96 41.448 0.94 40.648 C0.844 37.099 0.735 33.549 0.625 30 C0.579 28.169 0.579 28.169 0.531 26.301 C0.323 19.868 -0.24 14.182 -2 8 C-2 6.68 -2 5.36 -2 4 C-1.34 4 -0.68 4 0 4 C0 2.68 0 1.36 0 0 Z " fill="#E2E2E2" transform="translate(351,579)"/>
<path d="M0 0 C0.753 0.001 1.505 0.003 2.281 0.004 C7.95 0.102 12.516 1.029 17.75 3.312 C17.75 3.972 17.75 4.633 17.75 5.312 C7.19 5.312 -3.37 5.312 -14.25 5.312 C-13.25 2.312 -13.25 2.312 -11.203 1.145 C-7.449 0.087 -3.868 -0.027 0 0 Z " fill="#E2E2E2" transform="translate(271.25,785.6875)"/>
<path d="M0 0 C0.75 2.188 0.75 2.188 1 5 C-0.777 7.696 -2.093 9.546 -5 11 C-7 11.04 -9 11.043 -11 11 C-10.863 8.059 -10.67 5.802 -8.738 3.488 C-5.583 0.714 -4.29 0 0 0 Z " fill="#111112" transform="translate(761,683)"/>
<path d="M0 0 C0.66 0.33 1.32 0.66 2 1 C0.713 4.862 -0.739 5.318 -4.188 7.375 C-7.496 9.396 -10.601 11.361 -13.5 13.938 C-16 16 -16 16 -19 16 C-15.726 8.481 -7.456 2.97 0 0 Z " fill="#E2E2E2" transform="translate(226,799)"/>
<path d="M0 0 C5.61 0.33 11.22 0.66 17 1 C16 4 16 4 14 5 C12.192 5.147 10.377 5.221 8.562 5.25 C7.594 5.276 6.626 5.302 5.629 5.328 C3 5 3 5 1.152 3.609 C0 2 0 2 0 0 Z " fill="#222223" transform="translate(489,378)"/>
<path d="M0 0 C8.58 0 17.16 0 26 0 C26 0.33 26 0.66 26 1 C18.454 3.082 10.814 3.934 3 3 C2.01 2.01 1.02 1.02 0 0 Z " fill="#E2E2E2" transform="translate(730,903)"/>
<path d="M0 0 C2.487 0.241 3.784 0.83 5.75 2.375 C7 4 7 4 7 7 C3.625 6.75 3.625 6.75 0 6 C-1.438 3.938 -1.438 3.938 -2 2 C-1.34 1.34 -0.68 0.68 0 0 Z " fill="#222223" transform="translate(491,329)"/>
<path d="M0 0 C1.98 0.66 3.96 1.32 6 2 C6 2.66 6 3.32 6 4 C-5.385 3.505 -5.385 3.505 -17 3 C-17 2.67 -17 2.34 -17 2 C-15.857 1.939 -14.713 1.879 -13.535 1.816 C-12.044 1.732 -10.553 1.647 -9.062 1.562 C-8.308 1.523 -7.553 1.484 -6.775 1.443 C-3.081 1.56 -3.081 1.56 0 0 Z " fill="#C8C8C8" transform="translate(283,787)"/>
<path d="M0 0 C1.765 3.088 2 4.233 2 8 C1.34 8 0.68 8 0 8 C0 9.98 0 11.96 0 14 C-0.33 14 -0.66 14 -1 14 C-1.33 10.7 -1.66 7.4 -2 4 C-1.34 4 -0.68 4 0 4 C0 2.68 0 1.36 0 0 Z " fill="#B4B6B7" transform="translate(351,579)"/>
<path d="M0 0 C1.65 0.33 3.3 0.66 5 1 C4.34 2.98 3.68 4.96 3 7 C1.68 6.01 0.36 5.02 -1 4 C-0.67 2.68 -0.34 1.36 0 0 Z " fill="#111112" transform="translate(470,355)"/>
<path d="M0 0 C0.66 0 1.32 0 2 0 C3.478 2.957 3.06 5.742 3 9 C2.34 9 1.68 9 1 9 C0.67 6.03 0.34 3.06 0 0 Z " fill="#F5F5F6" transform="translate(348,574)"/>
<path d="M0 0 C0.66 0.33 1.32 0.66 2 1 C1.67 1.99 1.34 2.98 1 4 C-1.562 5.188 -1.562 5.188 -4 6 C-2.25 1.125 -2.25 1.125 0 0 Z " fill="#F5F5F6" transform="translate(226,799)"/>
</svg>