<svg version="1.1" xmlns="http://www.w3.org/2000/svg" width="1024" height="1024">
<path d="M0 0 C337.92 0 675.84 0 1024 0 C1024 337.92 1024 675.84 1024 1024 C686.08 1024 348.16 1024 0 1024 C0 686.08 0 348.16 0 0 Z " fill="#FEFEFE" transform="translate(0,0)"/>
<path d="M0 0 C1.973 -0.002 3.946 -0.021 5.918 -0.039 C13.225 -0.05 19.932 0.363 27.008 2.185 C27.826 2.383 28.643 2.58 29.486 2.783 C41.801 5.843 52.993 9.878 64.008 16.185 C65.012 16.751 66.017 17.317 67.051 17.9 C76.162 23.361 83.565 30.682 91.008 38.185 C91.619 38.787 92.23 39.389 92.86 40.01 C102.376 50.007 110.149 63.292 115.008 76.185 C115.255 76.83 115.501 77.476 115.755 78.14 C124.696 101.977 129.306 127.383 134.446 152.248 C134.619 153.084 134.793 153.92 134.972 154.781 C135.467 157.177 135.956 159.573 136.442 161.97 C136.659 163.018 136.659 163.018 136.88 164.088 C137.76 168.483 138.341 172.845 138.747 177.31 C138.919 179.272 138.919 179.272 140.008 181.185 C140.297 182.824 140.544 184.47 140.77 186.119 C142.939 201.359 145.822 216.287 149.338 231.272 C149.905 233.736 150.433 236.2 150.93 238.677 C155.797 262.38 166.107 284.519 176.295 306.313 C178.543 311.137 180.712 315.993 182.844 320.869 C183.134 321.531 183.423 322.193 183.721 322.875 C188.876 334.728 189.364 344.372 189.008 357.185 C189.701 357.283 190.393 357.381 191.106 357.482 C215.023 361.137 237.945 368.534 253.196 388.31 C265.721 406.53 269.984 428.251 274.395 449.533 C275.895 456.737 277.537 463.903 279.204 471.069 C284.363 493.272 289.011 515.582 293.688 537.89 C294.926 543.798 296.171 549.705 297.418 555.611 C298.136 559.011 298.853 562.411 299.571 565.81 C299.817 566.976 299.817 566.976 300.068 568.165 C301.755 576.164 303.423 584.166 305.008 592.185 C305.414 594.217 305.82 596.248 306.227 598.279 C308.79 611.092 308.79 611.092 309.411 614.205 C309.795 616.12 310.182 618.034 310.573 619.947 C311.759 625.776 312.703 631.608 313.543 637.498 C313.869 640.146 313.869 640.146 315.008 642.185 C315.272 643.659 315.494 645.139 315.692 646.623 C315.815 647.519 315.938 648.415 316.065 649.338 C316.191 650.277 316.316 651.217 316.446 652.185 C317.168 657.576 317.92 662.924 319.043 668.248 C320.985 677.767 321.221 687.26 321.249 696.952 C321.258 699.05 321.289 701.147 321.321 703.244 C321.446 719.275 317.853 734.033 307.008 746.185 C305.358 747.835 303.708 749.485 302.008 751.185 C334.678 751.515 367.348 751.845 401.008 752.185 C401.008 754.825 401.008 757.465 401.008 760.185 C349.278 760.254 297.548 760.307 245.818 760.338 C239.713 760.342 233.608 760.346 227.504 760.35 C226.288 760.351 225.073 760.352 223.821 760.352 C204.132 760.366 184.443 760.389 164.754 760.417 C144.557 760.445 124.36 760.461 104.163 760.468 C91.697 760.472 79.23 760.485 66.764 760.509 C58.22 760.525 49.676 760.53 41.132 760.526 C36.199 760.524 31.267 760.527 26.335 760.543 C21.82 760.558 17.305 760.558 12.79 760.548 C11.156 760.547 9.522 760.551 7.888 760.56 C5.667 760.572 3.447 760.566 1.226 760.554 C-0.625 760.556 -0.625 760.556 -2.513 760.558 C-6.595 760.121 -9.316 758.966 -12.992 757.185 C-12.64 757.635 -12.288 758.085 -11.925 758.549 C-10.246 760.737 -8.614 762.954 -6.992 765.185 C-6.346 766.064 -5.7 766.944 -5.035 767.849 C-1.569 772.861 1.094 776.928 0.579 783.174 C-0.436 786.751 -2.314 788.635 -4.992 791.185 C-8.119 792.749 -11.572 792.585 -14.992 792.185 C-15.982 791.525 -16.972 790.865 -17.992 790.185 C-17.847 791.052 -17.703 791.918 -17.554 792.81 C-18.031 796.487 -18.418 797.11 -20.992 799.56 C-24.273 802.056 -26.811 803.1 -30.941 802.779 C-36.569 801.149 -41.11 796.391 -44.992 792.185 C-45.074 793.237 -45.157 794.289 -45.242 795.373 C-46.054 799.501 -47.05 801.244 -49.992 804.185 C-53.611 805.392 -56.184 805.508 -59.992 805.185 C-63.242 803.31 -63.242 803.31 -65.992 801.185 C-66.982 800.525 -67.972 799.865 -68.992 799.185 C-69.054 799.763 -69.115 800.34 -69.179 800.935 C-70.387 804.281 -71.952 805.374 -74.992 807.185 C-80.1 808.037 -82.93 807.565 -87.304 804.81 C-91.771 801.557 -95.728 797.798 -99.769 794.041 C-108.92 785.762 -119.119 778.036 -129.992 772.185 C-130.279 772.803 -130.567 773.42 -130.863 774.056 C-133.015 778.116 -136.538 780.206 -140.679 781.935 C-153.068 785.658 -165.555 783.661 -176.992 778.185 C-185.876 774.082 -194.056 771.286 -203.7 769.607 C-208.423 768.738 -213.111 767.701 -217.804 766.685 C-218.759 766.483 -219.713 766.282 -220.697 766.074 C-222.09 765.773 -222.09 765.773 -223.511 765.467 C-224.327 765.292 -225.143 765.117 -225.983 764.937 C-228.992 764.185 -228.992 764.185 -230.936 763.471 C-238.662 760.752 -246.154 760.743 -254.264 760.753 C-255.782 760.744 -257.301 760.734 -258.82 760.722 C-262.914 760.695 -267.008 760.685 -271.103 760.679 C-275.392 760.67 -279.682 760.644 -283.971 760.619 C-292.081 760.576 -300.191 760.547 -308.301 760.524 C-317.539 760.497 -326.777 760.453 -336.016 760.408 C-355.008 760.315 -374 760.243 -392.992 760.185 C-392.992 757.545 -392.992 754.905 -392.992 752.185 C-333.097 751.69 -333.097 751.69 -271.992 751.185 C-275.952 746.73 -275.952 746.73 -279.992 742.185 C-286.891 730.268 -289.646 718.545 -289.403 704.875 C-289.367 702.753 -289.362 700.633 -289.363 698.511 C-289.317 689.591 -288.482 680.996 -286.992 672.185 C-286.877 671.448 -286.762 670.711 -286.644 669.952 C-283.338 648.835 -278.328 628.016 -272.89 607.362 C-270.681 598.947 -268.612 590.522 -266.802 582.012 C-265.609 576.519 -264.158 571.124 -262.632 565.717 C-259.997 556.364 -257.685 546.948 -255.429 537.498 C-252.761 526.35 -249.988 515.25 -246.992 504.185 C-246.335 501.721 -245.681 499.256 -245.027 496.791 C-243.328 490.396 -241.621 484.004 -239.91 477.613 C-239.367 475.586 -238.825 473.559 -238.285 471.531 C-220.899 406.42 -220.899 406.42 -199.992 381.185 C-199.453 380.532 -198.914 379.878 -198.359 379.205 C-192.995 373.316 -185.86 369.114 -178.992 365.185 C-178.332 365.185 -177.672 365.185 -176.992 365.185 C-176.978 364.47 -176.963 363.754 -176.949 363.017 C-176.08 344.86 -166.438 330.58 -155.375 316.902 C-141.54 299.727 -130.533 280.837 -130.679 258.248 C-130.683 257.342 -130.688 256.436 -130.692 255.502 C-130.913 241.971 -133.702 228.844 -136.633 215.677 C-136.795 214.944 -136.957 214.21 -137.125 213.455 C-137.339 212.505 -137.339 212.505 -137.559 211.536 C-138.746 205.089 -139.167 198.776 -139.23 192.236 C-139.24 191.394 -139.25 190.551 -139.26 189.683 C-139.768 134.747 -127.527 81.356 -88.992 40.185 C-71.368 22.334 -43.875 3.738 -18.179 1.623 C-11.979 1.1 -6.449 -0.001 0 0 Z " fill="#030304" transform="translate(507.99169921875,166.814697265625)"/>
<path d="M0 0 C3.27 0.287 4.645 0.609 6.887 3.082 C7.481 3.983 8.075 4.884 8.688 5.812 C11.274 9.596 13.919 13.158 16.927 16.606 C25.021 25.898 27.989 35.176 31 47 C31.383 48.411 31.383 48.411 31.773 49.851 C33.868 58.058 34.386 65.743 34.438 74.188 C34.737 88.754 36.453 101.47 42.234 114.914 C44.5 121.088 42.94 126.5 40.395 132.355 C37.789 137.296 34.467 141.637 31 146 C30.13 147.12 30.13 147.12 29.242 148.262 C22.379 156.641 12.777 162.948 1.91 164.418 C-2.883 164.637 -6.062 164.513 -10.312 162.188 C-13.562 158.842 -15.906 154.701 -18.289 150.719 C-25.411 139.401 -34.613 136.936 -47 134 C-48.396 133.627 -49.792 133.252 -51.188 132.875 C-54.768 131.976 -54.768 131.976 -57.547 131.719 C-77.154 129.387 -99.804 115.28 -114 102 C-115.954 98.937 -116 97.831 -116 94 C-112.574 95.296 -109.462 96.79 -106.305 98.645 C-105.423 99.157 -104.541 99.669 -103.633 100.197 C-101.817 101.261 -100.002 102.326 -98.188 103.393 C-91.95 107.013 -85.612 110.125 -79 113 C-77.208 113.791 -75.417 114.583 -73.625 115.375 C-70.007 116.96 -67.806 117.216 -64 116 C-63.67 115.34 -63.34 114.68 -63 114 C-63.564 113.857 -64.128 113.713 -64.708 113.566 C-72.422 111.444 -79.456 108.193 -86.625 104.688 C-87.251 104.384 -87.876 104.08 -88.521 103.767 C-97.628 99.334 -106.542 94.635 -115.312 89.562 C-116.277 89.008 -117.241 88.454 -118.235 87.884 C-133.005 79.142 -133.005 79.142 -135.188 72.25 C-135 69 -135 69 -133.938 67 C-130.929 65.447 -129.27 66.135 -126 67 C-122.87 68.658 -119.949 70.603 -117 72.562 C-115.292 73.666 -113.582 74.768 -111.871 75.867 C-111.037 76.406 -110.203 76.944 -109.343 77.499 C-100.795 82.975 -91.981 87.607 -82.75 91.812 C-81.934 92.186 -81.118 92.559 -80.278 92.944 C-75.348 95.136 -70.44 96.87 -65.235 98.296 C-63 99 -63 99 -60.913 100.077 C-58.248 101.363 -55.914 101.132 -53 101 C-53.33 100.01 -53.66 99.02 -54 98 C-56.19 97.031 -58.296 96.249 -60.562 95.5 C-76.119 89.977 -91.087 82.892 -105.438 74.75 C-106.687 74.044 -106.687 74.044 -107.962 73.324 C-122.726 64.733 -122.726 64.733 -127 58 C-126.862 55.181 -126.355 53.542 -124.812 51.188 C-122.124 49.426 -120.175 49.754 -117 50 C-114.085 51.187 -114.085 51.187 -111.02 52.859 C-109.869 53.475 -108.718 54.091 -107.532 54.725 C-106.926 55.055 -106.32 55.385 -105.696 55.726 C-102.474 57.478 -99.229 59.184 -95.98 60.887 C-95.317 61.234 -94.654 61.582 -93.971 61.941 C-83.243 67.523 -72.128 72.278 -61 77 C-60.156 77.36 -59.311 77.72 -58.441 78.091 C-50.496 81.701 -50.496 81.701 -42 83 C-42 81.68 -42 80.36 -42 79 C-42.536 78.792 -43.072 78.585 -43.625 78.371 C-46.426 77.27 -49.214 76.139 -52 75 C-53.163 74.526 -54.325 74.051 -55.523 73.562 C-69.829 67.588 -83.46 60.164 -96.438 51.688 C-97.034 51.304 -97.63 50.92 -98.244 50.524 C-102.31 47.787 -105.117 44.908 -108 41 C-108.5 38.312 -108.5 38.312 -108 36 C-106.437 34.011 -105.516 33.115 -103.024 32.558 C-96.883 32.528 -93.041 34.048 -87.875 37.25 C-86.295 38.175 -84.713 39.096 -83.129 40.016 C-82.298 40.504 -81.466 40.991 -80.61 41.494 C-68.225 48.64 -55.401 55.005 -42.312 60.75 C-41.338 61.181 -40.364 61.611 -39.361 62.055 C-38.001 62.639 -38.001 62.639 -36.613 63.234 C-35.817 63.577 -35.021 63.92 -34.2 64.272 C-31.753 65.209 -31.753 65.209 -28 65 C-28 63.68 -28 62.36 -28 61 C-28.683 60.719 -29.366 60.438 -30.069 60.149 C-84.705 37.59 -84.705 37.59 -89 29 C-89.25 25.5 -89.25 25.5 -89 22 C-85.179 19.453 -83.433 19.72 -79 20.293 C-75.035 21.227 -71.592 22.841 -67.948 24.64 C-61.294 27.921 -54.51 30.879 -47.701 33.818 C-45.728 34.67 -43.757 35.525 -41.786 36.38 C-13.436 49.846 -13.436 49.846 17 53 C17.33 52.34 17.66 51.68 18 51 C17.072 50.629 17.072 50.629 16.125 50.25 C13.54 48.73 13.1 47.758 12 45 C11.8 43.233 11.637 41.461 11.5 39.688 C10.408 32.329 6.67 27.329 2.41 21.445 C-1.827 15.544 -3.7 11.234 -3 4 C-1.5 1.5 -1.5 1.5 0 0 Z " fill="#FEFEFE" transform="translate(679,686)"/>
<path d="M0 0 C0.66 0 1.32 0 2 0 C2.086 1.004 2.173 2.008 2.262 3.043 C3.701 17.787 7.73 31.063 18.742 41.68 C20 43 20 43 20 45 C20.557 45.227 21.114 45.454 21.688 45.688 C24.716 47.406 26.773 49.328 29 52 C28.838 56.086 26.206 58.064 23.375 60.75 C19.598 64.414 16.002 68.115 12.605 72.133 C11.523 73.392 10.398 74.616 9.238 75.805 C6.145 79.05 5.066 80.304 4.625 84.938 C4.811 86.453 4.811 86.453 5 88 C10.006 83.839 14.436 79.552 18.555 74.504 C19.032 74.008 19.509 73.511 20 73 C20.66 73 21.32 73 22 73 C23.565 77.353 25.128 81.707 26.688 86.062 C26.918 86.705 27.148 87.347 27.385 88.008 C30.322 96.213 33.212 104.425 35.867 112.727 C36.766 115.322 37.732 117.835 38.77 120.375 C41.41 126.91 43.745 133.55 46.056 140.207 C46.565 141.665 47.078 143.121 47.595 144.576 C48.351 146.701 49.093 148.83 49.832 150.961 C50.065 151.609 50.298 152.257 50.539 152.924 C51.673 156.251 52.502 158.7 51 162 C49.328 163.055 49.328 163.055 47.25 163.875 C41.713 166.395 38.326 170.329 36 176 C35.097 184.146 36.522 191.623 38.688 199.438 C39.248 201.567 39.808 203.698 40.367 205.828 C40.786 207.401 40.786 207.401 41.214 209.006 C42.319 213.217 43.323 217.448 44.312 221.688 C45.72 227.697 47.168 233.696 48.668 239.683 C49.493 242.98 50.312 246.278 51.13 249.577 C51.538 251.213 51.949 252.848 52.364 254.483 C54.492 262.872 56.435 270.918 56.735 279.615 C56.856 282.006 56.856 282.006 58.004 283.931 C59.371 286.77 59.277 289.088 59.301 292.234 C59.306 292.875 59.312 293.516 59.317 294.176 C59.329 296.368 59.322 298.559 59.312 300.75 C59.311 301.91 59.311 301.91 59.31 303.094 C59.228 337.59 56.989 372.202 54.875 406.625 C54.762 408.468 54.762 408.468 54.647 410.349 C54.322 415.303 53.868 420.107 53 425 C49.04 425 45.08 425 41 425 C40.87 422.819 40.74 420.638 40.609 418.457 C39.484 413.918 36.831 411.553 33.02 409.016 C31.432 408.142 31.432 408.142 29.812 407.25 C24.038 404.038 24.038 404.038 23 403 C22.876 400.363 22.813 397.748 22.789 395.109 C22.763 393.444 22.737 391.779 22.71 390.115 C22.69 388.801 22.69 388.801 22.67 387.461 C22.455 374.371 22.096 361.562 19.891 348.637 C18.424 339.919 17.632 331.098 16.689 322.312 C15.601 312.184 14.376 302.093 13 292 C10.952 276.363 9.355 260.703 8.002 244.993 C7.942 244.307 7.883 243.621 7.821 242.915 C7.659 241.048 7.5 239.181 7.341 237.314 C7.119 235.157 6.834 233.006 6.477 230.868 C6.046 228.274 5.821 225.804 5.719 223.18 C5.681 222.315 5.644 221.45 5.605 220.559 C5.535 218.762 5.465 216.965 5.395 215.168 C5.357 214.306 5.32 213.443 5.281 212.555 C5.251 211.776 5.221 210.997 5.189 210.195 C5.002 208.029 4.534 206.102 4 204 C3.817 201.081 3.674 198.172 3.562 195.25 C3.282 188.837 2.905 182.448 2.329 176.055 C-0.738 141.633 -1.296 107.377 -1.196 72.835 C-1.185 68.1 -1.185 63.366 -1.186 58.632 C-1.185 54.004 -1.18 49.375 -1.173 44.746 C-1.17 42.57 -1.168 40.394 -1.167 38.218 C-1.158 25.443 -0.871 12.747 0 0 Z " fill="#FEFEFE" transform="translate(480,494)"/>
<path d="M0 0 C1.03 -0.01 2.061 -0.02 3.123 -0.031 C9.381 0.041 14.046 0.85 19.75 3.438 C20.541 3.791 21.333 4.144 22.148 4.508 C32.183 9.862 39.784 17.177 44.75 27.438 C45.089 28.121 45.428 28.804 45.777 29.508 C47.805 34.422 48.02 39.296 48.062 44.562 C48.071 45.566 48.071 45.566 48.08 46.59 C47.916 57.84 42.597 69.306 34.941 77.492 C30.256 81.651 25.013 85.06 19.75 88.438 C18.835 89.039 17.92 89.641 16.977 90.262 C16.242 90.65 15.507 91.038 14.75 91.438 C14.09 91.108 13.43 90.778 12.75 90.438 C13.584 89.748 14.418 89.058 15.277 88.348 C18.802 85.416 22.282 82.436 25.75 79.438 C27.065 78.31 27.065 78.31 28.406 77.16 C34.583 71.481 37.693 65.195 40.75 57.438 C38.423 59.287 36.103 61.132 33.855 63.078 C29.413 66.805 24.726 69.648 19.539 72.211 C18.496 72.729 18.496 72.729 17.432 73.257 C10.174 76.806 2.73 79.859 -4.759 82.88 C-22.52 90.069 -40.237 97.252 -55.25 109.438 C-55.962 109.987 -56.673 110.536 -57.406 111.102 C-72.157 123.073 -81.589 143.152 -85.25 161.438 C-85.509 162.556 -85.509 162.556 -85.774 163.698 C-87.194 170.073 -87.599 176.166 -87.562 182.688 C-87.559 183.693 -87.556 184.699 -87.552 185.735 C-87.388 197.006 -84.868 206.788 -81.25 217.438 C-54.443 296.429 -54.443 296.429 -72.25 334.438 C-77.938 345.159 -86.028 353.694 -95.142 361.581 C-109.445 374.179 -123.62 388.966 -127.25 408.438 C-127.568 415.494 -127.574 422.484 -126.25 429.438 C-130.699 425.909 -132.177 421.854 -133.25 416.438 C-134.909 399.852 -129.18 386.415 -118.891 373.767 C-114.151 368.199 -109.049 363.122 -103.477 358.387 C-85.39 342.553 -72.961 322.583 -71.07 298.106 C-69.59 270.862 -78.759 244.68 -88.625 219.625 C-99.666 190.642 -96.452 161.93 -84.344 133.846 C-70.338 103.022 -42.575 88.16 -12.25 76.438 C-9.387 75.38 -6.511 74.367 -3.625 73.375 C20.957 66.305 20.957 66.305 38.75 49.438 C24.938 49.663 12.081 50.781 -1.25 54.438 C-2.452 54.757 -2.452 54.757 -3.679 55.083 C-37.397 64.134 -67.372 80.514 -85.25 111.438 C-91.402 122.875 -97.032 134.821 -100.25 147.438 C-100.443 148.184 -100.636 148.93 -100.835 149.699 C-103.803 161.732 -104.639 173.653 -104.688 186 C-104.697 187.008 -104.697 187.008 -104.706 188.037 C-104.761 197.247 -103.723 205.571 -101.25 214.438 C-101.046 215.191 -100.842 215.945 -100.632 216.721 C-100.093 218.655 -99.516 220.578 -98.938 222.5 C-98.728 223.202 -98.519 223.904 -98.303 224.627 C-97.138 228.523 -95.954 232.412 -94.77 236.301 C-93.49 240.508 -92.237 244.722 -90.995 248.941 C-90.272 251.365 -89.516 253.778 -88.758 256.191 C-81.945 278.716 -84.41 300.552 -95.25 321.438 C-99.85 329.389 -105.323 336.648 -111.125 343.75 C-124.669 360.359 -139.661 380.47 -139.625 402.75 C-139.626 403.587 -139.628 404.423 -139.629 405.285 C-139.518 411.744 -138.19 416.676 -135.25 422.438 C-135.25 423.098 -135.25 423.757 -135.25 424.438 C-139.463 422.948 -140.555 420.551 -142.438 416.625 C-142.947 415.587 -143.456 414.55 -143.98 413.48 C-150.031 398.977 -145.18 382.254 -139.562 368.375 C-134.634 357.505 -128.419 347.698 -121.054 338.338 C-103.905 316.488 -92.683 293.782 -95.25 265.438 C-97.03 253.725 -101.548 242.466 -105.362 231.305 C-119.088 190.609 -114.028 150.757 -95.444 112.558 C-79.981 81.689 -56.655 61.523 -24.139 50.19 C-21.193 49.212 -18.228 48.313 -15.25 47.438 C-14.254 47.142 -13.257 46.847 -12.23 46.543 C-9.576 45.789 -6.936 45.073 -4.25 44.438 C-3.606 44.266 -2.961 44.095 -2.297 43.918 C5.241 42.122 12.741 42.167 20.439 42.232 C22.707 42.25 24.975 42.252 27.244 42.252 C38.306 42.289 38.306 42.289 41.75 43.438 C41.42 40.798 41.09 38.157 40.75 35.438 C17.693 26.044 -6.705 30.418 -29.25 39.438 C-36.165 42.477 -43.358 45.656 -49.25 50.438 C-49.91 50.108 -50.57 49.778 -51.25 49.438 C-30.76 30.961 -5.278 24.449 21.714 25.232 C27.7 25.637 33.182 27.206 38.75 29.438 C33.876 21.82 28.405 18.542 19.75 16.438 C15.969 16.032 12.238 16.008 8.438 16.062 C6.91 16.076 6.91 16.076 5.352 16.089 C-1.911 16.231 -8.349 17.11 -15.25 19.438 C-16.702 19.803 -16.702 19.803 -18.184 20.176 C-48.199 28.082 -72.673 51.117 -88.164 77.293 C-90.024 80.487 -91.841 83.703 -93.645 86.93 C-100.929 99.777 -100.929 99.777 -104.25 101.438 C-104.25 99.127 -104.25 96.817 -104.25 94.438 C-108.073 103.651 -111.535 112.824 -114.25 122.438 C-114.516 123.306 -114.781 124.175 -115.055 125.07 C-119.873 142.107 -120.545 159.847 -120.625 177.438 C-120.633 178.213 -120.641 178.988 -120.649 179.787 C-120.764 194.412 -118.177 207.568 -114.851 221.785 C-112.326 232.876 -110.69 243.545 -110.688 254.938 C-110.685 256.003 -110.683 257.069 -110.681 258.167 C-111.227 284.251 -124.538 304.688 -140.875 323.875 C-152.592 338.163 -157.743 353.103 -158.25 371.438 C-160.25 370.438 -160.25 370.438 -161.344 368.301 C-165.033 356.645 -161.528 344.95 -156.25 334.438 C-152.112 327.134 -146.951 320.769 -141.605 314.328 C-133.018 303.789 -126.338 293.076 -121.25 280.438 C-120.978 279.774 -120.705 279.111 -120.424 278.428 C-111.633 256.204 -116.328 231.891 -122.289 209.535 C-125.195 197.783 -125.616 186.217 -125.562 174.188 C-125.561 173.355 -125.56 172.523 -125.558 171.665 C-125.495 151.897 -124.054 132.434 -118.25 113.438 C-117.87 112.15 -117.87 112.15 -117.482 110.837 C-109.086 82.735 -96.787 57.513 -76.25 36.438 C-75.306 35.384 -75.306 35.384 -74.344 34.309 C-62.438 21.384 -44.101 10.903 -27.578 5.535 C-24.317 4.519 -24.317 4.519 -21.547 3.246 C-14.439 0.264 -7.608 0.049 0 0 Z " fill="#F3F4F4" transform="translate(501.25,174.5625)"/>
<path d="M0 0 C0.66 0 1.32 0 2 0 C3.212 9.657 3.22 19.331 3.24 29.048 C3.25 31.834 3.281 34.62 3.312 37.406 C3.425 56.372 1.521 74.458 -6 92 C-6.263 92.614 -6.526 93.228 -6.797 93.861 C-16.452 115.798 -33.919 137.095 -56 147 C-67.857 151.031 -80.029 146.988 -90.75 141.938 C-118.218 128.045 -139.322 103.711 -152 76 C-152.518 74.876 -153.036 73.752 -153.57 72.594 C-155.099 68.751 -156.067 65.029 -156.938 61 C-158.521 53.918 -160.355 46.949 -162.363 39.977 C-163 37 -163 37 -162 34 C-161.611 34.678 -161.221 35.356 -160.82 36.055 C-153.472 48.28 -144.65 57.263 -131 62 C-122.139 63.563 -114.18 61.57 -106.812 56.492 C-97.872 49.211 -92.43 39.444 -91 28 C-90.34 28.33 -89.68 28.66 -89 29 C-88.438 31.457 -88.438 31.457 -88 34.812 C-87.754 36.694 -87.754 36.694 -87.504 38.613 C-86.816 44.423 -86.242 50.245 -85.697 56.07 C-85.287 60.418 -84.789 64.7 -84 69 C-87.375 68.453 -89.082 67.945 -92 66 C-92.293 63.836 -92.293 63.836 -92.188 61.375 C-92.16 60.558 -92.133 59.74 -92.105 58.898 C-92.053 57.959 -92.053 57.959 -92 57 C-95.118 57.646 -95.118 57.646 -96 60 C-96.47 63.079 -96.57 65.931 -96 69 C-92.276 72.452 -87.676 74.13 -83 76 C-83 76.66 -83 77.32 -83 78 C-81.02 78 -79.04 78 -77 78 C-77.672 72.523 -78.348 67.046 -79.026 61.569 C-79.256 59.711 -79.485 57.853 -79.713 55.995 C-81.397 42.147 -81.397 42.147 -83.655 28.384 C-84.016 25.891 -84.06 23.516 -84 21 C-81.672 21.16 -81.672 21.16 -79 22 C-77.516 24.371 -77.516 24.371 -76.25 27.438 C-71.619 37.399 -64.628 44.725 -55 50 C-54.401 50.339 -53.801 50.678 -53.184 51.027 C-45.733 54.519 -36.183 54.459 -28.539 51.793 C-15.64 45.503 -9.968 36.904 -5.027 23.66 C-3.635 18.701 -3.048 13.774 -2.632 8.648 C-2.327 4.996 -2.078 3.118 0 0 Z " fill="#FEFEFE" transform="translate(600,338)"/>
<path d="M0 0 C1.273 0.514 2.544 1.036 3.812 1.562 C13.701 5.034 25.85 3.206 36.074 2.23 C55.921 0.667 70.982 4.784 86.125 17.688 C90.499 21.482 94.678 25.473 98.598 29.738 C102.968 34.435 107.924 37.774 113.328 41.203 C115.535 42.687 117.355 43.922 119 46 C118.755 49.342 118.395 50.605 116 53 C109.598 53.915 105.869 52.385 100.5 48.898 C97.126 46.336 94.269 43.427 91.348 40.367 C83.13 32.081 67.435 17.547 55.172 16.836 C54.455 16.89 53.738 16.944 53 17 C53.26 20.187 54.004 21.004 56.484 23.121 C57.568 23.899 58.657 24.671 59.75 25.438 C72.474 34.848 82.053 46.232 91.421 58.896 C94.384 62.844 97.479 66.691 100.575 70.535 C106.108 77.489 106.108 77.489 105.812 81.625 C105 84 105 84 102 86 C99.609 86.395 99.609 86.395 97 86 C89.565 80.325 83.816 72.256 78 65 C68.898 53.809 59.395 43.238 48.062 34.25 C47.531 33.819 46.999 33.388 46.452 32.945 C43.212 30.467 41.086 29.488 37 30 C38.567 34.28 41.829 36.594 45.25 39.375 C58.636 50.607 69.816 62.799 80 77 C80.415 77.564 80.83 78.129 81.257 78.71 C87.564 87.341 87.564 87.341 86.938 92.188 C86.628 93.116 86.319 94.044 86 95 C78.834 95.65 78.834 95.65 75.129 92.762 C74.25 91.757 73.395 90.731 72.562 89.688 C72.099 89.146 71.635 88.604 71.157 88.046 C69.745 86.384 68.369 84.698 67 83 C66.212 82.033 65.425 81.066 64.613 80.07 C63.134 78.248 61.658 76.424 60.184 74.598 C50.584 63.178 38.002 51.43 25 44 C23.68 44 22.36 44 21 44 C21.284 47.383 21.723 48.729 24.188 51.141 C25.116 51.837 26.044 52.533 27 53.25 C39.102 62.744 48.403 74.125 56.688 87 C57.351 88.031 58.015 89.062 58.699 90.125 C60.157 93.347 60.099 94.698 59 98 C56.438 98.812 56.438 98.812 53 99 C47.135 95.901 43.78 91.37 39.707 86.234 C31.463 76.149 21.353 65.577 10 59 C8.68 59 7.36 59 6 59 C6.575 62.399 7.588 63.915 10.133 66.207 C10.775 66.794 11.417 67.381 12.078 67.986 C12.754 68.589 13.429 69.192 14.125 69.812 C15.441 71.005 16.756 72.199 18.07 73.395 C18.723 73.988 19.375 74.581 20.048 75.192 C35.134 89.163 35.134 89.163 36.473 95.094 C36.5 97 36.5 97 36 100 C35 101 35 101 32.5 101.5 C25.05 100.436 19.772 93.795 14.5 88.812 C1.949 77.115 -12.318 68.915 -27.57 61.243 C-38.188 55.812 -38.188 55.812 -41 53 C-42.482 39.91 -35.476 26.131 -27.711 16.02 C-20.622 7.861 -11.515 -2.611 0 0 Z " fill="#FEFEFE" transform="translate(397,867)"/>
<path d="M0 0 C0.33 0 0.66 0 1 0 C2.189 6.321 2.294 12.574 2.35 18.983 C2.367 20.357 2.394 21.731 2.432 23.104 C2.875 39.074 -2.137 50.671 -12 63 C-14.122 65.175 -16.26 67.241 -18.566 69.219 C-20.195 70.953 -20.195 70.953 -20.457 73.484 C-19.861 76.768 -18.698 77.681 -16.125 79.75 C-15.406 80.343 -14.686 80.936 -13.945 81.547 C-12.063 83.042 -12.063 83.042 -10 84 C-10.608 89.656 -11.619 95.008 -13.039 100.512 C-13.342 101.709 -13.342 101.709 -13.65 102.931 C-14.304 105.518 -14.965 108.102 -15.625 110.688 C-16.539 114.294 -17.449 117.901 -18.359 121.508 C-18.586 122.403 -18.812 123.299 -19.046 124.222 C-21.049 132.155 -22.974 140.105 -24.875 148.062 C-32 177.751 -32 177.751 -35 184 C-37.094 184.695 -37.094 184.695 -39 185 C-39.326 184.01 -39.652 183.02 -39.988 182 C-40.43 180.667 -40.871 179.333 -41.312 178 C-41.526 177.352 -41.739 176.703 -41.959 176.035 C-42.283 175.059 -42.283 175.059 -42.613 174.062 C-42.904 173.183 -42.904 173.183 -43.2 172.285 C-44.148 169.576 -45.168 166.896 -46.18 164.211 C-47.59 160.409 -48.918 156.579 -50.25 152.75 C-50.699 151.464 -50.699 151.464 -51.157 150.151 C-52.425 146.519 -53.691 142.887 -54.957 139.254 C-55.887 136.586 -56.819 133.918 -57.75 131.25 C-58.031 130.441 -58.313 129.633 -58.603 128.8 C-60.648 122.942 -62.806 117.134 -65.015 111.335 C-65.965 108.834 -66.889 106.324 -67.812 103.812 C-68.318 102.499 -68.318 102.499 -68.834 101.158 C-71.154 94.77 -71.154 94.77 -70.422 91.105 C-68.471 88.216 -66.16 86.137 -63.559 83.844 C-61.464 81.366 -60.81 80.285 -61 77 C-63.048 74.388 -65.536 72.326 -68.062 70.188 C-75.391 63.86 -81.047 57.534 -85.312 48.75 C-85.804 47.755 -86.295 46.76 -86.801 45.734 C-89.009 40.7 -89.125 36.201 -89.062 30.75 C-89.058 30.005 -89.053 29.26 -89.049 28.492 C-89.037 26.661 -89.019 24.831 -89 23 C-87.983 23.671 -87.983 23.671 -86.945 24.355 C-80.806 28.343 -74.678 31.992 -68 35 C-67.343 35.321 -66.685 35.642 -66.008 35.973 C-55.961 40.175 -43.038 39.497 -33.062 35.5 C-16.212 28.127 -7.442 16.14 0 0 Z " fill="#FEFEFE" transform="translate(578,468)"/>
<path d="M0 0 C12.79 4.506 23.582 14.559 33 24 C33.834 24.822 34.668 25.645 35.527 26.492 C46.064 37.479 57 56.271 57 72 C54.69 72.99 52.38 73.98 50 75 C49.322 74.264 48.644 73.528 47.945 72.77 C40.42 64.804 32.868 58.535 21.496 57.762 C12.924 57.527 5.802 58.044 -2 62 C-2.824 62.413 -3.647 62.825 -4.496 63.25 C-11.839 67.494 -14.53 73.342 -17.023 81.242 C-18.113 84.464 -19.103 87.173 -21 90 C-24.652 91.749 -27.978 92.121 -32 92 C-32.835 91.979 -33.671 91.959 -34.531 91.938 C-38.307 90.504 -39.897 87.457 -42 84.188 C-47.173 76.291 -52.611 71.306 -62 69 C-73.667 67.471 -84.219 68.819 -93.781 76.125 C-97.49 79.354 -100.852 82.684 -103.875 86.562 C-104.576 87.367 -105.277 88.171 -106 89 C-107.32 89 -108.64 89 -110 89 C-110.482 86.646 -110.96 84.292 -111.438 81.938 C-111.572 81.281 -111.707 80.624 -111.846 79.947 C-112.246 77.967 -112.623 75.984 -113 74 C-113.249 72.762 -113.498 71.525 -113.754 70.25 C-114 67 -114 67 -113.094 64.848 C-105.044 55.831 -93.526 50.922 -82 48 C-79.786 47.296 -77.589 46.55 -75.391 45.801 C-73.7 45.234 -72.001 44.693 -70.297 44.168 C-61.823 41.506 -53.94 37.927 -46 34 C-45.317 33.669 -44.635 33.337 -43.932 32.996 C-28.081 25.255 -10.462 14.555 0 0 Z " fill="#FEFEFE" transform="translate(542,254)"/>
<path d="M0 0 C4.734 2.938 9.659 6.881 12.188 11.938 C12.635 19.769 12.639 27.441 10.188 34.938 C9.881 35.882 9.574 36.827 9.258 37.801 C5.984 46.685 0.759 54.416 -7.375 59.562 C-14.686 62.583 -23.892 62.379 -31.234 59.68 C-40.774 54.474 -47.707 46.985 -51.812 36.938 C-52.225 36.03 -52.638 35.123 -53.062 34.188 C-54.565 27.679 -55.268 20.626 -51.875 14.625 C-41.077 0.046 -16.981 -8.042 0 0 Z " fill="#FEFEFE" transform="translate(579.8125,325.0625)"/>
<path d="M0 0 C1.98 0.66 3.96 1.32 6 2 C6.13 8.696 5.671 15.112 4.812 21.75 C4.683 22.772 4.554 23.794 4.42 24.847 C3.15 34.503 1.518 44.09 -0.198 53.675 C-2.932 67.752 -2.932 67.752 -4 82 C0.801 71.492 5.556 61.046 9 50 C9.382 48.781 9.763 47.561 10.156 46.305 C13.905 33.132 13.826 19.608 14 6 C31.894 17.355 38.933 35.173 44 55 C44.229 55.871 44.458 56.742 44.694 57.639 C48.405 71.768 51.572 85.992 54.577 100.286 C55.898 106.551 57.254 112.809 58.613 119.066 C67.248 158.856 67.248 158.856 70.938 177.702 C72.49 185.587 74.183 193.433 75.935 201.277 C79.514 217.311 82.622 233.42 85.651 249.567 C85.814 250.435 85.977 251.304 86.145 252.199 C86.305 253.055 86.465 253.91 86.631 254.791 C87.757 260.776 88.95 266.744 90.184 272.708 C94.152 291.919 96.542 310.356 96 330 C95.34 330 94.68 330 94 330 C93.781 329.466 93.562 328.933 93.336 328.383 C88.333 316.628 81.639 305.486 71 298 C71.413 298.536 71.825 299.072 72.25 299.625 C81.661 312.396 89.804 327.428 89.363 343.672 C89 346 89 346 87.125 348.688 C85 350 85 350 83 350 C82.997 348.886 82.995 347.773 82.992 346.625 C82.54 322.495 70.54 305.619 56.401 286.894 C55.22 285.297 54.102 283.653 53 282 C67.999 289.389 79.394 297.967 90 311 C90.21 306.859 90.21 306.859 89 303 C88.821 301.608 88.68 300.211 88.562 298.812 C88.143 294.685 87.15 290.993 86 287 C85.668 285.149 85.357 283.295 85.062 281.438 C84.381 277.149 83.572 272.925 82.625 268.688 C81.311 262.705 80.242 256.703 79.223 250.664 C77.177 238.739 74.867 226.874 72.481 215.012 C71.799 211.618 71.123 208.222 70.447 204.826 C70.013 202.659 69.579 200.491 69.145 198.324 C68.843 196.807 68.843 196.807 68.535 195.26 C68.348 194.333 68.161 193.407 67.968 192.452 C67.805 191.637 67.641 190.823 67.473 189.984 C67.066 187.942 67.066 187.942 66 186 C65.537 183.251 65.112 180.504 64.707 177.746 C63.035 166.782 60.892 155.93 58.688 145.062 C58.285 143.066 57.883 141.069 57.481 139.072 C55.099 127.269 52.666 115.477 50.094 103.714 C48.862 98.077 47.683 92.437 46.582 86.773 C40.548 50.147 40.548 50.147 22 19 C21.864 19.664 21.728 20.328 21.589 21.013 C15.017 53.086 7.085 86.882 -14 113 C-14.66 113 -15.32 113 -16 113 C-15.075 103.911 -13.929 95.128 -11.723 86.246 C-10.646 81.41 -10.074 76.534 -9.461 71.621 C-8.484 63.945 -7.088 56.384 -5.5 48.812 C-4.075 41.831 -3.185 34.859 -2.43 27.777 C-2.175 25.54 -1.876 23.306 -1.48 21.09 C-0.836 16.944 -0.641 12.812 -0.438 8.625 C-0.394 7.794 -0.351 6.962 -0.307 6.105 C-0.201 4.07 -0.1 2.035 0 0 Z " fill="#EBEBEB" transform="translate(725,539)"/>
<path d="M0 0 C3.006 1.738 5.522 3.568 8 6 C8.526 6.516 9.052 7.031 9.594 7.562 C14.418 13.565 14.031 21.516 13.334 28.828 C12.066 37.074 8.203 45.194 1.828 50.668 C1.225 51.108 0.622 51.547 0 52 C-0.583 52.429 -1.165 52.859 -1.766 53.301 C-7.703 56.931 -14.258 57.034 -21 56 C-34.007 51.359 -41.825 40.864 -48 29 C-53.213 17.416 -53.213 17.416 -52.812 12.875 C-49.207 4.554 -42.479 -0.774 -34.289 -4.102 C-22.788 -7.243 -10.423 -5.564 0 0 Z " fill="#FEFEFE" transform="translate(490,339)"/>
<path d="M0 0 C8.506 6.966 12.248 26.59 13.578 37.043 C15.349 54.965 16.036 73.51 8 90 C7.459 91.121 6.917 92.243 6.359 93.398 C2.536 100.492 -2.393 106.257 -8 112 C-8.695 112.733 -9.39 113.467 -10.105 114.223 C-14.111 118.367 -18.14 121.889 -23 125 C-23.66 125 -24.32 125 -25 125 C-25 125.66 -25 126.32 -25 127 C-24.478 127.165 -23.956 127.33 -23.418 127.5 C-17.154 129.529 -11.072 131.894 -5 134.438 C-3.571 135.011 -3.571 135.011 -2.113 135.596 C-1.21 135.975 -0.306 136.355 0.625 136.746 C1.442 137.083 2.26 137.42 3.102 137.767 C5 139 5 139 5.773 141.141 C5.848 141.754 5.923 142.368 6 143 C-1.345 147.551 -8.874 151.623 -16.562 155.562 C-18.71 156.667 -20.857 157.772 -23.004 158.879 C-24.02 159.402 -25.036 159.926 -26.083 160.465 C-29.526 162.276 -32.908 164.181 -36.273 166.133 C-38 167 -38 167 -40 167 C-35.57 179.789 -31.018 192.521 -26.25 205.188 C-25.939 206.015 -25.629 206.842 -25.308 207.694 C-12.665 241.331 0.288 274.852 14.093 308.03 C51.838 398.756 51.838 398.756 51 425 C49.246 422.004 48.504 419.062 47.812 415.677 C43.616 395.355 34.274 376.38 26.222 357.361 C6.847 311.597 -11.244 265.348 -28.77 218.848 C-29.34 217.335 -29.91 215.822 -30.48 214.309 C-30.763 213.559 -31.046 212.808 -31.337 212.036 C-33.203 207.093 -35.086 202.157 -36.98 197.225 C-38.298 193.791 -39.611 190.356 -40.924 186.92 C-41.553 185.278 -42.185 183.636 -42.819 181.996 C-43.695 179.727 -44.563 177.456 -45.43 175.184 C-45.822 174.177 -45.822 174.177 -46.223 173.15 C-47.48 169.829 -48 167.617 -48 164 C-47.144 163.577 -46.287 163.154 -45.405 162.718 C-42.178 161.123 -38.955 159.523 -35.732 157.921 C-34.346 157.233 -32.959 156.546 -31.572 155.861 C-24.138 152.19 -16.84 148.491 -9.833 144.036 C-8 143 -8 143 -6 143 C-6 142.34 -6 141.68 -6 141 C-6.99 140.732 -7.98 140.464 -9 140.188 C-13.087 139.015 -17.038 137.536 -21 136 C-22.682 135.354 -22.682 135.354 -24.398 134.695 C-27.6 133.466 -30.8 132.234 -34 131 C-34 130.01 -34 129.02 -34 128 C-31.914 126.194 -29.844 124.564 -27.625 122.938 C-9.218 108.896 3.624 91.785 9 69 C9.479 64.356 9.48 59.789 9.375 55.125 C9.35 53.278 9.35 53.278 9.325 51.393 C9.027 35.911 6.218 21.846 2 7 C1.801 6.301 1.603 5.603 1.398 4.883 C0.934 3.255 0.467 1.627 0 0 Z " fill="#F3F4F4" transform="translate(444,440)"/>
<path d="M0 0 C0.034 0.601 0.069 1.203 0.104 1.822 C1.003 16.567 3.006 30.665 6.322 45.055 C6.998 47.99 7.65 50.93 8.297 53.871 C10.945 65.836 13.77 77.738 17.359 89.461 C20.107 98.59 21.765 106.383 21 116 C17.68 114.34 17.098 110.702 15.875 107.375 C15.573 106.555 15.271 105.734 14.96 104.889 C10.36 91.887 7.264 78.386 4 65 C3.777 64.088 3.554 63.176 3.324 62.237 C2.171 57.501 1.075 52.754 0 48 C-0.339 46.551 -0.679 45.101 -1.02 43.652 C-3.528 32.836 -5.393 21.984 -7 11 C-20.207 25.558 -27.604 41.537 -34 60 C-34.264 60.756 -34.528 61.511 -34.799 62.29 C-38.886 74.162 -41.954 86.307 -45.039 98.469 C-46.908 105.828 -48.855 113.152 -51 120.438 C-53.542 129.136 -55.801 137.898 -58 146.688 C-58.308 147.915 -58.616 149.142 -58.934 150.406 C-60.706 157.549 -62.396 164.706 -64.031 171.881 C-67.638 187.697 -71.596 203.412 -75.625 219.125 C-76.287 221.713 -76.948 224.302 -77.609 226.891 C-78.564 230.629 -79.519 234.367 -80.475 238.105 C-83.771 251.004 -87.037 263.909 -90.062 276.875 C-90.305 277.892 -90.548 278.909 -90.799 279.957 C-94.274 294.873 -96.499 309.229 -96.336 324.562 C-96.312 326.961 -96.316 329.36 -96.322 331.76 C-96.306 340.036 -95.949 347.907 -94 356 C-96.434 353.682 -97.562 352.042 -98.562 348.812 C-98.791 348.097 -99.019 347.382 -99.254 346.645 C-99.623 345.335 -99.623 345.335 -100 344 C-100.354 342.819 -100.709 341.638 -101.074 340.422 C-102.375 335.124 -102.299 329.865 -102.25 324.438 C-102.245 323.384 -102.241 322.33 -102.236 321.244 C-102.002 301.005 -102.002 301.005 -99 295 C-98.668 293.036 -98.373 291.066 -98.098 289.094 C-97.162 282.811 -95.905 276.677 -94.438 270.5 C-94.183 269.413 -93.928 268.325 -93.666 267.205 C-89.877 251.113 -85.947 235.054 -82 219 C-81.829 218.302 -81.657 217.605 -81.481 216.886 C-75.371 192.029 -75.371 192.029 -71.949 180.422 C-70.744 176.078 -69.714 171.702 -68.688 167.312 C-65.948 155.602 -62.921 143.972 -59.873 132.339 C-59.03 129.114 -58.193 125.888 -57.359 122.66 C-56.844 120.669 -56.328 118.678 -55.812 116.688 C-55.587 115.812 -55.361 114.937 -55.129 114.036 C-30.843 20.577 -30.843 20.577 -4 1 C-2 0 -2 0 0 0 Z " fill="#F3F4F4" transform="translate(328,543)"/>
<path d="M0 0 C3.382 1.618 6.586 3.425 9.75 5.438 C10.735 6.034 11.72 6.631 12.734 7.246 C16.286 11.563 15.411 15.619 15 21 C14.913 22.582 14.913 22.582 14.824 24.196 C14.628 27.571 14.384 30.941 14.125 34.312 C13.99 36.112 13.99 36.112 13.852 37.948 C13.317 44.775 12.598 51.48 11.508 58.238 C10.265 67.442 9.71 76.742 9 86 C7.909 86.309 6.819 86.619 5.695 86.938 C3.413 87.594 1.137 88.276 -1.125 89 C-5.635 90.302 -10.277 90.869 -14.914 91.535 C-17.633 91.945 -20.307 92.45 -23 93 C-21.696 85.276 -20.028 77.705 -18.102 70.113 C-17.825 69.013 -17.549 67.912 -17.264 66.778 C-16.388 63.289 -15.507 59.801 -14.625 56.312 C-14.041 53.993 -13.458 51.673 -12.875 49.354 C-11.755 44.897 -10.632 40.442 -9.508 35.987 C-8.407 31.622 -7.316 27.256 -6.231 22.887 C-4.826 17.229 -3.382 11.597 -1.75 6 C-1.247 4.268 -1.247 4.268 -0.734 2.5 C-0.492 1.675 -0.25 0.85 0 0 Z " fill="#FEFEFE" transform="translate(574,558)"/>
<path d="M0 0 C1.875 1.781 1.875 1.781 3 3.5 C3.588 4.351 3.588 4.351 4.188 5.219 C5 7 5 7 5 11 C4.438 10.842 3.876 10.684 3.297 10.521 C-24.663 4.175 -59.238 13.871 -86.895 18.668 C-87.946 18.849 -87.946 18.849 -89.018 19.033 C-92.617 19.668 -92.617 19.668 -96 21 C-97.724 21.323 -99.454 21.608 -101.188 21.875 C-123.47 24.908 -123.47 24.908 -143 35 C-143.66 35 -144.32 35 -145 35 C-145.347 30.129 -145.542 26.196 -143.5 21.688 C-137.329 15.054 -130.174 12.859 -121.5 11 C-120.386 10.751 -119.272 10.503 -118.124 10.247 C-106.379 7.714 -94.53 5.92 -82.648 4.176 C-77.424 3.402 -72.246 2.499 -67.062 1.492 C-58.955 -0.071 -50.822 -1.207 -42.625 -2.188 C-41.91 -2.273 -41.195 -2.359 -40.458 -2.448 C-9.572 -6.107 -9.572 -6.107 0 0 Z " fill="#F3F4F4" transform="translate(666,647)"/>
<path d="M0 0 C5.084 1.577 8.707 4.671 12.75 8 C13.463 8.587 14.176 9.173 14.911 9.778 C36.828 28.101 49.155 54.23 56.188 81.5 C56.478 82.623 56.768 83.746 57.068 84.903 C59.906 96.162 62.316 107.51 64.688 118.875 C64.874 119.767 65.06 120.659 65.252 121.578 C67.306 131.457 69.289 141.351 71.207 151.258 C71.456 152.525 71.456 152.525 71.709 153.817 C72.624 158.596 73.311 163.331 73.747 168.178 C73.914 170.095 73.914 170.095 75 172 C75.157 173.434 75.276 174.873 75.375 176.312 C75.736 180.293 76.413 184.044 77.359 187.926 C78.782 193.941 79.986 199.978 81.143 206.05 C83.159 216.589 85.203 226.936 88.918 237.031 C89.962 239.896 90.757 242.732 91.5 245.688 C94.232 256.059 99.217 265.757 103.75 275.438 C107.611 283.753 111.423 292.085 115.062 300.5 C115.599 301.725 115.599 301.725 116.146 302.974 C119.318 310.383 122.502 317.942 122.188 326.125 C122.16 327.056 122.133 327.986 122.105 328.945 C122.071 329.623 122.036 330.301 122 331 C120.334 331.043 118.666 331.041 117 331 C115.315 329.315 115.668 326.94 115.438 324.625 C113.464 311.588 106.864 299.811 101.298 287.998 C90.891 265.855 82.315 244.272 77.506 220.201 C77.085 217.973 77.085 217.973 76 216 C75.725 213.897 75.556 211.793 75.379 209.68 C75.024 206.81 75.024 206.81 74.05 203.322 C73.033 199.305 72.367 195.273 71.816 191.168 C71.609 189.695 71.401 188.221 71.193 186.748 C70.877 184.471 70.563 182.194 70.253 179.917 C68.608 165.558 68.608 165.558 64 152 C63.963 150.571 63.986 149.14 64.043 147.711 C64.064 146.851 64.086 145.991 64.107 145.105 C64.16 143.308 64.225 141.511 64.303 139.715 C64.431 133.337 63.292 129.481 60 124 C59.67 123.67 59.34 123.34 59 123 C58.698 121.009 58.44 119.011 58.199 117.012 C57.022 108.439 55.001 100.176 52.812 91.812 C52.614 91.046 52.415 90.28 52.21 89.49 C47.113 69.919 41.167 53.149 28.988 36.773 C27.101 34.142 25.421 31.46 23.75 28.688 C17.647 18.94 9.632 10.271 1.328 2.355 C0 1 0 1 0 0 Z " fill="#F3F4F4" transform="translate(568,190)"/>
<path d="M0 0 C16.052 8.269 25.714 29.948 34.625 44.727 C35.5 46.173 36.39 47.611 37.301 49.035 C40.051 53.463 40.051 53.463 39.805 56.064 C38.346 59.573 34.504 60.73 31.246 62.328 C30.471 62.722 29.695 63.116 28.896 63.522 C26.416 64.778 23.927 66.014 21.438 67.25 C19.755 68.098 18.074 68.947 16.393 69.797 C12.269 71.879 8.137 73.944 4 76 C4 76.99 4 77.98 4 79 C5.146 79.555 6.292 80.109 7.472 80.681 C11.715 82.739 15.949 84.816 20.18 86.898 C22.014 87.797 23.85 88.691 25.689 89.581 C28.329 90.858 30.96 92.154 33.59 93.453 C34.416 93.848 35.242 94.243 36.093 94.65 C36.854 95.03 37.614 95.41 38.398 95.802 C39.071 96.13 39.744 96.459 40.437 96.798 C42 98 42 98 42.786 99.944 C43.13 103.249 41.787 105.67 40.508 108.699 C40.242 109.335 39.977 109.971 39.704 110.625 C38.855 112.651 37.99 114.669 37.125 116.688 C36.55 118.058 35.976 119.428 35.402 120.799 C31.188 130.812 31.188 130.812 30 132 C28 132.041 26 132.043 24 132 C26.264 125.095 28.69 118.261 31.188 111.438 C31.556 110.429 31.924 109.42 32.303 108.381 C33.201 105.92 34.1 103.46 35 101 C33.841 100.66 32.682 100.319 31.488 99.969 C24.831 97.748 18.589 94.606 12.296 91.53 C10.178 90.495 8.055 89.472 5.932 88.449 C4.573 87.79 3.214 87.13 1.855 86.469 C1.226 86.166 0.597 85.862 -0.051 85.55 C-3.289 83.96 -6.203 82.284 -9 80 C-8.774 77.677 -8.774 77.677 -8 75 C-6.105 73.458 -6.105 73.458 -3.617 72.168 C-2.704 71.683 -1.79 71.198 -0.849 70.698 C0.133 70.2 1.114 69.701 2.125 69.188 C3.612 68.407 3.612 68.407 5.13 67.61 C7.135 66.559 9.143 65.514 11.155 64.476 C13.695 63.158 16.215 61.812 18.727 60.441 C19.415 60.067 20.103 59.692 20.812 59.306 C22.077 58.617 23.342 57.926 24.606 57.235 C28.773 55 28.773 55 31 55 C25.239 42.512 18.138 31.133 10.671 19.603 C8.264 15.854 5.927 12.065 3.625 8.25 C3.25 7.636 2.875 7.023 2.489 6.39 C0 2.241 0 2.241 0 0 Z " fill="#F3F4F4" transform="translate(629,504)"/>
<path d="M0 0 C6.131 0.584 9.921 2.861 14.188 7.25 C19.395 15.151 20.017 22.697 19 32 C14.239 52.06 2.601 68.654 -14.605 79.945 C-19.254 82.759 -23.942 85.032 -29 87 C-29.695 87.294 -30.39 87.588 -31.105 87.891 C-40.061 91.537 -49.427 92.375 -59 93 C-54.031 98.828 -48.904 104.116 -43 109 C-43.99 109.495 -43.99 109.495 -45 110 C-53.945 103.67 -62.254 97.376 -69.336 88.969 C-70.415 87.692 -71.523 86.44 -72.664 85.219 C-78.683 78.696 -80.598 72.508 -80.363 63.629 C-79.807 59.604 -78.407 57.256 -76 54 C-75.01 53.505 -75.01 53.505 -74 53 C-73.34 53.33 -72.68 53.66 -72 54 C-72.506 56.169 -73 58 -74 60 C-74.722 67.035 -74.498 73.294 -70 79 C-63.98 84.548 -59.22 86.324 -51.078 86.207 C-35.851 85.183 -20.544 77.695 -9 68 C-8.37 67.482 -7.739 66.964 -7.09 66.43 C3.272 57.036 11.842 41.282 13.273 27.336 C13.533 19.772 12.497 14.195 8 8 C5.952 5.926 3.865 4.077 1.574 2.277 C1.055 1.856 0.535 1.434 0 1 C0 0.67 0 0.34 0 0 Z " fill="#F3F4F4" transform="translate(719,776)"/>
<path d="M0 0 C0.99 0.33 1.98 0.66 3 1 C5.271 11.35 5.276 21.462 5.23 31.992 C5.229 33.828 5.229 35.664 5.229 37.5 C5.228 41.337 5.219 45.175 5.206 49.013 C5.189 53.865 5.185 58.717 5.186 63.569 C5.185 80.818 5.178 98.034 4.229 115.261 C3.81 123.149 3.814 131.047 3.815 138.945 C3.812 141.66 3.794 144.375 3.775 147.09 C3.75 155.384 3.826 163.351 5.569 171.505 C6.064 174.372 6.067 177.097 6 180 C2.735 179.199 -0.507 178.325 -3.75 177.438 C-5.227 177.033 -5.227 177.033 -6.734 176.621 C-7.856 176.314 -7.856 176.314 -9 176 C-8.713 174.752 -8.425 173.504 -8.129 172.219 C-6.898 166.674 -5.905 161.096 -4.938 155.5 C-4.764 154.519 -4.591 153.538 -4.412 152.527 C-4.244 151.559 -4.076 150.591 -3.902 149.594 C-3.753 148.735 -3.603 147.875 -3.449 146.99 C-2.135 138.237 -1.714 129.567 -1.473 120.727 C-1.452 120.013 -1.432 119.299 -1.411 118.564 C-0.784 96.33 -0.659 74.086 -0.468 51.846 C-0.417 45.978 -0.361 40.11 -0.307 34.242 C-0.201 22.828 -0.099 11.414 0 0 Z " fill="#EBEBEB" transform="translate(357,656)"/>
<path d="M0 0 C0.33 0 0.66 0 1 0 C1.02 0.794 1.04 1.587 1.06 2.405 C1.894 34.341 3.542 65.135 16 95 C16.373 95.906 16.746 96.812 17.13 97.746 C23.775 113.796 30.756 130.386 41.039 144.504 C42 146 42 146 42 148 C29.678 143.651 25.149 133.772 19.625 122.518 C5.231 92.305 -5.092 61.613 -5.35 27.882 C-5.367 26.294 -5.394 24.706 -5.432 23.118 C-5.823 6.665 -5.823 6.665 0 0 Z " fill="#F3F4F4" transform="translate(625,367)"/>
<path d="M0 0 C2 1 2 1 2.623 2.753 C4.221 10.538 4.292 18.204 4.266 26.125 C4.267 27.563 4.269 29.001 4.271 30.44 C4.274 33.432 4.27 36.424 4.261 39.416 C4.249 43.253 4.256 47.091 4.268 50.929 C4.275 53.889 4.273 56.848 4.268 59.808 C4.266 61.224 4.268 62.64 4.273 64.056 C4.278 66.026 4.269 67.995 4.259 69.965 C4.256 71.645 4.256 71.645 4.254 73.359 C4 76 4 76 2 78 C-0.876 75.773 -3.751 73.543 -6.625 71.312 C-7.433 70.687 -8.241 70.061 -9.074 69.416 C-13.45 66.018 -17.771 62.579 -22 59 C-20.553 55.708 -18.721 53.471 -16.25 50.875 C-2.802 35.895 -0.143 19.441 0 0 Z " fill="#FEFEFE" transform="translate(587,483)"/>
<path d="M0 0 C1.438 2.062 1.438 2.062 2 4 C0.35 4.33 -1.3 4.66 -3 5 C-3.247 6.196 -3.495 7.392 -3.75 8.625 C-5.736 16.364 -10.73 21.326 -17 26 C-22.766 27.922 -29.031 28.099 -34.766 25.977 C-40.34 22.882 -43.908 19.138 -47.43 13.855 C-49.23 11.728 -50.283 11.359 -53 11 C-52.125 6.125 -52.125 6.125 -51 5 C-48.033 5.336 -45.129 5.674 -42.254 6.504 C-31.3 8.915 -21.954 7.563 -12.442 1.758 C-7.885 -0.956 -5.129 -1.434 0 0 Z " fill="#0D0C0D" transform="translate(556,427)"/>
<path d="M0 0 C3.639 1.3 4.144 1.54 5.938 4.688 C9.594 13.56 7.188 22.433 4.5 31.25 C4.269 32.023 4.038 32.796 3.8 33.592 C-2.35 53.81 -2.35 53.81 -10.5 60.25 C-10.83 60.25 -11.16 60.25 -11.5 60.25 C-11.602 53.721 -11.672 47.193 -11.72 40.664 C-11.74 38.446 -11.767 36.228 -11.802 34.01 C-11.851 30.81 -11.873 27.61 -11.891 24.41 C-11.911 23.429 -11.932 22.447 -11.953 21.436 C-11.956 13.707 -10.076 7.98 -5.688 1.625 C-3.5 0.25 -3.5 0.25 0 0 Z " fill="#FEFEFE" transform="translate(620.5,315.75)"/>
<path d="M0 0 C4.039 2.019 6.563 4.209 9 8 C8.67 8.66 8.34 9.32 8 10 C7.567 9.526 7.134 9.051 6.688 8.562 C3.329 5.453 -0.763 5.543 -5.117 5.594 C-14.207 6.875 -22.27 13.077 -29 19 C-29.688 19.606 -30.377 20.212 -31.086 20.836 C-36.486 25.905 -40.313 31.605 -44 38 C-44.402 38.691 -44.804 39.382 -45.219 40.094 C-50.168 49.242 -51.51 58.784 -51.438 69.062 C-51.467 70.579 -51.467 70.579 -51.498 72.127 C-51.494 78.451 -50.51 83.284 -47.86 89.037 C-47 91 -47 91 -47 93 C-51.905 91.637 -53.525 89.352 -56 85 C-60.869 74.398 -59.37 58.578 -55.875 47.688 C-54.977 45.433 -54.022 43.201 -53 41 C-52.542 40.01 -52.085 39.02 -51.613 38 C-48.234 31.334 -43.914 25.608 -39 20 C-38.407 19.312 -37.814 18.623 -37.203 17.914 C-27.977 7.939 -13.942 -1.888 0 0 Z " fill="#F3F4F4" transform="translate(403,852)"/>
<path d="M0 0 C1.98 0.66 3.96 1.32 6 2 C6.11 10.595 5.803 19.059 5.125 27.625 C4.274 39.067 3.674 50.505 3.18 61.968 C2.48 78.183 1.586 94.373 0.438 110.562 C0.373 111.485 0.309 112.407 0.243 113.358 C0.062 115.949 -0.126 118.539 -0.316 121.129 C-0.371 121.901 -0.425 122.673 -0.48 123.468 C-0.884 128.768 -0.884 128.768 -2 131 C-3.32 131 -4.64 131 -6 131 C-5.573 119.948 -5.119 108.903 -4.316 97.871 C-4.256 97.037 -4.196 96.203 -4.133 95.343 C-4.008 93.609 -3.882 91.875 -3.756 90.141 C-1.605 60.13 -0.82 30.071 0 0 Z " fill="#F3F4F4" transform="translate(546,788)"/>
<path d="M0 0 C1.58 -0.028 1.58 -0.028 3.193 -0.057 C10.318 0.002 15.848 1.376 22.25 4.5 C22.25 4.83 22.25 5.16 22.25 5.5 C21.515 5.49 20.78 5.479 20.022 5.468 C16.64 5.426 13.257 5.401 9.875 5.375 C8.141 5.35 8.141 5.35 6.371 5.324 C-0.606 5.285 -6.986 5.774 -13.75 7.5 C-14.883 7.784 -16.016 8.067 -17.184 8.359 C-42.343 15.819 -57.771 33.708 -72.691 54.207 C-73.215 54.847 -73.215 54.847 -73.75 55.5 C-74.08 55.5 -74.41 55.5 -74.75 55.5 C-73.694 40.848 -61.62 28.331 -50.91 19.035 C-35.461 6.904 -19.712 0.242 0 0 Z " fill="#F3F4F4" transform="translate(313.75,825.5)"/>
<path d="M0 0 C2.169 0.506 4 1 6 2 C5.337 6.374 3.765 10.179 1.973 14.188 C1.516 15.224 1.516 15.224 1.05 16.282 C0.06 18.524 -0.938 20.762 -1.938 23 C-2.624 24.544 -3.31 26.089 -3.996 27.633 C-18.817 60.913 -18.817 60.913 -27 74 C-28.304 70.088 -27.132 67.658 -25.812 63.938 C-25.386 62.688 -24.959 61.439 -24.52 60.152 C-22.808 55.383 -20.907 50.694 -19 46 C-18.395 44.505 -18.395 44.505 -17.779 42.981 C-11.958 28.609 -6.066 14.27 0 0 Z " fill="#F3F4F4" transform="translate(586,809)"/>
<path d="M0 0 C24.993 6.778 46.921 30.479 60 52 C60 52.66 60 53.32 60 54 C52.695 50.735 47.168 44.375 42.051 38.387 C33.673 28.637 25.115 19.994 14.78 12.323 C12.301 10.481 9.846 8.608 7.395 6.729 C6.236 5.843 5.075 4.961 3.91 4.083 C2.589 3.079 1.291 2.043 0 1 C0 0.67 0 0.34 0 0 Z " fill="#F3F4F4" transform="translate(549,247)"/>
<path d="M0 0 C1.32 0.66 2.64 1.32 4 2 C4 7.595 -0.493 11.887 -4 16 C-8.364 19.936 -11.828 21.443 -17.829 21.296 C-21.736 20.763 -24.978 19.068 -28.438 17.25 C-29.156 16.902 -29.875 16.554 -30.615 16.195 C-35.764 13.57 -35.764 13.57 -36.832 10.991 C-36.915 10.006 -36.915 10.006 -37 9 C-36.34 8.34 -35.68 7.68 -35 7 C-31.194 7.353 -28.372 8.727 -25.062 10.562 C-21.167 12.548 -18.437 13.908 -14 13 C-8.072 10.036 -4.216 5.008 0 0 Z " fill="#0D0C0D" transform="translate(575,344)"/>
<path d="M0 0 C2.688 0.312 2.688 0.312 5 1 C3.994 6.776 -0.318 10.738 -4.668 14.406 C-9.505 17.624 -14.434 18.084 -20 17 C-23.909 15.353 -27.434 13.288 -31 11 C-31.669 10.575 -32.338 10.149 -33.027 9.711 C-34.369 8.833 -35.688 7.922 -37 7 C-36.67 5.68 -36.34 4.36 -36 3 C-34.391 2.285 -34.391 2.285 -32 2 C-29.047 3.434 -29.047 3.434 -25.75 5.438 C-20.516 8.418 -17.037 10.33 -11 9 C-7.377 6.886 -4.259 4.385 -1.438 1.281 C-0.963 0.858 -0.489 0.436 0 0 Z " fill="#0D0C0D" transform="translate(492,358)"/>
<path d="M0 0 C8.771 3.904 15.859 8.598 23 15 C23.624 15.53 24.248 16.06 24.891 16.605 C35.953 26.66 46.376 44.042 47.938 59 C47.988 60.333 48.022 61.667 48 63 C45.085 59.562 43.552 55.752 41.875 51.625 C33.88 32.836 19.953 15.045 2.68 3.848 C1.795 3.238 0.911 2.628 0 2 C0 1.34 0 0.68 0 0 Z " fill="#EBEBEB" transform="translate(563,227)"/>
<path d="M0 0 C0.33 0 0.66 0 1 0 C1.052 6.594 1.086 13.188 1.11 19.781 C1.12 22.015 1.133 24.248 1.151 26.481 C1.263 41.122 0.709 55.454 -1 70 C-2.65 70 -4.3 70 -6 70 C-6.381 59.931 -5.207 50.052 -4.125 40.062 C-3.94 38.314 -3.755 36.566 -3.571 34.818 C-3.212 31.411 -2.851 28.004 -2.487 24.598 C-1.883 18.922 -1.311 13.243 -0.75 7.562 C-0.67 6.76 -0.59 5.958 -0.508 5.131 C-0.338 3.421 -0.169 1.71 0 0 Z " fill="#F3F4F4" transform="translate(596,573)"/>
<path d="M0 0 C0.66 0.33 1.32 0.66 2 1 C-1.115 6.151 -4.484 10.242 -10 13 C-17.427 13.912 -21.205 11.507 -27 7 C-26.67 6.34 -26.34 5.68 -26 5 C-24.961 5.058 -23.922 5.116 -22.852 5.176 C-14.807 5.484 -8.874 5.408 -1.82 0.996 C-1.22 0.667 -0.619 0.339 0 0 Z " fill="#EBEBEB" transform="translate(544,436)"/>
<path d="M0 0 C2.25 -0.312 2.25 -0.312 5 0 C7.976 2.654 8.894 4.376 9.562 8.312 C8.857 12.939 7.201 16.546 4 20 C1.828 20.727 1.828 20.727 0 21 C0.875 15.25 0.875 15.25 2 13 C2.417 10.042 2.417 10.042 2 7 C0.119 5.087 0.119 5.087 -2 4 C-1.34 2.68 -0.68 1.36 0 0 Z " fill="#161616" transform="translate(613,335)"/>
<path d="M0 0 C0 1.32 0 2.64 0 4 C-1.289 4.672 -2.581 5.337 -3.875 6 C-4.594 6.371 -5.314 6.743 -6.055 7.125 C-8 8 -8 8 -10 8 C-9.674 4.982 -9.389 3.403 -7.25 1.188 C-4.628 -0.196 -2.923 -0.244 0 0 Z " fill="#0D0C0D" transform="translate(539,404)"/>
<path d="M0 0 C3.466 2.737 4.658 6.571 6.188 10.562 C6.46 11.248 6.733 11.933 7.014 12.639 C9 17.712 9 17.712 9 20 C8.34 20 7.68 20 7 20 C6.67 20.99 6.34 21.98 6 23 C5.734 21.926 5.469 20.852 5.195 19.746 C4.839 18.31 4.482 16.874 4.125 15.438 C3.951 14.733 3.777 14.029 3.598 13.303 C2.487 8.84 1.288 4.415 0 0 Z " fill="#C0C1C1" transform="translate(444,440)"/>
<path d="M0 0 C2 1 2 1 3 3 C2.036 3.471 1.072 3.941 0.078 4.426 C-1.198 5.054 -2.474 5.683 -3.75 6.312 C-4.701 6.776 -4.701 6.776 -5.672 7.248 C-9.031 8.91 -12.099 10.619 -15 13 C-15.66 12.67 -16.32 12.34 -17 12 C-5.982 2.866 -5.982 2.866 0 0 Z " fill="#E0E0E1" transform="translate(467,212)"/>
<path d="M0 0 C0.33 0 0.66 0 1 0 C2.153 6.342 2.095 12.567 2 19 C0.159 15.814 -0.381 13.153 -0.688 9.5 C-0.774 8.562 -0.86 7.623 -0.949 6.656 C-0.996 4.193 -0.733 2.336 0 0 Z " fill="#CCCCCD" transform="translate(493,846)"/>
<path d="M0 0 C3.265 1.804 4.889 2.834 7 6 C4.69 6 2.38 6 0 6 C0 4.02 0 2.04 0 0 Z " fill="#E0E0E1" transform="translate(689,914)"/>
<path d="M0 0 C0.33 0.66 0.66 1.32 1 2 C1.66 2.33 2.32 2.66 3 3 C1.35 5.97 -0.3 8.94 -2 12 C-3.16 8.521 -2.775 7.658 -1.562 4.312 C-1.131 3.1 -1.131 3.1 -0.691 1.863 C-0.463 1.248 -0.235 0.634 0 0 Z " fill="#C0C1C1" transform="translate(561,871)"/>
<path d="M0 0 C2.566 3.849 2.551 6.435 3 11 C0.552 9.084 0.007 8.028 -0.75 4.938 C-1 2 -1 2 0 0 Z " fill="#CCCCCD" transform="translate(231,888)"/>
<path d="M0 0 C0.66 0.33 1.32 0.66 2 1 C2 1.66 2 2.32 2 3 C-3.273 6.223 -3.273 6.223 -5 7 C-5.66 6.67 -6.32 6.34 -7 6 C-4.69 4.02 -2.38 2.04 0 0 Z " fill="#C0C1C1" transform="translate(521,259)"/>
<path d="M0 0 C0.99 0.33 1.98 0.66 3 1 C-0.2 3.743 -3.005 5.63 -7 7 C-4.667 4.667 -2.333 2.333 0 0 Z " fill="#CCCCCD" transform="translate(457,218)"/>
<path d="M0 0 C0.33 0 0.66 0 1 0 C1.33 3.3 1.66 6.6 2 10 C1.01 10.33 0.02 10.66 -1 11 C-0.67 7.37 -0.34 3.74 0 0 Z " fill="#B3B4B5" transform="translate(710,641)"/>
</svg>