<svg version="1.1" xmlns="http://www.w3.org/2000/svg" width="1024" height="1024">
<path d="M0 0 C337.92 0 675.84 0 1024 0 C1024 337.92 1024 675.84 1024 1024 C686.08 1024 348.16 1024 0 1024 C0 686.08 0 348.16 0 0 Z " fill="#FEFEFE" transform="translate(0,0)"/>
<path d="M0 0 C0.733 -0.004 1.466 -0.007 2.222 -0.011 C10.434 -0.033 18.246 0.278 26.25 2.312 C27.264 2.524 28.279 2.735 29.324 2.953 C58.315 9.713 81.979 28.375 97.767 53.398 C112.245 77.216 123.565 103.2 129.152 130.594 C135.153 159.923 151.849 182.688 171.026 204.848 C178.864 213.914 185.746 223.009 191.5 233.562 C191.913 234.3 192.325 235.038 192.75 235.798 C199.015 247.678 200.914 259.658 200.717 272.884 C200.687 275.01 200.696 277.134 200.709 279.26 C200.684 297.023 195.786 311.411 183.07 324.191 C181.213 326.355 180.382 327.473 180.25 330.312 C181.167 332.02 181.167 332.02 182.688 333.625 C199.416 354.719 205.918 384.278 212.75 409.785 C213.944 414.227 215.208 418.645 216.5 423.06 C219.324 432.722 221.772 442.437 224.073 452.237 C225.48 458.202 226.987 464.112 228.688 470 C233.993 488.579 237.916 507.575 242.033 526.447 C242.381 528.042 242.73 529.638 243.08 531.232 C244.935 539.695 246.641 548.118 247.844 556.703 C248.19 558.927 248.64 561.025 249.25 563.188 C250.613 568.222 251.095 573.398 251.746 578.562 C252.284 582.563 252.984 586.502 253.785 590.457 C257.535 613.494 257.7 640.985 243.535 660.699 C233.052 673.326 216.317 680.207 200.25 682.312 C195.434 682.609 190.637 682.646 185.812 682.625 C185.146 682.623 184.479 682.621 183.792 682.618 C173.69 682.566 164.102 681.81 154.2 679.86 C150.537 679.18 146.86 678.6 143.18 678.023 C116.385 673.798 90.152 667.889 63.875 661.188 C63.066 660.982 62.258 660.776 61.425 660.563 C51.505 658.027 41.654 655.319 31.845 652.381 C26.35 650.748 20.814 649.271 15.279 647.782 C6.006 645.278 -3.143 642.601 -12.234 639.496 C-15.578 638.371 -18.935 637.328 -22.312 636.312 C-29.215 634.218 -35.977 631.79 -42.75 629.312 C-41.317 636.093 -39.56 642.722 -37.625 649.375 C-37.348 650.336 -37.071 651.297 -36.785 652.287 C-36.109 654.63 -35.431 656.971 -34.75 659.312 C-33.085 659.315 -33.085 659.315 -31.387 659.317 C-20.911 659.334 -10.436 659.376 0.039 659.445 C5.424 659.479 10.809 659.504 16.194 659.508 C21.395 659.512 26.594 659.541 31.795 659.586 C33.775 659.599 35.756 659.603 37.737 659.599 C40.518 659.594 43.298 659.62 46.08 659.653 C46.893 659.644 47.706 659.636 48.543 659.627 C54.56 659.747 58.552 661.57 63.25 665.312 C66.605 668.926 68.068 671.488 68.562 676.438 C68.04 682.921 65.778 688.199 61.188 692.875 C54.308 698.414 45.431 701.242 37.25 704.312 C36.19 704.715 35.131 705.117 34.039 705.531 C23.295 709.181 11.909 710.794 0.771 712.803 C-1.86 713.281 -1.86 713.281 -4.75 714.312 C-21.152 716.573 -37.583 716.609 -54.106 716.589 C-57.854 716.586 -61.603 716.595 -65.351 716.603 C-72.662 716.615 -79.973 716.617 -87.284 716.615 C-93.23 716.613 -99.176 716.615 -105.122 716.619 C-105.972 716.62 -106.823 716.62 -107.699 716.621 C-109.428 716.622 -111.157 716.623 -112.886 716.625 C-129.036 716.635 -145.187 716.633 -161.337 716.627 C-176.086 716.622 -190.836 716.633 -205.585 716.652 C-220.775 716.672 -235.965 716.68 -251.156 716.676 C-259.666 716.674 -268.176 716.677 -276.686 716.691 C-283.923 716.703 -291.16 716.704 -298.397 716.692 C-302.083 716.686 -305.769 716.685 -309.455 716.697 C-313.462 716.71 -317.469 716.699 -321.477 716.687 C-322.624 716.694 -323.771 716.701 -324.953 716.709 C-337.4 716.627 -352.879 714.862 -362.309 705.817 C-365.991 701.776 -368.214 697.8 -370.062 692.688 C-370.497 691.531 -370.497 691.531 -370.939 690.351 C-373.892 682.287 -376.347 674.065 -378.838 665.85 C-383.916 649.194 -389.678 632.76 -395.353 616.3 C-400.338 601.831 -400.338 601.831 -402.371 594.977 C-407.434 578.119 -413.069 561.492 -418.831 544.863 C-421.241 537.904 -423.592 530.958 -425.639 523.884 C-428.403 514.358 -431.541 504.987 -434.812 495.625 C-438.017 486.45 -441.087 477.279 -443.727 467.926 C-445.054 463.241 -446.501 458.597 -447.953 453.949 C-450.006 447.155 -451.409 439.746 -448.844 432.891 C-445.703 427.535 -441.689 424.292 -435.75 422.312 C-434.312 422.223 -432.87 422.189 -431.43 422.189 C-430.542 422.187 -429.655 422.185 -428.741 422.183 C-427.765 422.186 -426.79 422.189 -425.784 422.192 C-424.749 422.191 -423.713 422.191 -422.646 422.19 C-419.159 422.188 -415.672 422.194 -412.185 422.199 C-409.692 422.199 -407.199 422.199 -404.706 422.199 C-399.33 422.198 -393.954 422.201 -388.578 422.207 C-380.806 422.215 -373.033 422.218 -365.26 422.219 C-352.65 422.221 -340.04 422.228 -327.43 422.237 C-315.18 422.246 -302.929 422.253 -290.678 422.258 C-289.924 422.258 -289.169 422.258 -288.391 422.258 C-284.604 422.26 -280.817 422.261 -277.029 422.262 C-245.603 422.273 -214.176 422.29 -182.75 422.312 C-182.554 421.712 -182.359 421.111 -182.157 420.492 C-181.764 419.297 -181.764 419.297 -181.363 418.077 C-181.105 417.29 -180.848 416.504 -180.582 415.694 C-171.225 388.926 -148.787 343.831 -121.75 330.312 C-122.834 327.06 -123.264 326.733 -125.875 324.812 C-134.581 317.537 -139.888 306.363 -140.957 295.138 C-142.166 274.673 -136.274 257.295 -129.457 238.289 C-119.251 210.808 -119.251 210.808 -112.75 182.312 C-112.542 181.075 -112.335 179.837 -112.121 178.562 C-109.921 163.303 -110.085 147.704 -109.75 132.312 C-110.529 132.338 -111.309 132.363 -112.112 132.388 C-117.051 132.246 -120.271 128.546 -123.75 125.312 C-135.952 112.356 -138.439 97.377 -138.125 80.23 C-137.81 73.067 -136.274 67.62 -132.75 61.312 C-132.289 60.413 -131.827 59.513 -131.352 58.586 C-123.387 44.558 -110.394 34.415 -96.75 26.312 C-96.059 25.895 -95.368 25.478 -94.657 25.048 C-65.26 7.432 -34.058 0.083 0 0 Z " fill="#050405" transform="translate(563.75,196.6875)"/>
<path d="M0 0 C1.116 -0.008 2.231 -0.016 3.381 -0.024 C4.607 -0.012 5.832 -0.001 7.095 0.011 C9.048 0.006 9.048 0.006 11.04 0.001 C14.657 -0.008 18.274 0.008 21.89 0.028 C25.789 0.045 29.689 0.039 33.588 0.036 C40.344 0.034 47.1 0.047 53.857 0.069 C63.625 0.102 73.394 0.112 83.162 0.117 C99.011 0.126 114.859 0.153 130.708 0.19 C146.104 0.227 161.5 0.255 176.897 0.272 C177.846 0.274 178.795 0.275 179.772 0.276 C184.532 0.281 189.292 0.286 194.052 0.291 C233.548 0.332 273.045 0.403 312.541 0.492 C313.025 1.933 313.508 3.373 313.99 4.814 C314.259 5.616 314.527 6.418 314.804 7.245 C315.62 9.732 316.34 12.231 317.006 14.762 C317.247 15.664 317.487 16.566 317.735 17.495 C317.981 18.422 318.226 19.35 318.479 20.305 C320.312 27.13 322.241 33.866 324.553 40.547 C327.309 48.76 329.601 57.139 331.948 65.477 C334.765 75.467 337.746 85.378 340.933 95.256 C343.22 102.382 345.316 109.549 347.347 116.751 C348.984 122.557 350.674 128.343 352.416 134.117 C362.58 167.835 362.58 167.835 366.753 183.145 C368.397 189.113 370.269 194.997 372.169 200.888 C374.319 207.627 376.225 214.423 378.104 221.242 C380.306 229.226 382.659 237.09 385.342 244.926 C386.751 249.115 388.075 253.324 389.354 257.555 C389.573 258.258 389.793 258.961 390.019 259.686 C391.235 263.764 391.629 267.258 391.541 271.492 C353.944 271.561 316.346 271.614 278.748 271.645 C274.305 271.649 269.862 271.653 265.418 271.657 C264.092 271.658 264.092 271.658 262.738 271.659 C248.434 271.672 234.13 271.696 219.825 271.724 C205.137 271.752 190.45 271.768 175.762 271.774 C166.705 271.779 157.649 271.792 148.593 271.816 C142.375 271.832 136.156 271.837 129.938 271.833 C126.356 271.831 122.773 271.834 119.191 271.85 C115.294 271.867 111.397 271.861 107.5 271.853 C106.385 271.862 105.271 271.87 104.122 271.879 C93.758 271.821 82.653 270.972 74.19 264.48 C69.39 258.69 67.187 251.053 64.827 244.027 C64.489 243.036 64.151 242.044 63.804 241.023 C63.092 238.93 62.384 236.836 61.678 234.742 C60.617 231.593 59.546 228.448 58.473 225.303 C55.223 215.732 52.078 206.157 49.294 196.439 C47.353 189.71 45.073 183.112 42.75 176.507 C36.303 158.163 36.303 158.163 33.916 149.617 C31.906 142.471 29.501 135.496 27.041 128.492 C23.985 119.782 21.114 111.07 18.592 102.191 C17.575 98.611 16.51 95.05 15.416 91.492 C15.125 90.543 14.834 89.595 14.534 88.617 C12.492 82.186 10.311 75.809 8.043 69.454 C4.998 60.903 2.226 52.323 -0.271 43.598 C-1.475 39.395 -2.771 35.224 -4.084 31.055 C-4.291 30.388 -4.499 29.721 -4.714 29.034 C-5.596 26.208 -6.493 23.391 -7.439 20.586 C-9.131 15.439 -10.794 9.896 -9.459 4.492 C-6.494 0.817 -4.684 -0.007 0 0 Z " fill="#FEFEFE" transform="translate(135.45851516723633,631.5078086853027)"/>
<path d="M0 0 C19.417 9.256 29.29 30.178 36.133 49.438 C39.988 60.598 43.555 71.793 46.204 83.305 C47.214 87.695 48.407 91.972 49.762 96.27 C52.108 103.774 54.003 111.368 55.875 119 C56.208 120.347 56.541 121.694 56.875 123.041 C57.544 125.743 58.211 128.445 58.878 131.147 C61.25 140.763 63.648 150.369 66.172 159.945 C71.566 180.462 76.367 201.027 80.578 221.819 C81.494 226.344 82.438 230.861 83.41 235.375 C85.462 244.924 87.332 254.368 88.477 264.074 C88.837 266.888 89.335 269.605 89.938 272.375 C91.099 277.961 91.598 283.492 91.875 289.188 C91.909 289.853 91.943 290.519 91.978 291.205 C92.655 306.349 91.537 323.05 81.27 335.066 C68.333 347.838 49.688 348.601 32.625 348.562 C31.884 348.563 31.142 348.564 30.379 348.565 C17.713 348.549 5.689 347.185 -6.734 344.648 C-9.911 344.036 -13.097 343.666 -16.312 343.312 C-35.899 340.77 -55.204 335.78 -74.375 331.125 C-75.233 330.918 -76.091 330.71 -76.975 330.497 C-86.485 328.191 -95.919 325.731 -105.293 322.92 C-110.912 321.235 -116.562 319.742 -122.25 318.312 C-130.532 316.173 -138.786 313.949 -147 311.562 C-148.499 311.147 -148.499 311.147 -150.028 310.723 C-150.944 310.451 -151.861 310.179 -152.805 309.898 C-153.617 309.664 -154.429 309.43 -155.265 309.189 C-157.125 308.188 -157.125 308.188 -157.944 306.267 C-158.219 303.107 -157.145 300.574 -156.188 297.562 C-152.246 283.74 -153.238 268.309 -155.125 254.188 C-154.539 254.14 -153.953 254.092 -153.35 254.042 C-147.234 253.542 -141.118 253.039 -135.002 252.533 C-132.721 252.346 -130.441 252.158 -128.161 251.972 C-124.877 251.703 -121.593 251.432 -118.309 251.16 C-116.788 251.037 -116.788 251.037 -115.236 250.911 C-110.166 250.488 -105.161 249.928 -100.125 249.188 C-95.444 248.767 -90.753 248.48 -86.062 248.188 C-85.374 248.144 -84.685 248.101 -83.975 248.056 C-66.799 246.996 -49.612 246.521 -32.408 246.227 C-30.161 246.188 -27.914 246.145 -25.667 246.101 C-21.549 246.023 -17.431 245.977 -13.312 245.938 C-12.104 245.916 -10.895 245.895 -9.65 245.873 C-2.886 245.846 2.652 246.488 8.875 249.188 C9.82 249.59 10.765 249.992 11.738 250.406 C24.341 256.999 33.123 267.263 41.875 278.188 C43.858 280.536 45.866 282.861 47.875 285.188 C49.195 284.858 50.515 284.527 51.875 284.188 C52.583 273.983 44.63 265.185 38.301 257.781 C26.468 245.129 11.117 237.002 -6.125 235.188 C-7.539 230.513 -8.575 225.979 -9.316 221.141 C-9.536 219.746 -9.756 218.352 -9.976 216.957 C-10.091 216.223 -10.206 215.489 -10.325 214.733 C-16.942 156.08 -16.942 156.08 -37.125 102.188 C-39.709 101.937 -39.709 101.937 -42.125 102.188 C-45.014 107.966 -42.593 115.097 -40.895 120.93 C-38.114 130.98 -35.909 141.1 -33.812 151.312 C-33.428 153.174 -33.043 155.035 -32.658 156.897 C-31.668 161.7 -30.687 166.505 -29.71 171.311 C-29.132 174.156 -28.55 176.999 -27.968 179.842 C-27.036 184.401 -26.117 188.962 -25.207 193.526 C-24.868 195.222 -24.526 196.917 -24.181 198.612 C-21.711 210.76 -20.166 222.836 -19.125 235.188 C-19.852 235.207 -20.578 235.227 -21.327 235.248 C-35.784 235.657 -50.195 236.251 -64.621 237.316 C-76.337 238.167 -88.061 238.831 -99.788 239.492 C-116.86 240.455 -133.925 241.424 -150.973 242.758 C-151.819 242.824 -152.666 242.89 -153.539 242.958 C-155.397 243.123 -157.253 243.32 -159.106 243.539 C-160.575 243.705 -160.575 243.705 -162.074 243.875 C-162.953 243.985 -163.832 244.094 -164.737 244.207 C-168.232 244.178 -170.03 242.692 -172.754 240.664 C-175.92 238.692 -179.286 237.579 -182.812 236.438 C-183.455 236.227 -184.097 236.017 -184.759 235.8 C-190.148 234.087 -194.987 233.058 -200.645 233.09 C-201.666 233.093 -202.688 233.096 -203.74 233.1 C-204.795 233.108 -205.85 233.116 -206.938 233.125 C-208.012 233.13 -209.086 233.134 -210.193 233.139 C-212.837 233.15 -215.481 233.167 -218.125 233.188 C-221.711 222.155 -225.22 211.152 -228.109 199.914 C-229.261 195.689 -230.587 191.54 -231.938 187.375 C-234.398 179.769 -236.527 172.104 -238.562 164.375 C-240.995 155.152 -243.665 146.053 -246.634 136.989 C-248.787 130.385 -250.693 123.74 -252.352 116.994 C-253.975 110.753 -256.499 105.599 -262.125 102.188 C-264.948 101.717 -264.948 101.717 -268.087 101.755 C-269.288 101.735 -270.489 101.716 -271.726 101.695 C-273.018 101.689 -274.31 101.682 -275.641 101.676 C-276.98 101.659 -278.32 101.641 -279.659 101.621 C-283.177 101.574 -286.695 101.544 -290.213 101.518 C-293.806 101.488 -297.399 101.442 -300.992 101.396 C-308.036 101.31 -315.081 101.243 -322.125 101.188 C-311.289 68.095 -287.201 28.239 -255.375 11.875 C-241.638 5.198 -228.344 2.397 -213.125 2.188 C-213.013 3.278 -213.013 3.278 -212.898 4.391 C-211.302 16.601 -206.356 26.899 -197.125 35.188 C-188.537 41.648 -177.976 47.923 -167.016 48.504 C-165.884 48.567 -165.884 48.567 -164.73 48.631 C-163.953 48.67 -163.176 48.709 -162.375 48.75 C-161.186 48.815 -161.186 48.815 -159.973 48.881 C-158.024 48.987 -156.074 49.087 -154.125 49.188 C-153.779 50.439 -153.779 50.439 -153.426 51.715 C-150.034 63.419 -146.317 72.868 -135.375 79.2 C-127.303 83.607 -118.949 87.556 -110.125 90.188 C-108.286 90.744 -108.286 90.744 -106.41 91.312 C-85.162 97.264 -66.12 94.884 -46.97 84.277 C-42.618 81.707 -38.803 78.635 -35.125 75.188 C-34.559 74.663 -33.993 74.138 -33.41 73.598 C-30.935 71.013 -30.141 69.315 -29.688 65.75 C-30.142 62.049 -31.06 58.757 -32.125 55.188 C-34.318 41.035 -34.507 25.903 -30.125 12.188 C-29.818 11.025 -29.818 11.025 -29.504 9.84 C-28.163 5.384 -26.117 2.077 -22.461 -0.738 C-15.453 -3.961 -7.027 -2.512 0 0 Z " fill="#FEFEFE" transform="translate(716.125,518.8125)"/>
<path d="M0 0 C2.69 2.425 4.305 5.071 6.125 8.188 C14.99 22.234 29.284 28.955 44.688 33.812 C45.846 34.193 47.004 34.574 48.197 34.967 C59.202 38.535 69.859 40.488 81.326 41.805 C83.534 42.059 85.741 42.323 87.947 42.588 C97.619 43.728 107.275 44.493 117 45 C130.244 77.629 130.244 77.629 134 93 C136.572 92.625 137.734 92.298 139.492 90.328 C139.949 89.642 140.405 88.957 140.875 88.25 C147.173 79.561 147.173 79.561 152.578 78.488 C157.609 78.179 161.097 78.49 165.062 81.75 C168.676 85.248 170.298 88.584 170.438 93.625 C170.212 102.645 165.241 109.5 159.242 115.895 C152.776 121.966 145.151 127.755 136.062 128.188 C135.052 128.126 134.041 128.064 133 128 C132.925 128.776 132.85 129.552 132.773 130.352 C130.294 150.721 118.673 167.974 103.414 181.25 C86.455 194.287 66.416 201.868 45 200 C30.14 197.357 16.32 187.839 7.484 175.668 C-6.335 155.485 -10.969 132.392 -10.727 108.336 C-10.726 106.241 -10.727 104.145 -10.73 102.05 C-10.729 97.698 -10.709 93.347 -10.672 88.996 C-10.627 83.479 -10.626 77.962 -10.639 72.444 C-10.646 68.13 -10.633 63.817 -10.613 59.503 C-10.606 57.47 -10.603 55.438 -10.606 53.406 C-10.611 34.56 -8.507 17.015 0 0 Z " fill="#FEFEFE" transform="translate(473,272)"/>
<path d="M0 0 C5.501 2.376 9.023 6.13 11.848 11.379 C12.689 13.934 12.848 15.635 12.848 18.379 C12.188 19.039 11.528 19.699 10.848 20.379 C7.945 20.23 6.996 19.542 5.031 17.383 C4.455 16.577 3.879 15.771 3.285 14.941 C1.19 12.034 -0.128 10.395 -3.152 8.379 C-6.236 8.129 -6.236 8.129 -9.152 8.379 C-10.444 9.464 -10.444 9.464 -10.465 12.066 C-9.993 17.064 -7.692 19.968 -4.047 23.309 C0.245 26.379 4.958 28.291 9.785 30.379 C16.924 33.585 16.924 33.585 18.848 37.379 C18.934 41.421 18.178 42.995 15.535 46.066 C6.127 52.915 -7.066 51.846 -18.123 51.77 C-20.883 51.754 -23.642 51.77 -26.402 51.789 C-37.35 51.802 -47.483 50.897 -58.152 48.379 C-59.009 48.179 -59.865 47.98 -60.748 47.774 C-62.662 47.302 -64.565 46.781 -66.465 46.254 C-67.678 45.921 -68.891 45.589 -70.141 45.246 C-72.157 44.665 -74.162 44.042 -76.152 43.379 C-78.321 53.408 -77.568 62.104 -73.152 71.379 C-70.58 75.37 -67.322 77.959 -63.543 80.754 C-62.152 82.379 -62.152 82.379 -61.711 84.754 C-62.628 90.208 -67.146 93.859 -71.152 97.379 C-74.687 99.536 -78.244 101.035 -82.152 102.379 C-83.369 102.812 -84.586 103.245 -85.84 103.691 C-95.064 105.631 -105.678 105.926 -113.914 100.984 C-123.841 93.864 -130.861 85.316 -134.152 73.379 C-134.571 70.199 -134.618 67.083 -134.59 63.879 C-134.61 63.076 -134.63 62.273 -134.65 61.445 C-134.644 54.116 -132.452 48.959 -127.59 43.504 C-123.726 40.135 -121.492 39.006 -116.32 39.109 C-114.062 39.39 -112.363 39.986 -110.277 40.879 C-105.606 42.861 -101.15 42.655 -96.152 42.379 C-96.744 42.22 -97.336 42.062 -97.945 41.898 C-103.16 40.359 -106.853 38.955 -110.152 34.379 C-110.67 31.145 -110.711 29.364 -109.09 26.504 C-105.663 24.514 -101.873 24.944 -98.101 25.897 C-95.928 26.608 -93.791 27.382 -91.652 28.191 C-90.932 28.452 -90.211 28.713 -89.469 28.982 C-86.185 30.185 -82.985 31.454 -79.793 32.887 C-60.544 40.776 -40.27 42.491 -19.715 42.629 C-18.554 42.638 -17.393 42.648 -16.197 42.658 C-3.284 43.178 -3.284 43.178 7.848 38.379 C6.921 38.05 6.921 38.05 5.977 37.715 C-4.07 33.953 -12.736 28.906 -18.289 19.441 C-19.811 15.806 -19.702 12.241 -19.152 8.379 C-14.763 -0.086 -9.168 -2.646 0 0 Z " fill="#050405" transform="translate(411.15234375,700.62109375)"/>
<path d="M0 0 C0.514 0.394 1.029 0.788 1.559 1.194 C13.343 10.139 22.32 13.262 37 12 C38.485 11.505 38.485 11.505 40 11 C38.659 15.198 37.121 19.28 35.487 23.369 C32.517 30.817 29.787 38.166 28 46 C27.808 46.755 27.616 47.511 27.418 48.289 C25.532 56.401 25.365 64.709 25 73 C9.043 73.721 -1.529 70.838 -14.004 60.309 C-18.495 56.128 -21.332 51.492 -24 46 C-24.433 45.154 -24.866 44.309 -25.312 43.438 C-26.303 39.925 -26.041 36.647 -26 33 C-24.759 32.986 -23.517 32.972 -22.238 32.957 C-20.596 32.91 -18.954 32.862 -17.312 32.812 C-16.496 32.807 -15.679 32.801 -14.838 32.795 C-10.65 32.642 -8.528 32.377 -5.043 29.887 C-0.641 23.667 -0.629 16.916 -0.375 9.562 C-0.336 8.64 -0.298 7.718 -0.258 6.768 C-0.164 4.512 -0.079 2.256 0 0 Z " fill="#FEFEFE" transform="translate(537,487)"/>
<path d="M0 0 C5.862 4.201 8.693 8.257 10.262 15.406 C10.52 18.205 10.548 20.972 10.512 23.781 C10.506 24.533 10.5 25.285 10.493 26.059 C10.398 31.418 9.789 36.26 8.262 41.406 C8.032 42.378 7.803 43.35 7.566 44.352 C6.141 50.217 6.141 50.217 5.262 52.406 C4.272 52.736 3.282 53.066 2.262 53.406 C1.434 52.946 0.607 52.486 -0.246 52.012 C-5.037 49.809 -9.4 49.842 -14.613 49.719 C-15.588 49.685 -16.562 49.65 -17.566 49.615 C-19.957 49.533 -22.347 49.464 -24.738 49.406 C-28.615 40.069 -31.434 30.686 -34.044 20.94 C-34.797 18.194 -35.587 15.46 -36.387 12.727 C-36.663 11.778 -36.94 10.83 -37.225 9.854 C-37.766 8.005 -38.311 6.157 -38.859 4.311 C-39.104 3.468 -39.349 2.626 -39.602 1.758 C-39.821 1.014 -40.041 0.269 -40.267 -0.498 C-40.738 -2.594 -40.738 -2.594 -40.738 -6.594 C-27.184 -10.81 -11.912 -6.933 0 0 Z " fill="#FEFEFE" transform="translate(542.73828125,768.59375)"/>
<path d="M0 0 C3.501 1.101 7.001 2.206 10.5 3.312 C11.482 3.621 12.465 3.93 13.477 4.248 C18.423 5.814 23.31 7.452 28.154 9.31 C37.511 12.808 47.246 15.388 56.902 17.906 C61.707 19.172 66.476 20.559 71.25 21.938 C81.126 24.785 91.049 27.43 101 30 C101 30.99 101 31.98 101 33 C70.64 32.67 40.28 32.34 9 32 C7.258 26.773 5.537 21.579 3.938 16.312 C2.971 13.134 1.995 9.985 0.879 6.855 C0 4 0 4 0 0 Z " fill="#FEFEFE" transform="translate(520,825)"/>
<path d="M0 0 C-0.422 5.374 -1.274 8.104 -5 12 C-22.044 22.814 -43.25 25.436 -62.812 28.438 C-63.957 28.614 -65.102 28.79 -66.281 28.972 C-67.35 29.124 -68.418 29.277 -69.52 29.434 C-70.459 29.568 -71.399 29.703 -72.366 29.842 C-75.11 30.007 -77.342 29.66 -80 29 C-80.366 27.44 -80.718 25.877 -81.062 24.312 C-81.26 23.442 -81.457 22.572 -81.66 21.676 C-82.022 18.827 -81.621 16.78 -81 14 C-80.336 13.92 -79.672 13.839 -78.987 13.756 C-59.752 11.708 -59.752 11.708 -40.812 7.938 C-37.991 7.244 -35.602 6.818 -32.75 6.562 C-28.101 6.109 -23.721 5.008 -19.207 3.832 C-15.794 2.946 -12.371 2.118 -8.938 1.312 C-7.342 0.935 -7.342 0.935 -5.715 0.551 C-3 0 -3 0 0 0 Z " fill="#FEFEFE" transform="translate(621,873)"/>
<path d="M0 0 C0.99 0 1.98 0 3 0 C16.076 23.837 17.875 48.749 11.262 74.922 C6.652 90.04 -0.461 104.735 -8.303 118.415 C-11.404 123.844 -14.242 129.359 -16.938 135 C-17.303 135.753 -17.669 136.506 -18.045 137.282 C-22.126 145.946 -24.572 154.129 -24.5 163.75 C-24.496 164.613 -24.493 165.475 -24.489 166.364 C-24.254 175.546 -21.974 183.54 -16.828 191.258 C-15 194 -15 194 -15 196 C-18.123 195.699 -19.577 195.493 -21.66 193.066 C-23.154 190.399 -24.604 187.72 -26 185 C-26.628 183.919 -26.628 183.919 -27.27 182.816 C-32.581 172.288 -31.433 157.744 -28 146.75 C-24.737 137.256 -19.943 128.472 -15.202 119.657 C-6.157 102.833 1.842 86.502 7 68 C7.389 66.761 7.779 65.522 8.18 64.246 C9.661 58.13 9.288 51.75 9.25 45.5 C9.258 44.22 9.265 42.94 9.273 41.621 C9.26 35.031 8.987 29.286 7 23 C6.593 21.62 6.187 20.24 5.781 18.859 C5.357 17.489 4.929 16.119 4.5 14.75 C4.287 14.056 4.075 13.363 3.855 12.648 C2.999 9.905 2.138 7.274 0.844 4.703 C0 3 0 3 0 0 Z " fill="#EAEAEA" transform="translate(648,407)"/>
<path d="M0 0 C2.475 0.495 2.475 0.495 5 1 C6.828 32.21 -17.103 60.173 -35.449 83.055 C-48.625 99.921 -53.764 116.675 -51.719 137.922 C-50.69 143.977 -48.357 149.557 -46.023 155.215 C-45 158 -45 158 -45 161 C-49.141 159.512 -50.253 157.247 -52.125 153.375 C-52.623 152.372 -53.12 151.369 -53.633 150.336 C-59.258 136.611 -59.59 117.57 -54.242 103.684 C-53.627 102.355 -53.627 102.355 -53 101 C-52.416 99.687 -52.416 99.687 -51.82 98.348 C-46.44 87.508 -38.258 78.066 -30.742 68.654 C-14.089 47.745 -2.63 26.96 0 0 Z " fill="#EAEAEA" transform="translate(634,432)"/>
<path d="M0 0 C0.66 0 1.32 0 2 0 C3.32 2.64 3.169 4.675 3.188 7.625 C3.202 8.628 3.216 9.631 3.23 10.664 C2.55 20.51 -1.917 29.232 -5.832 38.144 C-12.128 52.529 -16.439 68.462 -10.875 83.812 C-7.051 93.227 -7.051 93.227 0 100 C0 100.66 0 101.32 0 102 C-5.61 101.377 -7.578 98.695 -11.07 94.531 C-18.078 85.34 -20.356 76.323 -20.375 64.875 C-20.399 64.135 -20.424 63.395 -20.449 62.633 C-20.523 47.957 -13.85 34.03 -8.312 20.75 C-7.278 18.243 -6.246 15.735 -5.214 13.227 C-4.578 11.683 -3.939 10.139 -3.298 8.596 C-2.116 5.749 -0.975 2.925 0 0 Z " fill="#EAEAEA" transform="translate(453,418)"/>
<path d="M0 0 C13.892 4.795 20.395 15.111 28 27 C28.66 27.99 29.32 28.98 30 30 C30.188 32.625 30.188 32.625 30 35 C29 36 29 36 26.75 36.312 C23.133 35.901 21.775 34.313 19 32 C12.08 28.239 5.471 28.566 -2.258 28.561 C-3.209 28.542 -4.16 28.523 -5.141 28.504 C-6.002 28.502 -6.863 28.5 -7.751 28.498 C-10 28 -10 28 -11.815 26.133 C-13 24 -13 24 -12.812 21.375 C-12 19 -12 19 -10 17 C-0.937 15.94 6.752 17.229 15 21 C10.74 13.9 5.303 10.652 -2 7 C-3.537 6.775 -5.08 6.592 -6.625 6.438 C-7.442 6.354 -8.26 6.27 -9.102 6.184 C-9.728 6.123 -10.355 6.062 -11 6 C-11.33 4.68 -11.66 3.36 -12 2 C-7.957 -0.695 -4.663 -0.759 0 0 Z " fill="#050405" transform="translate(272,322)"/>
<path d="M0 0 C14.323 6.056 25.603 28.302 31.207 41.941 C37.695 58.789 40.105 78.684 34 96 C33.722 96.807 33.443 97.614 33.156 98.445 C30.909 104.16 27.551 108.861 23 113 C21.515 113.495 21.515 113.495 20 114 C21.013 110.315 22.337 107.345 24.438 104.188 C32.553 91.668 32.795 74.749 29.924 60.479 C25.55 41.55 15.831 25.534 3.948 10.379 C3.202 9.416 3.202 9.416 2.441 8.434 C1.772 7.584 1.772 7.584 1.088 6.717 C-0.122 4.808 -0.656 3.228 -1 1 C-0.67 0.67 -0.34 0.34 0 0 Z " fill="#EAEAEA" transform="translate(717,401)"/>
<path d="M0 0 C2.475 0.495 2.475 0.495 5 1 C5.561 11.925 3.058 19.94 -1.531 29.734 C-3.388 33.863 -5.085 38.041 -6.75 42.25 C-7.056 43.007 -7.362 43.763 -7.677 44.543 C-9.446 49.062 -10.514 53.168 -11 58 C-9.541 57.859 -8.083 57.712 -6.625 57.562 C-5.813 57.481 -5.001 57.4 -4.164 57.316 C-1.957 57.109 -1.957 57.109 0 56 C2 55.96 4 55.957 6 56 C6 58.25 6 58.25 5 61 C0.406 64.754 -4.914 65.724 -10.723 65.438 C-13 65 -13 65 -16.125 63.062 C-18.689 58.874 -18.835 55.702 -18 51 C-16.209 44.632 -13.693 38.565 -11.062 32.508 C-10.374 30.922 -9.687 29.336 -9 27.75 C-8.486 26.563 -8.486 26.563 -7.961 25.353 C-4.478 17.121 -2.152 8.661 0 0 Z " fill="#050405" transform="translate(502,341)"/>
<path d="M0 0 C3.438 0.25 3.438 0.25 7 1 C10.438 6.157 9.531 12.136 8.43 18.074 C7.699 21.079 6.886 24.038 6 27 C5.749 27.84 5.497 28.681 5.238 29.547 C3.863 33.885 2.422 38.125 0 42 C-2.098 42.656 -2.098 42.656 -4 43 C-4.656 41.797 -5.299 40.587 -5.938 39.375 C-6.297 38.702 -6.657 38.029 -7.027 37.336 C-10.642 28.656 -10.383 16.542 -6.996 7.84 C-5.469 5.019 -3.434 3.05 -1 1 C-0.67 0.67 -0.34 0.34 0 0 Z " fill="#111112" transform="translate(303,300)"/>
<path d="M0 0 C2.327 0.792 4.639 1.63 6.938 2.5 C8.461 3.043 9.984 3.584 11.508 4.125 C26.307 9.487 40.611 16.001 54.938 22.5 C57.841 23.817 60.745 25.133 63.65 26.448 C65.326 27.206 67 27.968 68.672 28.734 C75.07 31.64 80.717 33.691 87.812 34.125 C88.965 34.2 90.117 34.275 91.305 34.352 C92.174 34.401 93.042 34.45 93.938 34.5 C93.938 35.49 93.938 36.48 93.938 37.5 C92.261 39.176 90.378 38.872 88.062 39 C73.867 38.816 60.154 30.787 47.57 24.917 C39.991 21.394 32.35 18.056 24.634 14.847 C22.812 14.088 20.992 13.324 19.172 12.56 C2.141 5.527 -12.769 2.118 -31.062 2.5 C-31.062 1.51 -31.062 0.52 -31.062 -0.5 C-23.277 -4.393 -8.082 -2.218 0 0 Z " fill="#EAEAEA" transform="translate(509.0625,247.5)"/>
<path d="M0 0 C1.75 0.148 1.75 0.148 4 1 C19.358 19.64 33.964 48.537 32.418 73.117 C31.214 84.305 26.196 93.705 20 103 C18.68 102.67 17.36 102.34 16 102 C16.471 100.949 16.941 99.899 17.426 98.816 C19.039 95.197 20.613 91.561 22.171 87.917 C22.802 86.457 23.461 85.009 24.133 83.566 C26.188 78.608 26.332 73.613 26.438 68.312 C26.46 67.606 26.482 66.9 26.506 66.172 C26.451 53.692 21.113 42.266 15.674 31.303 C14.686 29.31 13.718 27.307 12.752 25.303 C9.329 18.273 5.688 11.63 1.261 5.161 C0 3 0 3 0 0 Z " fill="#EAEAEA" transform="translate(679,399)"/>
<path d="M0 0 C0 0.33 0 0.66 0 1 C-1.033 1.171 -2.066 1.343 -3.13 1.519 C-7.012 2.163 -10.895 2.808 -14.777 3.454 C-16.447 3.731 -18.118 4.009 -19.789 4.286 C-22.21 4.687 -24.63 5.089 -27.051 5.492 C-27.841 5.624 -28.631 5.755 -29.445 5.89 C-33.598 6.585 -37.741 7.313 -41.879 8.094 C-47.765 9.179 -53.683 9.917 -59.625 10.625 C-60.692 10.759 -61.76 10.893 -62.859 11.031 C-68.957 11.765 -74.859 12.142 -81 12 C-81.66 8.7 -82.32 5.4 -83 2 C-75.574 1.734 -68.149 1.473 -60.723 1.218 C-57.272 1.099 -53.821 0.978 -50.37 0.854 C-33.574 0.253 -16.808 -0.151 0 0 Z " fill="#F5F5F5" transform="translate(616,867)"/>
<path d="M0 0 C3.375 0.688 3.375 0.688 4.375 1.688 C4.812 4.938 4.812 4.938 4.375 8.688 C2.367 10.746 0.723 12.12 -1.625 13.688 C-7.926 17.926 -11.678 22.2 -15.625 28.688 C-16.625 29.688 -16.625 29.688 -19 29.938 C-21.625 29.688 -21.625 29.688 -23.164 28.539 C-25.081 26.109 -25.739 23.772 -26.625 20.812 C-27.87 16.671 -29.401 13.381 -31.625 9.688 C-31.38 7.482 -31.201 6.263 -29.625 4.688 C-27.312 4.312 -27.312 4.312 -24.625 4.688 C-20.437 8.506 -19.146 13.399 -17.625 18.688 C-17.25 17.879 -16.875 17.071 -16.488 16.238 C-8.367 -0.721 -8.367 -0.721 0 0 Z " fill="#050405" transform="translate(327.625,418.3125)"/>
<path d="M0 0 C3.161 2.219 4.854 3.781 7 7 C7.125 10.188 7.125 10.188 7 13 C2.064 12.457 -1.799 10.816 -6.125 8.5 C-13.27 4.723 -18.874 3.115 -27 4 C-29.907 4.925 -32.665 5.998 -35.457 7.223 C-38.387 8.118 -40.088 7.831 -43 7 C-43.75 4.25 -43.75 4.25 -44 1 C-41.56 -2.882 -37.856 -4.192 -33.621 -5.465 C-22.171 -7.803 -10.182 -5.534 0 0 Z " fill="#050405" transform="translate(562,320)"/>
<path d="M0 0 C1.32 0.33 2.64 0.66 4 1 C3.835 7.418 0.355 11.614 -4 16 C-13.216 22.75 -21.546 25.397 -33 24 C-39.64 21.637 -45.325 18.083 -49 12 C-49.312 8.625 -49.312 8.625 -49 6 C-47.68 6 -46.36 6 -45 6 C-43.667 7.667 -42.333 9.333 -41 11 C-35.59 15.967 -30.397 16.722 -23.188 16.422 C-15.225 15.368 -8.526 11.477 -3.523 5.125 C-2.31 3.444 -1.15 1.725 0 0 Z " fill="#111112" transform="translate(533,413)"/>
<path d="M0 0 C4.922 0.559 8.889 2.133 13.25 4.375 C13.94 4.724 14.629 5.072 15.34 5.432 C20.719 8.208 25.866 11.298 31 14.5 C49.624 26.112 67.392 34.036 89.562 34.625 C90.762 34.664 91.961 34.702 93.197 34.742 C96.131 34.836 99.065 34.921 102 35 C101.67 35.99 101.34 36.98 101 38 C70.575 43.836 44.2 28.532 19.324 13.02 C16.947 11.575 14.571 10.18 12.145 8.824 C11.505 8.467 10.866 8.109 10.207 7.74 C8.972 7.054 7.734 6.374 6.492 5.701 C3.447 4.01 1.977 2.966 0 0 Z " fill="#EAEAEA" transform="translate(497,255)"/>
<path d="M0 0 C0.66 0 1.32 0 2 0 C1.818 0.534 1.636 1.067 1.449 1.617 C0.62 4.074 -0.192 6.536 -1 9 C-1.263 9.793 -1.526 10.586 -1.797 11.402 C-7.035 27.891 -8.019 44.502 -2.875 61.059 C-2 64 -2 64 -2 67 C-5.007 65.943 -5.953 65.075 -7.668 62.32 C-8.169 61.266 -8.671 60.211 -9.188 59.125 C-9.697 58.076 -10.206 57.026 -10.73 55.945 C-15.883 43.992 -14.13 28.234 -9.574 16.395 C-3.676 3.676 -3.676 3.676 0 0 Z " fill="#EAEAEA" transform="translate(677,515)"/>
<path d="M0 0 C1.277 -0.019 2.555 -0.039 3.871 -0.059 C8.106 0.511 10.223 1.838 13.562 4.438 C14.181 4.891 14.8 5.345 15.438 5.812 C17.192 8.347 16.88 10.451 16.562 13.438 C15.903 14.098 15.243 14.757 14.562 15.438 C10.876 15.274 9.062 14.896 6.312 12.375 C2.218 9.49 -1.577 9.641 -6.438 10.438 C-8.953 11.567 -11.097 12.957 -13.438 14.438 C-14.428 14.108 -15.418 13.777 -16.438 13.438 C-16.82 10.089 -16.601 8.692 -14.75 5.812 C-10.137 1.075 -6.601 0.007 0 0 Z " fill="#050405" transform="translate(480.4375,309.5625)"/>
<path d="M0 0 C3.339 0.491 4.177 1.161 6.812 3.562 C12.369 7.679 19.46 6.909 26 6 C28.709 4.896 30.893 3.693 33.266 1.996 C34.124 1.503 34.124 1.503 35 1 C35.99 1.33 36.98 1.66 38 2 C38.312 4.25 38.312 4.25 38 7 C32.968 12.356 25.816 15.203 18.562 15.562 C11.431 15.292 5.957 12.253 0.375 8 C-1.352 5.487 -1.404 3.989 -1 1 C-0.67 0.67 -0.34 0.34 0 0 Z " fill="#111112" transform="translate(524,356)"/>
<path d="M0 0 C-2.107 6.497 -4.251 13.093 -7.044 19.331 C-8.716 23.999 -8.327 28.777 -8.312 33.688 C-8.329 34.726 -8.345 35.764 -8.361 36.834 C-8.365 42.973 -7.689 48.152 -5.645 53.952 C-5 56 -5 56 -5 59 C-5.66 59 -6.32 59 -7 59 C-7.793 57.271 -8.584 55.542 -9.375 53.812 C-9.816 52.85 -10.257 51.887 -10.711 50.895 C-11.136 49.939 -11.562 48.984 -12 48 C-12.375 47.272 -12.75 46.543 -13.137 45.793 C-16.495 34.928 -15.151 20.799 -10.438 10.582 C-4.546 0 -4.546 0 0 0 Z " fill="#EAEAEA" transform="translate(450,252)"/>
<path d="M0 0 C1.75 0.125 1.75 0.125 4 1 C6.125 3.938 6.125 3.938 8 7 C9.981 9.412 9.981 9.412 13.812 9.312 C17.648 9.236 19.817 8.182 23 6 C23.99 6 24.98 6 26 6 C26.375 8.188 26.375 8.188 26 11 C21.373 15.426 18.547 17.359 12.098 17.289 C7.612 16.671 3.827 13.422 1 10 C-0.158 6.527 -0.069 3.639 0 0 Z " fill="#111112" transform="translate(468,351)"/>
<path d="M0 0 C4.706 0.706 4.706 0.706 6 2 C6.754 9.686 4.591 16.795 2 24 C0 26 0 26 -3.125 26.125 C-4.548 26.063 -4.548 26.063 -6 26 C-5.571 19.988 -4.457 14.333 -3 8.5 C-2.822 7.781 -2.644 7.063 -2.46 6.322 C-1.131 1.131 -1.131 1.131 0 0 Z " fill="#111112" transform="translate(444,592)"/>
<path d="M0 0 C0.33 0 0.66 0 1 0 C0.952 12.465 -3.267 24.048 -9 35 C-9.33 35 -9.66 35 -10 35 C-10.402 30.983 -10.709 26.964 -11 22.938 C-11.115 21.804 -11.229 20.67 -11.348 19.502 C-11.881 11.188 -11.881 11.188 -9.32 7.735 C-7.296 5.973 -5.227 4.493 -3 3 C-1.994 2.006 -0.993 1.007 0 0 Z " fill="#EAEAEA" transform="translate(595,445)"/>
<path d="M0 0 C0.66 0 1.32 0 2 0 C2.6 8.463 1.078 15.126 -2 23 C-2.33 23 -2.66 23 -3 23 C-3.081 20.291 -3.141 17.585 -3.188 14.875 C-3.213 14.114 -3.238 13.354 -3.264 12.57 C-3.328 7.598 -2.656 4.364 0 0 Z " fill="#EAEAEA" transform="translate(304,306)"/>
<path d="M0 0 C0.848 0.097 1.695 0.193 2.568 0.293 C3.449 0.405 4.331 0.517 5.238 0.633 C6.131 0.737 7.024 0.842 7.943 0.949 C10.147 1.209 12.349 1.478 14.551 1.758 C14.551 2.088 14.551 2.418 14.551 2.758 C12.241 2.758 9.931 2.758 7.551 2.758 C7.551 3.418 7.551 4.078 7.551 4.758 C2.601 3.768 -2.349 2.778 -7.449 1.758 C-4.158 -0.436 -3.698 -0.447 0 0 Z " fill="#BCBCBB" transform="translate(550.44921875,313.2421875)"/>
<path d="M0 0 C1.884 3.265 2.493 6.281 3 10 C2.34 10 1.68 10 1 10 C-1.429 3.714 -1.429 3.714 0 0 Z " fill="#C4C4C5" transform="translate(442,301)"/>
</svg>