<svg version="1.1" xmlns="http://www.w3.org/2000/svg" width="1024" height="1024">
<path d="M0 0 C337.92 0 675.84 0 1024 0 C1024 337.92 1024 675.84 1024 1024 C686.08 1024 348.16 1024 0 1024 C0 686.08 0 348.16 0 0 Z " fill="#FEFEFE" transform="translate(0,0)"/>
<path d="M0 0 C0.771 0.224 1.542 0.449 2.336 0.68 C4.591 1.38 6.789 2.169 9 3 C9.59 3.22 10.179 3.44 10.787 3.667 C57.543 21.331 90.365 61.719 111 106 C111.531 107.121 112.062 108.243 112.609 109.398 C117.796 120.869 121.049 132.928 124.395 145.035 C129.919 164.943 135.792 184.934 146 203 C146.539 203.986 147.078 204.972 147.633 205.988 C153.971 216.812 163.438 224.983 173.152 232.727 C178.539 237.027 183.776 241.504 189 246 C189.975 246.837 190.949 247.673 191.953 248.535 C211.833 266.055 225.433 289.397 229.449 315.691 C232.541 334.266 237.616 346.693 253.188 358.062 C254.067 358.715 254.947 359.368 255.854 360.04 C260.157 363.222 264.488 366.358 268.859 369.445 C278.229 376.071 286.79 382.981 295 391 C296.007 391.915 296.007 391.915 297.035 392.848 C309.381 404.294 317.529 420.912 322.875 436.625 C323.161 437.459 323.448 438.293 323.743 439.152 C332.94 467.6 328.471 498.318 319 526 C318.437 527.729 317.875 529.458 317.312 531.188 C316.621 533.272 315.903 535.203 314.953 537.188 C311.429 547.587 313.239 559.665 317.89 569.361 C322.895 579.047 329.481 587.435 336.375 595.812 C355.707 619.306 366.487 641.781 366.25 672.75 C366.247 673.457 366.244 674.164 366.242 674.893 C366.195 685.066 365.806 694.957 364 705 C363.829 706.218 363.657 707.436 363.48 708.691 C359.909 731.528 350.653 755.725 335 773 C334.277 773.875 333.554 774.751 332.809 775.652 C316.262 795.088 284.719 814.566 259 817 C258 816 258 816 257.902 812.402 C257.909 810.914 257.921 809.426 257.938 807.938 C257.944 806.8 257.944 806.8 257.951 805.639 C257.963 803.759 257.981 801.88 258 800 C257.432 800.641 256.863 801.281 256.277 801.941 C243.681 816.052 243.681 816.052 239.562 818.375 C237.58 820.437 237.736 821.31 237.688 824.125 C237.766 826.382 237.949 828.604 238.236 830.845 C239.006 836.957 239.161 842.985 239.168 849.141 C239.171 850.185 239.175 851.229 239.178 852.304 C239.183 854.503 239.185 856.701 239.185 858.9 C239.187 862.226 239.206 865.552 239.225 868.879 C239.28 889.686 239.28 889.686 237 900 C236.694 901.408 236.694 901.408 236.382 902.844 C234.717 909.66 232.248 914.505 229 921 C88.75 921 -51.5 921 -196 921 C-196 909.746 -196 909.746 -194.793 905.711 C-194.536 904.832 -194.279 903.953 -194.014 903.047 C-193.741 902.165 -193.468 901.283 -193.188 900.375 C-192.926 899.486 -192.665 898.596 -192.396 897.68 C-190.812 892.361 -189.008 887.173 -187 882 C-187.799 881.478 -188.598 880.956 -189.422 880.418 C-197.631 874.958 -204.926 868.865 -212 862 C-212.569 861.457 -213.138 860.914 -213.724 860.354 C-231.209 843.633 -248.885 821.922 -255 798 C-255 797.34 -255 796.68 -255 796 C-255.818 795.762 -255.818 795.762 -256.652 795.52 C-266.042 792.614 -276.147 788.156 -281.543 779.535 C-283.727 775.37 -285 772.778 -285 768 C-286.207 768.186 -286.207 768.186 -287.438 768.375 C-293.82 767.703 -298.466 763.888 -302.438 759 C-305.832 752.482 -306.257 747.233 -306 740 C-306.784 739.959 -307.567 739.918 -308.375 739.875 C-318.677 737.388 -325.979 730.122 -331.66 721.473 C-334.148 716.882 -334.136 713.019 -334.125 707.812 C-334.129 705.935 -334.129 705.935 -334.133 704.02 C-334 701 -334 701 -333 700 C-332.351 697.67 -332.351 697.67 -333 695 C-335.23 693.084 -337.278 691.607 -339.75 690.062 C-341.227 689.094 -342.704 688.124 -344.18 687.152 C-344.966 686.642 -345.752 686.131 -346.562 685.605 C-350.726 682.864 -354.797 679.992 -358.875 677.125 C-359.714 676.537 -360.553 675.949 -361.417 675.343 C-370.007 669.314 -378.543 663.213 -387 657 C-387.626 656.541 -388.251 656.082 -388.896 655.609 C-409.736 640.23 -409.736 640.23 -411.406 630.676 C-411.732 622.467 -408.624 617.067 -403.242 611.027 C-393.081 601.355 -381.744 598.526 -368.207 598.699 C-363.948 598.882 -360.829 599.985 -357.107 602.05 C-349.716 605.381 -340.064 601.909 -332.625 600.188 C-323.285 598.096 -313.987 596.201 -304.51 594.85 C-300.635 594.344 -300.635 594.344 -297 593 C-295.392 592.735 -293.777 592.514 -292.16 592.316 C-291.179 592.193 -290.197 592.07 -289.186 591.943 C-288.155 591.818 -287.124 591.692 -286.062 591.562 C-280.116 590.835 -274.203 590.074 -268.312 588.973 C-252.118 585.948 -235.799 585.793 -219.375 585.75 C-218.46 585.745 -217.544 585.74 -216.601 585.734 C-203.584 585.676 -191.117 585.932 -178.812 590.688 C-178.133 590.947 -177.454 591.206 -176.754 591.473 C-171.036 593.768 -166.546 596.836 -162 601 C-160.648 602.148 -159.294 603.294 -157.938 604.438 C-156.968 605.283 -155.999 606.129 -155 607 C-154.609 605.929 -154.609 605.929 -154.211 604.836 C-149.722 594.324 -141.406 585.282 -134.202 576.527 C-130.726 572.11 -130.765 568.774 -130.688 563.375 C-129.601 531.069 -118.096 497.47 -98.316 471.816 C-89.396 459.693 -88.802 443.902 -88.812 429.375 C-88.813 428.219 -88.814 427.062 -88.815 425.871 C-88.873 417.718 -89.407 410.009 -91 402 C-91.144 401.108 -91.289 400.216 -91.438 399.297 C-92.489 393.177 -94.459 387.657 -97 382 C-97.278 381.338 -97.555 380.676 -97.842 379.993 C-99.188 377.677 -100.16 377.057 -102.535 375.879 C-103.254 375.508 -103.972 375.137 -104.712 374.754 C-105.488 374.361 -106.263 373.968 -107.062 373.562 C-134.712 358.848 -163.373 332.534 -173.949 302.285 C-175.021 297.838 -175.194 293.559 -175 289 C-176.1 288.615 -176.1 288.615 -177.223 288.223 C-188.513 283.253 -194.578 271.876 -198.914 260.98 C-200.182 257.5 -201.251 253.997 -202.242 250.43 C-203.283 247.092 -204.727 243.966 -206.23 240.812 C-207.433 236.418 -208.007 232.493 -207 228 C-204.148 223.996 -200.281 221.096 -196.512 217.99 C-194.364 216.08 -192.574 214.408 -191 212 C-190.806 208.658 -191.743 206.065 -193 203 C-193.391 201.876 -193.781 200.752 -194.184 199.594 C-194.597 198.573 -195.011 197.552 -195.438 196.5 C-197.472 191.377 -199.31 186.246 -201 181 C-201.326 182.195 -201.652 183.39 -201.988 184.621 C-202.43 186.227 -202.871 187.832 -203.312 189.438 C-203.526 190.221 -203.739 191.004 -203.959 191.811 C-205.036 195.715 -206.175 199.565 -207.508 203.391 C-209.277 208.609 -210.427 213.926 -211.562 219.312 C-211.779 220.323 -211.996 221.333 -212.22 222.374 C-213.532 228.558 -214.727 234.732 -215.641 240.988 C-216 243 -216 243 -217 245 C-219.952 261.781 -221.402 278.786 -221.375 295.812 C-221.377 296.832 -221.377 296.832 -221.38 297.872 C-221.377 306.455 -220.675 314.588 -219 323 C-218.849 323.831 -218.698 324.662 -218.542 325.519 C-216.713 335.523 -214.492 344.812 -210 354 C-209.575 354.89 -209.575 354.89 -209.141 355.797 C-203.002 368.618 -196.278 381.137 -188.438 393 C-185.191 397.938 -182.297 402.978 -179.625 408.25 C-179.303 408.875 -178.982 409.5 -178.65 410.145 C-174.279 419 -172.459 427.322 -172.562 437.188 C-172.569 438.19 -172.575 439.192 -172.581 440.225 C-172.864 453.786 -176.034 467.187 -185.363 477.457 C-188.972 480.859 -192.38 482.882 -197.438 483.25 C-198.283 483.168 -199.129 483.085 -200 483 C-199.625 482.587 -199.25 482.175 -198.863 481.75 C-190.334 472.125 -185.114 462.091 -185.602 448.871 C-188.234 429.903 -203.36 416.1 -216.438 403.5 C-239.011 381.692 -256.033 358.607 -262.938 327.375 C-263.125 326.531 -263.312 325.688 -263.505 324.819 C-267.078 306.989 -267.295 288.994 -267.206 270.877 C-267.188 267.099 -267.185 263.322 -267.186 259.545 C-267.167 246.709 -266.972 233.887 -266.551 221.059 C-266.512 219.85 -266.474 218.642 -266.434 217.397 C-266.233 211.852 -265.883 206.476 -265 201 C-264.911 199.559 -264.848 198.116 -264.824 196.672 C-264.429 181.91 -262.475 167.548 -260 153 C-259.841 152.067 -259.683 151.134 -259.519 150.173 C-253.707 116.93 -241.859 79.333 -214 58 C-198.607 47.615 -184.716 45.234 -166.587 46.535 C-157.221 47.23 -157.221 47.23 -148.644 43.875 C-145.894 41.376 -143.444 38.794 -141 36 C-139.666 34.77 -138.316 33.556 -136.938 32.375 C-136.299 31.823 -135.661 31.272 -135.004 30.703 C-134.343 30.141 -133.681 29.579 -133 29 C-132.267 28.376 -131.533 27.752 -130.777 27.109 C-112.63 12.12 -91.066 0.928 -68 -4 C-66.947 -4.242 -65.894 -4.485 -64.809 -4.734 C-43.595 -8.828 -20.505 -6.215 0 0 Z " fill="#040404" transform="translate(565,103)"/>
<path d="M0 0 C1.599 0.22 3.207 0.373 4.815 0.506 C7.538 0.973 8.825 1.477 10.948 3.268 C14.352 8.303 16.697 13.638 18.948 19.268 C19.255 20.034 19.562 20.8 19.878 21.589 C27.29 40.559 31.603 60.318 35.073 80.331 C35.19 80.995 35.306 81.659 35.426 82.343 C40.69 112.663 43.655 143.425 47.206 173.981 C47.822 179.278 48.44 184.576 49.058 189.874 C49.755 195.851 50.452 201.828 51.147 207.805 C51.304 209.157 51.304 209.157 51.465 210.537 C51.669 212.29 51.873 214.043 52.077 215.796 C52.557 219.922 53.039 224.047 53.527 228.171 C53.664 229.334 53.664 229.334 53.804 230.519 C53.975 231.957 54.145 233.394 54.316 234.832 C54.917 239.909 55.421 244.99 55.886 250.081 C56.494 256.457 57.297 262.759 58.323 269.081 C59.959 279.329 61.011 289.636 62.073 299.956 C62.16 300.782 62.246 301.609 62.335 302.46 C63.311 311.858 64.158 321.239 64.6 330.679 C64.796 334.614 65.28 338.389 65.948 342.268 C66.074 343.983 66.168 345.702 66.229 347.42 C66.267 348.362 66.304 349.304 66.343 350.274 C66.378 351.241 66.412 352.209 66.448 353.206 C66.518 355.131 66.591 357.057 66.667 358.983 C66.697 359.83 66.728 360.677 66.759 361.549 C66.917 364.368 66.917 364.368 67.453 367.528 C68.025 371.846 68.128 376.051 68.151 380.401 C68.158 381.267 68.165 382.133 68.172 383.026 C68.19 385.815 68.196 388.604 68.198 391.393 C68.199 392.341 68.2 393.289 68.201 394.266 C68.192 407.785 67.974 421.028 64.948 434.268 C64.788 434.979 64.627 435.689 64.462 436.421 C63.108 442.228 61.492 447.895 59.382 453.476 C59.113 454.188 58.844 454.901 58.567 455.635 C58.261 456.443 58.261 456.443 57.948 457.268 C41.536 457.479 25.123 457.637 8.71 457.734 C1.087 457.781 -6.535 457.844 -14.157 457.947 C-20.808 458.037 -27.459 458.095 -34.11 458.115 C-37.626 458.127 -41.14 458.153 -44.655 458.22 C-60.944 458.514 -72.749 458.083 -86.052 448.268 C-88.274 446.949 -90.534 445.744 -92.817 444.53 C-105.446 437.574 -117.961 430.481 -130.268 422.965 C-133.489 421.001 -136.718 419.048 -139.946 417.096 C-160.2 404.843 -160.2 404.843 -169.552 398.956 C-177.79 393.772 -186.125 388.756 -194.495 383.788 C-196.204 382.772 -197.911 381.752 -199.616 380.729 C-202.11 379.232 -204.611 377.749 -207.114 376.268 C-207.851 375.823 -208.587 375.379 -209.346 374.921 C-218.554 369.521 -227.652 366.768 -238.239 365.706 C-239.297 365.588 -240.354 365.471 -241.443 365.35 C-249.698 364.455 -257.967 363.712 -266.235 362.957 C-313.679 358.622 -348.181 340.346 -379.052 303.268 C-380.398 301.612 -381.738 299.95 -383.052 298.268 C-378.95 299.949 -375.941 302.861 -372.677 305.768 C-357.577 318.943 -337.111 335.98 -317.052 339.268 C-317.052 337.948 -317.052 336.628 -317.052 335.268 C-318.326 334.877 -318.326 334.877 -319.626 334.479 C-337.414 328.191 -352.944 315.335 -367.433 303.579 C-368.958 302.344 -370.497 301.126 -372.036 299.909 C-379.722 293.656 -386.738 286.766 -393.739 279.768 C-394.235 279.273 -394.731 278.778 -395.242 278.268 C-403.675 269.834 -403.675 269.834 -406.052 266.268 C-405.677 263.581 -405.677 263.581 -405.052 261.268 C-402.216 262.572 -400.046 263.986 -397.739 266.081 C-397.046 266.699 -396.352 267.318 -395.638 267.956 C-394.358 269.1 -394.358 269.1 -393.052 270.268 C-374.418 286.762 -355.071 301.551 -333.052 313.268 C-332.01 313.842 -330.969 314.415 -329.896 315.006 C-327.019 316.283 -325.284 316.597 -322.177 316.456 C-321.396 316.428 -320.614 316.401 -319.81 316.374 C-319.229 316.339 -318.649 316.304 -318.052 316.268 C-319.374 313.624 -320.352 313.66 -323.114 312.706 C-342.061 305.342 -358.712 292.34 -374.052 279.268 C-375.158 278.336 -376.265 277.403 -377.372 276.471 C-405.294 252.851 -405.294 252.851 -410.052 245.268 C-409.862 241.867 -409.478 240.694 -407.052 238.268 C-403.22 238.524 -401.512 240.552 -398.989 243.268 C-394.871 247.527 -390.538 251.27 -385.911 254.963 C-384.02 256.488 -382.154 258.045 -380.317 259.635 C-365.704 272.271 -338.394 295.372 -318.364 295.581 C-317.271 295.477 -316.178 295.374 -315.052 295.268 C-315.052 294.278 -315.052 293.288 -315.052 292.268 C-316.01 291.951 -316.967 291.634 -317.954 291.307 C-340.533 283.52 -359.987 269.059 -378.154 253.853 C-379.994 252.317 -381.845 250.797 -383.7 249.28 C-398.826 236.824 -398.826 236.824 -402.052 229.268 C-402.177 226.518 -402.177 226.518 -402.052 224.268 C-397.63 223.015 -397.63 223.015 -395.157 224.096 C-394.524 224.565 -393.891 225.035 -393.239 225.518 C-392.058 226.357 -392.058 226.357 -390.853 227.213 C-389.928 227.891 -389.004 228.569 -388.052 229.268 C-365.907 245.487 -340.265 259.178 -313.052 264.268 C-312.121 264.443 -311.19 264.618 -310.231 264.799 C-301.668 266.27 -293.292 266.635 -284.614 266.643 C-283.312 266.668 -282.009 266.692 -280.667 266.717 C-267.369 266.757 -254.293 263.663 -243.052 256.268 C-240.136 253.149 -239.138 251.788 -238.427 247.518 C-239.02 237.871 -248.653 229.869 -254.656 222.894 C-256.807 220.388 -258.937 217.867 -261.052 215.331 C-261.753 214.497 -262.454 213.663 -263.177 212.803 C-267.405 207.086 -268.409 203.175 -268.052 196.268 C-266.323 195.589 -266.323 195.589 -264.052 195.268 C-261.952 196.389 -261.952 196.389 -259.708 198.135 C-258.88 198.769 -258.051 199.403 -257.198 200.057 C-256.325 200.745 -255.451 201.434 -254.552 202.143 C-252.742 203.539 -250.932 204.935 -249.122 206.331 C-248.248 207.011 -247.375 207.692 -246.475 208.393 C-243.496 210.698 -240.467 212.921 -237.427 215.143 C-219.716 228.469 -206.095 244.113 -199.052 265.268 C-198.718 266.219 -198.384 267.171 -198.04 268.151 C-196.262 273.311 -194.685 278.51 -193.198 283.759 C-192.366 286.667 -191.496 289.563 -190.606 292.454 C-190.164 293.902 -189.746 295.357 -189.337 296.815 C-186.626 304.143 -178.482 307.626 -172.052 311.268 C-171.437 311.625 -170.822 311.982 -170.189 312.349 C-151.621 323.05 -131.208 331.093 -111.052 338.268 C-109.73 338.759 -108.408 339.251 -107.087 339.745 C-96.467 343.662 -85.672 346.663 -74.732 349.548 C-72.182 350.233 -69.643 350.951 -67.106 351.686 C-59.49 353.889 -52.117 355.669 -44.247 356.764 C-28.691 359.217 -14.197 365.147 -2.052 375.268 C-4.742 367.113 -11.979 362.139 -19.353 358.294 C-22.221 356.878 -25.124 355.556 -28.052 354.268 C-28.817 353.929 -29.583 353.59 -30.372 353.241 C-35.433 351.182 -40.694 350.201 -46.052 349.268 C-46.052 348.938 -46.052 348.608 -46.052 348.268 C-30.802 347.105 -21.45 349.995 -9.177 359.706 C-7.452 361.208 -5.743 362.728 -4.052 364.268 C-2.992 365.188 -2.992 365.188 -1.911 366.127 C11.256 378.258 18.426 395.992 23.264 412.865 C24.438 416.923 25.955 420.545 27.948 424.268 C30.815 423.695 31.81 423.407 33.948 421.268 C34.278 422.258 34.608 423.248 34.948 424.268 C35.938 424.268 36.928 424.268 37.948 424.268 C41.782 416.601 39.185 404.96 36.797 397.222 C33.2 386.546 28.938 376.216 21.948 367.268 C22.278 366.608 22.608 365.948 22.948 365.268 C24.574 367.371 26.199 369.476 27.823 371.581 C28.514 372.473 28.514 372.473 29.218 373.383 C31.211 375.968 33.137 378.551 34.948 381.268 C35.938 381.598 36.928 381.928 37.948 382.268 C30.53 361.366 14.451 347.162 -5.052 337.268 C-9.964 335.045 -14.972 333.077 -20.052 331.268 C-21.098 330.885 -22.145 330.502 -23.224 330.108 C-28.664 328.914 -33.939 329.057 -39.489 329.143 C-41.159 329.157 -41.159 329.157 -42.862 329.17 C-45.592 329.194 -48.322 329.227 -51.052 329.268 C-55.499 320.969 -55.499 320.969 -55.677 316.768 C-55.82 313.906 -56.241 311.552 -56.979 308.751 C-58.21 303.9 -58.861 299.025 -59.489 294.065 C-59.678 292.626 -59.678 292.626 -59.87 291.159 C-60.268 288.112 -60.66 285.065 -61.052 282.018 C-61.57 278.012 -62.091 274.007 -62.614 270.002 C-62.739 269.045 -62.864 268.088 -62.992 267.103 C-63.76 261.278 -64.644 255.487 -65.654 249.699 C-66.278 245.883 -66.645 242.055 -66.989 238.206 C-67.775 229.948 -68.639 221.7 -69.552 213.456 C-69.67 212.372 -69.789 211.288 -69.911 210.172 C-71.057 199.862 -72.332 189.571 -74.008 179.333 C-76.999 160.992 -78.521 143.053 -78.427 124.456 C-78.422 123.512 -78.418 122.568 -78.413 121.596 C-78.305 105.938 -78.098 90.332 -74.864 74.956 C-74.646 73.894 -74.427 72.832 -74.202 71.738 C-72.13 62.021 -69.402 52.617 -66.052 43.268 C-65.47 41.613 -65.47 41.613 -64.876 39.924 C-58.499 23.27 -47.182 8.768 -32.052 -0.732 C-22.347 -3.967 -9.994 -1.447 0 0 Z " fill="#FEFEFE" transform="translate(726.0517578125,566.73193359375)"/>
<path d="M0 0 C5.09 5.641 8.017 13.908 11.25 20.688 C12.062 22.359 12.062 22.359 12.891 24.064 C13.406 25.14 13.922 26.216 14.453 27.324 C14.919 28.294 15.384 29.265 15.864 30.264 C16.958 32.899 17.705 35.163 18 38 C16.367 40.445 16.367 40.445 13.875 43.125 C6.741 51.166 0.885 60.023 -5 69 C-5.519 69.79 -6.039 70.579 -6.574 71.393 C-24.196 98.419 -38.615 127.535 -50.393 157.549 C-50.825 158.641 -51.258 159.734 -51.703 160.859 C-52.076 161.828 -52.449 162.797 -52.833 163.796 C-54 166 -54 166 -57 167 C-65.939 162.327 -71.034 153.739 -75.688 145.125 C-79.702 137.897 -83.892 130.867 -88.5 124 C-89.238 122.898 -89.238 122.898 -89.991 121.774 C-97.43 110.757 -97.43 110.757 -109.188 105.375 C-113.08 106.24 -114.535 107.919 -117 111 C-119.13 115.163 -119.311 119.036 -119.25 123.625 C-119.244 124.676 -119.244 124.676 -119.238 125.748 C-119.141 131.635 -118.36 137.267 -117 143 C-115.68 143 -114.36 143 -113 143 C-113.016 142.228 -113.031 141.456 -113.048 140.661 C-113.11 137.17 -113.149 133.679 -113.188 130.188 C-113.213 128.973 -113.238 127.758 -113.264 126.506 C-113.273 125.342 -113.283 124.179 -113.293 122.98 C-113.309 121.907 -113.324 120.833 -113.341 119.727 C-113 117 -113 117 -111.636 115.151 C-109.28 113.493 -107.816 113.566 -105 114 C-94.653 121.21 -88.357 137.008 -82.359 147.691 C-73.089 164.24 -73.089 164.24 -58 175 C-54.87 175.835 -54.87 175.835 -52 175 C-47.838 169.868 -45.834 163.87 -43.5 157.75 C-31.205 126.333 -16.058 95.987 2.938 68.062 C3.592 67.096 3.592 67.096 4.26 66.11 C6.877 62.342 9.661 59.148 13 56 C13.932 56.762 14.864 57.524 15.824 58.309 C23.989 64.939 32.296 71.091 41 77 C43.552 78.756 46.091 80.53 48.625 82.312 C49.217 82.721 49.81 83.13 50.42 83.551 C53.518 85.738 55.936 87.802 58 91 C56.912 91.026 55.824 91.052 54.703 91.078 C36.665 91.692 21.893 96.972 9.238 110.414 C-1.289 122.577 -8.052 136.805 -13 152 C-13.446 153.299 -13.894 154.597 -14.344 155.895 C-16.629 162.549 -18.587 169.109 -20 176 C-20.175 176.821 -20.35 177.642 -20.531 178.489 C-27.537 212.842 -25.165 248.771 -19.863 283.176 C-18.72 290.642 -17.828 298.123 -17.938 305.688 C-17.947 306.516 -17.956 307.345 -17.965 308.199 C-17.982 309.091 -17.982 309.091 -18 310 C-33.272 296.075 -36.899 277.007 -37.852 257.332 C-37.925 255.683 -37.925 255.683 -38 254 C-40.239 254.858 -40.239 254.858 -41.102 257.402 C-45.13 273.532 -41.835 290.217 -33.727 304.418 C-31.325 308.01 -28.536 311.119 -25.539 314.223 C-24 316 -24 316 -24 318 C-23.443 318.268 -22.886 318.536 -22.312 318.812 C-21.549 319.204 -20.786 319.596 -20 320 C-19.153 320.34 -18.305 320.681 -17.432 321.032 C-15 323 -15 323 -14.129 326.828 C-13.988 328.443 -13.873 330.061 -13.777 331.68 C-13.671 332.988 -13.671 332.988 -13.563 334.322 C-13.412 336.197 -13.272 338.072 -13.142 339.948 C-12.799 344.86 -12.381 349.765 -11.973 354.672 C-11.893 355.647 -11.814 356.623 -11.733 357.628 C-11.053 365.841 -10.066 373.97 -8.875 382.125 C-8.622 383.869 -8.622 383.869 -8.364 385.649 C-8.049 387.807 -7.732 389.964 -7.414 392.121 C-6.837 396.136 -6.34 400.158 -5.875 404.188 C-5.725 405.469 -5.576 406.75 -5.422 408.07 C-5.112 410.961 -4.832 413.847 -4.578 416.742 C-4.464 417.948 -4.464 417.948 -4.348 419.179 C-4.205 420.706 -4.075 422.235 -3.96 423.764 C-3.496 428.607 -2.209 432.012 0.36 436.156 C1 438 1 438 0.238 439.983 C-0.171 440.648 -0.579 441.314 -1 442 C-1.371 442.743 -1.743 443.485 -2.125 444.25 C-2.414 444.827 -2.702 445.405 -3 446 C-10.545 445.471 -17.157 443.578 -24.312 441.188 C-25.364 440.844 -26.415 440.5 -27.498 440.146 C-29.617 439.452 -31.734 438.753 -33.85 438.048 C-35.936 437.354 -38.024 436.667 -40.115 435.987 C-45.655 434.175 -51.094 432.231 -56.489 430.023 C-59.146 428.941 -61.818 427.907 -64.496 426.879 C-76.077 422.386 -87.426 417.554 -98.625 412.188 C-99.756 411.649 -100.887 411.11 -102.052 410.555 C-117.926 402.833 -117.926 402.833 -121.25 394.438 C-121.496 393.823 -121.742 393.208 -121.996 392.574 C-123.832 387.838 -125.104 383.053 -126.242 378.113 C-132.606 351.97 -146.984 328.552 -169.75 313.688 C-170.663 313.148 -170.663 313.148 -171.594 312.597 C-173.297 311.512 -173.297 311.512 -176 309 C-176.64 306.094 -176.939 303.899 -177 301 C-177.125 299.938 -177.25 298.876 -177.379 297.781 C-178.609 275.798 -165.813 254.766 -156.539 235.572 C-150.898 223.89 -145.697 212.097 -141 200 C-140.553 198.862 -140.553 198.862 -140.097 197.7 C-133.706 181.237 -129.126 163.844 -128.719 146.133 C-128.691 145.053 -128.691 145.053 -128.663 143.952 C-128.605 141.676 -128.552 139.401 -128.5 137.125 C-128.369 131.415 -128.203 125.708 -128 120 C-127.986 119.016 -127.972 118.032 -127.957 117.019 C-127.478 106.338 -119.872 99.396 -112.812 92.062 C-111.746 90.932 -111.746 90.932 -110.658 89.779 C-107.862 86.841 -105.388 84.258 -102 82 C-101.481 82.759 -100.961 83.519 -100.426 84.301 C-99.728 85.295 -99.031 86.289 -98.312 87.312 C-97.286 88.792 -97.286 88.792 -96.238 90.301 C-93.977 93.027 -92.173 94.475 -89 96 C-86.29 96.252 -86.29 96.252 -84 96 C-84.387 95.587 -84.773 95.175 -85.172 94.75 C-89.849 89.564 -93.896 84.171 -94.812 77.062 C-94.546 72.033 -91.013 69.363 -87.484 66.141 C-86.665 65.434 -85.845 64.728 -85 64 C-84.366 63.438 -83.732 62.876 -83.078 62.297 C-81.821 61.191 -80.557 60.093 -79.285 59.004 C-76.936 56.943 -74.65 54.826 -72.367 52.693 C-66.113 46.855 -59.682 41.347 -53 36 C-51.028 34.402 -49.059 32.802 -47.09 31.2 C-45.697 30.067 -44.304 28.935 -42.91 27.804 C-39.031 24.656 -35.166 21.491 -31.312 18.312 C-6.13 -2.25 -6.13 -2.25 0 0 Z " fill="#D2D3D2" transform="translate(664,464)"/>
<path d="M0 0 C2.718 0.003 5.435 -0.021 8.153 -0.046 C26.147 -0.111 44.464 1.568 58.03 14.679 C66.28 23.408 73.652 32.887 81.009 42.369 C82.636 44.463 84.27 46.552 85.905 48.64 C97.633 63.641 109.023 78.861 120.103 94.346 C121.365 96.099 122.643 97.837 123.932 99.57 C124.58 100.455 125.229 101.341 125.897 102.253 C126.441 102.984 126.985 103.715 127.545 104.468 C128.029 105.383 128.029 105.383 128.522 106.316 C128.192 107.306 127.862 108.296 127.522 109.316 C120.878 110.88 114.059 110.558 107.272 110.566 C106.55 110.567 105.829 110.568 105.086 110.57 C94.269 110.565 84.051 109.985 73.522 107.316 C72.521 107.088 71.521 106.859 70.49 106.624 C50.654 101.749 30.31 91.135 14.522 78.316 C12.195 76.608 9.832 74.957 7.459 73.316 C6.396 72.573 5.332 71.831 4.237 71.066 C-0.132 68.249 -4.355 67.49 -9.478 68.316 C-12.768 69.938 -12.768 69.938 -14.478 73.316 C-14.584 77.067 -14.131 80.627 -13.478 84.316 C-14.266 84.612 -15.054 84.909 -15.865 85.214 C-18.98 86.527 -19.967 87.294 -21.478 90.316 C-22.182 96.546 -21.389 99.254 -17.478 104.316 C-16.784 105.635 -16.103 106.962 -15.478 108.316 C-16.138 108.976 -16.798 109.636 -17.478 110.316 C-18.142 116.07 -16.916 118.766 -13.478 123.316 C-12.784 124.635 -12.103 125.962 -11.478 127.316 C-13.788 126.986 -16.098 126.656 -18.478 126.316 C-18.565 125.663 -18.651 125.011 -18.74 124.339 C-19.732 118.169 -20.925 114.652 -25.478 110.316 C-28.597 108.203 -31.778 107.82 -35.478 107.316 C-35.625 106.724 -35.772 106.132 -35.924 105.523 C-37.874 98.651 -40.225 95.948 -46.307 92.184 C-49.12 91.059 -51.255 91.203 -54.275 91.366 C-55.399 91.404 -56.523 91.443 -57.681 91.482 C-60.031 91.579 -62.38 91.696 -64.728 91.833 C-70.469 91.994 -74.398 92.086 -78.814 88.148 C-80.039 86.874 -81.261 85.597 -82.478 84.316 C-83.741 83.33 -85.031 82.379 -86.345 81.464 C-86.994 81.012 -87.642 80.56 -88.311 80.095 C-88.985 79.631 -89.659 79.168 -90.353 78.691 C-91.85 77.649 -93.346 76.606 -94.842 75.562 C-95.605 75.029 -96.369 74.497 -97.156 73.948 C-100.982 71.259 -104.759 68.504 -108.541 65.753 C-114.111 61.71 -119.724 57.748 -125.416 53.878 C-133.866 48.122 -142.09 42.073 -150.278 35.951 C-152.305 34.444 -154.347 32.961 -156.396 31.484 C-168.044 22.988 -168.044 22.988 -170.478 16.316 C-170.916 12.941 -170.916 12.941 -170.478 10.316 C-169.818 9.656 -169.158 8.996 -168.478 8.316 C-168.169 9.429 -168.169 9.429 -167.853 10.566 C-165.365 15.542 -160.963 17.262 -155.916 19.003 C-140.47 23.931 -122.069 21.794 -106.709 17.519 C-97.685 15.056 -88.592 12.917 -79.478 10.816 C-78.623 10.618 -77.769 10.421 -76.888 10.218 C-66.85 7.909 -56.815 5.648 -46.666 3.878 C-45.871 3.739 -45.076 3.6 -44.258 3.456 C-41.669 3.032 -39.078 2.665 -36.478 2.316 C-35.195 2.141 -33.911 1.967 -32.589 1.787 C-21.715 0.398 -10.956 -0.027 0 0 Z " fill="#FEFEFE" transform="translate(332.478271484375,715.684326171875)"/>
<path d="M0 0 C4.714 16.601 9.138 33.256 13.312 50 C13.525 50.85 13.737 51.7 13.956 52.575 C15.147 57.354 16.327 62.135 17.492 66.919 C17.953 68.808 18.42 70.695 18.888 72.582 C23.202 90.452 29.433 119.482 21.598 137.164 C18.211 142.014 13.96 145.435 9.039 148.655 C7.195 149.872 5.566 151.145 3.91 152.602 C1.347 154.853 -1.289 156.931 -4 159 C-4.963 159.757 -5.926 160.513 -6.918 161.293 C-21.651 172.671 -38.525 182.846 -57.715 182.434 C-64.268 181.569 -70.096 178.829 -76 176 C-76.699 175.668 -77.397 175.336 -78.117 174.994 C-88.349 170.047 -97.296 164.279 -106 157 C-107.176 156.04 -108.352 155.081 -109.527 154.121 C-124.298 141.916 -136.292 127.939 -145.562 111.125 C-145.897 110.531 -146.232 109.937 -146.577 109.325 C-148.956 104.822 -149.599 100.995 -150 96 C-149.201 95.997 -148.402 95.995 -147.578 95.992 C-136.529 95.603 -128.454 92.061 -120 85 C-119.841 85.603 -119.683 86.207 -119.52 86.828 C-118.408 90.636 -117.43 93.482 -114.875 96.562 C-110.883 98.558 -107.381 98.85 -103 98 C-100.43 96.187 -100.43 96.187 -99 94 C-100.121 94.052 -100.121 94.052 -101.266 94.105 C-102.25 94.133 -103.235 94.16 -104.25 94.188 C-105.225 94.222 -106.199 94.257 -107.203 94.293 C-110.428 93.955 -111.708 93.255 -114 91 C-115.755 85.735 -115.607 81.175 -113.5 76.125 C-109.45 64.887 -111.619 52.166 -115.223 41.137 C-116.019 37.925 -115.935 36.134 -115 33 C-109.043 32.609 -109.043 32.609 -107 33 C-103.792 36.168 -102.477 40.455 -100.812 44.562 C-95.213 57.717 -87.516 67.704 -74.312 74 C-65.335 76.826 -54.061 75.981 -45.527 72.324 C-34.638 66.619 -28.206 59.931 -23.762 48.492 C-20.502 37.828 -21.682 26.715 -24 16 C-24.673 12.668 -25.337 9.334 -26 6 C-22.607 4.989 -19.21 3.993 -15.812 3 C-14.853 2.714 -13.893 2.428 -12.904 2.133 C-11.973 1.862 -11.042 1.591 -10.082 1.312 C-9.228 1.061 -8.375 0.81 -7.495 0.551 C-4.919 -0.018 -2.63 -0.099 0 0 Z " fill="#FEFEFE" transform="translate(548,299)"/>
<path d="M0 0 C0.677 3.039 1.34 6.082 2 9.125 C2.191 9.981 2.382 10.837 2.578 11.719 C4.035 18.482 5.117 23.703 1.625 30 C-1.811 36.293 -1.811 36.293 -3.02 43.27 C-3.113 48.821 -3.953 51.523 -8 55.438 C-8.812 56.171 -9.624 56.904 -10.461 57.66 C-32.651 78.109 -36.497 103.461 -39.036 132.059 C-39.627 138.712 -40.284 145.358 -41 152 C-41.076 152.713 -41.153 153.426 -41.231 154.161 C-43.687 176.584 -49.096 195.298 -59.282 215.437 C-63.914 224.676 -67.61 234.367 -70.812 244.188 C-71.211 245.398 -71.609 246.608 -72.02 247.855 C-73.551 252.768 -74.228 257.083 -74.562 262.25 C-74.646 263.513 -74.73 264.777 -74.816 266.078 C-74.907 267.524 -74.907 267.524 -75 269 C-76.23 268.084 -77.459 267.167 -78.688 266.25 C-79.424 265.706 -80.16 265.162 -80.918 264.602 C-83 263 -83 263 -85.5 260.625 C-88.998 258.351 -91.938 258.168 -96 259 C-98.852 260.697 -98.852 260.697 -101 263 C-102 264 -103 265 -104 266 C-104.372 265.493 -104.743 264.985 -105.126 264.462 C-114.142 252.15 -114.142 252.15 -123.375 240 C-124.152 238.988 -124.93 237.976 -125.73 236.934 C-127.278 234.933 -128.844 232.947 -130.426 230.973 C-131.172 230.012 -131.919 229.052 -132.688 228.062 C-133.351 227.228 -134.015 226.394 -134.699 225.535 C-136.419 222.183 -136.062 220.574 -135 217 C-133.016 213.116 -130.471 209.59 -128 206 C-127.632 205.463 -127.264 204.926 -126.885 204.373 C-121.239 196.178 -115.18 188.369 -108.926 180.633 C-105.012 175.789 -101.211 170.861 -97.446 165.902 C-96.4 164.526 -95.351 163.151 -94.3 161.777 C-87.432 152.787 -80.663 143.74 -74.312 134.375 C-73.832 133.678 -73.351 132.981 -72.856 132.263 C-68.095 125.12 -64.748 117.6 -64 109 C-67.639 112.466 -70.555 115.979 -73.438 120.125 C-74.311 121.368 -75.186 122.61 -76.062 123.852 C-76.532 124.517 -77.001 125.183 -77.484 125.868 C-84.466 135.688 -91.65 145.377 -99.062 154.875 C-99.705 155.704 -99.705 155.704 -100.361 156.549 C-103.044 159.951 -105.891 162.996 -109 166 C-109.699 153.187 -106.736 139.869 -102 128 C-101.711 127.264 -101.423 126.528 -101.125 125.77 C-99.676 123.49 -98.618 123.276 -96.062 122.5 C-91.601 120.688 -88.896 118.03 -85.812 114.438 C-81.76 109.735 -77.518 105.702 -72.625 101.875 C-72.042 101.414 -71.459 100.953 -70.859 100.478 C-67.713 98.068 -64.765 96.255 -61 95 C-56.817 106.851 -55.938 119.06 -55.396 131.511 C-55.114 137.7 -54.569 143.838 -53.938 150 C-53.222 157.021 -52.702 163.934 -53 171 C-50.082 168.336 -49.077 166.398 -48.855 162.362 C-48.83 158.825 -48.81 155.288 -48.812 151.75 C-48.814 149.805 -48.814 149.805 -48.815 147.821 C-48.866 139.619 -49.16 131.484 -49.875 123.312 C-49.953 122.413 -50.032 121.514 -50.113 120.587 C-50.62 115.413 -51.465 110.391 -52.536 105.306 C-53.161 102.201 -53.552 99.08 -53.938 95.938 C-55.154 86.205 -55.154 86.205 -59.875 77.875 C-62.702 76.711 -64.093 77.125 -67 78 C-73.074 83.048 -77.583 90.362 -82.143 96.77 C-84.55 100.134 -86.951 103.172 -90 106 C-88.154 99.703 -85.73 94.279 -82.312 88.688 C-81.645 87.577 -81.645 87.577 -80.964 86.445 C-77.162 80.167 -73.205 74.017 -69 68 C-68.516 67.307 -68.033 66.615 -67.534 65.901 C-61.136 56.778 -54.664 48.102 -47 40 C-45.807 38.63 -44.619 37.255 -43.438 35.875 C-35.291 26.546 -26.069 18.614 -16.438 10.875 C-15.812 10.372 -15.187 9.869 -14.543 9.351 C-2.824 0 -2.824 0 0 0 Z " fill="#D2D3D2" transform="translate(553,496)"/>
<path d="M0 0 C5.09 5.641 8.017 13.908 11.25 20.688 C12.062 22.359 12.062 22.359 12.891 24.064 C13.406 25.14 13.922 26.216 14.453 27.324 C14.919 28.294 15.384 29.265 15.864 30.264 C16.958 32.899 17.705 35.163 18 38 C16.367 40.445 16.367 40.445 13.875 43.125 C6.741 51.166 0.885 60.023 -5 69 C-5.519 69.79 -6.039 70.579 -6.574 71.393 C-24.196 98.419 -38.615 127.535 -50.393 157.549 C-50.825 158.641 -51.258 159.734 -51.703 160.859 C-52.076 161.828 -52.449 162.797 -52.833 163.796 C-54 166 -54 166 -57 167 C-65.939 162.327 -71.034 153.739 -75.688 145.125 C-79.702 137.897 -83.892 130.867 -88.5 124 C-89.238 122.898 -89.238 122.898 -89.991 121.774 C-97.43 110.757 -97.43 110.757 -109.188 105.375 C-113.08 106.24 -114.535 107.919 -117 111 C-119.155 115.191 -119.273 119.071 -119.188 123.688 C-119.183 124.403 -119.179 125.119 -119.175 125.856 C-119.129 129.609 -118.888 133.231 -118.312 136.938 C-117.428 144.325 -119.47 151.797 -121 159 C-121.229 160.114 -121.459 161.227 -121.695 162.375 C-123.284 169.385 -125.871 175.551 -129 182 C-129.778 183.726 -130.549 185.455 -131.312 187.188 C-131.639 187.924 -131.965 188.66 -132.301 189.418 C-132.532 189.94 -132.762 190.462 -133 191 C-133.99 191 -134.98 191 -136 191 C-135.253 183.736 -133.592 176.849 -131.816 169.777 C-131.49 168.449 -131.49 168.449 -131.156 167.094 C-130.958 166.307 -130.761 165.52 -130.557 164.709 C-129.286 158.523 -128.864 152.437 -128.719 146.133 C-128.7 145.413 -128.682 144.694 -128.663 143.952 C-128.605 141.676 -128.552 139.401 -128.5 137.125 C-128.369 131.415 -128.203 125.708 -128 120 C-127.979 118.524 -127.979 118.524 -127.957 117.019 C-127.478 106.338 -119.872 99.396 -112.812 92.062 C-112.102 91.309 -111.391 90.556 -110.658 89.779 C-107.862 86.841 -105.388 84.258 -102 82 C-101.481 82.759 -100.961 83.519 -100.426 84.301 C-99.728 85.295 -99.031 86.289 -98.312 87.312 C-97.286 88.792 -97.286 88.792 -96.238 90.301 C-93.977 93.027 -92.173 94.475 -89 96 C-86.29 96.252 -86.29 96.252 -84 96 C-84.387 95.587 -84.773 95.175 -85.172 94.75 C-89.849 89.564 -93.896 84.171 -94.812 77.062 C-94.546 72.033 -91.013 69.363 -87.484 66.141 C-86.665 65.434 -85.845 64.728 -85 64 C-84.366 63.438 -83.732 62.876 -83.078 62.297 C-81.821 61.191 -80.557 60.093 -79.285 59.004 C-76.936 56.943 -74.65 54.826 -72.367 52.693 C-66.113 46.855 -59.682 41.347 -53 36 C-51.028 34.402 -49.059 32.802 -47.09 31.2 C-45.697 30.067 -44.304 28.935 -42.91 27.804 C-39.031 24.656 -35.166 21.491 -31.312 18.312 C-6.13 -2.25 -6.13 -2.25 0 0 Z " fill="#D2D3D2" transform="translate(664,464)"/>
<path d="M0 0 C2.769 2.688 5.358 5.396 7.812 8.375 C11.198 12.359 15.01 15.638 19 19 C19.902 19.79 20.805 20.58 21.734 21.395 C41.16 38.321 62.773 55.631 89 59 C90.279 59.174 91.558 59.348 92.875 59.527 C100.269 60.492 107.613 61.126 115.062 61.438 C158.533 63.41 158.533 63.41 169.375 73.438 C170.637 74.914 171.839 76.443 173 78 C173.415 78.545 173.83 79.089 174.258 79.65 C183.008 91.188 183.008 91.188 185 97 C172.104 106.421 160.869 107.42 145.062 105.125 C141.582 104.526 138.165 103.833 134.75 102.938 C131.062 102.015 127.562 101.564 123.785 101.246 C122 101 122 101 121 100 C118.002 99.479 115.01 99.004 112 98.562 C107.016 97.828 102.09 97.056 97.184 95.902 C94.051 95.175 91.288 94.909 88.062 95 C81.043 94.401 77.337 89.059 73 84 C72.395 83.31 71.791 82.621 71.168 81.91 C70.053 80.633 68.945 79.351 67.844 78.062 C64.848 74.711 61.611 71.604 58.414 68.445 C56.311 66.315 54.325 64.145 52.375 61.875 C44.538 52.796 36.228 45.974 25.812 40 C21.723 37.615 18.63 34.933 15.473 31.418 C13.944 29.742 13.944 29.742 11 29 C11.426 30.441 11.866 31.878 12.312 33.312 C12.556 34.113 12.8 34.914 13.051 35.738 C14.048 38.114 15.164 39.246 17 41 C17 41.66 17 42.32 17 43 C17.539 43.229 18.078 43.459 18.633 43.695 C21.706 45.389 24.237 47.588 26.875 49.875 C27.437 50.357 27.998 50.839 28.577 51.335 C29.771 52.36 30.964 53.387 32.156 54.415 C34.003 56.002 35.859 57.577 37.719 59.148 C43.714 64.227 49.568 69.309 55 75 C54.564 75.678 54.129 76.356 53.68 77.055 C49.678 83.308 45.791 89.617 42 96 C41.001 97.667 40.001 99.334 39 101 C21.379 94.8 4.691 76.657 -6 62 C-6.43 61.418 -6.859 60.836 -7.302 60.237 C-23.808 37.731 -23.808 37.731 -26 26 C-20.747 25.724 -17.903 25.994 -13.129 28.32 C-8.355 29.844 -2.925 29.679 2 29 C2.99 28.01 3.98 27.02 5 26 C-0.28 25.34 -5.56 24.68 -11 24 C-9.35 22.35 -7.7 20.7 -6 19 C-1.072 13.102 -0.153 7.571 0 0 Z " fill="#FEFEFE" transform="translate(344,875)"/>
<path d="M0 0 C1.543 2.152 1.543 2.152 3.188 4.938 C6.711 10.679 10.711 15.818 15 21 C15.664 21.852 16.328 22.704 17.012 23.582 C18.78 25.732 20.518 27.506 22.625 29.312 C23.315 29.904 24.004 30.496 24.715 31.105 C27.178 33.148 29.678 35.139 32.188 37.125 C35.702 39.908 38.936 42.732 42 46 C38.539 47.03 35.223 47.199 31.625 47.375 C25.638 47.798 21.354 48.646 17 53 C16.564 56.345 16.557 58.271 18.326 61.182 C22.651 64.122 27.059 63.397 32.152 63.207 C33.245 63.182 34.337 63.156 35.462 63.13 C38.955 63.043 42.446 62.928 45.938 62.812 C48.286 62.753 50.634 62.695 52.982 62.639 C57.291 62.525 61.599 62.412 65.906 62.269 C66.771 62.241 67.636 62.214 68.527 62.185 C71.05 62.048 71.05 62.048 73.685 61.453 C76.401 60.922 77.691 61.31 80.246 62.305 C84.8 63.959 89.324 65.128 94.062 66.125 C94.873 66.297 95.684 66.469 96.519 66.646 C104.328 68.214 112.044 68.781 120 69 C120.381 70.991 120.713 72.993 121 75 C119.367 76.633 117.476 76.186 115.223 76.246 C114.233 76.279 113.244 76.312 112.225 76.346 C110.152 76.406 108.079 76.463 106.006 76.518 C100.148 76.717 94.744 77.296 89.056 78.747 C85.571 79.176 83.672 77.06 81 75 C71.321 70.574 59.812 70.502 49.75 73.625 C36.886 78.521 27.457 84.618 21 97 C20.001 100.049 19.47 102.811 19 106 C18.215 106.061 17.43 106.121 16.621 106.184 C15.571 106.267 14.52 106.351 13.438 106.438 C12.342 106.521 11.246 106.605 10.117 106.691 C7.668 106.934 5.447 107.319 3.062 107.875 C0 108 0 108 -2.438 105.812 C-3.283 104.884 -4.129 103.956 -5 103 C-12.845 98.281 -19.878 97.203 -29 98 C-31.806 98.844 -34.336 99.862 -36.977 101.125 C-39 102 -39 102 -42 102 C-45.148 95.67 -47.199 89.24 -49.051 82.426 C-49.863 79.493 -50.783 76.634 -51.75 73.75 C-54.359 64.871 -53.239 57.876 -49.062 49.75 C-48.655 48.929 -48.247 48.109 -47.828 47.263 C-41.261 34.299 -18.124 -6.041 0 0 Z " fill="#FEFEFE" transform="translate(423,208)"/>
<path d="M0 0 C3.255 1.208 5.879 2.975 8.684 4.973 C16.115 10.092 23.776 14.806 31.496 19.473 C32.414 20.028 32.414 20.028 33.351 20.594 C46.44 28.502 59.579 36.299 72.921 43.773 C77.167 46.152 81.403 48.545 85.621 50.973 C86.59 51.53 87.56 52.086 88.559 52.66 C89.239 53.093 89.92 53.526 90.621 53.973 C90.621 54.303 90.621 54.633 90.621 54.973 C29.571 54.973 -31.479 54.973 -94.379 54.973 C-94.379 23.033 -94.379 23.033 -90.379 12.973 C-86.624 11.721 -84.734 12.368 -80.879 13.223 C-79.52 13.508 -78.161 13.79 -76.801 14.07 C-76.081 14.219 -75.361 14.367 -74.619 14.52 C-57.512 17.977 -38.809 21.629 -22.379 13.973 C-21.437 13.537 -20.494 13.101 -19.523 12.652 C-13.614 9.669 -9.054 6.167 -4.449 1.414 C-2.379 -0.027 -2.379 -0.027 0 0 Z " fill="#D2D3D2" transform="translate(546.37890625,969.02734375)"/>
<path d="M0 0 C8.595 5.379 13.457 13.382 16.359 22.938 C16.904 26.563 16.981 30.088 16.922 33.75 C16.908 35.193 16.908 35.193 16.893 36.665 C16.66 44.671 15.176 50.821 11.359 57.938 C10.925 58.813 10.491 59.688 10.043 60.59 C1.343 76.675 -13.96 85.181 -30.641 90.938 C-31.301 90.938 -31.961 90.938 -32.641 90.938 C-32.662 92.43 -32.662 92.43 -32.684 93.953 C-32.932 102.542 -33.987 110.592 -36.078 118.938 C-36.296 119.816 -36.513 120.694 -36.737 121.599 C-37.956 126.222 -37.956 126.222 -38.641 127.938 C-39.301 128.268 -39.961 128.597 -40.641 128.938 C-40.678 128.219 -40.715 127.501 -40.754 126.762 C-41.247 118.996 -42.284 111.434 -43.552 103.761 C-44.346 98.922 -44.968 94.12 -45.378 89.232 C-45.633 87.003 -46.05 84.902 -46.562 82.719 C-47.253 79.698 -47.897 76.679 -48.465 73.633 C-50.607 62.24 -53.327 51.066 -56.354 39.875 C-56.65 38.772 -56.945 37.668 -57.25 36.531 C-57.518 35.548 -57.786 34.565 -58.062 33.553 C-58.641 30.938 -58.641 30.938 -58.641 26.938 C-54.681 26.442 -54.681 26.442 -50.641 25.938 C-50.447 26.492 -50.254 27.046 -50.055 27.617 C-49.794 28.342 -49.534 29.066 -49.266 29.812 C-49.01 30.532 -48.755 31.251 -48.492 31.992 C-47.702 34.119 -47.702 34.119 -45.641 35.938 C-44.321 35.938 -43.001 35.938 -41.641 35.938 C-39.172 30.615 -36.762 25.332 -34.766 19.812 C-31.476 11.469 -25.492 4.527 -17.852 -0.16 C-12.378 -2.394 -5.441 -2.189 0 0 Z " fill="#FEFEFE" transform="translate(627.640625,266.0625)"/>
<path d="M0 0 C1.323 -0.044 1.323 -0.044 2.672 -0.088 C9.802 -0.157 13.737 1.361 19.254 5.996 C24.392 11.778 27.42 18.153 30.25 25.312 C30.593 26.152 30.936 26.991 31.289 27.855 C33.416 34.107 33.584 40.394 33.688 46.938 C33.721 48.262 33.721 48.262 33.755 49.613 C33.724 58.368 30.532 65.584 25.16 72.453 C17.589 79.823 8.598 81.684 -1.535 81.768 C-8.213 81.616 -12.604 79.607 -17.75 75.312 C-18.382 74.806 -19.013 74.299 -19.664 73.777 C-27.387 66.854 -31.96 57.141 -34.75 47.312 C-35.098 46.422 -35.446 45.531 -35.805 44.613 C-36.996 40.454 -37.08 36.677 -37.062 32.375 C-37.079 31.602 -37.095 30.829 -37.111 30.033 C-37.118 22.054 -34.496 16.238 -29.121 10.309 C-20.735 3.249 -10.765 0.116 0 0 Z " fill="#FEFEFE" transform="translate(485.75,286.6875)"/>
<path d="M0 0 C3.481 0.092 6.962 0.166 10.443 0.238 C12.688 0.288 14.933 0.339 17.178 0.392 C18.203 0.415 19.228 0.438 20.284 0.462 C35.43 0.873 48.104 3.217 59.693 13.779 C60.62 14.585 60.62 14.585 61.564 15.407 C68.283 21.651 73.564 29.235 79.031 36.556 C80.603 38.658 82.187 40.751 83.775 42.841 C89.354 50.198 94.764 57.654 100.057 65.219 C103.813 70.572 107.671 75.841 111.568 81.091 C120.233 92.776 128.678 104.638 136.693 116.779 C135.713 119.23 135.042 120.546 132.818 122.029 C130.693 122.779 130.693 122.779 126.693 122.779 C125.045 121.04 125.045 121.04 123.318 118.466 C122.62 117.457 121.921 116.447 121.201 115.407 C120.807 114.833 120.413 114.258 120.007 113.666 C117.474 110.027 114.827 106.47 112.193 102.904 C111.599 102.097 111.005 101.29 110.393 100.459 C103.893 91.654 97.252 82.957 90.597 74.268 C88.808 71.928 87.026 69.583 85.248 67.236 C70.22 47.379 70.22 47.379 53.693 28.779 C53.002 28.062 52.311 27.345 51.6 26.607 C33.638 9.296 7.491 11.126 -15.686 11.482 C-30.155 11.776 -45.151 12.473 -59.161 16.273 C-61.807 16.897 -64.455 17.272 -67.146 17.657 C-74.988 18.817 -82.697 20.485 -90.436 22.183 C-92.868 22.716 -95.301 23.243 -97.734 23.769 C-105.48 25.451 -113.186 27.222 -120.867 29.178 C-136.87 33.119 -153.247 34.076 -168.307 26.779 C-168.967 26.119 -169.627 25.459 -170.307 24.779 C-170.217 21.372 -169.605 20.077 -167.182 17.654 C-160.584 13.351 -155.497 12.294 -147.744 12.404 C-146.92 12.392 -146.095 12.38 -145.246 12.368 C-140.081 12.393 -136.901 13.256 -132.307 15.779 C-121.131 17.804 -109.165 13.872 -98.334 11.45 C-93.814 10.448 -89.283 9.507 -84.744 8.591 C-83.925 8.426 -83.106 8.261 -82.262 8.09 C-76.17 6.889 -70.089 6.024 -63.924 5.275 C-60.137 4.755 -56.428 4.036 -52.682 3.279 C-35.149 -0.047 -17.804 -0.472 0 0 Z " fill="#FEFEFE" transform="translate(341.306640625,698.221435546875)"/>
<path d="M0 0 C0.677 3.039 1.34 6.082 2 9.125 C2.191 9.981 2.382 10.837 2.578 11.719 C4.035 18.482 5.117 23.703 1.625 30 C-1.811 36.293 -1.811 36.293 -3.02 43.27 C-3.113 48.821 -3.953 51.523 -8 55.438 C-8.812 56.171 -9.624 56.904 -10.461 57.66 C-35.104 80.37 -37.337 110.29 -39.961 141.681 C-40.484 147.686 -40.999 153.296 -43 159 C-44.32 159.33 -45.64 159.66 -47 160 C-47.046 159.433 -47.091 158.867 -47.138 158.283 C-47.618 152.344 -48.106 146.406 -48.599 140.469 C-48.782 138.258 -48.962 136.046 -49.14 133.835 C-49.398 130.642 -49.663 127.45 -49.93 124.258 C-50.045 122.793 -50.045 122.793 -50.164 121.299 C-50.629 115.823 -51.384 110.528 -52.549 105.155 C-53.188 102.103 -53.558 99.031 -53.938 95.938 C-55.154 86.205 -55.154 86.205 -59.875 77.875 C-62.702 76.711 -64.093 77.125 -67 78 C-73.074 83.048 -77.583 90.362 -82.143 96.77 C-84.55 100.134 -86.951 103.172 -90 106 C-88.154 99.703 -85.73 94.279 -82.312 88.688 C-81.645 87.577 -81.645 87.577 -80.964 86.445 C-77.162 80.167 -73.205 74.017 -69 68 C-68.516 67.307 -68.033 66.615 -67.534 65.901 C-61.136 56.778 -54.664 48.102 -47 40 C-45.807 38.63 -44.619 37.255 -43.438 35.875 C-35.291 26.546 -26.069 18.614 -16.438 10.875 C-15.812 10.372 -15.187 9.869 -14.543 9.351 C-2.824 0 -2.824 0 0 0 Z " fill="#D2D3D2" transform="translate(553,496)"/>
<path d="M0 0 C0.66 0 1.32 0 2 0 C2.186 0.93 2.186 0.93 2.376 1.879 C8.177 30.206 16.381 62.56 34 86 C32.468 90.564 28.682 92.708 24.938 95.375 C12.385 104.551 0.414 114.441 -11 125 C-13.061 126.897 -15.124 128.793 -17.188 130.688 C-17.948 131.387 -17.948 131.387 -18.725 132.102 C-22.415 135.487 -26.168 138.777 -30 142 C-30.447 117.201 -24.446 93.797 -18 70 C-14.743 57.754 -12.014 45.744 -11.625 33.062 C-11.414 27.269 -10.674 23.05 -7.406 18.188 C-3.946 12.806 -1.367 6.257 0 0 Z " fill="#FEFEFE" transform="translate(599,385)"/>
<path d="M0 0 C3.217 2.34 5.814 4.858 8.375 7.875 C15.353 15.899 20.373 18.987 31 21 C31.946 21.189 32.892 21.379 33.867 21.574 C34.571 21.715 35.275 21.855 36 22 C35.613 22.788 35.227 23.575 34.828 24.387 C28.888 36.811 23.988 48.986 26 63 C26.99 63.66 27.98 64.32 29 65 C29.014 64.019 29.028 63.038 29.043 62.027 C29.455 48.04 33.19 36.315 40 24 C42.31 24 44.62 24 47 24 C48.267 27.802 47.475 29.185 46.188 32.938 C42.221 45.387 42 55.47 42 69 C20.22 69 -1.56 69 -24 69 C-24 62.364 -23.715 57.434 -22 51.25 C-21.779 50.439 -21.557 49.627 -21.329 48.791 C-10.492 10.492 -10.492 10.492 0 0 Z " fill="#D2D3D2" transform="translate(404,955)"/>
<path d="M0 0 C1.277 0.235 2.555 0.469 3.871 0.711 C23.551 4.375 42.962 12.941 59 25 C59.831 25.623 60.663 26.245 61.52 26.887 C88.178 47.584 107.866 74.513 122 105 C122.459 105.989 122.918 106.977 123.391 107.996 C128.394 119.412 131.77 131.512 135.1 143.501 C141.428 166.236 148.201 190.537 162 210 C162.496 210.719 162.993 211.439 163.504 212.18 C170.979 222.409 180.632 231.45 190.641 239.152 C194.967 242.54 198.981 246.258 203 250 C203.813 250.736 204.627 251.472 205.465 252.23 C222.123 267.941 235.155 290.939 237 314 C236.34 314 235.68 314 235 314 C234.615 312.455 234.615 312.455 234.223 310.879 C230.173 295.49 223.666 281.934 213 270 C212.349 269.219 211.698 268.438 211.027 267.633 C202.346 257.475 191.786 249.143 181.332 240.891 C177.065 237.431 173.023 233.738 169 230 C168.322 229.388 167.644 228.775 166.945 228.145 C150.467 212.626 141.85 191.123 135 170 C134.459 168.375 133.918 166.75 133.375 165.125 C133.153 164.447 132.932 163.769 132.703 163.07 C131.896 160.693 131.009 158.35 130.125 156 C128.713 152.166 127.497 148.319 126.395 144.385 C121.392 126.581 114.872 109.242 106 93 C105.682 92.406 105.364 91.811 105.037 91.199 C84.641 53.201 52.977 24.848 12 11 C10.833 10.593 10.833 10.593 9.643 10.179 C5.052 8.6 0.519 7.331 -4.25 6.375 C-5.41 6.135 -6.57 5.895 -7.766 5.648 C-18.099 3.886 -28.611 3.841 -39.062 3.875 C-40.827 3.869 -40.827 3.869 -42.627 3.863 C-50.133 3.872 -57.531 4.25 -65 5 C-48.388 -6.075 -18.506 -4.351 0 0 Z " fill="#F3F3F4" transform="translate(546,108)"/>
<path d="M0 0 C8.035 5.302 13.036 15.994 15.062 25.188 C14.656 27.504 14.656 27.504 14.062 29.188 C13.403 28.197 12.743 27.207 12.062 26.188 C7.686 23.667 2.968 23.393 -1.938 24.188 C-4.707 25.323 -7.265 26.625 -9.871 28.094 C-11.938 29.188 -11.938 29.188 -13.938 29.188 C-13.395 25.387 -11.823 23.649 -8.938 21.188 C-6.187 20.271 -4.578 20.079 -1.75 20.125 C0.137 20.156 0.137 20.156 2.062 20.188 C0.43 18.555 -1.377 18.9 -3.625 18.812 C-7.204 18.859 -9.597 19.09 -12.5 21.25 C-15.336 24.668 -15.766 26.804 -15.938 31.188 C-17.257 31.188 -18.577 31.188 -19.938 31.188 C-19.277 32.837 -18.618 34.488 -17.938 36.188 C-13.439 37.053 -10.921 37.497 -6.938 35.188 C-6.611 35.814 -6.285 36.44 -5.949 37.086 C-5.512 37.903 -5.075 38.72 -4.625 39.562 C-4.196 40.375 -3.766 41.187 -3.324 42.023 C-1.97 44.456 -1.97 44.456 1.062 46.188 C5.274 46.655 7.348 46.653 10.938 44.312 C13.858 41.392 14.224 39.568 14.625 35.562 C14.709 34.745 14.793 33.928 14.879 33.086 C14.939 32.459 15 31.833 15.062 31.188 C18.374 34.499 17.431 38.752 17.438 43.25 C17.462 44.167 17.486 45.084 17.512 46.029 C17.547 54.375 15.341 61.272 9.688 67.562 C9.144 68.189 8.6 68.815 8.039 69.461 C2.11 74.64 -3.664 74.761 -11.23 74.605 C-18.848 73.747 -23.962 69.873 -28.938 64.188 C-29.598 63.466 -30.257 62.744 -30.938 62 C-40.149 49.047 -43.046 34.815 -41.938 19.188 C-41.133 15.992 -39.969 13.765 -37.938 11.188 C-37.475 10.588 -37.012 9.989 -36.535 9.371 C-27.505 -0.852 -12.864 -5.951 0 0 Z " fill="#FEFEFE" transform="translate(411.9375,313.8125)"/>
<path d="M0 0 C-2.339 2.339 -4.497 3.239 -7.5 4.625 C-13.746 7.696 -18.751 11.475 -24 16 C-24.664 16.508 -25.328 17.016 -26.012 17.539 C-57.046 42.09 -65.801 90.006 -70.324 126.625 C-70.914 131.886 -71.336 137.156 -71.726 142.435 C-71.928 145.057 -72.142 147.676 -72.372 150.295 C-74.422 173.844 -75.314 197.299 -75.375 220.938 C-75.383 222.183 -75.39 223.429 -75.398 224.712 C-75.474 240.073 -74.748 254.873 -72 270 C-71.782 271.213 -71.564 272.426 -71.339 273.676 C-71.018 275.401 -70.685 277.124 -70.332 278.844 C-69.961 281.256 -69.944 283.563 -70 286 C-72.465 283.051 -73.607 280.597 -74.535 276.879 C-74.786 275.873 -75.038 274.868 -75.296 273.832 C-81.241 248.462 -81.326 223.957 -81.033 198.034 C-80.999 194.888 -80.97 191.742 -80.941 188.596 C-80.469 139.411 -80.469 139.411 -77 116 C-76.858 114.98 -76.715 113.96 -76.569 112.909 C-71.755 79.664 -62.581 44.802 -40 19 C-39.335 18.236 -38.67 17.471 -37.984 16.684 C-28.209 6.213 -14.602 -1.145 0 0 Z " fill="#F3F3F4" transform="translate(387,157)"/>
<path d="M0 0 C0.5 3.125 0.5 3.125 0 7 C-1.637 8.704 -3.438 9.854 -5.406 11.164 C-11.07 15.173 -15.987 20.218 -21 25 C-21.831 25.788 -21.831 25.788 -22.679 26.592 C-30.954 34.482 -38.191 42.823 -45 52 C-45.509 52.686 -46.019 53.372 -46.543 54.078 C-49.72 58.368 -52.869 62.677 -56 67 C-55.278 67.949 -54.556 68.898 -53.812 69.875 C-45.776 83.073 -44.716 100.089 -42.611 115.09 C-42.511 115.801 -42.41 116.513 -42.306 117.247 C-42.03 119.211 -41.762 121.177 -41.493 123.143 C-41.302 125.891 -41.302 125.891 -40 127 C-39.384 137.505 -39.509 148.992 -43 159 C-44.32 159.33 -45.64 159.66 -47 160 C-47.046 159.433 -47.091 158.867 -47.138 158.283 C-47.618 152.344 -48.106 146.406 -48.599 140.469 C-48.782 138.258 -48.962 136.046 -49.14 133.835 C-49.398 130.642 -49.663 127.45 -49.93 124.258 C-50.045 122.793 -50.045 122.793 -50.164 121.299 C-50.629 115.823 -51.384 110.528 -52.549 105.155 C-53.188 102.103 -53.558 99.031 -53.938 95.938 C-55.154 86.205 -55.154 86.205 -59.875 77.875 C-62.702 76.711 -64.093 77.125 -67 78 C-73.074 83.048 -77.583 90.362 -82.143 96.77 C-84.55 100.134 -86.951 103.172 -90 106 C-88.154 99.703 -85.73 94.279 -82.312 88.688 C-81.645 87.577 -81.645 87.577 -80.964 86.445 C-77.162 80.167 -73.205 74.017 -69 68 C-68.516 67.307 -68.033 66.615 -67.534 65.901 C-61.136 56.778 -54.664 48.102 -47 40 C-45.807 38.63 -44.619 37.255 -43.438 35.875 C-35.291 26.546 -26.069 18.614 -16.438 10.875 C-15.812 10.372 -15.187 9.869 -14.543 9.351 C-2.824 0 -2.824 0 0 0 Z " fill="#FEFEFE" transform="translate(553,496)"/>
<path d="M0 0 C17.905 6.803 26.391 25.672 35.041 41.438 C39.145 48.858 43.506 56.137 48.945 62.668 C51.092 65.479 51.442 67.57 51.766 71.051 C50.281 71.546 50.281 71.546 48.766 72.051 C39.826 67.378 34.732 58.789 30.078 50.176 C26.064 42.948 21.873 35.918 17.266 29.051 C16.528 27.949 16.528 27.949 15.775 26.825 C8.336 15.808 8.336 15.808 -3.422 10.426 C-7.314 11.291 -8.769 12.969 -11.234 16.051 C-13.389 20.242 -13.507 24.121 -13.422 28.738 C-13.418 29.454 -13.413 30.169 -13.409 30.906 C-13.364 34.66 -13.122 38.282 -12.547 41.988 C-11.662 49.376 -13.704 56.848 -15.234 64.051 C-15.579 65.721 -15.579 65.721 -15.93 67.426 C-17.518 74.436 -20.106 80.601 -23.234 87.051 C-24.012 88.777 -24.784 90.506 -25.547 92.238 C-25.873 92.974 -26.199 93.71 -26.535 94.469 C-26.766 94.991 -26.997 95.513 -27.234 96.051 C-28.224 96.051 -29.214 96.051 -30.234 96.051 C-29.488 88.787 -27.826 81.9 -26.051 74.828 C-25.724 73.5 -25.724 73.5 -25.391 72.145 C-25.193 71.358 -24.995 70.571 -24.791 69.76 C-23.52 63.574 -23.098 57.488 -22.953 51.184 C-22.935 50.464 -22.916 49.744 -22.897 49.003 C-22.839 46.727 -22.786 44.452 -22.734 42.176 C-22.102 14.522 -22.102 14.522 -15.234 6.051 C-14.717 5.329 -14.201 4.607 -13.668 3.863 C-9.492 -1.288 -6.324 -1.685 0 0 Z " fill="#FEFEFE" transform="translate(558.234375,558.94921875)"/>
<path d="M0 0 C2.188 1.062 2.188 1.062 4.188 3.062 C6.054 8.734 6.534 15.182 3.977 20.652 C0.108 26.401 -4.708 31.138 -9.773 35.836 C-11.783 38.03 -12.455 39.16 -12.812 42.062 C-3.029 39.943 4.027 33.478 10.027 25.668 C11.807 22.888 13.143 20.195 14.188 17.062 C16.625 17.75 16.625 17.75 19.188 19.062 C20.125 21.562 20.125 21.562 20.188 24.062 C19.528 24.722 18.868 25.383 18.188 26.062 C17.852 28.136 17.592 30.223 17.375 32.312 C16.523 38.248 15.782 41.183 11.188 45.062 C5.136 48.488 -0.021 48.991 -6.637 47.371 C-16.316 44.409 -26.355 40.06 -31.812 31.062 C-32.525 29.078 -33.2 27.08 -33.812 25.062 C-32.918 24.517 -32.023 23.972 -31.102 23.41 C-22.492 18.075 -14.737 12.393 -7.82 4.906 C-3.353 0.075 -3.353 0.075 0 0 Z " fill="#FEFEFE" transform="translate(319.8125,845.9375)"/>
<path d="M0 0 C4.217 3.818 6.692 7.673 9.312 12.688 C12.963 19.395 16.964 25.234 22 31 C22.905 32.051 23.808 33.103 24.711 34.156 C26.214 35.908 27.717 37.659 29.221 39.409 C43.389 55.912 55.786 72.215 65 92 C65.4 92.829 65.8 93.658 66.212 94.512 C69.36 101.175 71.68 107.854 73.688 114.938 C73.982 115.932 74.277 116.927 74.58 117.951 C78.062 130.025 79.392 141.5 79.375 154.062 C79.374 154.741 79.374 155.419 79.373 156.118 C79.332 167.444 78.433 178.152 75 189 C74.786 189.679 74.571 190.359 74.351 191.059 C70.772 201.913 65.487 212.223 56 219 C55.34 219 54.68 219 54 219 C55.493 214.902 57.505 211.358 59.75 207.625 C69.549 190.81 73.606 173.774 73.438 154.375 C73.434 153.632 73.431 152.888 73.428 152.122 C73.356 140.066 72.468 128.598 69 117 C68.786 116.277 68.571 115.553 68.351 114.808 C59.228 85.023 41.555 61.689 21.109 38.754 C12.562 29.064 0.835 15.224 -0.25 1.938 C-0.168 1.298 -0.085 0.659 0 0 Z " fill="#F3F3F4" transform="translate(825,665)"/>
<path d="M0 0 C0.99 0 1.98 0 3 0 C3.309 1.134 3.619 2.269 3.938 3.438 C4.629 6.788 4.629 6.788 6 8 C8.669 8.039 11.313 8.017 13.98 7.957 C15.636 7.935 17.292 7.913 18.947 7.893 C21.563 7.856 24.179 7.813 26.794 7.753 C29.315 7.698 31.834 7.67 34.355 7.645 C35.131 7.621 35.906 7.597 36.705 7.572 C41.951 7.547 44.804 8.586 49 12 C51 14 51 14 51.625 16.75 C50.929 20.37 50.493 20.883 47.75 23.125 C37.92 29.656 26.605 31.683 15 30 C11.107 27.857 8.145 25.415 5.25 22.062 C4.678 21.414 4.105 20.766 3.516 20.098 C0.218 15.534 -0.238 11.757 -0.125 6.188 C-0.107 5.026 -0.089 3.865 -0.07 2.668 C-0.047 1.788 -0.024 0.907 0 0 Z " fill="#FEFEFE" transform="translate(239,805)"/>
<path d="M0 0 C3.877 2.64 4.843 4.199 5.75 8.812 C5.379 14.292 1.81 17.393 -2 21 C-2.625 21.61 -3.25 22.219 -3.895 22.848 C-9.433 27.98 -15.732 32.996 -23.188 34.75 C-28.309 33.384 -31.621 29.881 -34.695 25.688 C-36.262 22.461 -36.305 20.253 -36.188 16.688 C-36.16 15.619 -36.133 14.55 -36.105 13.449 C-36.071 12.641 -36.036 11.833 -36 11 C-34.927 11.014 -34.927 11.014 -33.832 11.027 C-24.158 10.739 -16.445 7.274 -8.84 1.305 C-5.841 -0.822 -3.554 -0.499 0 0 Z " fill="#FEFEFE" transform="translate(302,831)"/>
<path d="M0 0 C0.495 1.98 0.495 1.98 1 4 C0.452 4.291 -0.097 4.583 -0.661 4.883 C-19.807 15.09 -19.807 15.09 -35.941 29.379 C-44.75 38.938 -53.952 48.104 -63.153 57.283 C-65.604 59.729 -68.05 62.178 -70.495 64.629 C-72.86 66.999 -75.229 69.364 -77.598 71.73 C-78.904 73.04 -78.904 73.04 -80.237 74.376 C-81.052 75.188 -81.867 76 -82.707 76.837 C-83.418 77.546 -84.128 78.256 -84.86 78.987 C-87.142 81.133 -89.531 83.075 -92 85 C-94.012 81.981 -94.724 78.835 -94.637 75.211 C-93.23 70.325 -88.726 67.211 -85 64 C-84.366 63.438 -83.732 62.876 -83.078 62.297 C-81.821 61.191 -80.557 60.093 -79.285 59.004 C-76.936 56.943 -74.65 54.826 -72.367 52.693 C-66.113 46.855 -59.682 41.347 -53 36 C-51.028 34.402 -49.059 32.802 -47.09 31.2 C-45.697 30.067 -44.304 28.935 -42.91 27.804 C-39.031 24.656 -35.166 21.491 -31.312 18.312 C-6.221 -2.175 -6.221 -2.175 0 0 Z " fill="#FEFEFE" transform="translate(664,464)"/>
<path d="M0 0 C3.77 3.615 6.969 7.409 10.125 11.562 C14.943 17.799 20.065 23.611 25.471 29.343 C26.574 30.538 27.658 31.753 28.728 32.978 C33.657 38.593 38.836 43.889 44.148 49.141 C44.891 49.876 45.634 50.611 46.4 51.368 C49.498 54.43 52.6 57.49 55.711 60.54 C79.137 83.527 98.616 108.988 99.417 143.26 C99.427 144.616 99.427 144.616 99.438 146 C99.448 146.848 99.458 147.695 99.468 148.568 C99.382 154.772 98.04 160.157 96 166 C95.34 165.67 94.68 165.34 94 165 C93.985 164.124 93.971 163.248 93.956 162.345 C93.894 159.034 93.82 155.725 93.738 152.415 C93.705 150.993 93.677 149.572 93.654 148.15 C93.503 139.073 92.621 130.751 90 122 C89.707 120.849 89.415 119.698 89.113 118.512 C82.195 94.113 64.546 76.319 46.938 58.969 C44.457 56.448 42.179 53.782 39.879 51.098 C37.674 48.636 35.351 46.323 33 44 C28.783 39.821 24.84 35.523 21 31 C20.132 30.01 19.265 29.02 18.371 28 C12.579 21.347 7.495 14.621 3 7 C2.443 6.113 1.886 5.226 1.312 4.312 C0 2 0 2 0 0 Z " fill="#F3F3F4" transform="translate(743,427)"/>
<path d="M0 0 C0.99 0.33 1.98 0.66 3 1 C2.529 5.145 2.008 7.992 -1 11 C-1.99 11 -2.98 11 -4 11 C-3.918 12.196 -3.835 13.392 -3.75 14.625 C-3.75 19.104 -5.053 21.562 -8 25 C-12.189 27.565 -16.212 27.693 -21 27 C-25.04 24.679 -26.756 22.457 -28 18 C-28.381 15.674 -28.725 13.341 -29 11 C-29.743 11.516 -30.485 12.031 -31.25 12.562 C-34 14 -34 14 -36.312 13.688 C-36.869 13.461 -37.426 13.234 -38 13 C-37.688 9.84 -37.442 8.398 -35.039 6.234 C-34.242 5.745 -33.446 5.255 -32.625 4.75 C-31.834 4.25 -31.042 3.75 -30.227 3.234 C-25.754 0.755 -21.662 0.85 -16.688 0.875 C-15.94 0.871 -15.193 0.867 -14.424 0.863 C-11.013 0.869 -7.951 1.009 -4.582 1.633 C-3.73 1.754 -2.878 1.875 -2 2 C-1.34 1.34 -0.68 0.68 0 0 Z " fill="#040404" transform="translate(502,316)"/>
<path d="M0 0 C0.99 0.017 1.981 0.035 3.001 0.052 C22.917 0.692 37.304 10.588 50.625 24.75 C59.734 35.3 68.313 48.383 69.562 62.562 C69.105 64.855 69.105 64.855 68.562 66.562 C68.283 65.824 68.003 65.085 67.715 64.324 C63.311 53.18 57.155 43.786 49.562 34.562 C48.997 33.873 48.431 33.183 47.848 32.473 C38.057 20.906 23.844 9.421 8.562 6.562 C-0.313 6.058 -8.141 6.007 -16.438 9.562 C-12.584 0.893 -9.104 -0.255 0 0 Z " fill="#F3F3F4" transform="translate(687.4375,902.4375)"/>
<path d="M0 0 C4.366 3.418 7.796 6.992 11.125 11.438 C18.359 20.86 25.827 30.319 34.5 38.473 C36 40 36 40 37.875 42.418 C41.626 46.976 46.375 50.367 51 54 C51.932 54.748 52.864 55.495 53.824 56.266 C71.062 69.717 91.523 80.633 113.793 80.293 C115.401 80.287 115.401 80.287 117.042 80.28 C120.424 80.263 123.805 80.226 127.188 80.188 C129.498 80.172 131.809 80.159 134.119 80.146 C139.746 80.114 145.373 80.064 151 80 C142.648 85.568 130.122 84.447 120.438 84.438 C119.733 84.437 119.028 84.436 118.302 84.436 C92.226 84.307 68.199 74.57 48 58 C47.097 57.262 47.097 57.262 46.177 56.51 C35.627 47.81 26.51 38.735 18 28 C17.588 27.486 17.176 26.973 16.752 26.443 C0 5.51 0 5.51 0 0 Z " fill="#EAEAEA" transform="translate(428,168)"/>
<path d="M0 0 C0.66 0.33 1.32 0.66 2 1 C1.67 1.66 1.34 2.32 1 3 C-0.217 2.938 -1.434 2.876 -2.688 2.812 C-6.619 2.826 -8.897 3.429 -12 6 C-13.032 7.647 -14.036 9.312 -15 11 C-14.238 10.567 -13.476 10.134 -12.691 9.688 C-6.425 6.308 -1.202 3.528 6 5 C9.361 6.369 11.985 7.99 15 10 C14.79 21.825 14.79 21.825 11.562 25.688 C8.527 28.427 7.75 28.929 3.688 29.312 C-0.71 28.94 -1.99 28.172 -5 25 C-6.495 22.719 -7.74 20.427 -9 18 C-9.99 18.66 -10.98 19.32 -12 20 C-15.325 19.829 -16.744 19.215 -19.312 17.062 C-21 15 -21 15 -21 13 C-19.68 13 -18.36 13 -17 13 C-17.144 11.969 -17.289 10.938 -17.438 9.875 C-16.987 5.886 -16.823 5.21 -14.125 2.562 C-9.735 -0.813 -5.331 -0.77 0 0 Z " fill="#0E0E0E" transform="translate(413,332)"/>
<path d="M0 0 C12.824 11.458 15.904 36.807 17 53 C17.219 58.647 17.298 64.287 17.312 69.938 C17.316 70.631 17.32 71.325 17.324 72.04 C17.357 84.177 16.777 96.324 12.562 107.812 C12.151 108.974 11.74 110.135 11.316 111.332 C10.665 112.653 10.665 112.653 10 114 C8.515 114.495 8.515 114.495 7 115 C7.368 109.492 8.142 104.323 9.516 98.973 C11.634 89.225 11.504 79.499 11.438 69.562 C11.432 68.097 11.432 68.097 11.427 66.602 C11.316 44.31 7.952 24.937 0.579 3.882 C0 2 0 2 0 0 Z " fill="#EAEAEA" transform="translate(789,727)"/>
<path d="M0 0 C0.495 0.99 0.495 0.99 1 2 C0.573 2.366 0.147 2.732 -0.293 3.109 C-30.539 29.302 -52.548 59.083 -68 96 C-68.33 96 -68.66 96 -69 96 C-67.643 69.306 -46.657 42.641 -29 24 C-28.538 23.5 -28.076 23 -27.6 22.485 C-19.275 13.514 -10.294 6.594 0 0 Z " fill="#F3F3F4" transform="translate(405,201)"/>
<path d="M0 0 C2.302 1.79 3.852 3.187 5.25 5.75 C5.032 7.754 5.032 7.754 4.25 9.75 C1.69 11.262 -0.744 12.529 -3.438 13.75 C-9.47 16.543 -9.47 16.543 -15.133 20 C-17.75 21.75 -17.75 21.75 -19.938 21.75 C-22.395 20.394 -23.41 19.229 -24.75 16.75 C-25.432 12.911 -24.873 10.446 -22.875 7.188 C-17.544 0.373 -8.183 -3.719 0 0 Z " fill="#040404" transform="translate(403.75,277.25)"/>
<path d="M0 0 C2.475 0.495 2.475 0.495 5 1 C2.756 12.383 -5.544 22.46 -14 30 C-23.227 36.035 -32.187 36.816 -43 36 C-48.481 34.529 -52.791 31.802 -57 28 C-56.67 26.68 -56.34 25.36 -56 24 C-53.046 24.634 -50.61 25.6 -47.938 27 C-41.359 30.434 -35.358 30.753 -28 30 C-19.284 27.067 -13.212 21.978 -8.438 14.188 C-7.878 13.301 -7.878 13.301 -7.307 12.396 C-4.756 8.328 -2.361 4.181 0 0 Z " fill="#0E0E0E" transform="translate(507,393)"/>
<path d="M0 0 C1.32 0.66 2.64 1.32 4 2 C5.677 16.423 -6.416 34.823 -14.938 45.875 C-19.708 51.814 -24.779 57.456 -30 63 C-30.99 62.67 -31.98 62.34 -33 62 C-31.492 57.441 -28.896 54.004 -26 50.25 C-14.512 34.915 -6.953 19.171 -1 1 C-0.67 0.67 -0.34 0.34 0 0 Z " fill="#0E0E0E" transform="translate(563,607)"/>
<path d="M0 0 C5.698 2.518 11.2 5.731 14.219 11.348 C17.441 22.286 15.313 33.153 10 43 C8.68 43 7.36 43 6 43 C6.485 40.919 7.027 38.925 7.754 36.914 C10.386 29.463 11.897 20.539 9.273 12.879 C7.243 9.57 4.545 7.45 1 6 C-1.792 5.489 -4.219 5.392 -7 6 C-10.292 8.576 -12.422 11.126 -14 15 C-12.824 14.938 -11.649 14.876 -10.438 14.812 C-4.773 14.833 -0.613 16.387 3.438 20.438 C5 23 5 23 5 27 C2.476 25.918 1.12 25.159 -0.562 22.938 C-3.99 20.213 -7.059 20.471 -11.344 20.371 C-14.377 19.947 -15.739 19.011 -18 17 C-17.565 11.557 -16.544 8.196 -13 4 C-8.962 0.834 -5.139 -1.008 0 0 Z " fill="#171617" transform="translate(620,276)"/>
<path d="M0 0 C-0.409 5.705 -2.639 8.689 -6.062 13 C-15.73 25.668 -22.807 39.089 -27.188 54.438 C-27.7 56.207 -28.215 57.977 -28.73 59.746 C-28.951 60.516 -29.172 61.286 -29.399 62.08 C-30 64 -30 64 -31 66 C-31.99 66 -32.98 66 -34 66 C-36.245 44.798 -23.433 25.455 -10.843 9.552 C-3.075 0 -3.075 0 0 0 Z " fill="#0E0E0E" transform="translate(499,675)"/>
<path d="M0 0 C0.99 0.495 0.99 0.495 2 1 C2.591 2.971 2.591 2.971 3.078 5.566 C3.36 6.995 3.36 6.995 3.648 8.453 C3.846 9.479 4.045 10.505 4.25 11.562 C9.726 38.064 22.975 61.772 37.504 84.398 C38.817 86.682 39.555 88.428 40 91 C35.901 88.043 33.155 84.765 30.438 80.562 C30.018 79.922 29.598 79.282 29.165 78.622 C25.495 72.936 22.065 67.113 18.688 61.25 C18.196 60.4 17.705 59.55 17.199 58.674 C7.198 41.045 -2.185 20.638 0 0 Z " fill="#EAEAEA" transform="translate(632,366)"/>
<path d="M0 0 C1.829 5.926 1.095 12.308 0.938 18.438 C0.92 19.142 0.902 19.847 0.883 20.574 C0.31 40 -3.52 58.661 -10 77 C-11.077 73.67 -10.908 71.233 -10.328 67.801 C-10.16 66.769 -9.992 65.737 -9.818 64.674 C-9.631 63.565 -9.443 62.456 -9.25 61.312 C-7.784 52.266 -6.481 43.23 -5.438 34.125 C-4.528 26.253 -3.541 18.402 -2.375 10.562 C-2.252 9.722 -2.129 8.881 -2.002 8.014 C-1.125 2.25 -1.125 2.25 0 0 Z " fill="#B6BBBC" transform="translate(527,586)"/>
<path d="M0 0 C1.15 3.45 0.808 4.894 0.074 8.41 C-0.146 9.483 -0.365 10.556 -0.592 11.662 C-0.83 12.784 -1.067 13.906 -1.312 15.062 C-1.539 16.158 -1.765 17.253 -1.998 18.381 C-2.446 20.548 -2.896 22.714 -3.35 24.879 C-4.26 29.248 -5.133 33.623 -6 38 C-8.322 34.517 -9.717 30.89 -11.188 27 C-11.473 26.276 -11.759 25.551 -12.053 24.805 C-14.119 19.356 -14.119 19.356 -13 16 C-11.874 14.908 -10.746 13.818 -9.609 12.738 C-5.998 8.837 -3.061 4.337 0 0 Z " fill="#F3F3F4" transform="translate(568,456)"/>
<path d="M0 0 C2.003 3.005 2.504 4.684 3.184 8.156 C3.389 9.18 3.595 10.203 3.807 11.258 C4.015 12.328 4.223 13.398 4.438 14.5 C6.705 26.031 9.542 37.118 13.5 48.188 C13.795 49.025 14.09 49.862 14.395 50.725 C15.783 54.648 17.21 58.547 18.719 62.426 C20 66 20 66 20 69 C17 68 17 68 15.535 65.297 C12.217 57.305 9.343 49.343 7 41 C6.661 39.851 6.322 38.703 5.973 37.52 C3.948 30.391 2.424 23.312 1.25 16 C1.122 15.211 0.995 14.422 0.863 13.609 C0.168 9.018 -0.123 4.643 0 0 Z " fill="#DFDFE0" transform="translate(796,596)"/>
<path d="M0 0 C1.65 0 3.3 0 5 0 C4.01 0.495 4.01 0.495 3 1 C2.291 3.129 2.291 3.129 1.75 5.812 C0.175 12.576 -1.833 19.173 -3.931 25.792 C-5.147 29.727 -6.136 33.443 -6.555 37.547 C-6.702 38.686 -6.849 39.826 -7 41 C-7.99 41.495 -7.99 41.495 -9 42 C-9.761 28.044 -6.499 12.392 0 0 Z " fill="#EAEAEA" transform="translate(453,620)"/>
<path d="M0 0 C-8.156 5.438 -19.8 4.29 -29.302 4.206 C-31.459 4.187 -33.615 4.185 -35.771 4.186 C-47.185 4.145 -47.185 4.145 -52 3 C-52 2.67 -52 2.34 -52 2 C-47.265 0.817 -42.605 0.779 -37.754 0.684 C-36.865 0.663 -35.976 0.642 -35.061 0.621 C-32.228 0.555 -29.395 0.496 -26.562 0.438 C-24.661 0.394 -22.759 0.351 -20.857 0.307 C-6.04 -0.029 -6.04 -0.029 0 0 Z " fill="#DFDFE0" transform="translate(579,248)"/>
<path d="M0 0 C0.33 0 0.66 0 1 0 C1.193 0.638 1.387 1.276 1.586 1.934 C1.846 2.76 2.107 3.586 2.375 4.438 C2.63 5.261 2.885 6.085 3.148 6.934 C3.809 9.178 3.809 9.178 6 10 C7.871 10.228 9.747 10.41 11.625 10.562 C12.628 10.646 13.631 10.73 14.664 10.816 C15.82 10.907 15.82 10.907 17 11 C15.25 14.875 15.25 14.875 13 16 C9.016 16.641 5.466 16.832 1.887 14.801 C-1.391 12.107 -3.256 10.277 -4 6 C-2.68 5.67 -1.36 5.34 0 5 C0 3.35 0 1.7 0 0 Z " fill="#0E0E0E" transform="translate(432,382)"/>
<path d="M0 0 C2.973 3.748 2.973 3.748 3.215 6.016 C1.78 17.573 -1.484 28.918 -5 40 C-6.153 36.521 -5.866 33.868 -5.293 30.273 C-5.118 29.158 -4.944 28.043 -4.764 26.895 C-4.574 25.733 -4.383 24.572 -4.188 23.375 C-4.009 22.237 -3.83 21.099 -3.646 19.926 C-2.585 13.25 -1.389 6.616 0 0 Z " fill="#D2D3D2" transform="translate(522,623)"/>
<path d="M0 0 C0.66 0.33 1.32 0.66 2 1 C2 1.66 2 2.32 2 3 C0.697 3.056 0.697 3.056 -0.633 3.113 C-8.545 3.565 -14.335 4.052 -20 10 C-20.66 10 -21.32 10 -22 10 C-21.891 6.195 -20.98 4.979 -18.312 2.188 C-12.919 -1.412 -6.201 -0.563 0 0 Z " fill="#2A2A2A" transform="translate(486,309)"/>
<path d="M0 0 C-2.302 2.302 -3.493 2.548 -6.613 3.289 C-7.532 3.508 -8.45 3.727 -9.396 3.953 C-10.359 4.175 -11.321 4.397 -12.312 4.625 C-13.263 4.854 -14.214 5.084 -15.193 5.32 C-19.572 6.349 -23.481 7.132 -28 7 C-28.33 5.68 -28.66 4.36 -29 3 C-27.759 2.867 -26.517 2.734 -25.238 2.598 C-23.596 2.419 -21.954 2.241 -20.312 2.062 C-19.496 1.975 -18.679 1.888 -17.838 1.799 C-1.14 -0.027 -1.14 -0.027 0 0 Z " fill="#B6BBBC" transform="translate(592,273)"/>
<path d="M0 0 C2.022 3.033 2.543 4.819 3.254 8.332 C3.469 9.378 3.683 10.424 3.904 11.502 C4.23 13.141 4.23 13.141 4.562 14.812 C4.784 15.893 5.005 16.974 5.232 18.088 C6.24 23.048 7.187 28.004 8 33 C7.01 33.66 6.02 34.32 5 35 C2.447 23.306 0.363 11.985 0 0 Z " fill="#B6BBBC" transform="translate(796,596)"/>
<path d="M0 0 C0.99 0.33 1.98 0.66 3 1 C2.565 5.926 0.404 8.519 -3 12 C-5.812 13.375 -5.812 13.375 -8 14 C-7.376 10.239 -5.652 7.81 -3.438 4.75 C-2.797 3.858 -2.156 2.966 -1.496 2.047 C-0.756 1.034 -0.756 1.034 0 0 Z " fill="#171617" transform="translate(612,311)"/>
<path d="M0 0 C0 0.33 0 0.66 0 1 C3.96 1.33 7.92 1.66 12 2 C12 2.33 12 2.66 12 3 C11.427 3.025 10.853 3.05 10.263 3.076 C-5.387 3.763 -5.387 3.763 -21 5 C-17.935 2.957 -15.73 2.257 -12.188 1.375 C-11.17 1.115 -10.153 0.854 -9.105 0.586 C-5.992 -0.001 -3.16 -0.104 0 0 Z " fill="#B6BBBC" transform="translate(502,108)"/>
<path d="M0 0 C0.909 3.048 1.062 5.597 0.879 8.766 C0.831 9.655 0.782 10.545 0.732 11.461 C0.648 12.842 0.648 12.842 0.562 14.25 C0.51 15.186 0.458 16.122 0.404 17.086 C0.275 19.391 0.14 21.696 0 24 C-0.99 24.33 -1.98 24.66 -3 25 C-3.322 17.086 -3.605 7.211 0 0 Z " fill="#C5CBC8" transform="translate(527,586)"/>
<path d="M0 0 C1.188 0.002 1.188 0.002 2.4 0.004 C4.916 0.01 7.433 0.022 9.949 0.035 C11.661 0.04 13.372 0.045 15.084 0.049 C19.268 0.06 23.452 0.077 27.637 0.098 C27.637 0.428 27.637 0.758 27.637 1.098 C18.397 1.428 9.157 1.758 -0.363 2.098 C-0.363 2.428 -0.363 2.758 -0.363 3.098 C-4.879 3.174 -8.954 3.2 -13.363 2.098 C-13.363 1.768 -13.363 1.438 -13.363 1.098 C-8.91 -0.015 -4.559 -0.031 0 0 Z " fill="#939290" transform="translate(540.36328125,248.90234375)"/>
<path d="M0 0 C0.66 0.33 1.32 0.66 2 1 C1.67 1.66 1.34 2.32 1 3 C-0.217 2.938 -1.434 2.876 -2.688 2.812 C-6.647 2.806 -8.726 3.699 -12 6 C-13.654 6.698 -15.317 7.375 -17 8 C-13.813 -0.111 -7.853 -0.848 0 0 Z " fill="#171617" transform="translate(413,332)"/>
<path d="M0 0 C0.33 0 0.66 0 1 0 C2.678 8.244 1.093 14.273 -2 22 C-2.94 18.961 -2.999 16.793 -2.441 13.672 C-2.303 12.873 -2.164 12.073 -2.021 11.25 C-1.87 10.425 -1.719 9.6 -1.562 8.75 C-1.415 7.91 -1.267 7.069 -1.115 6.203 C-0.751 4.134 -0.376 2.067 0 0 Z " fill="#939290" transform="translate(519,641)"/>
<path d="M0 0 C1.113 2.8 1.035 3.901 0.004 6.797 C-0.472 7.771 -0.947 8.746 -1.438 9.75 C-1.911 10.735 -2.384 11.72 -2.871 12.734 C-3.244 13.482 -3.616 14.23 -4 15 C-4.33 15 -4.66 15 -5 15 C-4.636 9.237 -4.311 4.311 0 0 Z " fill="#DFDFE0" transform="translate(341,282)"/>
<path d="M0 0 C0.66 0 1.32 0 2 0 C4.32 3.19 6.346 6.417 8 10 C5.69 9.67 3.38 9.34 1 9 C0.67 6.03 0.34 3.06 0 0 Z " fill="#D2D3D2" transform="translate(313,833)"/>
<path d="M0 0 C0.33 0.66 0.66 1.32 1 2 C1.99 2 2.98 2 4 2 C2.523 7.662 2.523 7.662 -0.125 9.375 C-0.744 9.581 -1.362 9.788 -2 10 C-1.542 6.531 -1.109 3.326 0 0 Z " fill="#DFDFE0" transform="translate(527,653)"/>
<path d="M0 0 C3 3 3 3 3.25 6.438 C3.06 9.151 2.822 11.43 2 14 C1.34 14 0.68 14 0 14 C0 9.38 0 4.76 0 0 Z " fill="#C5CBC8" transform="translate(520,633)"/>
<path d="M0 0 C1.932 3.345 2.546 6.448 3.125 10.25 C3.293 11.328 3.46 12.405 3.633 13.516 C3.754 14.335 3.875 15.155 4 16 C3.34 16 2.68 16 2 16 C-1.629 5.626 -1.629 5.626 0 0 Z " fill="#B6BBBC" transform="translate(779,406)"/>
<path d="M0 0 C0.33 0 0.66 0 1 0 C1.33 2.64 1.66 5.28 2 8 C1.34 8 0.68 8 0 8 C0 8.99 0 9.98 0 11 C-0.99 10.67 -1.98 10.34 -3 10 C-3.688 7.938 -3.688 7.938 -4 6 C-2.68 5.67 -1.36 5.34 0 5 C0 3.35 0 1.7 0 0 Z " fill="#171617" transform="translate(432,382)"/>
<path d="M0 0 C0.66 0.33 1.32 0.66 2 1 C0.121 4.571 -1.171 6.547 -5 8 C-4.65 4.758 -4.438 3.385 -1.938 1.188 C-1.298 0.796 -0.659 0.404 0 0 Z " fill="#171617" transform="translate(469,311)"/>
<path d="M0 0 C0.33 0 0.66 0 1 0 C1.33 2.64 1.66 5.28 2 8 C2.99 8 3.98 8 5 8 C5 8.66 5 9.32 5 10 C4.34 10 3.68 10 3 10 C2.34 11.65 1.68 13.3 1 15 C0.67 15 0.34 15 0 15 C0 10.05 0 5.1 0 0 Z " fill="#DFDFE0" transform="translate(505,647)"/>
<path d="M0 0 C0.33 0 0.66 0 1 0 C1.339 1.728 1.671 3.458 2 5.188 C2.186 6.15 2.371 7.113 2.562 8.105 C2.969 10.793 3.079 13.288 3 16 C-0.164 12.561 -0.677 9.605 -1 5 C-0.562 2.062 -0.562 2.062 0 0 Z " fill="#B6BBBC" transform="translate(314,427)"/>
<path d="M0 0 C1.918 0.433 1.918 0.433 3.875 0.875 C4.954 1.119 4.954 1.119 6.055 1.367 C8 2 8 2 10 4 C5.484 4.077 1.409 4.102 -3 3 C-2.01 2.67 -1.02 2.34 0 2 C0 1.34 0 0.68 0 0 Z " fill="#DFDFE0" transform="translate(522,246)"/>
<path d="M0 0 C0.33 0 0.66 0 1 0 C1 3.96 1 7.92 1 12 C-2 8 -2 8 -1.75 4.312 C-1 1 -1 1 0 0 Z " fill="#D2D3D2" transform="translate(513,614)"/>
<path d="M0 0 C0.33 0 0.66 0 1 0 C1.111 5.458 0.917 10.615 0 16 C-0.33 16 -0.66 16 -1 16 C-2.084 9.932 -1.791 5.899 0 0 Z " fill="#B6BBBC" transform="translate(516,595)"/>
<path d="M0 0 C3.288 3.11 5.837 6.016 8 10 C7.01 10.33 6.02 10.66 5 11 C4.162 9.545 3.329 8.086 2.5 6.625 C1.804 5.407 1.804 5.407 1.094 4.164 C0 2 0 2 0 0 Z " fill="#D2D3D2" transform="translate(743,427)"/>
<path d="M0 0 C1.207 0.031 1.207 0.031 2.438 0.062 C1.688 2 1.688 2 0.438 4.062 C-1.688 4.812 -1.688 4.812 -3.562 5.062 C-3.562 0.087 -3.562 0.087 0 0 Z " fill="#0E0E0E" transform="translate(459.5625,382.9375)"/>
<path d="M0 0 C4.455 0.99 4.455 0.99 9 2 C9 2.66 9 3.32 9 4 C6.03 3.67 3.06 3.34 0 3 C0 2.01 0 1.02 0 0 Z " fill="#F3F3F4" transform="translate(513,244)"/>
<path d="M0 0 C1.099 3.297 0.871 4.405 0.062 7.688 C-0.132 8.496 -0.327 9.304 -0.527 10.137 C-0.683 10.752 -0.839 11.366 -1 12 C-1.66 10.68 -2.32 9.36 -3 8 C-3.99 8.495 -3.99 8.495 -5 9 C-3.502 5.888 -1.801 2.947 0 0 Z " fill="#B6BBBC" transform="translate(568,456)"/>
<path d="M0 0 C3.3 0 6.6 0 10 0 C9.67 0.66 9.34 1.32 9 2 C6.351 2.594 3.708 2.742 1 3 C0.67 2.01 0.34 1.02 0 0 Z " fill="#F3F3F4" transform="translate(563,277)"/>
<path d="M0 0 C3.366 1.443 5.51 3.333 8 6 C6.68 6.33 5.36 6.66 4 7 C0 2.25 0 2.25 0 0 Z " fill="#B6BBBC" transform="translate(529,958)"/>
<path d="M0 0 C2.637 2.637 4.255 4.76 6 8 C6 8.66 6 9.32 6 10 C5.34 10 4.68 10 4 10 C3.67 10.66 3.34 11.32 3 12 C2.01 8.04 1.02 4.08 0 0 Z " fill="#D2D3D2" transform="translate(789,727)"/>
<path d="M0 0 C3.375 4.5 3.375 4.5 3 9 C2.01 9.33 1.02 9.66 0 10 C0 6.7 0 3.4 0 0 Z " fill="#D2D3D2" transform="translate(524,601)"/>
<path d="M0 0 C3.941 1.668 6.789 4.227 10 7 C9.34 7.66 8.68 8.32 8 9 C6.664 7.691 5.331 6.377 4 5.062 C3.257 4.332 2.515 3.601 1.75 2.848 C0 1 0 1 0 0 Z " fill="#C5CBC8" transform="translate(343,865)"/>
<path d="M0 0 C0.66 0 1.32 0 2 0 C1.67 3.63 1.34 7.26 1 11 C0.67 11 0.34 11 0 11 C0 9.02 0 7.04 0 5 C-0.66 5 -1.32 5 -2 5 C-1.34 3.35 -0.68 1.7 0 0 Z " fill="#B6BBBC" transform="translate(508,657)"/>
<path d="M0 0 C0.99 0 1.98 0 3 0 C2.528 4.248 0.033 6.2 -3 9 C-2.01 6.03 -1.02 3.06 0 0 Z " fill="#D2D3D2" transform="translate(466,593)"/>
<path d="M0 0 C0.99 0.495 0.99 0.495 2 1 C2.731 3.314 3.401 5.648 4 8 C3.01 8.33 2.02 8.66 1 9 C0.67 6.03 0.34 3.06 0 0 Z " fill="#EAEAEA" transform="translate(802,628)"/>
<path d="M0 0 C0.99 0.33 1.98 0.66 3 1 C-0.465 3.97 -0.465 3.97 -4 7 C-4 4 -4 4 -2 1.812 C-1.34 1.214 -0.68 0.616 0 0 Z " fill="#B6BBBC" transform="translate(675,569)"/>
</svg>