<svg version="1.1" xmlns="http://www.w3.org/2000/svg" width="1024" height="1024">
<path d="M0 0 C337.92 0 675.84 0 1024 0 C1024 337.92 1024 675.84 1024 1024 C686.08 1024 348.16 1024 0 1024 C0 686.08 0 348.16 0 0 Z " fill="#FEFEFE" transform="translate(0,0)"/>
<path d="M0 0 C1.159 -0.032 1.159 -0.032 2.341 -0.065 C8.426 -0.1 12.495 1.237 17.188 5.312 C18.812 7.25 18.812 7.25 18.812 9.25 C19.288 8.889 19.764 8.528 20.254 8.156 C27.533 3.33 34.31 3.597 42.812 4.25 C43.617 4.299 44.421 4.348 45.25 4.398 C65.069 7.176 83.504 28.302 94.85 43.254 C120.23 77.787 133.602 121.092 142.25 162.562 C147.583 187.968 155.097 212.179 164.812 236.25 C165.328 237.533 165.844 238.817 166.359 240.101 C167.407 242.712 168.456 245.323 169.505 247.934 C169.762 248.576 170.02 249.218 170.286 249.879 C170.802 251.163 171.317 252.446 171.833 253.729 C181.023 276.597 189.029 298.454 188.938 323.375 C188.941 324.433 188.945 325.492 188.949 326.582 C188.943 331.578 188.882 336.343 187.812 341.25 C188.725 341.362 188.725 341.362 189.656 341.477 C209.611 344.47 227.813 353.911 241.812 368.25 C242.81 369.217 242.81 369.217 243.828 370.203 C265.732 392.897 271.587 435.451 276.023 465.441 C276.638 469.499 277.673 473.305 278.812 477.25 C279.375 480.301 279.81 483.367 280.25 486.438 C281.193 492.677 282.292 498.764 283.918 504.867 C285.181 509.645 286.342 514.446 287.5 519.25 C287.727 520.172 287.953 521.093 288.187 522.042 C288.397 522.915 288.608 523.788 288.824 524.688 C289.015 525.47 289.205 526.252 289.401 527.059 C289.812 529.25 289.812 529.25 289.812 533.25 C295.148 529.9 300.442 526.513 305.632 522.941 C313.254 517.732 321.144 513.014 329.125 508.375 C330.222 507.732 331.319 507.09 332.449 506.428 C349.516 496.603 349.516 496.603 358.375 496.938 C359.387 496.962 360.399 496.986 361.441 497.012 C363.812 497.25 363.812 497.25 364.812 498.25 C365.968 504.687 362.187 509.114 358.812 514.25 C356.314 517.755 353.704 521.164 351.062 524.562 C350.356 525.48 349.649 526.398 348.921 527.344 C347.52 529.163 346.117 530.98 344.711 532.796 C343.113 534.862 341.52 536.933 339.934 539.008 C334.43 546.203 328.841 553.33 323.234 560.444 C321.759 562.318 320.285 564.194 318.812 566.07 C318.321 566.697 317.829 567.323 317.322 567.969 C316.387 569.161 315.451 570.353 314.516 571.545 C312.553 574.044 310.67 576.386 308.371 578.59 C306.618 581.581 306.657 582.073 307.32 585.316 C307.786 586.97 308.287 588.614 308.812 590.25 C309.098 591.178 309.384 592.106 309.679 593.062 C310.646 596.117 311.66 599.152 312.688 602.188 C313.027 603.208 313.366 604.228 313.715 605.279 C315.253 609.863 316.839 614.393 318.691 618.859 C321.522 625.809 323.768 632.963 326.076 640.098 C326.871 642.549 327.674 644.996 328.479 647.443 C339.014 679.749 338.715 704.408 323.812 735.25 C321.53 739.549 318.859 743.453 315.812 747.25 C315.19 748.039 314.567 748.828 313.926 749.641 C306.941 757.972 298.703 764.494 289.188 769.688 C288.591 770.018 287.994 770.348 287.379 770.688 C273.278 778.029 253.971 777.217 239.141 772.578 C229.398 768.69 220.244 762.682 212.812 755.25 C213.048 755.872 213.284 756.495 213.528 757.136 C227.164 793.151 239.815 829.51 249.406 866.824 C250.213 869.96 251.034 873.089 251.906 876.207 C257.803 897.391 263.812 921.151 263.812 943.25 C125.212 943.25 -13.387 943.25 -156.188 943.25 C-156.188 921.46 -156.188 921.46 -154.875 914.312 C-154.589 912.616 -154.304 910.919 -154.02 909.223 C-153.876 908.389 -153.732 907.555 -153.584 906.696 C-153.212 904.403 -152.909 902.115 -152.637 899.809 C-149.165 871.38 -141.794 836.703 -128.188 811.25 C-128.84 810.898 -129.492 810.546 -130.164 810.184 C-144.119 802.3 -148.99 790.336 -153.188 775.25 C-154.839 768.481 -155.545 762.024 -155.5 755.062 C-155.493 753.696 -155.493 753.696 -155.485 752.301 C-155.097 729.663 -145.728 709.653 -130.352 693.324 C-128.187 691.25 -128.187 691.25 -125.188 689.25 C-134.329 684.47 -143.229 680.117 -153.188 677.25 C-153.188 676.59 -153.188 675.93 -153.188 675.25 C-150.862 674.087 -149.4 674.084 -146.812 674.062 C-146.042 674.048 -145.271 674.034 -144.477 674.02 C-141.969 674.272 -140.355 674.998 -138.188 676.25 C-143.867 670.165 -149.064 669.628 -157.062 668.688 C-158.145 668.557 -159.227 668.426 -160.343 668.291 C-170.666 667.138 -180.969 666.785 -191.347 666.629 C-192.558 666.606 -193.768 666.582 -195.016 666.559 C-196.087 666.546 -197.159 666.534 -198.263 666.521 C-201.26 666.243 -203.47 665.511 -206.188 664.25 C-206.188 663.59 -206.188 662.93 -206.188 662.25 C-199.411 662.199 -192.634 662.164 -185.857 662.14 C-183.555 662.13 -181.254 662.117 -178.952 662.099 C-175.628 662.075 -172.305 662.063 -168.98 662.055 C-167.965 662.044 -166.95 662.034 -165.905 662.023 C-154.364 662.022 -142.318 663.273 -133.688 671.688 C-132.188 674.25 -132.188 674.25 -131.125 677.5 C-130.661 678.861 -130.661 678.861 -130.188 680.25 C-129.197 680.58 -128.207 680.91 -127.188 681.25 C-127.1 677.583 -127.047 673.917 -127 670.25 C-126.975 669.22 -126.95 668.19 -126.924 667.129 C-126.87 661.527 -127.268 657.3 -129.504 652.172 C-130.772 648.607 -130.58 644.991 -130.5 641.25 C-130.503 640.495 -130.506 639.739 -130.51 638.961 C-130.468 634.522 -129.825 630.776 -128.639 626.474 C-127.676 621.734 -127.903 616.879 -127.938 612.062 C-127.93 611.015 -127.922 609.968 -127.914 608.889 C-127.927 603.469 -128.263 598.337 -129.199 592.996 C-130.047 587.992 -130.321 583.144 -130.285 578.078 C-130.284 577.377 -130.284 576.677 -130.283 575.955 C-130.278 573.073 -130.269 570.194 -130.191 567.314 C-129.831 558.466 -129.831 558.466 -133.073 550.468 C-135.344 548.233 -137.709 546.248 -140.188 544.25 C-158.97 523.037 -164.504 497.154 -163.43 469.541 C-162.857 461.772 -160.791 454.557 -158.188 447.25 C-157.553 445.425 -157.553 445.425 -156.906 443.562 C-154.689 437.683 -152.121 432.074 -149.324 426.453 C-148.819 425.43 -148.314 424.407 -147.793 423.353 C-146.782 421.32 -145.754 419.295 -144.707 417.28 C-140.985 409.838 -141.042 405.737 -143.562 397.875 C-144.098 396.331 -144.64 394.79 -145.188 393.25 C-147.939 385.515 -149.335 378.595 -149.25 370.312 C-149.241 369.169 -149.232 368.026 -149.223 366.848 C-149.211 365.99 -149.199 365.133 -149.188 364.25 C-172.616 379.613 -183.925 404.491 -189.851 431.246 C-191.231 438.005 -192.422 444.794 -193.57 451.595 C-194.2 455.323 -194.851 459.046 -195.504 462.77 C-197.728 475.609 -199.653 488.424 -201.09 501.375 C-201.972 509.087 -203.266 516.664 -204.83 524.266 C-205.605 528.046 -206.27 531.748 -206.617 535.594 C-207.083 540.236 -208.217 544.618 -209.394 549.125 C-210.707 554.296 -211.734 559.526 -212.812 564.75 C-215.155 575.906 -217.814 586.954 -220.625 598 C-224.577 613.536 -228.105 629.13 -231.437 644.811 C-232.166 648.151 -232.951 651.473 -233.746 654.797 C-241.868 689.856 -245.738 735.323 -226.188 767.25 C-218.725 777.545 -210.508 782.47 -198.188 785.25 C-192.3 785.948 -186.358 785.903 -180.438 785.938 C-177.38 785.976 -174.323 786.024 -171.266 786.074 C-170.185 786.091 -170.185 786.091 -169.082 786.108 C-153.77 786.383 -153.77 786.383 -148.188 791.25 C-148.188 792.24 -148.188 793.23 -148.188 794.25 C-155.337 794.208 -162.486 794.135 -169.635 794.042 C-172.062 794.014 -174.488 793.993 -176.915 793.979 C-196.403 793.859 -212.482 793.411 -227.375 779.5 C-237.314 769.05 -242.325 755.029 -245.5 741.188 C-245.659 740.505 -245.819 739.822 -245.983 739.119 C-250.211 719.147 -250.193 695.669 -246.064 675.697 C-245.338 672.127 -244.762 668.556 -244.24 664.952 C-242.459 652.753 -239.742 640.81 -236.938 628.812 C-236.442 626.671 -235.947 624.529 -235.452 622.386 C-232.642 610.263 -229.707 598.18 -226.621 586.123 C-224.324 577.043 -222.317 567.911 -220.375 558.75 C-220.228 558.057 -220.08 557.364 -219.928 556.651 C-218.332 549.125 -216.866 541.594 -215.646 533.997 C-215.21 531.386 -214.713 528.797 -214.184 526.203 C-213.085 520.822 -212.152 515.418 -211.25 510 C-210.989 508.432 -210.989 508.432 -210.723 506.833 C-209.462 499.157 -208.358 491.468 -207.33 483.757 C-196.094 399.535 -196.094 399.535 -172.188 372.25 C-171.273 371.171 -171.273 371.171 -170.34 370.07 C-166.817 366.226 -163.409 363.802 -158.787 361.36 C-153.127 358.375 -153.127 358.375 -149.33 353.432 C-148.123 349.168 -147.771 344.795 -147.402 340.392 C-145.633 322.72 -135.764 306.247 -126.741 291.361 C-110.446 264.161 -108.202 236.792 -115.188 206.25 C-115.757 203.647 -116.315 201.042 -116.875 198.438 C-117.106 197.42 -117.336 196.403 -117.574 195.355 C-118.882 188.735 -119.346 182.298 -119.355 175.57 C-119.359 174.759 -119.362 173.947 -119.366 173.111 C-119.371 171.398 -119.373 169.685 -119.373 167.973 C-119.375 165.416 -119.393 162.861 -119.412 160.305 C-119.485 138.981 -116.818 117.683 -110.763 97.2 C-110.372 95.875 -109.99 94.548 -109.616 93.218 C-104.225 74.256 -95.171 56.144 -82.188 41.25 C-81.373 40.264 -80.558 39.278 -79.719 38.262 C-63.227 19.112 -37.741 2.808 -12.117 0.414 C-8.078 0.188 -4.045 0.063 0 0 Z " fill="#040404" transform="translate(478.1875,80.75)"/>
<path d="M0 0 C7.412 -1.013 12.132 0.423 18.223 4.711 C23.404 8.982 27.742 13.842 32 19 C32.503 19.6 33.005 20.201 33.523 20.819 C47.31 37.463 57.78 56.518 67 76 C67.631 77.307 68.263 78.615 68.895 79.922 C78 98.918 78 98.918 78 104 C64.48 100.442 53.485 91.919 43 83 C40.601 81.04 38.178 79.111 35.75 77.188 C35.183 76.731 34.617 76.275 34.033 75.805 C28.011 71.038 22.436 66.959 14.445 67.387 C10.59 68.354 8.611 70.109 6.207 73.223 C3.769 78.832 4.51 85.029 5 91 C7.686 88.314 8.06 85.624 9 82 C9.66 82 10.32 82 11 82 C11.699 88.571 9.742 92.64 6 98 C3.445 101.112 0.777 104.086 -2 107 C6.315 103.79 10.083 98.858 14 91 C15.888 85.858 16.42 80.417 17 75 C25.442 75.433 31.328 81.28 37.188 86.812 C48.601 97.399 64.97 108.418 80.875 109.188 C83.866 109.355 83.866 109.355 85 108 C85.54 101.429 84.206 97.124 81.375 91.25 C80.986 90.415 80.597 89.581 80.197 88.72 C70.357 67.454 70.357 67.454 59 47 C59.66 47 60.32 47 61 47 C61.735 47.773 62.47 48.547 63.227 49.344 C66.26 52.249 68.414 53.207 72.375 54.5 C74.233 55.117 74.233 55.117 76.129 55.746 C76.77 55.952 77.411 56.158 78.071 56.371 C79.941 56.981 81.797 57.632 83.652 58.285 C91.885 61.158 100.109 63.319 108.613 65.203 C112 66 112 66 114 67 C114.401 92.811 114.401 92.811 112.381 105.555 C111.707 109.88 111.097 114.214 110.478 118.548 C110.126 120.996 109.77 123.445 109.409 125.892 C107.679 137.744 106.813 149.34 106.815 161.312 C106.813 163.469 106.794 165.625 106.775 167.781 C106.701 185.248 109.154 202.231 112.312 219.375 C112.467 220.223 112.621 221.072 112.779 221.946 C114.967 233.989 117.449 245.903 120.446 257.773 C124.222 272.948 128 289.312 128 305 C130.12 304.222 130.12 304.222 130.602 302.418 C134.112 281.116 126.57 259.011 121.528 238.562 C119.144 228.827 117.174 219.06 115.423 209.193 C115.004 207.018 114.487 204.885 113.957 202.734 C106.748 170.56 112.859 134.488 117.269 102.412 C118.245 95.266 119.074 88.106 119.875 80.938 C120.101 78.947 120.328 76.956 120.555 74.965 C120.702 73.656 120.849 72.348 121 71 C133.695 72.295 146.867 81.662 155 91 C173.669 114.963 180.121 149.315 184.758 178.629 C184.896 179.5 185.034 180.372 185.176 181.27 C185.288 182.018 185.401 182.767 185.517 183.538 C185.993 186.158 185.993 186.158 186.952 189.287 C188.059 193.209 188.858 197.14 189.586 201.145 C189.729 201.913 189.872 202.682 190.019 203.474 C190.474 205.919 190.925 208.366 191.375 210.812 C191.962 214.007 192.553 217.201 193.148 220.395 C193.296 221.186 193.443 221.978 193.595 222.793 C194.8 229.16 196.177 235.481 197.674 241.785 C198.522 245.442 199.248 249.108 199.804 252.821 C199.915 253.543 200.026 254.266 200.141 255.01 C199.951 257.686 198.959 258.497 196.977 260.23 C195.547 261.247 194.095 262.231 192.625 263.188 C191.05 264.297 189.477 265.411 187.906 266.527 C186.686 267.378 186.686 267.378 185.441 268.246 C181.518 271.065 177.827 274.149 174.125 277.25 C172.706 278.43 171.287 279.61 169.867 280.789 C169.204 281.341 168.541 281.893 167.858 282.462 C165.344 284.543 162.795 286.581 160.25 288.625 C155.606 292.41 151.234 296.44 146.864 300.533 C141.773 305.275 136.45 309.675 131 314 C127.116 311.649 123.842 309.015 120.5 305.938 C114.828 300.75 108.841 296.049 102.758 291.36 C101.091 290.07 99.433 288.77 97.777 287.465 C56.455 254.447 56.455 254.447 7.23 240.59 C0.348 241.464 -3.461 246.121 -7.688 251.265 C-10.591 255.104 -12.963 259.302 -15.426 263.43 C-15.845 264.118 -16.264 264.806 -16.695 265.516 C-17.067 266.137 -17.438 266.759 -17.821 267.399 C-19 269 -19 269 -22 271 C-25.355 271.195 -25.355 271.195 -29.188 271.125 C-30.46 271.107 -31.732 271.089 -33.043 271.07 C-34.507 271.036 -34.507 271.036 -36 271 C-36.015 270.103 -36.029 269.206 -36.044 268.282 C-36.365 250.351 -37.01 232.501 -38.5 214.625 C-38.566 213.829 -38.631 213.034 -38.699 212.214 C-39.266 205.435 -39.872 198.713 -41 192 C-41.285 186.361 -40.741 182.434 -38.812 177.062 C-36.039 168.898 -34.381 160.597 -32.788 152.133 C-31.62 145.952 -30.267 139.873 -28.652 133.792 C-27.96 130.827 -27.55 127.897 -27.188 124.875 C-25.194 111.633 -20.964 100.495 -13.047 89.708 C-8.723 83.801 -5.788 77.783 -3 71 C-2.497 69.886 -1.995 68.772 -1.477 67.625 C0.081 63.802 1.16 60.065 2.125 56.062 C2.294 55.398 2.463 54.733 2.637 54.049 C6.078 40.08 5.72 26.863 2 13 C1.594 11.315 1.196 9.628 0.812 7.938 C0.654 7.266 0.495 6.594 0.332 5.902 C0 4 0 4 0 0 Z " fill="#FEFEFE" transform="translate(561,364)"/>
<path d="M0 0 C-0.047 1.469 -0.047 1.469 -0.095 2.968 C-1.034 35.213 4.686 62.106 15.881 92.244 C17.319 96.12 18.702 100.006 20.016 103.926 C23.402 113.921 27.594 121.592 34 130 C52.215 154.77 55.424 184.336 57.303 213.987 C57.38 215.181 57.456 216.375 57.535 217.605 C57.634 219.201 57.634 219.201 57.735 220.829 C57.919 223.029 58.188 225.223 58.523 227.406 C59.034 231.26 59.127 235.024 59.098 238.902 C59.096 239.986 59.096 239.986 59.093 241.092 C59.088 243.374 59.075 245.656 59.062 247.938 C59.057 249.495 59.053 251.053 59.049 252.611 C59.038 256.408 59.021 260.204 59 264 C57.668 263.969 57.668 263.969 56.31 263.937 C53.007 263.868 49.705 263.818 46.402 263.78 C44.974 263.76 43.547 263.733 42.119 263.698 C40.064 263.65 38.009 263.627 35.953 263.609 C34.099 263.578 34.099 263.578 32.208 263.546 C28.305 264.098 27.408 264.947 25 268 C24.363 270.704 24.363 270.704 24.394 273.72 C24.361 274.874 24.327 276.027 24.293 277.215 C24.276 278.463 24.26 279.711 24.242 280.996 C24.19 282.982 24.138 284.968 24.086 286.954 C24.017 289.745 23.966 292.536 23.915 295.328 C23.304 327.692 23.304 327.692 22.195 341.242 C22.108 342.516 22.108 342.516 22.018 343.816 C21.687 347.329 21.362 349.56 19.092 352.324 C16.506 354.009 13.895 354.921 11 356 C7.848 357.602 4.773 359.336 1.688 361.062 C0.911 361.475 0.134 361.888 -0.666 362.313 C-8.707 366.662 -12.996 371.352 -16 380 C-17.21 384.261 -18.216 388.554 -19.188 392.875 C-19.701 395.102 -20.215 397.328 -20.73 399.555 C-20.951 400.529 -21.172 401.503 -21.399 402.507 C-22 405 -22 405 -23 408 C-24.672 408.949 -24.672 408.949 -26.75 409.688 C-27.425 409.939 -28.101 410.19 -28.797 410.449 C-31.414 411.104 -33.317 411.408 -36 411 C-37.703 409.023 -37.703 409.023 -39.25 406.375 C-45.439 396.932 -54.605 393.167 -65.285 390.41 C-76.142 388.77 -88.227 388.864 -98.07 394.102 C-100 395 -100 395 -103 395 C-102.111 388.397 -102.111 388.397 -101.48 386.145 C-99.697 378.184 -100.934 370.367 -103.332 362.723 C-104.449 358.171 -104.243 353.653 -104 349 C-103.34 348.67 -102.68 348.34 -102 348 C-101.745 349.155 -101.49 350.31 -101.227 351.5 C-100.302 355.212 -98.956 358.485 -97.334 361.938 C-93.03 371.191 -92.143 378.898 -93 389 C-91.02 388.01 -89.04 387.02 -87 386 C-85.747 376.654 -87.193 370.863 -91.438 362.688 C-96.53 352.696 -96.987 343.72 -96.902 332.645 C-96.894 328.345 -97.338 324.573 -98.392 320.415 C-102.58 303.781 -104.888 287.133 -104 270 C-101.871 271.06 -99.748 272.13 -97.633 273.219 C-96.805 273.642 -95.978 274.064 -95.125 274.5 C-94.303 274.923 -93.48 275.346 -92.633 275.781 C-86.553 278.596 -81.492 279.359 -74.875 279.312 C-74.034 279.307 -73.193 279.301 -72.327 279.295 C-62.247 279.1 -54.476 277.471 -46.301 271.418 C-42.873 269.306 -39.294 268.557 -35.383 267.738 C-32.801 266.938 -31.708 266.053 -30 264 C-31.052 263.629 -31.052 263.629 -32.125 263.25 C-45.132 257.595 -53.386 246.442 -58.938 233.812 C-59.22 233.172 -59.502 232.532 -59.792 231.872 C-70.002 207.353 -63.551 180.496 -54 157 C-51.801 151.901 -49.432 146.882 -47.041 141.871 C-45.994 139.675 -44.957 137.473 -43.922 135.271 C-33.278 112.728 -33.278 112.728 -27.688 107 C-23.603 102.681 -19.847 98.189 -16.141 93.543 C-13.884 90.863 -11.576 88.376 -9 86 C-8.34 86 -7.68 86 -7 86 C-6.72 86.895 -6.441 87.789 -6.152 88.711 C-2.239 100.513 3.725 112.646 15.215 118.691 C16.134 119.123 17.053 119.555 18 120 C17.203 119.178 16.407 118.355 15.586 117.508 C0.566 101.776 0.566 101.776 -1 92 C0.875 93.782 2.458 95.583 4.062 97.625 C5.779 100.06 5.779 100.06 8 101 C7.396 95.799 5.735 91.542 3.625 86.812 C3.321 86.102 3.017 85.391 2.703 84.658 C2.401 83.973 2.1 83.288 1.789 82.582 C1.518 81.966 1.247 81.349 0.967 80.714 C-0.133 78.763 -1.284 77.437 -3 76 C-7.4 75.878 -10.044 78.301 -13.152 81.102 C-16.433 84.472 -19.227 88.208 -22 92 C-23 90 -23 90 -22.335 87.64 C-21.79 86.175 -21.79 86.175 -21.234 84.68 C-20.84 83.594 -20.445 82.508 -20.039 81.39 C-19.614 80.23 -19.188 79.07 -18.75 77.875 C-15.195 67.932 -12.442 58.457 -11 48 C-10.741 46.664 -10.741 46.664 -10.477 45.302 C-9.93 41.515 -9.902 37.818 -9.93 34.004 C-9.921 32.46 -9.911 30.917 -9.898 29.373 C-9.882 26.965 -9.875 24.56 -9.9 22.152 C-10.037 7.004 -10.037 7.004 -5.57 2.402 C-2.545 0 -2.545 0 0 0 Z " fill="#FEFEFE" transform="translate(459,370)"/>
<path d="M0 0 C0.33 0 0.66 0 1 0 C1.186 11.544 -4.317 21.395 -11.875 29.75 C-12.636 30.529 -13.396 31.307 -14.18 32.109 C-17.104 35.147 -17.401 37.566 -17.348 41.773 C-16.562 46.807 -13.5 50.646 -9.801 53.984 C-6.473 56.379 -3.05 58.201 0.625 60 C1.338 60.351 2.051 60.702 2.785 61.064 C13.15 66.091 23.976 69.292 35.027 72.432 C36.916 72.976 38.796 73.552 40.676 74.129 C43.732 74.93 46.297 75.226 49.438 75.312 C57.369 75.861 64.53 78.444 72 81 C73.5 81.501 75 82.001 76.5 82.5 C77.173 82.726 77.846 82.951 78.539 83.184 C81.98 84.325 85.424 85.454 88.875 86.562 C89.511 86.773 90.147 86.983 90.803 87.199 C101.469 90.593 111.94 91.373 123.069 91.371 C125.365 91.375 127.658 91.411 129.953 91.449 C139.932 91.525 149.13 90.589 158.166 85.869 C160 85 160 85 163 85 C161.623 90.682 157.591 93.77 153 97 C148.432 99.581 143.776 101.832 139 104 C137.952 104.495 137.952 104.495 136.883 105 C111.539 115.813 80.495 110.21 54.977 103.086 C52.003 102.256 49.042 101.545 46 101 C53.775 110.445 75.681 111.891 87 113 C102.154 113.905 117.251 113.873 132 110 C132.793 109.803 133.586 109.606 134.402 109.402 C134.93 109.27 135.457 109.137 136 109 C132.275 117.83 120.22 121.74 111.86 125.272 C102.161 129.068 91.884 130.078 81.562 130.316 C80.797 130.337 80.031 130.358 79.243 130.379 C76.829 130.444 74.414 130.503 72 130.562 C70.35 130.606 68.701 130.649 67.051 130.693 C63.034 130.8 59.017 130.901 55 131 C55 131.66 55 132.32 55 133 C60.513 133.05 66.027 133.086 71.541 133.11 C73.412 133.12 75.284 133.133 77.156 133.151 C79.862 133.175 82.567 133.187 85.273 133.195 C86.097 133.206 86.92 133.216 87.768 133.227 C93.713 133.228 99.216 132.35 105 131 C96.594 140.246 81.701 150.02 68.894 151.193 C55.85 151.624 45.189 150.819 33 146 C31.704 145.513 30.407 145.029 29.109 144.547 C26.295 143.494 23.493 142.413 20.695 141.316 C-8.637 129.953 -32.719 131.538 -63.125 137.5 C-64.72 137.811 -66.315 138.123 -67.91 138.434 C-74.196 139.661 -80.48 140.89 -86.754 142.18 C-96.929 144.204 -96.929 144.204 -102 143 C-104.531 140.702 -105.704 138.125 -107 135 C-107.304 134.38 -107.608 133.76 -107.922 133.121 C-114.129 120.033 -112.112 102.815 -107.631 89.55 C-104.785 81.8 -101.218 73.537 -94 69 C-91.47 68.599 -91.47 68.599 -88.641 68.559 C-87.09 68.519 -87.09 68.519 -85.508 68.479 C-84.433 68.465 -83.358 68.451 -82.25 68.438 C-75.148 68.321 -68.843 67.943 -62 66 C-58.5 65.875 -58.5 65.875 -56 66 C-58.395 68.899 -60.312 69.502 -64 70 C-64 70.66 -64 71.32 -64 72 C-57.982 70.042 -57.982 70.042 -52.062 67.812 C-50 67 -50 67 -48 67 C-43.801 58.665 -42.058 50.034 -40.299 40.927 C-38.628 32.383 -37.097 25.499 -30 20 C-26.452 17.698 -22.783 15.761 -19 13.875 C-7.94 8.767 -7.94 8.767 0 0 Z " fill="#FEFEFE" transform="translate(486,720)"/>
<path d="M0 0 C0.103 1.238 0.206 2.475 0.312 3.75 C0.849 8.668 2.003 13.333 3.281 18.105 C4.761 24.066 5.182 29.741 5.238 35.852 C5.246 36.706 5.254 37.56 5.263 38.44 C5.277 40.25 5.287 42.061 5.295 43.871 C5.307 45.682 5.327 47.493 5.357 49.304 C5.889 81.669 -4.416 109.583 -27 133 C-33.934 139.715 -40.893 143.863 -50 147 C-50.91 147.364 -51.82 147.727 -52.758 148.102 C-66.454 151.897 -80.07 148.881 -92.223 142.238 C-125.259 122.826 -140.961 97.1 -153.92 61.884 C-155.362 58.032 -156.925 54.236 -158.5 50.438 C-160.574 45.316 -162.046 40.44 -163 35 C-159.688 36.656 -158.826 40.326 -157.312 43.562 C-152.473 53.457 -147.772 60.194 -137.445 64.93 C-127.339 68.069 -116.348 66.895 -107 62 C-101.188 58.663 -97.696 54.652 -94.227 48.953 C-93 47 -93 47 -91 45 C-89.333 51.667 -87.667 58.333 -86 65 C-85.79 65.738 -85.58 66.475 -85.363 67.235 C-85.243 67.818 -85.123 68.4 -85 69 C-86 70 -86 70 -88.438 70.188 C-91 70 -91 70 -93 68 C-92.67 69.32 -92.34 70.64 -92 72 C-84.943 72.15 -84.943 72.15 -78 71 C-78.763 70.34 -79.526 69.68 -80.312 69 C-86.208 62.988 -86.883 54.136 -88.352 46.195 C-88.831 43.121 -88.831 43.121 -90 41 C-90.312 38.159 -90.558 35.349 -90.75 32.5 C-90.818 31.715 -90.887 30.93 -90.957 30.121 C-91.109 27.844 -91.109 27.844 -91 24 C-87.25 21.5 -85.441 21.464 -81 22 C-77.024 25.359 -74.871 28.786 -72.625 33.438 C-67.972 42.342 -61.801 47.484 -52.195 50.582 C-40.572 52.795 -29.476 50.921 -19.555 44.391 C-12.521 38.733 -9.63 31.75 -8 23 C-7.65 19.503 -7.497 16.011 -7.375 12.5 C-7.317 11.123 -7.317 11.123 -7.258 9.719 C-7.165 7.479 -7.079 5.24 -7 3 C-1.125 0 -1.125 0 0 0 Z " fill="#FEFEFE" transform="translate(567,207)"/>
<path d="M0 0 C5.194 1.599 10.075 3.715 15 6 C16.667 6.76 16.667 6.76 18.367 7.535 C41.196 18.466 62.276 33.233 82 49 C82.618 49.493 83.236 49.986 83.873 50.495 C109.059 70.657 109.059 70.657 119.816 81.844 C121.987 84.067 121.987 84.067 124.57 86.031 C129.125 89.722 132.398 93.962 133.555 99.797 C134.069 111.238 128.805 121.441 123 131 C117.728 130.089 113.419 128.054 108.625 125.75 C107.703 125.309 106.781 124.868 105.831 124.413 C96.965 120.101 88.431 115.265 79.887 110.355 C73.979 106.966 68 103.722 62 100.5 C55.221 96.857 48.486 93.158 41.812 89.327 C27.99 81.397 13.85 74.144 -0.341 66.905 C-4.903 64.573 -9.434 62.187 -13.949 59.763 C-28.677 51.862 -43.851 44.893 -59.59 39.254 C-62.016 38.362 -64.367 37.436 -66.734 36.41 C-73.417 33.524 -79.81 32.55 -87 32 C-86.505 30.515 -86.505 30.515 -86 29 C-84.521 28.972 -83.042 28.953 -81.562 28.938 C-80.739 28.926 -79.915 28.914 -79.066 28.902 C-76 29 -76 29 -72.168 29.484 C-65.772 30.23 -59.355 30.259 -52.924 30.295 C-51.467 30.307 -50.011 30.327 -48.555 30.357 C-46.427 30.399 -44.3 30.416 -42.172 30.426 C-40.286 30.448 -40.286 30.448 -38.362 30.47 C-34.375 29.913 -32.815 28.826 -30 26 C-28.688 24.255 -28.688 24.255 -27.789 22.391 C-27.435 21.722 -27.08 21.053 -26.715 20.364 C-26.356 19.666 -25.996 18.969 -25.625 18.25 C-19.497 6.859 -14.102 -1.895 0 0 Z " fill="#FEFEFE" transform="translate(577,610)"/>
<path d="M0 0 C3.264 1.61 5.028 4.462 7.129 7.332 C13.967 16.341 21.223 24.875 29.902 32.18 C32.704 34.562 35.418 37.035 38.129 39.52 C38.909 40.235 38.909 40.235 39.706 40.964 C43.033 44.028 46.251 47.174 49.418 50.402 C51.28 52.229 53.22 53.937 55.191 55.645 C55.855 56.225 56.519 56.805 57.203 57.402 C58.795 58.784 60.398 60.153 62.004 61.52 C64.591 64.655 64.831 67.019 65.066 71.02 C63.295 70.782 63.295 70.782 61.488 70.539 C54.775 69.8 48.064 69.757 41.316 69.707 C40.035 69.678 38.754 69.649 37.434 69.619 C19.717 69.502 6.096 76.009 -6.875 87.809 C-9.048 89.941 -9.048 89.941 -10.312 92.715 C-11.934 95.02 -11.934 95.02 -14.895 95.91 C-16.021 96.029 -17.148 96.147 -18.309 96.27 C-19.991 96.463 -19.991 96.463 -21.707 96.66 C-23.304 96.838 -23.304 96.838 -24.934 97.02 C-25.809 97.257 -26.684 97.494 -27.586 97.738 C-29.934 98.02 -29.934 98.02 -32.039 96.91 C-32.726 96.369 -33.413 95.827 -34.121 95.27 C-45.166 87.522 -58.655 87.465 -71.641 89.641 C-79.427 91.68 -86.713 94.968 -93.983 98.377 C-95.078 98.888 -95.078 98.888 -96.195 99.41 C-96.845 99.72 -97.494 100.03 -98.163 100.349 C-99.934 101.02 -99.934 101.02 -102.934 101.02 C-104.717 93.33 -105.587 87.773 -102.129 80.559 C-100.864 77.871 -100.018 75.245 -99.184 72.395 C-98.852 71.313 -98.521 70.231 -98.18 69.117 C-97.48 66.833 -96.794 64.546 -96.122 62.253 C-88.931 37.959 -88.931 37.959 -79.934 31.02 C-78.966 30.263 -77.997 29.506 -77 28.727 C-73.723 26.332 -70.39 24.14 -66.934 22.02 C-65.253 20.983 -65.253 20.983 -63.539 19.926 C-48.274 10.972 -30.939 6.893 -13.701 3.616 C-12.744 3.434 -11.787 3.251 -10.801 3.062 C-9.956 2.908 -9.112 2.754 -8.242 2.594 C-5.325 1.868 -2.99 0.03 0 0 Z " fill="#FEFEFE" transform="translate(500.93359375,124.98046875)"/>
<path d="M0 0 C0.059 3.312 0.094 6.625 0.125 9.938 C0.142 10.864 0.159 11.79 0.176 12.744 C0.213 18.005 -0.222 22.668 -1.494 27.767 C-4.98 43.156 -5.69 63.028 2 77 C2.364 77.671 2.729 78.341 3.104 79.032 C5.054 82.608 7.05 86.15 9.109 89.664 C12.682 95.968 12.827 101.883 12 109 C7.983 120.432 1.702 127.458 -8.871 132.977 C-15.411 135.886 -23.018 136.229 -29.843 134.122 C-32.621 132.928 -35.307 131.626 -38 130.25 C-39.925 129.324 -41.852 128.402 -43.781 127.484 C-44.687 127.048 -45.594 126.612 -46.527 126.162 C-53.429 122.918 -60.083 121.033 -67.625 120.062 C-82.589 118.134 -95.929 113.451 -109 106 C-110.026 105.417 -110.026 105.417 -111.072 104.823 C-119.363 100.039 -126.706 94.946 -133.617 88.293 C-135.714 86.276 -137.866 84.454 -140.125 82.625 C-146.141 77.429 -150.617 70.574 -155 64 C-154.67 63.01 -154.34 62.02 -154 61 C-153.34 61.99 -152.68 62.98 -152 64 C-148.934 64.733 -148.934 64.733 -146 65 C-147.262 59.263 -149.127 56.383 -153 52 C-153 51.34 -153 50.68 -153 50 C-147.488 50.441 -144.387 51.664 -140 55 C-137.867 57.559 -137.867 57.559 -135.875 60.438 C-124.216 76.444 -110.761 88.221 -93 97 C-93.33 95.68 -93.66 94.36 -94 93 C-93.092 93.33 -92.185 93.66 -91.25 94 C-87.93 95.196 -87.93 95.196 -84 95 C-84.86 94.345 -85.72 93.69 -86.605 93.016 C-94.603 86.865 -102.192 80.436 -109.477 73.456 C-110.93 72.067 -112.4 70.695 -113.871 69.324 C-123.837 59.782 -132.562 48.769 -138 36 C-137.08 36.476 -137.08 36.476 -136.141 36.961 C-134.09 37.956 -132.221 38.524 -130 39 C-129.111 36.004 -128.804 34.484 -129.996 31.543 C-130.472 30.766 -130.947 29.988 -131.438 29.188 C-131.911 28.397 -132.384 27.607 -132.871 26.793 C-133.244 26.201 -133.616 25.61 -134 25 C-128.015 25.292 -124.977 27.829 -121 32 C-119.937 33.337 -118.896 34.693 -117.875 36.062 C-106.375 51.269 -90.083 65.369 -72 72 C-67.832 72.39 -66.537 72.358 -63 70 C-65.31 68.68 -67.62 67.36 -70 66 C-67.131 62.494 -64.268 59.147 -61 56 C-59.515 56.495 -59.515 56.495 -58 57 C-46.467 58.056 -37.456 57.042 -28.105 49.465 C-22.374 43.559 -19.997 35.115 -17.52 27.457 C-8.413 0 -8.413 0 0 0 Z " fill="#FEFEFE" transform="translate(760,693)"/>
<path d="M0 0 C1.625 1.219 1.625 1.219 3.25 2.438 C3.99 2.988 4.73 3.538 5.492 4.105 C7.203 5.398 8.895 6.714 10.57 8.051 C26.682 20.684 42.888 29.219 63.625 29.5 C64.674 29.519 65.724 29.538 66.805 29.557 C73.318 29.503 78.524 28.465 84.541 25.955 C87.02 24.992 89.383 24.447 92 24 C98.365 40.103 94.178 55.237 89 71 C88.681 72.057 88.681 72.057 88.355 73.136 C87.699 75.023 87.699 75.023 86 78 C83.039 79.383 83.039 79.383 79.625 80.125 C74.231 81.508 71.34 82.547 68 87 C68.99 86.526 69.98 86.051 71 85.562 C74.992 83.832 78.681 83.379 83 83 C81.644 87.855 79.585 91.314 76.625 95.375 C65.794 110.652 63.021 127.548 60.289 145.719 C60.106 146.873 60.106 146.873 59.92 148.05 C59.688 149.52 59.469 150.993 59.265 152.468 C58.752 155.671 58.125 157.83 56.199 160.465 C53.617 162.268 52.359 162.433 49.25 162.25 C48.451 162.214 47.652 162.178 46.828 162.141 C46.225 162.094 45.622 162.048 45 162 C44.611 161.007 44.221 160.015 43.82 158.992 C40.23 150.163 35.996 142.73 30.297 135.109 C26.3 129.698 23.386 124.288 21.133 117.957 C20.613 116.508 20.613 116.508 20.083 115.029 C19.726 114.029 19.368 113.03 19 112 C18.288 110.049 17.575 108.098 16.859 106.148 C16.156 104.224 15.453 102.299 14.75 100.375 C14.205 98.888 14.205 98.888 13.648 97.371 C13.306 96.431 12.963 95.492 12.609 94.523 C12.3 93.677 11.99 92.831 11.671 91.958 C11 90 11 90 11 89 C17.93 89 24.86 89 32 89 C25.223 85.612 22.962 84.499 16 84.25 C15.321 84.22 14.641 84.191 13.941 84.16 C12.295 84.091 10.647 84.043 9 84 C5.925 75.481 3.34 66.922 1.188 58.125 C0.969 57.259 0.75 56.392 0.525 55.499 C-0.814 49.863 -1.205 44.792 -1 39 C-0.34 39 0.32 39 1 39 C1.987 34.04 2.192 29.285 2.188 24.25 C2.188 23.454 2.189 22.658 2.189 21.837 C2.144 16.744 1.735 11.991 0.438 7.043 C-0.074 4.655 -0.068 2.435 0 0 Z " fill="#FEFEFE" transform="translate(465,357)"/>
<path d="M0 0 C2.889 1.902 4.621 3.935 6.629 6.73 C6.062 6.574 5.495 6.419 4.91 6.258 C-3.259 4.37 -9.325 5.967 -16.609 9.969 C-29.412 18.136 -35.887 33.468 -39.184 47.793 C-42.508 66.21 -41.583 85.675 -31.371 101.73 C-29.053 105 -27.216 106.524 -23.371 107.73 C-12.265 109.398 -2.275 108.168 7.629 102.73 C8.961 102.061 10.294 101.393 11.629 100.73 C7.989 109.126 -2.335 113.476 -10.371 116.73 C-24.661 121.073 -45.097 120.843 -58.723 114.664 C-66.974 109.982 -71.207 102.891 -74.621 94.293 C-74.959 93.485 -75.297 92.678 -75.645 91.846 C-82.711 74.582 -83.408 53.155 -76.371 35.73 C-69.315 19.18 -58.597 3.423 -42.371 -5.27 C-29.083 -9.699 -12.065 -5.992 0 0 Z " fill="#FEFEFE" transform="translate(408.37109375,771.26953125)"/>
<path d="M0 0 C2 1 2 1 3.332 4.613 C3.833 6.177 4.326 7.744 4.812 9.312 C6.45 14.556 8.232 19.648 10.391 24.703 C13.271 31.499 15.628 38.431 17.938 45.438 C18.26 46.41 18.26 46.41 18.589 47.402 C30.151 82.298 30.151 82.298 30.098 93.176 C30.093 94.911 30.093 94.911 30.088 96.682 C30.075 98.479 30.075 98.479 30.062 100.312 C30.058 101.53 30.053 102.748 30.049 104.002 C30.037 107.001 30.021 110.001 30 113 C27.561 110.561 27.726 109.668 27.375 106.312 C24.772 91.034 14.204 78.148 1.875 69.375 C-2.885 66.361 -6.379 65 -12 65 C-8.5 68.715 -5.001 71.461 -0.688 74.25 C11.722 82.589 19.564 93.85 23.305 108.355 C25.894 121.927 23.396 134.784 15.887 146.398 C4.389 162.253 -9.243 174.921 -29 179 C-45.508 180.579 -62.26 176.957 -75.336 166.414 C-82.035 160.669 -89.178 153.948 -91 145 C-89.68 145 -88.36 145 -87 145 C-86.109 146.406 -85.221 147.813 -84.348 149.23 C-77.659 158.013 -63.227 163.591 -53 167 C-37.516 168.208 -25.244 166.301 -12.957 155.906 C-2.086 145.317 3.069 133.084 3.438 118.062 C3.422 106.678 -1.188 100.301 -8.914 92.324 C-15.574 84.904 -15.443 78.046 -15.154 68.59 C-14.831 63.151 -13.955 57.78 -13.14 52.397 C-12.077 45.191 -11.556 38.064 -11.379 30.784 C-11.234 26.034 -10.628 21.667 -9.489 17.049 C-9 14.999 -8.648 12.955 -8.312 10.875 C-7.129 6.003 -3.7 3.166 0 0 Z " fill="#FEFEFE" transform="translate(777,672)"/>
<path d="M0 0 C0.99 0.495 0.99 0.495 2 1 C1.55 1.559 1.1 2.119 0.637 2.695 C-7.006 12.221 -14.567 21.809 -22 31.5 C-29.514 41.286 -37.07 51.004 -45.086 60.387 C-47.783 63.547 -50.42 66.743 -53 70 C-58.314 76.7 -63.892 83.177 -69.437 89.687 C-76.257 97.697 -76.257 97.697 -82.875 105.875 C-87.889 112.202 -93.226 118.249 -98.539 124.323 C-99.784 125.753 -101.018 127.192 -102.25 128.633 C-102.848 129.331 -103.446 130.03 -104.062 130.75 C-104.548 131.322 -105.034 131.895 -105.535 132.484 C-107.253 134.262 -108.891 135.701 -111 137 C-111.99 136.67 -112.98 136.34 -114 136 C-113.602 135.31 -113.203 134.621 -112.793 133.91 C-107.084 123.785 -103.216 114.899 -105 103 C-107.295 96.275 -111.69 91.811 -116.75 87 C-117.447 86.321 -118.145 85.641 -118.863 84.941 C-120.567 83.285 -122.279 81.638 -124 80 C-113.477 69.115 -101.162 60.445 -88.356 52.476 C-85.827 50.891 -83.317 49.279 -80.809 47.66 C-68.876 39.973 -56.778 32.623 -44.518 25.471 C-42.2 24.117 -39.888 22.754 -37.578 21.387 C-29.651 16.695 -21.683 12.076 -13.688 7.5 C-12.785 6.983 -11.883 6.466 -10.953 5.933 C-9.683 5.208 -9.683 5.208 -8.387 4.469 C-7.261 3.826 -7.261 3.826 -6.112 3.17 C-5.415 2.784 -4.718 2.398 -4 2 C-3.291 1.598 -2.582 1.197 -1.851 0.783 C-1.24 0.525 -0.629 0.266 0 0 Z " fill="#FEFEFE" transform="translate(820,603)"/>
<path d="M0 0 C7.987 1.515 15.401 4.168 23 7 C23.269 14.659 22.419 21.879 21.25 29.438 C19.366 42.32 18.008 55.225 16.812 68.188 C16.728 69.089 16.644 69.99 16.557 70.918 C14.642 91.493 13.808 111.966 13.438 132.625 C13.394 134.904 13.351 137.182 13.307 139.461 C13.201 144.974 13.099 150.487 13 156 C12.01 155.67 11.02 155.34 10 155 C10 154.34 10 153.68 10 153 C4.832 150.702 -0.478 149.884 -6.016 148.879 C-7 148.589 -7.985 148.299 -9 148 C-9.995 145.014 -10.138 143.01 -10.161 139.891 C-10.171 138.841 -10.18 137.792 -10.19 136.711 C-10.194 135.569 -10.199 134.427 -10.203 133.25 C-10.21 132.062 -10.217 130.874 -10.224 129.649 C-10.242 125.766 -10.248 121.883 -10.25 118 C-10.251 117.009 -10.251 117.009 -10.251 115.998 C-10.259 95.277 -9.747 74.819 -7.269 54.241 C-6.974 51.783 -6.686 49.324 -6.399 46.865 C-2.63 14.747 -2.63 14.747 0 0 Z " fill="#DBDBDC" transform="translate(508,868)"/>
<path d="M0 0 C1.077 -0.009 1.077 -0.009 2.176 -0.019 C6.596 0.088 9.536 0.721 13 3.5 C14.547 5.586 14.547 5.586 15.75 7.875 C16.157 8.625 16.565 9.375 16.984 10.148 C20.483 18.249 20.435 29.687 17.438 37.938 C13.636 45.954 8.278 51.315 0 54.5 C-6.815 56.772 -17.876 57.048 -24.562 54 C-32.209 49.097 -38.212 42.192 -41 33.5 C-42.15 27.998 -42.289 23.638 -39.328 18.727 C-34.411 12.92 -28.811 8.812 -22 5.5 C-21.034 5.014 -20.069 4.528 -19.074 4.027 C-12.667 1.163 -6.948 0.046 0 0 Z " fill="#F5F5F5" transform="translate(536,198.5)"/>
<path d="M0 0 C0.673 -0.009 1.346 -0.019 2.04 -0.029 C9.832 0.022 17.081 2.008 22.938 7.25 C27.576 13.267 29.818 19.008 29.32 26.621 C28.13 34.795 25.313 40.811 18.938 46.25 C10.901 51.233 3.396 53.365 -6.062 52.25 C-17.656 48.253 -23.627 40.772 -29.105 30.246 C-31.669 24.482 -31.816 18.456 -31.062 12.25 C-28.418 6.33 -21.801 4.462 -16.062 2.25 C-10.674 0.332 -5.697 0.06 0 0 Z " fill="#FEFEFE" transform="translate(442.0625,217.75)"/>
<path d="M0 0 C2 1 2 1 3.332 4.613 C3.833 6.177 4.326 7.744 4.812 9.312 C6.45 14.556 8.232 19.648 10.391 24.703 C13.271 31.499 15.628 38.431 17.938 45.438 C18.26 46.41 18.26 46.41 18.589 47.402 C30.151 82.298 30.151 82.298 30.098 93.176 C30.094 94.333 30.091 95.49 30.088 96.682 C30.075 98.479 30.075 98.479 30.062 100.312 C30.058 101.53 30.053 102.748 30.049 104.002 C30.037 107.001 30.021 110.001 30 113 C27.561 110.561 27.726 109.668 27.375 106.312 C24.772 91.033 14.19 78.252 2 69.312 C-3.422 65.864 -7.678 64.993 -14 66 C-13.858 63.458 -13.712 60.917 -13.562 58.375 C-13.523 57.662 -13.484 56.949 -13.443 56.215 C-13.259 53.125 -13.025 50.143 -12.492 47.09 C-11.676 41.965 -11.643 36.789 -11.482 31.607 C-11.279 26.577 -10.698 21.903 -9.485 17.013 C-8.994 14.976 -8.646 12.943 -8.312 10.875 C-7.129 6.003 -3.7 3.166 0 0 Z " fill="#FEFEFE" transform="translate(777,672)"/>
<path d="M0 0 C0.821 -0.029 1.642 -0.058 2.488 -0.088 C8.398 -0.149 12.86 0.893 17.75 4.312 C19.75 6.562 19.75 6.562 20.75 8.312 C19.872 7.988 19.872 7.988 18.977 7.656 C4.026 2.807 -10.379 4.247 -24.25 11.312 C-56.009 27.948 -77.207 55.32 -88.23 89.179 C-98.615 123.328 -95.623 154.954 -81.847 187.249 C-81.562 187.92 -81.277 188.59 -80.983 189.281 C-80.198 191.119 -79.403 192.952 -78.607 194.784 C-70.783 215.128 -75.651 235.762 -84.078 254.973 C-89.794 266.813 -97.017 277.698 -104.471 288.49 C-116.555 306.033 -122.266 322.098 -124.25 343.312 C-124.91 343.312 -125.57 343.312 -126.25 343.312 C-126.784 318.024 -119.003 300.79 -104.75 280.312 C-93.753 264.456 -81.518 246.135 -80.25 226.312 C-80.193 225.633 -80.136 224.954 -80.078 224.255 C-78.695 206.039 -84.477 191.125 -91.894 174.781 C-94.456 169.063 -96.096 163.458 -97.25 157.312 C-97.454 156.297 -97.657 155.281 -97.867 154.234 C-104.001 118.777 -94.809 79.153 -74.539 49.492 C-70.993 44.567 -67.21 39.908 -63.25 35.312 C-62.639 34.556 -62.028 33.799 -61.398 33.02 C-47.065 15.789 -22.712 0.262 0 0 Z " fill="#E8E8E9" transform="translate(475.25,110.6875)"/>
<path d="M0 0 C3.227 0.961 4.42 2.735 6.02 5.602 C10.695 19.627 2.871 35.926 -3.043 48.602 C-5.461 53.097 -7.594 55.952 -11.98 58.602 C-13.972 58.985 -15.972 59.325 -17.98 59.602 C-18.08 53.946 -18.152 48.29 -18.2 42.634 C-18.22 40.713 -18.247 38.793 -18.282 36.873 C-18.646 16.291 -18.646 16.291 -13.98 8.602 C-13.451 7.702 -12.921 6.802 -12.375 5.875 C-8.649 1.404 -5.962 -0.548 0 0 Z " fill="#FEFEFE" transform="translate(595.98046875,199.3984375)"/>
<path d="M0 0 C0.66 0 1.32 0 2 0 C2.483 1.394 2.961 2.791 3.438 4.188 C3.704 4.965 3.971 5.742 4.246 6.543 C10.644 27.394 4.629 50.608 -5.207 69.292 C-10.267 78.237 -16.316 86.207 -23 94 C-35.624 109.113 -47.613 124.246 -58 141 C-58.423 141.68 -58.846 142.361 -59.281 143.062 C-68.982 158.799 -78.112 175.429 -84 193 C-84.366 194.072 -84.732 195.145 -85.109 196.25 C-91.353 215.434 -90.933 235.08 -89 255 C-97.628 244.971 -95.619 227.22 -94.789 214.859 C-89.397 172.92 -59.535 130.07 -32.625 98.688 C-13.726 76.588 1.78 53.082 1.25 22.938 C1.242 21.125 1.242 21.125 1.234 19.275 C1.284 13.037 1.284 13.037 0 7 C-0.04 4.667 -0.044 2.333 0 0 Z " fill="#E8E8E9" transform="translate(416,336)"/>
<path d="M0 0 C0.66 0 1.32 0 2 0 C0.261 10.583 -5.429 17.432 -13.812 23.688 C-22.079 29.28 -30.099 29.941 -40 29 C-47.456 27.249 -52.639 23.331 -58 18 C-57.505 16.515 -57.505 16.515 -57 15 C-51.992 13.39 -47.454 12.961 -42.202 12.865 C-32.133 12.62 -24.234 9.829 -15.057 5.856 C-11.152 4.231 -7.12 2.998 -3.09 1.727 C-1.038 1.183 -1.038 1.183 0 0 Z " fill="#F5F5F5" transform="translate(528,284)"/>
<path d="M0 0 C1.675 0.286 3.344 0.618 5 1 C4.415 5.063 3.517 8.717 2.109 12.57 C1.543 14.148 1.543 14.148 0.966 15.757 C0.564 16.868 0.163 17.98 -0.25 19.125 C-3.958 29.602 -6.985 40.035 -9.482 50.855 C-10.24 53.996 -11.162 57.086 -12.062 60.188 C-18.009 82.54 -19.604 106.055 -22 129 C-23.98 129 -25.96 129 -28 129 C-28.344 116.004 -27.49 103.693 -25.375 90.875 C-25.24 90.031 -25.105 89.186 -24.966 88.317 C-12.888 12.888 -12.888 12.888 0 0 Z " fill="#5A5C5E" transform="translate(360,895)"/>
<path d="M0 0 C-1.385 5.234 -4.684 8.045 -9 11 C-12.499 12.989 -16.052 14.847 -19.625 16.699 C-46.732 30.813 -73.767 46.757 -99 64 C-99.66 63.67 -100.32 63.34 -101 63 C-75.213 42.708 -48.855 23.124 -20.25 6.938 C-19.619 6.58 -18.988 6.222 -18.338 5.853 C-6.903 -0.505 -6.903 -0.505 0 0 Z " fill="#F5F5F5" transform="translate(836,584)"/>
<path d="M0 0 C0.66 0.33 1.32 0.66 2 1 C1.678 1.552 1.357 2.105 1.025 2.674 C-11.273 23.849 -21.69 43.913 -27 68 C-27.379 69.624 -27.379 69.624 -27.767 71.282 C-29.805 80.544 -30.557 89.515 -30.5 99 C-30.5 99.709 -30.5 100.419 -30.5 101.15 C-30.463 114.252 -28.505 126.365 -25 139 C-24.32 141.663 -23.66 144.331 -23 147 C-23.66 147 -24.32 147 -25 147 C-40.704 113.56 -36.619 76.702 -24.852 42.68 C-19.455 28.941 -12.182 15.557 -3 4 C-1.997 2.669 -0.996 1.337 0 0 Z " fill="#DBDBDC" transform="translate(399,470)"/>
<path d="M0 0 C0.33 0 0.66 0 1 0 C1.02 0.667 1.04 1.334 1.06 2.022 C1.409 34.118 1.409 34.118 9 65 C9.706 66.845 9.706 66.845 10.426 68.727 C14.202 78.12 19.183 86.782 24.214 95.55 C36.817 117.58 36.817 117.58 37 128 C35.125 127.359 35.125 127.359 33 126 C31.938 123.516 31.938 123.516 31 120.25 C28.828 113.419 25.662 107.318 22.188 101.062 C21.659 100.111 21.131 99.159 20.587 98.178 C18.662 94.725 16.722 91.281 14.781 87.837 C-0.222 61.079 -7.692 30.573 0 0 Z " fill="#E8E8E9" transform="translate(599,282)"/>
<path d="M0 0 C3.325 0.321 4.899 1.523 7.035 4.012 C10.241 7.968 11.857 12.016 13.438 16.812 C14.019 18.486 14.602 20.159 15.188 21.832 C15.481 22.682 15.775 23.533 16.078 24.409 C17.864 29.427 19.871 34.362 21.867 39.3 C23.074 42.344 24 44.693 24 48 C19.215 47.578 16.204 45.422 13 42 C9.023 36.551 6.344 30.594 3.812 24.375 C3.47 23.555 3.128 22.735 2.775 21.891 C-2.542 9.046 -2.542 9.046 -2 2 C-1.34 1.34 -0.68 0.68 0 0 Z " fill="#F5F5F5" transform="translate(392,245)"/>
<path d="M0 0 C0 4.042 -2.031 6.036 -4.375 9.125 C-29.601 43.551 -38.646 82.028 -42 124 C-42.66 123.67 -43.32 123.34 -44 123 C-44.763 93.049 -40.403 65.082 -27 38 C-26.7 37.379 -26.4 36.757 -26.091 36.117 C-19.551 22.669 -11.192 10.038 0 0 Z " fill="#E8E8E9" transform="translate(410,122)"/>
<path d="M0 0 C0.66 0 1.32 0 2 0 C0.261 10.583 -5.429 17.432 -13.812 23.688 C-22.079 29.28 -30.099 29.941 -40 29 C-47.456 27.249 -52.639 23.331 -58 18 C-57.505 16.515 -57.505 16.515 -57 15 C-51.992 13.39 -47.454 12.961 -42.202 12.865 C-32.133 12.62 -24.234 9.829 -15.057 5.856 C-11.152 4.231 -7.12 2.998 -3.09 1.727 C-1.038 1.183 -1.038 1.183 0 0 Z M-18.75 10.375 C-27.371 14.243 -35.559 15.271 -44.915 15.843 C-47.972 16.073 -50.972 16.526 -54 17 C-49.235 22.361 -44.819 25.574 -37.535 26.387 C-27.195 26.691 -18.634 25.283 -10.5 18.625 C-7.47 15.738 -5.477 12.97 -4 9 C-4 8.34 -4 7.68 -4 7 C-9.967 6.583 -13.54 7.872 -18.75 10.375 Z " fill="#1C1C1D" transform="translate(528,284)"/>
<path d="M0 0 C11.383 0.253 20.245 9.557 28 17 C28.874 17.799 29.748 18.598 30.648 19.422 C39.954 28.221 48.882 39.157 54 51 C54 51.99 54 52.98 54 54 C51.011 52.647 48.836 51.103 46.438 48.875 C43.314 46.076 40.1 43.563 36.688 41.125 C31.796 37.628 27.134 33.917 22.508 30.078 C20.028 28.023 17.52 26.006 15 24 C15.33 23.34 15.66 22.68 16 22 C24.298 27.665 32.314 33.687 40.331 39.74 C42.218 41.164 44.108 42.583 46 44 C42.795 40.198 39.585 36.401 36.367 32.611 C35.264 31.311 34.163 30.009 33.062 28.707 C31.405 26.775 29.715 24.881 28 23 C27.3 22.223 26.6 21.445 25.879 20.645 C19.932 14.346 13.492 9.731 6.223 5.129 C3.79 3.522 1.894 2.173 0 0 Z " fill="#E8E8E9" transform="translate(519,115)"/>
<path d="M0 0 C1.141 -0.021 1.141 -0.021 2.304 -0.042 C7.49 0.001 11.281 0.777 15.812 3.375 C16.501 5.483 16.501 5.483 16.812 7.375 C15.569 7.424 14.325 7.473 13.043 7.523 C0.017 8.083 -10.869 8.602 -22.461 15.133 C-25.311 16.431 -27.099 16.633 -30.188 16.375 C-30.938 14.688 -30.938 14.688 -31.188 12.375 C-28.323 7.393 -24.308 5.47 -19.188 3.375 C-18.491 3.073 -17.795 2.772 -17.078 2.461 C-11.431 0.377 -5.957 0.065 0 0 Z " fill="#0F0F10" transform="translate(525.1875,180.625)"/>
<path d="M0 0 C0.99 0.495 0.99 0.495 2 1 C2.611 4.14 3.063 7.202 3.438 10.375 C3.562 11.399 3.686 12.422 3.814 13.477 C5.082 24.625 5.891 35.81 6.688 47 C6.754 47.918 6.821 48.835 6.889 49.781 C7.709 61.21 8.191 72.54 8 84 C6.68 83.67 5.36 83.34 4 83 C1.459 55.233 -0.173 27.894 0 0 Z " fill="#1C1C1D" transform="translate(492,543)"/>
<path d="M0 0 C2.5 2.062 2.5 2.062 4 4 C4 4.66 4 5.32 4 6 C-0.389 5.335 -3.981 3.812 -8 2 C-7.897 3.052 -7.794 4.104 -7.688 5.188 C-8 9 -8 9 -10.062 11.938 C-13 14 -13 14 -16.562 14.625 C-20 14 -20 14 -22.375 11.75 C-23.772 9.386 -24.602 7.688 -25 5 C-28.407 7.246 -31.765 9.511 -35 12 C-34.359 6.671 -32.196 4.855 -28.168 1.582 C-19.455 -4.776 -9.45 -4.642 0 0 Z " fill="#0F0F10" transform="translate(541,213)"/>
<path d="M0 0 C0.795 -0.021 1.589 -0.041 2.408 -0.062 C7.351 -0.095 11.038 0.253 15.188 3.25 C15.843 5.862 15.843 5.862 16.188 8.25 C15.031 8.264 15.031 8.264 13.852 8.278 C10.317 8.332 6.784 8.416 3.25 8.5 C2.038 8.514 0.825 8.528 -0.424 8.543 C-7.803 8.743 -13.36 9.638 -19.812 13.25 C-22.538 14.749 -23.621 15.25 -26.812 15.25 C-27.188 12.562 -27.188 12.562 -26.812 9.25 C-22.522 4.519 -17.85 2.952 -11.812 1.25 C-7.829 -0.078 -4.172 0.027 0 0 Z " fill="#0F0F10" transform="translate(440.8125,196.75)"/>
<path d="M0 0 C2.625 2.188 2.625 2.188 4 4 C3.67 4.66 3.34 5.32 3 6 C1.02 5.01 -0.96 4.02 -3 3 C-3.103 3.928 -3.206 4.856 -3.312 5.812 C-4.014 9.065 -4.425 10.043 -7 12 C-10.129 13.564 -12.556 13.356 -16 13 C-18.842 10.449 -19.91 9.01 -20.25 5.188 C-20.168 4.466 -20.085 3.744 -20 3 C-26.27 6.615 -26.27 6.615 -31 12 C-31.66 12 -32.32 12 -33 12 C-32.721 8.74 -32.086 7.111 -30.062 4.5 C-20.359 -3.421 -11.588 -4.817 0 0 Z " fill="#040404" transform="translate(457,228)"/>
<path d="M0 0 C-1.427 4.449 -3.092 8.744 -4.875 13.062 C-14.243 36.229 -15.397 58.305 -13 83 C-21.628 72.971 -19.619 55.22 -18.789 42.859 C-17.003 28.966 -11.539 12.857 -4 1 C-2 0 -2 0 0 0 Z " fill="#DBDBDC" transform="translate(340,508)"/>
<path d="M0 0 C0.33 0 0.66 0 1 0 C1.255 1.155 1.51 2.31 1.773 3.5 C2.698 7.212 4.044 10.485 5.666 13.938 C9.97 23.191 10.857 30.898 10 41 C11.033 40.488 12.065 39.976 13.129 39.449 C16.731 37.906 19.072 37.906 22.938 38.812 C23.895 39.025 24.853 39.238 25.84 39.457 C26.553 39.636 27.266 39.815 28 40 C28 40.33 28 40.66 28 41 C26.949 41.098 25.899 41.196 24.816 41.297 C17.619 42.039 11.174 42.71 4.699 46.195 C3 47 3 47 0 47 C0.889 40.397 0.889 40.397 1.52 38.145 C3.304 30.179 2.057 22.37 -0.328 14.719 C-1.445 10.201 -1.443 5.622 -1 1 C-0.67 0.67 -0.34 0.34 0 0 Z " fill="#F5F5F5" transform="translate(356,718)"/>
<path d="M0 0 C1.929 2.893 2.338 4.035 2.824 7.324 C5.206 22.134 8.476 35.727 18.617 47.301 C20 49 20 49 21 52 C22.306 52.719 23.646 53.377 25 54 C26.597 55.127 28.179 56.274 29.75 57.438 C37.352 62.784 43.767 64.451 53 65 C52.67 65.66 52.34 66.32 52 67 C45.098 69.185 39.333 67.611 32.957 64.648 C15.905 55.143 7.409 40.105 2 22 C1.751 21.259 1.502 20.518 1.246 19.754 C-0.717 13.371 -0.167 6.595 0 0 Z " fill="#E8E8E9" transform="translate(351,576)"/>
<path d="M0 0 C-0.522 0.401 -1.044 0.802 -1.582 1.215 C-7.816 6.029 -13.986 10.912 -20 16 C-20.639 16.54 -21.279 17.08 -21.938 17.637 C-29.353 24.451 -34.68 34.019 -39 43 C-39.66 43 -40.32 43 -41 43 C-38.103 26.674 -27.959 14.918 -15 5 C-5.361 -1.664 -5.361 -1.664 0 0 Z " fill="#1C1C1D" transform="translate(313,767)"/>
<path d="M0 0 C0.33 0 0.66 0 1 0 C1.02 0.694 1.04 1.389 1.06 2.104 C1.157 5.32 1.266 8.535 1.375 11.75 C1.406 12.842 1.437 13.934 1.469 15.059 C1.734 22.519 2.589 29.672 4 37 C4.335 38.796 4.335 38.796 4.676 40.629 C6.074 47.072 8.041 52.684 10.926 58.609 C12.17 61.377 12.755 63.977 13 67 C3.247 58.919 -0.756 43.146 -2 31 C-2.162 26.624 -2.185 22.254 -2.188 17.875 C-2.2 16.708 -2.212 15.542 -2.225 14.34 C-2.227 13.214 -2.228 12.089 -2.23 10.93 C-2.235 9.911 -2.239 8.893 -2.243 7.843 C-1.989 4.873 -1.246 2.693 0 0 Z " fill="#E8E8E9" transform="translate(582,307)"/>
<path d="M0 0 C0.33 0 0.66 0 1 0 C1 2.64 1 5.28 1 8 C1.66 8 2.32 8 3 8 C3 7.01 3 6.02 3 5 C8.283 3.679 8.283 3.679 11.375 5.062 C13 7 13 7 13.562 9.75 C12.653 15.004 9.746 18.453 5.812 21.938 C4 23 4 23 2 23 C1.67 28.94 1.34 34.88 1 41 C0.67 41 0.34 41 0 41 C0 27.47 0 13.94 0 0 Z " fill="#DBDBDC" transform="translate(578,218)"/>
<path d="M0 0 C0 0.66 0 1.32 0 2 C-1.914 3.34 -1.914 3.34 -4.625 4.938 C-17.095 12.655 -28.756 21.759 -37 34 C-37.33 33.34 -37.66 32.68 -38 32 C-33.9 19.748 -23.758 10.548 -13 4 C-8.72 1.898 -4.812 0 0 0 Z " fill="#1C1C1D" transform="translate(298,763)"/>
<path d="M0 0 C2.089 1.607 2.901 2.515 3.434 5.121 C3.444 11.326 3.444 11.326 1.312 14.562 C-1.452 16.281 -2.804 16.574 -6 16 C-8.089 14.393 -8.901 13.485 -9.434 10.879 C-9.444 4.674 -9.444 4.674 -7.312 1.438 C-4.548 -0.281 -3.196 -0.574 0 0 Z " fill="#040404" transform="translate(516,922)"/>
<path d="M0 0 C3.445 2.429 5.725 5.206 8.238 8.578 C7.908 9.238 7.578 9.898 7.238 10.578 C6.26 9.838 6.26 9.838 5.262 9.082 C4.388 8.441 3.514 7.801 2.613 7.141 C1.755 6.503 0.896 5.864 0.012 5.207 C-5.298 2.088 -11.058 2.385 -17.074 2.391 C-17.822 2.39 -18.571 2.389 -19.342 2.389 C-24.735 2.44 -29.562 3.065 -34.762 4.578 C-32.514 2.064 -30.415 0.777 -27.324 -0.547 C-26.562 -0.879 -25.801 -1.212 -25.016 -1.555 C-16.415 -4.864 -8.073 -4.481 0 0 Z " fill="#DBDBDC" transform="translate(486.76171875,98.421875)"/>
<path d="M0 0 C2.103 1.595 2.9 2.513 3.434 5.121 C3.444 11.309 3.444 11.309 1.312 14.625 C-1 16 -1 16 -3.562 15.938 C-7.454 14.441 -7.454 14.441 -9 12 C-9.38 7.817 -9.441 4.526 -7 1 C-4.451 -0.274 -2.826 -0.276 0 0 Z " fill="#040404" transform="translate(514,946)"/>
<path d="M0 0 C2.089 1.607 2.901 2.515 3.434 5.121 C3.44 8.948 3.426 11.312 1.375 14.625 C-1 16 -1 16 -4.125 16 C-7 15 -7 15 -8.375 13.375 C-9.246 10.066 -9.365 7.408 -9 4 C-6.464 0.337 -4.43 -0.795 0 0 Z " fill="#040404" transform="translate(521,876)"/>
<path d="M0 0 C5.425 0.482 5.425 0.482 7.875 2.688 C9.366 5.753 9.482 7.624 9 11 C7 13.875 7 13.875 5 16 C2.125 15.688 2.125 15.688 -1 15 C-3.454 11.319 -3.594 8.277 -3 4 C-1.5 1.5 -1.5 1.5 0 0 Z " fill="#0F0F10" transform="translate(505,591)"/>
<path d="M0 0 C-0.33 0.99 -0.66 1.98 -1 3 C-4.96 3.66 -8.92 4.32 -13 5 C-10.865 6.454 -10.865 6.454 -8.688 7.938 C-7.887 8.483 -7.086 9.028 -6.262 9.59 C-2.032 12.227 1.483 12.135 6.375 12.125 C7.682 12.128 8.989 12.13 10.336 12.133 C13.38 12.022 16.052 11.717 19 11 C19 11.66 19 12.32 19 13 C19.66 13.33 20.32 13.66 21 14 C11.47 16.99 1.545 17.546 -7.699 13.355 C-11.582 11.068 -14.815 8.167 -18 5 C-17.67 4.01 -17.34 3.02 -17 2 C-11.623 -0.2 -5.715 -0.208 0 0 Z " fill="#303032" transform="translate(488,297)"/>
<path d="M0 0 C0.33 0 0.66 0 1 0 C1.33 7.59 1.66 15.18 2 23 C2.495 14.09 2.495 14.09 3 5 C3.33 5 3.66 5 4 5 C4.004 5.607 4.008 6.213 4.012 6.838 C4.196 22.463 6.154 36.869 10 52 C10.387 53.552 10.774 55.104 11.16 56.656 C11.576 58.311 11.576 58.311 12 60 C11.34 60 10.68 60 10 60 C2.587 44.215 -0.198 28.898 -0.062 11.5 C-0.058 10.391 -0.053 9.283 -0.049 8.141 C-0.037 5.427 -0.021 2.714 0 0 Z " fill="#C4C4C5" transform="translate(364,557)"/>
<path d="M0 0 C2.38 2.38 2.494 3.572 3.113 6.832 C3.31 7.796 3.506 8.759 3.709 9.752 C4.109 11.779 4.499 13.807 4.881 15.838 C6.125 21.845 7.186 25.129 12 29 C12.33 29.66 12.66 30.32 13 31 C8.086 32.008 3.005 32.591 -2 32 C-4 30 -4 30 -4.125 26.875 C-4.084 25.926 -4.043 24.978 -4 24 C-3.608 24.66 -3.216 25.32 -2.812 26 C-1.146 28.292 -1.146 28.292 1.688 28.25 C2.451 28.168 3.214 28.085 4 28 C3.475 25.886 2.942 23.775 2.396 21.666 C1.688 18.926 1 16.182 0.312 13.438 C-0.064 12 -0.064 12 -0.447 10.533 C-0.675 9.613 -0.902 8.694 -1.137 7.746 C-1.457 6.488 -1.457 6.488 -1.784 5.205 C-2 3 -2 3 0 0 Z " fill="#303032" transform="translate(477,248)"/>
<path d="M0 0 C2.56 2.219 2.949 3.652 3.438 7 C3 10 3 10 1.375 12.438 C-1 14 -1 14 -4.125 13.938 C-7 13 -7 13 -9 10 C-9.542 3.933 -9.542 3.933 -7.875 1.062 C-5.078 -0.522 -3.151 -0.459 0 0 Z " fill="#0F0F10" transform="translate(508,549)"/>
<path d="M0 0 C0.438 0.364 0.877 0.727 1.328 1.102 C6.411 5.13 11.711 8.012 17.559 10.801 C20 12 20 12 21 13 C21.262 17.55 20.995 20.884 19 25 C16.295 22.668 15.028 21.073 13.75 17.688 C12.147 13.552 9.309 11.397 5.941 8.637 C3.59 6.654 1.738 4.535 0 2 C0 1.34 0 0.68 0 0 Z " fill="#1C1C1D" transform="translate(473,497)"/>
<path d="M0 0 C8.496 -0.539 14.687 1.208 21.438 6.5 C25.131 10.103 25.131 10.103 26 13 C25.67 13.99 25.34 14.98 25 16 C24.587 15.613 24.175 15.227 23.75 14.828 C16.6 8.381 9.224 5.495 0 3 C0 2.01 0 1.02 0 0 Z " fill="#0F0F10" transform="translate(765,729)"/>
<path d="M0 0 C1.675 0.286 3.344 0.618 5 1 C3.92 7.843 0.729 12.871 -4.738 17.137 C-12.186 22 -12.186 22 -16 22 C-16 21.34 -16 20.68 -16 20 C-13.953 18.668 -13.953 18.668 -11.25 17.188 C-4.494 13.242 -1.794 9.126 1 2 C0.34 1.67 -0.32 1.34 -1 1 C-0.67 0.67 -0.34 0.34 0 0 Z " fill="#1C1C1D" transform="translate(523,288)"/>
<path d="M0 0 C2 2 2 2 2.438 4.688 C1.854 9.106 0.093 11.832 -3 15 C-5.812 16.438 -5.812 16.438 -8 17 C-7.559 14.025 -6.904 12.89 -4.875 10.562 C-2.675 8.147 -2.675 8.147 -3.25 5.188 C-3.621 4.105 -3.621 4.105 -4 3 C-5.32 2.67 -6.64 2.34 -8 2 C-8 1.34 -8 0.68 -8 0 C-5.093 -1.454 -3.104 -0.711 0 0 Z " fill="#1C1C1D" transform="translate(589,223)"/>
<path d="M0 0 C0.33 0 0.66 0 1 0 C1.33 7.59 1.66 15.18 2 23 C2.495 14.09 2.495 14.09 3 5 C3.33 5 3.66 5 4 5 C4.33 14.57 4.66 24.14 5 34 C4.34 34 3.68 34 3 34 C3 33.34 3 32.68 3 32 C2.34 32 1.68 32 1 32 C-0.057 25.14 -0.116 18.432 -0.062 11.5 C-0.058 10.391 -0.053 9.283 -0.049 8.141 C-0.037 5.427 -0.021 2.714 0 0 Z " fill="#B7B8B9" transform="translate(364,557)"/>
<path d="M0 0 C0.33 0 0.66 0 1 0 C1.181 11.03 0.615 21.991 0 33 C-2 31 -2 31 -2.243 28.773 C-2.239 27.864 -2.235 26.956 -2.23 26.02 C-2.229 25.02 -2.227 24.02 -2.225 22.99 C-2.212 21.942 -2.2 20.893 -2.188 19.812 C-2.187 18.783 -2.186 17.754 -2.186 16.693 C-2.101 2.101 -2.101 2.101 0 0 Z " fill="#FEFEFE" transform="translate(367,549)"/>
<path d="M0 0 C0.33 0 0.66 0 1 0 C1 11.55 1 23.1 1 35 C0.01 34.67 -0.98 34.34 -2 34 C-1.34 22.78 -0.68 11.56 0 0 Z " fill="#7C7E81" transform="translate(520,989)"/>
<path d="M0 0 C1.072 0.66 2.145 1.32 3.25 2 C-0.171 3.14 -1.419 2.507 -4.742 1.492 C-12.368 -0.377 -19.447 1.707 -26.75 4 C-19.873 -3.285 -8.874 -4.429 0 0 Z " fill="#3B3B3C" transform="translate(455.75,223)"/>
<path d="M0 0 C0.33 0.99 0.66 1.98 1 3 C0.094 2.893 -0.812 2.786 -1.746 2.676 C-9.422 1.92 -14.893 1.937 -22 5 C-22 4.01 -22 3.02 -22 2 C-14.972 -0.791 -7.387 -2.756 0 0 Z " fill="#E8E8E9" transform="translate(453,224)"/>
<path d="M0 0 C0.99 0.66 1.98 1.32 3 2 C2.688 4.375 2.688 4.375 2 7 C-1.304 9.203 -4.195 9.932 -8 11 C-9.354 11.625 -10.699 12.272 -12 13 C-11.645 10.428 -11.196 9.203 -9.375 7.312 C-6.296 5.611 -3.475 5.334 0 5 C0 3.35 0 1.7 0 0 Z " fill="#0F0F10" transform="translate(508,264)"/>
<path d="M0 0 C-0.33 0.99 -0.66 1.98 -1 3 C-1.831 3.121 -2.663 3.242 -3.52 3.367 C-4.606 3.535 -5.693 3.702 -6.812 3.875 C-7.891 4.037 -8.97 4.2 -10.082 4.367 C-13.173 4.851 -13.173 4.851 -16 7 C-16.66 5.68 -17.32 4.36 -18 3 C-11.821 0.352 -6.648 -0.113 0 0 Z " fill="#3B3B3C" transform="translate(488,297)"/>
<path d="M0 0 C0.66 0.33 1.32 0.66 2 1 C-0.397 6.111 -3.781 8.111 -8.5 10.812 C-9.177 11.219 -9.854 11.626 -10.551 12.045 C-15.587 15 -15.587 15 -19 15 C-18.19 14.372 -18.19 14.372 -17.364 13.731 C-14.929 11.842 -12.496 9.952 -10.062 8.062 C-8.787 7.073 -8.787 7.073 -7.486 6.064 C-6.677 5.436 -5.869 4.808 -5.035 4.16 C-4.286 3.579 -3.537 2.998 -2.766 2.399 C-1.081 1.119 -1.081 1.119 0 0 Z " fill="#C4C4C5" transform="translate(754,632)"/>
<path d="M0 0 C3.96 0 7.92 0 12 0 C11.34 0.66 10.68 1.32 10 2 C7.617 1.977 7.617 1.977 4.875 1.625 C3.965 1.514 3.055 1.403 2.117 1.289 C1.419 1.194 0.72 1.098 0 1 C0 0.67 0 0.34 0 0 Z M2 2 C4.64 2 7.28 2 10 2 C10 2.66 10 3.32 10 4 C10.66 4.33 11.32 4.66 12 5 C7.05 5 2.1 5 -3 5 C-3 4.67 -3 4.34 -3 4 C-1.35 4 0.3 4 2 4 C2 3.34 2 2.68 2 2 Z " fill="#282729" transform="translate(520,254)"/>
<path d="M0 0 C-0.99 0.33 -1.98 0.66 -3 1 C0.3 1.33 3.6 1.66 7 2 C7 2.33 7 2.66 7 3 C6.094 3.049 5.188 3.098 4.254 3.148 C-2.709 3.576 -9.244 4.253 -16 6 C-13.755 3.504 -11.615 2.129 -8.562 0.75 C-7.801 0.394 -7.039 0.038 -6.254 -0.328 C-3.72 -1.083 -2.458 -0.874 0 0 Z " fill="#C4C4C5" transform="translate(468,97)"/>
<path d="M0 0 C3.389 0.689 6.18 1.987 9.25 3.562 C10.142 4.018 11.034 4.473 11.953 4.941 C12.966 5.465 12.966 5.465 14 6 C14 6.99 14 7.98 14 9 C8.618 7.452 4.063 6.063 0 2 C0 1.34 0 0.68 0 0 Z " fill="#1C1C1D" transform="translate(473,303)"/>
<path d="M0 0 C2.034 3.051 2.542 4.83 3.188 8.375 C3.367 9.311 3.546 10.247 3.73 11.211 C4.006 14.066 3.709 16.235 3 19 C0.259 16.259 0.014 14.49 -0.098 10.645 C-0.086 9.38 -0.074 8.115 -0.062 6.812 C-0.053 5.54 -0.044 4.268 -0.035 2.957 C-0.024 1.981 -0.012 1.005 0 0 Z " fill="#CECECF" transform="translate(351,576)"/>
<path d="M0 0 C0 0.66 0 1.32 0 2 C-6.285 5.328 -10.887 6.452 -18 6 C-18 5.34 -18 4.68 -18 4 C-17.013 3.795 -16.025 3.59 -15.008 3.379 C-13.726 3.109 -12.445 2.84 -11.125 2.562 C-9.849 2.296 -8.573 2.029 -7.258 1.754 C-4.669 1.155 -2.599 0 0 0 Z " fill="#4E4B50" transform="translate(514,314)"/>
<path d="M0 0 C2.13 2.13 2.476 3.041 3.188 5.875 C3.367 6.553 3.546 7.231 3.73 7.93 C4.03 10.228 3.694 11.806 3 14 C3 13.01 3 12.02 3 11 C2.34 11 1.68 11 1 11 C0.67 11.66 0.34 12.32 0 13 C-0.39 11.4 -0.762 9.794 -1.125 8.188 C-1.334 7.294 -1.543 6.401 -1.758 5.48 C-2 3 -2 3 0 0 Z " fill="#303032" transform="translate(477,248)"/>
<path d="M0 0 C0.66 0.33 1.32 0.66 2 1 C2 1.99 2 2.98 2 4 C0.038 5.711 -1.963 7.379 -4 9 C-4.33 9.66 -4.66 10.32 -5 11 C-5.66 11 -6.32 11 -7 11 C-6.585 6.157 -4.538 4.184 -1 1 C-0.67 0.67 -0.34 0.34 0 0 Z " fill="#1C1C1D" transform="translate(431,229)"/>
<path d="M0 0 C0.33 0.66 0.66 1.32 1 2 C1.99 2 2.98 2 4 2 C4 5.3 4 8.6 4 12 C3.34 12 2.68 12 2 12 C0.409 7.823 -0.213 4.468 0 0 Z " fill="#DBDBDC" transform="translate(366,589)"/>
<path d="M0 0 C0 0.99 0 1.98 0 3 C-6.27 3 -12.54 3 -19 3 C-19 2.67 -19 2.34 -19 2 C-16.396 1.664 -13.792 1.331 -11.188 1 C-10.45 0.905 -9.712 0.809 -8.951 0.711 C-5.946 0.33 -3.033 0 0 0 Z " fill="#0F0F10" transform="translate(500,296)"/>
<path d="M0 0 C2.889 0.312 4.586 0.643 6.812 2.562 C8.556 6.142 8.198 9.042 8 13 C5.32 10.32 4.885 7.588 3.879 3.996 C3.589 3.337 3.299 2.679 3 2 C2.01 1.67 1.02 1.34 0 1 C0 0.67 0 0.34 0 0 Z " fill="#1C1C1D" transform="translate(590,207)"/>
<path d="M0 0 C3 3 3 3 3.074 6.355 C2.947 7.62 2.819 8.885 2.688 10.188 C2.568 11.46 2.448 12.732 2.324 14.043 C2.217 15.019 2.11 15.995 2 17 C1.34 17 0.68 17 0 17 C0 11.39 0 5.78 0 0 Z " fill="#DBDBDC" transform="translate(349,437)"/>
<path d="M0 0 C0.392 0.639 0.784 1.279 1.188 1.938 C3.425 4.484 4.744 4.43 8 5 C9.656 6.527 9.656 6.527 11 8 C9.542 8.054 8.084 8.093 6.625 8.125 C5.813 8.148 5.001 8.171 4.164 8.195 C2 8 2 8 0 6 C-0.125 2.875 -0.125 2.875 0 0 Z " fill="#282729" transform="translate(473,272)"/>
<path d="M0 0 C-0.33 1.65 -0.66 3.3 -1 5 C-2.98 5 -4.96 5 -7 5 C-6.67 5.66 -6.34 6.32 -6 7 C-7.938 6.625 -7.938 6.625 -10 6 C-10.33 5.34 -10.66 4.68 -11 4 C-9.544 3.329 -8.085 2.663 -6.625 2 C-5.813 1.629 -5.001 1.257 -4.164 0.875 C-2 0 -2 0 0 0 Z " fill="#303032" transform="translate(530,284)"/>
<path d="M0 0 C3.653 1.25 4.781 1.671 7 5 C3.7 5 0.4 5 -3 5 C-2.67 4.01 -2.34 3.02 -2 2 C-1.34 2 -0.68 2 0 2 C0 1.34 0 0.68 0 0 Z " fill="#0F0F10" transform="translate(483,274)"/>
<path d="M0 0 C2.988 2.583 4.494 5.555 6.25 9.062 C7.062 10.658 7.062 10.658 7.891 12.285 C8.257 13.181 8.623 14.077 9 15 C8.67 15.66 8.34 16.32 8 17 C3.99 12.703 0 6.077 0 0 Z " fill="#303032" transform="translate(396,254)"/>
<path d="M0 0 C0 0.33 0 0.66 0 1 C-5.61 1.66 -11.22 2.32 -17 3 C-17.33 2.34 -17.66 1.68 -18 1 C-12.062 -3.289 -6.664 -1.499 0 0 Z " fill="#DBDBDC" transform="translate(384,758)"/>
<path d="M0 0 C0.66 0.33 1.32 0.66 2 1 C2 1.99 2 2.98 2 4 C0.25 5.605 0.25 5.605 -2 7.188 C-2.743 7.717 -3.485 8.247 -4.25 8.793 C-4.827 9.191 -5.405 9.59 -6 10 C-5.586 5.167 -3.536 3.173 0 0 Z " fill="#1C1C1D" transform="translate(512,215)"/>
<path d="M0 0 C0 3.606 -0.817 4.413 -3 7.188 C-3.557 7.903 -4.114 8.618 -4.688 9.355 C-5.121 9.898 -5.554 10.441 -6 11 C-7.32 10.67 -8.64 10.34 -10 10 C-6.7 6.7 -3.4 3.4 0 0 Z " fill="#C4C4C5" transform="translate(410,122)"/>
<path d="M0 0 C3.63 0 7.26 0 11 0 C10.67 0.66 10.34 1.32 10 2 C7.715 2.414 7.715 2.414 4.938 2.625 C4.018 2.7 3.099 2.775 2.152 2.852 C1.442 2.901 0.732 2.95 0 3 C0 2.01 0 1.02 0 0 Z " fill="#C4C4C5" transform="translate(393,641)"/>
<path d="M0 0 C0.66 0.33 1.32 0.66 2 1 C2.414 3.066 2.414 3.066 2.625 5.562 C2.7 6.389 2.775 7.215 2.852 8.066 C2.925 9.024 2.925 9.024 3 10 C2.01 10.495 2.01 10.495 1 11 C0.639 9.356 0.286 7.709 -0.062 6.062 C-0.26 5.146 -0.457 4.229 -0.66 3.285 C-0.772 2.531 -0.884 1.777 -1 1 C-0.67 0.67 -0.34 0.34 0 0 Z " fill="#E8E8E9" transform="translate(354,594)"/>
<path d="M0 0 C3.189 1.595 3.874 4.525 5.246 7.699 C6.154 10.47 6.052 12.282 5 15 C3.268 11.838 2.287 8.733 1.375 5.25 C1.115 4.265 0.854 3.28 0.586 2.266 C0.393 1.518 0.199 0.77 0 0 Z " fill="#B7B8B9" transform="translate(404,242)"/>
<path d="M0 0 C-0.33 0.99 -0.66 1.98 -1 3 C-3.31 3.33 -5.62 3.66 -8 4 C-8 3.01 -8 2.02 -8 1 C-5.072 0.024 -3.044 -0.082 0 0 Z " fill="#303032" transform="translate(536,558)"/>
<path d="M0 0 C0.66 0 1.32 0 2 0 C2.125 3.375 2.125 3.375 2 7 C1.34 7.66 0.68 8.32 0 9 C-0.66 9 -1.32 9 -2 9 C-1.34 6.03 -0.68 3.06 0 0 Z " fill="#C4C4C5" transform="translate(570,446)"/>
<path d="M0 0 C-1 2 -1 2 -2.742 2.703 C-3.446 2.884 -4.15 3.064 -4.875 3.25 C-5.574 3.441 -6.272 3.632 -6.992 3.828 C-9 4 -9 4 -12 2 C-7.823 0.409 -4.468 -0.213 0 0 Z " fill="#282729" transform="translate(521,289)"/>
<path d="M0 0 C0.66 0.66 1.32 1.32 2 2 C1.758 5.258 1.758 5.258 1.125 9.125 C0.921 10.406 0.718 11.688 0.508 13.008 C0.34 13.995 0.173 14.983 0 16 C-0.33 16 -0.66 16 -1 16 C-1.027 13.521 -1.047 11.042 -1.062 8.562 C-1.075 7.502 -1.075 7.502 -1.088 6.42 C-1.097 4.613 -1.052 2.806 -1 1 C-0.67 0.67 -0.34 0.34 0 0 Z " fill="#FEFEFE" transform="translate(500,953)"/>
<path d="M0 0 C0.33 0 0.66 0 1 0 C2.129 5.361 2.097 10.553 2 16 C1.67 16 1.34 16 1 16 C0.783 14.639 0.783 14.639 0.562 13.25 C0.104 10.181 0.104 10.181 -0.625 8 C-1.152 5.189 -0.568 2.776 0 0 Z " fill="#C4C4C5" transform="translate(512,547)"/>
<path d="M0 0 C0 3 0 3 -1.312 4.387 C-2.875 5.591 -4.438 6.796 -6 8 C-6.33 6.68 -6.66 5.36 -7 4 C-4.69 2.68 -2.38 1.36 0 0 Z " fill="#DBDBDC" transform="translate(419,872)"/>
<path d="M0 0 C0.66 0.99 1.32 1.98 2 3 C-0.64 4.65 -3.28 6.3 -6 8 C-6.33 7.34 -6.66 6.68 -7 6 C-4.69 4.02 -2.38 2.04 0 0 Z " fill="#1C1C1D" transform="translate(564,465)"/>
<path d="M0 0 C0.66 0 1.32 0 2 0 C2.66 2.31 3.32 4.62 4 7 C3.01 7.495 3.01 7.495 2 8 C1.34 7.67 0.68 7.34 0 7 C0 4.69 0 2.38 0 0 Z " fill="#CECECF" transform="translate(416,336)"/>
<path d="M0 0 C0.99 0.66 1.98 1.32 3 2 C2.625 4.438 2.625 4.438 2 7 C-1.069 8.534 -3.701 7.55 -7 7 C-7 6.67 -7 6.34 -7 6 C-3.535 5.505 -3.535 5.505 0 5 C0 3.35 0 1.7 0 0 Z " fill="#4E4B50" transform="translate(508,264)"/>
<path d="M0 0 C0.66 0 1.32 0 2 0 C2.33 2.97 2.66 5.94 3 9 C2.01 9.495 2.01 9.495 1 10 C0.67 6.7 0.34 3.4 0 0 Z " fill="#040404" transform="translate(478,259)"/>
<path d="M0 0 C-4.625 4.875 -4.625 4.875 -8 6 C-6.538 1.37 -6.538 1.37 -4 -0.375 C-2 -1 -2 -1 0 0 Z " fill="#E8E8E9" transform="translate(519,210)"/>
<path d="M0 0 C1.675 0.286 3.344 0.618 5 1 C4.688 2.938 4.688 2.938 4 5 C3.01 5.33 2.02 5.66 1 6 C1 4.68 1 3.36 1 2 C0.34 1.67 -0.32 1.34 -1 1 C-0.67 0.67 -0.34 0.34 0 0 Z " fill="#0F0F10" transform="translate(523,288)"/>
<path d="M0 0 C-4.393 3.051 -4.393 3.051 -7.25 2.812 C-9 2 -9 2 -10 0 C-2.25 -1.125 -2.25 -1.125 0 0 Z " fill="#F5F5F5" transform="translate(517,962)"/>
<path d="M0 0 C0.33 0.99 0.66 1.98 1 3 C-0.98 3.66 -2.96 4.32 -5 5 C-5.33 4.01 -5.66 3.02 -6 2 C-4.02 1.34 -2.04 0.68 0 0 Z " fill="#303032" transform="translate(545,508)"/>
<path d="M0 0 C0.33 0.66 0.66 1.32 1 2 C-0.65 4.31 -2.3 6.62 -4 9 C-5 7 -5 7 -4.25 4.5 C-3 2 -3 2 0 0 Z " fill="#303032" transform="translate(265,788)"/>
<path d="M0 0 C0.66 0.33 1.32 0.66 2 1 C0.35 3.64 -1.3 6.28 -3 9 C-3.66 8.67 -4.32 8.34 -5 8 C-3.628 5.046 -2.011 2.56 0 0 Z " fill="#C4C4C5" transform="translate(399,470)"/>
<path d="M0 0 C1.114 0.598 2.227 1.196 3.375 1.812 C4.001 2.149 4.628 2.485 5.273 2.832 C7 4 7 4 9 7 C4.684 7 3.072 4.867 0 2 C0 1.34 0 0.68 0 0 Z " fill="#B7B8B9" transform="translate(534,137)"/>
<path d="M0 0 C2.31 0.33 4.62 0.66 7 1 C7 2.32 7 3.64 7 5 C3.535 3.02 3.535 3.02 0 1 C0 0.67 0 0.34 0 0 Z " fill="#C4C4C5" transform="translate(519,115)"/>
<path d="M0 0 C0.66 0.33 1.32 0.66 2 1 C2 1.66 2 2.32 2 3 C0.02 3.66 -1.96 4.32 -4 5 C-4 4.01 -4 3.02 -4 2 C-2.125 0.938 -2.125 0.938 0 0 Z " fill="#DBDBDC" transform="translate(435,224)"/>
<path d="M0 0 C3.125 0.75 3.125 0.75 6 2 C6.33 2.66 6.66 3.32 7 4 C3.7 3.34 0.4 2.68 -3 2 C-2.01 1.34 -1.02 0.68 0 0 Z " fill="#4E4B50" transform="translate(452,222)"/>
<path d="M0 0 C2.375 0.312 2.375 0.312 5 1 C5.66 1.99 6.32 2.98 7 4 C5.68 4 4.36 4 3 4 C3 3.34 3 2.68 3 2 C2.01 1.67 1.02 1.34 0 1 C0 0.67 0 0.34 0 0 Z " fill="#303032" transform="translate(590,207)"/>
<path d="M0 0 C3.356 0.599 5.378 1.846 8 4 C7.67 4.99 7.34 5.98 7 7 C5.83 6.024 4.664 5.044 3.5 4.062 C2.85 3.517 2.201 2.972 1.531 2.41 C1.026 1.945 0.521 1.479 0 1 C0 0.67 0 0.34 0 0 Z " fill="#AAADAF" transform="translate(487,88)"/>
</svg>