<svg version="1.1" xmlns="http://www.w3.org/2000/svg" width="1024" height="1024">
<path d="M0 0 C337.92 0 675.84 0 1024 0 C1024 337.92 1024 675.84 1024 1024 C686.08 1024 348.16 1024 0 1024 C0 686.08 0 348.16 0 0 Z " fill="#FEFEFE" transform="translate(0,0)"/>
<path d="M0 0 C1.895 0.773 1.895 0.773 3.895 2.773 C4.086 5.714 4.151 8.559 4.129 11.5 C4.13 12.417 4.13 13.334 4.132 14.279 C4.132 17.38 4.119 20.481 4.105 23.582 C4.103 25.805 4.101 28.028 4.1 30.25 C4.095 36.355 4.078 42.46 4.058 48.565 C4.039 55.1 4.031 61.635 4.022 68.17 C3.998 82.908 3.957 97.645 3.913 112.383 C3.893 119.33 3.875 126.277 3.857 133.224 C3.762 170.583 3.633 207.941 3.491 245.299 C3.459 253.595 3.428 261.891 3.398 270.187 C3.09 353.128 2.767 436.07 1.609 590.02 C1.599 591.048 1.588 592.077 1.577 593.137 C1.384 611.35 1.135 629.561 0.895 647.773 C25.975 647.773 51.055 647.773 76.895 647.773 C77.225 648.763 77.555 649.753 77.895 650.773 C74.957 652.242 72.001 651.904 68.783 651.887 C67.685 651.887 67.685 651.887 66.565 651.887 C64.141 651.887 61.717 651.879 59.293 651.871 C57.614 651.869 55.936 651.868 54.257 651.867 C49.835 651.863 45.412 651.853 40.99 651.842 C36.479 651.832 31.968 651.827 27.457 651.822 C18.603 651.812 9.749 651.794 0.895 651.773 C0.905 652.879 0.915 653.984 0.926 655.122 C0.962 659.22 0.985 663.319 1.004 667.417 C1.014 669.191 1.028 670.965 1.045 672.739 C1.07 675.288 1.081 677.837 1.09 680.387 C1.1 681.181 1.11 681.974 1.121 682.792 C1.122 686.656 1.089 688.482 -1.105 691.773 C-5.042 692.281 -7.304 692.255 -10.738 690.191 C-11.972 689.087 -11.972 689.087 -13.23 687.961 C-14.171 687.14 -15.112 686.319 -16.082 685.473 C-16.573 685.032 -17.065 684.592 -17.571 684.138 C-20.204 681.796 -22.91 679.542 -25.605 677.273 C-26.708 676.337 -27.811 675.401 -28.914 674.465 C-32.65 671.303 -36.417 668.184 -40.281 665.179 C-43.105 662.773 -43.105 662.773 -45.174 660.195 C-51.021 653.634 -56.361 652.15 -65.074 651.649 C-71.315 651.484 -77.543 651.483 -83.785 651.558 C-87.564 651.592 -91.344 651.57 -95.123 651.554 C-102.263 651.532 -109.402 651.561 -116.542 651.608 C-124.677 651.659 -132.813 651.654 -140.948 651.643 C-157.668 651.624 -174.386 651.675 -191.105 651.773 C-187.204 655.805 -185.427 656.82 -179.855 657.086 C-174.271 657.533 -171.102 658.777 -167.105 662.773 C-167.312 666.417 -167.563 668.992 -169.668 672.023 C-174.509 675.499 -179.203 676.811 -185.043 677.211 C-188.724 677.469 -191.313 678.175 -194.605 679.836 C-199.394 682.145 -203.856 682.864 -209.105 681.773 C-211.93 679.583 -213.521 677.943 -215.105 674.773 C-215.256 672.965 -215.327 671.15 -215.355 669.336 C-215.394 667.884 -215.394 667.884 -215.434 666.402 C-214.983 661.422 -213.421 656.598 -212.105 651.773 C-222.005 651.773 -231.905 651.773 -242.105 651.773 C-241.631 654.537 -241.157 657.301 -240.668 660.148 C-240.52 661.018 -240.373 661.887 -240.221 662.783 C-239.561 666.898 -239.561 666.898 -238.105 670.773 C-237.332 677.599 -238.051 683.129 -242.105 688.773 C-246.336 692.702 -249.104 694.153 -254.953 694.047 C-260.987 693.28 -265.189 689.252 -268.816 684.684 C-275.807 674.324 -272.936 663.674 -271.105 651.773 C-321.595 651.773 -372.085 651.773 -424.105 651.773 C-424.435 650.453 -424.765 649.133 -425.105 647.773 C-404.315 647.773 -383.525 647.773 -362.105 647.773 C-362.108 642.428 -362.11 637.083 -362.112 631.576 C-362.132 582.266 -362.147 532.956 -362.157 483.646 C-362.158 477.149 -362.159 470.652 -362.16 464.155 C-362.161 462.862 -362.161 461.569 -362.161 460.237 C-362.166 439.451 -362.173 418.666 -362.183 397.88 C-362.192 376.464 -362.198 355.048 -362.2 333.632 C-362.201 321.64 -362.204 309.648 -362.211 297.656 C-362.263 211.115 -362.263 211.115 -361.693 173.604 C-361.662 171.543 -361.632 169.482 -361.603 167.422 C-361.548 163.741 -361.485 160.061 -361.418 156.381 C-361.402 155.316 -361.386 154.251 -361.369 153.153 C-361.349 152.197 -361.329 151.241 -361.309 150.256 C-361.294 149.431 -361.279 148.607 -361.263 147.757 C-361.105 145.773 -361.105 145.773 -360.105 143.773 C-358.785 144.103 -357.465 144.433 -356.105 144.773 C-356.105 310.433 -356.105 476.093 -356.105 646.773 C-328.385 646.773 -300.665 646.773 -272.105 646.773 C-272.105 642.483 -272.105 638.193 -272.105 633.773 C-271.206 630.268 -270.3 627.124 -269.043 623.773 C-266.203 616.885 -266.203 616.885 -267.105 609.773 C-267.864 608.935 -267.864 608.935 -268.637 608.079 C-270.679 604.873 -270.478 602.474 -270.469 598.691 C-270.469 597.655 -270.469 597.655 -270.47 596.597 C-270.468 595.13 -270.458 593.663 -270.442 592.197 C-270.418 590.006 -270.421 587.817 -270.428 585.627 C-270.409 576.182 -269.592 567.114 -268.105 557.773 C-267.985 556.972 -267.865 556.17 -267.741 555.344 C-265.989 544.037 -263.609 531.909 -257.293 522.211 C-254.305 517.34 -254.798 512.568 -255.125 507.008 C-255.105 503.692 -254.388 501.777 -253.105 498.773 C-253.394 497.907 -253.683 497.041 -253.98 496.148 C-255.83 490.6 -255.962 484.343 -254.105 478.773 C-253.595 470.742 -254.399 463.084 -255.66 455.164 C-256.296 450.325 -256.237 445.648 -256.105 440.773 C-260.725 440.773 -265.345 440.773 -270.105 440.773 C-270.539 439.062 -270.972 437.35 -271.418 435.586 C-272.508 431.559 -273.63 428.191 -276.105 424.773 C-275.775 425.537 -275.445 426.3 -275.105 427.086 C-274.105 429.773 -274.105 429.773 -274.105 432.773 C-274.765 432.773 -275.425 432.773 -276.105 432.773 C-276.188 433.392 -276.27 434.011 -276.355 434.648 C-277.105 436.773 -277.105 436.773 -278.918 438.086 C-281.638 438.941 -282.526 439.024 -285.105 437.773 C-290.511 431.99 -291.491 428.016 -291.473 420.324 C-290.91 414.882 -289.101 410.026 -287.199 404.926 C-285.942 401.857 -285.942 401.857 -286.105 398.773 C-287.902 397.669 -287.902 397.669 -290.105 396.711 C-292.219 395.455 -292.219 395.455 -294.105 393.773 C-295.862 386.547 -293.043 378.618 -291.043 371.711 C-290.57 370.021 -290.57 370.021 -290.088 368.296 C-289.43 365.948 -288.767 363.601 -288.098 361.256 C-287.149 357.927 -286.218 354.594 -285.293 351.258 C-280.492 333.973 -280.492 333.973 -278.613 327.91 C-274.418 314.195 -271.607 300.245 -268.821 286.189 C-268.655 285.358 -268.49 284.527 -268.32 283.671 C-268.01 282.107 -267.702 280.542 -267.399 278.976 C-266.514 274.499 -265.393 270.156 -264.105 265.773 C-263.716 263.78 -263.36 261.78 -263.043 259.773 C-262.879 258.747 -262.716 257.721 -262.547 256.664 C-262.044 253.37 -261.556 250.075 -261.105 246.773 C-261.72 246.338 -262.335 245.902 -262.969 245.453 C-271.635 239.068 -271.635 239.068 -273.105 233.773 C-274.315 223.405 -272.426 216.445 -266.156 208.215 C-262.286 203.65 -258.258 200.015 -253.355 196.586 C-247.04 192.152 -243.485 188.559 -241.855 180.898 C-241.235 176.795 -240.992 172.732 -240.822 168.593 C-240.468 160.114 -239.215 152.76 -236.105 144.773 C-235.83 144.039 -235.554 143.304 -235.27 142.547 C-231.611 134.122 -224.578 126.65 -216.391 122.535 C-212.523 121.246 -209.147 121.453 -205.105 121.773 C-204.775 122.763 -204.445 123.753 -204.105 124.773 C-204.662 124.86 -205.219 124.946 -205.793 125.035 C-214.589 126.655 -220.816 130.496 -226.504 137.418 C-232.964 146.919 -234.555 157.546 -235.559 168.73 C-235.68 170.053 -235.68 170.053 -235.804 171.402 C-235.96 173.153 -236.103 174.904 -236.233 176.656 C-237.082 186.584 -240.869 192.917 -248.105 199.773 C-250.849 201.824 -253.654 203.764 -256.473 205.711 C-260.454 208.83 -263.283 212.611 -266.105 216.773 C-265.146 215.783 -265.146 215.783 -264.168 214.773 C-258.924 209.544 -253.409 204.69 -247.418 200.336 C-240.872 195.312 -236.637 188.933 -235.105 180.773 C-234.713 176.738 -234.516 172.696 -234.293 168.648 C-233.644 159.165 -232.7 151.234 -228.105 142.773 C-227.662 141.929 -227.219 141.085 -226.762 140.215 C-223.23 134.24 -218.081 129.277 -211.29 127.225 C-208.838 126.718 -206.509 126.561 -204.008 126.457 C-203.042 126.415 -202.076 126.373 -201.08 126.33 C-200.078 126.291 -199.076 126.251 -198.043 126.211 C-197.037 126.168 -196.031 126.125 -194.994 126.08 C-187.708 125.773 -187.708 125.773 -184.105 125.773 C-186.938 124.357 -189.58 124.427 -192.73 124.211 C-194.513 124.085 -194.513 124.085 -196.332 123.957 C-197.247 123.896 -198.163 123.836 -199.105 123.773 C-197.526 121.149 -196.754 119.937 -193.723 119.172 C-187.169 119.116 -183.434 120.209 -178.234 124.199 C-176.157 125.736 -174.222 126.698 -171.855 127.711 C-167.608 129.792 -164.911 132.351 -163.105 136.773 C-162.557 140.196 -162.421 143.368 -163.105 146.773 C-164.088 148.12 -165.086 149.455 -166.105 150.773 C-165.545 153.263 -165.545 153.263 -164.105 155.773 C-161.105 161.658 -161.105 161.658 -161.105 163.773 C-159.785 163.773 -158.465 163.773 -157.105 163.773 C-157.105 165.093 -157.105 166.413 -157.105 167.773 C-158.095 167.773 -159.085 167.773 -160.105 167.773 C-160.082 168.81 -160.059 169.846 -160.035 170.914 C-160.016 172.284 -159.998 173.654 -159.98 175.023 C-159.964 175.705 -159.947 176.387 -159.93 177.09 C-159.893 180.834 -160.026 183.597 -162.105 186.773 C-161.56 186.886 -161.015 186.998 -160.453 187.113 C-152.48 189.198 -147.045 194.085 -142.688 201.035 C-139.279 207.691 -138.326 213.383 -139.105 220.773 C-140.037 223.267 -141.106 225.493 -142.426 227.801 C-143.327 229.748 -143.327 229.748 -142.457 231.578 C-142.011 232.303 -141.565 233.027 -141.105 233.773 C-135.445 244.52 -130.824 255.206 -127.105 266.773 C-126.57 268.438 -126.57 268.438 -126.023 270.137 C-124.562 274.812 -123.18 279.509 -121.82 284.215 C-121.598 284.981 -121.376 285.746 -121.147 286.535 C-120.712 288.035 -120.282 289.537 -119.855 291.039 C-118.457 296.112 -118.457 296.112 -116.105 300.773 C-114.122 301.806 -112.122 302.807 -110.105 303.773 C-108.105 306.773 -108.105 306.773 -107.305 310.121 C-105.902 314.394 -104.192 316.172 -100.918 319.211 C-96.371 323.535 -92.182 328.008 -88.105 332.773 C-82.68 339.025 -77.008 344.973 -71.168 350.836 C-70.505 351.504 -69.842 352.172 -69.158 352.86 C-68.534 353.482 -67.909 354.105 -67.266 354.746 C-66.705 355.306 -66.144 355.865 -65.567 356.442 C-64.125 357.877 -64.125 357.877 -62.105 358.773 C-62.116 357.822 -62.116 357.822 -62.126 356.851 C-62.53 319.198 -62.838 281.546 -63.025 243.891 C-63.047 239.363 -63.07 234.835 -63.094 230.307 C-63.101 228.954 -63.101 228.954 -63.109 227.575 C-63.187 213.008 -63.329 198.442 -63.494 183.875 C-63.663 168.912 -63.763 153.949 -63.799 138.984 C-63.824 129.76 -63.901 120.54 -64.048 111.318 C-64.144 104.981 -64.172 98.645 -64.148 92.307 C-64.137 88.657 -64.154 85.013 -64.251 81.364 C-64.861 57.332 -64.861 57.332 -55.914 47.662 C-52.874 44.771 -49.738 42.101 -46.411 39.548 C-41.151 35.499 -36.226 31.036 -31.605 26.273 C-28.245 22.867 -24.772 19.698 -21.137 16.59 C-18.858 14.553 -16.739 12.399 -14.605 10.211 C-4.034 -0.434 -4.034 -0.434 0 0 Z " fill="#050505" transform="translate(678.10546875,139.2265625)"/>
<path d="M0 0 C0.66 0 1.32 0 2 0 C2.123 37.424 2.025 74.841 1.633 112.263 C1.188 154.653 0.877 197.043 0.703 239.435 C0.698 240.672 0.693 241.909 0.687 243.183 C0.624 258.634 0.566 274.084 0.509 289.534 C0.474 299.054 0.438 308.574 0.401 318.094 C0.398 318.784 0.395 319.474 0.393 320.185 C0.379 323.693 0.365 327.2 0.351 330.708 C0.255 355.156 0.162 379.604 0.07 404.052 C-0.019 427.711 -0.109 451.369 -0.2 475.028 C-0.203 475.765 -0.206 476.502 -0.209 477.262 C-0.238 484.671 -0.267 492.079 -0.295 499.488 C-0.354 514.562 -0.412 529.636 -0.47 544.71 C-0.473 545.402 -0.476 546.094 -0.478 546.807 C-0.655 592.538 -0.828 638.269 -1 684 C-1.475 683.592 -1.95 683.184 -2.439 682.764 C-3.065 682.226 -3.691 681.689 -4.335 681.135 C-4.955 680.604 -5.574 680.072 -6.212 679.524 C-8.488 677.584 -10.802 675.695 -13.125 673.812 C-17.851 669.96 -22.514 666.04 -27.158 662.089 C-30.61 659.158 -34.102 656.283 -37.625 653.438 C-38.862 652.386 -38.862 652.386 -40.124 651.313 C-42.912 648.966 -42.912 648.966 -45.887 647.255 C-50.139 644.329 -53.295 641.683 -54.623 636.628 C-55.66 629.157 -55.377 621.611 -55.249 614.089 C-55.246 611.536 -55.247 608.983 -55.254 606.43 C-55.256 600.945 -55.225 595.462 -55.163 589.977 C-55.073 582.048 -55.045 574.119 -55.031 566.189 C-55.007 553.322 -54.934 540.456 -54.83 527.589 C-54.729 515.095 -54.651 502.602 -54.604 490.107 C-54.601 489.336 -54.598 488.565 -54.595 487.771 C-54.581 483.903 -54.567 480.035 -54.554 476.167 C-54.44 444.11 -54.243 412.055 -54 380 C-47.07 380 -40.14 380 -33 380 C-32.67 379.01 -32.34 378.02 -32 377 C-33.476 374.049 -35.501 373.931 -38.562 372.875 C-39.574 372.522 -40.586 372.169 -41.629 371.805 C-42.411 371.539 -43.194 371.274 -44 371 C-44 371.99 -44 372.98 -44 374 C-43.051 374.289 -42.102 374.577 -41.125 374.875 C-38 376 -38 376 -36 378 C-41.75 378.125 -41.75 378.125 -44 377 C-50.386 376.59 -56.671 377.183 -63 378 C-63 373.844 -62.831 373.361 -60.562 370.25 C-57.45 365.556 -57 361.613 -57 356 C-55.35 356 -53.7 356 -52 356 C-52.495 354.515 -52.495 354.515 -53 353 C-53.33 353 -53.66 353 -54 353 C-54.183 314.774 -54.324 276.547 -54.409 238.321 C-54.419 233.808 -54.429 229.296 -54.439 224.783 C-54.442 223.885 -54.444 222.987 -54.446 222.061 C-54.481 207.513 -54.544 192.965 -54.617 178.417 C-54.692 163.49 -54.736 148.564 -54.753 133.638 C-54.764 124.426 -54.798 115.215 -54.863 106.004 C-54.906 99.688 -54.918 93.373 -54.908 87.057 C-54.903 83.413 -54.911 79.769 -54.954 76.124 C-55 72.172 -54.984 68.221 -54.962 64.269 C-54.985 63.118 -55.009 61.967 -55.033 60.782 C-54.918 53.167 -54.918 53.167 -52.272 49.805 C-50.261 48.037 -48.196 46.527 -46 45 C-44.863 43.93 -43.744 42.839 -42.656 41.719 C-42.137 41.191 -41.617 40.663 -41.082 40.119 C-40.56 39.584 -40.038 39.05 -39.5 38.5 C-35.472 34.421 -31.397 30.514 -27.023 26.805 C-23.906 24.025 -21.007 21.03 -18.077 18.055 C-14.784 14.731 -11.351 11.661 -7.785 8.637 C-5.336 6.391 -3.279 3.893 -1.227 1.285 C-0.822 0.861 -0.417 0.437 0 0 Z " fill="#FEFEFE" transform="translate(675,144)"/>
<path d="M0 0 C3.634 3.486 6.748 7.141 9.75 11.188 C14.203 17.084 18.995 22.562 24 28 C25.13 29.288 26.255 30.579 27.375 31.875 C31.708 36.84 36.146 41.703 40.642 46.521 C41.93 47.924 43.179 49.364 44.426 50.805 C48.115 55.08 48.115 55.08 53.02 57.574 C58.346 57.375 62.031 54.044 65.922 50.691 C69.555 47.734 69.555 47.734 72 47 C74.346 47.619 76.682 48.283 79 49 C79.002 49.547 79.003 50.094 79.005 50.657 C79.108 83.049 79.216 115.44 79.331 147.832 C79.345 151.719 79.359 155.605 79.372 159.492 C79.375 160.266 79.378 161.04 79.381 161.837 C79.425 174.377 79.465 186.916 79.505 199.456 C79.545 212.317 79.589 225.178 79.637 238.038 C79.666 245.978 79.693 253.918 79.715 261.858 C79.733 267.94 79.756 274.021 79.78 280.103 C79.79 282.603 79.798 285.102 79.803 287.602 C79.812 291.004 79.826 294.405 79.842 297.807 C79.843 298.806 79.844 299.805 79.845 300.834 C79.85 301.742 79.856 302.65 79.861 303.586 C79.864 304.372 79.867 305.157 79.869 305.967 C79.926 308.204 79.926 308.204 81 311 C37.77 311 -5.46 311 -50 311 C-49.67 309.02 -49.34 307.04 -49 305 C-48.897 304.257 -48.794 303.515 -48.688 302.75 C-48.347 301.884 -48.347 301.884 -48 301 C-47.383 300.807 -46.765 300.613 -46.129 300.414 C-42.673 298.119 -42.252 294.451 -41.25 290.625 C-40.881 289.275 -40.881 289.275 -40.504 287.898 C-34.839 266.589 -30.286 244.862 -26.406 223.161 C-26.126 221.672 -25.824 220.187 -25.504 218.706 C-23.992 211.677 -23.297 204.652 -22.625 197.5 C-21.503 186.414 -19.886 175.759 -17 165 C-16.71 163.916 -16.71 163.916 -16.414 162.81 C-15.396 159.051 -14.349 155.301 -13.285 151.555 C-9.102 136.808 -5.484 121.925 -2 107 C-1.024 106.974 -0.048 106.948 0.957 106.922 C2.229 106.865 3.502 106.808 4.812 106.75 C6.077 106.704 7.342 106.657 8.645 106.609 C11.948 106.275 11.948 106.275 13.922 104.52 C15.568 100.674 15.485 97.082 15.438 92.938 C15.433 92.032 15.428 91.127 15.423 90.194 C15.123 75.698 12.797 60.951 9.375 46.868 C8.846 44.231 8.863 41.678 9 39 C11.64 38.34 14.28 37.68 17 37 C16.783 35.113 16.783 35.113 16.562 33.188 C16.481 32.48 16.4 31.772 16.316 31.043 C16.028 28.806 16.028 28.806 15 26 C11.7 26 8.4 26 5 26 C4.349 23.168 3.704 20.334 3.062 17.5 C2.789 16.313 2.789 16.313 2.51 15.102 C1.377 10.076 0.558 5.122 0 0 Z " fill="#FEFEFE" transform="translate(537,476)"/>
<path d="M0 0 C0.66 0 1.32 0 2 0 C3.11 4.747 2.772 7.709 1.25 12.312 C-0.859 19.186 -2.176 26.011 -3.344 33.098 C-3.858 36.158 -4.449 39.161 -5.125 42.188 C-6.198 47.351 -6.465 52.543 -6.754 57.801 C-7 61 -7 61 -7.505 63.392 C-7.994 65.966 -8.14 68.31 -8.161 70.926 C-8.171 71.877 -8.18 72.828 -8.19 73.808 C-8.194 74.823 -8.199 75.837 -8.203 76.883 C-8.212 78.46 -8.212 78.46 -8.22 80.068 C-8.23 82.286 -8.236 84.503 -8.24 86.72 C-8.25 90.12 -8.281 93.519 -8.312 96.918 C-8.319 99.073 -8.324 101.228 -8.328 103.383 C-8.34 104.402 -8.353 105.42 -8.366 106.47 C-8.363 107.415 -8.36 108.359 -8.356 109.333 C-8.36 110.163 -8.364 110.994 -8.367 111.851 C-7.913 114.506 -7.083 115.348 -5 117 C-4.34 117.33 -3.68 117.66 -3 118 C-2.902 124.152 -2.902 124.152 -3 126 C-4 127 -4 127 -6.959 127.114 C-8.253 127.108 -9.546 127.103 -10.879 127.098 C-11.909 127.096 -11.909 127.096 -12.96 127.093 C-15.161 127.088 -17.362 127.075 -19.562 127.062 C-21.051 127.057 -22.54 127.053 -24.029 127.049 C-27.686 127.038 -31.343 127.021 -35 127 C-36.184 120.588 -36.297 114.318 -36.375 107.812 C-36.431 106.031 -36.431 106.031 -36.488 104.213 C-36.5 103.077 -36.511 101.94 -36.523 100.77 C-36.553 99.216 -36.553 99.216 -36.583 97.632 C-36.391 96.763 -36.198 95.895 -36 95 C-34.348 93.976 -32.68 92.978 -31 92 C-29.548 89.205 -29.548 89.205 -28.641 85.875 C-28.251 84.623 -27.862 83.372 -27.461 82.082 C-27.057 80.722 -26.654 79.361 -26.25 78 C-25.822 76.607 -25.391 75.214 -24.959 73.822 C-24.071 70.962 -23.19 68.101 -22.314 65.238 C-20.335 58.811 -18.2 52.438 -16.062 46.062 C-15.697 44.964 -15.332 43.865 -14.956 42.732 C-13.079 37.108 -11.099 31.545 -9 26 C-8.321 24.004 -7.654 22.004 -7 20 C-5.444 15.284 -3.761 10.643 -2 6 C-1.323 4.004 -0.652 2.005 0 0 Z " fill="#FEFEFE" transform="translate(471,660)"/>
<path d="M0 0 C0.812 1.688 0.812 1.688 1 4 C-1.161 6.512 -3.02 8.51 -6 10 C-0.72 10.33 4.56 10.66 10 11 C10.495 13.475 10.495 13.475 11 16 C11.99 16.33 12.98 16.66 14 17 C13.812 19.812 13.812 19.812 13 23 C7.071 27.776 -0.454 27.256 -7.723 27.621 C-10.706 27.966 -12.477 28.446 -15 30 C-15 30.99 -15 31.98 -15 33 C-13.577 33.433 -13.577 33.433 -12.125 33.875 C-9 35 -9 35 -7 37 C-12.75 37.125 -12.75 37.125 -15 36 C-21.386 35.59 -27.671 36.183 -34 37 C-34 32.844 -33.831 32.361 -31.562 29.25 C-28.45 24.556 -28 20.613 -28 15 C-26.35 15 -24.7 15 -23 15 C-22.978 14.273 -22.956 13.546 -22.934 12.797 C-21.573 8.721 -18.595 7.329 -15.062 5.25 C-14.416 4.852 -13.77 4.453 -13.104 4.043 C-8.229 1.056 -5.717 -0.124 0 0 Z " fill="#1B1B1B" transform="translate(646,485)"/>
<path d="M0 0 C4.29 0 8.58 0 13 0 C13.392 0.928 13.784 1.856 14.188 2.812 C16.22 6.386 17.342 7.268 21 9 C24.397 9.386 27.72 9.438 31.137 9.496 C32.082 9.662 33.026 9.829 34 10 C35.395 12.035 35.395 12.035 36 14 C30.815 18.23 28.027 19.12 21.438 19.375 C15.793 19.64 11.065 20.353 5.766 22.426 C3.229 23.251 1.453 22.966 -1 22 C-3 20 -3 20 -3.312 16.625 C-3.196 10.887 -1.502 5.506 0 0 Z " fill="#FEFEFE" transform="translate(470,791)"/>
<path d="M0 0 C0.66 0.33 1.32 0.66 2 1 C1.29 1.471 0.579 1.941 -0.152 2.426 C-1.071 3.048 -1.991 3.671 -2.938 4.312 C-3.854 4.927 -4.771 5.542 -5.715 6.176 C-8.258 7.866 -8.258 7.866 -9 11 C-3.72 11 1.56 11 7 11 C7 11.33 7 11.66 7 12 C0.565 12.495 0.565 12.495 -6 13 C-6 13.66 -6 14.32 -6 15 C0.93 15.33 7.86 15.66 15 16 C14.67 16.66 14.34 17.32 14 18 C11.631 18.207 9.253 18.315 6.875 18.375 C0.891 18.642 -3.276 19.155 -8 23 C-8.66 24.32 -9.32 25.64 -10 27 C-7.03 28.65 -4.06 30.3 -1 32 C-1 32.33 -1 32.66 -1 33 C-6.75 33.125 -6.75 33.125 -9 32 C-15.386 31.59 -21.671 32.183 -28 33 C-28 28.844 -27.831 28.361 -25.562 25.25 C-22.45 20.556 -22 16.613 -22 11 C-21.371 10.853 -20.742 10.706 -20.094 10.555 C-14.401 9.063 -10.309 7.182 -5.789 3.402 C-3.92 1.938 -2.207 0.877 0 0 Z " fill="#F1F1F1" transform="translate(640,489)"/>
<path d="M0 0 C-0.33 0.33 -0.66 0.66 -1 1 C-0.192 1.037 0.616 1.075 1.449 1.113 C3.052 1.212 3.052 1.212 4.688 1.312 C6.271 1.4 6.271 1.4 7.887 1.488 C11.23 2.038 13.235 3.087 16 5 C13.447 6.276 12.707 5.696 10 5 C6.412 4.894 2.835 5.094 -0.75 5.25 C-1.714 5.277 -2.678 5.304 -3.672 5.332 C-11.735 5.672 -19.135 6.981 -25 13 C-32.458 23.438 -35.483 33.924 -36.062 46.625 C-36.62 58.02 -37.898 67.455 -46 76 C-49.559 79.14 -53.269 82.068 -57 85 C-61.86 88.962 -65.817 92.563 -69 98 C-69.33 97.01 -69.66 96.02 -70 95 C-66.043 87.757 -59.448 82.882 -53 78 C-45.961 72.447 -41.868 67.648 -40.418 58.578 C-40.088 55.751 -39.828 52.946 -39.613 50.109 C-38.373 33.987 -35.993 20.117 -23.562 8.688 C-18.472 4.573 -13.693 2.51 -7 3 C-7.495 1.515 -7.495 1.515 -8 0 C-2.25 -1.125 -2.25 -1.125 0 0 Z " fill="#D4D4D4" transform="translate(481,261)"/>
<path d="M0 0 C0.785 0.005 1.57 0.01 2.379 0.016 C3.553 0.008 3.553 0.008 4.75 0 C6.941 0.266 6.941 0.266 9.941 2.266 C9.275 10.266 8.608 18.266 7.941 26.266 C7.281 25.936 6.621 25.606 5.941 25.266 C5.941 24.606 5.941 23.946 5.941 23.266 C1.321 22.606 -3.299 21.946 -8.059 21.266 C-6.41 0.827 -6.41 0.827 0 0 Z " fill="#F1F1F1" transform="translate(423.05859375,737.734375)"/>
<path d="M0 0 C8.408 4.29 14.183 9.366 17.336 18.469 C19.645 27.269 17.155 34.082 13 42 C5.319 54.808 -8.62 63.16 -22.77 67.031 C-30.234 68.665 -37.368 69.428 -45 69 C-45.33 68.34 -45.66 67.68 -46 67 C-44.947 66.914 -43.894 66.827 -42.809 66.738 C-23.788 64.971 -6.394 59.264 7 45 C13.219 36.854 15.144 29.234 14 19 C11.864 12.187 7.229 8.019 1.793 3.629 C1.201 3.091 0.61 2.554 0 2 C0 1.34 0 0.68 0 0 Z " fill="#E1E2E2" transform="translate(516,330)"/>
<path d="M0 0 C4.62 0.66 9.24 1.32 14 2 C13.397 9.236 11.885 15.994 10 23 C9.67 23 9.34 23 9 23 C9 19.04 9 15.08 9 11 C7.866 11.949 6.731 12.898 5.562 13.875 C4.924 14.409 4.286 14.942 3.629 15.492 C1.595 17.375 1.028 18.388 0.902 21.164 C0.914 21.976 0.926 22.788 0.938 23.625 C0.951 24.851 0.951 24.851 0.965 26.102 C0.976 26.728 0.988 27.355 1 28 C-1 26 -1 26 -1.23 23.977 C-1.216 23.201 -1.202 22.425 -1.188 21.625 C-1.178 20.469 -1.178 20.469 -1.168 19.289 C-1.006 17.081 -0.606 15.125 0 13 C-0.66 13 -1.32 13 -2 13 C-3.067 16.462 -3.102 19.64 -3.062 23.25 C-3.049 24.866 -3.049 24.866 -3.035 26.516 C-3.024 27.335 -3.012 28.155 -3 29 C-5.767 25.665 -6.615 23.352 -6.504 18.926 C-5.371 12.345 -2.534 6.147 0 0 Z " fill="#F1F1F1" transform="translate(397,539)"/>
<path d="M0 0 C0.66 0 1.32 0 2 0 C2.33 1.32 2.66 2.64 3 4 C3.66 3.01 4.32 2.02 5 1 C9.087 1.743 13.05 2.709 17 4 C18.287 6.573 18.168 8.502 18.188 11.375 C18.202 12.331 18.216 13.288 18.23 14.273 C18 17 18 17 16 21 C13.03 20.67 10.06 20.34 7 20 C6 16 6 16 6 13 C5.381 12.752 4.762 12.505 4.125 12.25 C1.51 10.712 0.933 9.876 0 7 C-0.078 4.668 -0.09 2.332 0 0 Z " fill="#F1F1F1" transform="translate(497,303)"/>
<path d="M0 0 C0.66 0 1.32 0 2 0 C2 3.3 2 6.6 2 10 C1.67 10 1.34 10 1 10 C0.67 7.69 0.34 5.38 0 3 C-2.339 6.655 -2.299 9.735 -2 14 C-1.387 15.687 -0.729 17.36 0 19 C0 19.99 0 20.98 0 22 C-0.66 22 -1.32 22 -2 22 C-2.124 22.928 -2.124 22.928 -2.25 23.875 C-3 26 -3 26 -4.812 27.312 C-7.533 28.167 -8.421 28.25 -11 27 C-14.832 23.918 -14.832 23.918 -16 21 C-15.826 16.871 -15.016 12.998 -14 9 C-13.67 9 -13.34 9 -13 9 C-12.34 10.98 -11.68 12.96 -11 15 C-11.023 14.397 -11.046 13.793 -11.07 13.172 C-11.088 12.373 -11.106 11.573 -11.125 10.75 C-11.148 9.961 -11.171 9.172 -11.195 8.359 C-10.983 5.793 -10.287 4.208 -9 2 C-8.34 2 -7.68 2 -7 2 C-7 3.98 -7 5.96 -7 8 C-6.277 7.134 -6.277 7.134 -5.539 6.25 C-4.907 5.508 -4.276 4.765 -3.625 4 C-2.999 3.258 -2.372 2.515 -1.727 1.75 C-0.872 0.884 -0.872 0.884 0 0 Z " fill="#1B1B1B" transform="translate(404,550)"/>
<path d="M0 0 C0.66 0 1.32 0 2 0 C7.715 11.211 11.442 22.918 15.25 34.875 C15.879 36.828 16.51 38.781 17.141 40.734 C21.957 55.687 21.957 55.687 24 63 C24.969 62.979 25.939 62.959 26.938 62.938 C30 63 30 63 31 64 C31.072 65.853 31.084 67.708 31.062 69.562 C31.053 70.574 31.044 71.586 31.035 72.629 C31.024 73.411 31.012 74.194 31 75 C33.31 75.99 35.62 76.98 38 78 C38 78.33 38 78.66 38 79 C31.25 78.125 31.25 78.125 29 77 C29 73.37 29 69.74 29 66 C27.02 66 25.04 66 23 66 C15.844 47.776 9.456 29.33 3.809 10.582 C2.684 6.992 1.373 3.501 0 0 Z " fill="#BABABC" transform="translate(534,383)"/>
<path d="M0 0 C0.66 0.33 1.32 0.66 2 1 C1.432 1.487 0.863 1.975 0.277 2.477 C-8.237 10.295 -14.247 19.445 -14.812 31.25 C-14.375 39.049 -11.539 44.482 -6.043 49.945 C-4.42 51.366 -2.717 52.695 -1 54 C-4 55 -4 55 -5.832 54.207 C-13.025 49.142 -16.945 42.461 -18.613 33.824 C-19.25 23.592 -15.119 14.89 -8.602 7.152 C-3.129 1.564 -3.129 1.564 0 0 Z " fill="#F1F1F1" transform="translate(457,344)"/>
<path d="M0 0 C0.66 0 1.32 0 2 0 C1.626 7.91 0.838 15.629 -0.438 23.438 C-0.57 24.252 -0.702 25.066 -0.839 25.904 C-1.102 27.519 -1.366 29.133 -1.631 30.747 C-3.773 43.835 -4.554 56.758 -5 70 C-5.66 69.67 -6.32 69.34 -7 69 C-7.852 28.703 -7.852 28.703 -3 19 C-2.631 16.354 -2.299 13.716 -2 11.062 C-1.133 3.398 -1.133 3.398 0 0 Z " fill="#CBCBCA" transform="translate(473,506)"/>
<path d="M0 0 C0.66 0.33 1.32 0.66 2 1 C1.264 1.617 0.528 2.235 -0.23 2.871 C-7.786 9.429 -14.145 15.886 -15.238 26.262 C-15.479 34.139 -13.739 40 -8.375 45.875 C-7.591 46.576 -6.808 47.278 -6 48 C-5.34 48.99 -4.68 49.98 -4 51 C-8.478 50.488 -10.849 49.23 -14 46 C-19.361 38.495 -20.126 31.028 -19 22 C-16.898 13.785 -9.322 5.986 -2.438 1.375 C-1.633 0.921 -0.829 0.467 0 0 Z " fill="#E1E2E2" transform="translate(439,343)"/>
<path d="M0 0 C0.812 1.688 0.812 1.688 1 4 C-1.161 6.512 -3.02 8.51 -6 10 C-0.72 10.33 4.56 10.66 10 11 C10 11.33 10 11.66 10 12 C3.73 12 -2.54 12 -9 12 C-8 8 -8 8 -6 5 C-6.664 5.398 -7.328 5.797 -8.012 6.207 C-10.674 7.805 -13.337 9.402 -16 11 C-16.893 11.561 -17.787 12.121 -18.707 12.699 C-21 14 -21 14 -23 14 C-21.847 9.362 -19.68 7.722 -15.785 5.361 C-14.778 4.78 -14.778 4.78 -13.75 4.188 C-13.094 3.781 -12.438 3.374 -11.762 2.955 C-7.69 0.547 -4.861 -0.506 0 0 Z " fill="#2B2B2C" transform="translate(646,485)"/>
<path d="M0 0 C8.408 4.29 14.183 9.366 17.336 18.469 C19.64 27.249 17.088 34.06 13 42 C12.34 42.66 11.68 43.32 11 44 C10.34 44 9.68 44 9 44 C10.092 41.228 11.203 38.626 12.625 36 C15.189 29.948 15.155 22.656 13.191 16.441 C10.476 11.019 6.469 7.405 1.793 3.629 C1.201 3.091 0.61 2.554 0 2 C0 1.34 0 0.68 0 0 Z " fill="#E1E2E2" transform="translate(516,330)"/>
<path d="M0 0 C0.66 0 1.32 0 2 0 C2.962 3.232 3.121 6.137 3.114 9.503 C3.113 11.154 3.113 11.154 3.113 12.839 C3.108 14.021 3.103 15.204 3.098 16.422 C3.096 17.637 3.095 18.852 3.093 20.104 C3.088 23.986 3.075 27.868 3.062 31.75 C3.057 34.382 3.053 37.013 3.049 39.645 C3.038 46.096 3.021 52.548 3 59 C2.34 59 1.68 59 1 59 C0.67 39.53 0.34 20.06 0 0 Z " fill="#CBCBCA" transform="translate(475,415)"/>
<path d="M0 0 C0.66 0 1.32 0 2 0 C-0.289 4.705 -2.895 9.24 -5.441 13.809 C-8.692 20.465 -9.593 29.327 -7.176 36.418 C-6.201 38.349 -5.143 40.165 -4 42 C-3.322 43.328 -2.653 44.66 -2 46 C-3.75 45.875 -3.75 45.875 -6 45 C-11.791 37.389 -11.915 29.532 -11.33 20.312 C-10.226 12.581 -5.047 5.725 0 0 Z " fill="#F1F1F1" transform="translate(463,352)"/>
<path d="M0 0 C1 3 1 3 0.066 5.016 C-4.847 12.315 -10.659 17.231 -17.625 22.5 C-21.158 25.203 -24.026 28.056 -26.809 31.52 C-28 33 -28 33 -30 35 C-28.188 25.799 -20.037 20.336 -13 15 C-7.366 10.694 -3.683 6.071 0 0 Z " fill="#D4D4D4" transform="translate(441,324)"/>
<path d="M0 0 C0.66 0.33 1.32 0.66 2 1 C1.67 1.99 1.34 2.98 1 4 C7.27 4 13.54 4 20 4 C19.67 5.32 19.34 6.64 19 8 C18.438 7.833 17.877 7.665 17.298 7.492 C14.817 6.961 12.764 6.975 10.234 7.121 C9.345 7.169 8.455 7.218 7.539 7.268 C6.619 7.324 5.698 7.38 4.75 7.438 C3.814 7.49 2.878 7.542 1.914 7.596 C-0.391 7.725 -2.696 7.86 -5 8 C-5.33 7.34 -5.66 6.68 -6 6 C-4 4 -2 2 0 0 Z " fill="#121111" transform="translate(636,493)"/>
<path d="M0 0 C3.96 0 7.92 0 12 0 C11.67 2.31 11.34 4.62 11 7 C7.04 7 3.08 7 -1 7 C-0.67 4.69 -0.34 2.38 0 0 Z " fill="#F1F1F1" transform="translate(472,780)"/>
<path d="M0 0 C2.573 2.974 3.293 4.717 3.312 8.625 C3.905 16.498 7.992 22.531 13.875 27.625 C14.906 28.409 15.938 29.192 17 30 C14 31 14 31 12.168 30.207 C5.854 25.761 2.333 20.354 0 13 C-0.44 8.608 -0.383 4.393 0 0 Z " fill="#D4D4D4" transform="translate(439,368)"/>
<path d="M0 0 C0 3.3 0 6.6 0 10 C-0.33 10 -0.66 10 -1 10 C-1.33 7.69 -1.66 5.38 -2 3 C-4.339 6.655 -4.299 9.735 -4 14 C-3.387 15.687 -2.729 17.36 -2 19 C-2 19.99 -2 20.98 -2 22 C-2.99 22 -3.98 22 -5 22 C-10.137 12.964 -10.137 12.964 -9 8 C-3.4 0 -3.4 0 0 0 Z " fill="#050505" transform="translate(406,550)"/>
<path d="M0 0 C0.33 0.66 0.66 1.32 1 2 C-8.872 4.838 -17.723 6.167 -28 6 C-28.33 5.34 -28.66 4.68 -29 4 C-27.889 3.89 -26.778 3.781 -25.633 3.668 C-18.1 2.88 -10.955 2.083 -3.785 -0.512 C-2 -1 -2 -1 0 0 Z " fill="#D4D4D4" transform="translate(499,393)"/>
<path d="M0 0 C0.66 0.33 1.32 0.66 2 1 C2 1.99 2 2.98 2 4 C-0.012 5.5 -0.012 5.5 -2.688 7 C-3.558 7.495 -4.428 7.99 -5.324 8.5 C-6.207 8.995 -7.09 9.49 -8 10 C-9.34 10.835 -9.34 10.835 -10.707 11.688 C-13 13 -13 13 -15 13 C-13.663 7.984 -10.786 6.107 -6.5 3.625 C-5.906 3.258 -5.311 2.89 -4.699 2.512 C-3.175 1.6 -1.59 0.791 0 0 Z " fill="#1B1B1B" transform="translate(638,486)"/>
<path d="M0 0 C0.33 0 0.66 0 1 0 C2.154 5.298 1.957 10.2 1.625 15.562 C1.581 16.4 1.537 17.237 1.492 18.1 C1.261 22.149 0.955 26.043 0 30 C-0.99 30 -1.98 30 -3 30 C-2.01 20.1 -1.02 10.2 0 0 Z " fill="#BABABC" transform="translate(443,295)"/>
<path d="M0 0 C-0.33 0.33 -0.66 0.66 -1 1 C-0.192 1.037 0.616 1.075 1.449 1.113 C3.052 1.212 3.052 1.212 4.688 1.312 C6.271 1.4 6.271 1.4 7.887 1.488 C11.23 2.038 13.235 3.087 16 5 C14 6 14 6 12.359 5.566 C9.002 4.76 5.68 4.895 2.25 4.938 C1.553 4.942 0.855 4.947 0.137 4.951 C-1.576 4.963 -3.288 4.981 -5 5 C-5 4.34 -5 3.68 -5 3 C-5.66 3 -6.32 3 -7 3 C-7.33 2.01 -7.66 1.02 -8 0 C-2.25 -1.125 -2.25 -1.125 0 0 Z " fill="#2B2B2C" transform="translate(481,261)"/>
<path d="M0 0 C0.33 0 0.66 0 1 0 C1.666 7.987 -0.344 13.899 -4 21 C-4.66 21.66 -5.32 22.32 -6 23 C-6.66 23 -7.32 23 -8 23 C-6.895 20.194 -5.745 17.47 -4.438 14.75 C-2.868 11.179 -2.528 7.788 -2.309 3.918 C-2 2 -2 2 0 0 Z " fill="#CBCBCA" transform="translate(533,351)"/>
<path d="M0 0 C0.66 0 1.32 0 2 0 C-0.289 4.705 -2.895 9.24 -5.441 13.809 C-6.825 16.642 -7.577 18.9 -8 22 C-8.99 22 -9.98 22 -11 22 C-10.007 13.877 -5.694 5.897 0 0 Z " fill="#D4D4D4" transform="translate(463,352)"/>
<path d="M0 0 C2.31 0 4.62 0 7 0 C7 3.63 7 7.26 7 11 C10.465 12.485 10.465 12.485 14 14 C14 14.33 14 14.66 14 15 C7.25 14.125 7.25 14.125 5 13 C5 9.37 5 5.74 5 2 C3.35 2 1.7 2 0 2 C0 1.34 0 0.68 0 0 Z " fill="#D4D4D4" transform="translate(558,447)"/>
<path d="M0 0 C3.161 1.58 3.543 4.764 4.625 7.938 C4.854 8.584 5.084 9.23 5.32 9.896 C7 14.711 7 14.711 7 17 C8.98 17 10.96 17 13 17 C13 17.33 13 17.66 13 18 C11.02 18 9.04 18 7 18 C6.67 18.66 6.34 19.32 6 20 C4.989 17.608 3.991 15.212 3 12.812 C2.571 11.802 2.571 11.802 2.133 10.771 C0.608 7.05 -0.376 4.035 0 0 Z " fill="#BABABC" transform="translate(551,429)"/>
<path d="M0 0 C5.61 0 11.22 0 17 0 C16.67 1.32 16.34 2.64 16 4 C15.219 3.77 15.219 3.77 14.422 3.535 C11.367 2.86 8.37 2.656 5.25 2.438 C4.08 2.354 2.909 2.27 1.703 2.184 C0.811 2.123 -0.081 2.062 -1 2 C-0.67 1.34 -0.34 0.68 0 0 Z " fill="#050505" transform="translate(639,497)"/>
<path d="M0 0 C0.66 0.33 1.32 0.66 2 1 C1.095 1.888 1.095 1.888 0.172 2.793 C-5.73 8.612 -5.73 8.612 -11 15 C-11.66 14.34 -12.32 13.68 -13 13 C-11.588 11.392 -10.17 9.789 -8.75 8.188 C-7.961 7.294 -7.172 6.401 -6.359 5.48 C-4.341 3.359 -2.401 1.657 0 0 Z " fill="#D4D4D4" transform="translate(457,344)"/>
<path d="M0 0 C0 3.3 0 6.6 0 10 C-0.33 10 -0.66 10 -1 10 C-1.33 7.69 -1.66 5.38 -2 3 C-3.884 6.265 -4.493 9.281 -5 13 C-5.66 11.68 -6.32 10.36 -7 9 C-7.33 10.65 -7.66 12.3 -8 14 C-8.33 14 -8.66 14 -9 14 C-9.586 10.653 -9.445 8.652 -7.512 5.82 C-2.51 0 -2.51 0 0 0 Z " fill="#2B2B2C" transform="translate(406,550)"/>
<path d="M0 0 C4.517 -0.366 4.517 -0.366 6.812 1.375 C8 3 8 3 8 5 C5.03 5 2.06 5 -1 5 C-0.67 3.35 -0.34 1.7 0 0 Z " fill="#E1E2E2" transform="translate(505,297)"/>
<path d="M0 0 C0 0.66 0 1.32 0 2 C-0.724 2.11 -1.449 2.219 -2.195 2.332 C-7.663 3.229 -12.223 4.16 -17 7 C-17 6.01 -17 5.02 -17 4 C-11.066 0.923 -6.701 -0.487 0 0 Z " fill="#BABABC" transform="translate(476,264)"/>
<path d="M0 0 C0.99 0.33 1.98 0.66 3 1 C2.299 1.681 1.598 2.361 0.875 3.062 C-1.799 5.729 -4.24 8.56 -6.668 11.449 C-7.726 12.68 -8.852 13.852 -10 15 C-9.388 11.662 -8.194 9.609 -6.125 6.938 C-5.612 6.266 -5.099 5.594 -4.57 4.902 C-3.13 3.157 -1.631 1.567 0 0 Z " fill="#D4D4D4" transform="translate(421,344)"/>
<path d="M0 0 C0.66 0 1.32 0 2 0 C3.007 2.101 4.005 4.206 5 6.312 C5.557 7.484 6.114 8.656 6.688 9.863 C8 13 8 13 8 16 C7.34 16 6.68 16 6 16 C4.02 10.72 2.04 5.44 0 0 Z " fill="#D4D4D4" transform="translate(534,383)"/>
<path d="M0 0 C0.66 0.495 1.32 0.99 2 1.5 C-1.246 3.123 -4.638 2.047 -8.125 1.562 C-8.879 1.463 -9.633 1.363 -10.41 1.26 C-12.274 1.012 -14.137 0.757 -16 0.5 C-16 0.17 -16 -0.16 -16 -0.5 C-10.476 -1.881 -5.175 -2.588 0 0 Z " fill="#D4D4D4" transform="translate(495,264.5)"/>
<path d="M0 0 C0.33 0.66 0.66 1.32 1 2 C-1.97 2.66 -4.94 3.32 -8 4 C-8.33 3.01 -8.66 2.02 -9 1 C-2.25 -1.125 -2.25 -1.125 0 0 Z " fill="#BABABC" transform="translate(499,393)"/>
<path d="M0 0 C0.99 0.33 1.98 0.66 3 1 C3 3.64 3 6.28 3 9 C2.34 9 1.68 9 1 9 C0.67 8.01 0.34 7.02 0 6 C-0.99 6.495 -0.99 6.495 -2 7 C-1.34 4.69 -0.68 2.38 0 0 Z " fill="#3B3C3D" transform="translate(413,751)"/>
<path d="M0 0 C0.66 0.33 1.32 0.66 2 1 C-0.64 4.3 -3.28 7.6 -6 11 C-6.33 10.01 -6.66 9.02 -7 8 C-5.566 5.957 -5.566 5.957 -3.562 3.812 C-2.904 3.097 -2.245 2.382 -1.566 1.645 C-1.049 1.102 -0.533 0.559 0 0 Z " fill="#E1E2E2" transform="translate(457,270)"/>
<path d="M0 0 C0.66 0.33 1.32 0.66 2 1 C2 1.99 2 2.98 2 4 C-1.465 5.485 -1.465 5.485 -5 7 C-3.75 3.347 -3.329 2.219 0 0 Z " fill="#1B1B1B" transform="translate(638,486)"/>
<path d="M0 0 C0.66 0.33 1.32 0.66 2 1 C-1.96 4.465 -1.96 4.465 -6 8 C-6.66 7.34 -7.32 6.68 -8 6 C-5.36 4.02 -2.72 2.04 0 0 Z " fill="#D4D4D4" transform="translate(439,343)"/>
<path d="M0 0 C1.114 0.598 2.227 1.196 3.375 1.812 C4.001 2.149 4.628 2.485 5.273 2.832 C7 4 7 4 9 7 C4.684 7 3.072 4.867 0 2 C0 1.34 0 0.68 0 0 Z " fill="#CBCBCA" transform="translate(516,330)"/>
<path d="M0 0 C2.29 3.435 2.178 4.985 2 9 C0.02 9.99 0.02 9.99 -2 11 C-1.34 7.37 -0.68 3.74 0 0 Z " fill="#050505" transform="translate(515,313)"/>
<path d="M0 0 C0.66 0 1.32 0 2 0 C1.67 3.63 1.34 7.26 1 11 C0.67 11 0.34 11 0 11 C-0.195 9.543 -0.381 8.084 -0.562 6.625 C-0.667 5.813 -0.771 5.001 -0.879 4.164 C-1 2 -1 2 0 0 Z " fill="#454445" transform="translate(395,552)"/>
</svg>