<svg version="1.1" xmlns="http://www.w3.org/2000/svg" width="1024" height="1024">
<path d="M0 0 C337.92 0 675.84 0 1024 0 C1024 337.92 1024 675.84 1024 1024 C686.08 1024 348.16 1024 0 1024 C0 686.08 0 348.16 0 0 Z " fill="#FEFEFE" transform="translate(0,0)"/>
<path d="M0 0 C4.95 0 9.9 0 15 0 C15 10.23 15 20.46 15 31 C19.29 31 23.58 31 28 31 C28 20.77 28 10.54 28 0 C33.28 0 38.56 0 44 0 C44 9.9 44 19.8 44 30 C47.96 30 51.92 30 56 30 C56 20.1 56 10.2 56 0 C61.28 0 66.56 0 72 0 C72 9.9 72 19.8 72 30 C75.032 29.918 78.064 29.835 81.188 29.75 C97.906 29.601 110.526 35.179 122.68 46.59 C131.96 56.229 137.615 67.476 137.45 80.968 C137.405 82.216 137.359 83.464 137.312 84.75 C137.209 88.793 137.106 92.835 137 97 C147.23 97 157.46 97 168 97 C168 102.28 168 107.56 168 113 C157.77 113 147.54 113 137 113 C137 117.95 137 122.9 137 128 C147.23 128 157.46 128 168 128 C168 133.28 168 138.56 168 144 C157.77 144 147.54 144 137 144 C137 148.29 137 152.58 137 157 C147.23 157 157.46 157 168 157 C168 162.61 168 168.22 168 174 C157.77 174 147.54 174 137 174 C137.103 177.362 137.206 180.724 137.312 184.188 C137.467 199.982 132.526 210.747 121.754 222.438 C106.814 236.96 93.185 237 72 237 C72 253.17 72 269.34 72 286 C71.67 286 71.34 286 71 286 C71 280.06 71 274.12 71 268 C66.05 268 61.1 268 56 268 C56 257.77 56 247.54 56 237 C51.71 237 47.42 237 43 237 C43 246.9 43 256.8 43 267 C38.05 267 33.1 267 28 267 C28 257.1 28 247.2 28 237 C23.71 237 19.42 237 15 237 C15 246.9 15 256.8 15 267 C10.05 267 5.1 267 0 267 C0 257.1 0 247.2 0 237 C-8.107 237.157 -8.107 237.157 -16.212 237.36 C-31.452 237.508 -41.538 230.399 -52.312 220.125 C-56.785 215.482 -60.145 210.772 -63 205 C-63.413 204.218 -63.825 203.435 -64.25 202.629 C-68.361 193.478 -67.264 183.819 -67 174 C-76.9 174 -86.8 174 -97 174 C-97 171.69 -97 169.38 -97 167 C-100.292 167.139 -103.584 167.287 -106.875 167.438 C-107.812 167.477 -108.749 167.516 -109.715 167.557 C-110.611 167.599 -111.507 167.64 -112.43 167.684 C-113.671 167.739 -113.671 167.739 -114.937 167.795 C-117.062 167.882 -117.062 167.882 -119 169 C-118.67 168.01 -118.34 167.02 -118 166 C-111.07 166 -104.14 166 -97 166 C-97 163.03 -97 160.06 -97 157 C-87.1 157 -77.2 157 -67 157 C-67 152.71 -67 148.42 -67 144 C-76.9 144 -86.8 144 -97 144 C-97 138.72 -97 133.44 -97 128 C-86.77 128 -76.54 128 -66 128 C-66 123.05 -66 118.1 -66 113 C-75.9 113 -85.8 113 -96 113 C-96 107.72 -96 102.44 -96 97 C-86.1 97 -76.2 97 -66 97 C-66.103 93.123 -66.206 89.245 -66.312 85.25 C-66.4 75.623 -66.148 68.332 -61 60 C-60.504 59.077 -60.007 58.154 -59.496 57.203 C-52.965 45.808 -42.2 36.019 -29.672 31.624 C-20.151 29.4 -9.589 30.616 0 31 C0 20.77 0 10.54 0 0 Z " fill="#FEFEFE" transform="translate(477,377)"/>
<path d="M0 0 C4.95 0 9.9 0 15 0 C15 10.23 15 20.46 15 31 C19.29 31 23.58 31 28 31 C28 20.77 28 10.54 28 0 C33.28 0 38.56 0 44 0 C44 9.9 44 19.8 44 30 C47.96 30 51.92 30 56 30 C56 20.1 56 10.2 56 0 C61.28 0 66.56 0 72 0 C72 9.9 72 19.8 72 30 C75.032 29.918 78.064 29.835 81.188 29.75 C97.906 29.601 110.526 35.179 122.68 46.59 C131.96 56.229 137.615 67.476 137.45 80.968 C137.405 82.216 137.359 83.464 137.312 84.75 C137.209 88.793 137.106 92.835 137 97 C147.23 97 157.46 97 168 97 C168 102.28 168 107.56 168 113 C157.77 113 147.54 113 137 113 C137 117.95 137 122.9 137 128 C147.23 128 157.46 128 168 128 C168 133.28 168 138.56 168 144 C157.77 144 147.54 144 137 144 C137 148.29 137 152.58 137 157 C147.23 157 157.46 157 168 157 C168 162.61 168 168.22 168 174 C157.77 174 147.54 174 137 174 C137.103 177.362 137.206 180.724 137.312 184.188 C137.467 199.982 132.526 210.747 121.754 222.438 C106.814 236.96 93.185 237 72 237 C72 253.17 72 269.34 72 286 C71.67 286 71.34 286 71 286 C71 280.06 71 274.12 71 268 C66.05 268 61.1 268 56 268 C56 257.77 56 247.54 56 237 C51.71 237 47.42 237 43 237 C43 246.9 43 256.8 43 267 C38.05 267 33.1 267 28 267 C28 257.1 28 247.2 28 237 C23.71 237 19.42 237 15 237 C15 246.9 15 256.8 15 267 C10.05 267 5.1 267 0 267 C0 257.1 0 247.2 0 237 C-8.107 237.157 -8.107 237.157 -16.212 237.36 C-31.452 237.508 -41.538 230.399 -52.312 220.125 C-56.785 215.482 -60.145 210.772 -63 205 C-63.413 204.218 -63.825 203.435 -64.25 202.629 C-68.361 193.478 -67.264 183.819 -67 174 C-76.9 174 -86.8 174 -97 174 C-97 171.69 -97 169.38 -97 167 C-100.292 167.139 -103.584 167.287 -106.875 167.438 C-107.812 167.477 -108.749 167.516 -109.715 167.557 C-110.611 167.599 -111.507 167.64 -112.43 167.684 C-113.671 167.739 -113.671 167.739 -114.937 167.795 C-117.062 167.882 -117.062 167.882 -119 169 C-118.67 168.01 -118.34 167.02 -118 166 C-111.07 166 -104.14 166 -97 166 C-97 163.03 -97 160.06 -97 157 C-87.1 157 -77.2 157 -67 157 C-67 152.71 -67 148.42 -67 144 C-76.9 144 -86.8 144 -97 144 C-97 138.72 -97 133.44 -97 128 C-86.77 128 -76.54 128 -66 128 C-66 123.05 -66 118.1 -66 113 C-75.9 113 -85.8 113 -96 113 C-96 107.72 -96 102.44 -96 97 C-86.1 97 -76.2 97 -66 97 C-66.103 93.123 -66.206 89.245 -66.312 85.25 C-66.4 75.623 -66.148 68.332 -61 60 C-60.504 59.077 -60.007 58.154 -59.496 57.203 C-52.965 45.808 -42.2 36.019 -29.672 31.624 C-20.151 29.4 -9.589 30.616 0 31 C0 20.77 0 10.54 0 0 Z M-41 62 C-43.034 64.88 -44.621 67.759 -46 71 C-46.508 72.146 -47.016 73.293 -47.539 74.474 C-49.436 79.587 -49.429 84.444 -49.404 89.847 C-49.411 90.905 -49.418 91.963 -49.425 93.053 C-49.443 96.533 -49.439 100.012 -49.434 103.492 C-49.438 105.923 -49.443 108.354 -49.449 110.785 C-49.458 115.874 -49.456 120.962 -49.446 126.051 C-49.435 132.557 -49.455 139.061 -49.484 145.567 C-49.502 150.585 -49.502 155.604 -49.496 160.623 C-49.496 163.02 -49.502 165.418 -49.515 167.816 C-49.53 171.175 -49.519 174.534 -49.502 177.894 C-49.511 178.874 -49.521 179.854 -49.531 180.864 C-49.409 192.36 -44.776 200.947 -36.965 209.133 C-28.654 217.078 -20.255 219.604 -8.897 219.565 C-7.305 219.583 -7.305 219.583 -5.68 219.601 C-2.198 219.634 1.283 219.637 4.766 219.637 C7.206 219.647 9.647 219.658 12.088 219.67 C17.195 219.689 22.302 219.693 27.41 219.686 C33.924 219.68 40.437 219.724 46.95 219.782 C51.99 219.819 57.029 219.824 62.069 219.82 C64.469 219.823 66.869 219.837 69.269 219.862 C85.791 220.021 97.021 218.949 110 208 C111.69 206.028 111.69 206.028 113.062 203.875 C113.528 203.192 113.993 202.509 114.473 201.805 C118.843 193.78 120.592 186.96 120.518 177.834 C120.525 176.766 120.532 175.698 120.539 174.597 C120.556 171.096 120.545 167.595 120.531 164.094 C120.534 161.643 120.538 159.193 120.543 156.743 C120.549 151.618 120.54 146.495 120.521 141.371 C120.499 134.821 120.512 128.271 120.536 121.721 C120.55 116.664 120.546 111.608 120.535 106.552 C120.533 104.137 120.536 101.723 120.545 99.308 C120.555 95.927 120.54 92.547 120.518 89.166 C120.526 88.18 120.534 87.193 120.542 86.177 C120.411 75.343 116.375 66.841 109 59 C100.19 50.714 91.055 47.385 79.049 47.467 C78.004 47.458 76.959 47.449 75.882 47.44 C72.455 47.418 69.029 47.425 65.602 47.434 C63.201 47.428 60.8 47.422 58.399 47.415 C53.378 47.404 48.356 47.409 43.335 47.424 C36.924 47.441 30.514 47.417 24.103 47.382 C19.148 47.36 14.192 47.362 9.237 47.37 C6.874 47.371 4.512 47.364 2.149 47.349 C-15.48 47.256 -28.587 48.012 -41 62 Z " fill="#2C2B2D" transform="translate(477,377)"/>
<path d="M0 0 C0.938 0.491 1.877 0.982 2.844 1.488 C17.656 9.764 27.089 22.804 32.387 38.727 C35.5 50.269 35.085 62.807 31 74 C30.683 74.951 30.366 75.903 30.039 76.883 C24.58 91.711 13.804 103.686 -0.385 110.572 C-15.286 117.391 -32.226 120.152 -48.062 114.875 C-63.833 108.817 -77.471 98.009 -84.75 82.5 C-85.545 80.686 -86.29 78.849 -87 77 C-87.261 76.356 -87.522 75.712 -87.791 75.048 C-90.098 68.906 -90.506 63.276 -90.438 56.75 C-90.429 55.735 -90.421 54.72 -90.412 53.675 C-90.032 36.737 -82.942 22.886 -71.094 10.832 C-52.302 -7.102 -23.103 -12.747 0 0 Z " fill="#FEFEFE" transform="translate(542,789)"/>
<path d="M0 0 C1.384 0.987 2.76 1.986 4.125 3 C5.115 3.701 6.105 4.403 7.125 5.125 C15.609 12.525 21.077 22.668 25.125 33 C25.392 33.672 25.659 34.343 25.934 35.035 C30.224 48.499 26.797 64.714 21.062 77.062 C14.174 89.979 5.611 97.93 -6.875 105 C-7.594 105.441 -8.314 105.882 -9.055 106.336 C-21.509 113.445 -38.497 113.92 -52.125 110.438 C-68.564 105.114 -82.127 94.424 -90.375 79.238 C-91.674 76.527 -92.81 73.811 -93.875 71 C-94.195 70.174 -94.514 69.347 -94.844 68.496 C-99.417 54.63 -97.919 39.15 -91.875 26 C-84.433 11.32 -73.567 1.165 -58.875 -6 C-57.955 -6.456 -57.034 -6.913 -56.086 -7.383 C-38.341 -14.695 -15.614 -10.217 0 0 Z " fill="#FEFEFE" transform="translate(548.875,117)"/>
<path d="M0 0 C0.831 0.267 1.663 0.534 2.52 0.809 C17.234 6.022 28.645 17.506 36 31 C42.251 44.213 44.276 57.54 40.168 71.832 C33.909 88.807 24.687 102.934 7.949 111.016 C-5.076 116.993 -20.245 119.811 -34.438 115.875 C-35.978 115.299 -37.499 114.671 -39 114 C-40.441 113.379 -40.441 113.379 -41.91 112.746 C-58.2 105.188 -69.654 93.009 -76.203 76.395 C-80.401 63.779 -79.772 47.133 -74.531 34.992 C-66.191 18.695 -53.757 5.398 -36.012 -0.375 C-23.667 -3.978 -12.196 -4.211 0 0 Z " fill="#FEFEFE" transform="translate(878,449)"/>
<path d="M0 0 C10.267 8.108 19.175 22.231 22 35 C23.856 51.134 21.351 67.428 12 81 C9.184 84.535 6.192 87.803 3 91 C2.435 91.576 1.871 92.152 1.289 92.746 C-3.729 97.459 -9.756 100.235 -16 103 C-16.892 103.418 -17.784 103.835 -18.703 104.266 C-30.496 109.05 -46.503 109.123 -58.309 104.32 C-77.077 95.113 -89.013 82.79 -96 63 C-98.797 50.76 -98.36 36.371 -93 25 C-92.576 24.071 -92.152 23.141 -91.715 22.184 C-88.188 15.12 -83.552 9.571 -78 4 C-77.385 3.362 -76.77 2.724 -76.137 2.066 C-54.654 -18.589 -22.998 -16.549 0 0 Z " fill="#FEFEFE" transform="translate(197,459)"/>
<path d="M0 0 C0.712 -0.008 1.424 -0.015 2.158 -0.023 C15.696 0.026 27.342 6.082 37.012 15.332 C45.988 25.6 50.411 37.237 50 50.914 C49.088 63.568 42.385 76.285 32.922 84.559 C19.808 94.54 5.837 97.976 -10.438 96.25 C-22.599 93.468 -34.457 85.694 -41.438 75.25 C-48.187 62.638 -50.845 49.623 -47.566 35.496 C-45.022 28.431 -41.458 22.796 -36.438 17.25 C-35.939 16.648 -35.44 16.046 -34.926 15.426 C-31.318 11.381 -27.101 8.64 -22.438 5.938 C-21.856 5.6 -21.275 5.262 -20.676 4.914 C-13.847 1.124 -7.664 -0.083 0 0 Z " fill="#FEFEFE" transform="translate(158.4375,639.75)"/>
<path d="M0 0 C1.095 -0.018 1.095 -0.018 2.213 -0.037 C15.462 -0.072 27.063 5.608 36.555 14.703 C46.588 25.744 49.714 37.125 49.227 51.703 C48.402 63.926 41.558 75.263 32.777 83.562 C21.098 93.222 7.842 96.606 -7.047 95.454 C-18.8 93.993 -30.541 86.468 -37.848 77.234 C-45.608 65.379 -48.823 53.238 -47.188 39.188 C-46.042 34.838 -44.381 31.104 -42.188 27.188 C-41.741 26.39 -41.295 25.592 -40.836 24.77 C-32.027 10.474 -17.078 0.015 0 0 Z " fill="#FEFEFE" transform="translate(157.1875,282.8125)"/>
<path d="M0 0 C2.261 1.663 4.262 3.404 6.273 5.359 C6.968 6.016 7.663 6.672 8.379 7.348 C17.884 17.103 21.624 28.6 21.488 41.949 C20.595 56.131 13.667 67.944 3.273 77.359 C-0.237 79.806 -3.813 81.643 -7.727 83.359 C-8.589 83.771 -9.451 84.182 -10.34 84.605 C-20.543 88.974 -33.214 88.915 -43.727 85.359 C-55.798 80.213 -64.847 72.079 -70.727 60.359 C-71.054 59.707 -71.381 59.055 -71.719 58.383 C-76.667 47.685 -75.742 35.3 -71.977 24.422 C-66.034 9.862 -55.628 0.474 -41.336 -5.668 C-27.071 -10.793 -12.623 -7.596 0 0 Z " fill="#FEFEFE" transform="translate(887.7265625,646.640625)"/>
<path d="M0 0 C0.786 0.008 1.571 0.015 2.381 0.023 C16.35 0.415 28.519 6.716 38.137 16.727 C47.598 28.864 49.37 41.49 48.25 56.438 C47.442 60.473 46.171 63.81 44.25 67.438 C43.803 68.306 43.355 69.175 42.895 70.07 C35.827 82.765 24.923 89.956 11.25 94.438 C-0.285 97.274 -11.901 95.804 -22.25 90.047 C-24.503 88.601 -26.628 87.067 -28.75 85.438 C-29.365 84.998 -29.98 84.558 -30.613 84.105 C-39.207 77.494 -44.715 66.958 -46.75 56.438 C-47.994 45.553 -47.253 36.123 -41.75 26.438 C-41.292 25.629 -40.835 24.821 -40.363 23.988 C-31.644 9.918 -16.87 -0.23 0 0 Z " fill="#FEFEFE" transform="translate(861.75,282.5625)"/>
<path d="M0 0 C1.384 0.987 2.76 1.986 4.125 3 C5.115 3.701 6.105 4.403 7.125 5.125 C15.609 12.525 21.077 22.668 25.125 33 C25.392 33.672 25.659 34.343 25.934 35.035 C30.224 48.499 26.797 64.714 21.062 77.062 C14.174 89.979 5.611 97.93 -6.875 105 C-7.594 105.441 -8.314 105.882 -9.055 106.336 C-21.509 113.445 -38.497 113.92 -52.125 110.438 C-68.564 105.114 -82.127 94.424 -90.375 79.238 C-91.674 76.527 -92.81 73.811 -93.875 71 C-94.195 70.174 -94.514 69.347 -94.844 68.496 C-99.417 54.63 -97.919 39.15 -91.875 26 C-84.433 11.32 -73.567 1.165 -58.875 -6 C-57.955 -6.456 -57.034 -6.913 -56.086 -7.383 C-38.341 -14.695 -15.614 -10.217 0 0 Z M-75.875 16 C-86.482 30.199 -89.017 43.261 -87.672 60.621 C-85.476 73.246 -77.236 85.407 -67.207 93.027 C-53.14 102.412 -37.913 105.58 -21.242 102.281 C-18.349 101.344 -15.637 100.271 -12.875 99 C-11.984 98.615 -11.094 98.229 -10.176 97.832 C2.626 91.919 10.742 81.412 16.188 68.562 C20.188 56.1 20.297 40.79 14.734 28.82 C7.153 15.535 -1.878 7.138 -15.875 1 C-16.695 0.636 -17.515 0.273 -18.359 -0.102 C-38.265 -7.211 -62.029 0.819 -75.875 16 Z " fill="#39393A" transform="translate(548.875,117)"/>
<path d="M0 0 C0.938 0.491 1.877 0.982 2.844 1.488 C17.656 9.764 27.089 22.804 32.387 38.727 C35.5 50.269 35.085 62.807 31 74 C30.683 74.951 30.366 75.903 30.039 76.883 C24.58 91.711 13.804 103.686 -0.385 110.572 C-15.286 117.391 -32.226 120.152 -48.062 114.875 C-63.833 108.817 -77.471 98.009 -84.75 82.5 C-85.545 80.686 -86.29 78.849 -87 77 C-87.261 76.356 -87.522 75.712 -87.791 75.048 C-90.098 68.906 -90.506 63.276 -90.438 56.75 C-90.429 55.735 -90.421 54.72 -90.412 53.675 C-90.032 36.737 -82.942 22.886 -71.094 10.832 C-52.302 -7.102 -23.103 -12.747 0 0 Z M-72 24 C-80.542 35.265 -83.865 49.05 -82 63 C-80.083 72.671 -75.791 81.077 -70 89 C-69.237 90.072 -68.474 91.145 -67.688 92.25 C-61.842 98.231 -54.659 102.698 -47 106 C-46.385 106.299 -45.77 106.598 -45.137 106.906 C-32.976 112.007 -17.786 109.593 -6.02 104.781 C8.591 98.115 17.21 87.543 22.965 72.832 C23.477 71.43 23.477 71.43 24 70 C24.249 69.323 24.498 68.646 24.754 67.949 C28.75 54.898 25.215 41.837 19.812 29.812 C13.431 17.881 1.884 8.217 -11 4 C-34.442 -1.965 -56.422 5.526 -72 24 Z " fill="#39393A" transform="translate(542,789)"/>
<path d="M0 0 C10.267 8.108 19.175 22.231 22 35 C23.856 51.134 21.351 67.428 12 81 C9.184 84.535 6.192 87.803 3 91 C2.435 91.576 1.871 92.152 1.289 92.746 C-3.729 97.459 -9.756 100.235 -16 103 C-16.892 103.418 -17.784 103.835 -18.703 104.266 C-30.496 109.05 -46.503 109.123 -58.309 104.32 C-77.077 95.113 -89.013 82.79 -96 63 C-98.797 50.76 -98.36 36.371 -93 25 C-92.576 24.071 -92.152 23.141 -91.715 22.184 C-88.188 15.12 -83.552 9.571 -78 4 C-77.385 3.362 -76.77 2.724 -76.137 2.066 C-54.654 -18.589 -22.998 -16.549 0 0 Z M-69 7 C-69.636 7.427 -70.271 7.853 -70.926 8.293 C-80.503 15.449 -86.95 28.491 -89 40 C-90.462 55.399 -86.117 68.07 -77.152 80.578 C-69.417 89.918 -57.939 96.634 -46 99 C-30.208 100.286 -15.592 96.321 -2.98 86.695 C6.143 78.901 12.455 66.819 14 55 C15.207 38 11.653 25.127 0.688 11.75 C-7.551 2.791 -19.796 -3.663 -32.004 -4.238 C-46.612 -4.596 -56.98 -1.619 -69 7 Z " fill="#39393A" transform="translate(197,459)"/>
<path d="M0 0 C0.831 0.267 1.663 0.534 2.52 0.809 C17.234 6.022 28.645 17.506 36 31 C42.251 44.213 44.276 57.54 40.168 71.832 C33.909 88.807 24.687 102.934 7.949 111.016 C-5.076 116.993 -20.245 119.811 -34.438 115.875 C-35.978 115.299 -37.499 114.671 -39 114 C-40.441 113.379 -40.441 113.379 -41.91 112.746 C-58.2 105.188 -69.654 93.009 -76.203 76.395 C-80.401 63.779 -79.772 47.133 -74.531 34.992 C-66.191 18.695 -53.757 5.398 -36.012 -0.375 C-23.667 -3.978 -12.196 -4.211 0 0 Z M-58 24 C-67.495 36.517 -70.826 48.524 -70 64 C-68.156 77.066 -61.76 88.19 -52 97 C-38.585 106.958 -25.442 110.986 -8.801 108.527 C5.686 105.365 17.18 98.059 25.398 85.75 C28.142 81.038 30.128 76.11 32 71 C32.433 69.886 32.866 68.773 33.312 67.625 C35.899 53.988 33.299 41.032 25.75 29.406 C19.665 21.04 13.178 14.853 4 10 C3.194 9.566 2.389 9.131 1.559 8.684 C-18.943 -0.525 -43.445 8.336 -58 24 Z " fill="#39393A" transform="translate(878,449)"/>
<path d="M0 0 C4.62 0 9.24 0 14 0 C17.849 7.502 21.277 15.111 24.562 22.875 C25.342 24.71 26.122 26.544 26.903 28.378 C27.441 29.644 27.979 30.91 28.517 32.176 C30.472 36.777 32.456 41.365 34.449 45.949 C35.281 47.867 36.112 49.785 36.943 51.703 C37.739 53.537 38.54 55.369 39.342 57.201 C39.822 58.311 40.302 59.422 40.797 60.566 C41.436 62.035 41.436 62.035 42.089 63.533 C43 66 43 66 43 69 C38.38 69 33.76 69 29 69 C26.569 63.69 24.169 58.423 22 53 C12.43 53 2.86 53 -7 53 C-8.932 57.89 -8.932 57.89 -10.859 62.783 C-12.889 67.889 -12.889 67.889 -14 69 C-16.186 69.073 -18.375 69.084 -20.562 69.062 C-21.76 69.053 -22.958 69.044 -24.191 69.035 C-25.582 69.018 -25.582 69.018 -27 69 C-26.41 64.685 -25.362 60.977 -23.734 56.941 C-23.262 55.765 -22.79 54.588 -22.304 53.376 C-21.786 52.105 -21.268 50.834 -20.75 49.562 C-20.218 48.246 -19.686 46.929 -19.155 45.612 C-3.658 7.317 -3.658 7.317 0 0 Z " fill="#2C2B2D" transform="translate(488,474)"/>
<path d="M0 0 C3.604 2.43 5.54 5.338 7.051 9.383 C7.531 12.069 7.794 14.653 7.91 17.379 C7.831 19.381 7.831 19.381 9.051 20.383 C9.587 26.36 8.154 30.362 5.676 35.633 C5.2 36.692 5.2 36.692 4.715 37.773 C3.333 40.813 1.906 43.6 0.051 46.383 C1.337 46.712 1.337 46.712 2.648 47.047 C15.874 50.715 15.874 50.715 20.051 56.383 C23.07 62.011 23.437 66.503 23.238 72.82 C23.218 74.061 23.218 74.061 23.197 75.326 C23.162 77.345 23.108 79.364 23.051 81.383 C21.071 81.383 19.091 81.383 17.051 81.383 C16.953 80.153 16.855 78.923 16.754 77.656 C16.604 76.023 16.453 74.391 16.301 72.758 C16.239 71.95 16.177 71.141 16.113 70.309 C15.598 65.023 14.613 61.543 11.051 57.383 C8.541 55.813 5.899 55.15 3.051 54.383 C2.02 54.053 0.988 53.723 -0.074 53.383 C-3.232 53.076 -3.232 53.076 -5.949 55.883 C-8.949 58.383 -8.949 58.383 -12.199 58.445 C-14.949 57.383 -14.949 57.383 -16.121 55.316 C-16.531 54.359 -16.531 54.359 -16.949 53.383 C-25.55 54.37 -25.55 54.37 -32.949 58.383 C-35.926 63.286 -36.621 67.674 -37.137 73.258 C-37.219 74.042 -37.3 74.825 -37.385 75.633 C-37.583 77.548 -37.768 79.466 -37.949 81.383 C-39.615 81.426 -41.283 81.423 -42.949 81.383 C-45.171 79.161 -44.261 73.757 -44.264 70.676 C-44.136 63.878 -43.016 58.593 -38.195 53.547 C-33.818 49.654 -31.258 48.251 -25.324 48.32 C-23.82 48.334 -23.82 48.334 -22.285 48.348 C-21.514 48.359 -20.743 48.371 -19.949 48.383 C-20.512 47.6 -20.512 47.6 -21.086 46.801 C-26.787 38.601 -31.918 30.649 -30.949 20.383 C-30.289 20.383 -29.629 20.383 -28.949 20.383 C-29.071 19.223 -29.071 19.223 -29.195 18.039 C-29.54 12.352 -29.659 8.325 -25.887 3.82 C-18.232 -3.573 -9.348 -4.618 0 0 Z " fill="#39393A" transform="translate(524.94921875,124.6171875)"/>
<path d="M0 0 C4.2 2.527 6.086 5.383 7.395 10.113 C7.971 12.949 8.376 15.755 8.707 18.629 C8.815 19.435 8.924 20.24 9.035 21.07 C9.671 29.841 5.488 38.457 0.707 45.629 C2.028 45.975 2.028 45.975 3.375 46.328 C11.704 48.667 16.393 50.697 20.957 58.191 C23.585 63.353 23.823 67.068 23.77 72.879 C23.761 74.142 23.751 75.405 23.742 76.707 C23.731 77.671 23.719 78.635 23.707 79.629 C20.242 80.124 20.242 80.124 16.707 80.629 C16.621 79.327 16.534 78.025 16.445 76.684 C16.305 74.957 16.163 73.23 16.02 71.504 C15.939 70.22 15.939 70.22 15.857 68.91 C15.322 62.862 14.107 59.861 9.707 55.629 C5.769 53.349 2.202 53.147 -2.293 53.629 C-3.118 54.31 -3.943 54.99 -4.793 55.691 C-7.293 57.629 -7.293 57.629 -10.98 57.566 C-14.293 56.629 -14.293 56.629 -16.293 53.629 C-21.707 52.992 -25.525 54.061 -30.293 56.629 C-34.615 61.1 -35.532 66.276 -35.855 72.316 C-36.195 78.433 -36.195 78.433 -37.293 80.629 C-42.168 79.754 -42.168 79.754 -43.293 78.629 C-44.207 68.692 -42.773 61.081 -37.418 52.691 C-33.221 48.618 -29.675 47.458 -23.918 47.441 C-22.376 47.489 -20.834 47.547 -19.293 47.629 C-19.752 46.939 -20.211 46.25 -20.684 45.539 C-31.025 29.7 -31.025 29.7 -30.293 19.629 C-29.633 19.629 -28.973 19.629 -28.293 19.629 C-28.339 18.988 -28.386 18.348 -28.434 17.688 C-28.698 11.342 -28.24 7.689 -24.293 2.629 C-17.694 -2.966 -7.869 -3.276 0 0 Z " fill="#39393A" transform="translate(524.29296875,804.37109375)"/>
<path d="M0 0 C1.212 -0.026 2.423 -0.052 3.672 -0.078 C8.823 0.394 12.06 1.964 15.562 5.75 C17.573 9.92 17.858 13.377 18.074 17.957 C17.997 20.214 17.997 20.214 19.25 21.25 C19.838 27.897 18.418 31.97 15.25 37.75 C14.868 38.477 14.487 39.204 14.094 39.953 C13.16 41.726 12.207 43.489 11.25 45.25 C12.13 45.492 13.011 45.735 13.918 45.984 C15.079 46.32 16.241 46.655 17.438 47 C18.586 47.325 19.735 47.65 20.918 47.984 C26.362 50.052 30.001 53.157 32.535 58.48 C34.182 64.861 33.517 71.716 33.25 78.25 C30.28 78.745 30.28 78.745 27.25 79.25 C27.14 78.176 27.031 77.102 26.918 75.996 C26.758 74.56 26.598 73.124 26.438 71.688 C26.367 70.983 26.297 70.279 26.225 69.553 C25.656 64.617 24.61 60.648 22.25 56.25 C18.055 53.122 12.306 52.655 7.25 53.25 C6.755 53.745 6.26 54.24 5.75 54.75 C4.25 56.25 4.25 56.25 0.812 56.688 C-2.75 56.25 -2.75 56.25 -4.688 54.188 C-6.749 51.808 -6.749 51.808 -10.625 52.25 C-14.742 53.032 -17.574 54.444 -20.75 57.25 C-24.551 63.411 -24.441 70.155 -24.75 77.25 C-27.125 77.875 -27.125 77.875 -29.75 78.25 C-32.264 75.736 -32.075 74.799 -32.125 71.312 C-31.933 63.171 -30.051 55.961 -24.062 50.188 C-20.173 46.781 -15.698 46.16 -10.75 45.25 C-11.339 44.22 -11.928 43.19 -12.535 42.129 C-16.673 34.462 -19.602 27.909 -19 19.062 C-18.932 18.022 -18.932 18.022 -18.864 16.961 C-18.186 10.873 -15.654 6.927 -11.125 2.938 C-7.205 0.152 -4.817 0.061 0 0 Z " fill="#39393A" transform="translate(858.75,466.75)"/>
<path d="M0 0 C1.212 -0.026 2.423 -0.052 3.672 -0.078 C8.855 0.397 12.084 1.958 15.562 5.812 C17.49 9.738 17.848 12.857 18.074 17.176 C18.025 19.24 18.025 19.24 19.25 20.25 C19.826 26.851 18.462 30.886 15.312 36.625 C14.939 37.335 14.566 38.046 14.182 38.777 C13.217 40.608 12.235 42.43 11.25 44.25 C10.755 45.24 10.755 45.24 10.25 46.25 C10.951 46.253 11.653 46.255 12.375 46.258 C19.63 46.554 24.221 47.889 29.25 53.25 C34.294 59.151 33.747 66.484 33.586 73.836 C33.25 77.25 33.25 77.25 31.25 79.25 C29.93 79.25 28.61 79.25 27.25 79.25 C27.14 78.009 27.031 76.767 26.918 75.488 C26.758 73.846 26.598 72.204 26.438 70.562 C26.367 69.746 26.297 68.929 26.225 68.088 C25.758 63.476 25.246 59.979 22.25 56.25 C17.724 53.813 13.407 52.346 8.25 52.25 C6.547 53.537 4.879 54.871 3.25 56.25 C0.125 56.688 0.125 56.688 -2.75 56.25 C-3.214 55.754 -3.678 55.257 -4.156 54.746 C-6.221 52.808 -7.332 52.846 -10.125 52.875 C-14.112 53.024 -16.637 53.595 -19.75 56.25 C-24.564 62.49 -25.081 70.649 -25.75 78.25 C-27.416 78.293 -29.084 78.291 -30.75 78.25 C-32.566 76.434 -32.008 73.762 -32.062 71.312 C-31.984 64.136 -30.985 57.86 -26.066 52.371 C-20.742 47.62 -17.021 45.97 -9.75 46.25 C-10.411 45.22 -11.073 44.19 -11.754 43.129 C-18.149 32.575 -20.473 24.439 -17.75 12.25 C-14.212 3.799 -9.129 0.116 0 0 Z " fill="#39393A" transform="translate(158.75,466.75)"/>
<path d="M0 0 C0.712 -0.008 1.424 -0.015 2.158 -0.023 C15.696 0.026 27.342 6.082 37.012 15.332 C45.988 25.6 50.411 37.237 50 50.914 C49.088 63.568 42.385 76.285 32.922 84.559 C19.808 94.54 5.837 97.976 -10.438 96.25 C-22.599 93.468 -34.457 85.694 -41.438 75.25 C-48.187 62.638 -50.845 49.623 -47.566 35.496 C-45.022 28.431 -41.458 22.796 -36.438 17.25 C-35.939 16.648 -35.44 16.046 -34.926 15.426 C-31.318 11.381 -27.101 8.64 -22.438 5.938 C-21.856 5.6 -21.275 5.262 -20.676 4.914 C-13.847 1.124 -7.664 -0.083 0 0 Z M-18.438 11.25 C-19.286 11.759 -20.134 12.268 -21.008 12.793 C-31.141 19.402 -37.605 27.751 -41.438 39.25 C-42.044 49.12 -42.557 58.453 -37.438 67.25 C-36.99 68.038 -36.543 68.825 -36.082 69.637 C-29.805 79.817 -20.733 85.485 -9.438 89.25 C0.746 90.143 11.569 90.636 20.562 85.25 C21.723 84.614 21.723 84.614 22.906 83.965 C32.858 78.011 39.351 67.999 42.18 56.809 C43.999 44.647 42.223 34.395 35.16 24.355 C34.633 23.661 34.106 22.966 33.562 22.25 C32.948 21.413 32.333 20.577 31.699 19.715 C29.424 17.091 27.25 15.463 24.312 13.625 C23.42 13.055 22.528 12.485 21.609 11.898 C14.763 8.194 8.982 6.713 1.188 6.812 C0.35 6.821 -0.488 6.829 -1.351 6.838 C-7.742 7.012 -12.893 7.906 -18.438 11.25 Z " fill="#39393A" transform="translate(158.4375,639.75)"/>
<path d="M0 0 C2.261 1.663 4.262 3.404 6.273 5.359 C6.968 6.016 7.663 6.672 8.379 7.348 C17.884 17.103 21.624 28.6 21.488 41.949 C20.595 56.131 13.667 67.944 3.273 77.359 C-0.237 79.806 -3.813 81.643 -7.727 83.359 C-8.589 83.771 -9.451 84.182 -10.34 84.605 C-20.543 88.974 -33.214 88.915 -43.727 85.359 C-55.798 80.213 -64.847 72.079 -70.727 60.359 C-71.054 59.707 -71.381 59.055 -71.719 58.383 C-76.667 47.685 -75.742 35.3 -71.977 24.422 C-66.034 9.862 -55.628 0.474 -41.336 -5.668 C-27.071 -10.793 -12.623 -7.596 0 0 Z M-52.727 9.359 C-53.343 9.838 -53.959 10.316 -54.594 10.809 C-62.054 17.39 -67.153 28.082 -67.93 37.938 C-68.042 44.357 -67.252 49.459 -64.727 55.359 C-64.448 56.037 -64.17 56.715 -63.883 57.414 C-59.619 66.86 -52.902 72.779 -43.727 77.359 C-42.715 77.872 -42.715 77.872 -41.684 78.395 C-32.222 82.329 -20.147 81.657 -10.664 78.234 C1.046 73.007 7.001 65.948 12.148 54.297 C15.836 44.094 15.906 32.874 11.594 22.816 C5.099 10.73 -4.689 3.716 -17.641 -0.223 C-30.854 -2.87 -42.377 1.273 -52.727 9.359 Z " fill="#39393A" transform="translate(887.7265625,646.640625)"/>
<path d="M0 0 C1.095 -0.018 1.095 -0.018 2.213 -0.037 C15.462 -0.072 27.063 5.608 36.555 14.703 C46.588 25.744 49.714 37.125 49.227 51.703 C48.402 63.926 41.558 75.263 32.777 83.562 C21.098 93.222 7.842 96.606 -7.047 95.454 C-18.8 93.993 -30.541 86.468 -37.848 77.234 C-45.608 65.379 -48.823 53.238 -47.188 39.188 C-46.042 34.838 -44.381 31.104 -42.188 27.188 C-41.741 26.39 -41.295 25.592 -40.836 24.77 C-32.027 10.474 -17.078 0.015 0 0 Z M-17.188 11.188 C-17.952 11.612 -18.716 12.036 -19.504 12.473 C-29.778 18.713 -36.412 27.861 -40.188 39.188 C-41.15 52.949 -39.192 64.212 -30.188 75.188 C-23.299 82.405 -14.634 87.591 -4.559 88.523 C9.355 88.662 20.378 86.233 30.676 76.41 C39.922 66.728 42.546 55.216 42.289 42.215 C41.841 34.782 38.885 29.342 34.812 23.188 C34.357 22.472 33.902 21.757 33.434 21.02 C28.292 14.066 19.038 9.325 10.812 7.188 C1.14 6.137 -8.615 6.211 -17.188 11.188 Z " fill="#39393A" transform="translate(157.1875,282.8125)"/>
<path d="M0 0 C0.786 0.008 1.571 0.015 2.381 0.023 C16.35 0.415 28.519 6.716 38.137 16.727 C47.598 28.864 49.37 41.49 48.25 56.438 C47.442 60.473 46.171 63.81 44.25 67.438 C43.803 68.306 43.355 69.175 42.895 70.07 C35.827 82.765 24.923 89.956 11.25 94.438 C-0.285 97.274 -11.901 95.804 -22.25 90.047 C-24.503 88.601 -26.628 87.067 -28.75 85.438 C-29.365 84.998 -29.98 84.558 -30.613 84.105 C-39.207 77.494 -44.715 66.958 -46.75 56.438 C-47.994 45.553 -47.253 36.123 -41.75 26.438 C-41.292 25.629 -40.835 24.821 -40.363 23.988 C-31.644 9.918 -16.87 -0.23 0 0 Z M-17.75 11.438 C-18.672 11.997 -19.593 12.556 -20.543 13.133 C-29.93 19.391 -37.142 28.279 -39.75 39.438 C-40.954 50.695 -39.634 61.379 -32.938 70.75 C-31.898 71.999 -30.836 73.229 -29.75 74.438 C-29.225 75.054 -28.701 75.67 -28.16 76.305 C-21.97 83.092 -12.945 87.737 -3.777 88.773 C8.902 88.934 20.391 85.653 30.25 77.438 C37.706 69.416 42.453 58.709 42.75 47.75 C42.179 35.554 37.449 24.972 28.438 16.562 C16.04 6.49 -3.558 2.761 -17.75 11.438 Z " fill="#39393A" transform="translate(861.75,282.5625)"/>
<path d="M0 0 C3.168 1.716 4.927 3.188 6.938 6.203 C7.316 8.43 7.316 8.43 7.5 10.828 C7.527 13.814 7.527 13.814 8.938 16.203 C9.554 21.764 7.735 25.672 5.438 30.578 C5.104 31.314 4.77 32.05 4.426 32.809 C3.606 34.611 2.773 36.408 1.938 38.203 C3.573 38.168 3.573 38.168 5.242 38.133 C9.943 38.222 12.996 39.288 16.387 42.633 C20.538 47.414 21.061 50.712 21 56.891 C20.991 58.07 20.982 59.25 20.973 60.465 C20.961 61.368 20.949 62.272 20.938 63.203 C18.463 63.698 18.463 63.698 15.938 64.203 C14.949 61.238 14.741 58.93 14.562 55.828 C14.197 51.571 13.834 48.528 10.938 45.203 C7.527 42.645 4.078 42.827 -0.062 43.203 C-1.083 44.183 -2.084 45.182 -3.062 46.203 C-6.25 46.391 -6.25 46.391 -9.062 46.203 C-9.722 44.883 -10.382 43.563 -11.062 42.203 C-12.818 42.575 -14.567 42.977 -16.312 43.391 C-17.287 43.611 -18.262 43.831 -19.266 44.059 C-22.83 45.517 -24.075 46.915 -26.062 50.203 C-26.966 53.764 -26.966 53.764 -27.312 57.516 C-27.462 58.77 -27.612 60.024 -27.766 61.316 C-27.864 62.269 -27.962 63.222 -28.062 64.203 C-29.713 63.873 -31.363 63.543 -33.062 63.203 C-33.512 55.711 -33.712 49.408 -29.062 43.203 C-24.246 38.73 -21.585 38.082 -15.062 38.203 C-16.039 36.223 -17.019 34.244 -18 32.266 C-18.545 31.163 -19.091 30.061 -19.652 28.926 C-20.81 26.355 -20.81 26.355 -22.062 25.203 C-22.077 22.267 -22.01 19.383 -21.875 16.453 C-21.856 15.641 -21.838 14.829 -21.818 13.992 C-21.579 8.84 -20.939 5.93 -17.062 2.203 C-11.843 -1.317 -5.946 -2.297 0 0 Z " fill="#39393A" transform="translate(165.0625,654.796875)"/>
<path d="M0 0 C3.979 2.063 6.671 4.186 9 8 C11.081 17.358 10.276 24.388 5.348 32.707 C3.831 34.844 3.831 34.844 4 37 C5.121 37.329 5.121 37.329 6.266 37.664 C15.313 40.577 15.313 40.577 17.625 44.062 C19.73 48.559 20.111 51.751 20.062 56.688 C20.053 57.867 20.044 59.046 20.035 60.262 C20.024 61.165 20.012 62.069 20 63 C17.525 63.495 17.525 63.495 15 64 C14.963 63.203 14.925 62.407 14.887 61.586 C14.524 53.309 14.524 53.309 11 46 C7.357 43.624 4.363 42.292 0 43 C-0.495 43.495 -0.99 43.99 -1.5 44.5 C-3 46 -3 46 -5.5 46.375 C-8 46 -8 46 -9.379 44.504 C-11.978 42.093 -14.445 42.529 -17.844 42.645 C-20.198 42.869 -20.198 42.869 -22.438 44.75 C-25.291 48.858 -26.369 52.284 -27.125 57.25 C-27.293 58.328 -27.46 59.405 -27.633 60.516 C-27.754 61.335 -27.875 62.155 -28 63 C-31.875 62.125 -31.875 62.125 -33 61 C-33.612 54.269 -32.267 48.936 -29 43 C-26.236 40.302 -23.791 38.081 -19.836 37.902 C-18.618 37.92 -18.618 37.92 -17.375 37.938 C-16.149 37.951 -16.149 37.951 -14.898 37.965 C-14.272 37.976 -13.645 37.988 -13 38 C-13 37.34 -13 36.68 -13 36 C-13.66 36 -14.32 36 -15 36 C-16.014 33.965 -17.011 31.922 -18 29.875 C-18.835 28.17 -18.835 28.17 -19.688 26.43 C-21.005 22.987 -21.266 20.643 -21 17 C-20.34 17 -19.68 17 -19 17 C-19.046 16.408 -19.093 15.817 -19.141 15.207 C-19.324 11.186 -19.391 8.692 -17.375 5.125 C-12.087 0.394 -6.966 -1.136 0 0 Z " fill="#39393A" transform="translate(867,654)"/>
<path d="M0 0 C3.603 1.728 6.098 3.452 8 7 C8.38 9.616 8.571 11.885 8.562 14.5 C8.563 15.205 8.563 15.909 8.564 16.635 C8.302 24.976 4.538 31.193 0 38 C0.846 37.918 1.691 37.835 2.562 37.75 C6.827 38.06 9.776 39.268 13 42 C17.791 47.592 17.38 54.088 17.238 61.121 C17 64 17 64 16 65 C14.334 65.041 12.666 65.043 11 65 C10.986 63.819 10.972 62.638 10.957 61.422 C10.91 59.865 10.862 58.307 10.812 56.75 C10.807 55.973 10.801 55.195 10.795 54.395 C10.638 50.317 10.565 48.597 7.672 45.543 C4.432 43.672 1.701 42.606 -2 42 C-4.153 43.323 -4.153 43.323 -6 45 C-8.562 45.438 -8.562 45.438 -11 45 C-11.433 44.34 -11.866 43.68 -12.312 43 C-13.983 40.573 -13.983 40.573 -17.812 40.438 C-22.651 40.687 -24.738 42.505 -28 46 C-30.49 50.268 -30.599 55.158 -31 60 C-32.65 59.67 -34.3 59.34 -36 59 C-36.514 52.031 -36.081 46.819 -32 41 C-27.877 36.392 -22.865 35.866 -17 35 C-17.361 34.143 -17.722 33.286 -18.094 32.402 C-21.651 23.638 -23.473 17.23 -20.086 8.156 C-15.864 -0.226 -8.84 -1.554 0 0 Z " fill="#39393A" transform="translate(165,298)"/>
<path d="M0 0 C3.14 2.65 4.217 4.832 4.562 8.812 C4.567 12.462 4.567 12.462 6 13.688 C7.081 21.714 3.599 27.662 0 34.688 C0.87 34.726 0.87 34.726 1.758 34.766 C7.212 35.162 10.769 35.949 15 39.688 C20.255 46.049 19.397 52.736 19 60.688 C17.35 60.688 15.7 60.688 14 60.688 C13.879 59.735 13.758 58.782 13.633 57.801 C13.381 55.919 13.381 55.919 13.125 54 C12.881 52.138 12.881 52.138 12.633 50.238 C12.072 47.093 11.407 44.544 10 41.688 C6.487 39.931 1.813 40.445 -2 40.688 C-3.625 42.146 -3.625 42.146 -5 43.688 C-8.062 44 -8.062 44 -11 43.688 C-11.66 43.028 -12.32 42.368 -13 41.688 C-16.107 41.454 -19.004 41.851 -22 42.688 C-26.461 46.925 -27.115 50.932 -27.562 56.875 C-27.646 57.962 -27.73 59.048 -27.816 60.168 C-27.877 60.999 -27.938 61.831 -28 62.688 C-29.65 62.358 -31.3 62.028 -33 61.688 C-33.819 46.76 -33.819 46.76 -29 40.688 C-25.522 37.596 -23.787 36.738 -19.125 36.438 C-18.094 36.52 -17.062 36.603 -16 36.688 C-16.494 35.856 -16.987 35.025 -17.496 34.168 C-18.457 32.538 -18.457 32.538 -19.438 30.875 C-20.076 29.796 -20.714 28.717 -21.371 27.605 C-24.882 21.316 -24.964 14.733 -24 7.688 C-21.922 3.793 -19.331 0.515 -15.074 -0.996 C-9.895 -1.786 -4.85 -2.122 0 0 Z " fill="#39393A" transform="translate(872,298.3125)"/>
<path d="M0 0 C10.23 0 20.46 0 31 0 C31.33 23.1 31.66 46.2 32 70 C30.128 66.255 29.754 65.15 29.805 61.234 C29.81 60.432 29.815 59.63 29.82 58.804 C29.838 57.796 29.856 56.788 29.875 55.75 C29.916 52.533 29.957 49.315 30 46 C20.1 46 10.2 46 0 46 C0 43.69 0 41.38 0 39 C-3.292 39.139 -6.584 39.287 -9.875 39.438 C-10.812 39.477 -11.749 39.516 -12.715 39.557 C-13.611 39.599 -14.507 39.64 -15.43 39.684 C-16.257 39.72 -17.085 39.757 -17.937 39.795 C-20.062 39.882 -20.062 39.882 -22 41 C-21.67 40.01 -21.34 39.02 -21 38 C-14.07 38 -7.14 38 0 38 C0 35.03 0 32.06 0 29 C9.9 29 19.8 29 30 29 C30 24.71 30 20.42 30 16 C20.1 16 10.2 16 0 16 C0 10.72 0 5.44 0 0 Z " fill="#8E8E8E" transform="translate(380,505)"/>
<path d="M0 0 C5.28 0 10.56 0 16 0 C16 9.9 16 19.8 16 30 C19.96 30 23.92 30 28 30 C28 20.1 28 10.2 28 0 C33.28 0 38.56 0 44 0 C44 9.9 44 19.8 44 30 C50.6 30 57.2 30 64 30 C64 30.33 64 30.66 64 31 C42.88 31 21.76 31 0 31 C0 20.77 0 10.54 0 0 Z " fill="#8E8E8E" transform="translate(505,377)"/>
<path d="M0 0 C4.29 0 8.58 0 13 0 C13 22.77 13 45.54 13 69 C8.71 69 4.42 69 0 69 C0 46.23 0 23.46 0 0 Z " fill="#2C2B2D" transform="translate(541,474)"/>
<path d="M0 0 C3.979 2.063 6.671 4.186 9 8 C11.064 17.282 10.275 24.379 5.543 32.707 C4 35 4 35 2 37 C0.68 37 -0.64 37 -2 37 C-1.732 36.505 -1.464 36.01 -1.188 35.5 C2.414 27.917 3.416 22.385 3 14 C2.492 14.361 1.984 14.722 1.461 15.094 C-2.767 17.944 -5.729 19.937 -11 19 C-12.65 18.01 -14.3 17.02 -16 16 C-15.34 20.62 -14.68 25.24 -14 30 C-14.99 30.33 -15.98 30.66 -17 31 C-19.714 26.226 -21.566 22.656 -21 17 C-20.34 17 -19.68 17 -19 17 C-19.046 16.408 -19.093 15.817 -19.141 15.207 C-19.324 11.186 -19.391 8.692 -17.375 5.125 C-12.087 0.394 -6.966 -1.136 0 0 Z " fill="#39393A" transform="translate(867,654)"/>
<path d="M0 0 C2.23 0.852 2.23 0.852 4 2 C4.51 12.104 3.161 19.852 -3 28 C-5 30 -5 30 -8.25 30.562 C-12.8 29.88 -13.967 28.754 -16.645 25.18 C-21.378 17.568 -22.609 10.899 -22 2 C-21.361 2.495 -20.721 2.99 -20.062 3.5 C-15.93 5.524 -12.524 5.86 -8 5 C-5.759 3.793 -3.818 2.478 -1.824 0.898 C-1.222 0.602 -0.62 0.305 0 0 Z " fill="#FEFEFE" transform="translate(523,140)"/>
<path d="M0 0 C3 1 3 1 4 3 C4.921 12.37 2.653 20.623 -2.547 28.453 C-4 30 -4 30 -7.5 31.25 C-11.85 30.939 -13.088 30.227 -16 27 C-17.576 24.423 -18.822 21.779 -20 19 C-20.413 18.051 -20.825 17.102 -21.25 16.125 C-22.303 11.736 -22.16 7.491 -22 3 C-20 4 -18 5 -16 6 C-10.912 6.727 -8.329 5.812 -4.25 2.938 C-3.144 2.085 -3.144 2.085 -2.016 1.215 C-1.35 0.814 -0.685 0.413 0 0 Z " fill="#FEFEFE" transform="translate(523,819)"/>
<path d="M0 0 C10.23 0 20.46 0 31 0 C31 5.61 31 11.22 31 17 C20.77 17 10.54 17 0 17 C0 11.39 0 5.78 0 0 Z " fill="#8E8E8E" transform="translate(614,534)"/>
<path d="M0 0 C5.28 0 10.56 0 16 0 C16 16.17 16 32.34 16 49 C15.67 49 15.34 49 15 49 C15 43.06 15 37.12 15 31 C10.05 31 5.1 31 0 31 C0 20.77 0 10.54 0 0 Z " fill="#8E8E8E" transform="translate(533,614)"/>
<path d="M0 0 C10.23 0 20.46 0 31 0 C31 5.28 31 10.56 31 16 C20.77 16 10.54 16 0 16 C0 10.72 0 5.44 0 0 Z " fill="#8E8E8E" transform="translate(614,505)"/>
<path d="M0 0 C10.23 0 20.46 0 31 0 C31 5.28 31 10.56 31 16 C20.77 16 10.54 16 0 16 C0 10.72 0 5.44 0 0 Z " fill="#838384" transform="translate(380,505)"/>
<path d="M0 0 C0.99 0.33 1.98 0.66 3 1 C3.572 11.133 2.881 18.894 -3.375 27.125 C-6 29 -6 29 -8.938 29.75 C-13.606 28.607 -15.527 26.009 -18 22 C-21.285 15.258 -22.489 9.46 -22 2 C-21.361 2.495 -20.721 2.99 -20.062 3.5 C-15.925 5.526 -12.529 5.851 -8 5 C-5.728 3.831 -3.76 2.54 -1.727 0.996 C-1.157 0.667 -0.587 0.339 0 0 Z " fill="#FEFEFE" transform="translate(868,483)"/>
<path d="M0 0 C10.23 0 20.46 0 31 0 C31 5.28 31 10.56 31 16 C20.77 16 10.54 16 0 16 C0 10.72 0 5.44 0 0 Z " fill="#8E8E8E" transform="translate(614,474)"/>
<path d="M0 0 C3.168 1.716 4.927 3.188 6.938 6.203 C7.316 8.43 7.316 8.43 7.5 10.828 C7.527 13.814 7.527 13.814 8.938 16.203 C9.587 21.531 8.067 25.914 4.938 30.203 C2.958 31.193 2.958 31.193 0.938 32.203 C1.597 25.603 2.257 19.003 2.938 12.203 C1.597 13.193 0.256 14.183 -1.125 15.203 C-5.305 17.985 -7.956 18.989 -13.062 18.203 C-14.737 17.556 -16.406 16.894 -18.062 16.203 C-19.053 16.533 -20.042 16.863 -21.062 17.203 C-21.683 8.325 -21.683 8.325 -19.438 4.266 C-13.761 -0.664 -7.241 -2.798 0 0 Z " fill="#2C2B2D" transform="translate(165.0625,654.796875)"/>
<path d="M0 0 C0.66 0.33 1.32 0.66 2 1 C2.537 11.481 1.645 18.167 -3.875 27 C-6 29 -6 29 -8.938 30.125 C-12 30 -12 30 -14.562 28.188 C-21.009 20.761 -23.159 12.521 -23 3 C-21 4 -19 5 -17 6 C-10.425 6.805 -6.335 4.492 -1 1 C-0.67 0.67 -0.34 0.34 0 0 Z " fill="#FEFEFE" transform="translate(169,482)"/>
<path d="M0 0 C9.9 0 19.8 0 30 0 C30 5.28 30 10.56 30 16 C20.1 16 10.2 16 0 16 C0 10.72 0 5.44 0 0 Z " fill="#838384" transform="translate(381,474)"/>
<path d="M0 0 C4.95 0 9.9 0 15 0 C15 10.23 15 20.46 15 31 C10.05 31 5.1 31 0 31 C0 20.77 0 10.54 0 0 Z " fill="#838384" transform="translate(505,377)"/>
<path d="M0 0 C4.95 0 9.9 0 15 0 C15 10.23 15 20.46 15 31 C10.05 31 5.1 31 0 31 C0 20.77 0 10.54 0 0 Z " fill="#838384" transform="translate(477,377)"/>
<path d="M0 0 C0.33 0 0.66 0 1 0 C1 6.6 1 13.2 1 20 C5.053 19.879 9.106 19.756 13.158 19.628 C14.531 19.585 15.904 19.543 17.277 19.503 C20.591 19.405 23.903 19.29 27.215 19.151 C29.643 19.054 32.072 18.99 34.502 18.966 C40.869 18.862 40.869 18.862 45.816 15.164 C46.681 13.412 46.681 13.412 47.562 11.625 C51.604 3.786 51.604 3.786 54 2 C57.48 2.261 59.051 3.034 62 5 C63.018 11.427 60.664 14.903 57.062 19.875 C56.594 20.55 56.125 21.226 55.643 21.922 C52.328 26.672 52.328 26.672 51 28 C48.198 28.1 45.427 28.139 42.625 28.125 C41.844 28.129 41.063 28.133 40.258 28.137 C36.923 28.131 34.184 28.061 31 27 C31 25.02 31 23.04 31 21 C20.77 21 10.54 21 0 21 C0 14.07 0 7.14 0 0 Z " fill="#EEEDEE" transform="translate(614,453)"/>
<path d="M0 0 C4.95 0 9.9 0 15 0 C15 9.9 15 19.8 15 30 C10.05 30 5.1 30 0 30 C0 20.1 0 10.2 0 0 Z " fill="#838384" transform="translate(505,614)"/>
<path d="M0 0 C4.95 0 9.9 0 15 0 C15 9.9 15 19.8 15 30 C10.05 30 5.1 30 0 30 C0 20.1 0 10.2 0 0 Z " fill="#838384" transform="translate(477,614)"/>
<path d="M0 0 C7.49 2.274 14.301 5.416 21.312 8.875 C23.736 10.056 26.16 11.236 28.586 12.414 C29.204 12.714 29.821 13.015 30.458 13.324 C36.749 16.377 43.089 19.32 49.438 22.25 C60.191 27.22 70.916 32.248 81.625 37.312 C82.372 37.666 83.119 38.019 83.889 38.383 C90.038 41.291 90.038 41.291 93.001 42.692 C101.745 46.827 110.497 50.945 119.25 55.062 C120.002 55.416 120.754 55.77 121.529 56.134 C125.686 58.09 129.843 60.045 134 62 C134 62.99 134 63.98 134 65 C126.684 62.812 120.023 59.741 113.184 56.362 C109.977 54.778 106.762 53.213 103.547 51.648 C102.905 51.336 102.262 51.023 101.6 50.7 C95.801 47.884 89.945 45.202 84.062 42.562 C78.357 40 72.699 37.4 67.125 34.562 C60.26 31.073 53.268 27.891 46.26 24.702 C36.68 20.333 27.149 15.863 17.625 11.375 C16.862 11.015 16.098 10.656 15.312 10.285 C13.137 9.261 10.963 8.236 8.789 7.211 C8.132 6.901 7.475 6.591 6.797 6.272 C2.242 4.121 2.242 4.121 0 3 C0 2.01 0 1.02 0 0 Z " fill="#39393A" transform="translate(207,349)"/>
<path d="M0 0 C0 0.99 0 1.98 0 3 C-0.641 3.295 -1.282 3.591 -1.942 3.895 C-25.721 14.857 -49.484 25.853 -73.166 37.022 C-80.707 40.578 -88.252 44.127 -95.82 47.625 C-96.439 47.911 -97.058 48.197 -97.695 48.492 C-100.66 49.862 -103.626 51.231 -106.591 52.6 C-113.652 55.873 -120.656 59.233 -127.563 62.818 C-131.8 65 -131.8 65 -134 65 C-133.814 63.174 -133.814 63.174 -133 61 C-130.852 59.559 -130.852 59.559 -127.98 58.223 C-126.911 57.716 -125.841 57.21 -124.739 56.688 C-123.567 56.152 -122.395 55.615 -121.188 55.062 C-119.957 54.487 -118.727 53.909 -117.498 53.331 C-114.295 51.829 -111.085 50.344 -107.873 48.864 C-104.992 47.535 -102.118 46.195 -99.242 44.855 C-95.87 43.286 -92.496 41.719 -89.12 40.158 C-79.388 35.659 -69.691 31.087 -60 26.5 C-48.829 21.214 -37.648 15.952 -26.438 10.75 C-24.781 9.981 -24.781 9.981 -23.092 9.197 C-21.043 8.248 -18.992 7.301 -16.941 6.357 C-14.92 5.425 -12.904 4.483 -10.891 3.533 C-9.907 3.074 -8.924 2.614 -7.91 2.141 C-6.599 1.522 -6.599 1.522 -5.262 0.892 C-3 0 -3 0 0 0 Z " fill="#434446" transform="translate(816,349)"/>
<path d="M0 0 C1.719 1.77 1.719 1.77 3.328 3.703 C5.703 6.41 8.535 8.217 11.527 10.188 C12.024 10.668 12.52 11.149 13.031 11.645 C13.031 12.965 13.031 14.285 13.031 15.645 C9.401 17.295 5.771 18.945 2.031 20.645 C-0.991 18.399 -2.913 16.74 -4.844 13.457 C-6.93 10.742 -8.139 10.616 -11.621 10.039 C-15.403 9.735 -19.175 9.654 -22.969 9.645 C-22.969 6.675 -22.969 3.705 -22.969 0.645 C-5.087 -3.502 -5.087 -3.502 0 0 Z " fill="#EEEDEE" transform="translate(667.96875,542.35546875)"/>
<path d="M0 0 C-1 3 -1 3 -3.455 4.435 C-4.541 4.93 -5.627 5.424 -6.746 5.934 C-7.339 6.207 -7.932 6.481 -8.543 6.762 C-10.503 7.664 -12.47 8.551 -14.438 9.438 C-15.818 10.069 -17.197 10.701 -18.576 11.335 C-21.386 12.624 -24.198 13.907 -27.012 15.185 C-31.492 17.221 -35.959 19.287 -40.425 21.355 C-43.546 22.8 -46.669 24.241 -49.793 25.68 C-51.488 26.46 -51.488 26.46 -53.216 27.257 C-53.82 27.535 -54.423 27.813 -55.044 28.099 C-84.138 41.503 -84.138 41.503 -113.188 55 C-113.821 55.295 -114.455 55.591 -115.108 55.895 C-121.679 58.88 -121.679 58.88 -128.099 62.164 C-130 63 -130 63 -134 63 C-133 60 -133 60 -130.289 58.429 C-129.073 57.853 -127.851 57.289 -126.625 56.734 C-125.962 56.424 -125.299 56.115 -124.616 55.795 C-122.415 54.77 -120.208 53.76 -118 52.75 C-116.452 52.033 -114.905 51.315 -113.357 50.596 C-101.743 45.212 -90.082 39.928 -78.418 34.654 C-66.994 29.483 -55.646 24.16 -44.309 18.802 C-32.265 13.113 -20.181 7.516 -8.074 1.961 C-3.842 0 -3.842 0 0 0 Z " fill="#39393A" transform="translate(345,616)"/>
<path d="M0 0 C4.453 0.569 7.976 1.708 12.023 3.633 C13.193 4.184 14.362 4.735 15.567 5.303 C16.836 5.91 18.106 6.518 19.375 7.125 C20.708 7.756 22.041 8.386 23.375 9.015 C26.171 10.336 28.966 11.661 31.76 12.989 C37.87 15.89 43.996 18.756 50.121 21.624 C52.135 22.567 54.149 23.512 56.162 24.457 C64.866 28.541 73.586 32.59 82.312 36.625 C92.939 41.541 103.503 46.573 114.034 51.688 C119.977 54.57 125.94 57.371 132 60 C131.67 60.99 131.34 61.98 131 63 C126.669 61.649 122.687 59.981 118.617 57.98 C118.014 57.686 117.411 57.391 116.79 57.088 C115.494 56.455 114.198 55.82 112.903 55.183 C109.413 53.469 105.916 51.769 102.418 50.07 C101.706 49.724 100.994 49.379 100.261 49.022 C93.604 45.794 86.905 42.663 80.188 39.562 C69.77 34.753 59.378 29.894 49 25 C36.879 19.285 24.741 13.61 12.578 7.984 C11.503 7.487 10.428 6.989 9.32 6.477 C8.385 6.044 7.449 5.612 6.485 5.167 C4.305 4.143 2.148 3.089 0 2 C0 1.34 0 0.68 0 0 Z " fill="#39393A" transform="translate(679,616)"/>
<path d="M0 0 C0.893 0.006 1.785 0.013 2.705 0.02 C4.098 0.045 4.098 0.045 5.52 0.07 C6.46 0.079 7.4 0.088 8.369 0.098 C10.69 0.121 13.011 0.154 15.332 0.195 C15.332 2.835 15.332 5.475 15.332 8.195 C14.524 8.175 13.716 8.154 12.883 8.133 C6.749 8.05 6.749 8.05 1.562 10.797 C0.296 12.879 -0.7 14.96 -1.668 17.195 C-2.424 18.537 -3.194 19.871 -3.98 21.195 C-4.816 22.68 -4.816 22.68 -5.668 24.195 C-11.927 24.677 -11.927 24.677 -15.168 22.57 C-16.668 20.195 -16.668 20.195 -16.504 17.438 C-15.531 13.662 -13.994 11.155 -11.793 7.945 C-11.094 6.909 -10.396 5.872 -9.676 4.805 C-6.715 0.957 -4.713 -0.06 0 0 Z " fill="#EEEDEE" transform="translate(364.66796875,543.8046875)"/>
<path d="M0 0 C0.617 8.752 0.258 15.698 -5 23 C-8 25 -8 25 -10.438 24.938 C-14.968 23.28 -16.54 19.854 -18.75 15.75 C-20.227 11.32 -20.283 7.614 -20 3 C-19.408 3.321 -18.817 3.642 -18.207 3.973 C-14.907 5.509 -12.607 5.428 -9 5 C-6.998 3.842 -5.265 2.563 -3.48 1.094 C-2 0 -2 0 0 0 Z " fill="#FEFEFE" transform="translate(168,667)"/>
<path d="M0 0 C0.517 8.48 0.328 16.025 -5.488 22.711 C-7 24 -7 24 -9.375 24.562 C-12.601 23.871 -13.917 22.45 -15.863 19.84 C-19.253 14.353 -20.4 9.395 -20 3 C-18.948 3.495 -18.948 3.495 -17.875 4 C-14.511 5.17 -12.545 5.487 -9 5 C-6.771 3.824 -4.715 2.519 -2.637 1.094 C-1 0 -1 0 0 0 Z " fill="#FEFEFE" transform="translate(871,667)"/>
<path d="M0 0 C-0.188 1.875 -0.188 1.875 -1 4 C-3.562 5.25 -3.562 5.25 -6 6 C-1.093 25.142 9.053 42.992 26 53.938 C26.66 54.288 27.32 54.639 28 55 C27.532 59.776 26.757 63.045 24 67 C23.67 66.34 23.34 65.68 23 65 C23.777 63.055 23.777 63.055 24.938 60.875 C25.318 60.151 25.698 59.426 26.09 58.68 C26.39 58.125 26.691 57.571 27 57 C26.435 56.903 25.871 56.807 25.289 56.707 C13.269 52.994 3.964 38.209 -2.039 27.961 C-3 26 -3 26 -3 24 C-9.766 26.545 -16.149 29.529 -22.531 32.926 C-23.346 33.28 -24.161 33.635 -25 34 C-25.66 33.67 -26.32 33.34 -27 33 C-23.875 31.354 -20.75 29.708 -17.625 28.062 C-16.291 27.36 -16.291 27.36 -14.93 26.643 C-14.079 26.195 -13.228 25.747 -12.352 25.285 C-11.566 24.871 -10.781 24.458 -9.971 24.031 C-8.654 23.342 -7.33 22.665 -6 22 C-6.205 21.359 -6.41 20.719 -6.621 20.059 C-8.188 15.027 -9.43 10.24 -10 5 C-11.98 5 -13.96 5 -16 5 C-16.33 3.68 -16.66 2.36 -17 1 C-11.293 0.007 -5.786 -0.105 0 0 Z " fill="#D1D1D3" transform="translate(398,565)"/>
<path d="M0 0 C2.104 -0.027 4.208 -0.046 6.312 -0.062 C7.484 -0.074 8.656 -0.086 9.863 -0.098 C13 0 13 0 16 1 C15.34 2.32 14.68 3.64 14 5 C12.02 5 10.04 5 8 5 C7.918 6.279 7.835 7.558 7.75 8.875 C5.731 26.363 -7.283 43.047 -20.688 53.812 C-22.115 54.889 -23.548 55.957 -25 57 C-23.328 60.982 -20.606 64.021 -17.812 67.25 C-17.077 68.11 -17.077 68.11 -16.327 68.988 C-13.005 72.864 -9.647 76.708 -6.242 80.512 C-5 82 -5 82 -4 84 C-13.182 80.183 -19.973 68.576 -26 61 C-26.58 60.276 -27.16 59.551 -27.758 58.805 C-29 57 -29 57 -29 55 C-27.658 54.117 -26.315 53.237 -24.965 52.367 C-9.387 41.528 0.883 24.344 5 6 C3.35 5.34 1.7 4.68 0 4 C0 2.68 0 1.36 0 0 Z " fill="#D1D1D3" transform="translate(628,565)"/>
<path d="M0 0 C0.878 8.548 -0.567 14.246 -6 21 C-9 23 -9 23 -11.438 23 C-15.088 21.575 -16.122 19.354 -18 16 C-19.05 12.851 -19.101 10.612 -19.062 7.312 C-19.053 6.319 -19.044 5.325 -19.035 4.301 C-19.024 3.542 -19.012 2.782 -19 2 C-17.871 2.501 -17.871 2.501 -16.719 3.012 C-13.08 4.334 -10.743 3.869 -7 3 C-1.6 0 -1.6 0 0 0 Z " fill="#FEFEFE" transform="translate(168,311)"/>
<path d="M0 0 C0.755 14.935 0.755 14.935 -4 22 C-7 24 -7 24 -9.484 23.902 C-12.695 22.751 -13.496 21.448 -15.25 18.562 C-15.75 17.759 -16.25 16.956 -16.766 16.129 C-19.292 11.771 -19.081 9.026 -19 4 C-18.01 4.33 -17.02 4.66 -16 5 C-11.414 5.529 -8.85 5.207 -5.188 2.5 C-4.624 2.036 -4.061 1.572 -3.48 1.094 C-2 0 -2 0 0 0 Z " fill="#FEFEFE" transform="translate(872,309)"/>
<path d="M0 0 C2.781 2.781 3.687 6.123 5 9.75 C5.26 10.454 5.521 11.158 5.789 11.883 C7.268 15.902 8.644 19.933 10 24 C3.73 24 -2.54 24 -9 24 C-7.874 17.246 -7.874 17.246 -6.406 13.73 C-6.098 12.987 -5.79 12.244 -5.473 11.479 C-5.152 10.722 -4.831 9.966 -4.5 9.188 C-4.019 8.024 -4.019 8.024 -3.527 6.838 C-1.148 1.148 -1.148 1.148 0 0 Z " fill="#EEEDEE" transform="translate(495,490)"/>
<path d="M0 0 C7.793 1.171 13.162 2.565 18.375 8.875 C21.285 14.347 20.299 21.006 20 27 C18.35 27 16.7 27 15 27 C14.879 26.047 14.758 25.095 14.633 24.113 C14.465 22.859 14.298 21.605 14.125 20.312 C13.963 19.071 13.8 17.83 13.633 16.551 C12.892 12.055 12.892 12.055 11 8 C8.144 6.959 8.144 6.959 4.875 6.688 C3.779 6.547 2.684 6.406 1.555 6.262 C0.29 6.132 0.29 6.132 -1 6 C-0.67 4.02 -0.34 2.04 0 0 Z " fill="#434446" transform="translate(871,332)"/>
<path d="M0 0 C4.603 0.575 8.226 1.825 12.41 3.809 C13.011 4.091 13.613 4.374 14.232 4.665 C16.179 5.582 18.121 6.509 20.062 7.438 C21.404 8.074 22.746 8.71 24.089 9.345 C26.115 10.305 28.141 11.266 30.165 12.23 C34.299 14.2 38.447 16.136 42.609 18.047 C43.583 18.497 44.556 18.948 45.558 19.412 C47.358 20.246 49.161 21.072 50.967 21.89 C51.758 22.26 52.549 22.63 53.363 23.012 C54.047 23.326 54.73 23.64 55.435 23.964 C57 25 57 25 58 28 C53.35 27.356 49.419 25.483 45.234 23.465 C44.483 23.108 43.731 22.751 42.957 22.383 C40.552 21.24 38.151 20.089 35.75 18.938 C34.183 18.19 32.615 17.443 31.047 16.697 C27.929 15.213 24.813 13.726 21.697 12.238 C14.48 8.794 7.24 5.397 0 2 C0 1.34 0 0.68 0 0 Z " fill="#2C2B2D" transform="translate(679,616)"/>
<path d="M0 0 C1.707 1.559 1.707 1.559 3 3 C2.095 3.13 2.095 3.13 1.172 3.262 C-4.2 4.203 -4.2 4.203 -8.5 7.438 C-10.807 11.379 -11.224 14.694 -11.562 19.188 C-11.646 20.274 -11.73 21.361 -11.816 22.48 C-11.877 23.312 -11.938 24.143 -12 25 C-13.65 24.67 -15.3 24.34 -17 24 C-17.818 9.086 -17.818 9.086 -13 3 C-8.566 -1.04 -5.769 -1.633 0 0 Z " fill="#434446" transform="translate(856,336)"/>
<path d="M0 0 C4.972 1.492 9.418 3.605 14 6 C14.66 4.68 15.32 3.36 16 2 C16.66 2.66 17.32 3.32 18 4 C17.511 5.108 17.511 5.108 17.012 6.238 C14.074 13.057 11.747 19.784 10 27 C11.98 27 13.96 27 16 27 C16 28.32 16 29.64 16 31 C11.38 31 6.76 31 2 31 C1.67 29.68 1.34 28.36 1 27 C2.98 27 4.96 27 7 27 C7.082 25.721 7.165 24.442 7.25 23.125 C7.832 17.659 9.764 12.982 12 8 C11.134 7.506 10.267 7.013 9.375 6.504 C8.261 5.863 7.147 5.223 6 4.562 C4.886 3.924 3.772 3.286 2.625 2.629 C1.759 2.091 0.892 1.554 0 1 C0 0.67 0 0.34 0 0 Z " fill="#D1D1D3" transform="translate(381,429)"/>
<path d="M0 0 C0.66 0 1.32 0 2 0 C3.035 2.076 4.053 4.161 5.062 6.25 C5.631 7.41 6.199 8.57 6.785 9.766 C7.965 12.906 8.302 13.994 7 17 C4.339 15.982 3.195 15.333 1.734 12.836 C1.247 11.618 1.247 11.618 0.75 10.375 C0.415 9.558 0.08 8.74 -0.266 7.898 C-0.508 7.272 -0.75 6.645 -1 6 C-10.322 8.567 -18.404 11.311 -26.547 16.645 C-29 18 -29 18 -33 18 C-23.118 9.712 -13.056 3.985 0 3 C0 2.01 0 1.02 0 0 Z " fill="#D1D1D3" transform="translate(457,383)"/>
<path d="M0 0 C0.66 0.33 1.32 0.66 2 1 C2 1.66 2 2.32 2 3 C3.155 3.186 4.31 3.371 5.5 3.562 C10.345 4.627 14.727 6.45 19.25 8.438 C19.935 8.738 20.62 9.038 21.326 9.348 C24.313 10.688 27.075 12.047 29.859 13.785 C30.919 14.387 30.919 14.387 32 15 C32.66 14.67 33.32 14.34 34 14 C33.34 15.32 32.68 16.64 32 18 C28.683 17.373 26.529 16.135 23.75 14.25 C17.005 10.057 9.586 8.127 2 6 C0.68 9.3 -0.64 12.6 -2 16 C-3.32 16 -4.64 16 -6 16 C-5.473 10.859 -3.807 3.807 0 0 Z " fill="#D1D1D3" transform="translate(567,383)"/>
<path d="M0 0 C1.32 0.33 2.64 0.66 4 1 C4 1.66 4 2.32 4 3 C4.66 3.33 5.32 3.66 6 4 C6.731 6.314 7.401 8.648 8 11 C9.65 10.67 11.3 10.34 13 10 C12.67 10.66 12.34 11.32 12 12 C11.01 12 10.02 12 9 12 C9.33 12.99 9.66 13.98 10 15 C10.067 16.561 10.085 18.125 10.062 19.688 C10.053 20.496 10.044 21.304 10.035 22.137 C10.024 22.752 10.012 23.366 10 24 C12.64 24 15.28 24 18 24 C18 24.99 18 25.98 18 27 C14.935 28.533 11.732 28.103 8.375 28.062 C7.669 28.058 6.962 28.053 6.234 28.049 C4.49 28.037 2.745 28.019 1 28 C1.688 26.062 1.688 26.062 3 24 C5.625 23.25 5.625 23.25 8 23 C7.044 20.104 6.085 17.208 5.125 14.312 C4.856 13.496 4.586 12.679 4.309 11.838 C2.982 7.841 1.631 3.886 0 0 Z " fill="#D1D1D3" transform="translate(626,432)"/>
<path d="M0 0 C1.32 0.66 2.64 1.32 4 2 C2.965 5.105 2.214 5.786 0 8 C-1.988 11.303 -2.549 14.462 -3.125 18.25 C-3.293 19.328 -3.46 20.405 -3.633 21.516 C-3.754 22.335 -3.875 23.155 -4 24 C-7.875 23.125 -7.875 23.125 -9 22 C-9.611 15.276 -8.277 9.925 -5 4 C-2.25 1.375 -2.25 1.375 0 0 Z " fill="#434446" transform="translate(843,693)"/>
<path d="M0 0 C2.104 -0.027 4.208 -0.046 6.312 -0.062 C7.484 -0.074 8.656 -0.086 9.863 -0.098 C13 0 13 0 16 1 C15.34 2.32 14.68 3.64 14 5 C12.02 5 10.04 5 8 5 C7.918 6.279 7.835 7.558 7.75 8.875 C7.017 15.495 5.117 22.467 0 27 C-1.334 22.997 -0.22 21.477 1.375 17.625 C2.972 13.744 4.332 10.15 5 6 C2.525 5.01 2.525 5.01 0 4 C0 2.68 0 1.36 0 0 Z " fill="#D1D1D3" transform="translate(628,565)"/>
<path d="M0 0 C1.812 0.062 1.812 0.062 4 1 C6.252 5.182 7.162 8.301 7 13 C7.585 12.763 8.17 12.526 8.772 12.281 C11.431 11.206 14.09 10.134 16.75 9.062 C17.67 8.689 18.591 8.316 19.539 7.932 C20.429 7.574 21.318 7.216 22.234 6.848 C23.46 6.353 23.46 6.353 24.71 5.848 C26.818 5.068 28.781 4.361 31 4 C32.75 5.438 32.75 5.438 34 7 C33.67 7.66 33.34 8.32 33 9 C32.444 8.787 31.889 8.575 31.316 8.355 C28.177 7.874 26.731 8.852 23.938 10.312 C19.045 12.686 14.581 13.871 9.215 14.641 C6.967 14.892 6.967 14.892 5 16 C4.155 14.277 3.324 12.546 2.5 10.812 C2.036 9.85 1.572 8.887 1.094 7.895 C0.004 5.011 -0.223 3.046 0 0 Z " fill="#D1D1D3" transform="translate(561,622)"/>
<path d="M0 0 C2.939 1.327 5.031 2.775 7.312 5.047 C7.913 5.645 8.514 6.243 9.133 6.859 C9.749 7.483 10.365 8.107 11 8.75 C11.616 9.358 12.232 9.967 12.867 10.594 C16.427 14.169 19.361 17.698 22 22 C21.299 22.655 20.598 23.31 19.875 23.984 C13.801 29.828 9.047 35.426 4.656 42.664 C3 45 3 45 0 46 C2.958 35.812 10.366 28.086 18 21 C13.778 16.021 9.449 11.156 5.051 6.332 C3.251 4.286 1.597 2.206 0 0 Z " fill="#D1D1D3" transform="translate(397,386)"/>
<path d="M0 0 C-2.043 2.215 -3.874 3.609 -6.598 4.885 C-7.664 5.391 -7.664 5.391 -8.752 5.906 C-9.514 6.259 -10.277 6.613 -11.062 6.977 C-12.244 7.533 -12.244 7.533 -13.449 8.1 C-15.112 8.881 -16.777 9.659 -18.442 10.435 C-20.993 11.622 -23.54 12.818 -26.086 14.016 C-27.703 14.774 -29.32 15.532 -30.938 16.289 C-31.7 16.646 -32.463 17.004 -33.248 17.372 C-36.14 18.717 -38.971 19.99 -42 21 C-41.855 19.193 -41.855 19.193 -41 17 C-38.551 15.416 -38.551 15.416 -35.312 13.906 C-34.138 13.351 -32.964 12.795 -31.754 12.223 C-30.503 11.648 -29.251 11.074 -28 10.5 C-26.779 9.927 -25.559 9.353 -24.34 8.777 C-20.902 7.165 -17.454 5.578 -14 4 C-13.084 3.575 -12.168 3.15 -11.225 2.712 C-10.43 2.348 -9.635 1.984 -8.816 1.609 C-7.806 1.145 -7.806 1.145 -6.776 0.671 C-4.459 -0.204 -2.446 -0.316 0 0 Z " fill="#39393A" transform="translate(724,393)"/>
<path d="M0 0 C-1 3 -1 3 -3.756 4.594 C-4.97 5.169 -6.19 5.732 -7.414 6.285 C-8.062 6.587 -8.71 6.889 -9.377 7.2 C-10.752 7.837 -12.129 8.47 -13.508 9.098 C-15.601 10.052 -17.686 11.021 -19.77 11.994 C-21.109 12.613 -22.449 13.231 -23.789 13.848 C-24.406 14.134 -25.023 14.421 -25.659 14.716 C-29.719 16.556 -33.704 17.869 -38 19 C-38 18.01 -38 17.02 -38 16 C-33.236 13.711 -28.467 11.433 -23.693 9.164 C-22.07 8.391 -20.449 7.615 -18.828 6.836 C-16.498 5.717 -14.164 4.607 -11.828 3.5 C-11.105 3.15 -10.382 2.8 -9.637 2.439 C-6.114 0.781 -3.963 0 0 0 Z " fill="#39393A" transform="translate(345,616)"/>
<path d="M0 0 C0 0.99 0 1.98 0 3 C1.278 6.243 3.003 8.116 5.562 10.438 C9.161 13.937 12.086 17.642 14.938 21.75 C15.327 22.305 15.716 22.86 16.117 23.431 C18.012 26.22 19.486 28.639 20 32 C15.771 30.477 14.295 27.768 11.938 24.062 C7.4 17.15 2.039 11.632 -4 6 C-2.848 3.532 -1.952 1.952 0 0 Z " fill="#D1D1D3" transform="translate(609,401)"/>
<path d="M0 0 C0 0.99 0 1.98 0 3 C-3.627 4.695 -7.257 6.386 -10.889 8.072 C-12.123 8.646 -13.357 9.221 -14.59 9.798 C-16.366 10.628 -18.144 11.452 -19.922 12.277 C-20.99 12.775 -22.058 13.272 -23.159 13.785 C-27.739 15.744 -27.739 15.744 -30 16 C-30.99 15.34 -31.98 14.68 -33 14 C-28.786 11.999 -24.568 10.005 -20.347 8.019 C-18.912 7.342 -17.477 6.663 -16.044 5.981 C-13.983 5.003 -11.92 4.032 -9.855 3.062 C-9.215 2.756 -8.574 2.45 -7.914 2.135 C-5.076 0.81 -3.174 0 0 0 Z " fill="#434446" transform="translate(816,349)"/>
<path d="M0 0 C3.536 0.495 6.599 1.551 9.875 2.938 C13.879 4.586 17.813 5.908 22 7 C22 7.66 22 8.32 22 9 C15.738 9.712 11.341 7.684 5.672 5.094 C3.018 3.811 3.018 3.811 0 4 C-3.3 10.6 -6.6 17.2 -10 24 C-11 21 -11 21 -10.211 18.839 C-9.794 18.024 -9.376 17.208 -8.945 16.367 C-8.495 15.479 -8.046 14.591 -7.582 13.676 C-7.101 12.752 -6.62 11.827 -6.125 10.875 C-5.652 9.943 -5.179 9.011 -4.691 8.051 C-1.182 1.182 -1.182 1.182 0 0 Z " fill="#D1D1D3" transform="translate(434,627)"/>
<path d="M0 0 C0.99 0.33 1.98 0.66 3 1 C0.217 6.95 -3.396 12.024 -7.562 17.062 C-8.033 17.647 -8.504 18.231 -8.99 18.833 C-10.379 20.473 -10.379 20.473 -13 23 C-14.32 23 -15.64 23 -17 23 C-16.196 22.113 -15.391 21.226 -14.562 20.312 C-9.128 13.996 -4.615 6.922 0 0 Z " fill="#D1D1D3" transform="translate(626,591)"/>
<path d="M0 0 C0.99 0 1.98 0 3 0 C4.473 1.504 4.473 1.504 6.062 3.562 C10.062 8.377 14.768 11.631 20 15 C19.532 19.776 18.757 23.045 16 27 C15.67 26.34 15.34 25.68 15 25 C15.777 23.055 15.777 23.055 16.938 20.875 C17.318 20.151 17.698 19.426 18.09 18.68 C18.39 18.125 18.691 17.571 19 17 C18.442 16.911 17.884 16.822 17.309 16.73 C10.406 14.546 4.136 7.79 0 2 C0 1.34 0 0.68 0 0 Z " fill="#D1D1D3" transform="translate(406,605)"/>
<path d="M0 0 C-3.275 3.572 -7.099 5.173 -11.438 7.188 C-12.201 7.556 -12.965 7.924 -13.752 8.303 C-14.863 8.824 -14.863 8.824 -15.996 9.355 C-16.668 9.672 -17.34 9.988 -18.033 10.313 C-20 11 -20 11 -24 11 C-23 8 -23 8 -21.206 6.817 C-18.705 5.616 -16.204 4.419 -13.688 3.25 C-12.819 2.826 -11.951 2.402 -11.057 1.965 C-10.217 1.569 -9.377 1.173 -8.512 0.766 C-7.743 0.402 -6.974 0.039 -6.182 -0.335 C-3.69 -1.095 -2.424 -0.861 0 0 Z " fill="#434446" transform="translate(235,668)"/>
<path d="M0 0 C0.99 0.33 1.98 0.66 3 1 C2.524 7.028 -0.197 11.767 -3 17 C-3.66 17 -4.32 17 -5 17 C-5.528 10.791 -3.921 6.466 -1 1 C-0.67 0.67 -0.34 0.34 0 0 Z " fill="#5E5C60" transform="translate(462,621)"/>
<path d="M0 0 C0.66 0 1.32 0 2 0 C3.035 2.076 4.053 4.161 5.062 6.25 C5.631 7.41 6.199 8.57 6.785 9.766 C7.965 12.906 8.302 13.994 7 17 C5.188 16.5 5.188 16.5 3 15 C0.263 10.109 -0.345 5.514 0 0 Z " fill="#39393A" transform="translate(457,383)"/>
<path d="M0 0 C-2.121 2.318 -4.07 3.706 -6.906 5.043 C-7.65 5.394 -8.394 5.746 -9.16 6.107 C-10.318 6.642 -10.318 6.642 -11.5 7.188 C-12.272 7.556 -13.044 7.924 -13.84 8.303 C-19.615 11 -19.615 11 -23 11 C-22 8 -22 8 -20.405 6.925 C-19.73 6.606 -19.055 6.286 -18.359 5.957 C-17.618 5.606 -16.877 5.254 -16.113 4.893 C-15.333 4.536 -14.554 4.18 -13.75 3.812 C-12.603 3.26 -12.603 3.26 -11.434 2.697 C-7.517 0.874 -4.423 -0.54 0 0 Z " fill="#39393A" transform="translate(786,364)"/>
<path d="M0 0 C1.812 0.062 1.812 0.062 4 1 C6.717 5.851 7.345 9.37 7 15 C6.01 15.495 6.01 15.495 5 16 C4.155 14.277 3.324 12.546 2.5 10.812 C2.036 9.85 1.572 8.887 1.094 7.895 C0.004 5.011 -0.223 3.046 0 0 Z " fill="#434446" transform="translate(561,622)"/>
<path d="M0 0 C4.95 0 9.9 0 15 0 C15 0.99 15 1.98 15 3 C11.935 4.533 8.732 4.103 5.375 4.062 C4.669 4.058 3.962 4.053 3.234 4.049 C1.49 4.037 -0.255 4.019 -2 4 C-1.34 2.68 -0.68 1.36 0 0 Z " fill="#39393A" transform="translate(629,456)"/>
<path d="M0 0 C0.33 0 0.66 0 1 0 C1.487 6.701 0.077 11.066 -3 17 C-3.99 16.67 -4.98 16.34 -6 16 C-5.473 10.859 -3.807 3.807 0 0 Z " fill="#434446" transform="translate(567,383)"/>
<path d="M0 0 C4.95 0 9.9 0 15 0 C15 1.32 15 2.64 15 4 C10.38 4 5.76 4 1 4 C0.67 2.68 0.34 1.36 0 0 Z " fill="#434446" transform="translate(382,456)"/>
<path d="M0 0 C2.104 -0.027 4.208 -0.046 6.312 -0.062 C7.484 -0.074 8.656 -0.086 9.863 -0.098 C13 0 13 0 16 1 C15.67 1.99 15.34 2.98 15 4 C10.05 4 5.1 4 0 4 C0 2.68 0 1.36 0 0 Z " fill="#39393A" transform="translate(628,565)"/>
<path d="M0 0 C-0.33 1.32 -0.66 2.64 -1 4 C-5.95 4 -10.9 4 -16 4 C-16.33 3.01 -16.66 2.02 -17 1 C-11.293 0.007 -5.786 -0.105 0 0 Z " fill="#39393A" transform="translate(398,565)"/>
<path d="M0 0 C5.999 1.833 11.449 4.073 17 7 C16.67 7.99 16.34 8.98 16 10 C10.315 8.354 5.233 5.71 0 3 C0 2.01 0 1.02 0 0 Z " fill="#39393A" transform="translate(207,349)"/>
<path d="M0 0 C5.92 1.76 11.416 4.397 17 7 C16.67 7.99 16.34 8.98 16 10 C11.64 8.652 7.687 6.951 3.625 4.875 C2.565 4.336 1.506 3.797 0.414 3.242 C-0.383 2.832 -1.179 2.422 -2 2 C-1.34 1.34 -0.68 0.68 0 0 Z " fill="#39393A" transform="translate(794,669)"/>
<path d="M0 0 C0.66 0 1.32 0 2 0 C1.525 2.147 1.045 4.292 0.562 6.438 C0.296 7.632 0.029 8.827 -0.246 10.059 C-1 13 -1 13 -2 14 C-2.157 15.633 -2.251 17.271 -2.316 18.91 C-2.358 19.9 -2.4 20.889 -2.443 21.908 C-2.483 22.949 -2.522 23.99 -2.562 25.062 C-2.606 26.107 -2.649 27.152 -2.693 28.229 C-2.8 30.819 -2.902 33.409 -3 36 C-3.33 36 -3.66 36 -4 36 C-4.826 11.224 -4.826 11.224 0 0 Z " fill="#524F50" transform="translate(456,821)"/>
<path d="M0 0 C-1 3 -1 3 -3.836 4.641 C-5.004 5.172 -6.172 5.703 -7.375 6.25 C-8.538 6.791 -9.7 7.333 -10.898 7.891 C-14 9 -14 9 -17 8 C-14.643 5.364 -12.215 3.891 -9.062 2.312 C-7.781 1.657 -7.781 1.657 -6.473 0.988 C-4 0 -4 0 0 0 Z " fill="#39393A" transform="translate(345,616)"/>
<path d="M0 0 C0.33 0 0.66 0 1 0 C1.33 2.31 1.66 4.62 2 7 C2.99 7 3.98 7 5 7 C4.67 10.3 4.34 13.6 4 17 C3.01 17 2.02 17 1 17 C-0.187 13.44 -0.097 10.562 -0.062 6.812 C-0.053 5.54 -0.044 4.268 -0.035 2.957 C-0.024 1.981 -0.012 1.005 0 0 Z " fill="#434446" transform="translate(848,306)"/>
<path d="M0 0 C4.143 0.598 7.182 2.007 10.812 4.062 C11.788 4.61 12.764 5.158 13.77 5.723 C14.506 6.144 15.242 6.566 16 7 C16 7.66 16 8.32 16 9 C11.857 8.402 8.818 6.993 5.188 4.938 C4.212 4.39 3.236 3.842 2.23 3.277 C1.494 2.856 0.758 2.434 0 2 C0 1.34 0 0.68 0 0 Z " fill="#2C2B2D" transform="translate(721,635)"/>
<path d="M0 0 C-1 3 -1 3 -3.652 4.605 C-4.736 5.128 -5.821 5.65 -6.938 6.188 C-8.019 6.717 -9.101 7.247 -10.215 7.793 C-13 9 -13 9 -15 9 C-14.801 7.172 -14.801 7.172 -14 5 C-11.855 3.516 -11.855 3.516 -9.188 2.25 C-7.878 1.608 -7.878 1.608 -6.543 0.953 C-4 0 -4 0 0 0 Z " fill="#2C2B2D" transform="translate(697,405)"/>
<path d="M0 0 C0 0.66 0 1.32 0 2 C-3.369 5.171 -6.463 7.014 -11 8 C-11.99 7.34 -12.98 6.68 -14 6 C-12.044 4.995 -10.085 3.996 -8.125 3 C-6.489 2.165 -6.489 2.165 -4.82 1.312 C-2 0 -2 0 0 0 Z " fill="#434446" transform="translate(735,386)"/>
<path d="M0 0 C4.033 1.219 7.543 2.56 11 5 C11 5.66 11 6.32 11 7 C6.611 6.335 3.019 4.812 -1 3 C-0.67 2.01 -0.34 1.02 0 0 Z " fill="#2C2B2D" transform="translate(737,642)"/>
<path d="M0 0 C1.32 0 2.64 0 4 0 C4 3.3 4 6.6 4 10 C3.01 10.33 2.02 10.66 1 11 C-0.176 7.326 -0.074 3.831 0 0 Z " fill="#434446" transform="translate(143,313)"/>
<path d="M0 0 C3.487 1.109 6.775 2.263 10 4 C9.67 4.99 9.34 5.98 9 7 C5.088 5.844 2.125 4.645 -1 2 C-0.67 1.34 -0.34 0.68 0 0 Z " fill="#39393A" transform="translate(312,398)"/>
<path d="M0 0 C0.66 0 1.32 0 2 0 C2.672 1.289 3.337 2.581 4 3.875 C4.371 4.594 4.743 5.314 5.125 6.055 C6 8 6 8 6 10 C5.34 10 4.68 10 4 10 C3.67 9.34 3.34 8.68 3 8 C2.34 8.99 1.68 9.98 1 11 C-0.176 7.326 -0.074 3.831 0 0 Z " fill="#5E5C60" transform="translate(457,383)"/>
<path d="M0 0 C0 0.99 0 1.98 0 3 C-1.32 2.34 -2.64 1.68 -4 1 C-8.585 3.581 -8.585 3.581 -11 8 C-11.66 8 -12.32 8 -13 8 C-13.33 6.68 -13.66 5.36 -14 4 C-12.615 3.128 -11.217 2.278 -9.812 1.438 C-8.647 0.724 -8.647 0.724 -7.457 -0.004 C-4.516 -1.196 -2.996 -0.889 0 0 Z " fill="#D1D1D3" transform="translate(357,464)"/>
<path d="M0 0 C0.33 0.99 0.66 1.98 1 3 C-1.97 4.32 -4.94 5.64 -8 7 C-8 6.34 -8 5.68 -8 5 C-8.66 4.67 -9.32 4.34 -10 4 C-8.711 3.328 -7.419 2.663 -6.125 2 C-5.406 1.629 -4.686 1.258 -3.945 0.875 C-2 0 -2 0 0 0 Z " fill="#434446" transform="translate(289,641)"/>
<path d="M0 0 C5.75 1.875 5.75 1.875 8 3 C8.625 5.062 8.625 5.062 9 7 C5.667 5.667 2.333 4.333 -1 3 C-0.67 2.01 -0.34 1.02 0 0 Z " fill="#39393A" transform="translate(276,381)"/>
<path d="M0 0 C3.941 0.563 6.751 1.679 10 4 C10 4.66 10 5.32 10 6 C6.059 5.437 3.249 4.321 0 2 C0 1.34 0 0.68 0 0 Z " fill="#2C2B2D" transform="translate(266,377)"/>
<path d="M0 0 C3.403 1.059 6.014 2.009 9 4 C9 4.66 9 5.32 9 6 C5.042 5.435 2.334 4.191 -1 2 C-0.67 1.34 -0.34 0.68 0 0 Z " fill="#2C2B2D" transform="translate(235,362)"/>
<path d="M0 0 C0.866 0.557 0.866 0.557 1.75 1.125 C1.75 2.115 1.75 3.105 1.75 4.125 C1.193 3.919 0.636 3.712 0.062 3.5 C-2.91 3.018 -4.57 3.859 -7.25 5.125 C-7 3.25 -7 3.25 -6.25 1.125 C-3.785 -0.745 -2.929 -1.139 0 0 Z " fill="#D1D1D3" transform="translate(592.25,626.875)"/>
<path d="M0 0 C1.32 0.33 2.64 0.66 4 1 C4.625 2.812 4.625 2.812 5 5 C4.01 6.485 4.01 6.485 3 8 C3 7.34 3 6.68 3 6 C2.01 5.67 1.02 5.34 0 5 C0 3.35 0 1.7 0 0 Z " fill="#39393A" transform="translate(561,622)"/>
<path d="M0 0 C3.403 1.059 6.014 2.009 9 4 C9 4.66 9 5.32 9 6 C6.237 5.477 3.674 4.891 1 4 C0.312 1.938 0.312 1.938 0 0 Z " fill="#2C2B2D" transform="translate(284,385)"/>
<path d="M0 0 C5.75 1.75 5.75 1.75 8 4 C7.67 4.66 7.34 5.32 7 6 C1.25 4.25 1.25 4.25 -1 2 C-0.67 1.34 -0.34 0.68 0 0 Z " fill="#39393A" transform="translate(244,366)"/>
<path d="M0 0 C0 0.99 0 1.98 0 3 C-2.64 3.99 -5.28 4.98 -8 6 C-8 5.34 -8 4.68 -8 4 C-8.66 3.67 -9.32 3.34 -10 3 C-3.375 0 -3.375 0 0 0 Z " fill="#524F50" transform="translate(816,349)"/>
<path d="M0 0 C2.97 0.99 5.94 1.98 9 3 C8.67 3.99 8.34 4.98 8 6 C2.25 4.125 2.25 4.125 0 3 C0 2.01 0 1.02 0 0 Z " fill="#434446" transform="translate(207,349)"/>
<path d="M0 0 C4.95 0 9.9 0 15 0 C14.67 0.99 14.34 1.98 14 3 C14 2.34 14 1.68 14 1 C9.621 1.52 5.312 2.057 1 3 C0.67 2.01 0.34 1.02 0 0 Z " fill="#524F50" transform="translate(629,456)"/>
<path d="M0 0 C-2.53 3.092 -5.225 3.909 -9 5 C-9 4.01 -9 3.02 -9 2 C-5.865 0.142 -3.625 -0.201 0 0 Z " fill="#2C2B2D" transform="translate(338,620)"/>
<path d="M0 0 C2 1 2 1 2.688 2.812 C3.027 5.188 2.729 6.733 2 9 C1.01 9 0.02 9 -1 9 C-0.67 6.03 -0.34 3.06 0 0 Z " fill="#DBDCDC" transform="translate(389,447)"/>
<path d="M0 0 C0 0.66 0 1.32 0 2 C-1.264 2.7 -2.537 3.384 -3.812 4.062 C-4.52 4.445 -5.228 4.828 -5.957 5.223 C-8 6 -8 6 -11 5 C-10.361 4.897 -9.721 4.794 -9.062 4.688 C-8.382 4.461 -7.701 4.234 -7 4 C-6.67 3.01 -6.34 2.02 -6 1 C-4 0 -4 0 0 0 Z " fill="#2C2B2D" transform="translate(742,384)"/>
<path d="M0 0 C3.375 0.547 5.082 1.055 8 3 C8 3.66 8 4.32 8 5 C2.25 4.125 2.25 4.125 0 3 C0 2.01 0 1.02 0 0 Z " fill="#2C2B2D" transform="translate(251,370)"/>
<path d="M0 0 C0.33 0 0.66 0 1 0 C1.223 2.061 1.428 4.124 1.625 6.188 C1.741 7.336 1.857 8.485 1.977 9.668 C2 13.033 1.474 15.012 0 18 C-0.66 16.68 -1.32 15.36 -2 14 C-1.67 13.67 -1.34 13.34 -1 13 C-0.765 10.817 -0.586 8.628 -0.438 6.438 C-0.354 5.24 -0.27 4.042 -0.184 2.809 C-0.123 1.882 -0.062 0.955 0 0 Z " fill="#5E5C60" transform="translate(148,313)"/>
<path d="M0 0 C0.66 0.99 1.32 1.98 2 3 C-1.465 4.485 -1.465 4.485 -5 6 C-5 5.34 -5 4.68 -5 4 C-5.66 3.67 -6.32 3.34 -7 3 C-4.69 2.01 -2.38 1.02 0 0 Z " fill="#39393A" transform="translate(702,401)"/>
<path d="M0 0 C-2.118 2.329 -4.033 3.888 -7 5 C-7.99 4.67 -8.98 4.34 -10 4 C-9.34 4 -8.68 4 -8 4 C-8 3.01 -8 2.02 -8 1 C-5.072 0.024 -3.044 -0.082 0 0 Z " fill="#39393A" transform="translate(801,357)"/>
<path d="M0 0 C3.375 0.547 5.082 1.055 8 3 C8 3.66 8 4.32 8 5 C4.625 4.453 2.918 3.945 0 2 C0 1.34 0 0.68 0 0 Z " fill="#2C2B2D" transform="translate(772,659)"/>
<path d="M0 0 C0.99 0.33 1.98 0.66 3 1 C3 2.32 3 3.64 3 5 C1.35 5.33 -0.3 5.66 -2 6 C-1.125 1.125 -1.125 1.125 0 0 Z " fill="#434446" transform="translate(462,621)"/>
<path d="M0 0 C0.33 0.66 0.66 1.32 1 2 C3.322 2.407 5.657 2.744 8 3 C7.67 3.99 7.34 4.98 7 6 C4.69 5.67 2.38 5.34 0 5 C0 3.35 0 1.7 0 0 Z " fill="#D1D1D3" transform="translate(568,384)"/>
<path d="M0 0 C0.33 0 0.66 0 1 0 C1 4.29 1 8.58 1 13 C0.01 13 -0.98 13 -2 13 C-1.847 12.438 -1.693 11.876 -1.535 11.297 C-0.986 8.942 -0.685 6.655 -0.438 4.25 C-0.354 3.451 -0.27 2.652 -0.184 1.828 C-0.123 1.225 -0.062 0.622 0 0 Z " fill="#2C2B2D" transform="translate(147,313)"/>
<path d="M0 0 C-2.353 2.724 -4.625 3.814 -8 5 C-7.625 3.062 -7.625 3.062 -7 1 C-4.537 -0.231 -2.72 -0.072 0 0 Z " fill="#39393A" transform="translate(258,657)"/>
<path d="M0 0 C1.114 0.34 1.114 0.34 2.25 0.688 C0.562 2.25 0.562 2.25 -1.75 3.688 C-4.5 3.375 -4.5 3.375 -6.75 2.688 C-4.295 0.414 -3.412 -0.388 0 0 Z " fill="#434446" transform="translate(261.75,654.3125)"/>
<path d="M0 0 C2.938 0.812 2.938 0.812 6 2 C6.33 2.99 6.66 3.98 7 5 C2.25 4.125 2.25 4.125 0 3 C0 2.01 0 1.02 0 0 Z " fill="#2C2B2D" transform="translate(305,395)"/>
<path d="M0 0 C-0.33 0.99 -0.66 1.98 -1 3 C-2.65 3.33 -4.3 3.66 -6 4 C-6 3.34 -6 2.68 -6 2 C-6.66 1.67 -7.32 1.34 -8 1 C-5.108 0.174 -3.113 0 0 0 Z " fill="#D1D1D3" transform="translate(457,386)"/>
<path d="M0 0 C0 0.66 0 1.32 0 2 C-2.354 3.429 -3.48 4.087 -6.25 3.625 C-6.827 3.419 -7.405 3.212 -8 3 C-4.939 0.376 -4.268 0 0 0 Z " fill="#39393A" transform="translate(270,651)"/>
<path d="M0 0 C-3.634 2.326 -6.771 2.163 -11 2 C-7.375 -1.625 -4.817 -1.019 0 0 Z " fill="#C7C5C6" transform="translate(579,634)"/>
<path d="M0 0 C1.98 0.66 3.96 1.32 6 2 C5.67 2.99 5.34 3.98 5 5 C3.02 4.34 1.04 3.68 -1 3 C-0.67 2.01 -0.34 1.02 0 0 Z " fill="#39393A" transform="translate(703,626)"/>
<path d="M0 0 C-2.395 2.899 -4.312 3.502 -8 4 C-7.67 3.01 -7.34 2.02 -7 1 C-4.537 -0.231 -2.72 -0.072 0 0 Z " fill="#2C2B2D" transform="translate(711,399)"/>
<path d="M0 0 C-2.395 2.899 -4.312 3.502 -8 4 C-8 3.01 -8 2.02 -8 1 C-5.072 0.024 -3.044 -0.082 0 0 Z " fill="#39393A" transform="translate(241,665)"/>
<path d="M0 0 C1.98 0.66 3.96 1.32 6 2 C5.01 3.485 5.01 3.485 4 5 C1.525 4.01 1.525 4.01 -1 3 C-0.67 2.01 -0.34 1.02 0 0 Z " fill="#39393A" transform="translate(780,662)"/>
<path d="M0 0 C0.866 0.34 0.866 0.34 1.75 0.688 C0.562 2.25 0.562 2.25 -1.25 3.688 C-3.938 3.375 -3.938 3.375 -6.25 2.688 C-2.804 -0.389 -2.804 -0.389 0 0 Z " fill="#524F50" transform="translate(233.25,667.3125)"/>
<path d="M0 0 C0.33 0 0.66 0 1 0 C0.744 2.343 0.407 4.678 0 7 C-0.99 7.495 -0.99 7.495 -2 8 C-2.125 5.125 -2.125 5.125 -2 2 C-1.34 1.34 -0.68 0.68 0 0 Z " fill="#39393A" transform="translate(460,630)"/>
<path d="M0 0 C1.04 3.38 1.08 6.478 1 10 C0.01 9.67 -0.98 9.34 -2 9 C-1.514 5.877 -1.001 3.004 0 0 Z " fill="#434446" transform="translate(563,390)"/>
</svg>