<svg version="1.1" xmlns="http://www.w3.org/2000/svg" xmlns:xlink="http://www.w3.org/1999/xlink" width="1024" height="1024" viewBox="0 0 1024 1024"><path stroke="none" fill="black" fill-rule="evenodd" d="M270.9461065572791,848.8702646385366C255.3007479507756,848.7989101897316 239.125,848.357974334997 235.0,847.8904071835709C230.875,847.4228400321448 225.58236427176442,846.3170410944759 223.2385872705876,845.4330762109737C220.89481026941078,844.5491113274713 218.53392402428722,842.9976461651147 217.99217339253522,841.9853758501811C217.45042276078323,840.9731055352474 217.2652858391968,839.4722511211901 217.58075801123204,838.6501438189425C217.89623018326725,837.828036516695 220.01543722605882,836.4107413108416 222.2901069952133,835.5005989170461C224.5647767643678,834.5904565232506 231.1675494141898,833.2308247269085 236.96293510592892,832.4791949251746C242.758320797668,831.7275651234406 257.625,830.538404082 270.0,829.8366148330845C284.6216899413983,829.0074152531367 319.6364013129613,828.5590843976702 370.0,828.5562077187458C420.83365696334374,828.553304190931 455.06980060395404,828.9916625340362 469.5,829.8302021147509C481.6,830.5333336965243 499.6,831.8716829587036 509.5,832.8043115862604C525.294629845795,834.2922432989726 542.6312896691284,834.5 651.0,834.5C765.2436503248813,834.5 775.1923083657695,834.6332983375435 783.736911544338,836.2784920907721C788.8172128937239,837.2566627406968 795.9928312066505,838.9894608125734 799.6827300175083,840.1291544727201C804.3571174853913,841.5729257074594 805.9481249638366,842.4495265480872 804.9291389611635,843.0197797856694C804.124765069316,843.4699300476448 798.0741467563894,844.3051310714035 791.4833204879932,844.8757820606887C784.892494219597,845.446433049974 750.475,846.4513344802364 715.0,847.1088963501609C674.4248212619209,847.8609947406761 621.0112668167021,848.0641709836356 571.0,847.6566483073195C527.275,847.3003500138323 469.9,846.7341164618755 443.5,846.3983515251933C408.6803674790553,845.9555025968338 382.3048338671995,846.2288808235393 347.4461065572791,847.3939349110674C321.0164651637826,848.2772707099804 286.5914651637826,848.9416190873415 270.9461065572791,848.8702646385366zM296.0,800.4450468243954C283.0919950123798,800.8889985767362 278.36170366210735,800.6902717983855 274.2711816106377,799.5321859124276C271.39533149648844,798.7179911995228 267.2888870285939,796.944910956804 265.14574945976096,795.5920075952749C263.002611890928,794.2391042337457 260.3030411307986,791.9294189619437 259.14670332614014,790.4593736579372C257.99036552148164,788.9893283539309 255.8812741297253,785.3281906090075 254.4598335666816,782.323512002552C253.0383930036379,779.3188333960966 251.25533392537244,773.1793564928815 250.49748005942502,768.6802299954074C249.73962619347756,764.1811034979333 248.6254603137028,753.975 248.02155588214777,746.0C247.41765145059273,738.025 246.24610149099024,719.35 245.41811152747556,704.5C244.35642704659924,685.458688829887 243.65445372743406,641.0963677595907 243.03665397553743,554.0C242.55484228548616,486.075 241.9018351028808,428.7 241.58552690308105,426.5C241.2692187032813,424.3 240.54536684635912,400.675 239.9769672210317,374.0C239.26356364872206,340.51996334375144 239.26542237026865,313.9089513845589 239.98296909952808,288.0720885608711C240.5546697580285,267.4867372693502 241.44245177002512,245.8577426102055 241.9558180150761,240.0076559849939C242.51364987170945,233.65085961385068 243.77425922415455,226.9828920594287 245.08884613179637,223.43556742412278C246.54334539627143,219.51069867416527 248.84870165485066,215.9397794208454 251.8942405378483,212.8942405378466C254.93541733389515,209.85306374179862 258.510913715532,207.54328496569227 262.4196519771883,206.09480086361452C265.6754605646419,204.88827674697126 271.45993059077625,203.24467658081971 275.2740298130425,202.44235604994446C279.0881290353087,201.64003551906922 287.449285645574,200.53889449011584 293.85437783585417,199.99537598560363C300.25947002613435,199.45185748109142 315.4,198.55982636001428 327.5,198.0130846054322C339.6,197.4663428508501 351.345627941347,197.01473173320792 353.6013954252155,197.0095043440051L357.70279085043103,197.0L358.27188110550514,185.4448508925243C358.7310381204263,176.1218520819636 359.29097213789896,172.9827803151266 361.17048568028963,169.1948508925243C362.6688504641059,166.17508012610062 364.43107002584554,164.1811522679781 366.1095676700668,163.60634569896843C367.5448298886035,163.11483583340106 369.85036481229486,162.99661192206116 371.23297861160313,163.3436258959909C372.763390210679,163.7277347563315 374.2397373065013,165.16456349438917 375.00680989787156,167.01644054779985C375.93831863750904,169.26530158050167 376.08068968584075,173.57017287143285 375.5529198905466,183.52916035077726L374.83904186842284,196.99999999999977L377.2906997394931,196.9999999999999C379.68991834218235,197.0 379.75667438363854,196.7807595801813 380.41170008008623,186.75C380.77983843832385,181.1125 381.5342641846066,174.1878268009835 382.0882017384924,171.36183733551883C382.64213929237815,168.53584787005417 383.9404229994148,165.45890400662952 384.9732766430182,164.52418430568628C386.0061302866216,163.58946460474303 387.64781018707447,162.97810851645775 388.62145419958006,163.1656152206079C389.5950982120857,163.35312192475803 391.2079531480581,164.9041275288334 392.2055762795188,166.6122943407754C393.2031994109795,168.3204611527174 394.4511692520795,173.0439904400192 394.9788425930745,177.10902609033496C395.50651593406945,181.17406174065073 395.95254859376735,187.2 395.970026281292,190.5L396.0018038949733,196.5L443.7509019474867,196.4144094172098L491.5,196.32881883441962L491.7577967006846,192.4144094172098C491.8995848860611,190.2614842377444 492.4879860413151,184.71880241117478 493.0653548234712,180.0973386914995C493.6427236056273,175.4758749718242 494.9700465197736,170.0188756043955 496.01496129935185,167.9706734305468C497.05987607893013,165.92247125669812 498.64577928437916,163.96616884552338 499.5391906447942,163.62333473904738C500.4326020052092,163.28050063257137 502.4663967348179,163.00000000000009 504.05873448836917,163.00000000000006C506.03549238783637,163.00000000000003 507.4682375833759,163.78498746736744 508.57530512745996,165.47458610100654C509.4670812254087,166.83560845656012 510.25183885128916,169.64810845656012 510.3192109627498,171.72458610100654C510.3865830742105,173.80106374545295 510.0635689357839,180.33750000000006 509.6014017662463,186.2500000000001L508.76109782163246,197.00000000000023L511.22463365607535,197.00000000000017C513.6589544966912,197.0000000000001 513.700904675746,196.84778069975317 514.7620559117286,184.1642040018304C515.3526934433943,177.10451620283706 516.5067751935118,169.72287897644017 517.3266820231008,167.76056572094842C518.1465888526898,165.79825246545667 519.7907504779034,163.88380088894058 520.9803745235756,163.506228884246C522.4065558861307,163.0535765037927 523.7982691505877,163.4124485282756 525.0660514667684,164.5597757558848C526.1235497398521,165.5167985399807 527.4634379265312,167.91985831567314 528.0435807704996,169.89990859075687C528.623723614468,171.8799588658406 529.3655436598447,178.74586172551477 529.6920697602258,185.1574705011439L530.2857535791004,196.8149410022878L533.3928767895502,197.37255207013624C535.1017945552976,197.67923815745286 556.5545103638965,198.2413515598567 581.0655785864366,198.62169296436696L625.6311571728731,199.31322279074925L626.7249984033698,185.7821142275996C627.4602598197731,176.68673386501155 628.3906363599841,171.14445825674144 629.5630951940182,168.87550283222498C630.5224357521016,167.01897627450126 632.0256968344817,164.95181151734425 632.9036753770849,164.2818033718761C633.7816539196882,163.61179522640793 635.952126159063,163.04929522640793 637.7269470201402,163.0318033718761C640.0778740183537,163.00863366840372 641.3940588670588,163.67177643665462 642.5753051274598,165.4745861010063C643.4670812254085,166.83560845655978 644.2589332747468,169.64810845655978 644.3349763482117,171.7245861010063C644.4110194216765,173.80106374545284 644.1038295624068,180.56250000000003 643.652332216501,186.75000000000006L642.8314279512181,198.0000000000001L645.3361200127117,198.0000000000001C647.6834833179956,198.0000000000001 647.8751979868085,197.60741492280528 648.3882397943455,191.75000000000006C648.6893250404225,188.31250000000003 649.212663624592,182.13324550285293 649.551214425833,178.0183233396732C649.8897652270739,173.90340117649347 650.7631599218014,169.10926395009577 651.4920915252272,167.3646850587894C652.2210231286531,165.62010616748304 653.7907504779125,163.88380088893766 654.9803745235815,163.50622888424408C656.3683262856291,163.0657101076422 657.7746257662039,163.3910515594818 658.9052200711758,164.4142253432762C659.8742610766838,165.29119540043746 661.228877362723,167.6942551761299 661.9154784845964,169.75435817814832C662.6020796064698,171.81446118016675 663.4115184058302,179.23227978107568 663.714231372064,186.23839951350152L664.2646185833979,198.97679902700304L697.8823092916989,198.82130820931582C724.6415973172614,198.69753933976656 733.1436584263047,198.98250193647723 739.5566865437448,200.21810348116009C743.9878641428045,201.07186083040241 749.8998976228121,202.92905923908654 752.6945387215394,204.34521105601374C755.4891798202667,205.76136287294094 759.3975710886325,208.8148190519488 761.3798526512411,211.1306692315868C763.3621342138497,213.4465194112248 765.8332913925196,217.62701208942423 766.8713130482855,220.42065296091886C767.9093347040514,223.2142938324135 769.3273403679225,228.875 770.022436745777,233.0C771.0406803919578,239.04269447275885 771.0411244206624,250.99259979613635 770.024721932529,294.5C769.0335574444188,336.9270803697703 769.0060255213092,371.3243692707308 769.8962561783874,455.0C770.5194395387502,513.575 771.4644260935332,573.425 771.9962263001272,588.0C772.5280265067212,602.575 773.4582053748102,628.0 774.0632904514362,644.5C774.668375528062,661.0 775.1447992680495,693.625 775.1220098736304,717.0C775.0992204792113,740.375 774.6395840908305,763.6642393926438 774.1005956772283,768.7538653169861C773.3634214724312,775.7149443472706 772.4277077734055,779.2808326792524 770.3239817833537,783.1460703606762C768.7858325553248,785.9721572103633 765.9456207939957,789.3311468450455 764.0124000915114,790.610491771081C762.0791793890271,791.8898366971165 757.9656937418082,793.8076264981951 754.8713208754696,794.8722468845888C751.7769480091309,795.9368672709826 745.97625823556,797.3151121513366 741.9808991564231,797.9350132853754C737.9855400772863,798.5549144194142 727.0178726892623,799.4895406266328 717.6083049608144,800.0119604125277C708.1987372323665,800.5343801984227 665.4,800.9613668509329 622.5,800.9608196403283C578.2038305500001,800.9602546208955 522.4628800249999,800.3300908248474 493.5,799.5024460581674C465.45,798.7008877985834 422.925,798.0502261325905 399.0,798.0565312448498C375.075,798.0628363571091 345.825,798.4751457765263 334.0,798.9727743991104C322.175,799.4704030216947 305.075,800.1329256130728 296.0,800.4450468243954zM623.0,782.4619360565047C677.0911247717847,782.2963465712041 718.2956678179349,781.7521480071163 725.4203884987573,781.1092447211846C731.9766021730738,780.5176409933594 739.9928157504806,779.511844827894 743.2341964485502,778.8741421312616C746.4755771466198,778.2364394346291 750.561402322179,776.7499285748432 752.3138079497928,775.5707846650705C754.1280538446665,774.3500301981478 756.1448979468003,771.7202629585599 756.9977036112546,769.4634433236511C758.277702011239,766.076123513123 758.488510485888,755.3248460680759 758.4479611035897,695.5C758.4167960661669,649.5204200197101 757.818464818817,609.543578129764 756.7043118551537,579.0C755.7714001339197,553.425 754.2722773980003,501.45 753.372927997555,463.5C752.3719915647004,421.2633146716551 751.8653325006682,371.4214895222684 752.0666818973573,335.0C752.2475959426936,302.275 752.3616613837636,266.95 752.3201606552905,256.5C752.2738935433272,244.84981124896154 751.7705468579474,235.76280162321336 751.0189589375501,233.00916778119853C750.3447987212659,230.53921006085773 748.901843464641,227.2665223568181 747.812391700606,225.73652843888823C746.7229399365709,224.20653452095837 744.0428079126526,222.0421628328609 741.8565427585654,220.92681357644938C739.6702776044782,219.81146432003786 734.1956742844017,218.4086196593424 729.6907576028398,217.80938099712614C724.4662448209745,217.11442251699475 692.8905169436664,216.66248570510953 642.5,216.56143785643286C599.05,216.47430779126782 551.4200769139028,216.0169245037471 536.6557264753396,215.54503055083126C514.0036136158812,214.8210301876845 509.67240067612545,214.90668566767079 508.9210392498566,216.09352077276486C508.4313117144042,216.8670843477442 508.0237348005014,225.19534953064587 508.01531277451704,234.6007767347686C508.0067080395978,244.21024695535255 508.4686786724217,253.04600598915104 509.06987603861285,254.77060188250493C509.65830785984997,256.45857850963716 510.8081825897349,258.0961511501152 511.625153216135,258.40965219467824C512.6496874202321,258.8028028573775 513.5987907215346,257.8193192976434 514.684168776173,255.2398270469419C516.0641556285212,251.96017220548808 516.1021739583164,250.20801293830527 514.9931443647713,241.0C514.2975930068795,235.225 513.5189694626516,228.58360023359484 513.2628698220428,226.241333852433C512.8149334964113,222.14454482948332 512.9329062270089,221.92598027563085 516.3664984250325,220.49133385243306C518.3295937972858,219.67110023359493 521.2503633390832,219.00000000000006 522.8570974068045,219.0C524.4638314745258,218.99999999999994 526.7348897716239,219.7874999999999 527.9038936225782,220.74999999999994C529.3169405942798,221.9134330452826 530.5213872371322,224.84626781886953 531.4973139611093,229.5C532.3046912963471,233.35 532.9705767626683,241.225 532.9770594418231,247.0C532.983542120978,252.775 532.5366509240376,259.12793404437093 531.9839678930668,261.1176312097132C531.431284862096,263.10732837505543 529.9579874389291,266.2504758983839 528.7099736193624,268.10240348377647C527.4619597997956,269.9543310691691 524.6541646274345,272.5061653177593 522.4704287918933,273.7731462584215C519.14998308891,275.69963450471647 517.3392915043811,276.02767914724234 511.40979948766216,275.7770105372527C505.7136453531099,275.5362062600618 503.5255358549159,274.95178699717144 500.2809480144494,272.80462036200777C497.74982308015547,271.12960113751205 495.3572074155617,268.33428294426847 493.87114852678724,265.3159838091133C491.62183111144475,260.7474482950079 491.4845231986751,259.33859768280007 491.1987814177694,237.89610711271052L490.89756283553885,215.29221422542105L481.7951567078903,214.64610711271064C476.7888333376836,214.29074820071992 458.65901986313395,214.0000000000001 441.5066823200021,214.0C424.3543447768702,213.9999999999999 402.14847589631586,214.29601331116152 392.1603070298812,214.657807358137L374.0,215.31561471627424L374.0,234.20746728502132C374.0,249.3603732268149 374.30847970665815,253.69585382751413 375.5586617622793,256.11343933945767C376.4159257315329,257.7712050565868 377.65342573153293,258.95255908846894 378.3086617622793,258.7386705214181C378.9638977930257,258.52478195436726 380.0531534321331,256.8085812187092 380.72922984918466,254.92489110884463C381.47144176957914,252.85693367295616 381.74289133170043,249.12281433803497 381.4143666472005,245.5C381.1151154690577,242.2 380.41938243666857,236.8 379.8682932418914,233.5C379.3172040471143,230.2 378.62762858579674,226.50750012259383 378.33590332785246,225.29444471687515C377.9237372790886,223.58057099531254 378.5516925377704,222.6339573614485 381.1527468839769,221.04818277731175C382.9937360977896,219.92579411627054 385.9920836543403,219.00579399367678 387.81574145408956,219.00373806043672C389.6393992538388,219.00168212719666 391.9924631527546,219.46078264327605 393.04477234056907,220.02396142950204C394.16259585798116,220.6222024208769 395.6630806653351,223.42857078062553 396.6538040681596,226.77396142950192C397.8261640614259,230.73268709138523 398.37276474120625,236.35806191937036 398.4247731816801,245.0C398.46614793175604,251.875 398.1370721873221,259.21434917868106 397.69349374960456,261.30966484151344C397.2373535394062,263.4643181014743 395.28244348122166,266.8975183699604 393.19349374960456,269.21253543318403C391.16207218732205,271.46379859577047 388.05195338390024,273.91194941708943 386.28211863088944,274.65287059167065C384.51228387787864,275.3937917662518 380.43788518277483,276.00000000000006 377.2278993084366,276.00000000000006C372.4836734377266,276.00000000000006 370.5216035887672,275.44828912629873 366.74243457574283,273.05161112795906C363.8699492063405,271.2299348648247 361.21565256918234,268.4593822786189 359.7966538981957,265.801611127959C357.62074488494744,261.7261540326743 357.48329218899084,260.27002024728375 357.1822055087368,238.1049071560518L356.86441101747357,214.70981431210362L335.1822055087368,215.40239959187096C323.2569924789316,215.783321495743 306.975,216.5389439973259 299.0,217.08156070649966C291.025,217.62417741567342 281.86563881371825,218.48534808986386 278.645864030485,218.9952733158118C275.4260892472517,219.50519854175974 270.8013136494078,220.88595317568405 268.36858492416513,222.06361694675473C265.7152921674344,223.34805393359318 263.2770745236093,225.464281121251 262.2750835984374,227.35241190162344C260.9310637441276,229.88505485536925 260.35686038294864,236.0680527674559 259.3360317472682,259.0C258.3800689289776,280.4747981581672 258.1922001026047,327.30947710371936 258.5738811824626,449.0C258.852479886055,537.825 259.5258682627401,624.225 260.0702997973185,641.0C260.6147313318969,657.775 261.73150053978736,682.975 262.55200914818624,697.0C263.37251775658507,711.025 264.72628596050333,730.6 265.5603829346712,740.5C266.3944799088391,750.4 267.95886134272496,762.0701944656697 269.03678612108416,766.4337654792661C270.16158703248476,770.987096798475 271.91372577806317,775.3437140777191 273.1489969308104,776.658599964981C274.3327880978007,777.918687918528 277.2665101406342,779.7001725743129 279.66837924821823,780.6174547556143C283.6983447956593,782.1565126402649 287.6038494716065,782.185080157863 330.26770699464004,780.9875726547826C363.14706054101197,780.0647008177258 393.68495549674935,779.9187212001407 436.0,780.4821429347022C468.725,780.9178739254166 503.825,781.6039168085421 514.0,782.006682674981C524.175,782.4094485414198 573.225,782.6143125631055 623.0,782.4619360565047zM355.93931113675444,714.4128394127025C355.43451130705444,714.9455637219249 354.63155576085035,714.1611175342142 354.0110281968963,712.5290063560033C353.426217059162,710.9908364978323 352.409426366723,706.5931584564527 351.75149332480953,702.7563884862707L350.55525143042155,695.7804430859396L336.0276257152108,696.6402215429698C328.0374315718449,697.1130996943364 314.43445661411715,697.5 305.7987924758159,697.5C294.10998745148254,697.5 289.76568193278916,697.1624263370774 288.7987924758159,696.1790173377558C287.7310542629682,695.093036556953 287.9066995053603,694.5256192028772 289.7861221026365,692.989474843911C291.0434892590866,691.9617669365306 294.6434892590866,690.3640230447593 297.7861221026365,689.4389328621969C300.9287549461864,688.5138426796346 307.3949557884243,687.1662334978703 312.1554573076096,686.4442457916097C316.91595882679485,685.722258085349 326.36595882679484,684.8507438859635 333.1554573076096,684.5075475707532C339.9449557884243,684.1643512555429 346.4,683.7040674521903 347.5,683.4846946744142C349.45579765544045,683.0946503431034 349.5,682.2862152131388 349.5,646.9058598628144L349.5,610.7258846471711L338.5,611.3576187365759C332.45,611.7050724857486 320.3,612.2712365460352 311.5,612.6157610927685C302.4889145174342,612.9685497452066 293.97117494931126,612.833906529086 292.0,612.3075170224545C289.57696048910054,611.6604600105253 288.5,610.7959929866198 288.5,609.4980967936807C288.5,608.1512565323154 290.11307862386803,606.9748779877026 294.2283381985766,605.3205607124369C297.37892420779366,604.0540382081724 303.8280891307257,602.3426746367793 308.55981580509217,601.5175305537855C313.29154247945866,600.6923864707916 324.50499548001596,599.4932240712736 333.47860025077506,598.8527252215233L349.7942452885189,597.6881818583408L350.42632874573553,593.7353490694206C350.7739746472046,591.5612910355146 351.06385057077637,574.4600312308759 351.0704974647838,555.7325495035568C351.0771443587912,537.0050677762378 350.72650161312697,521.3375129404346 350.2912913633077,520.9157609795498C349.8560811134885,520.494009018665 343.425,520.5459456030014 336.0,521.0311756114086C328.575,521.5164056198157 315.89179484752856,521.9328942925063 307.8150996611745,521.9567059951653C299.73840447482047,521.9805176978243 291.9393273770259,521.5472312933837 290.48381722163106,520.9938473186304C289.02830706623615,520.4404633438771 288.0110193141654,519.4279633438771 288.223177772585,518.7438473186304C288.4353362310046,518.0597312933837 290.2648017894115,516.6788365201313 292.288656791267,515.6751922669586C294.3125117931225,514.6715480137858 300.13800469766466,512.9929307622608 305.2341965791385,511.94493170801417C310.3303884606123,510.8969326537675 322.2353452120135,509.4927442566576 331.68965602669664,508.82451304776987L348.87931205339333,507.6095472134285L348.68965602669664,474.55477360671426C348.51829333895074,444.688309847353 348.6781796238282,440.988699037676 350.34727564413527,436.1990918813784C351.38035652474247,433.2345820397696 352.70243609537886,431.0674786984596 353.3468594044908,431.28228646816353C353.9806288684119,431.4935429561373 355.33823850685314,433.87895160951695 356.363769712138,436.5831945867851C357.851947779317,440.5073999803944 358.49915561711816,446.9507344255116 359.5696884483072,468.5C360.3074125479154,483.35 360.9310288696133,498.0554829612356 360.9555024965247,501.178851024968L361.0,506.8577020499361L400.25,506.2937509980824C421.8375,505.9835779195629 439.5984453659723,505.6546495923559 439.7187674799385,505.56279915984476C439.83908959390465,505.4709487273336 439.43534496727636,494.7385598643437 438.82155719854234,481.7130461309783C438.03453667166286,465.01126873575095 438.01244484020066,454.9961792422361 438.7466113088134,447.7371490176318C439.31917883819654,442.0759193386566 440.51046824625837,435.714040257085 441.39392110450643,433.5996399474727C442.6793057930413,430.5232813641764 443.2744712145342,429.9829014451527 444.3731084846273,430.8946893957625C445.12820868544577,431.5213669019342 446.4572999994167,434.61392985859425 447.3266447378961,437.7670515216737C448.1959894763755,440.92017318475314 449.16117611425267,447.325 449.4715039331787,452.0C449.78183175210484,456.675 450.73715328686455,480.6287230014575 451.5944406770892,505.2304955587945C452.9180382391698,543.2140779035885 452.96114999043937,554.1495974390715 451.88026175371056,577.7304955587945C451.1801759556276,593.0037230014575 450.55443459978915,627.1 450.48972540740283,653.5C450.3750760324992,700.2745522056473 450.31523666462886,701.6723285960809 448.1458559492248,708.25C446.92143693961316,711.9625 445.70158278410867,715.0 445.43506893699265,715.0C445.16855508987663,715.0 444.46407870305967,713.7625 443.86956585517726,712.25C443.2750530072948,710.7375 442.2442476427163,706.35 441.578887267225,702.5L440.3691411299681,695.5L435.934570564984,694.8241231014986C433.49555675424284,694.4523908073228 423.1343702915324,694.1148908073228 412.90971175896084,694.0741231014986C402.68505322638924,694.0333553956743 386.86329143540405,694.2940620218619 377.750241112327,694.6534711596933L361.18105870673236,695.3069423193865L360.49273309752255,699.9034711596933C360.1141540124571,702.431562021862 359.129383550698,706.525 358.3043542936133,709.0C357.4793250365286,711.475 356.41505561594215,713.9107777357161 355.93931113675444,714.4128394127025zM579.2550865046201,713.7483044984599C578.607298237607,713.9642339207977 577.5085838322963,710.930653059822 576.5597525566928,706.3064129214968C575.6787791038132,702.0128858146735 574.6299365478338,696.925 574.2289913211831,695.0L573.5,691.5L541.5,691.5335954508596C523.9,691.5520729488323 498.833152681482,691.7770729488324 485.7958948477377,692.0335954508596C464.6160413313886,692.4503325504759 461.91321302172867,692.3225074549379 460.41485693963904,690.8332478061866C458.8473970381357,689.275303863323 459.0612271524468,689.0026655997567 463.6903604885049,686.6569062148966C466.4142004560912,685.2766320462844 471.3106675147356,683.4665909124147 474.5713983966036,682.6345925840752C477.8321292784716,681.8025942557357 484.775,680.6098288706293 490.0,679.9840028393944C495.225,679.3581768081594 516.0375,678.5953351601845 536.25,678.2887991772278L573.0,677.7314610263975L573.0190927156498,649.1157305131987C573.0295937092571,633.3770787309394 573.4949360920118,612.625 574.0531868995489,603.0C574.611437707086,593.375 575.0945657259396,572.0 575.1268047192234,555.5C575.1594391991365,538.7975889220105 574.4294871250465,512.2024110779895 573.4799977415723,495.5C572.5171646600319,478.56286072569327 572.0205363834377,460.2748557097227 572.3394475504094,453.5C572.6501277762616,446.9 573.6182817608735,439.1375 574.490900849547,436.25C575.3974748786442,433.2501429684541 576.6634856968325,431.0 577.4447384006137,431.0C578.196729965027,431.0 579.5728736958271,433.1375 580.5028355801696,435.75C581.7747287241967,439.3230720739378 582.6483497191797,448.8004390574912 584.0287097091432,474.0C585.0379785957363,492.425 585.8944016375125,507.6125 585.9318720242015,507.75C585.9693424108907,507.8875 598.7125,507.9976718877541 614.25,507.99482641723137C629.7875,507.99198094670857 646.9367942169072,507.69587248331925 652.3595427042383,507.3368076096996L662.2190854084764,506.6839623849364L661.53517254922,479.5919811924682C661.0877965476118,461.8699833421776 661.2233339801738,449.9802359922718 661.9270598599813,445.21445886146404C662.5187499534911,441.20741123526926 663.689438354815,436.2857044954078 664.5285896407011,434.277332772883C665.8528220593369,431.1079984843339 666.2426775959009,430.8155434913908 667.480561973083,432.06287391141905C668.2649954700072,432.85329326013857 669.6384865489991,436.2 670.5327643708431,439.5C671.7912626663888,444.1440203188055 672.286102724263,452.3430322548793 672.7223549586824,475.7793574997426C673.03235196015,492.43300412460104 673.5964770328424,506.2506090910553 673.975966231332,506.4851463140854C674.3554554298216,506.7196835371155 688.2291254754804,506.4008836725156 704.8063441105737,505.77670217053003C733.3609001654255,504.70153835208845 735.051679967168,504.73679460327304 736.9411927152132,506.44678013870623C738.4761137635469,507.83586459627236 738.705823318651,508.68115706529437 737.9381775341983,510.11551633400893C737.3895710871816,511.1405968569429 735.6998859185874,512.620954828062 734.1833216039887,513.4052007142737C732.66675728939,514.1894466004853 727.8425972543387,515.5757883618481 723.4629659705411,516.4859601839687C718.4522132235152,517.5272912144663 708.0155723908806,518.3566047060252 695.3123516669868,518.722856577357C684.2091450838295,519.0429777715999 674.5557610151029,519.6565208030443 673.8603870698166,520.0862855361223C672.8797807889076,520.6923335473057 672.5852917595313,529.1291474018788 672.5480354028298,557.6838379799503L672.5,594.5L680.0,594.2593723024927C684.125,594.1270270688636 697.175,593.5193095943888 709.0,592.9088890258819C722.2573930466442,592.2245266241523 731.8418197365928,592.1477493515064 734.0,592.7086233367343C736.3995239317231,593.3322183964492 737.5957266345617,594.2708521664551 737.8044529823269,595.6938933391659C738.0174746073153,597.1462185788015 737.116533943443,598.3796376932709 734.8044529823269,599.8009977155007C732.9870038420471,600.9182810606231 728.765757686501,602.5371685685914 725.4239059700022,603.3985255109856C722.0820542535034,604.2598824533798 711.7320542535035,605.4282074113273 702.4239059700022,605.9948031953135C693.115757686501,606.5613989792996 682.35,607.131857444712 678.5,607.2624886740077L671.5,607.5L670.818235437353,613.6802953240538C670.4432649278971,617.0794577522834 669.2626024707725,621.8044577522834 668.1945410881874,624.1802953240538L666.252611301669,628.5L665.0904407926075,625.5905686130207C664.4512470126236,623.9903813501819 663.3609568873388,619.322407532108 662.6675738475301,615.2172934617452L661.4068774115143,607.7534496974492L634.4534387057572,608.1173527326848C619.6290474175908,608.3174994020643 602.478657956824,608.4854732201383 596.3414621262756,608.4906278839601L585.1829242525512,608.5L584.4735342225013,622.6906473534815C584.0833697059738,630.4955033978963 583.9422773345825,645.9321828855792 584.1599956194094,656.9943795483323C584.4646714299445,672.4748603779603 584.8670198894152,677.299779783081 585.9068465655771,677.9424280113578C586.6498963011423,678.4016580032687 600.5873307157096,679.1151554994788 616.8789230423934,679.5279780029356C633.170515369077,679.9408005063924 666.6989387065908,680.1033873889643 691.3865304590905,679.8892821864285C733.8671692984958,679.5208652961243 736.3327422303664,679.5970466763052 737.3865304590905,681.3105921963759C738.3044196590007,682.8031548228645 738.0140867207593,683.5437147877533 735.7336195284582,685.5267161682816C734.2121102691102,686.8497586448232 730.7657242651835,688.5860275792027 728.0749839641767,689.3850915780139C725.3842436631699,690.1841555768251 717.8659464748555,691.3860965568065 711.3676568790338,692.0560715335282C702.90883505335,692.9281777812089 683.3094685328847,693.1384405192833 642.3716300807278,692.7962634930855L585.190675274825,692.3183191313308L584.5169532443507,697.7106081093368C584.1464061275898,700.6763670472402 583.0569505618538,705.4160964523243 582.0959408760485,708.2433401206347C581.1349311902433,711.0705837889451 579.8565467231005,713.5478177589665 579.2550865046201,713.7483044984599zM367.35801995443217,682.6435586639928C370.7361089794945,682.3077851868129 388.2375,681.728908017147 406.25,681.3571649536242L439.0,680.6812684744918L439.0,644.3406342372459L439.0,608.0L415.75,608.0327730226318C402.9625,608.0507981850793 385.59602252250517,608.4672756625743 377.1578278277893,608.9582785281762C368.7196331330734,609.4492813937779 361.5817689966771,610.0848976699897 361.2959075246865,610.3707591419801C361.0100460526959,610.6566206139705 360.5392520596474,621.3776431364755 360.24969865124547,634.1952536364358C359.96014524284357,647.0128641363962 360.0591183587343,663.2946625764266 360.46963890878044,670.3770279476146L361.21603990886433,683.2540558952292L367.35801995443217,682.6435586639928zM316.75,672.7817353124535L305.0,673.063470624907L305.0,668.5317353124535C305.0,664.0192759077447 305.01488738252675,664.0 308.5,664.0L312.0,664.0L312.0,653.5L312.0,643.0L308.0,643.0C304.1228590233668,643.0 304.0,642.896259214093 304.0,639.6224447154422C304.0,637.7647893089353 304.5625,635.8133631770257 305.25,635.2859422000874C305.9375,634.7585212231492 309.0484498676601,633.3170058995015 312.16322192813357,632.0825748142038C315.277993988607,630.848143728906 318.87799398860705,629.9870698608156 320.16322192813357,630.1690773295585C322.4929041766725,630.4989951254538 322.5008316849495,630.5506680876756 322.7738883231721,647.1858827733834L323.04777664634423,663.8717655467666L325.7738883231721,664.1858827733834C328.23533240836855,664.4695035788279 328.5,664.8883444598124 328.5,668.5L328.5,672.5L316.75,672.7817353124535zM384.0463619857233,671.0C383.69086289357546,671.0 382.85999999999996,670.46 382.2,669.8C381.54,669.14 381.0,666.818 381.0,664.64C381.0,661.1260690979515 381.65232251946185,660.0503216521341 386.7910247289759,655.0899999999999C389.9760883299127,652.0155 394.2510883299127,648.1004872425319 396.2910247289759,646.3899716500708C399.0631259179331,644.0655255007847 400.0,642.5177266310044 400.0,640.262416365513C400.0,638.6027765514672 399.3497689251724,636.705245569094 398.5550420559386,636.0456808491281C397.7603151867048,635.386116129162 396.0994131627102,634.9935160072131 394.86414866928385,635.1732361336858C393.25018553238885,635.4080535842228 392.3643826200738,636.4844085473646 391.7161370586764,638.9984413503294C391.2199951662686,640.9225840930105 390.29339719026325,642.8281933444779 389.6570304453311,643.2331285758123C389.020663700399,643.6380638071468 387.317600121949,643.9762651994986 385.87244471544216,643.984687225483C384.42728930893537,643.9931092514673 382.6815282964919,643.321191359952 381.99297579890106,642.4915363554489C381.2078238928253,641.5454861843288 380.96443815905826,639.6065678247126 381.340184661537,637.2911135466015C381.69602771508846,635.0983098471754 383.1575951363657,632.3808664020959 384.9395760266543,630.5988855118072C387.5122774896674,628.0261840487941 388.8481608679074,627.5407794383067 394.31355833724297,627.1927691499267C398.8884238214786,626.9014636656684 401.57331258479144,627.2451111672751 403.82670898467666,628.4103877332623C405.55339944871537,629.303294074357 407.64876329881537,631.3538897340867 408.4830730960099,632.9672669771059C409.31738289320447,634.580644220125 410.0,637.5203740804274 410.0,639.5C410.0,641.4796259195726 409.34283454499086,644.3701377125245 408.53963232220195,645.9233595398932C407.73643009941304,647.4765813672618 404.92393009941304,650.5333065963325 402.28963232220195,652.7160822711614C399.65533454499086,654.8988579459905 396.6,657.192009211481 395.5,657.8119739722517C393.5296126187406,658.9224928281137 393.5314634074119,658.9396328686095 395.625,658.9695913140993C396.79375,658.9863160913446 399.09635506938105,659.2692710138762 400.7419001541801,659.5983800308361C403.3522206309302,660.120444126186 403.8169741740996,659.8653689847936 404.385952182395,657.5983800308361C404.86893956739675,655.6740050097695 405.68164785761223,655.0 407.5190520282149,655.0C409.89778181368655,655.0 410.0,655.2595679478563 410.0,661.3C410.0,664.8666666666668 409.4793650793651,668.1206349206349 408.79999999999995,668.8C408.14,669.46 405.7775,669.9889993100584 403.54999999999995,669.975554022352C401.3225,669.9621087346455 397.5450815870884,669.5003110003656 395.1557368601965,668.9493368350633C391.7317125759114,668.1597693437021 390.1634108516198,668.2708619618794 387.7520988459198,669.4737828127113C386.0694426649596,670.3132022657201 384.40186107787116,671.0 384.0463619857233,671.0zM495.2774855685564,668.0C487.28288842275623,668.0 484.81400954549207,667.6788915813189 484.3940416116279,666.5844726887995C484.09528777399584,665.805932667639 483.99691093234827,663.8934326676391 484.1754264079666,662.3344726887995C484.4598179072783,659.850906688634 484.9642486369961,659.4615768934061 488.25,659.189634738274L492.0,658.879269476548L492.0,648.3630170022744L492.0,637.8467645280009L488.25,638.1733822640005C484.566413793956,638.4942154871944 484.4944741781944,638.4330973151112 484.1879890375693,634.7223951774373C483.8803986444959,630.9983114362896 483.9583226099738,630.9081297458926 489.6879890375693,628.3572250511213C492.8845950669062,626.9340641340569 496.85,625.7089863042102 498.5,625.6348298736839L501.5,625.5L502.0,641.9918232991222L502.5,658.4836465982443L505.5,658.9965708012559C507.9318075619141,659.4123484531134 508.563597344183,660.0674483908907 508.83578770106783,662.4554338230043C509.0590383097449,664.414060158385 508.5760529640127,665.8368292802296 507.394658065963,666.7006863208705C506.2083933892815,667.5681042305861 502.1806088573778,668.0 495.2774855685564,668.0zM532.4486178316463,667.4449987569899C529.3069192633993,667.8046995934207 526.0961204328164,667.4928856905103 523.6551887788396,666.5910326327955C521.5405426072015,665.8097325448682 518.7779887349386,664.2006080779322 517.5161801738112,663.0152004840489C516.2543716126838,661.8297928901657 514.9592710655412,659.5463553277062 514.6381789579389,657.9408947896945C514.3170868503366,656.3354342516828 514.3152856844823,654.3419536129968 514.6341763671517,653.5109378148367C514.9890578961187,652.5861313746542 516.4918956408596,652.0 518.5082129334978,652.0C521.2130436787719,652.0 522.1719270980694,652.6262199952007 523.8674987967122,655.5C525.3854709928319,658.0727712656101 526.6212065630009,659.0 528.5320161214881,659.0C529.9617228541679,659.0 532.0018992538385,658.5341673086804 533.0657414540893,657.9648162415119C534.2816155817071,657.3141001560451 535.0,655.8739745309655 535.0,654.0872609569542C535.0,652.5239566176157 534.4375,650.7796076844696 533.75,650.2109299944071C533.0625,649.6422523043447 531.15,649.0246521823957 529.5,648.838485278965C526.8277499215556,648.5369795078761 526.4660926032719,648.0903125980556 526.189634738274,644.75C525.8944864098307,641.1838591712653 526.025814389306,641.0 528.8682061668453,641.0C530.5121213465089,641.0 532.5642857142857,640.2928571428572 533.4285714285713,639.4285714285714C534.2928571428571,638.5642857142857 535.0,637.0443858362347 535.0,636.0510161440136C535.0,635.0576464517925 534.3497689251724,633.705245569094 533.5550420559387,633.0456808491281C532.7603151867048,632.386116129162 531.0728151867048,631.9935160072131 529.8050420559387,632.1732361336858C528.1706114469341,632.4049337999581 527.4117672736646,633.2604272139549 527.1967243165277,635.1137590055461C527.0063821071645,636.7542092327534 525.9610017880339,638.1523692255392 524.3894217583281,638.8684290071624C523.0122069772281,639.4959300550009 520.7822637803894,639.732471720792 519.43399243202,639.3940771533646C517.9977362402784,639.033599795964 516.7419109169869,637.8198725336206 516.4013917142063,636.4631359637369C516.0817326677782,635.189512876869 516.4231499221794,632.9172503072592 517.1600967239867,631.4136635868264C517.897043525794,629.9100768663935 519.7314529414084,627.7685507668183 521.2365620920186,626.6547166988814C523.0207958037197,625.3343205718309 525.9788106268836,624.5009228437319 529.7365620920186,624.2599076420208C533.9095442664265,623.9922603136029 536.4620073205449,624.3883174680788 538.9860885103203,625.6951257179772C540.9034371909964,626.6878065730898 543.0585646649937,628.625 543.7752606747584,630.0C544.5179156478696,631.4248029486907 544.873550710841,634.2159200508394 544.6021673858082,636.4897804052521C544.3076183807976,638.9577408256077 543.2968469139081,641.1509605079831 541.9522112590603,642.2397804052521C540.7566327080364,643.2079011823635 540.2476424636327,644.0 540.821121827052,644.0C541.3946011904713,644.0 542.8226116655646,645.3465105567815 543.9944784383704,646.9922456817367C545.254555711467,648.7618610310377 546.1471731705612,651.5805923600298 546.1790559566596,653.8907631022472C546.2087068189129,656.0392125585728 545.4445555388472,659.1317084137795 544.4809420009582,660.7629761138177C543.5173284630691,662.3942438138558 541.5292889988671,664.4375553096496 540.0630765249535,665.3036683266926C538.59686405104,666.1697813437355 535.1703576390519,667.1333800373693 532.4486178316463,667.4449987569899zM150.01213077863378,639.0C148.12715150899024,639.0 146.69849339677683,638.3051468504018 146.03518375848802,637.0657414540893C145.4658326913196,636.0018992538385 145.04485601140777,632.2893992538385 145.0996800253506,628.8157414540893C145.15450403929347,625.3420836543402 145.5022385804826,621.4175881403356 145.87242345021536,620.0946403118569C146.24260831994812,618.771692483378 147.3509446507492,617.1966924833781 148.33539307421776,616.5946403118569C149.7709534736414,615.7167047743324 150.47693893252415,615.9279725477006 151.9015357457787,617.6618167136572C152.87846579166865,618.8508159061687 154.21409729702066,623.0712053532071 154.86960575767205,627.0404599292981C155.89559975762936,633.2530897027198 155.84523717287843,634.5872526185599 154.50766668139215,636.628643215641C153.45562153342078,638.2342670586035 152.00397159500662,639.0 150.01213077863378,639.0zM117.5888225995455,628.0C117.32734453530944,628.0 116.41289115140603,626.9998721904676 115.55670396864906,625.7774937565946C114.70051678589208,624.5551153227216 114.01431151734171,622.8676153227216 114.03180337187047,622.0274937565946C114.04929522639921,621.1873721904676 114.61710007144332,619.7730897738468 115.29359191641291,618.8846439418817C115.9700837613825,617.9961981099165 119.31793973136396,615.8586981099165 122.73327184970503,614.1346439418817C126.14860396804612,612.4105897738467 130.02569900105306,611.0 131.3490385897204,611.0C132.6723781783878,611.0 134.29143795894302,611.6462349705786 134.94694921317648,612.4360777123968C135.81406402669106,613.4808871452698 135.84773861002364,614.415985917774 135.07054553091797,615.8681844697282C134.48301225144232,616.9660004444422 132.05458899892926,619.4602188714068 129.67404941422228,621.4108920852051C127.29350982951532,623.3615652990034 123.70744499238403,625.6421172582042 121.70501644281944,626.4787853278737C119.70258789325484,627.3154533975431 117.85030066378157,628.0 117.5888225995455,628.0zM178.25,616.9673541498694C177.2875,616.9493989322974 174.1924285686689,616.137143982853 171.37206348593088,615.1623431511038C168.55169840319283,614.1875423193545 165.06419840319285,612.6168591109789 163.62206348593088,611.6719360213801C162.17992856866888,610.7270129317815 161.0,609.326072241932 161.0,608.5587344883816C161.0,607.7913967348311 161.27314496188293,606.4517705757655 161.6069888041843,605.5817874682358C162.02752815857372,604.4858794776972 163.50763197398257,604.0 166.4254875767565,604.0C168.74181805936982,604.0 172.9477499652088,604.6862197248648 175.77200292306537,605.5249327219217C178.59625588092192,606.3636457189787 181.60293143326442,607.7457885761215 182.4535041504932,608.5963612933504C183.30407686772193,609.4469340105791 184.0,610.7857142857142 184.0,611.5714285714286C184.0,612.3571428571429 183.1,613.9 182.0,615.0C180.9,616.1 179.2125,616.9853093674412 178.25,616.9673541498694zM481.5,607.2490612221333C470.0319467823802,607.7262986642821 462.65311570240505,607.6360285474972 461.1662520586008,607.000305046331C459.88269069083117,606.4515054774665 459.01738237860957,605.4394279275066 459.24334469810833,604.7512438241978C459.46930701760704,604.063059720889 461.05866374320027,602.5480683016627 462.77524853275986,601.3845962259172C464.49183332231945,600.2211241501717 468.73486509878796,598.5561707769132 472.20420803602315,597.6846998408982C475.6735509732583,596.8132289048833 482.78438082129475,595.5479410805891 488.00605214277084,594.8729491202446C493.7195833965398,594.134375697285 510.77046101654497,593.6166844937727 530.8267674301168,593.5728455052636C563.0418685357752,593.5024298754824 564.2024558545147,593.5667131204243 565.6201427469578,595.5C566.5665925648817,596.7906651143652 566.9826999602723,599.273337214087 566.7933753168411,602.5L566.5,607.5L561.5,607.0C558.75,606.725 543.675,606.5 528.0,606.5C512.325,606.5 491.4,606.83707754996 481.5,607.2490612221333zM131.25,597.7886734782292C130.2875,598.2611460255921 127.41678136530703,598.3220474225732 124.87062525623786,597.924009915965C122.32446914716868,597.5259724093569 118.16196914716868,596.280540347114 115.62062525623786,595.1563831109809C111.61500987617352,593.3845089735473 111.0,592.7151807291316 111.0,590.1276590031616C111.0,588.4860179799941 111.73067044575784,586.4121866970993 112.62371210168408,585.519145041173C113.7894429974373,584.3534141454198 115.12921913503911,584.0859616834009 117.37371210168408,584.5709275301016C119.09317044575783,584.9424495549385 122.525,586.3051350581628 125.0,587.5991175372667C127.475,588.8931000163707 130.2875,590.5747642085869 131.25,591.3361490755251C132.2125,592.0975339424632 133.0,593.6675433365342 133.0,594.8250588401274C133.0,595.9825743437206 132.2125,597.3162009308663 131.25,597.7886734782292zM369.4860344531269,596.5690921842179C373.3437155039071,596.2271864925892 390.0953828541642,595.5168249341168 406.71196189814265,594.9905109431684C423.3285409421211,594.4641969522198 437.5689933860197,594.2811128416312 438.35741177347285,594.5836573640827C439.53248384681496,595.0345748273646 439.91669131743686,592.9133674937269 440.4886923242689,582.8168691569972C440.8724782397536,576.0425911206487 441.032025795855,559.3992760579428 440.8432424489387,545.8317245732062C440.65445910202243,532.2641730884695 440.12571356705564,520.7891730884695 439.6682523712347,520.3317245732062C439.21079117541376,519.8742760579428 425.71079117541376,519.3519718030926 409.6682523712347,519.1710484513169C393.62571356705564,518.9901250995412 376.45,519.1364769650842 371.5,519.4962748191903L362.5,520.1504527357467L362.4860344531269,558.6705958160085L362.47206890625375,597.1907388962702L369.4860344531269,596.5690921842179zM623.425920123396,595.505390561495C643.8166640555282,595.1051689716573 660.5665969717459,594.7152290812965 660.6479932705465,594.6388574718042C660.7293895693471,594.5624858623119 660.9551353083694,577.6702382974726 661.1496504683741,557.100529549939L661.5033143956553,519.701059099878L643.0016571978276,520.3477039419439C632.8257457390224,520.7033586050802 615.95,520.9970828851236 605.5,521.0004245642626L586.5,521.0065003445155L586.425920123396,558.6197832619487L586.351840246792,596.2330661793817L623.425920123396,595.505390561495zM162.5,590.2740525327135C161.4,590.5754785557288 159.9375,590.5996273816471 159.25,590.32771659031C158.5625,590.0558057989729 158.0,588.4203216055212 158.0,586.6933072715285C158.0,584.1524820911619 159.15844338711625,582.4509438169583 164.0706560009383,577.7766406048618C167.96597084472387,574.069984538062 170.99151690699182,572.0 172.51395203228924,572.0C173.83215284948642,572.0 175.5784162277128,572.987717354771 176.44329603135094,574.2225062434054C177.2994832141079,575.4448846772784 178.0,576.7603583004038 178.0,577.1457809614619C178.0,577.53120362252 176.8231998603712,579.2450969402132 175.38488857860267,580.9544327785579C173.94657729683416,582.6637686169028 170.90907729683417,585.3366461678588 168.63488857860267,586.8941606695716C166.3606998603712,588.4516751712845 163.6,589.9726265096982 162.5,590.2740525327135zM317.6800018506882,588.0C314.787361784191,588.0 312.1581400632337,587.2333536956932 309.9519494574298,585.7466020611514C308.1128501172453,584.5072331947847 305.7428274727643,582.0115972500363 304.68523246969426,580.2007444061551C303.5922894934201,578.3293674697654 302.5427438414254,574.1726731740254 302.25357484307915,570.5702367988544C301.9707618810716,567.0469832428641 302.29611932362826,561.9341038866551 302.98617936302816,559.0576108792532C303.6689285405684,556.2115929636066 305.3549467982627,552.5431877851141 306.7328866023488,550.905599371492C308.11082640643485,549.2680109578699 310.5122826009346,547.2693285664388 312.0694559234593,546.4640829460895C313.626629245984,545.6588373257404 317.1953740804273,545.0 320.0,545.0C322.80462591957263,545.0 326.38949154017797,545.667173708252 327.96636804578975,546.48260824056C329.7367031335057,547.3980840937057 331.28235215220167,549.3255056627933 332.0070330174723,551.521310252255C332.9155055742096,554.2740091368032 332.90666014185183,555.4075413614752 331.9678801831246,556.538702011695C331.30085689541966,557.3424159052628 329.28769480484704,558.0 327.4941866485188,558.0C325.07701649326793,558.0 324.09827658027274,557.4838121784232 323.71157076529335,556.0050468702675C323.42464018584764,554.9078226489146 322.4711498779449,553.7342915741195 321.59270341439856,553.3972000373894C320.71425695085213,553.0601085006593 318.9064994205698,553.0576351150869 317.5754644582155,553.3917036250061C315.9323300636809,553.8041041060635 314.77742348661343,555.1443836981626 313.9780357256306,557.5665524050321C313.33048488506313,559.5286507241273 313.03197882059646,561.36531215393 313.3146889157046,561.6480222490379C313.59739901081275,561.930732344146 314.83313950424315,561.6244847857503 316.0607789011054,560.9674721192696C317.32541859759004,560.2906574933719 320.2067785446679,559.9886310553886 322.70869031316755,560.2706327653912C325.4183028718869,560.576045364118 328.07293971298725,561.6593464704007 329.57908296208393,563.0742945853191C330.929087039216,564.342557564432 332.53429198061065,567.0512685742851 333.1462050540721,569.0936523849925C333.7581181275335,571.1360361957001 333.9637234185279,574.3798337933202 333.60310570072625,576.3020914908152C333.2424879829246,578.2243491883102 331.9837086691351,581.0222876796424 330.80581833674967,582.5197325826648C329.62792800436426,584.0171774856871 327.179208035614,585.8628287512785 325.36421840619363,586.6211798395345C323.54922877677325,587.3795309277905 320.0913313267958,588.0 317.6800018506882,588.0zM396.4725062434054,585.984687225483C395.9073846772784,585.9931092514673 394.4448846772784,585.2994832141079 393.2225062434054,584.4432960313509C392.00012780953244,583.587108848594 391.0,582.294236004491 391.0,581.5702452666778C391.0,580.8462545288647 393.9136216275098,574.3467713147568 397.4747147277996,567.126949235327L403.9494294555992,554.0L397.99376675601457,554.0C392.47504922528145,554.0 391.9920696090713,554.183415847611 391.41064399834033,556.5C391.050703878192,557.9341156680324 390.0619673894352,559.0 389.09159197012536,559.0C388.1612163865564,559.0 386.85999999999996,558.46 386.2,557.8C385.5206349206349,557.1206349206349 385.0,553.8666666666666 385.0,550.3L385.0,544.0L398.44329603135094,544.0C411.2015991425488,544.0 411.9659127289144,544.1132461145078 413.44329603135094,546.2225062434054C414.2994832141079,547.4448846772784 415.0,548.99987625395 415.0,549.6780430804536C415.0,550.356209906957 411.5778283536665,558.4685820974246 407.3951741192589,567.7055368370482C403.2125198848513,576.9424915766716 399.2750198848513,584.8306092514673 398.6451741192589,585.234687225483C398.0153283536665,585.6387651994986 397.03762780953247,585.9762651994986 396.4725062434054,585.984687225483zM141.8440541233831,585.0C141.4185264898592,585.0 140.53960299072995,584.0082574109769 139.89089079198476,582.7961275799485C139.2421785932396,581.5839977489201 138.10668689584392,578.3214977489201 137.36757590888328,575.5461275799485C136.62846492192267,572.7707574109768 136.0183967568491,568.8228738409344 136.01186887538654,566.7730529798542C136.00269894037717,563.8936005595518 136.56849117740492,562.6736162340017 138.5,561.4080430463703C140.79370714254597,559.9051484046648 141.20100221185223,559.9016818405257 143.43588428524532,561.3660328165695C145.18194342825907,562.5100947072359 146.06603903038956,564.257573745165 146.55776902391608,567.5366642805329C146.93506927330006,570.0526826097672 147.02271927388625,574.4117563956389 146.7525468029965,577.2234949158035C146.42878288409727,580.5929702706031 145.64027183078085,582.7898712983632 144.43953242922086,583.6678733853241C143.43754699453402,584.4005430233958 142.26958175690703,585.0 141.8440541233831,585.0zM617.0,582.4450534181708C615.4694477651354,582.861176266248 614.0152761174323,582.6352252431416 613.25,581.8623736925779C612.5625,581.16806816166 612.0016821271969,579.2275 612.0037380604376,577.55C612.0057939936783,575.8725000000001 612.8771558777645,573.0737152700791 613.9400978028516,571.3304783779536C615.0030397279387,569.5872414858281 618.5750919344063,566.3258106624312 621.8779915950017,564.0828543259604C625.1808912555972,561.8398979894896 628.5845293715109,559.0035549098781 629.4416318525878,557.7798697046014C630.2987343336645,556.5561844993247 631.0,554.3602154446706 631.0,552.8999384720368C631.0,551.4396614994029 630.3497689251724,549.705245569094 629.5550420559387,549.0456808491281C628.7603151867048,548.3861161291621 627.0728151867048,547.9935160072132 625.8050420559387,548.1732361336859C624.0403536531268,548.4233992072216 623.3827887648005,549.2962020551437 623.0,551.8964408522288C622.725,553.7644833209547 621.7362459312101,555.7722030877258 620.8027687360224,556.3580403339424C619.6560451274677,557.0777080499514 618.196441771118,557.1054418889444 616.3027687360224,556.4435445737929C614.0877927037951,555.6693419201749 613.4315735629458,554.7497646438154 613.1737225942841,552.0587292742902C612.9942700211402,550.1858907738624 613.4160429616868,547.5911337069776 614.1109957954986,546.2926024589905C614.8059486293105,544.9940712110033 616.7527734618826,543.0861941964811 618.4372732012146,542.0528757600522C620.1217729405466,541.0195573236233 622.85,540.0670790451317 624.5,539.9362573634041C626.15,539.8054356816765 628.969108328608,539.7662598142039 630.7646851746845,539.8491998801316C632.9307930969852,539.9492552658281 635.1968694632138,541.0936356430117 637.4988733271132,543.25C639.951548981091,545.547503684695 641.1361403755377,547.6723031572984 641.5408018575342,550.5C641.9731243732872,553.5209868426133 641.5486761186343,555.60138980206 639.8066137051055,559.0C638.186641302686,562.1604233490644 635.7257743602914,564.6801174154423 631.5398965799286,567.4643333330582C625.9328060683663,571.1938618747282 625.7255034273381,571.4692971925483 628.0398965799286,572.1146533077076C629.3929534609679,572.4919459605827 631.4579058453982,572.8454959607066 632.6286796564403,572.9003199746494C634.0997397707756,572.9692055437135 635.1412521157231,572.0732007888804 636.0,570.0C636.6834523779156,568.35 637.7505465325174,567.0068907485327 638.3713203435597,567.015312774517C638.9920941546019,567.0237348005014 640.1202219809842,567.4234665941163 640.8782710688538,567.903605649217C641.8928188307827,568.5462078389194 642.1383608906765,570.4104247932271 641.8087132783439,574.967756461855C641.5321804230831,578.7907841178994 640.813735593123,581.5308385146967 639.9304422094901,582.1312360861381C639.091649785076,582.7013851938901 636.0183207773761,582.8069440813873 632.5,582.386447686094C629.2,581.9920441645643 624.925,581.6909524165387 623.0,581.717354912704C621.075,581.7437574088691 618.375,582.0712217363292 617.0,582.4450534181708zM705.5,580.3028487994984C703.3,580.5994882391841 699.7096614200484,580.4133651869889 697.5214698223299,579.8892420168424C695.3332782246114,579.3651188466959 692.2749911135002,577.7215190102439 690.7252762420828,576.236797935838C688.4000831161795,574.0091215420927 687.9593814554021,572.8349263133613 688.2038064197529,569.5186525366408C688.4759684931452,565.8260512125237 688.7531055104063,565.4753650252537 691.6195807970132,565.1963685459468C694.2769923141973,564.9377204212523 695.0497890658412,565.4192114475089 696.835855464412,568.4463685459468C698.4660591290909,571.2093579842906 699.5730352892323,572.0 701.8112871052867,572.0C703.4343453454511,572.0 705.4914733990504,571.1144093501086 706.527404620635,569.969718235054C707.9804261116294,568.3641475600236 708.1659620016458,567.3705033713546 707.4143372748264,565.219718235054C706.6855645314179,563.1343243831291 705.7104080967293,562.4269379890918 703.2332734406255,562.1867405878729C701.2831627187237,561.9976464963041 699.5890080143508,561.1005715420343 698.9590533576077,559.9234904988372C698.3850715208911,558.8509956265374 698.2719737640454,557.3737340854553 698.7077250090615,556.6406870742105C699.1434762540777,555.9076400629657 701.1875,553.841986115422 703.25,552.0503449685579C705.3125,550.2587038216938 707.0,548.3669753630384 707.0,547.8465039493236C707.0,547.3260325356089 704.4125,547.0351490232188 701.25,547.2000961440122C696.9388461582168,547.42495382417 695.5,547.8753511717088 695.5,549.0C695.5,549.8850659200372 694.3958845056916,550.627474414958 692.8067466978532,550.8109465366572C690.4494254513811,551.0831084149308 690.0446942374929,550.7089155507763 689.5619129290208,547.8109465366572C689.2585436723435,545.9899259414957 689.3517319719551,542.9847666734833 689.7689980392688,541.1328148299629L690.5276636162029,537.7656296599257L702.9886242781326,537.9375196925137C711.3948875225473,538.0534780766404 715.6968486451738,538.4983492489852 716.2094796955142,539.3047048625508C716.6274218110127,539.9621171881479 716.9762651994986,542.3779736231254 716.984687225483,544.6732747180565C716.9957276497669,547.6821823127842 716.3017663648271,549.6763529642277 714.4974209434624,551.8206956615189L711.9948418869249,554.7948418869248L715.4974209434624,558.2974209434624C718.4293387847663,561.2293387847662 718.999390972744,562.5087281246753 718.9962619395624,566.15C718.9940719701223,568.6984786091592 718.1841007254017,571.825858237299 717.0404844880994,573.7014514851578C715.9668628230354,575.4622498019946 713.8310449502324,577.5465382838285 712.2942225485369,578.3332036670108C710.7574001468416,579.1198690501933 707.7,580.0062093598126 705.5,580.3028487994984zM317.95162440842563,580.0C318.9996595552201,580.0 320.5642857142857,579.2928571428572 321.42857142857144,578.4285714285714C322.29285714285714,577.5642857142857 323.0,575.3046382582684 323.0,573.4071326374217C323.0,570.6698243870468 322.46750800406335,569.7145028277849 320.42234074421634,568.7826622636471C318.6396176000472,567.9703992409699 317.34729604027376,567.9219447900823 316.23185979696984,568.6255438965366C315.3448078666653,569.1850818793549 314.212448048359,570.862655854923 313.71550464517816,572.3534860644656C313.047475346373,574.3575739608809 313.2334565154151,575.7073543674804 314.42903857227884,577.5320432227261C315.3184256353651,578.8894194502268 316.90358926163117,580.0 317.95162440842563,580.0zM497.66666666666663,580.0C491.43333333333334,580.0 486.0333333333333,579.7 485.66666666666663,579.3333333333333C485.3,578.9666666666666 485.0,577.1666666666666 485.0,575.3333333333333C485.0,572.2071895037177 485.2119692140064,572.0 488.4102308949521,572.0L491.82046178990424,572.0L492.5095716345461,563.7273271619606C492.88858204909906,559.177357101039 493.0414781463706,554.3398571010389 492.8493407395939,552.9773271619606C492.54399705576384,550.8120022629389 491.99622759927763,550.5 488.5,550.5C484.76273833962046,550.5 484.4802246469062,550.2973515738183 484.1989346416307,547.414825198721C484.0333486945276,545.7179790580176 484.4833486945276,543.879052926108 485.1989346416307,543.3283226833663C485.9145205887338,542.7775924406246 489.0484498676601,541.3170058995015 492.16322192813357,540.0825748142038C495.277993988607,538.848143728906 498.87799398860705,537.9870698608156 500.16322192813357,538.1690773295585C502.4808466011112,538.4972875926967 502.50409824944853,538.635242231802 503.0,555.0L503.5,571.5L506.25,571.8164223456972C508.73029968047996,572.1018122522171 509.0,572.5186218369299 509.0,576.0664223456972L509.0,580.0L497.66666666666663,580.0zM519.2496599268842,580.0C518.7823469670979,580.0 517.86,579.46 517.2,578.8C516.54,578.14 516.0029651425662,576.0025 516.0065892057027,574.05C516.0102132688392,572.0975 516.8374565613243,569.2499258796896 517.8449076334476,567.7220575104213C518.852358705571,566.1941891411531 522.4047267474926,562.9590296382862 525.7390588377181,560.5328141707171C529.0733909279435,558.1065987031479 532.5211476354583,555.094045013926 533.4007404099731,553.8382504168903C534.2803331844879,552.5824558198547 535.0,550.5852154446706 535.0,549.3999384720368C535.0,548.214661499403 534.3308436934536,546.6895390217982 533.5129859854526,546.010777410693C532.660114857453,545.3029572419243 530.9542993631964,545.045638093176 529.5129859854526,545.4073847234657C527.527050496752,545.9058228023066 527.0,546.6677969572287 527.0,549.0404908193648C527.0,551.2726163720531 526.3586259274158,552.3351071663312 524.5,553.1819538114579C522.6298406176306,554.0340554503356 521.3701593823694,554.0340554503356 519.5,553.1819538114579C517.6232951815776,552.3268698723332 517.0,551.2771971690597 517.0,548.9717788642656C517.0,547.2826745693469 517.6551770982862,544.6337073453885 518.4559491073028,543.085185033247C519.2567211163195,541.5366627211054 521.568807803845,539.4834348394288 523.5939195240263,538.522456407299C526.2049491076241,537.2834417443127 528.8476603034337,536.9055620999527 532.6794415714907,537.223323211979C535.924991971111,537.4924694998213 539.1646245413972,538.4714952221464 540.7914711547671,539.6748004860171C542.2811620196452,540.7766578120343 544.0786614656777,543.4658012589963 544.7859143681726,545.6506748125995C545.8338001924026,548.8878450192958 545.8338001924026,550.342249375039 544.7859143681726,553.5078814618782C543.9210815598705,556.1205158008569 541.805393396484,558.7718627130478 538.3249479731867,561.6046622623605C535.4786693584394,563.9213015991257 532.3324180765356,566.2742174005039 531.3332784578449,566.8333640432006C530.3341388391541,567.3925106858975 529.7379122512201,568.0510866175953 530.0083304846581,568.29686611364C530.2787487180962,568.5426456096848 532.6375,569.0539696963914 535.25,569.4331418618768C539.8450243410576,570.1000529929227 540.0,570.0401284666632 540.0,567.5964566580496C540.0,566.2002027030278 540.782716470073,564.6678024724195 541.75,564.1703112962243C542.7125,563.6752803748108 544.0625,563.4719476834912 544.75,563.7184608710695C545.5586528681017,564.0084151927571 546.0,566.2557097576517 546.0,570.0833333333333C546.0,574.6666666666666 545.5492957746479,576.4507042253521 544.0,578.0C542.9,579.1 540.7625,579.9946590060761 539.25,579.9881311246135C537.7375,579.9816032431509 534.0705443724534,579.329671277991 531.1012097165628,578.5393934242582C526.3977667305701,577.2875888084491 525.3415885853551,577.289117482465 522.9008696434471,578.5512622996446C521.3600172591238,579.3480680348401 519.7169728866705,580.0 519.2496599268842,580.0zM566.75,517.7158490042318C566.0161441763263,518.2798838007415 564.0547963062862,518.3415431137291 562.0,517.8651757713826C560.075,517.4188993540017 552.5413255134033,516.7470864985527 545.2585011408962,516.3722583148293C537.9756767683891,515.997430131106 517.7256767683891,516.2632736172333 500.2585011408962,516.9630216173346C476.0698869800986,517.9320354261612 467.48697928083294,517.9597039213343 464.25,517.0791012811172C461.62616998381804,516.365302569642 460.0,515.3425491374072 460.0,514.406132200239C460.0,513.538578030507 462.3658707910767,511.80622106860125 465.52736263165986,510.35884222478944C468.56741207907277,508.9670615477545 474.60248148399137,507.2089759278746 478.93862797592345,506.45198529172296C483.27477446785554,505.6949946555714 493.2749612836086,504.6130700603232 501.1612653442636,504.0477084133937C509.0475694049186,503.48234676646416 523.825,503.03005145469456 534.0,503.0426077205723C544.175,503.05516398645005 555.6013764513797,503.4650105254884 559.3919476697326,503.95337780732416C563.1825188880857,504.4417450891599 566.663128139553,505.43952169780846 567.1266348952156,506.17065915987644C567.5901416508783,506.90179662194436 567.9762651994986,509.58239987805104 567.984687225483,512.1275552845578C567.9931092514673,514.6727106910647 567.4375,517.1874428649179 566.75,517.7158490042318zM637.25,493.9046129315532C636.8375,493.85215004390744 633.1407582275444,493.1489967861171 629.0350182834321,492.3420501364635C623.5534451283353,491.2646957125236 620.9504168052839,491.1571920664338 619.2379652623063,491.93743720491034C617.9553260447993,492.5218467422097 616.0573922690056,493.0 615.0203346494312,493.0C613.9832770298568,493.0 612.8367094205383,492.06087744349776 612.4724066287233,490.91306098555054C612.1081038369084,489.76524452760333 612.0962415662895,487.3005253572285 612.4460460273478,485.43590727360635C612.9201648844846,482.9086364888692 614.6501228041999,480.7035443603816 619.2424654455283,476.7728462880558C622.6306916644692,473.8727808296251 626.8872294833376,470.0825 628.7014383763468,468.35C630.515647269356,466.6175 632.0,464.28714285714284 632.0,463.1714285714286C632.0,462.0557142857144 631.2689095169518,460.41176665980896 630.375354482115,459.51821162497214C629.4817994472783,458.6246565901353 627.7942994472783,458.0300137329925 626.625354482115,458.1967830535435C625.2384819853611,458.394643338559 624.134905247281,459.62951329158676 623.4492556562385,461.7507443437614C622.8713462671697,463.53865373283026 621.9160672480491,465.4839327519508 621.3264133915261,466.0735866084738C620.7367595350032,466.6632404649968 618.7345944896958,467.0004055103042 616.8771577352877,466.82284226471234C613.6851411434366,466.517698725 613.4832646935308,466.26950939875485 613.1947314430183,462.2956232609472C612.9325215033572,458.6842805731855 613.3729233427613,457.5636998402531 616.3170062017703,454.35114931798523C619.4783111711511,450.9015684410901 620.2472198930973,450.5790444763239 626.2159106474187,450.1989868863102C630.8875441314461,449.90151968010906 633.5603696961722,450.2384181394506 635.8267089846767,451.41038773326227C637.5533994487155,452.3032940743571 639.6487632988154,454.35388973408675 640.48307309601,455.96726697710585C641.3173828932045,457.580644220125 641.9983178728031,460.6105271133295 641.9962619395624,462.7003400731158C641.9942060063217,464.7901530329021 641.051234482554,468.04403734361597 639.9007696645231,469.9311940969244C638.7503048464921,471.8183508502329 636.6405503117527,474.29335085023286 635.2124262539911,475.4311940969244C633.7843021962295,476.569037343616 631.0678284025502,478.4472760570071 629.1758178235925,479.6050579044603L625.7357985891242,481.71011580892053L630.6167595038237,482.2602708310642C633.3012880069083,482.56285609324317 635.8357333243554,482.6015223887673 636.2488602092615,482.34619593222897C636.6619870941677,482.09086947569057 637.0,481.0350813061875 637.0,480.0C637.0,478.9649186938125 637.4093910717374,477.8650163917254 637.9097579371943,477.55577266202886C638.4101248026511,477.2465289323323 639.5351248026511,477.2681162467465 640.4097579371943,477.60374447183824C641.6144778798898,478.0660388900696 642.0,479.6426193373114 642.0,484.1069888041843C642.0,488.6666666666667 641.5474865772255,490.4525134227745 640.0,492.0C638.9,493.1 637.6625,493.9570758191989 637.25,493.9046129315532zM709.2996599268843,493.9608581893648C706.1098469670978,493.9393301935154 702.15,493.32581231237486 700.5,492.5974851201636C698.85,491.86915792795224 696.7729390270914,490.4242717427381 695.884308949092,489.3866269307988C694.9956788710924,488.34898211885945 693.9835802448529,486.2982583974528 693.6352008907818,484.8294631054506C693.2868215367107,483.36066781344846 693.2745274715022,481.4481678134485 693.6078807458741,480.5794631054506C693.9942732415309,479.5725404023682 695.4355555143496,479.0 697.5839358243301,479.0C700.1693557119412,479.0 701.3612898095413,479.64020983783854 702.7038489757222,481.75C703.666324190209,483.2625 704.9141980311434,484.8306092514673 705.4769019555764,485.23468722548296C706.0396058800094,485.63876519949855 707.5125,485.9762651994985 708.75,485.98468722548296C709.9875,485.99310925146733 711.8692944126317,485.1307055873683 712.9317653614037,484.0682346385962C714.3999427458212,482.60005725417864 714.6831853893051,481.4601450605548 714.1120339505753,479.3182346385962C713.4997266389927,477.0219830261747 712.5862832469934,476.3347718911046 709.1802685891715,475.6079181574711C705.280286499675,474.7756502938127 705.0,474.49068831153613 705.0,471.3579181574711C705.0,468.53028849202394 705.3596659219021,468.0 707.2774937565946,468.0C708.5301153227216,468.0 710.5551153227216,467.2994832141079 711.7774937565946,466.44329603135094C712.9998721904676,465.58710884859397 714.0,463.8422089705429 714.0,462.5657407467931C714.0,461.2892725230433 713.3116737607622,459.67362939073263 712.4703861350271,458.9754226749917C711.3366842203312,458.0345336540729 710.338177886806,457.980516294212 708.6126366254337,458.7667255075164C707.2295150092979,459.39691788950654 706.04450364289,461.02748178554975 705.6932437717229,462.7837811413855C705.3136339674264,464.6818301628679 704.3293926451051,465.942105034816 702.9436717754404,466.3044791825474C701.7565986424846,466.614905780188 699.7086516658924,466.45952854432835 698.3926784941241,465.95919643619254C696.4822771667207,465.232863146099 696.0,464.32578872626107 696.0,461.4590093929744C696.0,459.4842386273402 696.486306952202,456.9598442397603 697.0806821160045,455.8492440872413C697.675057279807,454.7386439347223 700.037557279807,452.9781104892834 702.3306821160045,451.9369475418215C704.623806952202,450.89578459435967 708.2054271302834,450.0340411007609 710.2898380672964,450.02196200049093C712.3742490043095,450.00988290022093 715.8467029283478,450.901469804241 718.0064023429372,452.00326623164665C720.1661017575266,453.1050626590523 722.3981746272432,454.87547900471213 722.9665642756407,455.9375247775573C723.5349539240383,456.9995705504025 724.0,459.6482479631221 724.0,461.8234745836009C724.0,464.2179306810652 723.2509412739421,466.7034804448662 722.1015746405626,468.12288815371767C720.2142429890066,470.453644082747 720.22008662559,470.48663480168403 723.1015746405626,473.76846834433354C725.2365830420915,476.2001085765915 726.0,478.0937797484713 726.0,480.9580709463627C726.0,483.6939852092089 725.2236811279321,485.76915199567685 723.3808841496565,487.9591917719669C721.9403704319675,489.67114505668656 719.4877173990654,491.7306714335611 717.9305440765406,492.5359170539104C716.3620643850877,493.3470094248621 712.5126335725196,493.98254249630673 709.2996599268843,493.9608581893648zM503.41666666666663,490.98468722548296C497.87083333333334,490.99310925146733 493.0333333333333,490.7 492.66666666666663,490.33333333333337C492.3,489.9666666666667 492.0,487.94166666666666 492.0,485.83333333333337C492.0,482.1460905349794 492.1286231884058,482.0 495.375,482.0C498.355,482.0 498.82314814814816,481.63425925925924 499.375,478.875C499.71875,477.15625 499.9938553925184,473.21875 499.98634531670757,470.125C499.97883524089673,467.03125 499.69649445154647,463.46892804409856 499.3589213403737,462.20872898688566C499.00954744709344,460.9044762595375 498.0461896826718,459.98484188604783 497.1225760236661,460.0738834495462C496.23015921064973,460.15991746122234 494.7125,460.1784894171238 493.75,460.1151544626605C492.43502988502,460.02862607580045 492.0,459.1211060432698 492.0,456.464462609949C492.0,453.2050670087024 492.37099692412016,452.76655555301096 496.75,450.8500510633467C499.3625,449.7066702772435 503.40135988032966,448.54039416134765 505.7252441785104,448.2583263613559L509.95048835702084,447.7454758159164L510.2252441785104,464.5786026117099L510.5,481.41172940750346L513.0,481.9951634024625C514.9587234170674,482.45227773375825 515.5701890849424,483.30517171298936 515.8241830847464,485.9344340365722C516.0183314957703,487.94419451391616 515.6172165707758,489.62702746815523 514.8241830847464,490.1298225633444C514.0958823881359,490.5915761015362 508.9625,490.9762651994985 503.41666666666663,490.98468722548296zM850.5454545454545,455.0C849.1454545454545,455.0 847.1475951775537,454.1475951775537 846.1057670612304,453.10576706123044C845.0639389449071,452.0639389449072 843.8956214141637,449.3416629403016 843.5095058818005,447.05626482877364C843.1233903494373,444.77086671724567 843.3496465626699,439.0815630060485 844.0122974667619,434.4133676927799C844.6749483708538,429.7451723795113 845.8754087587403,425.2674483841169 846.6799872176205,424.4628699252367C847.4845656765007,423.6582914663565 849.1806141637654,423.0 850.4489838559864,423.0C851.7173535482075,423.0 853.243342651829,423.58828367074324 853.8400707529232,424.3072970460961C854.4367988540174,425.02631042144895 855.6168989759664,428.2708548637853 856.4625154683654,431.5173958068435C857.3081319607644,434.7639367499018 858.0,440.2711076246131 858.0,443.755553306202C858.0,449.1486471023107 857.6349337022732,450.45597538863586 855.5454545454545,452.5454545454545C854.1954545454546,453.8954545454545 851.9454545454546,455.0 850.5454545454545,455.0zM661.1932960313509,430.8621699284538C660.2619832141079,430.7863633891034 655.675,429.8623977320119 651.0,428.8089129126949C643.3138719458736,427.0768874101604 639.6687620741144,426.9457386295576 612.9308245393621,427.4392077142595C589.617370537235,427.8694753365365 582.9869460048279,427.710939882911 581.5905246750622,426.68985167657877C580.059952497234,425.5706699751772 580.0162216755701,425.23142663590534 581.2685458400196,424.1920898916626C582.0655759027602,423.5306136908606 585.3002822623646,422.100864337084 588.4567821946957,421.01486910549227C591.613282127027,419.9288738739006 599.2143015600833,418.3037265832276 605.3479364903762,417.40343068177447C613.746012677317,416.1707597358966 620.8216018367689,415.89003829423956 634.0,416.2666704214467C646.5357335423524,416.6249355103959 653.0601980295463,417.25301467630754 657.0,418.4807710337378C660.025,419.42344861222506 663.2875,420.8956603601475 664.25,421.75235269578764C665.2125,422.60904503142774 666.0,424.0401029117413 666.0,424.93248131870666C666.0,425.824859725672 665.2994832141079,427.5551153227216 664.4432960313509,428.7774937565946C663.587108848594,429.99987219046756 662.124608848594,430.9379764678042 661.1932960313509,430.8621699284538zM810.0,426.4620401431498C808.625,426.76828052187204 806.382473210811,426.4425376081322 805.0166071351356,425.73816700150576C803.6507410594602,425.03379639487923 802.1077484658073,423.24768776455034 801.5877347047959,421.7690367118859C800.9523388980468,419.962298604262 801.0157662745902,418.26081260721423 801.7811317684143,416.58101832691887C802.4075139144159,415.2062592678514 804.6719734437418,413.18767052732596 806.8132640558051,412.0952655701957C808.9545546678686,411.0028606130654 814.5690666544126,409.31400893188516 819.2899573592363,408.3422618342396C827.6085031454828,406.62997421102534 827.9370701956733,406.633074185574 829.9366975021851,408.4427120268268C831.0715138759832,409.4697067303954 832.0,411.1606852667283 832.0,412.2004421075667C832.0,413.240198948405 830.8717127273424,415.2191963635668 829.4926949496496,416.5982141412595C828.1136771719569,417.9772319189522 823.7261771719569,420.63545625077455 819.7426949496496,422.5053793230869C815.7592127273423,424.37530239539933 811.375,426.1557997644276 810.0,426.4620401431498zM891.2954545454545,419.9467749202288C889.2079545454545,419.9175011263546 883.675,418.77888704335214 879.0,417.4165214024456C873.8875980231519,415.9266902161866 869.7933264387153,414.09892164641514 868.7268482771958,412.8303713525048C867.6011139285154,411.4913372396554 867.1893978497683,409.9506133682293 867.5992370892434,408.610624870288C867.954284383412,407.4497811916296 868.6948027806228,405.9375 869.2448335274898,405.25C869.9161760744273,404.41086872661475 873.2450710443821,404.0078415559666 879.3724447154422,404.0238566343051C884.3926001219489,404.0369777831729 890.3,404.4647692768611 892.5,404.9745043980565C894.7,405.484239519252 897.2875,406.87335681685414 898.25,408.06143172606124C899.2125,409.24950663526835 900.0,411.3171696870347 900.0,412.65623850776433C900.0,413.995307328494 898.8954545454545,416.1954545454546 897.5454545454545,417.54545454545456C895.7713053509631,419.31960373994605 894.0388148739738,419.9852460889855 891.2954545454545,419.9467749202288zM833.4275322563715,389.0C832.8074318651218,389.0 830.4600311621956,387.66707765351043 828.211086249869,386.0379503411343C825.9621413375424,384.4088230287582 822.2733885717677,380.62730599487446 820.0138578814806,377.634579154726C817.7543271911935,374.6418523145776 815.6595457325265,370.67687804668446 815.3587879733313,368.8235252260747C814.9623624430884,366.3806410371377 815.345056694205,364.79544094518457 816.7501454801707,363.0602297458163C818.0895972048736,361.4060768859168 819.7130320370962,360.6666666666667 822.005406463383,360.6666666666667C824.4547847362695,360.6666666666667 825.9502307478587,361.4296201448012 827.7222917765819,363.58333333333337C829.0421895460312,365.1875 832.1196320747113,369.8655911657821 834.5610529514266,373.9790914795159C837.002473828142,378.0925917932496 839.0,382.4545750073575 839.0,383.67238751086677C839.0,384.8902000143761 837.9998721904676,386.58710884859397 836.7774937565946,387.44329603135094C835.5551153227216,388.2994832141079 834.0476326476212,389.0 833.4275322563715,389.0zM863.1877100150992,387.0C862.7792263745406,387.0 861.4448846772784,386.2994832141079 860.2225062434054,385.44329603135094C858.9043461987112,384.5200207969264 858.0,382.8388990333035 858.0,381.311799021797C858.0,379.89566284929936 860.0754136360886,374.6336796351914 862.612030302419,369.6185029904461C865.1486469687496,364.60332634570074 867.8817651972535,359.75297146721124 868.685626365761,358.83993659380275C869.4894875342685,357.92690172039426 871.2483076505565,356.90351078337653 872.5941155130677,356.5657345115411C873.9399233755788,356.22795823970563 876.044305147075,356.4798535725445 877.2705194497257,357.12550191784976C878.4967337523766,357.77115026315494 879.8306092514673,358.79454120017266 880.234687225483,359.3997040001114C880.6387651994986,360.00486680005014 880.9762651994986,361.8919269334855 880.984687225483,363.5931709633011C880.9950926491896,365.6950601039211 879.4366682512792,368.91244573084106 876.1218187799799,373.6326204631565C873.4388191089688,377.4530736582614 869.598160806231,382.0236467247759 867.5870225516737,383.78944949985544C865.5758842971164,385.55525227493496 863.5961936556579,387.0 863.1877100150992,387.0zM295.1803080406201,338.8399629274061C292.60613861827903,338.75194253747947 289.07101217407387,338.5009306515968 287.3244714979419,338.28215873655574C285.5779308218099,338.0633868215147 283.62669036819375,337.2551156986069 282.988381601017,336.4860006856495C282.3500728338403,335.7168856726922 282.1234068509825,334.6093405150406 282.48467941688864,334.02478922420164C282.8459519827948,333.44023793336265 285.247192436411,331.8966750361036 287.82076931381357,330.5946494525149C290.3943461912161,329.2926238689261 296.1,327.51136821398234 300.5,326.6363035526398C304.9,325.7612388912972 312.325,324.59872912574133 317.0,324.05294851807116C321.675,323.507167910401 335.175,322.5216201583597 347.0,321.8628424024239C359.00231891948874,321.19418610442756 391.9128882449813,320.69720669087286 421.5,320.7378249059582C450.65,320.7778430388379 484.4,321.32279474491287 496.5,321.94882869723597C508.6,322.57486264955907 543.2977596019417,323.3569917308944 573.6061324487595,323.6868933224255C611.9046841389013,324.1037666801532 641.3375525172938,323.8617351332598 670.1061324487595,322.8933571989684C692.8727596019418,322.12701073953576 716.3254256304581,321.5039970590316 722.2231680676847,321.50888235340346C730.6066368080284,321.51582665676875 733.2874944692629,321.8589230406988 734.5099123219683,323.08134089339785C735.3850286950674,323.95645726649246 735.7945889410454,325.37171770261176 735.4400735819747,326.2955699193484C735.0916953723489,327.20342898099625 732.4876604579213,329.02096624987274 729.6533293276912,330.33454162796284C726.818998197461,331.6481170060529 722.475,333.2066487368572 720.0,333.7979454741944C717.525,334.3892422115316 711.0,335.34420355810005 705.5,335.92008179990205C700.0,336.49596004170405 685.6,337.421574359008 673.5,337.977002505022C661.4,338.53243065103607 630.0217852657509,338.9898256925936 603.7706339238907,338.9934359307056C574.7034568052451,338.9974334479677 540.4909442993346,338.3295240540393 516.2706339238907,337.2852283865027C488.62885679069115,336.0934109549441 456.8294243562551,335.57114511793884 412.0,335.57271386242735C361.06668368070535,335.57449620427985 342.489856958376,335.93517471691507 323.6803080406201,337.28748547592465C310.57947746296117,338.2293684641661 297.7544774629612,338.92798331733275 295.1803080406201,338.8399629274061zM645.9121424545489,275.96959131409926C642.3854641045469,275.95286653685383 638.6,275.4426355590572 637.5,274.83574469677336C636.4,274.22885383448954 634.2223256163314,272.55503774314485 632.6607235918476,271.1161533826741C631.0991215673638,269.67726902220335 629.1575020937443,267.22853611443327 628.3460136504709,265.6745246987406C627.5345252071975,264.1205132830479 626.4320394207772,260.2955132830479 625.8960452362035,257.1745246987406C625.3434939335256,253.95712727627804 625.2113029159453,245.6866380626736 625.590761419019,238.07453921310668C626.2010652665373,225.83158463981556 626.4647564471178,224.44433446197314 628.5845516959843,222.32453921310668C629.9714765219065,220.93761438718448 632.1045006809535,220.0 633.8727579863098,220.0C635.5027748787802,220.00000000000003 637.5648727468075,220.27953160400088 638.4551976930373,220.62118134222413C639.3455226392672,220.96283108044736 640.7248375293728,222.5010010742319 641.5203418932722,224.03933688396754C642.6617589409077,226.24659406306517 642.837244363878,229.43637030872978 642.3526532959324,239.16815554174343C641.8492764427898,249.2772057287871 642.0299604065043,252.19180666095636 643.355070193207,255.3380754569088C644.2743720208847,257.5208158483157 645.511935067324,258.9960216442254 646.2244955161555,258.75850149461485C646.91361705784,258.5287943140533 648.1183505642573,256.656926346648 648.9016810859715,254.59879490038088C650.1578594293525,251.298297755224 650.109153313844,249.21172613849987 648.4889148556169,236.91587579241346C646.682432856622,223.206639229269 646.6838790267221,222.950822916213 648.5759556565272,221.51903086255132C649.6341800454372,220.7182402142421 651.9595420995548,219.77433609666207 653.7434268878997,219.42146615681793C655.5273116762445,219.06859621697382 658.1066267867941,219.06092958342083 659.4752382446766,219.40442919336687C660.8438497025592,219.74792880331287 662.6210802590547,221.30035663820593 663.4246394813333,222.85426882646254C664.2281987036118,224.40818101471916 665.4095846634917,228.6881830317823 666.0499416143996,232.36538441993622C666.6902985653074,236.0425858080901 667.0521058580783,244.1021839723947 666.8539578205571,250.27560256283527C666.5293329751723,260.389480451744 666.2192917686841,261.9673259682026 663.7202662714186,266.22342194070484C662.0066978078706,269.14180426385184 659.2993031000509,271.9123670870709 656.6355643952537,273.47342194070484C653.2136582284176,275.4787925203338 651.0015248242863,275.9937269958947 645.9121424545489,275.96959131409926z"/></svg>