<svg version="1.1" xmlns="http://www.w3.org/2000/svg" width="1024" height="1024">
<path d="M0 0 C337.92 0 675.84 0 1024 0 C1024 337.92 1024 675.84 1024 1024 C686.08 1024 348.16 1024 0 1024 C0 686.08 0 348.16 0 0 Z " fill="#FEFEFE" transform="translate(0,0)"/>
<path d="M0 0 C5.9 2.774 8.596 8.198 11.004 13.992 C12.634 18.915 13.373 23.867 14 29 C14.206 30.417 14.414 31.834 14.625 33.25 C14.749 34.158 14.873 35.065 15 36 C15.147 35.432 15.294 34.863 15.445 34.277 C17.155 28.391 19.504 24.208 24 20 C27.511 18.244 31.168 18.465 35 19 C41.295 21.555 44.398 26.99 47 33 C54.445 57.794 43.218 88.294 33.922 111.16 C32.32 115.118 30.972 119.074 29.812 123.188 C29.327 124.879 29.327 124.879 28.832 126.605 C27.257 133.032 26.818 139.233 26.812 145.812 C26.8 146.575 26.788 147.337 26.775 148.123 C26.77 150.083 26.877 152.043 27 154 C27.66 154.66 28.32 155.32 29 156 C29.996 155.375 30.993 154.75 32.02 154.105 C35.812 151.944 39.368 151.056 43.688 150.312 C44.382 150.188 45.076 150.063 45.791 149.935 C50.06 149.202 54.229 148.851 58.562 148.688 C63.585 148.362 65.861 147.108 69.348 143.562 C75.076 138.146 82.694 136.603 90.32 136.637 C94.964 137.266 99.657 139.657 103 143 C110.239 143.345 117.233 142.619 124.402 141.712 C129.31 141.108 134.054 140.91 139 141 C138.897 139.845 138.794 138.69 138.688 137.5 C138.698 131.645 141.493 127.533 145.527 123.457 C151.28 118.466 155.469 117.536 162.961 117.691 C169.193 118.324 173.211 120.853 177.375 125.438 C180.643 129.594 182 132.64 182 138 C185.63 138 189.26 138 193 138 C191.594 135.51 190.188 133.02 188.782 130.531 C187.591 128.421 186.401 126.311 185.212 124.2 C182.631 119.621 180.047 115.046 177.355 110.531 C176.796 109.585 176.796 109.585 176.225 108.62 C175.255 106.989 174.275 105.365 173.293 103.742 C171.175 99.25 171.175 99.25 172 96 C177.79 89.868 185.372 86.039 192.625 81.875 C193.916 81.127 195.207 80.378 196.497 79.629 C199.718 77.762 202.944 75.904 206.172 74.05 C207.906 73.054 209.639 72.057 211.372 71.06 C231.547 59.455 231.547 59.455 237 60 C240.377 62.809 242.233 65.915 244.234 69.789 C244.808 70.895 245.382 72.001 245.973 73.141 C246.559 74.29 247.146 75.44 247.75 76.625 C248.352 77.783 248.954 78.94 249.574 80.133 C254 88.723 254 88.723 254 91 C254.66 91 255.32 91 256 91 C255.97 89.875 255.94 88.749 255.909 87.59 C255.912 82.805 256.629 78.261 257.461 73.559 C257.612 72.673 257.762 71.788 257.917 70.876 C258.397 68.062 258.885 65.25 259.375 62.438 C260.012 58.749 260.644 55.06 261.273 51.371 C261.426 50.482 261.578 49.593 261.736 48.677 C262.86 42.043 263.789 35.403 264.592 28.723 C265 26 265 26 266 24 C266.444 20.986 266.832 17.968 267.207 14.945 C268.147 11.453 269.076 10.11 272 8 C276.592 7.155 281.352 7.732 286 8 C287.392 8.074 287.392 8.074 288.812 8.149 C304.703 9.037 320.402 10.833 336.156 13.062 C340.277 13.643 344.388 14.168 348.531 14.562 C349.325 14.64 350.118 14.717 350.935 14.797 C352.937 14.983 354.941 15.149 356.945 15.312 C360.542 16.122 361.852 17.029 364 20 C365.865 27.227 363.223 35.738 361.778 42.901 C360.118 51.151 358.754 59.44 357.438 67.75 C354.573 85.739 354.573 85.739 353.312 93 C353.102 94.217 352.892 95.434 352.676 96.688 C352 100 352 100 350.969 103.555 C349.796 107.725 349.33 111.837 348.855 116.133 C347.709 119.975 346.107 121.484 343 124 C339.635 124.592 339.635 124.592 335.684 124.496 C334.587 124.47 334.587 124.47 333.469 124.444 C322.938 124.064 312.489 122.494 302.062 121.062 C298.927 120.642 295.792 120.225 292.656 119.809 C290.725 119.552 288.794 119.292 286.863 119.028 C280.917 118.222 274.973 117.568 269 117 C271.64 121.62 274.28 126.24 277 131 C279.166 131.021 281.331 131.041 283.562 131.062 C284.781 131.074 285.999 131.086 287.254 131.098 C290.912 131.08 290.912 131.08 294.141 130.525 C298.595 129.919 302.997 129.688 307.484 129.5 C308.381 129.459 309.277 129.419 310.2 129.377 C313.05 129.248 315.9 129.124 318.75 129 C321.586 128.876 324.421 128.751 327.257 128.623 C329.014 128.544 330.772 128.467 332.53 128.393 C336.853 128.198 341.15 127.911 345.458 127.5 C350.863 126.988 356.257 126.712 361.68 126.5 C362.654 126.459 363.629 126.419 364.633 126.377 C367.714 126.249 370.794 126.124 373.875 126 C388.872 125.453 388.872 125.453 403.844 124.473 C411.759 123.812 419.687 123.629 427.625 123.438 C428.449 123.417 429.273 123.397 430.122 123.376 C443.294 123.062 456.469 122.844 469.645 122.769 C471.537 122.756 473.429 122.739 475.32 122.716 C477.974 122.686 480.627 122.677 483.281 122.672 C484.062 122.66 484.843 122.647 485.647 122.635 C493.652 122.667 499.347 125.56 505.207 131 C513.353 140.086 513.162 154.491 514 166.062 C514.081 167.172 514.162 168.282 514.246 169.425 C515.47 187.505 515.964 205.631 516.62 223.739 C517.022 234.755 517.468 245.768 517.934 256.781 C518.018 258.771 518.102 260.762 518.184 262.753 C518.545 271.46 518.915 280.159 519.539 288.852 C519.972 295.012 520.139 301.149 520.24 307.323 C520.584 328.357 521.964 349.314 523.424 370.294 C525.117 394.695 525.117 394.695 525.238 406.332 C525.249 407.146 525.259 407.96 525.27 408.799 C525.308 412.381 525.306 415.955 525.232 419.536 C525.034 425.626 525.034 425.626 527.498 430.941 C529.321 432.488 529.321 432.488 531.268 433.767 C533.985 435.701 534.899 437.913 536 441 C537.017 448.899 536.895 456.463 532 463 C529.33 466.061 527.851 467.716 524 469 C525.114 469.02 526.229 469.04 527.377 469.06 C531.535 469.136 535.693 469.225 539.851 469.317 C541.646 469.356 543.441 469.39 545.237 469.422 C547.826 469.468 550.415 469.526 553.004 469.586 C554.197 469.603 554.197 469.603 555.413 469.621 C560.28 469.748 564.375 470.466 569 472 C568.67 472.99 568.34 473.98 568 475 C561.312 477.373 554.722 477.299 547.688 477.303 C546.473 477.311 545.259 477.32 544.008 477.329 C541.38 477.345 538.752 477.359 536.123 477.366 C531.951 477.378 527.779 477.403 523.607 477.43 C516.993 477.472 510.379 477.504 503.765 477.533 C491.959 477.584 480.153 477.647 468.347 477.718 C464.887 477.739 461.427 477.757 457.967 477.77 C439.58 477.827 439.58 477.827 421.222 478.741 C412.025 479.365 402.785 479.419 393.572 479.631 C389.658 479.721 385.744 479.814 381.83 479.909 C374.215 480.093 366.599 480.272 358.983 480.451 C349.313 480.677 339.643 480.906 329.972 481.139 C325.492 481.247 321.011 481.352 316.53 481.455 C304.957 481.729 293.397 482.085 281.834 482.647 C272.369 483.099 262.903 483.291 253.43 483.465 C251.496 483.502 249.563 483.54 247.629 483.579 C243.52 483.659 239.411 483.738 235.302 483.816 C225.324 484.004 215.346 484.201 205.367 484.398 C203.08 484.443 200.792 484.487 198.505 484.532 C178.353 484.926 158.203 485.363 138.052 485.815 C119.702 486.226 101.351 486.616 83 487 C81.37 487.034 81.37 487.034 79.707 487.069 C-21.795 489.189 -21.795 489.189 -71.316 489.188 C-73.849 489.188 -76.381 489.189 -78.913 489.19 C-82.81 489.191 -86.706 489.186 -90.603 489.174 C-92 489.17 -93.398 489.168 -94.795 489.167 C-110.198 489.149 -110.198 489.149 -116 488 C-117.233 485.954 -117.233 485.954 -118 484 C-111.118 479.698 -101.01 480.725 -93.188 480.465 C-91.978 480.422 -90.769 480.379 -89.522 480.335 C-85.682 480.199 -81.841 480.068 -78 479.938 C-75.387 479.846 -72.773 479.754 -70.16 479.662 C-63.774 479.438 -57.387 479.217 -51 479 C-51.798 478.217 -52.597 477.434 -53.419 476.627 C-56.899 473.085 -58.288 470.584 -58.375 465.625 C-58.254 461.038 -57.088 458.495 -54 455 C-45.65 447.485 -31.823 448.629 -21.25 448.375 C-19.896 448.337 -18.543 448.299 -17.189 448.26 C-5.127 447.934 6.934 447.888 19 448 C18.67 447.34 18.34 446.68 18 446 C17.891 444.323 17.844 442.641 17.826 440.96 C17.813 439.9 17.799 438.84 17.785 437.748 C17.775 436.589 17.765 435.429 17.754 434.234 C17.722 431.748 17.69 429.261 17.658 426.775 C17.643 425.465 17.627 424.155 17.612 422.805 C17.373 402.658 17.029 382.534 15.748 362.421 C14.083 335.861 13.85 309.278 13.931 282.675 C13.942 278.852 13.946 275.029 13.951 271.205 C13.962 263.803 13.979 256.402 14 249 C13.179 249.276 12.357 249.551 11.511 249.835 C10.432 250.197 9.354 250.558 8.242 250.93 C7.173 251.288 6.105 251.646 5.003 252.015 C-0.875 253.943 -6.482 255.083 -12.625 255.875 C-19.996 256.873 -26.904 258.819 -34 261 C-36.331 261.676 -38.665 262.339 -41 263 C-40.738 263.66 -40.476 264.32 -40.206 265 C-39.009 268.02 -37.817 271.041 -36.625 274.062 C-36.006 275.62 -36.006 275.62 -35.375 277.209 C-28.107 295.671 -28.107 295.671 -30.699 302.969 C-45.03 329.819 -96.918 346.538 -123.375 359.812 C-124.334 360.295 -125.293 360.777 -126.281 361.274 C-139.349 367.835 -152.529 374.08 -165.885 380.033 C-167.303 380.681 -168.7 381.377 -170.072 382.117 C-172.747 383.342 -175.099 383.132 -178 383 C-178.33 381.35 -178.66 379.7 -179 378 C-173.398 373.233 -167.585 370.257 -160.955 367.231 C-155.586 364.771 -150.338 362.15 -145.125 359.375 C-138.493 355.844 -131.84 352.359 -125.161 348.917 C-112.96 342.624 -100.837 336.21 -88.825 329.562 C-86.861 328.476 -84.896 327.393 -82.929 326.312 C-71.805 320.196 -60.753 314.004 -50 307.25 C-49.199 306.749 -48.397 306.247 -47.572 305.73 C-46.847 305.268 -46.122 304.805 -45.375 304.328 C-44.743 303.925 -44.112 303.522 -43.461 303.106 C-41.84 302.048 -41.84 302.048 -41 300 C-40.473 293.868 -41.982 289.289 -44.188 283.688 C-44.54 282.783 -44.892 281.879 -45.255 280.947 C-57.957 249.265 -76.268 220.439 -97.641 193.949 C-99.046 192.192 -100.423 190.41 -101.734 188.582 C-103.273 186.387 -103.273 186.387 -106 184 C-112.956 183.242 -118.661 185.164 -125.188 187.438 C-126.244 187.799 -127.301 188.161 -128.389 188.534 C-143.87 193.937 -158.659 200.75 -173.438 207.812 C-174.594 208.364 -175.75 208.915 -176.941 209.483 C-183.46 212.599 -183.46 212.599 -189.605 216.371 C-192.327 218.223 -193.774 218.38 -197 218 C-197.33 216.35 -197.66 214.7 -198 213 C-179.149 193.095 -134.891 174.265 -108.062 172.438 C-101.95 172.733 -98.073 176.842 -94 181 C-80.063 160.724 -73.331 135.713 -69.078 111.836 C-68.38 107.919 -67.52 104.109 -66.514 100.258 C-65.393 95.329 -64.704 90.313 -63.941 85.318 C-63.619 83.212 -63.292 81.107 -62.963 79.001 C-61.88 72.017 -60.854 65.03 -59.926 58.023 C-59.758 56.775 -59.59 55.527 -59.417 54.241 C-59.107 51.9 -58.807 49.557 -58.52 47.212 C-57.489 39.459 -56.128 30.663 -50.375 24.875 C-45.802 22.335 -42.12 22.1 -37 23 C-32.055 25.58 -30.001 29.979 -28 35 C-22.654 53.422 -28.161 78.541 -37 95 C-38.666 95.043 -40.334 95.041 -42 95 C-43 94 -43 94 -43.215 91.023 C-43.147 86.35 -41.856 82.087 -40.562 77.625 C-37.88 68.309 -36.816 59.496 -36.75 49.812 C-36.729 49.045 -36.709 48.277 -36.688 47.486 C-36.653 42.517 -37.464 39.398 -40 35 C-40 34.34 -40 33.68 -40 33 C-42.475 33.495 -42.475 33.495 -45 34 C-48.691 46.468 -50.402 59.077 -52.07 71.949 C-53.3 81.433 -54.719 90.866 -56.562 100.25 C-57.368 104.406 -58.125 108.529 -58.5 112.75 C-58.929 117.27 -60.043 121.554 -61.199 125.938 C-61.693 127.825 -62.16 129.72 -62.582 131.625 C-66.671 149.773 -73.095 171.357 -85.359 185.773 C-87.201 187.809 -87.201 187.809 -86.992 190.016 C-85.692 192.617 -84.039 194.557 -82.125 196.75 C-68.758 212.766 -58.336 231.041 -48.055 249.129 C-47.655 249.832 -47.255 250.535 -46.843 251.26 C-46 253 -46 253 -46 255 C-45.466 254.798 -44.933 254.597 -44.383 254.389 C-41.924 253.463 -39.462 252.544 -37 251.625 C-35.741 251.149 -35.741 251.149 -34.457 250.664 C-28.043 248.278 -21.633 246.024 -14.75 245.562 C-9.01 244.998 -3.547 243.537 2 242 C2.727 241.808 3.454 241.616 4.203 241.418 C34.181 232.55 57.226 209.717 75.487 185.484 C78.434 181.615 81.614 178.198 85.117 174.836 C93.725 166.684 93.725 166.684 97.5 155.938 C97.331 152.013 97.331 152.013 95.125 149.5 C90.577 147.317 86.952 147.09 82 148 C71.153 152.095 63.022 160.429 55.641 169.086 C50.297 175.32 45.097 180.901 36.703 182.414 C32.463 182.684 30.392 182.237 26.688 180 C23.457 176.805 21.639 173.197 20 169 C19.7 168.278 19.399 167.556 19.09 166.812 C13.753 151.322 16.615 133.36 21 118 C21.347 116.772 21.694 115.543 22.051 114.277 C24.016 107.669 26.249 101.19 28.907 94.829 C34.963 80.197 38.548 65.25 38.562 49.375 C38.565 48.327 38.567 47.279 38.569 46.199 C38.427 39.71 37.786 34.786 33 30 C29.917 29.833 29.917 29.833 27 30 C24.302 36.713 22.428 43.238 21.125 50.35 C18.864 62.655 15.515 74.019 10.938 85.625 C10.682 86.275 10.427 86.925 10.164 87.595 C2.146 107.854 2.146 107.854 -1 111 C-3.5 111.125 -3.5 111.125 -6 111 C-6.33 110.67 -6.66 110.34 -7 110 C-6.682 105.631 -5.986 101.733 -4.648 97.566 C-2.713 91.245 -1.293 84.829 0.125 78.375 C0.521 76.612 0.521 76.612 0.926 74.812 C3.352 63.853 4.182 53.779 4.188 42.562 C4.2 41.291 4.212 40.019 4.225 38.709 C4.24 28.863 4.142 18.609 -3 11 C-5.717 10.328 -5.717 10.328 -8 11 C-10.381 15.687 -10.296 19.982 -10.309 25.113 C-10.334 26.938 -10.359 28.763 -10.385 30.588 C-10.413 33.433 -10.437 36.278 -10.456 39.123 C-10.552 51.128 -11.329 62.275 -14 74 C-14.321 75.584 -14.64 77.169 -14.957 78.754 C-20.707 104.352 -20.707 104.352 -27 109 C-29.137 108.749 -30.459 108.541 -32 107 C-31.556 101.544 -30.45 96.83 -28.688 91.625 C-26.722 85.622 -25.107 79.607 -23.75 73.438 C-23.587 72.7 -23.424 71.963 -23.257 71.204 C-21.625 63.589 -20.856 56.224 -20.789 48.445 C-20.761 46.595 -20.732 44.745 -20.703 42.895 C-20.662 40.009 -20.625 37.124 -20.599 34.239 C-20.571 31.432 -20.525 28.627 -20.477 25.82 C-20.473 24.97 -20.47 24.12 -20.467 23.244 C-20.305 15.24 -18.725 7.903 -13 2 C-8.715 -0.856 -5.024 -0.834 0 0 Z " fill="#060606" transform="translate(297,337)"/>
<path d="M0 0 C0.99 2.475 0.99 2.475 2 5 C-4.636 8.807 -11.281 12.598 -17.945 16.355 C-18.975 16.936 -20.004 17.516 -21.064 18.115 C-23.131 19.279 -25.198 20.443 -27.266 21.606 C-28.224 22.146 -29.181 22.686 -30.168 23.242 C-31.027 23.725 -31.885 24.209 -32.77 24.707 C-34.552 25.74 -36.286 26.857 -38 28 C-39.183 34.178 -36.626 38.095 -33.508 43.352 C-32.083 45.854 -31.04 48.321 -30 51 C-30.617 51.229 -31.233 51.458 -31.869 51.694 C-38.327 54.094 -44.784 56.496 -51.24 58.898 C-53.645 59.793 -56.051 60.687 -58.456 61.581 C-61.927 62.87 -65.397 64.162 -68.867 65.453 C-69.931 65.848 -70.995 66.243 -72.091 66.65 C-77.733 68.752 -83.343 70.911 -88.918 73.186 C-95.063 75.589 -101.569 76.952 -108.125 77.562 C-112.009 77.593 -112.009 77.593 -114 80 C-114.299 82.213 -114.299 82.213 -114.243 84.805 C-114.246 85.816 -114.249 86.827 -114.252 87.869 C-114.241 89.533 -114.241 89.533 -114.23 91.23 C-114.23 92.388 -114.23 93.546 -114.23 94.739 C-114.227 98.556 -114.208 102.371 -114.188 106.188 C-114.18 108.819 -114.173 111.451 -114.166 114.083 C-114.106 130.766 -113.912 147.446 -113.562 164.125 C-113.543 165.078 -113.524 166.031 -113.504 167.014 C-113.292 177.024 -112.906 186.984 -112.23 196.974 C-111.801 203.886 -111.739 210.813 -111.611 217.736 C-111.236 237.526 -110.293 257.25 -109 277 C-108.01 276.67 -107.02 276.34 -106 276 C-104.331 270.994 -104.81 265.806 -104.812 260.562 C-104.812 259.574 -104.812 259.574 -104.811 258.566 C-104.822 242.37 -105.396 226.185 -105.938 210 C-105.981 208.69 -106.024 207.379 -106.069 206.029 C-106.489 193.522 -106.933 181.027 -107.779 168.541 C-108.189 161.97 -108.382 155.393 -108.562 148.812 C-108.583 148.072 -108.604 147.332 -108.626 146.569 C-109.011 132.485 -109.108 118.402 -109.125 104.312 C-109.128 103.303 -109.13 102.293 -109.133 101.253 C-109.139 98.394 -109.137 95.535 -109.133 92.676 C-109.136 91.378 -109.136 91.378 -109.139 90.055 C-109.115 84.115 -109.115 84.115 -108 83 C-105.732 82.746 -103.46 82.523 -101.188 82.312 C-91.906 81.307 -83.274 78.634 -74.421 75.769 C-71.871 74.959 -69.309 74.204 -66.742 73.453 C-63.213 72.401 -59.864 71.198 -56.5 69.688 C-50.601 67.158 -44.594 65.122 -38.494 63.143 C-37.406 62.79 -37.406 62.79 -36.297 62.43 C-35.581 62.198 -34.865 61.966 -34.127 61.727 C-32.016 61.006 -29.96 60.194 -27.891 59.363 C-24.257 57.98 -20.898 57.516 -17 57.312 C-15.866 57.247 -14.731 57.181 -13.562 57.113 C-12.294 57.057 -12.294 57.057 -11 57 C-7.098 62.006 -5.929 66.562 -4.812 72.75 C-4.488 74.454 -4.161 76.157 -3.832 77.859 C-3.695 78.607 -3.558 79.354 -3.417 80.124 C-3.062 82.077 -3.062 82.077 -2 84 C5.883 84.167 13.543 83.679 21.375 82.812 C22.596 82.684 23.817 82.555 25.075 82.422 C32.03 81.685 38.976 80.889 45.92 80.056 C50.675 79.487 55.431 78.928 60.188 78.375 C61.145 78.263 62.103 78.152 63.09 78.037 C77.653 76.362 92.1 75.382 106.759 75.277 C108.045 75.264 109.331 75.251 110.656 75.238 C112.324 75.239 112.324 75.239 114.025 75.24 C117.098 74.992 119.264 74.402 122 73 C122.33 72.34 122.66 71.68 123 71 C118.001 70.975 113.002 70.957 108.004 70.945 C106.305 70.94 104.607 70.933 102.909 70.925 C100.459 70.912 98.009 70.907 95.559 70.902 C94.807 70.897 94.056 70.892 93.282 70.887 C88.76 70.886 84.479 71.294 80 72 C77.502 72.113 75.001 72.175 72.5 72.188 C71.252 72.202 70.004 72.216 68.719 72.23 C64.782 71.986 61.73 71.216 58 70 C58 71.32 58 72.64 58 74 C53.05 74.33 48.1 74.66 43 75 C43 67.74 43 60.48 43 53 C50.883 49.621 50.883 49.621 54.121 48.867 C55.184 48.618 55.184 48.618 56.268 48.363 C56.984 48.202 57.7 48.041 58.438 47.875 C59.15 47.706 59.862 47.537 60.596 47.363 C70.22 45.143 79.515 44.773 89.375 44.75 C90.048 44.748 90.721 44.747 91.415 44.745 C101.262 44.743 110.958 45.242 120.75 46.375 C121.844 46.501 122.937 46.627 124.064 46.757 C131.586 47.724 131.586 47.724 135 50 C134.107 57.655 134.107 57.655 133.488 59.652 C132.793 62.998 132.861 66.312 132.871 69.714 C132.869 70.489 132.867 71.264 132.865 72.063 C132.861 74.641 132.864 77.219 132.867 79.797 C132.867 81.623 132.866 83.45 132.864 85.277 C132.863 89.134 132.865 92.991 132.87 96.848 C132.875 101.661 132.872 106.474 132.866 111.287 C132.846 130.889 132.967 150.481 133.445 170.078 C133.465 170.907 133.484 171.736 133.504 172.59 C133.704 180.882 134.017 189.128 134.779 197.391 C135.11 201.303 135.209 205.209 135.281 209.133 C135.3 209.936 135.318 210.738 135.337 211.565 C135.414 214.933 135.483 218.301 135.552 221.669 C135.605 224.157 135.662 226.645 135.719 229.133 C135.739 230.246 135.739 230.246 135.76 231.381 C135.849 235.217 136.084 238.983 136.514 242.796 C137.13 248.577 137.111 254.317 137.062 260.125 C137.058 261.177 137.053 262.229 137.049 263.312 C137.037 265.875 137.021 268.437 137 271 C127.355 271.468 117.709 271.926 108.062 272.375 C107.332 272.409 106.601 272.443 105.848 272.478 C80.328 273.665 54.806 274.588 29.268 275.297 C17.339 275.629 5.435 275.98 -6.475 276.75 C-17.531 277.409 -28.618 277.601 -39.688 277.938 C-45.241 278.108 -50.794 278.282 -56.348 278.457 C-57.396 278.49 -57.396 278.49 -58.465 278.524 C-68.248 278.832 -78.029 279.182 -87.809 279.574 C-88.974 279.621 -90.14 279.667 -91.341 279.715 C-92.49 279.761 -93.638 279.807 -94.821 279.854 C-117.561 280.761 -140.242 281.295 -163 281 C-165.287 244.682 -166.942 208.374 -168 172 C-168.03 170.975 -168.061 169.95 -168.092 168.894 C-168.423 157.611 -168.686 146.329 -168.839 135.042 C-168.937 128.385 -169.133 121.734 -169.36 115.079 C-169.52 110.038 -169.627 104.996 -169.725 99.953 C-169.783 97.51 -169.862 95.067 -169.963 92.624 C-170.78 72.442 -170.78 72.442 -166.414 67.334 C-163.573 64.699 -160.396 62.856 -157 61 C-155.615 59.892 -154.252 58.754 -152.938 57.562 C-152.311 57.004 -151.685 56.446 -151.039 55.871 C-143.074 48.563 -136.372 41.083 -129.921 32.421 C-125.166 26.084 -120.028 20.198 -114.422 14.599 C-112.913 13 -112.913 13 -111.737 10.903 C-109.006 6.772 -107.071 5.224 -102.137 4.192 C-97.329 3.7 -92.516 3.628 -87.688 3.562 C-86.021 3.515 -84.355 3.463 -82.689 3.408 C-80.265 3.33 -77.841 3.254 -75.416 3.194 C-70.845 3.081 -66.359 2.794 -61.816 2.27 C-55.136 1.63 -48.418 1.394 -41.717 1.07 C-39.034 0.939 -36.351 0.801 -33.668 0.662 C-22.436 0.101 -11.246 -0.116 0 0 Z " fill="#FEFEFE" transform="translate(506,500)"/>
<path d="M0 0 C0.96 -0.001 1.92 -0.002 2.909 -0.003 C4.917 -0.004 6.924 -0.002 8.932 0.002 C12.019 0.008 15.106 0.002 18.193 -0.004 C20.15 -0.003 22.106 -0.002 24.062 0 C24.988 -0.002 25.914 -0.004 26.868 -0.006 C33.319 0.018 33.319 0.018 34.434 1.133 C34.541 2.466 34.58 3.805 34.591 5.142 C34.607 6.453 34.607 6.453 34.623 7.791 C34.63 8.769 34.637 9.746 34.645 10.754 C34.671 12.929 34.698 15.104 34.725 17.279 C34.738 18.46 34.751 19.642 34.765 20.859 C35.091 48.555 35.902 76.23 36.832 103.911 C36.933 106.937 37.033 109.963 37.133 112.989 C37.293 117.821 37.456 122.653 37.621 127.485 C37.683 129.276 37.743 131.066 37.803 132.857 C38.097 141.66 38.485 150.42 39.216 159.2 C39.568 163.951 39.665 168.702 39.75 173.465 C39.771 174.467 39.792 175.47 39.813 176.503 C39.877 179.65 39.937 182.798 39.996 185.945 C40.039 188.102 40.083 190.259 40.127 192.416 C40.233 197.655 40.335 202.894 40.434 208.133 C20.94 209.177 1.448 210.188 -18.066 210.758 C-18.74 210.778 -19.414 210.799 -20.109 210.82 C-27.422 211.037 -34.725 211.155 -42.041 211.142 C-42.77 211.141 -43.499 211.141 -44.25 211.14 C-46.022 211.138 -47.794 211.136 -49.566 211.133 C-49.6 210.145 -49.633 209.157 -49.667 208.139 C-50.02 197.621 -50.377 187.103 -50.735 176.585 C-50.873 172.531 -51.01 168.476 -51.147 164.421 C-52.021 137.474 -52.021 137.474 -53.211 110.539 C-53.282 109.15 -53.282 109.15 -53.355 107.733 C-53.445 105.989 -53.535 104.245 -53.626 102.5 C-55.226 71.413 -54.748 40.25 -54.566 9.133 C-52.177 8.319 -49.787 7.509 -47.396 6.702 C-46.724 6.473 -46.053 6.244 -45.362 6.008 C-40.185 4.266 -35.156 3.093 -29.754 2.383 C-28.999 2.271 -28.244 2.159 -27.467 2.043 C-18.305 0.717 -9.259 -0.021 0 0 Z " fill="#FEFEFE" transform="translate(699.56640625,558.8671875)"/>
<path d="M0 0 C2.008 -0.018 4.015 -0.043 6.023 -0.074 C8.854 -0.116 11.685 -0.132 14.517 -0.141 C15.371 -0.158 16.225 -0.176 17.105 -0.194 C21.075 -0.179 23.198 -0.027 26.666 2.062 C29.951 5.625 30.953 8.394 31.111 13.213 C31.147 14.2 31.184 15.187 31.222 16.204 C31.252 17.275 31.282 18.346 31.313 19.449 C31.352 20.574 31.391 21.698 31.431 22.857 C31.556 26.541 31.667 30.225 31.778 33.91 C31.862 36.449 31.945 38.988 32.03 41.527 C32.591 58.697 33.054 75.871 33.374 93.047 C33.527 100.851 33.823 108.586 34.486 116.366 C34.851 121.001 34.958 125.639 35.091 130.285 C35.55 144.256 36.353 158.205 37.153 172.16 C37.286 174.5 37.419 176.841 37.552 179.181 C38.083 188.486 38.615 197.791 39.206 207.093 C40.316 224.585 40.898 242.004 40.903 259.535 C40.905 260.944 40.905 260.944 40.906 262.382 C40.906 265.022 40.897 267.661 40.884 270.301 C40.882 271.495 40.882 271.495 40.88 272.713 C40.833 278.168 40.833 278.168 39.716 279.285 C37.332 279.541 34.983 279.719 32.591 279.848 C31.83 279.89 31.069 279.933 30.285 279.976 C17.115 280.606 3.896 280.367 -9.284 280.285 C-9.309 279.009 -9.334 277.732 -9.36 276.417 C-9.454 271.674 -9.555 266.931 -9.656 262.188 C-9.7 260.137 -9.741 258.085 -9.781 256.034 C-9.839 253.082 -9.903 250.131 -9.968 247.18 C-9.984 246.265 -10.001 245.35 -10.018 244.408 C-10.048 243.117 -10.048 243.117 -10.079 241.8 C-10.102 240.671 -10.102 240.671 -10.126 239.519 C-10.234 237.259 -10.234 237.259 -10.774 234.986 C-11.43 231.515 -11.545 228.072 -11.657 224.551 C-11.685 223.782 -11.713 223.013 -11.742 222.22 C-11.833 219.659 -11.918 217.097 -12.003 214.535 C-12.066 212.711 -12.129 210.887 -12.192 209.063 C-12.361 204.155 -12.523 199.246 -12.684 194.337 C-12.784 191.291 -12.887 188.245 -12.99 185.199 C-13.712 163.836 -14.356 142.479 -14.597 121.105 C-14.606 120.294 -14.616 119.482 -14.625 118.646 C-14.713 111.015 -14.785 103.385 -14.809 95.754 C-14.817 93.667 -14.832 91.58 -14.848 89.492 C-14.867 86.982 -14.875 84.471 -14.868 81.96 C-14.879 80.866 -14.889 79.772 -14.899 78.645 C-14.901 77.7 -14.904 76.754 -14.906 75.78 C-15.353 72.829 -16.274 71.457 -18.284 69.285 C-21.89 67.747 -26.02 68.061 -29.894 67.969 C-30.984 67.938 -30.984 67.938 -32.096 67.906 C-34.409 67.841 -36.721 67.781 -39.034 67.723 C-40.606 67.679 -42.177 67.636 -43.749 67.592 C-47.594 67.485 -51.439 67.384 -55.284 67.285 C-53.213 59.889 -50.634 52.789 -47.784 45.66 C-41.816 33.3 -41.816 33.3 -40.284 20.285 C-43.879 17.715 -47.676 16.302 -51.835 14.875 C-52.453 14.662 -53.07 14.449 -53.707 14.23 C-55.007 13.782 -56.309 13.338 -57.612 12.896 C-59.583 12.227 -61.55 11.549 -63.517 10.869 C-69.719 8.739 -75.881 6.722 -82.284 5.285 C-82.284 4.625 -82.284 3.965 -82.284 3.285 C-71.017 2.632 -59.749 2.002 -48.479 1.402 C-46.565 1.3 -44.651 1.196 -42.736 1.092 C-28.502 0.342 -14.252 0.112 0 0 Z " fill="#FEFEFE" transform="translate(755.2841796875,485.71490478515625)"/>
<path d="M0 0 C6.075 5.901 10.49 13.421 15.188 20.438 C16.044 21.71 16.901 22.981 17.759 24.253 C19.435 26.737 21.109 29.222 22.781 31.708 C25.397 35.59 28.032 39.458 30.688 43.312 C31.303 44.206 31.303 44.206 31.931 45.117 C35.921 50.899 39.93 56.668 43.938 62.438 C44.956 63.908 44.956 63.908 45.995 65.407 C49.168 69.976 52.362 74.522 55.656 79.004 C56.213 79.768 56.77 80.533 57.344 81.321 C58.371 82.725 59.409 84.122 60.459 85.51 C63.4 89.549 65.387 92.813 65 98 C63.036 100.526 60.63 102.209 58 104 C57.374 104.441 56.747 104.881 56.102 105.335 C54.089 106.716 52.049 108.048 50 109.375 C42.85 114.068 35.813 118.9 28.812 123.812 C20.759 129.43 12.673 134.995 4.5 140.438 C3.551 141.082 2.602 141.727 1.624 142.392 C-7.145 148.173 -7.145 148.173 -13 148 C-14.793 146.945 -14.793 146.945 -16.188 145.125 C-16.77 144.376 -17.353 143.627 -17.953 142.855 C-18.629 141.913 -19.304 140.971 -20 140 C-20.403 139.445 -20.806 138.89 -21.221 138.319 C-24.272 134.106 -27.253 129.847 -30.217 125.572 C-32.145 122.791 -34.08 120.014 -36.016 117.238 C-39.438 112.327 -42.854 107.411 -46.267 102.494 C-47.66 100.489 -49.056 98.487 -50.457 96.488 C-55.529 89.225 -60.456 81.867 -65.375 74.5 C-66.078 73.448 -66.781 72.395 -67.506 71.311 C-68.172 70.311 -68.837 69.311 -69.523 68.281 C-70.121 67.385 -70.718 66.488 -71.333 65.564 C-76.87 57.045 -76.87 57.045 -76.568 51.39 C-74.922 44.466 -64.615 39.498 -59 35.75 C-57.318 34.614 -55.635 33.477 -53.953 32.34 C-53.12 31.779 -52.286 31.218 -51.428 30.64 C-48.512 28.67 -45.615 26.675 -42.72 24.674 C-34.542 19.022 -26.318 13.443 -18 8 C-17.091 7.401 -17.091 7.401 -16.165 6.79 C-14.409 5.638 -12.644 4.504 -10.875 3.375 C-9.862 2.723 -8.849 2.07 -7.805 1.398 C-3.293 -0.851 -3.293 -0.851 0 0 Z " fill="#FEFEFE" transform="translate(531,204)"/>
<path d="M0 0 C18.614 1.443 37.197 3.032 55.75 5.125 C56.513 5.211 57.276 5.297 58.062 5.386 C65.38 6.215 72.693 7.079 80 8 C79.297 15.388 78.023 22.59 76.625 29.875 C74.89 39.042 73.257 48.208 71.901 57.439 C71.099 62.802 71.099 62.802 70 65 C69.633 67.5 69.3 69.992 69 72.5 C68.135 79.73 68.135 79.73 67 82 C66.821 83.371 66.68 84.747 66.562 86.125 C66.116 90.573 65.175 94.691 64 99 C53.124 99.525 42.66 98.237 31.895 96.859 C23.468 95.785 15.019 94.929 6.566 94.091 C-11.802 92.198 -11.802 92.198 -14 90 C-14.243 85.544 -14.011 81.636 -13.062 77.277 C-12.079 72.532 -11.407 67.806 -10.812 63 C-9.294 51.331 -7.366 39.731 -5.438 28.125 C-5.284 27.193 -5.13 26.26 -4.972 25.3 C-4.525 22.598 -4.074 19.896 -3.621 17.195 C-3.488 16.388 -3.355 15.58 -3.217 14.748 C-2.372 9.758 -1.284 4.896 0 0 Z " fill="#FEFEFE" transform="translate(573,353)"/>
<path d="M0 0 C3.61 1.203 3.775 1.882 5.496 5.137 C5.966 6.013 6.436 6.888 6.92 7.791 C7.421 8.747 7.921 9.703 8.438 10.688 C9.521 12.714 10.604 14.74 11.688 16.766 C12.239 17.805 12.791 18.845 13.359 19.916 C15.855 24.607 18.393 29.273 20.938 33.938 C21.424 34.831 21.911 35.725 22.412 36.646 C27.212 45.438 32.142 54.154 37.09 62.863 C37.817 64.152 37.817 64.152 38.558 65.467 C39.53 67.174 40.519 68.872 41.524 70.56 C41.992 71.359 42.459 72.158 42.941 72.98 C43.362 73.685 43.783 74.389 44.217 75.114 C45 77 45 77 44 80 C41.757 81.707 39.556 83.241 37.188 84.75 C36.558 85.174 35.928 85.598 35.279 86.035 C30.591 89.056 30.591 89.056 27.896 88.802 C26 88 26 88 24.25 84.938 C22.253 81.618 22.253 81.618 18.5 81.512 C12.95 81.721 8.551 84.289 3.75 86.875 C2.866 87.335 1.981 87.795 1.07 88.27 C-0.569 89.124 -2.205 89.985 -3.837 90.855 C-4.551 91.233 -5.265 91.611 -6 92 C-6.67 92.4 -7.34 92.8 -8.03 93.211 C-10 94 -10 94 -12.081 93.875 C-14.64 92.708 -15.319 91.438 -16.707 89.004 C-17.204 88.148 -17.7 87.292 -18.212 86.41 C-18.74 85.47 -19.268 84.531 -19.812 83.562 C-20.372 82.591 -20.932 81.619 -21.509 80.617 C-22.715 78.519 -23.917 76.417 -25.113 74.313 C-27.029 70.949 -28.965 67.596 -30.906 64.246 C-37.313 53.188 -43.679 42.107 -50 31 C-46.962 27.669 -43.876 25.611 -39.938 23.438 C-38.687 22.739 -37.437 22.04 -36.188 21.34 C-35.516 20.966 -34.844 20.592 -34.152 20.207 C-30.227 18.006 -26.333 15.753 -22.438 13.5 C-21.632 13.036 -20.826 12.572 -19.996 12.094 C-16.291 9.952 -12.615 7.783 -9.004 5.484 C-8.406 5.105 -7.808 4.725 -7.192 4.334 C-5.611 3.321 -4.039 2.294 -2.469 1.266 C-1.654 0.848 -0.839 0.43 0 0 Z " fill="#FEFEFE" transform="translate(528,406)"/>
<path d="M0 0 C10.049 1.305 19.341 4.6 28.875 7.875 C31.996 8.938 35.119 9.996 38.242 11.055 C38.996 11.311 39.75 11.567 40.527 11.831 C46.061 13.705 51.625 15.457 57.217 17.151 C60.939 18.286 64.624 19.509 68.312 20.75 C68.969 20.97 69.626 21.191 70.303 21.418 C71.869 21.944 73.435 22.472 75 23 C74.444 28.06 73.299 32.291 71.383 37 C70.996 37.959 70.996 37.959 70.602 38.938 C69.783 40.961 68.954 42.981 68.125 45 C67.576 46.354 67.028 47.708 66.48 49.062 C64.047 55.068 61.565 61.049 59 67 C54.38 67.33 49.76 67.66 45 68 C45 66.35 45 64.7 45 63 C43.817 62.613 42.633 62.227 41.414 61.828 C27.043 57.103 27.043 57.103 22 55 C17.277 53.045 12.465 51.389 7.625 49.75 C6.839 49.479 6.052 49.209 5.242 48.93 C4.495 48.68 3.747 48.43 2.977 48.172 C1.972 47.833 1.972 47.833 0.948 47.487 C-1.312 46.838 -1.312 46.838 -5 47 C-5 48.32 -5 49.64 -5 51 C-9.29 50.67 -13.58 50.34 -18 50 C-17.329 45.975 -16.832 43.137 -15.434 39.495 C-15.117 38.661 -14.8 37.827 -14.473 36.968 C-14.131 36.086 -13.79 35.205 -13.438 34.297 C-13.086 33.378 -12.735 32.459 -12.373 31.512 C-11.254 28.589 -10.127 25.67 -9 22.75 C-8.242 20.771 -7.484 18.792 -6.727 16.812 C-5.343 13.203 -3.958 9.594 -2.566 5.987 C-2.287 5.264 -2.008 4.54 -1.721 3.795 C-1 2 -1 2 0 0 Z " fill="#FEFEFE" transform="translate(631,487)"/>
<path d="M0 0 C1.726 2.278 1.726 2.278 3.27 5.293 C4.133 6.942 4.133 6.942 5.013 8.625 C5.607 9.801 6.201 10.976 6.812 12.188 C7.431 13.382 8.052 14.577 8.674 15.77 C9.897 18.114 11.114 20.461 12.328 22.81 C14.973 27.855 17.842 32.755 20.742 37.656 C22 40 22 40 22 42 C20.585 42.339 19.168 42.671 17.75 43 C16.961 43.186 16.172 43.371 15.359 43.562 C13 44 13 44 9 44 C9 43.34 9 42.68 9 42 C1.696 44.714 -5.073 48.023 -11.875 51.812 C-12.833 52.343 -13.791 52.873 -14.778 53.42 C-16.666 54.468 -18.553 55.519 -20.438 56.573 C-22.637 57.798 -24.844 59.003 -27.059 60.199 C-28.132 60.793 -29.206 61.388 -30.312 62 C-31.216 62.495 -32.12 62.99 -33.051 63.5 C-35.364 65.28 -35.45 66.226 -36 69 C-29.327 67.071 -23.602 64.322 -17.625 60.812 C-16.058 59.897 -14.488 58.986 -12.914 58.082 C-12.233 57.682 -11.552 57.282 -10.85 56.87 C-9 56 -9 56 -6 56 C-6 59.63 -6 63.26 -6 67 C-6.908 67.351 -7.815 67.701 -8.75 68.062 C-13.483 70.076 -17.821 72.747 -22.23 75.379 C-25 77 -25 77 -27.301 78.09 C-29.185 78.889 -29.185 78.889 -30 81 C-32.31 81 -34.62 81 -37 81 C-37.238 79.298 -37.238 79.298 -37.48 77.562 C-39.205 64.332 -39.205 64.332 -47.301 54.297 C-50.469 52.775 -52.338 52.916 -55.812 53.125 C-58.977 52.965 -58.977 52.965 -62 52 C-66.401 47.102 -69.526 41.455 -71 35 C-57.389 27.264 -43.729 19.713 -29.792 12.577 C-25.153 10.194 -20.554 7.784 -16.051 5.152 C-14.946 4.507 -14.946 4.507 -13.819 3.849 C-12.49 3.063 -11.168 2.264 -9.855 1.45 C-6.121 -0.766 -4.117 -1.508 0 0 Z " fill="#FEFEFE" transform="translate(547,497)"/>
<path d="M0 0 C6.075 5.901 10.49 13.421 15.188 20.438 C16.044 21.71 16.901 22.981 17.759 24.253 C19.435 26.737 21.109 29.222 22.781 31.708 C25.397 35.59 28.032 39.458 30.688 43.312 C31.303 44.206 31.303 44.206 31.931 45.117 C35.921 50.899 39.93 56.668 43.938 62.438 C44.956 63.908 44.956 63.908 45.995 65.407 C49.168 69.976 52.362 74.522 55.656 79.004 C56.213 79.768 56.77 80.533 57.344 81.321 C58.371 82.725 59.409 84.122 60.459 85.51 C63.4 89.549 65.387 92.813 65 98 C63.036 100.526 60.63 102.209 58 104 C57.374 104.441 56.747 104.881 56.102 105.335 C54.089 106.716 52.049 108.048 50 109.375 C42.85 114.068 35.813 118.9 28.812 123.812 C20.759 129.43 12.673 134.995 4.5 140.438 C3.551 141.082 2.602 141.727 1.624 142.392 C-7.145 148.173 -7.145 148.173 -13 148 C-14.793 146.945 -14.793 146.945 -16.188 145.125 C-16.77 144.376 -17.353 143.627 -17.953 142.855 C-18.629 141.913 -19.304 140.971 -20 140 C-20.403 139.445 -20.806 138.89 -21.221 138.319 C-24.272 134.106 -27.253 129.847 -30.217 125.572 C-32.145 122.791 -34.08 120.014 -36.016 117.238 C-39.438 112.327 -42.854 107.411 -46.267 102.494 C-47.66 100.489 -49.056 98.487 -50.457 96.488 C-55.529 89.225 -60.456 81.867 -65.375 74.5 C-66.078 73.448 -66.781 72.395 -67.506 71.311 C-68.172 70.311 -68.837 69.311 -69.523 68.281 C-70.121 67.385 -70.718 66.488 -71.333 65.564 C-76.87 57.045 -76.87 57.045 -76.568 51.39 C-74.922 44.466 -64.615 39.498 -59 35.75 C-57.318 34.614 -55.635 33.477 -53.953 32.34 C-53.12 31.779 -52.286 31.218 -51.428 30.64 C-48.512 28.67 -45.615 26.675 -42.72 24.674 C-34.542 19.022 -26.318 13.443 -18 8 C-17.091 7.401 -17.091 7.401 -16.165 6.79 C-14.409 5.638 -12.644 4.504 -10.875 3.375 C-9.862 2.723 -8.849 2.07 -7.805 1.398 C-3.293 -0.851 -3.293 -0.851 0 0 Z M-11.5 14.25 C-12.866 15.173 -14.232 16.097 -15.598 17.02 C-16.317 17.508 -17.037 17.996 -17.778 18.499 C-20.733 20.495 -23.705 22.466 -26.677 24.437 C-35.853 30.527 -44.945 36.732 -54 43 C-55.296 43.896 -56.591 44.792 -57.887 45.688 C-60.926 47.79 -63.963 49.894 -67 52 C-66.43 55.957 -65.262 58.552 -63.062 61.875 C-62.428 62.839 -61.794 63.803 -61.141 64.797 C-60.434 65.854 -59.728 66.911 -59 68 C-58.244 69.151 -57.489 70.302 -56.734 71.453 C-50.858 80.386 -44.728 89.13 -38.532 97.843 C-36.013 101.389 -33.507 104.945 -31 108.5 C-30.012 109.9 -29.023 111.3 -28.035 112.699 C-25.916 115.701 -23.799 118.704 -21.684 121.707 C-21.14 122.478 -20.597 123.249 -20.037 124.043 C-18.998 125.518 -17.958 126.993 -16.92 128.469 C-14.656 131.68 -12.385 134.877 -10 138 C-5.156 136.366 -1.253 133.663 2.938 130.812 C3.715 130.289 4.492 129.766 5.292 129.227 C12.548 124.333 19.776 119.396 26.998 114.451 C31.163 111.601 35.333 108.766 39.555 106 C40.239 105.551 40.923 105.102 41.628 104.639 C42.864 103.831 44.103 103.029 45.346 102.232 C49.048 99.812 51.986 97.199 55 94 C53.782 92.274 52.563 90.548 51.345 88.822 C50.263 87.289 49.182 85.756 48.101 84.223 C45.441 80.452 42.778 76.684 40.094 72.93 C33.448 63.613 27.055 54.143 20.727 44.608 C16.56 38.329 12.356 32.086 8.031 25.914 C6.511 23.733 5.014 21.542 3.531 19.336 C2.912 18.422 2.912 18.422 2.281 17.489 C1.132 15.791 -0.01 14.089 -1.152 12.387 C-1.762 11.599 -2.372 10.811 -3 10 C-6.352 10 -8.81 12.409 -11.5 14.25 Z " fill="#060606" transform="translate(531,204)"/>
<path d="M0 0 C-0.971 6.548 -2.777 12.238 -5.43 18.289 C-7.952 24.119 -10.099 30.105 -12.321 36.054 C-12.653 36.937 -12.986 37.82 -13.328 38.73 C-13.775 39.928 -13.775 39.928 -14.231 41.149 C-15 43 -15 43 -16 44 C-17.854 44.087 -19.711 44.107 -21.566 44.098 C-22.691 44.094 -23.816 44.091 -24.975 44.088 C-26.159 44.08 -27.343 44.071 -28.562 44.062 C-29.75 44.058 -30.938 44.053 -32.162 44.049 C-35.108 44.037 -38.054 44.021 -41 44 C-41.403 43.279 -41.806 42.559 -42.222 41.816 C-43.735 39.112 -45.248 36.408 -46.762 33.703 C-47.732 31.97 -48.702 30.236 -49.672 28.502 C-50.6 26.844 -50.6 26.844 -51.547 25.152 C-52.144 24.081 -52.742 23.01 -53.357 21.906 C-54.685 19.557 -56.056 17.248 -57.453 14.941 C-59 12 -59 12 -59 8 C-58.29 7.651 -57.579 7.301 -56.848 6.941 C-55.929 6.486 -55.009 6.031 -54.062 5.562 C-52.688 4.884 -52.688 4.884 -51.285 4.191 C-49.095 3.195 -49.095 3.195 -48 2 C-45.996 1.769 -43.985 1.604 -41.973 1.465 C-40.713 1.378 -39.453 1.29 -38.155 1.201 C-36.791 1.112 -35.427 1.025 -34.062 0.938 C-33.384 0.893 -32.705 0.848 -32.006 0.802 C-21.328 0.101 -10.7 -0.261 0 0 Z " fill="#FEFEFE" transform="translate(619,493)"/>
<path d="M0 0 C3.692 -0.002 7.384 -0.021 11.076 -0.039 C13.431 -0.042 15.787 -0.044 18.142 -0.045 C19.242 -0.052 20.342 -0.06 21.475 -0.067 C22.995 -0.062 22.995 -0.062 24.545 -0.058 C25.879 -0.06 25.879 -0.06 27.24 -0.062 C29.509 0.185 29.509 0.185 32.509 2.185 C32.179 3.835 31.849 5.485 31.509 7.185 C25.525 9.225 19.931 9.613 13.634 9.802 C12.015 9.859 12.015 9.859 10.364 9.916 C-2.834 10.328 -16.036 10.337 -29.238 10.316 C-32.846 10.31 -36.454 10.313 -40.061 10.319 C-42.868 10.323 -45.675 10.322 -48.482 10.319 C-50.459 10.318 -52.436 10.321 -54.413 10.324 C-55.594 10.321 -56.774 10.318 -57.991 10.315 C-59.553 10.314 -59.553 10.314 -61.147 10.312 C-63.491 10.185 -63.491 10.185 -64.491 9.185 C-64.531 7.519 -64.533 5.851 -64.491 4.185 C-47.801 -4.159 -17.967 -0.001 0 0 Z " fill="#EEEFEF" transform="translate(523.49072265625,789.814697265625)"/>
<path d="M0 0 C4.214 0.485 7.698 1.029 11.438 3.062 C12.457 3.606 12.457 3.606 13.496 4.16 C13.992 4.437 14.489 4.714 15 5 C12.707 12.958 9.051 19.819 5 27 C1.408 27.176 -1.025 26.85 -4.25 25.25 C-4.936 24.925 -5.622 24.6 -6.328 24.266 C-8 23 -8 23 -8.721 21.205 C-9.08 18.365 -8.389 17.008 -7.129 14.453 C-6.72 13.609 -6.31 12.764 -5.889 11.895 C-5.232 10.585 -5.232 10.585 -4.562 9.25 C-4.129 8.362 -3.695 7.474 -3.248 6.559 C-2.176 4.367 -1.093 2.181 0 0 Z " fill="#060606" transform="translate(653,277)"/>
<path d="M0 0 C0 3.63 0 7.26 0 11 C-0.908 11.351 -1.815 11.701 -2.75 12.062 C-7.483 14.076 -11.821 16.747 -16.23 19.379 C-19 21 -19 21 -21.301 22.09 C-23.185 22.889 -23.185 22.889 -24 25 C-26.31 25 -28.62 25 -31 25 C-32.173 20.454 -32.541 15.67 -32 11 C-31.34 10.34 -30.68 9.68 -30 9 C-30 10.32 -30 11.64 -30 13 C-23.327 11.071 -17.602 8.322 -11.625 4.812 C-10.058 3.897 -8.488 2.986 -6.914 2.082 C-6.233 1.682 -5.552 1.282 -4.85 0.87 C-3 0 -3 0 0 0 Z " fill="#EEEFEF" transform="translate(541,553)"/>
<path d="M0 0 C4.454 2.11 7.193 4.382 9 9 C9.232 12.35 9.176 15.649 9 19 C3.031 18.447 -1.888 15.996 -7.25 13.5 C-8.16 13.084 -9.07 12.667 -10.008 12.238 C-16.214 9.393 -16.214 9.393 -19 8 C-15.542 -0.801 -8.423 -1.13 0 0 Z " fill="#FEFEFE" transform="translate(463,462)"/>
<path d="M0 0 C11.457 0.951 22.794 5.556 33.309 9.969 C35.502 10.809 37.667 11.534 39.91 12.219 C40.595 12.431 41.28 12.644 41.986 12.863 C43.349 13.281 44.716 13.685 46.088 14.074 C47.973 14.656 47.973 14.656 51 16 C52.059 18.031 52.059 18.031 52 20 C51.34 20.66 50.68 21.32 50 22 C43.638 21.561 37.262 18.837 31.312 16.688 C30.445 16.379 29.577 16.071 28.683 15.753 C26.12 14.841 23.559 13.922 21 13 C20.284 12.742 19.568 12.484 18.831 12.219 C18.173 11.982 17.514 11.744 16.836 11.5 C15.632 11.067 14.428 10.634 13.188 10.188 C12.15 9.81 11.112 9.432 10.043 9.043 C6.72 7.904 3.385 6.939 0 6 C-0.382 4.344 -0.714 2.675 -1 1 C-0.67 0.67 -0.34 0.34 0 0 Z " fill="#111011" transform="translate(631,519)"/>
<path d="M0 0 C5.17 0.06 10.238 0.597 15.365 1.225 C16.778 1.391 16.778 1.391 18.219 1.561 C21.194 1.913 24.169 2.272 27.143 2.631 C29.173 2.872 31.204 3.113 33.235 3.354 C38.184 3.94 43.132 4.534 48.08 5.131 C48.463 6.787 48.794 8.455 49.08 10.131 C48.08 11.131 48.08 11.131 44.161 11.262 C38.991 11.202 33.923 10.664 28.795 10.037 C27.853 9.926 26.912 9.815 25.942 9.701 C22.966 9.349 19.992 8.99 17.018 8.631 C14.987 8.389 12.957 8.149 10.926 7.908 C5.977 7.321 1.028 6.728 -3.92 6.131 C-4.302 4.475 -4.634 2.806 -4.92 1.131 C-3.92 0.131 -3.92 0.131 0 0 Z " fill="#111011" transform="translate(581.919677734375,392.869140625)"/>
<path d="M0 0 C-0.372 2.444 -0.643 3.684 -2.524 5.349 C-3.182 5.748 -3.839 6.147 -4.516 6.559 C-5.263 7.021 -6.01 7.483 -6.779 7.959 C-8.002 8.691 -8.002 8.691 -9.25 9.438 C-10.086 9.951 -10.922 10.465 -11.783 10.994 C-13.576 12.094 -15.371 13.189 -17.17 14.28 C-21.028 16.625 -24.863 19.006 -28.698 21.387 C-32.139 23.521 -35.586 25.646 -39.033 27.77 C-40.708 28.817 -42.357 29.905 -44 31 C-46.188 30.625 -46.188 30.625 -48 30 C-47.712 26.785 -47.446 25.389 -44.969 23.23 C-44.083 22.698 -43.198 22.166 -42.285 21.617 C-41.297 21.012 -40.309 20.407 -39.29 19.783 C-38.225 19.153 -37.16 18.524 -36.062 17.875 C-34.983 17.222 -33.903 16.569 -32.79 15.896 C-30.586 14.565 -28.38 13.238 -26.17 11.917 C-23.276 10.167 -20.421 8.37 -17.578 6.539 C-16.767 6.022 -15.956 5.506 -15.121 4.973 C-13.615 4.012 -12.116 3.042 -10.623 2.062 C-4.532 -1.76 -4.532 -1.76 0 0 Z " fill="#060606" transform="translate(535,245)"/>
<path d="M0 0 C11.505 0.416 22.923 1.313 34.375 2.5 C36.273 2.696 36.273 2.696 38.21 2.896 C48.115 3.949 48.115 3.949 53 5 C53.043 6.666 53.041 8.334 53 10 C52.67 10.33 52.34 10.66 52 11 C50.373 10.958 48.749 10.835 47.129 10.684 C45.497 10.533 45.497 10.533 43.833 10.378 C42.568 10.254 41.303 10.129 40 10 C39.292 9.931 38.584 9.862 37.854 9.791 C33.051 9.323 28.251 8.832 23.451 8.325 C21.76 8.148 20.068 7.975 18.375 7.805 C15.904 7.556 13.435 7.297 10.965 7.035 C10.209 6.961 9.452 6.887 8.673 6.811 C5.067 6.417 3.075 6.05 0 4 C0 2.68 0 1.36 0 0 Z " fill="#111011" transform="translate(575,407)"/>
<path d="M0 0 C0 1.32 0 2.64 0 4 C-1.458 5.381 -1.458 5.381 -3.523 6.629 C-4.289 7.101 -5.054 7.574 -5.843 8.061 C-6.679 8.556 -7.514 9.052 -8.375 9.562 C-9.225 10.083 -10.076 10.603 -10.952 11.139 C-13.627 12.772 -16.313 14.386 -19 16 C-21.496 17.521 -23.989 19.047 -26.481 20.574 C-27.997 21.501 -29.515 22.425 -31.035 23.346 C-34.193 25.261 -37.299 27.192 -40.324 29.312 C-43 31 -43 31 -46 31 C-46.33 29.35 -46.66 27.7 -47 26 C-22.319 10.384 -22.319 10.384 -13.838 5.161 C-12.511 4.323 -11.203 3.455 -9.908 2.57 C-9.21 2.102 -8.512 1.634 -7.793 1.152 C-7.163 0.718 -6.533 0.283 -5.884 -0.164 C-3.521 -1.213 -2.385 -0.859 0 0 Z " fill="#111011" transform="translate(542,257)"/>
<path d="M0 0 C0.976 0.406 0.976 0.406 1.973 0.82 C1.614 3.43 1.293 4.55 -0.751 6.277 C-1.498 6.725 -2.246 7.172 -3.016 7.633 C-4.279 8.402 -4.279 8.402 -5.569 9.187 C-6.483 9.726 -7.398 10.265 -8.34 10.82 C-9.273 11.382 -10.206 11.944 -11.168 12.522 C-13.127 13.7 -15.088 14.872 -17.053 16.041 C-19.962 17.781 -22.849 19.554 -25.73 21.34 C-27.517 22.438 -29.303 23.536 -31.09 24.633 C-31.927 25.154 -32.765 25.676 -33.628 26.213 C-34.411 26.688 -35.194 27.163 -36 27.652 C-36.683 28.072 -37.367 28.492 -38.071 28.925 C-40.027 29.82 -40.027 29.82 -44.027 29.82 C-44.286 27.502 -44.286 27.502 -44.027 24.82 C-42.309 23.25 -42.309 23.25 -39.883 21.91 C-38.987 21.4 -38.091 20.891 -37.168 20.366 C-36.193 19.835 -35.219 19.305 -34.215 18.758 C-32.197 17.622 -30.182 16.482 -28.168 15.34 C-27.144 14.762 -26.12 14.184 -25.064 13.588 C-22.154 11.894 -19.328 10.116 -16.512 8.27 C-15.659 7.711 -14.807 7.152 -13.929 6.576 C-12.315 5.508 -10.708 4.429 -9.108 3.34 C-3.682 -0.219 -3.682 -0.219 0 0 Z " fill="#060606" transform="translate(548.02734375,268.1796875)"/>
<path d="M0 0 C0.54 0.226 1.08 0.451 1.636 0.684 C1.636 2.004 1.636 3.324 1.636 4.684 C0.778 5.151 0.778 5.151 -0.098 5.627 C-1.824 6.566 -3.549 7.505 -5.275 8.445 C-7.262 9.527 -9.25 10.607 -11.239 11.687 C-16.086 14.323 -20.914 16.982 -25.692 19.742 C-26.504 20.208 -27.317 20.673 -28.154 21.153 C-29.684 22.033 -31.209 22.923 -32.727 23.824 C-37.876 26.771 -37.876 26.771 -40.586 26.288 C-41.173 26.089 -41.76 25.889 -42.364 25.684 C-42.694 24.364 -43.024 23.044 -43.364 21.684 C-42.584 21.266 -41.804 20.848 -41 20.418 C-38.038 18.832 -35.077 17.246 -32.115 15.66 C-30.846 14.98 -29.577 14.3 -28.308 13.621 C-27.075 12.96 -25.842 12.3 -24.609 11.639 C-23.374 10.978 -22.138 10.318 -20.901 9.66 C-17.803 8.009 -14.727 6.331 -11.678 4.591 C-11.09 4.26 -10.503 3.929 -9.897 3.589 C-8.286 2.68 -6.682 1.76 -5.078 0.838 C-2.364 -0.316 -2.364 -0.316 0 0 Z " fill="#111011" transform="translate(547.364013671875,526.316162109375)"/>
<path d="M0 0 C0 1.32 0 2.64 0 4 C-3.034 6.023 -5.137 6.698 -8.637 7.586 C-10.328 8.02 -10.328 8.02 -12.053 8.462 C-13.253 8.764 -14.452 9.065 -15.688 9.375 C-16.907 9.685 -18.126 9.995 -19.382 10.315 C-21.813 10.932 -24.244 11.548 -26.676 12.16 C-29.474 12.867 -32.269 13.585 -35.062 14.312 C-36.437 14.667 -37.812 15.021 -39.188 15.375 C-40.336 15.671 -41.485 15.968 -42.668 16.273 C-46.445 17.097 -50.159 17.572 -54 18 C-54 16.68 -54 15.36 -54 14 C-46.112 11.499 -38.195 9.234 -30.188 7.148 C-27.039 6.306 -23.926 5.377 -20.812 4.414 C-19.922 4.139 -19.031 3.865 -18.114 3.582 C-16.366 3.038 -14.62 2.488 -12.877 1.93 C-8.446 0.555 -4.701 -0.335 0 0 Z " fill="#111011" transform="translate(490,584)"/>
<path d="M0 0 C3.615 0.614 6.724 1.604 10.082 3.066 C11.013 3.469 11.945 3.872 12.904 4.287 C13.864 4.708 14.824 5.129 15.812 5.562 C16.792 5.987 17.771 6.412 18.779 6.85 C21.188 7.895 23.595 8.946 26 10 C26 10.99 26 11.98 26 13 C22.445 16.274 19.837 17.303 15 17.5 C8.993 17.238 5.908 14.807 1.625 10.75 C-0.632 6.931 -0.297 4.387 0 0 Z " fill="#EEEFEF" transform="translate(442,475)"/>
<path d="M0 0 C2.475 2.139 3.496 4.419 4.668 7.441 C3.237 11.733 0.058 13.034 -3.645 15.254 C-4.322 15.686 -4.999 16.119 -5.697 16.564 C-7.554 17.688 -9.298 18.682 -11.332 19.441 C-14.479 18.656 -15.186 17.626 -17.207 15.066 C-18.332 12.441 -18.332 12.441 -17.832 10.582 C-15.626 7.433 -12.645 5.605 -9.457 3.566 C-8.832 3.138 -8.207 2.71 -7.562 2.27 C-2.959 -0.709 -2.959 -0.709 0 0 Z " fill="#060606" transform="translate(708.33203125,330.55859375)"/>
<path d="M0 0 C5.455 0.568 9.911 1.946 15 4 C14.368 9.053 12.865 13.296 11 18 C7.218 17.343 3.782 16.28 0.188 14.938 C-0.788 14.575 -1.764 14.213 -2.77 13.84 C-3.506 13.563 -4.242 13.286 -5 13 C-4.546 11.582 -4.086 10.166 -3.625 8.75 C-3.242 7.567 -3.242 7.567 -2.852 6.359 C-2.048 4.134 -1.103 2.091 0 0 Z " fill="#EEEFEF" transform="translate(658,471)"/>
<path d="M0 0 C1.207 0.031 1.207 0.031 2.438 0.062 C2.933 2.043 2.933 2.043 3.438 4.062 C-1.133 6.939 -5.712 9.801 -10.299 12.65 C-12.481 14.012 -14.653 15.388 -16.824 16.766 C-18.153 17.594 -19.483 18.423 -20.812 19.25 C-21.741 19.847 -21.741 19.847 -22.688 20.457 C-27.018 23.121 -27.018 23.121 -29.984 22.801 C-30.766 22.435 -30.766 22.435 -31.562 22.062 C-31.892 20.743 -32.223 19.423 -32.562 18.062 C-31.689 17.553 -30.816 17.043 -29.916 16.518 C-26.686 14.632 -23.456 12.743 -20.227 10.854 C-18.828 10.036 -17.428 9.218 -16.028 8.401 C-14.019 7.228 -12.011 6.054 -10.004 4.879 C-9.06 4.329 -9.06 4.329 -8.097 3.768 C-1.742 0.042 -1.742 0.042 0 0 Z " fill="#111011" transform="translate(531.5625,434.9375)"/>
<path d="M0 0 C0.521 0.237 1.042 0.474 1.579 0.718 C1.579 2.038 1.579 3.358 1.579 4.718 C0.807 5.161 0.035 5.605 -0.76 6.063 C-3.629 7.713 -6.497 9.364 -9.365 11.016 C-10.605 11.731 -11.845 12.444 -13.086 13.158 C-14.871 14.185 -16.656 15.213 -18.44 16.241 C-19.514 16.859 -20.588 17.477 -21.694 18.114 C-23.638 19.257 -25.544 20.466 -27.421 21.718 C-29.608 21.343 -29.608 21.343 -31.421 20.718 C-31.421 19.398 -31.421 18.078 -31.421 16.718 C-29.363 15.11 -27.468 13.855 -25.218 12.573 C-24.266 12.012 -24.266 12.012 -23.296 11.44 C-21.952 10.652 -20.603 9.871 -19.25 9.098 C-17.181 7.911 -15.131 6.696 -13.081 5.477 C-11.773 4.716 -10.465 3.956 -9.155 3.198 C-8.542 2.834 -7.928 2.469 -7.296 2.094 C-2.972 -0.347 -2.972 -0.347 0 0 Z " fill="#111011" transform="translate(540.4208984375,450.282470703125)"/>
<path d="M0 0 C-0.371 2.441 -0.611 3.672 -2.531 5.293 C-3.181 5.659 -3.831 6.025 -4.5 6.402 C-5.218 6.816 -5.937 7.229 -6.677 7.655 C-7.444 8.078 -8.21 8.501 -9 8.938 C-9.773 9.376 -10.546 9.815 -11.342 10.267 C-12.87 11.132 -14.401 11.992 -15.935 12.846 C-17.641 13.8 -19.334 14.777 -21.023 15.762 C-26.609 19 -26.609 19 -30 19 C-30.33 17.68 -30.66 16.36 -31 15 C-25.233 10.958 -19.262 7.227 -13.25 3.562 C-12.517 3.101 -11.784 2.64 -11.03 2.165 C-4.48 -1.772 -4.48 -1.772 0 0 Z " fill="#111011" transform="translate(547,465)"/>
<path d="M0 0 C4.899 0.356 9.069 2.066 13.438 4.25 C12.562 10 12.562 10 11.438 12.25 C6.158 12.25 0.877 12.25 -4.562 12.25 C-3.605 0.352 -3.605 0.352 0 0 Z " fill="#111011" transform="translate(437.5625,320.75)"/>
<path d="M0 0 C2.125 0.938 2.125 0.938 4 2 C3.656 4.749 3.298 5.761 1.098 7.524 C0.285 7.993 -0.529 8.462 -1.367 8.945 C-2.253 9.465 -3.138 9.984 -4.051 10.52 C-4.983 11.049 -5.915 11.579 -6.875 12.125 C-8.706 13.19 -10.537 14.255 -12.367 15.32 C-13.591 16.021 -13.591 16.021 -14.839 16.735 C-16.596 17.763 -18.306 18.871 -20 20 C-22.188 19.625 -22.188 19.625 -24 19 C-24 17.68 -24 16.36 -24 15 C-21.473 13.07 -21.473 13.07 -18.062 11.125 C-16.869 10.43 -15.676 9.733 -14.484 9.035 C-13.893 8.694 -13.302 8.352 -12.693 8 C-9.608 6.178 -6.667 4.145 -3.707 2.129 C-2 1 -2 1 0 0 Z " fill="#111011" transform="translate(536,290)"/>
<path d="M0 0 C6.618 1.655 12.742 4.311 19 7 C19.768 7.327 20.537 7.655 21.328 7.992 C22.887 8.658 24.444 9.328 26 10 C19.377 14.416 9.803 14.306 2 14 C1.939 13.157 1.879 12.314 1.816 11.445 C1.733 10.35 1.649 9.254 1.562 8.125 C1.481 7.034 1.4 5.944 1.316 4.82 C1.17 2.053 1.17 2.053 0 0 Z " fill="#EEEFEF" transform="translate(647,545)"/>
<path d="M0 0 C8.39 0.651 16.68 1.749 25 3 C24.67 4.65 24.34 6.3 24 8 C15.733 8.237 8.08 7.813 0 6 C0 4.02 0 2.04 0 0 Z " fill="#111011" transform="translate(609,382)"/>
<path d="M0 0 C3.625 0.138 7.25 0.287 10.875 0.438 C12.424 0.496 12.424 0.496 14.004 0.557 C14.99 0.599 15.976 0.64 16.992 0.684 C17.903 0.72 18.815 0.757 19.753 0.795 C22 1 22 1 24 2 C24 3.98 24 5.96 24 8 C7.107 7.221 7.107 7.221 0 5 C0 3.35 0 1.7 0 0 Z " fill="#111011" transform="translate(579,379)"/>
<path d="M0 0 C3.151 1.294 4.869 3.169 6.969 5.809 C7.051 9.192 6.201 10.504 4.156 13.184 C1.969 14.809 1.969 14.809 0.031 14.809 C-3.326 13.181 -6.354 11.416 -7.844 7.879 C-8.031 5.809 -8.031 5.809 -6.957 4.07 C-6.425 3.551 -5.892 3.031 -5.344 2.496 C-4.565 1.698 -4.565 1.698 -3.77 0.883 C-2.031 -0.191 -2.031 -0.191 0 0 Z " fill="#111011" transform="translate(705.03125,391.19140625)"/>
<path d="M0 0 C0.577 0.227 1.155 0.454 1.75 0.688 C2.08 2.007 2.41 3.327 2.75 4.688 C0.814 6.314 -1.124 7.939 -3.062 9.562 C-3.883 10.253 -3.883 10.253 -4.721 10.957 C-11.572 16.688 -11.572 16.688 -15.25 16.688 C-16.043 14.477 -16.043 14.477 -16.25 11.688 C-14.301 9.336 -14.301 9.336 -11.562 7.062 C-10.672 6.307 -9.781 5.552 -8.863 4.773 C-8.001 4.085 -7.139 3.397 -6.25 2.688 C-5.527 2.096 -4.804 1.504 -4.059 0.895 C-2.25 -0.312 -2.25 -0.312 0 0 Z " fill="#060606" transform="translate(671.25,225.3125)"/>
<path d="M0 0 C3.404 1.135 4.217 1.968 6 5 C5.67 5.99 5.34 6.98 5 8 C3.35 8.33 1.7 8.66 0 9 C-0.99 7.68 -1.98 6.36 -3 5 C-1.125 1.125 -1.125 1.125 0 0 Z " fill="#19191A" transform="translate(702,419)"/>
<path d="M0 0 C-0.99 0 -1.98 0 -3 0 C-3 1.32 -3 2.64 -3 4 C-7.122 5.63 -9.707 6.263 -14 5 C-13 2 -13 2 -11.074 1.016 C-9.893 0.637 -9.893 0.637 -8.688 0.25 C-7.518 -0.144 -7.518 -0.144 -6.324 -0.547 C-3.831 -1.033 -2.382 -0.807 0 0 Z " fill="#111011" transform="translate(449,596)"/>
<path d="M0 0 C0.33 0 0.66 0 1 0 C1.043 2 1.041 4 1 6 C-0.811 7.811 -3.613 7.382 -6.062 7.562 C-7.167 7.646 -8.272 7.73 -9.41 7.816 C-10.265 7.877 -11.119 7.938 -12 8 C-10.6 5.199 -8.8 4.77 -6 3.438 C-2.777 2.047 -2.777 2.047 0 0 Z " fill="#C8C9CA" transform="translate(540,569)"/>
<path d="M0 0 C3.63 0 7.26 0 11 0 C11 0.99 11 1.98 11 3 C8.595 4.203 7.05 4.101 4.375 4.062 C3.149 4.049 3.149 4.049 1.898 4.035 C0.959 4.018 0.959 4.018 0 4 C0 2.68 0 1.36 0 0 Z " fill="#262626" transform="translate(420,471)"/>
<path d="M0 0 C4.842 0.45 7.497 1.6 11 5 C11 5.66 11 6.32 11 7 C3.117 6.242 3.117 6.242 0 3 C0 2.01 0 1.02 0 0 Z " fill="#19191A" transform="translate(422,461)"/>
<path d="M0 0 C-0.66 1.32 -1.32 2.64 -2 4 C-3.65 3.67 -5.3 3.34 -7 3 C-6.67 2.01 -6.34 1.02 -6 0 C-3.509 -1.245 -2.589 -0.777 0 0 Z " fill="#262626" transform="translate(442,598)"/>
<path d="M0 0 C0 1.98 0 3.96 0 6 C-1.98 6 -3.96 6 -6 6 C-3.4 0 -3.4 0 0 0 Z " fill="#D7D8D8" transform="translate(541,569)"/>
<path d="M0 0 C1.98 0.495 1.98 0.495 4 1 C3.67 2.32 3.34 3.64 3 5 C1.68 4.67 0.36 4.34 -1 4 C-0.67 2.68 -0.34 1.36 0 0 Z " fill="#C8C9CA" transform="translate(591,789)"/>
<path d="M0 0 C1.98 0.495 1.98 0.495 4 1 C3.67 2.32 3.34 3.64 3 5 C1.68 4.67 0.36 4.34 -1 4 C-0.67 2.68 -0.34 1.36 0 0 Z " fill="#E2E2E4" transform="translate(581,790)"/>
<path d="M0 0 C1.32 0.66 2.64 1.32 4 2 C3.67 2.99 3.34 3.98 3 5 C1.68 5 0.36 5 -1 5 C-0.67 3.35 -0.34 1.7 0 0 Z " fill="#D7D8D8" transform="translate(571,790)"/>
<path d="M0 0 C1.32 0.33 2.64 0.66 4 1 C3.67 2.32 3.34 3.64 3 5 C2.01 4.67 1.02 4.34 0 4 C0 2.68 0 1.36 0 0 Z " fill="#EEEFEF" transform="translate(601,789)"/>
</svg>