<svg version="1.1" xmlns="http://www.w3.org/2000/svg" width="1024" height="1024">
<path d="M0 0 C337.92 0 675.84 0 1024 0 C1024 337.92 1024 675.84 1024 1024 C686.08 1024 348.16 1024 0 1024 C0 686.08 0 348.16 0 0 Z " fill="#FEFEFE" transform="translate(0,0)"/>
<path d="M0 0 C3.666 0.605 7.335 1.096 11.02 1.57 C29.264 3.974 29.264 3.974 32.457 5.57 C33.822 5.81 35.195 6.008 36.57 6.184 C62.846 9.711 62.846 9.711 70.457 16.57 C72.288 20.231 72.337 23.597 71.457 27.57 C69.47 30.757 66.899 33.264 64.209 35.869 C61.228 38.764 58.305 41.717 55.37 44.659 C53.71 46.318 52.045 47.971 50.374 49.619 C46.828 53.124 43.345 56.626 40.102 60.414 C35.753 65.476 31.038 70.175 26.322 74.891 C24.757 76.458 23.2 78.034 21.643 79.609 C20.64 80.615 19.637 81.62 18.633 82.625 C17.735 83.527 16.837 84.429 15.911 85.359 C11.819 89.047 9.09 89.789 3.555 90.031 C0.357 89.329 -1.227 87.857 -3.543 85.57 C-5.125 82.406 -5.125 82.406 -6.355 78.945 C-6.984 77.224 -6.984 77.224 -7.625 75.469 C-8.543 72.57 -8.543 72.57 -8.543 70.57 C-12.995 74.053 -16.405 77.627 -19.793 82.133 C-20.743 83.371 -21.695 84.608 -22.648 85.844 C-23.126 86.463 -23.603 87.083 -24.095 87.722 C-27.143 91.614 -30.355 95.37 -33.547 99.145 C-35.634 101.599 -35.634 101.599 -37.543 104.57 C-37.205 107.743 -36.016 109.517 -33.918 111.855 C-33.381 112.463 -32.844 113.07 -32.291 113.696 C-31.426 114.654 -31.426 114.654 -30.543 115.633 C-29.345 116.986 -28.149 118.34 -26.953 119.695 C-26.367 120.358 -25.78 121.02 -25.176 121.703 C-23.051 124.132 -21.009 126.622 -18.98 129.133 C-15.572 133.342 -12.079 137.468 -8.543 141.57 C-4.233 146.573 -0.008 151.633 4.152 156.762 C7.328 160.632 10.572 164.442 13.828 168.244 C18.237 173.415 19.751 176.342 19.652 183.082 C19.65 183.81 19.647 184.538 19.644 185.289 C19.633 187.612 19.607 189.935 19.582 192.258 C19.572 193.834 19.563 195.41 19.555 196.986 C19.533 200.848 19.498 204.709 19.457 208.57 C20.004 208.566 20.551 208.561 21.114 208.557 C26.791 208.513 32.469 208.482 38.146 208.46 C40.266 208.45 42.387 208.437 44.507 208.419 C47.55 208.395 50.593 208.384 53.637 208.375 C54.589 208.365 55.541 208.354 56.522 208.344 C57.403 208.344 58.283 208.343 59.191 208.343 C59.968 208.339 60.745 208.334 61.546 208.33 C63.457 208.57 63.457 208.57 65.457 210.57 C65.457 219.48 65.457 228.39 65.457 237.57 C100.437 237.57 135.417 237.57 171.457 237.57 C172.117 235.26 172.777 232.95 173.457 230.57 C177.291 226.928 179.809 225.44 185.027 225.473 C185.923 225.476 186.819 225.479 187.742 225.482 C188.679 225.491 189.616 225.499 190.582 225.508 C191.527 225.512 192.472 225.517 193.445 225.521 C195.783 225.533 198.12 225.551 200.457 225.57 C200.787 219.3 201.117 213.03 201.457 206.57 C199.075 206.591 196.694 206.612 194.24 206.634 C186.353 206.7 178.466 206.744 170.579 206.778 C165.8 206.798 161.02 206.827 156.24 206.872 C151.624 206.916 147.007 206.939 142.391 206.95 C140.633 206.957 138.876 206.972 137.119 206.993 C134.648 207.022 132.179 207.026 129.709 207.024 C128.99 207.039 128.27 207.053 127.529 207.068 C121.58 207.02 116.359 205.242 111.923 201.158 C107.217 195.806 106.208 191.261 106.19 184.265 C106.185 183.54 106.181 182.814 106.176 182.067 C106.163 179.641 106.165 177.216 106.167 174.79 C106.161 173.048 106.154 171.307 106.146 169.566 C106.128 164.838 106.124 160.111 106.123 155.383 C106.121 152.429 106.117 149.474 106.112 146.519 C106.093 136.207 106.085 125.895 106.086 115.583 C106.088 105.977 106.067 96.371 106.035 86.765 C106.009 78.512 105.998 70.26 105.999 62.008 C106 57.081 105.994 52.155 105.973 47.228 C105.954 42.593 105.953 37.958 105.968 33.323 C105.97 31.625 105.965 29.927 105.953 28.229 C105.837 10.806 105.837 10.806 112.273 3.512 C112.85 3.057 113.426 2.602 114.02 2.133 C114.598 1.66 115.177 1.187 115.773 0.699 C119.741 -1.961 123.932 -1.581 128.509 -1.584 C129.339 -1.588 130.169 -1.592 131.024 -1.597 C133.815 -1.61 136.606 -1.616 139.397 -1.623 C141.395 -1.63 143.392 -1.639 145.389 -1.647 C151.957 -1.674 158.526 -1.689 165.094 -1.703 C167.354 -1.708 169.615 -1.714 171.875 -1.719 C181.278 -1.741 190.681 -1.76 200.084 -1.771 C213.562 -1.787 227.04 -1.82 240.518 -1.877 C249.993 -1.916 259.468 -1.936 268.944 -1.941 C274.604 -1.944 280.263 -1.956 285.923 -1.989 C291.249 -2.019 296.575 -2.025 301.901 -2.014 C303.854 -2.013 305.807 -2.022 307.759 -2.039 C310.43 -2.062 313.099 -2.054 315.771 -2.038 C316.539 -2.052 317.307 -2.065 318.099 -2.08 C324.621 -1.985 329.398 0.548 334.024 5.119 C338.225 9.952 338.584 13.467 338.611 19.711 C338.615 20.443 338.62 21.175 338.624 21.929 C338.638 24.388 338.644 26.848 338.65 29.307 C338.658 31.068 338.666 32.829 338.675 34.59 C338.701 40.379 338.716 46.168 338.73 51.957 C338.736 53.95 338.741 55.943 338.747 57.936 C338.768 66.227 338.787 74.518 338.798 82.809 C338.814 94.69 338.848 106.57 338.905 118.451 C338.943 126.805 338.963 135.159 338.968 143.514 C338.972 148.503 338.984 153.492 339.016 158.481 C339.046 163.177 339.053 167.872 339.041 172.568 C339.041 174.289 339.049 176.009 339.067 177.729 C339.229 194.564 339.229 194.564 333.457 200.57 C328.016 205.739 323.079 206.872 315.729 206.797 C314.587 206.798 314.587 206.798 313.422 206.798 C310.916 206.797 308.411 206.781 305.906 206.766 C304.165 206.762 302.423 206.759 300.681 206.757 C296.106 206.749 291.531 206.73 286.956 206.708 C282.284 206.687 277.612 206.678 272.939 206.668 C263.779 206.647 254.618 206.611 245.457 206.57 C246.447 212.51 247.437 218.45 248.457 224.57 C252.142 224.609 252.142 224.609 255.902 224.648 C258.295 224.687 260.688 224.732 263.081 224.778 C264.738 224.806 266.394 224.827 268.051 224.841 C270.439 224.863 272.827 224.91 275.215 224.961 C275.949 224.962 276.684 224.963 277.441 224.965 C282.568 225.109 285.481 226.381 289.457 229.57 C292.308 232.611 292.457 233.196 292.457 237.57 C319.847 237.57 347.237 237.57 375.457 237.57 C375.457 204.57 375.457 171.57 375.457 137.57 C390.307 137.57 405.157 137.57 420.457 137.57 C420.457 121.07 420.457 104.57 420.457 87.57 C425.386 87.55 430.316 87.529 435.395 87.508 C436.952 87.499 438.509 87.49 440.113 87.48 C441.937 87.476 441.937 87.476 443.797 87.473 C445.048 87.467 446.3 87.462 447.59 87.457 C450.457 87.57 450.457 87.57 451.457 88.57 C451.55 90.105 451.574 91.644 451.571 93.182 C451.57 94.163 451.57 95.144 451.57 96.154 C451.565 97.221 451.56 98.288 451.555 99.387 C451.553 100.473 451.552 101.559 451.55 102.678 C451.545 106.163 451.532 109.648 451.52 113.133 C451.515 115.489 451.51 117.845 451.506 120.201 C451.495 125.991 451.478 131.781 451.457 137.57 C452.088 137.565 452.719 137.56 453.369 137.554 C456.211 137.534 459.053 137.521 461.895 137.508 C462.888 137.499 463.881 137.491 464.904 137.482 C465.849 137.479 466.793 137.476 467.766 137.473 C468.64 137.467 469.515 137.462 470.416 137.457 C472.457 137.57 472.457 137.57 473.457 138.57 C473.552 141.645 473.583 144.697 473.571 147.772 C473.571 148.737 473.571 149.703 473.571 150.698 C473.57 153.907 473.563 157.116 473.555 160.324 C473.553 162.542 473.551 164.761 473.55 166.979 C473.547 172.83 473.537 178.681 473.526 184.532 C473.514 191.545 473.509 198.558 473.503 205.572 C473.494 216.238 473.474 226.904 473.457 237.57 C488.307 237.57 503.157 237.57 518.457 237.57 C517.797 234.6 517.137 231.63 516.457 228.57 C516.095 226.381 515.759 224.187 515.457 221.988 C515.292 220.808 515.127 219.628 514.957 218.412 C514.792 217.206 514.627 216 514.457 214.758 C513.344 200.27 513.344 200.27 509.457 186.57 C509.361 184.718 509.327 182.862 509.332 181.008 C509.329 180.017 509.327 179.025 509.324 178.004 C509.457 175.57 509.457 175.57 510.457 174.57 C511.804 174.471 513.157 174.44 514.508 174.438 C515.353 174.436 516.198 174.435 517.068 174.434 C517.96 174.437 518.851 174.441 519.77 174.445 C520.618 174.441 521.467 174.438 522.342 174.434 C529.085 174.444 535.746 174.931 542.457 175.57 C542.2 174.424 542.2 174.424 541.938 173.254 C534.97 141.977 534.97 141.977 534.457 131.57 C535.457 130.57 535.457 130.57 538.02 130.508 C538.824 130.528 539.628 130.549 540.457 130.57 C542.476 135.051 543.424 139.584 544.402 144.371 C544.577 145.207 544.752 146.044 544.932 146.906 C545.486 149.564 546.034 152.223 546.582 154.883 C546.958 156.691 547.334 158.499 547.711 160.307 C548.631 164.727 549.546 169.148 550.457 173.57 C550.691 172.678 550.691 172.678 550.93 171.767 C551.36 170.126 551.79 168.486 552.22 166.845 C552.669 165.129 553.119 163.412 553.568 161.695 C554.809 156.97 556.095 152.262 557.457 147.57 C559.457 147.528 561.457 147.53 563.457 147.57 C563.787 147.9 564.117 148.23 564.457 148.57 C564.132 157.67 561.545 168.395 557.457 176.57 C558.33 176.565 559.204 176.56 560.103 176.554 C563.333 176.537 566.563 176.525 569.792 176.515 C571.192 176.51 572.592 176.504 573.991 176.495 C575.999 176.483 578.008 176.478 580.016 176.473 C581.83 176.465 581.83 176.465 583.681 176.457 C586.457 176.57 586.457 176.57 587.457 177.57 C586.752 187.264 583.447 195.757 579.648 204.625 C578.253 208.076 577.218 211.556 576.203 215.133 C575.175 218.492 573.866 221.71 572.52 224.953 C563.882 246.23 568.222 246.384 567.457 281.57 C532.477 281.9 497.497 282.23 461.457 282.57 C462.621 290.721 463.654 297.862 465.71 305.657 C466.963 310.543 467.906 315.488 468.875 320.438 C469.093 321.538 469.311 322.639 469.536 323.773 C470.001 326.118 470.464 328.463 470.927 330.808 C472.148 336.997 473.38 343.184 474.613 349.371 C474.98 351.213 474.98 351.213 475.355 353.092 C478.138 367.027 481.063 380.93 484.025 394.828 C485.203 400.357 486.362 405.891 487.516 411.426 C491.084 428.535 494.763 445.605 498.765 462.62 C499.948 467.662 501.112 472.709 502.27 477.758 C502.477 478.649 502.684 479.541 502.897 480.459 C503.088 481.294 503.28 482.128 503.477 482.988 C503.726 484.068 503.726 484.068 503.98 485.169 C504.599 488.286 505.015 491.423 505.457 494.57 C506.338 494.578 507.22 494.586 508.127 494.595 C516.496 494.673 524.865 494.761 533.234 494.858 C537.535 494.907 541.836 494.954 546.136 494.992 C550.299 495.029 554.462 495.076 558.625 495.128 C560.2 495.147 561.776 495.162 563.352 495.174 C602.362 495.475 602.362 495.475 612.457 505.57 C612.498 507.236 612.5 508.904 612.457 510.57 C605.922 514.777 600.044 516.631 592.395 517.758 C591.011 517.985 591.011 517.985 589.6 518.217 C586.556 518.704 583.509 519.143 580.457 519.57 C579.342 519.731 578.227 519.892 577.079 520.057 C564.068 521.817 550.989 522.684 537.895 523.57 C536.616 523.657 535.337 523.745 534.02 523.834 C506.954 525.654 479.88 526.587 452.763 527.295 C444.287 527.516 435.812 527.767 427.338 528.03 C422.88 528.167 418.422 528.302 413.965 528.436 C410.483 528.541 407.002 528.647 403.521 528.755 C344.238 530.582 284.953 530.734 225.647 530.699 C218.514 530.695 211.381 530.696 204.248 530.701 C164.344 530.724 124.443 530.709 84.543 530.156 C82.311 530.126 80.08 530.096 77.849 530.066 C64.007 529.879 50.191 529.607 36.371 528.787 C30.939 528.486 25.517 528.399 20.078 528.359 C17.789 528.333 15.5 528.307 13.211 528.28 C12.023 528.267 10.834 528.253 9.61 528.24 C-38.699 527.664 -87.197 526.392 -135.31 521.846 C-139.822 521.461 -144.331 521.289 -148.855 521.133 C-155.998 520.846 -162.988 519.89 -170.043 518.758 C-171.023 518.604 -172.003 518.451 -173.013 518.293 C-191.192 515.178 -191.192 515.178 -195.543 509.57 C-195.48 507.07 -195.48 507.07 -194.543 504.57 C-191.644 501.995 -188.761 500.733 -185.105 499.508 C-183.715 499.026 -183.715 499.026 -182.297 498.535 C-172.633 496.051 -163.064 495.277 -153.117 495.375 C-151.447 495.379 -151.447 495.379 -149.743 495.384 C-146.238 495.395 -142.735 495.42 -139.23 495.445 C-136.833 495.455 -134.435 495.464 -132.037 495.473 C-126.206 495.495 -120.374 495.528 -114.543 495.57 C-114.681 494.916 -114.819 494.261 -114.961 493.587 C-115.911 488.977 -116.782 484.462 -117.105 479.758 C-117.179 478.755 -117.252 477.753 -117.328 476.72 C-117.399 475.681 -117.47 474.641 -117.543 473.57 C-118.077 466.367 -118.633 459.181 -119.48 452.008 C-120.401 444.109 -121.2 436.199 -121.96 428.283 C-122.097 426.87 -122.235 425.458 -122.375 424.046 C-124.228 405.345 -124.228 405.345 -123.543 399.57 C-121.543 397.57 -121.543 397.57 -119.296 397.343 C-118.385 397.354 -117.474 397.364 -116.535 397.375 C-115.549 397.381 -114.563 397.388 -113.547 397.395 C-112.514 397.411 -111.482 397.428 -110.418 397.445 C-109.378 397.454 -108.337 397.463 -107.266 397.473 C-104.691 397.496 -102.117 397.529 -99.543 397.57 C-100.031 396.439 -100.518 395.308 -101.021 394.143 C-117.361 356.228 -117.361 356.228 -124.168 339.57 C-124.622 338.464 -125.076 337.357 -125.544 336.218 C-125.949 335.22 -126.353 334.223 -126.77 333.195 C-127.116 332.342 -127.462 331.489 -127.819 330.609 C-128.543 328.57 -128.543 328.57 -128.543 326.57 C-130.049 326.652 -130.049 326.652 -131.586 326.734 C-135.791 326.56 -139.041 325.57 -142.855 323.945 C-143.834 323.538 -143.834 323.538 -144.832 323.123 C-154.765 318.882 -163.429 313.808 -169.48 304.633 C-170.901 300.538 -171.032 297.904 -170.543 293.57 C-169.043 291.07 -169.043 291.07 -166.543 289.57 C-158.917 288.208 -152.877 291.472 -146.543 295.57 C-143.306 298.378 -140.372 301.355 -137.543 304.57 C-140.928 290.429 -144.855 276.437 -148.759 262.433 C-149.384 260.151 -149.983 257.869 -150.543 255.57 C-151.426 255.617 -152.309 255.663 -153.219 255.711 C-165.749 256.088 -174.618 253.146 -184.543 245.57 C-185.612 244.766 -185.612 244.766 -186.703 243.945 C-191.795 239.834 -194.751 235.455 -197.543 229.57 C-197.873 228.91 -198.203 228.25 -198.543 227.57 C-198.973 223.698 -198.86 222.045 -196.668 218.758 C-193.888 215.896 -192.184 215.328 -188.293 215.07 C-178.313 215.157 -168.393 221.72 -161.543 228.57 C-159.605 230.945 -159.605 230.945 -158.543 232.57 C-161.878 221.962 -167.25 212.76 -173.48 203.633 C-187.448 183.14 -196.149 162.53 -195.918 137.32 C-195.93 136.036 -195.941 134.753 -195.953 133.43 C-195.922 123.435 -194.9 114.568 -188.543 106.57 C-185.219 104.908 -182.108 104.838 -178.543 105.57 C-160.124 115.915 -149.722 139.403 -144.103 158.659 C-142.32 165.01 -141.416 170.878 -141.41 177.473 C-141.409 178.775 -141.408 180.078 -141.406 181.42 C-141.408 182.092 -141.41 182.764 -141.413 183.456 C-141.418 185.499 -141.413 187.541 -141.406 189.584 C-141.408 190.888 -141.409 192.192 -141.41 193.535 C-141.411 194.717 -141.412 195.899 -141.414 197.117 C-141.543 200.57 -141.543 200.57 -142.045 204.071 C-142.552 207.633 -142.657 211.001 -142.641 214.598 C-142.637 215.883 -142.634 217.169 -142.631 218.494 C-142.623 219.832 -142.614 221.17 -142.605 222.508 C-142.6 223.873 -142.596 225.238 -142.592 226.604 C-142.58 229.926 -142.564 233.248 -142.543 236.57 C-140.511 228.573 -139.146 220.924 -138.668 212.695 C-137.957 203.263 -136.21 195.304 -132.543 186.57 C-132.173 185.651 -131.803 184.732 -131.422 183.785 C-127.31 174.581 -119.176 164.355 -109.543 160.57 C-107.324 160.234 -107.324 160.234 -105.043 160.195 C-104.29 160.167 -103.537 160.139 -102.762 160.109 C-99.539 160.779 -98.456 161.907 -96.543 164.57 C-96.104 167.23 -95.923 169.357 -95.98 172.008 C-95.995 173.069 -95.995 173.069 -96.009 174.151 C-96.577 188.761 -105.159 202.664 -115.543 212.57 C-120.623 216.691 -125.246 219.681 -131.543 221.57 C-138.204 250.333 -138.204 250.333 -135.293 279.133 C-135.074 279.902 -134.855 280.672 -134.63 281.464 C-132.757 287.987 -130.735 294.462 -128.656 300.922 C-127.478 304.783 -126.491 308.647 -125.543 312.57 C-125.445 311.471 -125.347 310.371 -125.246 309.238 C-124.079 297.257 -122.495 285.497 -113.543 276.57 C-112.883 276.57 -112.223 276.57 -111.543 276.57 C-111.543 263.7 -111.543 250.83 -111.543 237.57 C-84.813 237.57 -58.083 237.57 -30.543 237.57 C-30.543 228.99 -30.543 220.41 -30.543 211.57 C-28.543 209.57 -28.543 209.57 -24.644 209.343 C-22.962 209.344 -21.28 209.355 -19.598 209.375 C-18.713 209.378 -17.828 209.381 -16.916 209.384 C-14.083 209.395 -11.251 209.42 -8.418 209.445 C-6.5 209.455 -4.582 209.464 -2.664 209.473 C2.043 209.495 6.75 209.529 11.457 209.57 C12.384 195.884 12.384 195.884 6.551 184.072 C4.423 181.984 2.244 179.97 0.005 178.001 C-2.338 175.835 -4.26 173.387 -6.23 170.883 C-9.072 167.345 -11.985 163.924 -15.043 160.57 C-18.885 156.35 -22.504 151.99 -26.094 147.555 C-28.861 144.183 -31.695 140.874 -34.543 137.57 C-39.642 131.649 -44.63 125.648 -49.543 119.57 C-50.301 118.647 -51.059 117.724 -51.84 116.773 C-52.567 115.881 -53.294 114.989 -54.043 114.07 C-54.693 113.276 -55.342 112.482 -56.012 111.664 C-57.543 109.57 -57.543 109.57 -58.543 106.57 C-57.129 104.398 -57.129 104.398 -54.918 101.82 C-54.092 100.847 -53.265 99.874 -52.414 98.871 C-51.458 97.77 -50.501 96.67 -49.543 95.57 C-48.471 94.335 -47.4 93.099 -46.328 91.863 C-44.645 89.924 -42.961 87.985 -41.273 86.05 C-37.635 81.869 -34.12 77.623 -30.742 73.227 C-28.921 71.026 -27.057 69.015 -25.062 66.977 C-24.452 66.332 -23.842 65.688 -23.213 65.023 C-22 63.748 -20.761 62.496 -19.494 61.273 C-17.754 59.414 -16.546 57.914 -15.543 55.57 C-15.753 51.936 -17.136 48.898 -18.543 45.57 C-19.376 43.334 -20.202 41.096 -21.023 38.855 C-22.378 35.231 -23.739 31.611 -25.135 28.002 C-27.742 20.955 -30.014 14.138 -28.543 6.57 C-21.848 -4.528 -11.353 -1.912 0 0 Z " fill="#060606" transform="translate(290.54296875,413.4296875)"/>
<path d="M0 0 C141.9 0 283.8 0 430 0 C433.37 10.11 433.37 10.11 434.246 13.98 C434.543 15.263 434.543 15.263 434.846 16.572 C435.041 17.435 435.236 18.298 435.438 19.188 C436.754 24.991 438.186 30.727 439.852 36.441 C442.715 46.327 445.112 56.329 447.57 66.321 C449.76 75.211 451.984 84.079 454.473 92.891 C457.647 104.137 460.402 115.486 463.198 126.832 C465.911 137.828 468.719 148.78 471.79 159.681 C473.614 166.159 475.336 172.664 477.058 179.17 C477.63 181.331 478.206 183.491 478.781 185.65 C485 209.064 485 209.064 485 214 C303.5 214 122 214 -65 214 C-64.257 208.8 -63.558 205.35 -61.75 200.625 C-59.809 195.354 -58.064 190.082 -56.5 184.688 C-56.293 183.975 -56.087 183.262 -55.874 182.528 C-55.246 180.353 -54.623 178.176 -54 176 C-51.483 167.228 -48.876 158.516 -45.938 149.875 C-43.728 143.364 -41.842 136.836 -40.125 130.176 C-37.034 118.454 -33.346 106.848 -29.438 95.375 C-27.149 88.637 -25.22 81.82 -23.301 74.968 C-21.685 69.254 -19.922 63.618 -18 58 C-15.218 49.855 -12.844 41.623 -10.512 33.34 C-8.991 27.942 -7.415 22.562 -5.812 17.188 C-5.575 16.382 -5.337 15.576 -5.092 14.747 C-4.862 13.978 -4.632 13.21 -4.395 12.418 C-4.197 11.756 -4 11.093 -3.796 10.411 C-2.638 6.903 -1.297 3.459 0 0 Z " fill="#FEFEFE" transform="translate(298,695)"/>
<path d="M0 0 C0.822 -0.004 1.645 -0.009 2.492 -0.013 C5.263 -0.027 8.035 -0.033 10.806 -0.039 C12.787 -0.047 14.767 -0.055 16.748 -0.064 C23.266 -0.09 29.785 -0.105 36.303 -0.12 C38.545 -0.125 40.786 -0.13 43.028 -0.136 C52.351 -0.157 61.674 -0.176 70.997 -0.187 C84.37 -0.204 97.742 -0.237 111.115 -0.294 C120.511 -0.332 129.907 -0.352 139.303 -0.357 C144.918 -0.361 150.533 -0.373 156.148 -0.405 C161.431 -0.435 166.713 -0.442 171.996 -0.43 C173.935 -0.43 175.874 -0.438 177.813 -0.456 C180.461 -0.478 183.107 -0.47 185.754 -0.454 C186.522 -0.468 187.289 -0.482 188.079 -0.496 C191.865 -0.44 194.579 0.078 197.61 2.298 C200.587 5.67 200.875 7.016 200.853 11.45 C200.861 12.716 200.869 13.982 200.878 15.287 C200.856 16.689 200.835 18.09 200.812 19.491 C200.81 20.994 200.811 22.496 200.815 23.998 C200.816 28.018 200.781 32.036 200.739 36.056 C200.705 39.829 200.703 43.602 200.699 47.375 C200.667 58.406 200.584 69.436 200.506 80.466 C200.382 105.113 200.259 129.76 200.131 155.154 C129.511 155.154 58.891 155.154 -13.869 155.154 C-13.951 130.672 -14.034 106.19 -14.119 80.966 C-14.155 73.233 -14.192 65.5 -14.229 57.532 C-14.247 48.097 -14.247 48.097 -14.251 43.681 C-14.254 40.594 -14.269 37.507 -14.291 34.419 C-14.319 30.481 -14.327 26.544 -14.321 22.606 C-14.322 21.161 -14.33 19.715 -14.346 18.27 C-14.366 16.317 -14.358 14.364 -14.35 12.412 C-14.354 11.318 -14.357 10.223 -14.361 9.096 C-13.751 5.451 -12.409 3.787 -9.869 1.154 C-6.747 -0.407 -3.427 0.002 0 0 Z " fill="#FEFEFE" transform="translate(419.86883544921875,420.8460998535156)"/>
<path d="M0 0 C1.107 -0.008 2.213 -0.015 3.354 -0.023 C27.363 0.033 48.974 9.778 66.938 25.25 C67.968 26.126 67.968 26.126 69.02 27.02 C84.945 41.752 95.157 64.307 96.383 85.742 C97.075 105.455 93.953 123.096 83.938 140.25 C85.153 140.311 86.369 140.371 87.621 140.434 C89.206 140.518 90.79 140.603 92.375 140.688 C93.177 140.727 93.98 140.766 94.807 140.807 C100.824 141.137 100.824 141.137 101.938 142.25 C102.037 143.788 102.068 145.33 102.07 146.871 C102.072 147.806 102.073 148.742 102.074 149.705 C102.07 150.689 102.066 151.673 102.062 152.688 C102.066 153.668 102.07 154.648 102.074 155.658 C102.072 157.063 102.072 157.063 102.07 158.496 C102.069 159.359 102.068 160.222 102.067 161.111 C101.938 163.25 101.938 163.25 100.938 165.25 C99.803 165.244 98.669 165.237 97.5 165.231 C93.256 165.216 89.013 165.248 84.769 165.293 C82.939 165.306 81.109 165.307 79.279 165.295 C65.923 164.868 65.923 164.868 54.847 171.421 C51.52 174.608 47.352 176.2 43.188 178.062 C42.364 178.443 41.54 178.824 40.691 179.217 C25.199 186.339 11.418 187.788 -5.494 187.319 C-7.595 187.263 -9.696 187.24 -11.797 187.227 C-26.291 186.748 -44.705 180.335 -55.791 170.757 C-61.176 166.128 -65.238 165.385 -72.215 165.48 C-73.626 165.463 -73.626 165.463 -75.066 165.446 C-78.044 165.416 -81.021 165.425 -84 165.438 C-87.003 165.423 -90.006 165.401 -93.009 165.375 C-94.872 165.362 -96.735 165.358 -98.598 165.362 C-104.955 165.357 -104.955 165.357 -106.062 164.25 C-106.162 162.627 -106.193 161.001 -106.195 159.375 C-106.197 158.39 -106.198 157.405 -106.199 156.391 C-106.195 155.354 -106.191 154.318 -106.188 153.25 C-106.193 151.695 -106.193 151.695 -106.199 150.109 C-106.198 149.125 -106.197 148.14 -106.195 147.125 C-106.194 146.215 -106.193 145.305 -106.192 144.367 C-106.062 142.25 -106.062 142.25 -105.062 141.25 C-103.503 141.093 -101.937 140.999 -100.371 140.934 C-98.955 140.871 -98.955 140.871 -97.51 140.807 C-96.517 140.767 -95.523 140.728 -94.5 140.688 C-93.503 140.644 -92.506 140.601 -91.479 140.557 C-89.007 140.45 -86.535 140.348 -84.062 140.25 C-84.51 139.437 -84.957 138.623 -85.418 137.785 C-96.599 116.592 -100.659 91.834 -94.062 68.312 C-93.188 65.565 -92.178 62.908 -91.062 60.25 C-90.778 59.565 -90.494 58.879 -90.202 58.173 C-79.917 34.171 -61.015 16.361 -37.062 6.25 C-24.854 1.689 -12.989 -0.091 0 0 Z " fill="#060606" transform="translate(765.0625,232.75)"/>
<path d="M0 0 C0.33 23.1 0.66 46.2 1 70 C13.496 78.134 13.496 78.134 27 82 C27.66 80.35 28.32 78.7 29 77 C27.02 76.34 25.04 75.68 23 75 C17.72 72.36 12.44 69.72 7 67 C7 44.89 7 22.78 7 0 C27.438 0 44.193 7.995 59 22 C64.359 27.496 68.169 33.734 71.812 40.438 C72.373 41.457 72.373 41.457 72.944 42.496 C78.023 52.234 79.563 61.779 79.5 72.688 C79.495 73.827 79.49 74.966 79.485 76.139 C79.203 89.826 75.386 102.335 68 114 C67.01 114.66 66.02 115.32 65 116 C66.875 111.25 66.875 111.25 68 109 C68.811 102.768 68.334 97.855 64.605 92.695 C60.498 88.357 55.891 86.79 50 86.438 C44.656 86.684 40.944 88.42 37 92 C33.141 96.295 32.31 100.824 32.543 106.504 C33.681 112.722 37.656 116.656 42 121 C20.55 121 -0.9 121 -23 121 C-23 102.19 -23 83.38 -23 64 C-31.91 64 -40.82 64 -50 64 C-50 82.81 -50 101.62 -50 121 C-56 121 -56 121 -57.652 119.742 C-70.35 101.294 -76.207 81.018 -72.621 58.632 C-69.488 44.11 -61.48 31.336 -51 21 C-50.314 20.304 -49.628 19.608 -48.922 18.891 C-35.326 5.899 -18.609 0 0 0 Z " fill="#FEFEFE" transform="translate(762,253)"/>
<path d="M0 0 C219.45 0 438.9 0 665 0 C665 5.94 665 11.88 665 18 C445.55 18 226.1 18 0 18 C0 12.06 0 6.12 0 0 Z " fill="#FEFEFE" transform="translate(186,659)"/>
<path d="M0 0 C26.4 0 52.8 0 80 0 C78.873 7.891 78.873 7.891 78.02 11.836 C77.829 12.72 77.638 13.605 77.441 14.516 C77.234 15.459 77.026 16.403 76.812 17.375 C76.59 18.393 76.367 19.41 76.137 20.459 C74.159 29.415 72.038 38.333 69.875 47.246 C68.336 53.588 66.822 59.936 65.312 66.285 C64.578 69.369 63.844 72.453 63.11 75.537 C62.626 77.57 62.143 79.604 61.66 81.637 C57.69 98.365 53.389 114.933 48.469 131.41 C47.12 135.977 45.86 140.496 44.914 145.164 C44.612 146.43 44.311 147.696 44 149 C43.34 149.33 42.68 149.66 42 150 C42.008 148.508 42.008 148.508 42.016 146.987 C42.034 143.31 42.045 139.633 42.055 135.956 C42.06 134.362 42.067 132.768 42.075 131.175 C42.088 128.888 42.093 126.602 42.098 124.316 C42.103 123.6 42.108 122.883 42.113 122.145 C42.113 120.429 42.062 118.714 42 117 C39.943 114.943 35.644 115.743 32.809 115.684 C31.579 115.652 31.579 115.652 30.324 115.621 C27.695 115.555 25.066 115.496 22.438 115.438 C20.659 115.394 18.881 115.351 17.104 115.307 C12.736 115.199 8.368 115.098 4 115 C-3.282 98.736 -10.24 82.355 -17.047 65.888 C-17.361 65.129 -17.675 64.37 -17.999 63.589 C-18.59 62.161 -19.179 60.732 -19.767 59.303 C-20.831 56.732 -21.901 54.194 -23.163 51.713 C-24.534 48.906 -24.459 47.088 -24 44 C-22.402 41.341 -20.415 39.079 -18.375 36.75 C-17.263 35.417 -16.155 34.082 -15.051 32.742 C-14.519 32.099 -13.988 31.455 -13.44 30.792 C-6.293 21.897 -1.866 11.197 0 0 Z " fill="#FEFEFE" transform="translate(195,695)"/>
<path d="M0 0 C70.95 0 141.9 0 215 0 C215 6.93 215 13.86 215 21 C209.162 26.838 207.799 27.149 200.169 27.167 C199.351 27.173 198.533 27.179 197.69 27.185 C194.932 27.203 192.175 27.214 189.417 27.225 C187.446 27.236 185.475 27.247 183.505 27.259 C177.019 27.296 170.533 27.321 164.047 27.344 C162.944 27.348 161.842 27.352 160.706 27.356 C150.312 27.392 139.919 27.424 129.525 27.445 C116.219 27.472 102.913 27.523 89.607 27.605 C80.258 27.661 70.908 27.69 61.559 27.699 C55.971 27.706 50.385 27.724 44.798 27.771 C39.541 27.814 34.285 27.825 29.029 27.81 C27.099 27.81 25.17 27.823 23.241 27.848 C20.606 27.88 17.974 27.87 15.339 27.849 C14.576 27.868 13.812 27.888 13.026 27.908 C9.892 27.844 7.606 27.516 5.188 25.455 C-2.375 16.803 0 14.886 0 0 Z " fill="#FEFEFE" transform="translate(405,584)"/>
<path d="M0 0 C1.016 0.084 1.016 0.084 2.053 0.17 C13.945 1.292 26.111 3.116 37.684 6.098 C40.47 6.803 42.965 7.284 45.812 7.5 C49.804 7.882 53.391 8.897 57.25 10 C58.727 10.145 60.207 10.269 61.688 10.375 C66.569 10.82 70.004 12.607 74.25 15 C74.608 18.233 74.507 19.632 72.615 22.34 C71.865 23.124 71.115 23.908 70.343 24.716 C69.105 26.023 69.105 26.023 67.842 27.357 C66.986 28.229 66.131 29.101 65.25 30 C64.481 30.79 63.712 31.579 62.92 32.393 C60.552 34.797 58.16 37.177 55.762 39.551 C54.896 40.413 54.03 41.274 53.139 42.162 C50.407 44.882 47.673 47.597 44.938 50.312 C41.314 53.91 37.693 57.511 34.074 61.113 C33.248 61.931 32.422 62.749 31.571 63.591 C27.889 67.258 24.475 70.92 21.25 75 C18.25 77 18.25 77 16.188 76.837 C12.642 75.306 11.65 71.384 10.25 68 C8.85 64.456 7.554 60.881 6.281 57.289 C5.919 56.281 5.557 55.273 5.184 54.234 C4.034 51.033 2.892 47.829 1.75 44.625 C0.607 41.429 -0.537 38.233 -1.684 35.037 C-2.394 33.057 -3.102 31.076 -3.807 29.094 C-5.727 23.728 -7.757 18.434 -9.966 13.18 C-11.13 9.943 -11.291 7.384 -10.75 4 C-7.556 -0.356 -5.225 -0.441 0 0 Z " fill="#FEFEFE" transform="translate(279.75,419)"/>
<path d="M0 0 C20.46 0.33 40.92 0.66 62 1 C58.662 12.127 58.662 12.127 57.062 15.875 C54.754 21.493 52.876 27.226 51 33 C50.336 35.043 49.67 37.084 49 39.125 C48.711 40.014 48.423 40.904 48.125 41.82 C46.553 46.264 44.751 50.623 43 55 C31.45 55 19.9 55 8 55 C6.855 48.293 5.714 41.586 4.582 34.877 C4.196 32.596 3.808 30.316 3.418 28.036 C2.857 24.753 2.303 21.468 1.75 18.184 C1.575 17.17 1.4 16.156 1.22 15.111 C1.06 14.151 0.899 13.191 0.734 12.201 C0.592 11.364 0.45 10.527 0.304 9.664 C-0.061 6.462 0 3.223 0 0 Z " fill="#FEFEFE" transform="translate(808,596)"/>
<path d="M0 0 C30.69 0 61.38 0 93 0 C93 2.31 93 4.62 93 7 C64.62 7 36.24 7 7 7 C7 26.8 7 46.6 7 67 C30.43 67 53.86 67 78 67 C78 71.95 78 76.9 78 82 C52.26 82 26.52 82 0 82 C0 54.94 0 27.88 0 0 Z " fill="#060606" transform="translate(446,445)"/>
<path d="M0 0 C64.02 0 128.04 0 194 0 C194 3.63 194 7.26 194 11 C129.98 11 65.96 11 0 11 C0 7.37 0 3.74 0 0 Z " fill="#F3F3F2" transform="translate(666,381)"/>
<path d="M0 0 C27.06 0 54.12 0 82 0 C82 6.27 82 12.54 82 19 C74.557 19.132 67.114 19.263 59.671 19.391 C56.212 19.451 52.753 19.511 49.294 19.573 C32.861 19.866 16.437 20.057 0 20 C0 13.4 0 6.8 0 0 Z " fill="#FEFEFE" transform="translate(267,630)"/>
<path d="M0 0 C5.61 0 11.22 0 17 0 C17 14.19 17 28.38 17 43 C11.39 43 5.78 43 0 43 C0 28.81 0 14.62 0 0 Z " fill="#FEFEFE" transform="translate(718,508)"/>
<path d="M0 0 C4.62 0 9.24 0 14 0 C14 16.5 14 33 14 50 C9.38 50 4.76 50 0 50 C0 33.5 0 17 0 0 Z " fill="#F3F3F2" transform="translate(719,324)"/>
<path d="M0 0 C26.4 0 52.8 0 80 0 C80 2.64 80 5.28 80 8 C53.6 8 27.2 8 0 8 C0 5.36 0 2.72 0 0 Z " fill="#111111" transform="translate(460,486)"/>
<path d="M0 0 C26.4 0 52.8 0 80 0 C80 2.64 80 5.28 80 8 C53.6 8 27.2 8 0 8 C0 5.36 0 2.72 0 0 Z " fill="#111111" transform="translate(460,466)"/>
<path d="M0 0 C12.969 -0.093 25.938 -0.164 38.908 -0.207 C44.93 -0.228 50.952 -0.256 56.974 -0.302 C62.783 -0.345 68.593 -0.369 74.402 -0.38 C76.621 -0.387 78.839 -0.401 81.057 -0.423 C84.161 -0.452 87.263 -0.456 90.366 -0.454 C91.287 -0.468 92.208 -0.483 93.156 -0.498 C94.003 -0.492 94.85 -0.487 95.723 -0.481 C96.456 -0.485 97.19 -0.488 97.946 -0.492 C100 0 100 0 104 4 C69.02 4 34.04 4 -2 4 C-1.34 2.68 -0.68 1.36 0 0 Z " fill="#DFDFDF" transform="translate(472,647)"/>
<path d="M0 0 C2.97 0 5.94 0 9 0 C9 10.23 9 20.46 9 31 C6.03 31 3.06 31 0 31 C0 20.77 0 10.54 0 0 Z " fill="#FEFEFE" transform="translate(747,617)"/>
<path d="M0 0 C2.97 0 5.94 0 9 0 C9 8.91 9 17.82 9 27 C6.03 27 3.06 27 0 27 C0 18.09 0 9.18 0 0 Z " fill="#FEFEFE" transform="translate(747,559)"/>
<path d="M0 0 C3.3 0 6.6 0 10 0 C10 5.28 10 10.56 10 16 C6.7 16 3.4 16 0 16 C0 10.72 0 5.44 0 0 Z " fill="#F3F3F2" transform="translate(747,593)"/>
<path d="M0 0 C3.062 0.312 3.062 0.312 5 1.438 C6.062 3.312 6.062 3.312 5.875 6.375 C5.062 9.312 5.062 9.312 3.062 11.312 C0.062 11.625 0.062 11.625 -2.938 11.312 C-5.239 7.86 -5.282 6.365 -4.938 2.312 C-2.938 0.312 -2.938 0.312 0 0 Z " fill="#060606" transform="translate(514.9375,589.6875)"/>
<path d="M0 0 C0.33 0 0.66 0 1 0 C1.226 4.228 1.428 8.458 1.625 12.688 C1.689 13.886 1.754 15.084 1.82 16.318 C1.872 17.475 1.923 18.632 1.977 19.824 C2.029 20.887 2.081 21.95 2.135 23.046 C1.994 26.129 1.313 28.228 0 31 C-0.33 31 -0.66 31 -1 31 C-0.67 20.77 -0.34 10.54 0 0 Z " fill="#A9ABAB" transform="translate(238,814)"/>
</svg>