<svg version="1.1" xmlns="http://www.w3.org/2000/svg" width="1024" height="1024">
<path d="M0 0 C337.92 0 675.84 0 1024 0 C1024 337.92 1024 675.84 1024 1024 C686.08 1024 348.16 1024 0 1024 C0 686.08 0 348.16 0 0 Z " fill="#FEFEFE" transform="translate(0,0)"/>
<path d="M0 0 C5.579 4.565 5.579 4.565 5.961 8.328 C6.014 11.51 6.049 14.36 5.029 17.398 C4.624 21.538 6.33 24.563 8.09 28.199 C8.63 29.356 8.63 29.356 9.18 30.537 C10.337 33.01 11.511 35.474 12.688 37.938 C13.445 39.544 14.201 41.152 14.955 42.76 C16.085 45.166 17.214 47.573 18.347 49.978 C21.048 55.722 23.709 61.482 26.316 67.27 C26.663 68.028 27.009 68.787 27.366 69.569 C29.75 74.9 29.75 74.9 29.75 78.25 C30.493 77.899 31.235 77.549 32 77.188 C35.002 76.164 35.894 76.015 38.75 77.25 C40.199 79.43 40.199 79.43 41.438 82.125 C41.854 83.009 42.27 83.894 42.699 84.805 C43.75 87.25 43.75 87.25 44.75 90.25 C48.102 89.817 50.813 88.808 53.836 87.375 C76.536 77.174 105.723 77.22 129.211 85.188 C158.255 97.341 181.45 117.765 193.75 147.25 C197.311 158.12 199.678 169.256 199.879 180.707 C199.901 181.681 199.924 182.655 199.947 183.658 C199.981 185.596 199.99 187.535 199.969 189.473 C200.087 196.451 201.9 199.413 206.75 204.25 C208.176 206.578 208.176 206.578 209.062 208.5 C209.368 209.145 209.674 209.789 209.988 210.453 C213.581 218.928 213.651 232.426 210.656 241.125 C207.632 247.431 203.178 254.036 196.75 257.25 C196.172 259.129 195.664 261.03 195.188 262.938 C189.767 281.133 175.807 294.911 159.539 304.055 C142.368 313.045 124.156 317.619 104.75 317.25 C104.75 317.91 104.75 318.57 104.75 319.25 C105.896 319.215 107.042 319.18 108.223 319.145 C109.753 319.116 111.283 319.089 112.812 319.062 C113.941 319.025 113.941 319.025 115.092 318.986 C120.304 318.919 124.109 319.622 128.75 322.25 C130.965 324.66 130.965 324.66 132.688 327.312 C133.274 328.19 133.861 329.068 134.465 329.973 C135.75 332.25 135.75 332.25 135.75 334.25 C136.67 334.192 137.591 334.134 138.539 334.074 C153.553 333.539 165.816 337.941 176.93 348.277 C186.794 358.57 191.25 370.724 191.086 384.773 C190.529 390.537 188.735 395.835 186.75 401.25 C188.73 401.25 190.71 401.25 192.75 401.25 C219.684 448.439 219.684 448.439 218.75 466.25 C220.4 466.58 222.05 466.91 223.75 467.25 C223.861 466.277 223.972 465.304 224.086 464.301 C224.724 459.861 226.028 455.707 227.375 451.438 C229.846 443.419 232.1 435.36 234.25 427.25 C236.509 418.743 238.895 410.297 241.476 401.883 C243.942 393.771 246.106 385.583 248.285 377.391 C249.943 371.18 251.704 365.031 253.656 358.906 C255.307 353.387 256.767 347.817 258.25 342.25 C261.893 328.576 261.893 328.576 263.75 322.75 C265.736 316.515 267.385 310.198 269.062 303.875 C271.318 295.382 273.703 286.953 276.312 278.562 C278.954 270.065 281.282 261.525 283.474 252.901 C285.52 244.935 287.855 237.076 290.303 229.225 C290.578 228.341 290.853 227.457 291.137 226.547 C291.543 225.25 291.543 225.25 291.958 223.928 C293.057 220.211 293.95 216.446 294.82 212.669 C296.009 209.577 297.115 208.285 299.75 206.25 C302.511 205.857 304.872 205.709 307.632 205.742 C308.831 205.733 308.831 205.733 310.054 205.723 C312.737 205.707 315.419 205.72 318.101 205.732 C320.023 205.727 321.945 205.72 323.867 205.711 C329.09 205.693 334.313 205.7 339.536 205.713 C345 205.723 350.464 205.713 355.928 205.707 C365.106 205.7 374.284 205.709 383.462 205.729 C394.073 205.75 404.684 205.743 415.295 205.721 C424.403 205.703 433.51 205.7 442.618 205.711 C448.058 205.717 453.499 205.718 458.939 205.705 C464.056 205.693 469.173 205.701 474.29 205.724 C476.168 205.73 478.045 205.728 479.923 205.719 C482.487 205.708 485.05 205.722 487.614 205.742 C488.357 205.733 489.099 205.724 489.864 205.715 C494.946 205.792 497.86 207.012 501.75 210.25 C505.125 216.1 505.597 221.489 504.138 227.968 C503.29 231.018 502.379 234.04 501.438 237.062 C500.815 239.11 500.194 241.159 499.574 243.207 C499.113 244.719 499.113 244.719 498.643 246.261 C497.257 250.9 496 255.572 494.75 260.25 C490.836 274.784 486.743 289.254 482.499 303.696 C480.884 309.205 479.31 314.725 477.75 320.25 C477.508 321.105 477.266 321.961 477.017 322.842 C473.678 334.665 470.406 346.502 467.25 358.375 C464.757 367.741 462.037 377.014 459.164 386.27 C457.143 392.825 455.437 399.388 453.836 406.059 C452.55 411.203 450.948 416.25 449.375 421.312 C446.317 431.169 443.644 441.091 441.082 451.086 C439.434 457.513 437.634 463.888 435.75 470.25 C435.528 470.998 435.307 471.746 435.079 472.517 C433.568 477.608 432.036 482.691 430.494 487.772 C429.777 490.159 429.083 492.551 428.395 494.945 C427.972 496.38 427.548 497.815 427.125 499.25 C426.761 500.508 426.398 501.766 426.023 503.062 C424.644 506.516 423.846 508.186 420.75 510.25 C417.856 510.541 415.371 510.632 412.5 510.5 C411.755 510.482 411.01 510.464 410.242 510.445 C408.411 510.398 406.58 510.327 404.75 510.25 C405.071 511.31 405.392 512.369 405.723 513.461 C409.176 527.377 408.833 545.57 401.75 558.25 C400.897 559.485 400.03 560.71 399.151 561.927 C398.701 562.551 398.252 563.175 397.788 563.818 C397.446 564.291 397.103 564.763 396.75 565.25 C397.57 565.26 398.39 565.271 399.234 565.281 C468.899 566.161 468.899 566.161 489.337 566.636 C490.856 566.67 492.375 566.701 493.894 566.729 C495.927 566.767 497.96 566.818 499.992 566.871 C501.074 566.896 502.155 566.921 503.269 566.947 C505.75 567.25 505.75 567.25 507.75 569.25 C507.194 573.806 507.194 573.806 505.75 575.25 C503.775 575.408 501.793 575.493 499.812 575.552 C499.16 575.571 498.507 575.591 497.835 575.611 C495.547 575.676 493.26 575.732 490.972 575.786 C489.729 575.817 489.729 575.817 488.462 575.849 C456.629 576.618 424.774 576.547 392.933 576.662 C388.352 576.679 383.771 576.696 379.19 576.714 C363.943 576.772 348.696 576.829 333.449 576.879 C332.482 576.882 331.516 576.885 330.52 576.888 C329.067 576.893 329.067 576.893 327.585 576.898 C325.623 576.905 323.661 576.911 321.7 576.917 C320.727 576.921 319.754 576.924 318.751 576.927 C302.877 576.98 287.003 577.046 271.129 577.117 C254.764 577.191 238.399 577.253 222.034 577.304 C212.871 577.333 203.708 577.366 194.545 577.413 C186.775 577.452 179.005 577.481 171.235 577.496 C167.273 577.504 163.311 577.518 159.349 577.544 C155.727 577.567 152.105 577.578 148.484 577.576 C146.546 577.579 144.609 577.597 142.671 577.616 C141.529 577.613 140.387 577.61 139.211 577.606 C138.221 577.61 137.232 577.614 136.213 577.617 C133.371 577.193 132.495 576.475 130.75 574.25 C127.695 575.361 125.288 576.558 122.562 578.375 C118.121 580.955 113.754 581.067 108.75 580.25 C104.337 578.084 101.659 575.811 99.75 571.25 C99.332 565.086 99.332 565.086 100.75 562.25 C101.635 554.564 101.635 554.564 98.625 547.75 C95.783 545.278 93.215 543.7 89.75 542.25 C89.603 542.856 89.456 543.462 89.305 544.086 C87.17 552.059 84.035 560.673 76.75 565.25 C76.09 565.25 75.43 565.25 74.75 565.25 C74.75 565.91 74.75 566.57 74.75 567.25 C82.34 567.25 89.93 567.25 97.75 567.25 C97.75 570.22 97.75 573.19 97.75 576.25 C71.533 576.39 45.317 576.496 19.1 576.561 C6.927 576.592 -5.245 576.634 -17.418 576.703 C-28.028 576.762 -38.637 576.801 -49.247 576.815 C-54.865 576.822 -60.482 576.841 -66.1 576.884 C-71.389 576.925 -76.677 576.938 -81.965 576.929 C-83.905 576.93 -85.846 576.942 -87.786 576.965 C-90.438 576.995 -93.087 576.988 -95.74 576.972 C-96.505 576.989 -97.271 577.006 -98.059 577.024 C-103.472 576.934 -106.132 575.27 -110.018 571.537 C-110.628 570.9 -110.628 570.9 -111.25 570.25 C-111.745 572.725 -111.745 572.725 -112.25 575.25 C-131.72 575.25 -151.19 575.25 -171.25 575.25 C-171.745 572.28 -171.745 572.28 -172.25 569.25 C-169.677 566.677 -168.644 566.981 -165.066 566.931 C-163.985 566.911 -162.904 566.891 -161.79 566.871 C-160.619 566.859 -159.449 566.848 -158.242 566.836 C-157.046 566.817 -155.851 566.797 -154.619 566.777 C-150.788 566.717 -146.956 566.671 -143.125 566.625 C-140.533 566.587 -137.94 566.548 -135.348 566.508 C-128.982 566.412 -122.616 566.327 -116.25 566.25 C-117.433 565.092 -117.433 565.092 -118.64 563.911 C-121.088 561.415 -122.752 559.133 -124.5 556.125 C-125 555.277 -125.5 554.429 -126.016 553.555 C-129.096 547.804 -129.261 541.013 -127.578 534.75 C-126.873 532.888 -126.071 531.064 -125.25 529.25 C-125.818 529.091 -126.387 528.933 -126.973 528.77 C-135.449 526.208 -140.716 522.956 -145.207 515.215 C-145.551 514.566 -145.895 513.918 -146.25 513.25 C-146.62 512.649 -146.99 512.049 -147.371 511.43 C-148.601 508.379 -148.514 505.716 -148.5 502.438 C-148.505 501.255 -148.51 500.073 -148.516 498.855 C-148.25 495.25 -148.25 495.25 -147.227 491.824 C-146.107 487.726 -146.197 484.064 -146.375 479.875 C-146.741 461.005 -142.219 442.346 -137.25 424.25 C-136.983 423.225 -136.716 422.2 -136.441 421.145 C-132.302 406.06 -132.302 406.06 -127.09 402.969 C-126.483 402.732 -125.876 402.494 -125.25 402.25 C-125.672 401.332 -126.093 400.414 -126.527 399.469 C-132.024 387.268 -132.024 387.268 -132.25 380.25 C-132.311 379.35 -132.371 378.45 -132.434 377.523 C-132.963 365.102 -128.824 355.877 -121.25 346.25 C-120.839 345.675 -120.428 345.1 -120.004 344.508 C-111.946 333.746 -97.033 328.236 -84.25 326.25 C-81.793 326.123 -79.334 326.018 -76.875 325.938 C-71.412 325.625 -68.869 324.961 -65.117 321.051 C-54.968 311.263 -38.576 304.257 -25.188 300.25 C-24.498 300.042 -23.808 299.834 -23.097 299.62 C-18.715 298.402 -14.78 297.738 -10.25 298.25 C-9.163 299.221 -9.163 299.221 -8.055 300.211 C-3.573 303.469 1.224 302.849 6.625 302.875 C22.476 303.067 22.476 303.067 28.75 307.25 C28.932 306.658 29.114 306.067 29.301 305.457 C30.707 301.037 32.125 297.125 34.75 293.25 C34.073 293.049 33.396 292.848 32.699 292.641 C28.665 290.738 25.793 288.039 22.562 285 C21.906 284.385 21.249 283.769 20.572 283.135 C5.109 268.24 5.109 268.24 3.75 259.25 C2.822 259.229 1.894 259.209 0.938 259.188 C-8.154 257.826 -15.275 250.964 -20.527 243.867 C-27.99 232.53 -29.721 220.659 -28.25 207.25 C-26.757 201.461 -24.796 196.258 -21.133 191.5 C-18.596 187.122 -18.596 183.411 -18.375 178.438 C-16.259 149.39 0.881 124.564 21.75 105.25 C23.401 103.897 25.063 102.557 26.75 101.25 C25.362 96.738 23.551 92.616 21.457 88.398 C20.629 85.881 20.746 84.682 21.75 82.25 C22.41 81.92 23.07 81.59 23.75 81.25 C22.112 75.758 20.08 70.674 17.625 65.492 C16.996 64.157 16.368 62.822 15.74 61.487 C15.414 60.794 15.087 60.1 14.751 59.386 C12.064 53.652 9.44 47.89 6.813 42.129 C6.135 40.644 5.455 39.16 4.774 37.676 C3.774 35.498 2.779 33.318 1.785 31.137 C1.326 30.14 1.326 30.14 0.857 29.123 C-1.25 24.478 -1.25 24.478 -1.25 22.25 C-1.902 22.38 -2.555 22.51 -3.227 22.645 C-10.227 23.749 -10.227 23.749 -13.18 22.309 C-16.146 19.836 -18.917 17.092 -19.621 13.199 C-19.743 9.034 -19.67 6.148 -17 2.812 C-11.704 -2.123 -6.78 -3.651 0 0 Z " fill="#080808" transform="translate(408.25,305.75)"/>
<path d="M0 0 C55.77 0 111.54 0 169 0 C167.875 8.996 167.875 8.996 166.73 12.664 C166.484 13.468 166.237 14.272 165.983 15.1 C165.72 15.933 165.458 16.767 165.188 17.625 C164.637 19.416 164.088 21.208 163.539 23 C163.139 24.296 163.139 24.296 162.731 25.617 C160.472 32.977 158.422 40.392 156.445 47.832 C153.371 59.391 150.178 70.878 146.63 82.301 C144.039 90.714 141.75 99.197 139.491 107.704 C137.147 116.518 134.611 125.262 132 134 C130.063 140.593 128.206 147.203 126.441 153.844 C123.622 164.45 120.754 175.018 117.5 185.5 C113.949 196.945 110.853 208.495 107.78 220.076 C106.138 226.232 104.416 232.365 102.696 238.499 C101.87 241.468 101.056 244.441 100.242 247.414 C99.62 249.672 98.997 251.93 98.375 254.188 C98.086 255.252 97.796 256.316 97.498 257.412 C96.002 262.815 94.372 267.917 92 273 C87.05 273 82.1 273 77 273 C76.697 271.912 76.394 270.824 76.082 269.703 C75.661 268.218 75.237 266.734 74.812 265.25 C74.591 264.477 74.37 263.703 74.142 262.906 C72.77 258.241 71.155 253.868 69.125 249.438 C67.54 245.862 66.698 243.614 67.438 239.75 C68.182 234.786 66.57 232.148 64 228 C63.01 228 62.02 228 61 228 C58.183 222.559 56.497 219.136 58 213 C59.682 196.888 50.355 176.942 41 164 C38.467 161.009 38.467 161.009 35 159.434 C31.343 159.441 29.599 159.484 26.75 161.938 C22.623 169.16 20.144 176.407 18.312 184.5 C18.1 185.386 17.888 186.271 17.67 187.184 C16.674 191.461 15.868 195.661 15.418 200.031 C15 204 15 204 14 206 C13.583 209.424 13.439 212.869 13.25 216.312 C13.182 217.263 13.113 218.214 13.043 219.193 C12.624 226.107 12.624 226.107 16 232 C19.994 233.997 24.659 233.515 29 233 C32.558 231.674 35.734 229.921 39 228 C40.328 227.323 41.66 226.653 43 226 C43.361 227.311 43.714 228.624 44.062 229.938 C44.26 230.668 44.457 231.399 44.66 232.152 C44.828 233.067 44.828 233.067 45 234 C44.67 234.33 44.34 234.66 44 235 C44.467 239.044 45.156 243.019 46 247 C47.65 247 49.3 247 51 247 C59.275 267.29 59.275 267.29 60 274 C50.953 275.049 41.907 275.388 32.812 275.719 C31.144 275.782 29.475 275.845 27.806 275.909 C23.427 276.076 19.047 276.239 14.668 276.401 C7.691 276.66 0.714 276.923 -6.264 277.188 C-8.668 277.278 -11.073 277.367 -13.477 277.455 C-21.179 277.743 -28.872 278.091 -36.566 278.539 C-42.446 278.879 -48.304 279.144 -54.195 279.098 C-54.925 279.096 -55.654 279.095 -56.405 279.093 C-58.645 279.088 -60.885 279.075 -63.125 279.062 C-64.681 279.057 -66.237 279.053 -67.793 279.049 C-71.529 279.038 -75.264 279.021 -79 279 C-78.049 272.888 -76.492 267.027 -74.875 261.062 C-74.564 259.908 -74.252 258.754 -73.932 257.564 C-71.667 249.248 -69.199 241.01 -66.633 232.782 C-63.956 224.091 -61.68 215.309 -59.484 206.485 C-57.897 200.174 -56.059 194.031 -53.953 187.874 C-52.491 183.464 -51.308 178.991 -50.125 174.5 C-48.219 167.378 -46.221 160.299 -44.062 153.25 C-41.726 145.605 -39.61 137.915 -37.562 130.188 C-35.071 120.787 -32.366 111.48 -29.485 102.192 C-27.442 95.567 -25.625 88.91 -23.911 82.193 C-22.308 75.986 -20.463 69.871 -18.562 63.75 C-16.154 55.982 -13.948 48.193 -11.938 40.312 C-8.465 26.703 -4.442 13.326 0 0 Z " fill="#FDFDFD" transform="translate(732,534)"/>
<path d="M0 0 C1.864 1.605 3.373 3.173 5 5 C10.768 11.037 16.78 16.542 23.348 21.699 C24.513 22.616 25.672 23.54 26.828 24.469 C43.583 37.926 61.86 49.813 82.312 56.75 C83.179 57.053 84.046 57.356 84.939 57.668 C95.856 61.432 110.027 63.682 121.133 59.188 C125.699 56.284 129.292 52.123 131 47 C132.139 36.301 130.175 29.273 125 20 C128.63 20 132.26 20 136 20 C151.762 47.143 163.162 77.106 163 109 C162.02 108.939 161.04 108.879 160.03 108.816 C138.416 107.508 116.843 106.785 95.188 106.75 C93.58 106.743 93.58 106.743 91.939 106.735 C73.959 105.424 73.959 105.424 57.88 110.793 C40.446 131.257 27.923 165.251 26 192 C25.239 192.056 24.477 192.112 23.693 192.17 C18.796 192.543 14.188 193.076 9.441 194.395 C5.214 195.443 0.918 196.169 -3.366 196.947 C-6.606 197.538 -9.82 198.139 -13 199 C-11.682 195.384 -10.061 192.47 -7.875 189.312 C6.462 167.121 15.992 136.462 16.238 110.094 C16.246 109.251 16.254 108.409 16.263 107.541 C16.277 105.763 16.287 103.984 16.295 102.206 C16.307 100.416 16.327 98.626 16.357 96.837 C16.758 72.581 10.128 50.615 -7.074 32.832 C-15.772 24.204 -25.774 19.466 -37 15 C-34.96 12.791 -33.123 11.384 -30.41 10.098 C-29.366 9.601 -29.366 9.601 -28.3 9.094 C-27.561 8.753 -26.823 8.413 -26.062 8.062 C-25.305 7.711 -24.547 7.359 -23.767 6.996 C-7.019 -0.652 -7.019 -0.652 0 0 Z " fill="#FCFCFC" transform="translate(395,615)"/>
<path d="M0 0 C5.328 2.923 10.148 6.359 14.871 10.176 C15.625 10.755 16.379 11.333 17.156 11.93 C24.383 17.831 29.792 25.41 34.871 33.176 C34.871 33.836 34.871 34.496 34.871 35.176 C33.752 35.085 33.752 35.085 32.609 34.992 C23.721 34.333 14.843 34.003 5.934 33.738 C-3.127 33.466 -12.107 32.983 -21.129 32.113 C-30.274 31.272 -39.383 30.898 -48.566 30.801 C-49.781 30.775 -50.996 30.749 -52.248 30.722 C-60.862 30.704 -66.608 32.401 -73.879 36.863 C-83.814 47.074 -82.475 60.42 -82.348 73.703 C-81.999 88.534 -80.174 105.141 -69.453 116.238 C-59.071 124.893 -44.401 126.605 -31.379 126.863 C-29.557 126.911 -29.557 126.911 -27.699 126.96 C-23.509 127.057 -19.32 127.122 -15.129 127.176 C-13.907 127.192 -13.907 127.192 -12.66 127.209 C-7.364 127.277 -2.068 127.325 3.229 127.35 C4.969 127.359 6.709 127.37 8.45 127.385 C26.855 127.987 26.855 127.987 43.871 122.176 C45.191 121.516 46.511 120.856 47.871 120.176 C47.871 126.776 47.871 133.376 47.871 140.176 C35.331 143.311 23.29 143.335 10.439 143.306 C7.576 143.301 4.713 143.306 1.85 143.312 C-13.89 143.321 -29.191 142.207 -44.754 139.863 C-45.494 139.754 -46.234 139.644 -46.996 139.532 C-56.795 138.081 -66.541 136.491 -76.217 134.344 C-80.267 133.459 -83.982 133 -88.129 133.176 C-89.944 137.803 -91.475 142.389 -92.816 147.176 C-94.463 152.617 -96.6 157.603 -99.129 162.676 C-99.627 163.681 -99.627 163.681 -100.135 164.707 C-104.956 174.109 -104.956 174.109 -109.5 176.34 C-113.593 176.084 -115.563 173.414 -118.191 170.551 C-118.708 170.016 -119.224 169.481 -119.756 168.93 C-128.129 160.162 -128.129 160.162 -128.129 157.176 C-127.067 156.812 -126.005 156.449 -124.91 156.074 C-111.764 151.453 -102.094 146.144 -95.617 133.141 C-90.612 121.568 -88.589 107.394 -92.754 95.176 C-95.359 89.189 -98.223 83.073 -103.809 79.426 C-107.153 77.202 -109.042 75.641 -111.129 72.176 C-112.14 64.528 -110.51 56.689 -109.129 49.176 C-108.991 48.386 -108.853 47.595 -108.71 46.781 C-106.063 32.36 -99.949 20.079 -90.129 9.176 C-89.599 8.565 -89.069 7.954 -88.523 7.324 C-83.211 1.579 -76.669 -2.619 -70.129 -6.824 C-69.304 -7.38 -68.479 -7.935 -67.629 -8.508 C-49.543 -19.292 -17.124 -9.036 0 0 Z " fill="#FBFBFB" transform="translate(551.12890625,407.82421875)"/>
<path d="M0 0 C4.591 0.441 8.866 1.182 13.32 2.383 C20.015 4.083 26.766 5.217 33.588 6.253 C35.603 6.559 37.616 6.876 39.629 7.193 C43.747 7.836 47.872 8.426 52 9 C52.687 9.098 53.373 9.196 54.081 9.297 C66.462 11.029 78.716 11.28 91.207 11.206 C94.392 11.187 97.577 11.185 100.762 11.186 C110.546 11.168 120.27 11.15 130 10 C129.704 24.464 122.785 35.393 112.605 45.34 C102.594 54.121 89.758 60.291 77 64 C75.469 64.447 75.469 64.447 73.906 64.902 C44.656 72.05 14.151 65.27 -11.438 50.312 C-12.071 49.944 -12.704 49.576 -13.357 49.196 C-16.598 47.206 -18.749 45.67 -20 42 C-19.481 41.394 -18.961 40.788 -18.426 40.164 C-8.488 28.224 -3.807 14.91 0 0 Z " fill="#FDFDFD" transform="translate(467,546)"/>
<path d="M0 0 C1.32 -0.012 1.32 -0.012 2.667 -0.025 C5.576 -0.05 8.484 -0.066 11.393 -0.081 C12.387 -0.086 13.381 -0.091 14.405 -0.097 C19.663 -0.123 24.92 -0.143 30.178 -0.157 C34.531 -0.171 38.883 -0.198 43.235 -0.239 C48.491 -0.289 53.748 -0.313 59.005 -0.32 C61.007 -0.327 63.01 -0.342 65.013 -0.366 C67.814 -0.398 70.613 -0.398 73.414 -0.391 C74.654 -0.415 74.654 -0.415 75.919 -0.44 C80.173 -0.394 81.803 -0.168 85.287 2.517 C87.875 6.006 87.89 8.125 87.865 12.443 C87.866 13.137 87.866 13.832 87.866 14.548 C87.86 16.017 87.843 17.486 87.814 18.955 C87.772 21.159 87.773 23.36 87.78 25.564 C87.737 34.511 86.731 42.545 84.272 51.193 C76.719 50.297 76.719 50.297 74.069 49.681 C59.673 47.168 47.612 49.358 35.334 57.255 C33.971 58.222 32.616 59.2 31.272 60.193 C30.405 60.812 29.539 61.43 28.647 62.068 C25.787 64.626 23.375 67.445 20.92 70.388 C19.272 72.193 19.272 72.193 16.272 74.193 C13.198 73.181 13.198 73.181 9.584 71.505 C7.774 70.676 5.963 69.848 4.146 69.034 C2.918 68.483 1.697 67.915 0.486 67.329 C-5.76 64.581 -11.934 64.749 -18.666 64.818 C-20.359 64.8 -20.359 64.8 -22.086 64.783 C-28.949 64.807 -34.352 65.637 -40.728 68.193 C-38.384 56.863 -35.323 45.822 -30.728 35.193 C-30.224 33.99 -29.72 32.787 -29.201 31.548 C-26.224 24.518 -23.045 17.633 -19.478 10.88 C-19.149 10.252 -18.82 9.624 -18.481 8.977 C-14.587 1.757 -14.587 1.757 -10.877 0.631 C-7.288 -0.101 -3.65 0.019 0 0 Z " fill="#FBFBFB" transform="translate(471.728271484375,730.80712890625)"/>
<path d="M0 0 C11.428 8.592 17.939 21.086 20.582 34.941 C21.783 46.081 20.461 57.64 13.27 66.629 C9.967 70.025 7.218 71.184 2.582 71.941 C2.799 71.379 3.015 70.817 3.238 70.238 C7.195 58.294 7.633 43.318 2.906 31.543 C-3.616 18.729 -12.331 10.657 -25.418 4.941 C-26.452 4.429 -26.452 4.429 -27.508 3.906 C-33.568 1.151 -39.884 1.672 -46.418 1.941 C-46.971 4.017 -47.418 5.785 -47.418 7.941 C-46.263 7.9 -45.108 7.859 -43.918 7.816 C-32.29 7.857 -21.836 13.143 -13.418 20.941 C-4.437 30.9 -0.835 41.958 -1.035 55.266 C-1.927 63.832 -5.212 71.903 -11.418 77.941 C-14.063 79.264 -16.096 79.038 -19.043 79.004 C-20.547 78.99 -20.547 78.99 -22.082 78.977 C-22.853 78.965 -23.624 78.953 -24.418 78.941 C-23.801 76.004 -22.811 73.799 -21.355 71.191 C-17.864 63.495 -18.214 53.066 -20.48 45.004 C-25.161 33.542 -34.675 26.715 -45.676 21.977 C-51.55 19.759 -57.116 18.618 -63.418 18.941 C-64.098 21.339 -64.098 21.339 -64.418 23.941 C-62.112 26.248 -60.91 26.439 -57.793 27.191 C-48.637 29.879 -43.704 34.949 -38.895 43.086 C-34.598 51.396 -32.317 61.108 -35.145 70.305 C-37.379 75.127 -40.567 79.516 -45.418 81.941 C-48.49 82.203 -50.617 82.38 -53.355 80.879 C-54.716 78.399 -54.267 76.801 -53.758 74.094 C-52.631 66.96 -52.497 59.237 -56.418 52.941 C-60.957 47.898 -66.575 43.933 -73.48 43.441 C-78.356 44.06 -79.37 45.172 -82.418 48.941 C-82.877 49.565 -83.336 50.189 -83.809 50.832 C-87.626 55.775 -87.626 55.775 -91.98 56.691 C-96.234 55.763 -97.745 54.322 -100.418 50.941 C-101.817 46.744 -102.413 43.206 -100.57 39.012 C-95.476 30.755 -88.134 23.875 -81.418 16.941 C-80.55 16.044 -79.683 15.147 -78.789 14.223 C-55.699 -9.229 -30.03 -19.02 0 0 Z " fill="#F9F9FA" transform="translate(569.41796875,797.05859375)"/>
<path d="M0 0 C7.363 4.785 12.606 10.413 17 18 C17.652 19.12 17.652 19.12 18.316 20.262 C22.535 28.92 22.386 39.462 20.082 48.668 C16.212 59.35 10.845 67.986 1 74 C-0.945 74.883 -0.945 74.883 -3 75 C-5.453 73.742 -5.453 73.742 -8.25 71.875 C-21.857 63.737 -33.758 62.355 -49.416 62.627 C-58.037 62.631 -58.037 62.631 -60.859 60.782 C-62.188 59.238 -62.188 59.238 -64 56 C-64.45 55.27 -64.9 54.541 -65.363 53.789 C-69.401 44.584 -69.51 33.702 -66.562 24.125 C-63.966 18.015 -59.711 13.578 -55 9 C-54.348 8.339 -53.695 7.677 -53.023 6.996 C-39.204 -6.169 -16.559 -9.806 0 0 Z " fill="#FCFCFC" transform="translate(354,645)"/>
<path d="M0 0 C6.412 5.334 6.412 5.334 6.898 9.699 C6.893 10.604 6.888 11.509 6.883 12.441 C6.891 13.776 6.891 13.776 6.898 15.137 C6.55 19.312 5.608 23.248 4.633 27.316 C4.25 28.988 3.867 30.66 3.484 32.332 C-2.599 58.443 -2.599 58.443 -8.367 70.316 C-9.042 69.754 -9.042 69.754 -9.73 69.18 C-15.228 64.806 -20.848 61.895 -27.367 59.316 C-28.321 58.921 -29.275 58.525 -30.258 58.117 C-44.536 52.9 -59.357 54.068 -73.367 59.316 C-74.027 59.316 -74.687 59.316 -75.367 59.316 C-75.771 49.038 -74.834 39.667 -72.8 29.609 C-72.297 26.943 -71.894 24.267 -71.48 21.586 C-70.418 15.144 -68.766 8.952 -66.93 2.691 C-66.63 1.618 -66.33 0.544 -66.021 -0.562 C-65.724 -1.585 -65.427 -2.607 -65.121 -3.66 C-64.856 -4.579 -64.591 -5.497 -64.319 -6.444 C-63.367 -8.684 -63.367 -8.684 -60.367 -10.684 C-40.541 -15.894 -16.606 -11.81 0 0 Z " fill="#FCFCFC" transform="translate(347.3671875,727.68359375)"/>
<path d="M0 0 C5.089 1.59 8.875 4.745 13 8 C11.526 14.813 9.882 21.567 8.125 28.312 C7.858 29.338 7.591 30.363 7.316 31.42 C5.774 37.271 4.058 42.99 2.051 48.699 C0.569 53.355 -0.607 58.079 -1.812 62.812 C-3.828 70.713 -6.015 78.527 -8.438 86.312 C-11.398 95.83 -14.06 105.409 -16.603 115.046 C-18.283 121.405 -20.08 127.71 -22 134 C-23.433 138.814 -24.84 143.637 -26.252 148.457 C-27.053 151.181 -27.861 153.903 -28.668 156.625 C-31.63 166.65 -34.479 176.683 -37.062 186.812 C-39.042 194.573 -41.269 202.194 -43.752 209.807 C-45.714 215.9 -47.361 222.047 -48.938 228.25 C-51.701 239.121 -54.927 249.816 -58.242 260.529 C-59.918 265.994 -61.465 271.494 -63 277 C-63.214 277.768 -63.429 278.537 -63.649 279.329 C-65.105 284.551 -66.555 289.775 -68 295 C-74.625 295.242 -74.625 295.242 -78 293.062 C-80.731 288.881 -79.872 285.685 -79 281 C-78.082 277.129 -76.992 273.318 -75.875 269.5 C-75.241 267.285 -74.607 265.07 -73.973 262.855 C-73.647 261.725 -73.321 260.595 -72.985 259.431 C-71.397 253.9 -69.857 248.356 -68.312 242.812 C-61.713 219.236 -61.713 219.236 -59.062 210.812 C-57.446 205.618 -56.04 200.392 -54.688 195.125 C-52.859 188.018 -50.808 181.006 -48.625 174 C-46.009 165.576 -43.674 157.111 -41.5 148.562 C-37.859 134.253 -33.772 120.097 -29.473 105.973 C-28.981 104.357 -28.491 102.741 -28 101.125 C-27.758 100.328 -27.516 99.531 -27.267 98.71 C-24.894 90.804 -22.792 82.828 -20.678 74.849 C-18.753 67.638 -16.661 60.499 -14.438 53.375 C-11.657 44.451 -9.284 35.471 -7.069 26.391 C-5.448 19.747 -3.696 13.171 -1.762 6.609 C-1.121 4.415 -0.534 2.222 0 0 Z " fill="#F8F8F8" transform="translate(712,522)"/>
<path d="M0 0 C7.485 5.994 11.868 12.378 14.922 21.539 C15.816 31.736 16.276 42.51 10.922 51.539 C10.365 52.57 9.808 53.602 9.234 54.664 C2.78 62.688 -4.415 68.815 -14.852 69.949 C-24.28 70.451 -31.824 69.204 -39.062 62.777 C-47.923 53.444 -50.7 43.069 -50.418 30.465 C-49.505 19.915 -43.846 10.82 -36.133 3.758 C-26.081 -4.284 -11.35 -7.638 0 0 Z " fill="#F7F7F7" transform="translate(438.078125,487.4609375)"/>
<path d="M0 0 C10.577 3.08 21.316 3.331 32.25 3.188 C33.588 3.177 34.926 3.168 36.264 3.16 C39.488 3.137 42.713 3.104 45.938 3.062 C45.014 5.93 44.078 8.739 42.876 11.503 C39.439 19.553 39.469 27.119 39.688 35.75 C39.708 37.145 39.726 38.54 39.742 39.936 C39.789 43.312 39.854 46.687 39.938 50.062 C32.343 50.318 24.75 50.492 17.153 50.612 C14.574 50.662 11.995 50.73 9.417 50.817 C-15.454 51.635 -15.454 51.635 -23.125 45.34 C-29.061 39.722 -33.154 33.683 -33.562 25.375 C-33.063 17.896 -29.509 12.017 -24.062 7.062 C-9.925 -3.038 -9.925 -3.038 0 0 Z " fill="#FDFDFD" transform="translate(323.0625,822.9375)"/>
<path d="M0 0 C4.396 14.416 5.08 27.384 -2 41 C-3.535 43.701 -4.556 44.973 -7 47 C-9.875 46.938 -9.875 46.938 -13 46 C-19.196 44.876 -25.335 44.783 -31.621 44.684 C-32.721 44.663 -33.821 44.642 -34.954 44.621 C-38.449 44.556 -41.943 44.496 -45.438 44.438 C-47.814 44.394 -50.191 44.351 -52.568 44.307 C-58.379 44.2 -64.189 44.098 -70 44 C-69.368 42.879 -69.368 42.879 -68.723 41.734 C-68.175 40.75 -67.627 39.765 -67.062 38.75 C-66.245 37.288 -66.245 37.288 -65.41 35.797 C-61.733 28.503 -61.795 18.153 -63.637 10.277 C-64.485 7.97 -64.485 7.97 -66 5 C-66.33 4.01 -66.66 3.02 -67 2 C-60.994 1.708 -54.989 1.424 -48.982 1.146 C-46.95 1.05 -44.918 0.953 -42.886 0.854 C-28.579 0.16 -14.324 -0.127 0 0 Z " fill="#FBFBFB" transform="translate(795,817)"/>
<path d="M0 0 C0.712 -0.006 1.424 -0.011 2.158 -0.017 C9.213 0.079 15.473 1.718 22 4.438 C22.856 4.791 23.712 5.144 24.594 5.508 C25.223 5.773 25.852 6.039 26.5 6.312 C24.848 7.414 23.179 8.494 21.449 9.469 C13.76 14.037 10.169 19.76 7.125 28.062 C5.116 38.295 5.528 49.458 10.824 58.598 C13.799 62.899 16.5 65.408 21.5 67.312 C15.419 71.366 11.217 72.752 4.039 72.605 C3.248 72.601 2.458 72.597 1.643 72.593 C-0.863 72.576 -3.369 72.538 -5.875 72.5 C-7.582 72.485 -9.289 72.471 -10.996 72.459 C-15.164 72.426 -19.332 72.374 -23.5 72.312 C-26.449 66.823 -28.455 61.774 -29.75 55.688 C-29.918 54.906 -30.087 54.124 -30.26 53.318 C-33.094 39.228 -32.679 24.295 -25.199 11.727 C-18.762 2.581 -10.747 0.081 0 0 Z " fill="#FBFBFB" transform="translate(450.5,802.6875)"/>
<path d="M0 0 C4.301 5.057 6.84 10.594 9.375 16.688 C9.758 17.597 10.141 18.506 10.535 19.442 C13.191 25.838 15.673 32.289 18 38.812 C18.291 39.617 18.581 40.422 18.88 41.251 C20.591 46.19 21.525 50.792 22 56 C20.9 56.17 19.801 56.34 18.668 56.516 C4.391 58.815 -8.555 62.589 -20.312 71.438 C-23 73 -23 73 -26.312 72.812 C-29 72 -29 72 -30 71 C-30.235 63.706 -30.235 63.706 -29 60 C-27.303 48.561 -27.889 36.78 -27.938 25.25 C-27.943 23.185 -27.947 21.12 -27.951 19.055 C-27.962 14.036 -27.979 9.018 -28 4 C-26.724 3.795 -25.448 3.59 -24.133 3.379 C-22.464 3.107 -20.794 2.835 -19.125 2.562 C-18.283 2.428 -17.441 2.293 -16.574 2.154 C-15.769 2.022 -14.963 1.89 -14.133 1.754 C-13.389 1.633 -12.646 1.513 -11.879 1.389 C-2.443 -0.564 -2.443 -0.564 0 0 Z " fill="#FBFBFB" transform="translate(596,716)"/>
<path d="M0 0 C-0.309 1.626 -0.622 3.251 -0.938 4.875 C-1.112 5.78 -1.286 6.685 -1.465 7.617 C-2 10 -2 10 -3 12 C-3.246 15.786 -3.19 19.582 -3.188 23.375 C-3.187 24.466 -3.186 25.557 -3.185 26.681 C-3.12 38.874 -3.12 38.874 0.07 50.551 C1 53 1 53 1 57 C-14.18 57 -29.36 57 -45 57 C-47.499 43.256 -49.734 28.855 -43 16 C-42.611 15.145 -42.221 14.291 -41.82 13.41 C-39.907 9.828 -38.439 7.496 -34.508 6.141 C-32.515 5.827 -30.512 5.582 -28.504 5.391 C-24.397 4.933 -20.552 3.987 -16.562 2.938 C-5.253 0 -5.253 0 0 0 Z " fill="#FBFBFB" transform="translate(416,817)"/>
<path d="M0 0 C6.348 3.567 10.415 8.788 12.398 15.789 C13.951 24.417 13.966 32.529 9.504 40.246 C5.535 45.585 0.152 50.807 -6.641 51.809 C-12.351 51.947 -16.621 51.585 -21.336 48.199 C-27.423 42.206 -30.227 35.201 -30.438 26.812 C-30.335 17.464 -26.773 9.086 -20.125 2.438 C-13.786 -2.218 -7.214 -3.168 0 0 Z " fill="#0E0D0E" transform="translate(421.125,494.5625)"/>
<path d="M0 0 C-0.641 0.436 -1.281 0.871 -1.941 1.32 C-18.633 12.813 -32.529 28.48 -36.383 49.043 C-36.59 50.362 -36.796 51.681 -37 53 C-37.351 55.121 -37.702 57.242 -38.055 59.363 C-39.073 65.57 -40.049 71.783 -41 78 C-42.195 77.965 -43.39 77.93 -44.621 77.895 C-56.623 77.567 -56.623 77.567 -68 81 C-69.516 81.588 -69.516 81.588 -71.062 82.188 C-72.022 82.59 -72.022 82.59 -73 83 C-74.699 63.976 -62.342 43.38 -50.727 29.23 C-39.681 16.495 -25.309 7.785 -9.812 1.438 C-9.177 1.174 -8.541 0.91 -7.886 0.638 C-3.373 -1.124 -3.373 -1.124 0 0 Z " fill="#F8F8F9" transform="translate(475,399)"/>
<path d="M0 0 C10.23 0 20.46 0 31 0 C35.318 7.557 36.222 11.22 36.375 19.625 C36.431 20.76 36.431 20.76 36.488 21.918 C36.602 29.37 34.759 31.483 31 39 C21.76 39.33 12.52 39.66 3 40 C2.34 42.31 1.68 44.62 1 47 C2.202 47.008 3.404 47.016 4.642 47.025 C15.972 47.102 27.301 47.19 38.631 47.288 C44.455 47.337 50.28 47.384 56.104 47.422 C61.726 47.459 67.348 47.505 72.969 47.558 C75.113 47.577 77.257 47.592 79.402 47.603 C82.406 47.62 85.41 47.649 88.415 47.681 C89.3 47.683 90.185 47.685 91.098 47.688 C95.789 47.751 99.588 48.199 104 50 C104 50.66 104 51.32 104 52 C57.8 52 11.6 52 -36 52 C-34.419 48.838 -32.233 48.22 -29 47 C-26.978 47.597 -24.98 48.276 -23 49 C-16.176 49.839 -10.596 49.133 -5 45 C1.329 39.255 4.641 33.563 5.312 25.031 C5.636 16.79 5.246 10.265 1 3 C0.505 1.515 0.505 1.515 0 0 Z " fill="#FBFBFB" transform="translate(678,821)"/>
<path d="M0 0 C1.126 0.013 1.126 0.013 2.275 0.027 C15.232 0.294 27.132 2.709 37.316 11.312 C40.892 15.126 42.019 16.981 41.875 22.25 C41.241 22.224 40.607 22.198 39.954 22.171 C21.733 21.517 10.309 23.416 -4.125 35.25 C-4.633 35.825 -5.141 36.4 -5.664 36.992 C-7.125 38.25 -7.125 38.25 -9.176 38.5 C-14.897 37.868 -18.062 36.596 -22.125 32.25 C-26.411 26.836 -26.806 22.133 -26.57 15.281 C-25.89 10.653 -24.724 9.236 -21.125 6.25 C-14.467 1.62 -8.042 -0.108 0 0 Z " fill="#F9F9F9" transform="translate(294.125,789.75)"/>
<path d="M0 0 C11.286 -0.74 19.656 3.025 28.551 9.852 C35.403 15.863 40.46 23.689 41.142 32.928 C41.983 51.726 41.983 51.726 37 59 C33.652 62.332 29.747 62.91 25.25 63.688 C24.553 63.817 23.855 63.947 23.137 64.08 C21.426 64.396 19.713 64.7 18 65 C17.797 63.287 17.797 63.287 17.59 61.539 C14.861 40.339 9.597 19.193 0 0 Z " fill="#F9F9F9" transform="translate(549,648)"/>
<path d="M0 0 C1.504 0.014 1.504 0.014 3.039 0.027 C3.81 0.039 4.581 0.051 5.375 0.062 C5.375 0.722 5.375 1.383 5.375 2.062 C4.715 2.062 4.055 2.062 3.375 2.062 C12.508 14.058 29.668 20.405 43.688 24.875 C44.333 25.082 44.979 25.289 45.644 25.503 C57.75 29.181 73.665 30.583 85.375 25.062 C87.629 22.603 87.629 22.603 88.375 20.062 C90.942 21.055 92.166 21.727 93.641 24.094 C96.424 31.074 98.077 37.712 95.25 44.938 C92.354 48.22 89.766 50.562 85.359 51.484 C55.951 53.285 21.472 27.936 0.375 10.062 C-0.322 9.498 -1.02 8.933 -1.738 8.352 C-6.499 4.44 -6.499 4.44 -7.625 1.062 C-4.98 -0.26 -2.947 -0.034 0 0 Z " fill="#F8F8F8" transform="translate(421.625,616.9375)"/>
<path d="M0 0 C23.009 -0.093 46.018 -0.164 69.027 -0.207 C79.71 -0.228 90.393 -0.256 101.076 -0.302 C110.385 -0.342 119.695 -0.367 129.005 -0.376 C133.936 -0.382 138.867 -0.394 143.797 -0.423 C148.437 -0.45 153.075 -0.458 157.715 -0.452 C159.419 -0.454 161.123 -0.462 162.828 -0.477 C165.152 -0.497 167.475 -0.492 169.799 -0.481 C171.752 -0.487 171.752 -0.487 173.744 -0.492 C177 0 177 0 179.45 1.78 C181 4 181 4 181 8 C158.73 8.164 136.459 8.287 114.188 8.363 C103.847 8.399 93.506 8.448 83.165 8.528 C74.15 8.598 65.136 8.643 56.12 8.659 C51.348 8.668 46.577 8.689 41.805 8.74 C37.31 8.788 32.815 8.802 28.319 8.792 C26.673 8.794 25.027 8.808 23.381 8.834 C14.66 8.97 8.148 8.85 1.378 2.601 C0 1 0 1 0 0 Z " fill="#EEEFEF" transform="translate(723,519)"/>
<path d="M0 0 C1.229 0.001 1.229 0.001 2.482 0.002 C8.531 0.047 8.531 0.047 10.812 1.188 C10.778 2.14 10.743 3.093 10.707 4.074 C10.666 5.956 10.666 5.956 10.625 7.875 C10.59 9.116 10.555 10.358 10.52 11.637 C10.953 16.893 12.528 19.08 16.477 22.484 C20.633 24.607 23.614 24.653 28.188 24.438 C28.924 24.419 29.66 24.401 30.418 24.383 C32.217 24.336 34.015 24.264 35.812 24.188 C36.461 25.457 37.106 26.728 37.75 28 C38.289 29.062 38.289 29.062 38.84 30.145 C42.109 37.011 42.146 46.706 39.977 53.996 C38.777 56.318 37.495 58.189 35.812 60.188 C35.231 60.878 34.65 61.569 34.051 62.281 C31.222 65.173 29.138 66.98 25.074 67.617 C22.611 67.624 20.254 67.503 17.812 67.188 C18.462 65.989 18.462 65.989 19.125 64.766 C23.54 56.059 25.439 49.224 23.215 39.602 C19.325 28.13 10.465 19.514 -0.188 14.188 C-6.898 13.665 -12.315 13.574 -18.188 17.188 C-19.178 17.188 -20.168 17.188 -21.188 17.188 C-24.233 11.828 -24.233 11.828 -24.043 9.148 C-22.877 6.476 -21.507 5.881 -18.938 4.562 C-18.169 4.158 -17.401 3.753 -16.609 3.336 C-15.411 2.767 -15.411 2.767 -14.188 2.188 C-13.454 1.812 -12.721 1.437 -11.965 1.051 C-7.964 -0.193 -4.162 -0.063 0 0 Z " fill="#F8F8F8" transform="translate(613.1875,798.8125)"/>
<path d="M0 0 C4.098 0.058 6.513 0.568 9.75 3.25 C14.928 9.147 15.103 12.937 15.023 20.695 C14.521 27.222 12.093 31.209 7.5 35.75 C4.919 37.767 2.967 38.706 -0.312 38.938 C-5.125 38.097 -6.966 36.84 -10.25 33.25 C-14.363 26.67 -14.445 18.513 -12.746 11.031 C-11.163 6.907 -8.495 4.154 -5.25 1.25 C-3.69 -0.31 -2.161 0.043 0 0 Z " fill="#FBFBFB" transform="translate(411.25,500.75)"/>
<path d="M0 0 C3.062 0.562 3.062 0.562 5.25 2.5 C11.315 12.749 11.61 24.268 8.812 35.75 C7.716 39.717 6.207 41.887 3.062 44.562 C0.625 45.188 0.625 45.188 -1.938 44.562 C-7.119 39.622 -8.923 34.446 -9.238 27.258 C-9.257 25.734 -9.261 24.211 -9.25 22.688 C-9.247 21.894 -9.243 21.1 -9.24 20.283 C-9.111 13.355 -7.812 8.223 -4.625 2 C-2.938 0.562 -2.938 0.562 0 0 Z " fill="#050505" transform="translate(579.9375,472.4375)"/>
<path d="M0 0 C4.452 4.071 5.691 9.39 6.19 15.223 C6.267 17.506 6.273 19.778 6.25 22.062 C6.258 22.826 6.265 23.59 6.273 24.377 C6.251 31.001 5.335 37.736 1 43 C-1.875 44.188 -1.875 44.188 -5 44 C-10.664 39.126 -12.591 32.532 -13.25 25.227 C-13.453 16.164 -12.059 8.588 -7 1 C-4.379 -0.311 -2.908 -0.415 0 0 Z " fill="#040404" transform="translate(528,472)"/>
<path d="M0 0 C5.158 2.322 7.585 6.601 9.938 11.562 C13.52 21.149 13.092 30.2 9.207 39.617 C6.798 44.372 4.046 47.928 -1 50 C-5.298 50.661 -8.871 50.59 -12.75 48.562 C-21.02 39.143 -21.738 29.164 -21 17 C-19.856 10.388 -16.884 5.571 -12 1 C-8.222 -0.889 -4.106 -0.61 0 0 Z M-13 7 C-17.735 14.891 -18.135 24.779 -16.504 33.719 C-15.048 39.182 -13.329 43.275 -9 47 C-5.878 47.494 -5.878 47.494 -3 46 C3.844 38.046 2.695 25.957 2 16 C1.123 11.302 -0.327 6.249 -4 3 C-8.489 2.079 -10.26 3.529 -13 7 Z " fill="#EDEDED" transform="translate(532,469)"/>
<path d="M0 0 C8.74 3.52 13.914 14.045 17.809 22.078 C22.826 34.383 22.641 47.177 17.763 59.448 C13.22 69.719 4.44 78.17 -5.75 82.875 C-9 84 -9 84 -13 84 C-13.33 82.68 -13.66 81.36 -14 80 C-12.845 79.484 -11.69 78.969 -10.5 78.438 C-0.32 73.276 5.641 65.24 9.812 54.75 C14.367 40.368 12.936 24.74 6.211 11.309 C4.561 8.155 2.796 5.073 1 2 C0.67 1.34 0.34 0.68 0 0 Z " fill="#F3F3F3" transform="translate(376,650)"/>
<path d="M0 0 C4.384 -0.342 8.626 -0.526 13 0 C15.688 2.688 15.688 2.688 17 6 C17.348 6.745 17.696 7.49 18.055 8.258 C20.573 15.563 20.104 24.732 16.812 31.688 C14.297 35.989 11.477 38.761 7 41 C5.293 41.07 3.583 41.084 1.875 41.062 C0.965 41.053 0.055 41.044 -0.883 41.035 C-1.581 41.024 -2.28 41.012 -3 41 C-2.053 38.569 -1.094 36.188 0.07 33.852 C5.233 22.952 3.884 11.119 0 0 Z " fill="#F9F9F9" transform="translate(658,823)"/>
<path d="M0 0 C0.66 0.66 1.32 1.32 2 2 C1.34 4.31 0.68 6.62 0 9 C1.202 9.008 2.404 9.016 3.642 9.025 C14.972 9.102 26.301 9.19 37.631 9.288 C43.455 9.337 49.28 9.384 55.104 9.422 C60.726 9.459 66.348 9.505 71.969 9.558 C74.113 9.577 76.257 9.592 78.402 9.603 C81.406 9.62 84.41 9.649 87.415 9.681 C88.3 9.683 89.185 9.685 90.098 9.688 C94.789 9.751 98.588 10.199 103 12 C103 12.66 103 13.32 103 14 C56.8 14 10.6 14 -37 14 C-35.419 10.838 -33.233 10.22 -30 9 C-27.978 9.597 -25.98 10.276 -24 11 C-17.206 11.835 -11.574 11.133 -6 7 C-3.798 4.803 -1.852 2.497 0 0 Z " fill="#F0F0F0" transform="translate(679,859)"/>
<path d="M0 0 C0.65 -0.003 1.301 -0.007 1.971 -0.01 C4.131 -0.02 6.291 -0.022 8.451 -0.023 C9.947 -0.026 11.443 -0.029 12.939 -0.033 C16.079 -0.039 19.219 -0.041 22.359 -0.04 C26.389 -0.04 30.418 -0.054 34.448 -0.071 C37.539 -0.082 40.63 -0.084 43.721 -0.083 C45.207 -0.085 46.693 -0.089 48.179 -0.097 C50.255 -0.107 52.33 -0.104 54.406 -0.098 C55.589 -0.099 56.772 -0.101 57.99 -0.102 C60.768 0.145 60.768 0.145 62.768 2.145 C62.212 6.701 62.212 6.701 60.768 8.145 C58.693 8.25 56.614 8.284 54.536 8.291 C53.885 8.294 53.235 8.297 52.565 8.301 C50.405 8.31 48.244 8.312 46.084 8.313 C44.588 8.316 43.092 8.32 41.596 8.323 C38.457 8.329 35.317 8.331 32.177 8.331 C28.147 8.33 24.117 8.344 20.087 8.361 C16.997 8.372 13.906 8.374 10.815 8.374 C9.329 8.375 7.843 8.38 6.357 8.387 C4.281 8.397 2.205 8.394 0.129 8.388 C-1.645 8.39 -1.645 8.39 -3.455 8.393 C-6.232 8.145 -6.232 8.145 -8.232 6.145 C-7.458 -0.203 -6.128 0.02 0 0 Z " fill="#0D0D0E" transform="translate(743.232177734375,579.854736328125)"/>
<path d="M0 0 C4.861 1.241 8.447 3.483 11.234 7.723 C15.87 16.709 16.412 27.256 14.184 37.07 C12.202 42.774 10.075 47.969 4.625 51.062 C0.039 52.236 -3.494 52.589 -7.75 50.312 C-15.418 41.816 -15.749 30.561 -15.233 19.683 C-14.644 13.003 -11.956 8.22 -7.188 3.625 C-4.636 1.635 -3.182 0.779 0 0 Z M-7.875 8.438 C-12.808 16.915 -12.18 29.36 -10.531 38.789 C-9.261 42.919 -7.743 46.26 -4.062 48.75 C-1.562 49.417 -1.562 49.417 0.938 48.75 C6.767 43.821 7.614 37.415 8.262 30.082 C8.51 21.693 8.089 12.748 2.48 5.996 C0.876 4.517 0.876 4.517 -1.938 4.062 C-5.592 4.866 -5.91 5.419 -7.875 8.438 Z " fill="#EBECEC" transform="translate(582.0625,468.25)"/>
<path d="M0 0 C0.737 0.001 1.475 0.001 2.234 0.002 C6.065 0.033 9.652 0.268 13.375 1.188 C13.26 2.626 13.133 4.063 13 5.5 C12.93 6.301 12.861 7.101 12.789 7.926 C12.375 10.188 12.375 10.188 10.375 13.188 C8.379 13.48 8.379 13.48 5.938 13.375 C5.042 13.352 4.146 13.329 3.223 13.305 C1.355 13.228 -0.512 13.15 -2.379 13.07 C-12.051 12.823 -19.553 15.083 -27.617 20.395 C-29.625 21.188 -29.625 21.188 -31.742 20.418 C-33.793 19.078 -35.763 17.784 -37.625 16.188 C-37.625 15.528 -37.625 14.867 -37.625 14.188 C-35.298 12.609 -32.986 11.164 -30.562 9.75 C-29.906 9.355 -29.249 8.96 -28.572 8.553 C-19.422 3.135 -10.678 -0.179 0 0 Z " fill="#F3F3F3" transform="translate(615.625,779.8125)"/>
<path d="M0 0 C1.298 -0.003 2.596 -0.006 3.933 -0.01 C5.361 -0.008 6.789 -0.006 8.217 -0.003 C9.67 -0.004 11.124 -0.005 12.577 -0.006 C15.627 -0.008 18.677 -0.006 21.727 -0.001 C25.645 0.005 29.563 0.001 33.48 -0.005 C36.483 -0.008 39.485 -0.007 42.488 -0.004 C43.933 -0.004 45.378 -0.005 46.823 -0.007 C48.839 -0.009 50.855 -0.005 52.871 0 C54.595 0.001 54.595 0.001 56.354 0.002 C58.936 0.129 58.936 0.129 59.936 1.129 C60.123 3.567 60.123 3.567 59.936 6.129 C57.216 8.848 55.761 8.383 51.957 8.388 C50.702 8.394 49.448 8.401 48.155 8.407 C46.78 8.404 45.404 8.4 44.029 8.395 C42.624 8.396 41.22 8.398 39.815 8.401 C36.869 8.404 33.924 8.399 30.978 8.39 C27.198 8.379 23.419 8.385 19.639 8.397 C16.737 8.405 13.836 8.402 10.935 8.397 C9.541 8.396 8.147 8.397 6.753 8.402 C4.807 8.407 2.86 8.398 0.914 8.388 C-0.195 8.387 -1.303 8.385 -2.446 8.383 C-5.064 8.129 -5.064 8.129 -7.064 6.129 C-7.252 3.567 -7.252 3.567 -7.064 1.129 C-5.25 -0.685 -2.44 0.002 0 0 Z " fill="#0F0F0F" transform="translate(735.064453125,614.87060546875)"/>
<path d="M0 0 C3.437 1.343 6.784 2.809 10.125 4.375 C15.646 6.897 21.238 9.093 27 11 C27.976 11.344 28.952 11.688 29.957 12.043 C35.783 13.68 41.93 13.741 47.938 14.125 C49.822 14.255 49.822 14.255 51.744 14.387 C54.829 14.598 57.914 14.802 61 15 C60.427 17.867 60.139 18.861 58 21 C43.714 26.123 23.168 20.138 10.124 14.137 C6.037 12.177 2.01 10.112 -2 8 C-1.477 5.237 -0.891 2.674 0 0 Z " fill="#F1F1F1" transform="translate(443,617)"/>
<path d="M0 0 C2.5 0.25 2.5 0.25 4.5 2.25 C5.596 8.436 2.315 13.145 -0.562 18.375 C-1.316 19.769 -1.316 19.769 -2.084 21.19 C-3.087 23.037 -4.096 24.881 -5.111 26.722 C-6.302 28.889 -7.464 31.068 -8.613 33.258 C-9.485 34.863 -9.485 34.863 -10.375 36.5 C-10.867 37.413 -11.36 38.325 -11.867 39.266 C-13.5 41.25 -13.5 41.25 -16.195 42.047 C-16.956 42.114 -17.716 42.181 -18.5 42.25 C-19.831 37.815 -19.097 35.358 -17.332 31.137 C-16.61 29.388 -16.61 29.388 -15.873 27.604 C-15.358 26.394 -14.843 25.184 -14.312 23.938 C-13.569 22.14 -13.569 22.14 -12.811 20.307 C-4.53 0.453 -4.53 0.453 0 0 Z " fill="#0D0D0D" transform="translate(829.5,444.75)"/>
<path d="M0 0 C5.455 0.455 5.455 0.455 8 3 C8.064 5.658 7.996 8.169 7.812 10.812 C7.764 11.595 7.716 12.377 7.666 13.183 C6.989 22.855 5.513 32.429 4 42 C2.344 42.382 0.675 42.714 -1 43 C-3.118 40.882 -2.164 36.154 -2.168 33.223 C-2.171 32.341 -2.175 31.459 -2.178 30.551 C-2.183 28.682 -2.185 26.813 -2.185 24.945 C-2.187 22.078 -2.206 19.212 -2.225 16.346 C-2.228 14.534 -2.23 12.722 -2.23 10.91 C-2.238 10.049 -2.245 9.187 -2.252 8.3 C-2.229 2.229 -2.229 2.229 0 0 Z " fill="#0C0C0C" transform="translate(782,441)"/>
<path d="M0 0 C2.56 0.337 2.56 0.337 4.158 1.742 C4.605 2.396 5.052 3.05 5.513 3.723 C6.016 4.455 6.519 5.186 7.038 5.94 C9.581 9.946 11.98 14.016 14.31 18.149 C15.262 19.823 16.215 21.496 17.169 23.169 C17.581 23.898 17.993 24.627 18.418 25.379 C19.403 27.069 20.474 28.709 21.56 30.337 C21.185 32.524 21.185 32.524 20.56 34.337 C17.34 34.034 15.86 33.624 13.489 31.36 C12.811 30.486 12.133 29.612 11.435 28.712 C10.67 27.727 9.906 26.742 9.118 25.727 C8.711 25.187 8.303 24.646 7.883 24.089 C6.451 22.193 4.992 20.321 3.532 18.446 C2.519 17.119 1.507 15.791 0.497 14.462 C0.008 13.832 -0.482 13.202 -0.986 12.553 C-2.974 9.882 -4.363 7.84 -4.874 4.516 C-4.236 1.308 -3.22 0.444 0 0 Z " fill="#0D0D0E" transform="translate(731.4404296875,454.663330078125)"/>
<path d="M0 0 C0.62 0.291 1.24 0.583 1.879 0.883 C4.907 2.284 7.951 3.644 11 5 C12.076 5.492 13.153 5.985 14.262 6.492 C27.231 12.098 41.079 14.817 55 17 C54.505 18.485 54.505 18.485 54 20 C34.641 21.32 15.17 15.78 -1 5 C-0.67 3.35 -0.34 1.7 0 0 Z " fill="#E5E5E5" transform="translate(448,606)"/>
<path d="M0 0 C0.99 0.66 1.98 1.32 3 2 C1.316 5.757 1.316 5.757 -0.625 7.25 C-2.511 9.65 -2.587 11.876 -2.504 14.867 C-1.713 18.217 0.294 20.172 2.688 22.555 C4 24 4 24 4 26 C-3.973 26.782 -3.973 26.782 -7.875 23.812 C-8.576 22.884 -9.278 21.956 -10 21 C-10.598 20.216 -11.196 19.433 -11.812 18.625 C-13.394 15.128 -13.467 12.806 -13 9 C-9.941 3.319 -6.851 -0.878 0 0 Z " fill="#F2F2F2" transform="translate(622,828)"/>
<path d="M0 0 C2.369 2.132 3.566 3.898 4.648 6.887 C4.929 7.653 5.21 8.418 5.499 9.208 C5.788 10.026 6.077 10.844 6.375 11.688 C6.679 12.532 6.983 13.376 7.296 14.246 C14.791 35.284 23.702 60.921 13.512 82.586 C11.367 86.011 9.133 88.45 6 91 C5.34 90.67 4.68 90.34 4 90 C4.398 89.443 4.797 88.886 5.207 88.312 C10.181 81.148 13.256 74.78 14 66 C14.097 64.921 14.097 64.921 14.195 63.82 C14.937 47.939 9.848 29.647 4 15 C3.262 13.087 2.533 11.17 1.812 9.25 C1.468 8.348 1.124 7.445 0.77 6.516 C0 4 0 4 0 0 Z " fill="#CFD0D0" transform="translate(790,778)"/>
<path d="M0 0 C5.629 8.444 6.564 18.085 5 28 C3.659 32.338 1.46 36.2 -1 40 C-1.33 40 -1.66 40 -2 40 C-1.847 38.846 -1.693 37.693 -1.535 36.504 C-0.739 29.341 -0.639 22.137 -0.438 14.938 C-0.394 13.485 -0.351 12.033 -0.307 10.58 C-0.201 7.053 -0.099 3.527 0 0 Z " fill="#EEEEEE" transform="translate(608,513)"/>
<path d="M0 0 C1.938 1.062 1.938 1.062 3 3 C3.438 6.5 3.438 6.5 3 10 C0.777 12.65 -0.646 12.949 -4.062 13.438 C-7 13 -7 13 -8.875 11.375 C-10.314 8.337 -10.425 6.326 -10 3 C-7.721 -1.023 -4.212 -0.451 0 0 Z " fill="#0A0A0A" transform="translate(324,664)"/>
<path d="M0 0 C0.99 0 1.98 0 3 0 C3.847 2.016 4.693 4.031 5.54 6.047 C6.267 7.774 6.995 9.499 7.726 11.224 C9.425 15.24 11.113 19.257 12.727 23.309 C12.986 23.948 13.246 24.587 13.513 25.246 C14.21 26.964 14.894 28.687 15.578 30.41 C17.114 33.207 18.031 33.978 21 35 C18.36 35.99 15.72 36.98 13 38 C12.592 36.521 12.592 36.521 12.176 35.012 C10.997 30.89 9.619 26.853 8.188 22.812 C7.798 21.706 7.798 21.706 7.4 20.578 C5.424 15.038 3.24 9.612 0.883 4.223 C0 2 0 2 0 0 Z " fill="#E8E8E8" transform="translate(772,735)"/>
<path d="M0 0 C3.126 -0.399 5.145 -0.469 7.938 1.062 C9.649 4.183 8.793 6.645 8 10 C6 12 6 12 3.562 12.312 C1 12 1 12 -0.812 10.875 C-2.535 8.155 -2.329 6.154 -2 3 C-1.34 2.01 -0.68 1.02 0 0 Z " fill="#0E0E0E" transform="translate(571,665)"/>
<path d="M0 0 C3.81 1.27 4.176 2.511 6 6 C9.718 13.871 8.999 23.135 6.125 31.188 C4.946 34.099 3.754 36.369 2 39 C1.34 39 0.68 39 0 39 C2 33 2 33 3.047 30.207 C5.686 21.325 4.451 12.504 0.875 4.109 C0 2 0 2 0 0 Z " fill="#E0E0E1" transform="translate(717,820)"/>
<path d="M0 0 C0.33 0 0.66 0 1 0 C2.204 26.125 2.204 26.125 -5.668 36.117 C-7.312 37.812 -7.312 37.812 -10 40 C-10.66 39.67 -11.32 39.34 -12 39 C-11.602 38.443 -11.203 37.886 -10.793 37.312 C-10.263 36.549 -9.733 35.786 -9.188 35 C-8.665 34.258 -8.143 33.515 -7.605 32.75 C-3.46 25.65 -2.445 19.133 -1.875 11.062 C-1.73 9.178 -1.582 7.294 -1.43 5.41 C-1.341 4.175 -1.341 4.175 -1.25 2.914 C-1 1 -1 1 0 0 Z " fill="#E2E2E2" transform="translate(806,829)"/>
<path d="M0 0 C2.875 0.75 2.875 0.75 3.875 1.75 C4.062 5.188 4.062 5.188 3.875 8.75 C1.875 10.75 1.875 10.75 -1.125 11.062 C-2.115 10.959 -3.105 10.856 -4.125 10.75 C-6.28 7.517 -6.594 6.498 -6.125 2.75 C-4.319 -0.259 -3.536 -0.283 0 0 Z " fill="#0C0C0E" transform="translate(282.125,812.25)"/>
<path d="M0 0 C3.499 1.749 6.866 3.605 10.25 5.562 C11.328 6.183 12.405 6.803 13.516 7.441 C14.335 7.956 15.155 8.47 16 9 C16 9.33 16 9.66 16 10 C9.73 10 3.46 10 -3 10 C-2.01 6.7 -1.02 3.4 0 0 Z " fill="#F1F1F1" transform="translate(344,808)"/>
<path d="M0 0 C0.33 0 0.66 0 1 0 C1 6.27 1 12.54 1 19 C0.01 19.33 -0.98 19.66 -2 20 C-1.862 16.854 -1.713 13.708 -1.562 10.562 C-1.523 9.665 -1.484 8.767 -1.443 7.842 C-1.401 6.988 -1.36 6.134 -1.316 5.254 C-1.28 4.463 -1.243 3.672 -1.205 2.858 C-1 1 -1 1 0 0 Z " fill="#EEEEEF" transform="translate(806,829)"/>
<path d="M0 0 C2.679 2.319 3.662 4.318 4.688 7.688 C4.939 8.496 5.19 9.304 5.449 10.137 C5.631 10.752 5.813 11.366 6 12 C5.01 12 4.02 12 3 12 C2.492 10.753 1.994 9.503 1.5 8.25 C1.222 7.554 0.943 6.858 0.656 6.141 C0 4 0 4 0 0 Z " fill="#D4D5D5" transform="translate(790,778)"/>
<path d="M0 0 C0.99 0.33 1.98 0.66 3 1 C3.33 2.98 3.66 4.96 4 7 C3.34 7 2.68 7 2 7 C1.67 7.66 1.34 8.32 1 9 C0.67 6.03 0.34 3.06 0 0 Z " fill="#D6D7D8" transform="translate(800,808)"/>
</svg>